<?xml version="1.0" encoding="UTF-8" standalone="no"?>
<svg xmlns:inkscape="http://www.inkscape.org/namespaces/inkscape" xmlns:sodipodi="http://sodipodi.sourceforge.net/DTD/sodipodi-0.dtd" xmlns="http://www.w3.org/2000/svg" xmlns:svg="http://www.w3.org/2000/svg" width="900" height="900" viewBox="0 0 900 900" version="1.1" xml:space="preserve">
  <sodipodi:namedview pagecolor="#a9a9a9" bordercolor="#292929" borderopacity="1" inkscape:showpageshadow="2" inkscape:pageopacity="0.0" inkscape:pagecheckerboard="0" inkscape:deskcolor="#232323" />
 <style type="text/css">
g.prefab path {
  vector-effect:non-scaling-stroke;
  -inkscape-stroke:hairline;
  fill: none;
  fill-opacity: 1;
  stroke-opacity: 1;
  stroke: #00349c;
}
 </style>
 <g inkscape:label="Cross" style="fill: white; stroke-width: 2; stroke: black;" class="prefab">
  <path d="m 749.60503,148.57132 h -602.712 v 50.22556 h 602.712 z m 0,100.4511 h -602.712 v 50.22736 h 602.712 z m 0,100.4529 h -602.712 v 50.22555 h 602.712 z m 0,100.45109 h -602.712 v 50.22738 h 602.712 z m 0,100.45293 h -602.712 v 50.22554 h 602.712 z m 0,100.45108 h -602.712 v 50.22736 h 602.712 z m 0,100.45291 h -602.712 V 148.57132 h 602.712 z m -602.712,-602.71201 v 602.71199 h 50.22554 V 148.57132 Z m 100.45108,0 v 602.71199 h 50.22737 V 148.57132 Z m 100.45291,0 v 602.71199 h 50.22554 V 148.57132 Z m 100.45109,0 v 602.71199 h 50.22738 V 148.57132 Z m 100.45292,0 v 602.71199 h 50.22555 V 148.57132 Z m 100.45109,0 v 602.71199 h 50.22736 V 148.57132 Z m 100.45291,0 v 602.71199 h -602.712 V 148.57132 Z"/>
  <path d="M 874.43077,449.92732 448.24904,23.745584 412.73421,59.260416 838.91594,485.44216 Z M 803.40113,520.95697 377.21938,94.775236 341.70328,130.29134 767.88501,556.47307 Z M 732.3702,591.98789 306.18845,165.80616 270.67362,201.32099 696.85536,627.50273 Z M 661.34054,663.01754 235.15881,236.83581 199.64268,272.35193 625.82443,698.53367 Z M 590.30959,734.04849 164.12786,307.86676 128.61304,343.38158 554.79478,769.56331 Z M 519.27996,805.07813 93.098217,378.8964 57.582106,414.4125 483.76384,840.59424 Z M 448.24902,876.10906 22.067279,449.92733 448.24904,23.745586 874.43077,449.92732 Z m 1e-5,-852.363476 L 22.067292,449.92732 57.582115,485.44215 483.76385,59.260407 Z M 519.27868,94.775226 93.096935,520.95696 128.61305,556.47307 554.79479,130.29134 Z m 71.03093,71.030924 -426.18174,426.18174 35.51481,35.51482 426.18175,-426.18173 z m 71.02964,71.02966 -426.18173,426.18173 35.51611,35.51612 426.18174,-426.18174 z M 732.3702,307.86674 306.18845,734.04848 341.70328,769.5633 767.88502,343.38157 Z M 803.39985,378.89639 377.2181,805.07812 412.73421,840.59423 838.91595,414.4125 Z M 874.43077,449.92732 448.24903,876.10906 22.067292,449.92732 448.24903,23.745584 Z"/>
 </g>
</svg>
