<?xml version="1.0" encoding="UTF-8" standalone="no"?>
<svg xmlns:inkscape="http://www.inkscape.org/namespaces/inkscape" xmlns:sodipodi="http://sodipodi.sourceforge.net/DTD/sodipodi-0.dtd" xmlns="http://www.w3.org/2000/svg" xmlns:svg="http://www.w3.org/2000/svg" width="900" height="900" viewBox="0 0 900 900" version="1.1" xml:space="preserve">
<sodipodi:namedview pagecolor="#a9a9a9" bordercolor="#292929" borderopacity="1" inkscape:showpageshadow="2" inkscape:pageopacity="0.0" inkscape:pagecheckerboard="0" inkscape:deskcolor="#232323" />
<style type="text/css">
g.prefab path {
  vector-effect:non-scaling-stroke;
  -inkscape-stroke:hairline;
  fill: none;
  fill-opacity: 1;
  stroke-opacity: 1;
  stroke: #00349c;
}
</style>
<g inkscape:label="Double Vision" style="fill: white; stroke-width: 2; stroke: black;" class="prefab">
  <path d="M 854.44504,46.327501 H 54.445038 V 135.21639 H 854.44504 Z m 0,177.777779 H 54.445038 v 88.88889 H 854.44504 Z m 0,177.77778 H 54.445038 v 88.8889 H 854.44504 Z m 0,177.77778 H 54.445038 v 88.88892 H 854.44504 Z m 0,177.77775 H 54.445038 v 88.8889 H 854.44504 Z M 54.445038,46.3275 V 846.32749 H 143.33393 V 46.3275 Z m 177.777792,0 v 799.99999 h 88.88888 V 46.3275 Z m 177.77777,0 v 799.99999 h 88.88889 V 46.3275 Z m 177.77778,0 v 799.99999 h 88.88889 V 46.3275 Z m 177.77777,0 v 799.99999 h 88.88889 V 46.3275 Z"/>
  <path d="M 365.55637,135.21617 A 311.11111,311.11111 0 0 0 54.445036,446.32749 311.11111,311.11111 0 0 0 365.55637,757.43882 311.11111,311.11111 0 0 0 676.6677,446.32749 311.11111,311.11111 0 0 0 365.55637,135.21617 Z m 0,88.88867 A 222.22223,222.22223 0 0 1 587.77902,446.32749 222.22223,222.22223 0 0 1 365.55637,668.55015 222.22223,222.22223 0 0 1 143.33371,446.32749 222.22223,222.22223 0 0 1 365.55637,224.10484 Z m 0,88.88867 A 133.33334,133.33333 0 0 0 232.22238,446.32749 133.33334,133.33333 0 0 0 365.55637,579.66148 133.33334,133.33333 0 0 0 498.89035,446.32749 133.33334,133.33333 0 0 0 365.55637,312.99351 Z m 0,88.88867 a 44.444447,44.444447 0 0 1 44.44336,44.44531 44.444447,44.444447 0 0 1 -44.44336,44.44532 44.444447,44.444447 0 0 1 -44.44531,-44.44532 44.444447,44.444447 0 0 1 44.44531,-44.44531 z"/>
  <path d="M 543.33371,135.21617 A 311.11111,311.11111 0 0 0 232.22238,446.32749 311.11111,311.11111 0 0 0 543.33371,757.43882 311.11111,311.11111 0 0 0 854.44504,446.32749 311.11111,311.11111 0 0 0 543.33371,135.21617 Z m 0,88.88867 A 222.22224,222.22223 0 0 1 765.55637,446.32749 222.22224,222.22223 0 0 1 543.33371,668.55015 222.22224,222.22223 0 0 1 321.11106,446.32749 222.22224,222.22223 0 0 1 543.33371,224.10484 Z m 0,88.88867 A 133.33336,133.33333 0 0 0 409.99973,446.32749 133.33336,133.33333 0 0 0 543.33371,579.66148 133.33336,133.33333 0 0 0 676.6677,446.32749 133.33336,133.33333 0 0 0 543.33371,312.99351 Z m 0,88.88867 a 44.444447,44.444447 0 0 1 44.44531,44.44531 44.444447,44.444447 0 0 1 -44.44531,44.44532 44.444447,44.444447 0 0 1 -44.44336,-44.44532 44.444447,44.444447 0 0 1 44.44336,-44.44531 z"/>
</g>
</svg>
