<?xml version="1.0" encoding="UTF-8" standalone="no"?>
<svg xmlns:inkscape="http://www.inkscape.org/namespaces/inkscape" xmlns:sodipodi="http://sodipodi.sourceforge.net/DTD/sodipodi-0.dtd" xmlns="http://www.w3.org/2000/svg" xmlns:svg="http://www.w3.org/2000/svg" width="900" height="900" viewBox="0 0 900 900" version="1.1" xml:space="preserve">
<sodipodi:namedview pagecolor="#a9a9a9" bordercolor="#292929" borderopacity="1" inkscape:showpageshadow="2" inkscape:pageopacity="0.0" inkscape:pagecheckerboard="0" inkscape:deskcolor="#232323" />
<style type="text/css">
g.prefab path {
  vector-effect:non-scaling-stroke;
  -inkscape-stroke:hairline;
  fill: none;
  fill-opacity: 1;
  stroke-opacity: 1;
  stroke: #00349c;
}
</style>
<g inkscape:label="Rose" style="fill: white; stroke-width: 2; stroke: black;" class="prefab">
  <path d="m 366.16486,141.20427 c -52.97238,52.97238 -82.73196,124.81835 -82.73196,199.73262 0,74.91426 29.75958,146.76023 82.73196,199.73261 52.97238,52.97238 124.81835,82.73195 199.73261,82.73195 74.91426,0 146.76023,-29.75957 199.73261,-82.73195 110.30927,-110.30928 110.30927,-289.15595 0,-399.46523 -110.30928,-110.309272 -289.15594,-110.309272 -399.46522,0 z m 159.7861,639.14434 c 110.30928,-110.30928 110.30928,-289.15595 0,-399.46523 -110.30928,-110.30928 -289.15595,-110.30928 -399.46523,0 -52.972388,52.97238 -82.731958,124.81835 -82.731948,199.73261 0,74.91426 29.75958,146.76023 82.731968,199.73261 52.97238,52.97238 124.81835,82.73195 199.7326,82.73195 74.91426,10e-6 146.76023,-29.75956 199.73261,-82.73194 z m 239.6791,-399.4652 c -110.30928,-110.30927 -289.15594,-110.30927 -399.46522,0 -52.97238,52.97238 -82.73196,124.81835 -82.73196,199.73262 0,74.91426 29.75958,146.76023 82.73196,199.73261 52.97238,52.97238 124.81835,82.73195 199.73261,82.73195 74.91426,0 146.76023,-29.75957 199.73261,-82.73195 110.30927,-110.30928 110.30927,-289.15595 0,-399.46523 z M 126.4857,540.66951 c 52.97238,52.97238 124.81835,82.73196 199.73262,82.73196 74.91426,0 146.76023,-29.75958 199.73261,-82.73196 110.30928,-110.30928 110.30928,-289.15595 0,-399.46523 -110.30928,-110.309279 -289.15595,-110.309279 -399.46523,0 -52.972388,52.97238 -82.731968,124.81835 -82.731968,199.73262 0,74.91426 29.75958,146.76023 82.731968,199.73261 z M 381.7153,267.74832 c -71.07107,71.07106 -71.07115,186.29994 -1.8e-4,257.37091 71.07097,71.07097 186.29985,71.07089 257.37091,-1.8e-4 71.07106,-71.07106 71.07114,-186.29993 1.8e-4,-257.3709 -71.07097,-71.07097 -186.29985,-71.07089 -257.37091,1.7e-4 z m 128.68521,386.05625 c 71.07107,-71.07106 71.07115,-186.29994 1.8e-4,-257.37091 -71.07097,-71.07097 -186.29985,-71.07089 -257.37091,1.7e-4 -71.07107,71.07106 -71.07115,186.29994 -1.8e-4,257.37091 71.07097,71.07097 186.29985,71.07089 257.37091,-1.7e-4 z M 639.08602,396.43386 c -71.07106,-71.07106 -186.29993,-71.07113 -257.3709,-1.7e-4 -71.07097,71.07097 -71.07089,186.29985 1.7e-4,257.37091 71.07106,71.07107 186.29994,71.07115 257.37091,1.8e-4 71.07097,-71.07097 71.07089,-186.29986 -1.8e-4,-257.37092 z M 253.02976,525.11907 c 71.07106,71.07107 186.29994,71.07115 257.37091,1.8e-4 71.07097,-71.07097 71.07089,-186.29985 -1.7e-4,-257.37091 -71.07106,-71.07107 -186.29994,-71.07115 -257.37091,-1.8e-4 -71.07097,71.07097 -71.07089,186.29985 1.7e-4,257.37091 z M 46.292252,60.335872 H 846.58515 L 46.292252,860.3359 Z m 399.912178,-2e-6 H 46.292282 v 800 H 446.20443 Z m 399.91219,400 H 46.292282 v 400 H 846.11662 Z m 0,-399.999998 H 46.292272 L 846.11662,860.3359 Z"/>
</g>
</svg>
