<?xml version="1.0" encoding="UTF-8" standalone="no"?>
<svg xmlns:inkscape="http://www.inkscape.org/namespaces/inkscape" xmlns:sodipodi="http://sodipodi.sourceforge.net/DTD/sodipodi-0.dtd" xmlns="http://www.w3.org/2000/svg" xmlns:svg="http://www.w3.org/2000/svg" width="900" height="900" viewBox="0 0 900 900" version="1.1" xml:space="preserve">
<sodipodi:namedview pagecolor="#a9a9a9" bordercolor="#292929" borderopacity="1" inkscape:showpageshadow="2" inkscape:pageopacity="0.0" inkscape:pagecheckerboard="0" inkscape:deskcolor="#232323" />
<style type="text/css">
g.prefab path {
  vector-effect:non-scaling-stroke;
  -inkscape-stroke:hairline;
  fill: none;
  fill-opacity: 1;
  stroke-opacity: 1;
  stroke: #00349c;
}
</style>
<g inkscape:label="Crown" style="fill: white; stroke-width: 2; stroke: black;" class="prefab">
  <path d="m 415.21433,101.36145 -172.92072,71.62912 42.8532,103.4833 -103.47551,-42.85535 -71.62814,172.92932 103.47544,42.87137 -103.47548,42.85533 71.62823,172.94536 103.47542,-42.87132 -42.85316,103.49935 172.92075,71.62903 42.86922,-103.49669 42.8532,103.49669 L 673.87347,725.8478 631.00422,622.34845 734.49845,665.21982 806.12664,492.27453 702.63252,449.4192 806.12675,406.54776 734.49855,233.61852 631.00432,276.4738 673.87358,172.99055 500.93675,101.36145 458.08364,204.84207 Z m -43.92187,106.0226 11.8121,28.5167 c 12.55828,30.3292 42.159,50.09029 74.97899,50.09023 32.82008,-3e-5 62.40464,-19.76102 74.96295,-50.09029 l 11.81214,-28.51655 22.9975,9.51449 -11.83083,28.53258 c -12.55838,30.31319 -5.61466,65.22396 17.59233,88.43211 23.20706,23.20829 58.1159,30.15223 88.44372,17.59325 l 28.51525,-11.81538 9.51401,22.98255 -28.5152,11.81272 c -30.32775,12.55891 -50.08772,42.16105 -50.08783,74.98274 -10e-6,32.82165 19.76,62.40766 50.08779,74.96669 l 28.51526,11.81266 -9.5141,22.9988 -28.51518,-11.83168 c -30.32772,-12.55879 -65.23678,-5.61494 -88.44378,17.59321 -23.207,23.20831 -30.15059,58.11633 -17.59233,88.44558 l 11.83094,28.51669 -22.99761,9.51714 -11.81216,-28.51662 c -12.55833,-30.3294 -42.14288,-50.09048 -74.96276,-50.09033 -32.82013,6e-5 -62.42067,19.76109 -74.97913,50.09029 l -11.81211,28.51658 -22.98141,-9.51711 11.81476,-28.51663 c 12.55849,-30.32924 5.61475,-65.23734 -17.59225,-88.44549 -23.20706,-23.20829 -58.11353,-30.15218 -88.4251,-17.59318 l -28.53121,11.83144 -9.51672,-22.99866 28.51517,-11.81267 c 30.32783,-12.55899 50.08776,-42.14514 50.08783,-74.96666 -5e-5,-32.82162 -19.75997,-62.42379 -50.08783,-74.98274 l -28.51525,-11.81272 9.51679,-22.98263 28.53117,11.81548 c 30.31171,12.55895 65.21803,5.6149 88.42511,-17.59333 23.207,-23.20815 30.15065,-58.11888 17.5923,-88.43206 L 348.311,216.89854 Z m 36.83195,121.44616 c -6.57044,15.45598 -16.11641,29.81036 -28.46435,42.15891 -12.34806,12.34867 -26.70423,21.89762 -42.15948,28.46841 6.27923,15.58543 9.67737,32.49885 9.67736,49.9617 2e-5,17.44656 -3.39813,34.3602 -9.67739,49.94567 15.45516,6.57081 29.81152,16.11978 42.15949,28.46836 12.34787,12.34879 21.89378,26.70295 28.46427,42.15887 15.58467,-6.27952 32.49732,-9.6779 49.95931,-9.67792 17.44576,6e-5 34.35843,3.39838 49.94301,9.67783 6.57062,-15.45588 16.11905,-29.8101 28.46711,-42.15877 12.34797,-12.34859 26.7015,-21.89764 42.17275,-28.46845 -6.29527,-15.58546 -9.69329,-32.49899 -9.69337,-49.9456 2e-5,-17.46285 3.39811,-34.37632 9.69344,-49.96174 -15.47139,-6.57072 -29.82483,-16.11976 -42.17285,-28.46839 -12.34777,-12.34869 -21.89657,-26.7029 -28.46699,-42.1589 -15.58468,6.27944 -32.49744,9.67793 -49.94319,9.67795 -17.46188,-9e-5 -34.37439,-3.39848 -49.95912,-9.67793 z m -300.03946,120.589 699.99997,4e-5 -2e-5,349.99995 -699.99995,-2e-5 z m 4e-5,-349.999927 349.99999,2.5e-5 -6e-5,699.999952 -349.99998,-2e-5 z m -3e-5,-2.7e-5 699.99997,3.9e-5 10e-6,699.999945 -700.00002,-10e-6 z m -4e-5,699.999974 4e-5,-699.999974 699.99997,3.9e-5 10e-6,699.999945 z m 350.00002,-350 350.00006,-349.999947 -6e-5,699.999957 z m -349.99997,349.99997 1e-5,-699.999925 349.99996,349.999955 z"/>
</g>
</svg>
