<?xml version="1.0" encoding="UTF-8" standalone="no"?>
<!-- Created with Inkscape (http://www.inkscape.org/) -->

<svg
   width="1920"
   height="1080"
   viewBox="0 0 1920 1080"
   version="1.1"
   id="svg5"
   inkscape:version="1.3-dev (4631277b66, 2023-02-24, custom)"
   sodipodi:docname="Decoratives.svg"
   xmlns:inkscape="http://www.inkscape.org/namespaces/inkscape"
   xmlns:sodipodi="http://sodipodi.sourceforge.net/DTD/sodipodi-0.dtd"
   xmlns:xlink="http://www.w3.org/1999/xlink"
   xmlns="http://www.w3.org/2000/svg"
   xmlns:svg="http://www.w3.org/2000/svg">
  <sodipodi:namedview
     id="namedview7"
     pagecolor="#ffffff"
     bordercolor="#000000"
     borderopacity="0.25"
     inkscape:showpageshadow="false"
     inkscape:pageopacity="0.0"
     inkscape:pagecheckerboard="0"
     inkscape:deskcolor="#d1d1d1"
     inkscape:document-units="px"
     showgrid="false"
     inkscape:zoom="2.3547259"
     inkscape:cx="759.96107"
     inkscape:cy="644.23634"
     inkscape:window-width="1858"
     inkscape:window-height="1177"
     inkscape:window-x="1912"
     inkscape:window-y="-8"
     inkscape:window-maximized="1"
     inkscape:current-layer="layer1" />
  <defs
     id="defs2">
    <pattern
       inkscape:collect="always"
       xlink:href="#DecorativePaper"
       id="pattern168939"
       patternTransform="matrix(0.5,0,0,0.5,283.83611,79.85941)" />
    <pattern
       patternUnits="userSpaceOnUse"
       width="100"
       height="100"
       id="DecorativePaper"
       style="fill:#000000"
       inkscape:stockid="Decorative Paper"
       preserveAspectRatio="xMidYMid"
       patternTransform="scale(0.5,0.5)">
      <path
         id="path163941"
         style="opacity:1;fill-opacity:0.994819;stroke-width:1"
         inkscape:transform-center-x="-0.022809513"
         inkscape:transform-center-y="0.17213445"
         d="m 95.49805,0 c 0.2337,0.655687 1.33166,1.004203 1.73437,1.650391 l 0.002,0.0019 c 0.0425,0.01128 0.0803,0.0198 0.12305,0.03125 -0.0136,0.05056 -0.0274,0.09646 -0.041,0.146484 0.33338,0.766429 0.14131,1.975512 0.89062,2.279297 C 98.81461,4.355647 99.39115,3.738046 100,3.326122 V 0 Z m 1.81836,1.830078 c -0.0263,-0.06034 -0.0485,-0.123616 -0.082,-0.177734 -5.39503,-1.43204 -9.126682,-1.557222 -12.402348,0.333984 -4.330124,2.499998 -5.92927,5.732002 -7.027343,9.830078 4.098069,1.098079 9.063243,1.697264 12.527341,-0.302734 3.43205,-1.981503 5.52214,-4.326625 6.98438,-9.683594 z M 100,3.666016 C 96.44152,7.35613 94.63867,10.404321 94.63867,14 c 0,4.999995 2.00001,8.000013 5,11 0.12095,-0.120944 0.24058,-0.252824 0.36133,-0.376953 z m 0,71.001953 C 97.22825,77.581702 94.63867,81.285412 94.63867,85 c 0,3.956986 0.98357,6.93711 4.87696,10.87305 0.0495,0.0325 0.0999,0.061 0.14843,0.0996 C 99.78318,95.85337 99.88445,95.74091 100,95.62304 Z M 99.66406,95.97266 c -0.009,0.009 -0.0162,0.0182 -0.0254,0.0273 -0.043,-0.043 -0.0807,-0.0842 -0.12304,-0.12696 -0.22218,-0.1458 -0.45293,-0.23001 -0.71094,-0.16601 -0.84738,0.2102 -0.75052,1.62874 -1.3125,2.29687 -0.56199,0.66813 -1.97713,0.81665 -2.03906,1.6875 -0.008,0.11138 0.0106,0.21244 0.0449,0.3086 H 100 V 96.27535 C 99.88915,96.166 99.77708,96.06253 99.66406,95.97262 Z M 83.5,85.529297 c -1.704673,-0.0074 -3.402407,0.306702 -5.195312,0.787109 1.098075,4.098074 3.063245,8.697264 6.527343,10.697264 3.464096,2 6.561299,2.63403 12.025389,1.16992 C 95.39332,92.7195 93.63351,89.392441 90.33203,87.486328 87.896338,86.08008 85.691722,85.538783 83.5,85.529297 Z M 0.638672,74 C 0.424614,74.214058 0.212968,74.444092 0,74.667969 V 95.62305 C 3.746981,91.80072 5.638672,88.689684 5.638672,85 c 0,-4.999995 -2.000004,-8.000003 -5,-11 z m 15.332031,12.173828 c -2.186294,-0.03678 -4.293342,0.312503 -6.025391,1.3125 -3.454717,1.994583 -5.550106,4.354532 -7.013671,9.787112 0.182098,0.0273 0.35088,0.0716 0.486328,0.16601 5.188444,1.33602 8.830172,1.42011 12.027343,-0.42578 4.330122,-2.5 5.929273,-5.732 7.027344,-9.830076 -2.049035,-0.549037 -4.315658,-0.972987 -6.501953,-1.009766 z M 3.417969,97.43945 c -0.169265,-0.0436 -0.325421,-0.0768 -0.498047,-0.12304 0.004,-0.0148 0.0077,-0.0282 0.01172,-0.043 C 2.343505,97.18521 1.579644,97.34221 1.039064,97.12302 0.658911,96.96893 0.330006,96.60093 0,96.27539 V 100 H 3.017578 C 3.213131,99.19311 4.051132,98.33961 3.628906,97.66211 3.571186,97.56951 3.499814,97.49652 3.417969,97.43945 Z M 0,0 V 3.326172 C 0.200629,3.190434 0.405626,3.078197 0.615234,3.025391 c 0.0085,-0.0085 0.01493,-0.01688 0.02344,-0.02539 0.0064,0.0064 0.01121,0.01315 0.01758,0.01953 C 1.502169,2.836995 2.705571,3.514336 3.25977,2.855468 3.821753,2.187341 2.910716,1.095463 2.972656,0.224609 2.97796,0.150044 2.999266,0.075558 3.017578,0 Z m 0.65625,3.019531 c -0.01189,0.0026 -0.02537,9.93e-4 -0.03711,0.0039 -0.0014,3.4e-4 -0.0025,0.0016 -0.0039,0.002 C 0.396993,3.243908 0.206283,3.452101 0,3.666016 V 24.623047 C 2.874373,21.668176 5.638672,17.838737 5.638672,14 5.638672,10.006389 4.640295,7.009952 0.65625,3.019531 Z M 8.712891,0.015625 C 7.185226,0.013225 5.468957,0.26737 3.419922,0.816406 c 1.464098,5.464097 3.223909,8.791155 6.52539,10.697266 4.330119,2.499997 7.929269,2.267996 12.027344,1.169922 C 20.874579,8.585521 18.90941,3.986329 15.445312,1.986328 13.280254,0.736331 11.258999,0.019694 8.712891,0.015625 Z m 44.546711,52.839891 c -0.561988,0.668128 -1.792958,-0.04298 -2.640332,0.167217 -0.847373,0.210199 -1.603289,1.414175 -2.41238,1.086156 -0.809091,-0.328019 -0.513177,-1.718487 -0.974941,-2.459432 -0.461764,-0.740944 -1.840403,-1.087814 -1.778461,-1.958669 0.06194,-0.870855 1.475797,-1.019102 2.037785,-1.68723 0.561987,-0.668128 0.465857,-2.086481 1.31323,-2.29668 0.847374,-0.210199 1.42527,1.088647 2.234362,1.416666 0.809091,0.328019 2.128319,-0.201701 2.590082,0.539244 0.461764,0.740945 -0.594932,1.691923 -0.656874,2.562778 -0.06194,0.870855 0.849517,1.961822 0.287529,2.62995 z m 6.686643,8.657629 c 4.330123,2.5 7.928198,2.267947 12.026277,1.169872 -1.098078,-4.098077 -3.06218,-8.696152 -6.526281,-10.696155 -3.464097,-1.999997 -6.562176,-2.63397 -12.026275,-1.169872 1.4641,5.464102 3.224794,8.790042 6.526279,10.696155 z M 40.331514,37.486862 c -4.330126,-2.5 -7.928205,-2.267947 -12.026279,-1.169872 1.098077,4.098077 3.062179,8.696152 6.526281,10.696155 3.464099,2 6.562173,2.633975 12.026274,1.169872 -1.464102,-5.464102 -3.224797,-8.79004 -6.526276,-10.696155 z m 25.114727,9.526283 c 4.330126,-2.500003 5.928206,-5.732053 7.026278,-9.830128 -4.098074,-1.098075 -9.062173,-1.696152 -12.526274,0.303845 -3.464105,2.000003 -5.562179,4.366028 -7.026281,9.830128 5.464103,1.4641 9.2248,1.602267 12.526277,-0.303845 z m -30.614725,4.973717 c -4.330129,2.5 -5.928204,5.732053 -7.026279,9.830128 4.098074,1.09808 9.062173,1.696155 12.526277,-0.303845 3.464099,-2.000003 5.562171,-4.366025 7.026274,-9.830128 -5.464099,-1.464102 -9.224793,-1.602265 -12.526272,0.303845 z m 20.80736,-16.986857 c 0,-5 -2,-8 -4.999999,-11 -3,3 -5.999996,6.999997 -5.999996,11 0,4 0.999999,7 4.999996,11 3.999999,-4 5.999999,-7.187775 5.999999,-11 z m -10.999995,29 c 0,5 1.999999,8 4.999996,10.999999 3,-3 5.999999,-6.999999 5.999999,-10.999999 0,-4.000003 -1,-7.000003 -4.999999,-11 -3.999997,3.999997 -5.999996,7.187775 -5.999996,11 z m 6.361112,32.000005 a 3,3 0 0 0 3,3 3,3 0 0 0 3,-3 3,3 0 0 0 -3,-3 3,3 0 0 0 -3,3 z M 92.99998,54.000005 a 3,3 0 0 0 3,3 3,3 0 0 0 3,-3 3,3 0 0 0 -3,-3 3,3 0 0 0 -3,3 z m -6.999996,6.999997 a 3,3 0 0 0 3,3 3,3 0 0 0 3,-3 3,3 0 0 0 -3,-3 3,3 0 0 0 -3,3 z m -6.999995,7.000003 a 3,3 0 0 0 3,3 3,3 0 0 0 3,-3 3,3 0 0 0 -3,-3 3,3 0 0 0 -3,3 z m -7.000001,6.999997 a 3,3 0 0 0 3,3 3,3 0 0 0 3,-3 3,3 0 0 0 -3,-3 3,3 0 0 0 -3,3 z m -6.999999,7.000003 a 3,3 0 0 0 3,3 3,3 0 0 0 3,-3 3,3 0 0 0 -3,-3 3,3 0 0 0 -3,3 z m -6.999998,6.999997 A 3,3 0 0 0 60.999993,92 a 3,3 0 0 0 3,-3 3,3 0 0 0 -3,-3 3,3 0 0 0 -3,3 z m -56.999983,-43 a 3,3 0 0 0 3,3 3,3 0 0 0 3,-3 3,3 0 0 0 -3,-3 3,3 0 0 0 -3,3 z M 42.999995,4.000006 a 3,3 0 0 0 3,3 3,3 0 0 0 3,-3 3,3 0 0 0 -3,-3.000004 3,3 0 0 0 -3,3.000004 z m -6.999999,6.999998 a 3,3 0 0 0 3,3 3,3 0 0 0 3,-3 3,3 0 0 0 -3,-3 3,3 0 0 0 -3,3 z m -6.999995,6.999999 A 3,3 0 0 0 32,21.000002 a 3,3 0 0 0 3,-3 3,3 0 0 0 -3,-3 3,3 0 0 0 -3,3 z M 22,25.000005 a 3,3 0 0 0 3,3 3,3 0 0 0 3,-3 3,3 0 0 0 -3,-3 3,3 0 0 0 -3,3 z m -6.999997,6.999997 a 3,3 0 0 0 3,3 3,3 0 0 0 3,-3 3,3 0 0 0 -3,-3 3,3 0 0 0 -3,3 z m -6.999999,7.000003 a 3,3 0 0 0 3,3 3,3 0 0 0 3,-3 3,3 0 0 0 -3,-3 3,3 0 0 0 -3,3 z m 90.999976,6.999997 a 3,3 0 0 1 -3,3 3,3 0 0 1 -3,-3 3,3 0 0 1 3,-3 3,3 0 0 1 3,3 z M 56.999991,4.000006 a 3,3 0 0 1 -3,3 3,3 0 0 1 -3,-3 3,3 0 0 1 3,-3.000004 3,3 0 0 1 3,3.000004 z m 7.000001,6.999998 a 3,3 0 0 1 -3,3 3,3 0 0 1 -3,-3 3,3 0 0 1 3,-3 3,3 0 0 1 3,3 z m 6.999996,6.999999 a 3,3 0 0 1 -3,3 3,3 0 0 1 -3,-3 3,3 0 0 1 3,-3 3,3 0 0 1 3,3 z m 7.000001,7.000002 a 3,3 0 0 1 -3,3 3,3 0 0 1 -3,-3 3,3 0 0 1 3,-3 3,3 0 0 1 3,3 z m 6.999996,6.999997 a 3,3 0 0 1 -3,3 3,3 0 0 1 -3,-3 3,3 0 0 1 3,-3 3,3 0 0 1 3,3 z m 6.999995,7.000003 a 3,3 0 0 1 -3,3 3,3 0 0 1 -3,-3 3,3 0 0 1 3,-3 3,3 0 0 1 3,3 z M 48.999993,96.00001 a 3,3 0 0 1 -3,3 3,3 0 0 1 -3,-3 3,3 0 0 1 3,-3 3,3 0 0 1 3,3 z M 7.000004,54.000005 a 3,3 0 0 1 -3,3 3,3 0 0 1 -3,-3 3,3 0 0 1 3,-3 3,3 0 0 1 3,3 z m 7,6.999997 a 3,3 0 0 1 -3,3 3,3 0 0 1 -3,-3 3,3 0 0 1 3,-3 3,3 0 0 1 3,3 z M 21,68.000005 a 3,3 0 0 1 -3,3 3,3 0 0 1 -3,-3 3,3 0 0 1 3,-3 3,3 0 0 1 3,3 z m 7.000001,6.999998 A 3,3 0 0 1 24.999999,78.000002 3,3 0 0 1 22,75.000003 a 3,3 0 0 1 3,-3 3,3 0 0 1 3,3 z m 6.999996,7.000002 a 3,3 0 0 1 -3,3 3,3 0 0 1 -3,-3 3,3 0 0 1 3,-3 3,3 0 0 1 3,3 z m 6.999998,6.999997 A 3,3 0 0 1 38.999996,92 a 3,3 0 0 1 -3,-3 3,3 0 0 1 3,-3 3,3 0 0 1 3,3 z" />
    </pattern>
    <pattern
       inkscape:collect="always"
       xlink:href="#ZigZag"
       id="pattern182968"
       patternTransform="matrix(0.17875,0,0,0.17875,210.28871,116.48441)"
       x="0"
       y="0"
       preserveAspectRatio="none" />
    <pattern
       patternUnits="userSpaceOnUse"
       width="100"
       height="90"
       patternTransform="scale(0.2)"
       inkscape:stockid="Zig Zag"
       id="ZigZag"
       style="fill:#000000"
       x="0"
       y="0"
       preserveAspectRatio="none">
      <path
         style="opacity:1;fill-opacity:1;stroke:none;stroke-width:1;stroke-dasharray:none"
         d="M 50,90 0,40 V 10 L 50,60 100,10 V 40 L 50,90"
         id="zigzag-path-pattern"
         sodipodi:nodetypes="ccccccc" />
    </pattern>
    <pattern
       inkscape:collect="always"
       xlink:href="#Wave"
       preserveAspectRatio="xMidYMid"
       id="pattern10"
       patternTransform="matrix(1.9513472,0,0,1.9513472,-467.39761,-562.86809)" />
    <pattern
       patternUnits="userSpaceOnUse"
       width="24"
       height="10"
       preserveAspectRatio="xMidYMid"
       id="Wave"
       style="fill:#000000"
       x="0"
       y="0">
      <g
         id="wave_g"
         style="display:inline">
        <path
           d="M 12,-2 C 9.1666695,-2 7.1679672,-0.56445187 5.4179687,0.68554687 3.6679703,1.9355456 2.1666645,3 0,3 V 5 C 2.8333305,5 4.8320328,3.5644519 6.5820312,2.3144531 8.3320297,1.0644544 9.8333355,0 12,0 14.166665,0 15.667971,1.0644544 17.417969,2.3144531 19.167967,3.5644519 21.166669,5 24,5 V 3 C 21.833335,3 20.332029,1.9355456 18.582031,0.68554687 16.832033,-0.56445189 14.833331,-2 12,-2 Z"
           id="path3" />
        <path
           d="M 12,3 C 9.1666695,3 7.1679672,4.4355481 5.4179687,5.6855469 3.6679703,6.9355456 2.1666645,8 0,8 v 2 C 2.8333305,10 4.8320328,8.5644519 6.5820312,7.3144531 8.3320297,6.0644544 9.8333355,5 12,5 14.166665,5 15.667971,6.0644544 17.417969,7.3144531 19.167967,8.5644519 21.166669,10 24,10 V 8 C 21.833335,8 20.332029,6.9355456 18.582031,5.6855469 16.832033,4.4355481 14.833331,3 12,3 Z"
           id="path4" />
        <path
           d="M 12,8 C 9.1666695,8 7.1679672,9.4355481 5.4179687,10.685547 3.6679703,11.935546 2.1666645,13 0,13 v 2 C 2.8333305,15 4.8320328,13.564452 6.5820312,12.314453 8.3320297,11.064454 9.8333355,10 12,10 c 2.166665,0 3.667971,1.064454 5.417969,2.314453 C 19.167967,13.564452 21.166669,15 24,15 V 13 C 21.833335,13 20.332029,11.935546 18.582031,10.685547 16.832033,9.4355481 14.833331,8 12,8 Z"
           id="path5" />
      </g>
    </pattern>
    <pattern
       inkscape:collect="always"
       xlink:href="#Ermine"
       preserveAspectRatio="xMidYMid"
       id="pattern13"
       patternTransform="translate(163.24321,201.8595)" />
    <pattern
       patternUnits="userSpaceOnUse"
       width="40"
       height="40"
       preserveAspectRatio="xMidYMid"
       id="Ermine"
       style="fill:#000000"
       x="0"
       y="0">
      <g
         id="g9"
         style="display:inline"
         transform="scale (0.2)">
        <path
           id="path11"
           style="font-variation-settings:normal;fill-opacity:1;fill-rule:evenodd;stroke:none;stroke-width:1;stroke-linecap:butt;stroke-linejoin:miter;stroke-miterlimit:4;stroke-dasharray:none;stroke-dashoffset:0;stroke-opacity:1"
           d="M 16.8516,46.510378 C 7.5525411,46.510378 0,54.06734 0,63.366154 c 0,9.301262 7.5525411,16.845955 16.8516,16.845955 9.299304,0 16.844228,-7.544693 16.844228,-16.845955 0,-9.298814 -7.544924,-16.855776 -16.844228,-16.855776 z m 22.794236,5.272186 C 35.512849,117.63826 18.004061,143.36782 7.0245936,188.68505 L 31.123858,171.83174 44.221537,188.60889 57.318971,171.817 80.013227,188.6605 C 67.1993,142.95753 50.989148,117.71195 47.353897,51.782564 Z m 30.548002,-5.964999 c -9.299059,0 -16.843982,7.544693 -16.843982,16.843493 0,9.298814 7.544923,16.843493 16.843982,16.843493 9.29929,0 16.844227,-7.544679 16.844227,-16.843493 0,-9.2988 -7.544937,-16.843493 -16.844227,-16.843493 z M 43.522835,11.314949 c -9.29929,0 -16.844229,7.544679 -16.844229,16.843493 0,9.2988 7.544939,16.853314 16.844229,16.853314 9.299059,0 16.843982,-7.554514 16.843982,-16.853314 0,-9.298814 -7.544923,-16.843493 -16.843982,-16.843493 z"
           sodipodi:nodetypes="sssssccccccccssssssssss" />
        <path
           id="use11"
           style="font-variation-settings:normal;fill-opacity:1;fill-rule:evenodd;stroke:none;stroke-width:1;stroke-linecap:butt;stroke-linejoin:miter;stroke-miterlimit:4;stroke-dasharray:none;stroke-dashoffset:0;stroke-opacity:1"
           d="m 116.8516,155.19543 c -9.29905,0 -16.851602,7.55696 -16.851602,16.85577 0,9.30127 7.552552,16.84596 16.851602,16.84596 9.29931,0 16.84423,-7.54469 16.84423,-16.84596 0,-9.29881 -7.54492,-16.85577 -16.84423,-16.85577 z m 22.79424,5.27218 c -4.13299,65.8557 -21.64177,91.58526 -32.62124,136.90249 l 24.09926,-16.85331 13.09768,16.77715 13.09744,-16.79189 22.69425,16.8435 C 167.1993,251.64258 150.98915,226.397 147.3539,160.46761 Z m 30.548,-5.96499 c -9.29906,0 -16.84398,7.54469 -16.84398,16.84349 0,9.29881 7.54492,16.84349 16.84398,16.84349 9.29929,0 16.84423,-7.54468 16.84423,-16.84349 0,-9.2988 -7.54494,-16.84349 -16.84423,-16.84349 z M 143.52284,120 c -9.29929,0 -16.84423,7.54468 -16.84423,16.84349 0,9.2988 7.54494,16.85332 16.84423,16.85332 9.29906,0 16.84398,-7.55452 16.84398,-16.85332 C 160.36682,127.54468 152.8219,120 143.52284,120 Z"
           sodipodi:nodetypes="sssssccccccccssssssssss" />
        <path
           id="use13"
           style="font-variation-settings:normal;fill-opacity:1;fill-rule:evenodd;stroke:none;stroke-width:1;stroke-linecap:butt;stroke-linejoin:miter;stroke-miterlimit:4;stroke-dasharray:none;stroke-dashoffset:0;stroke-opacity:1"
           d="m 116.8516,-44.804571 c -9.29905,0 -16.851602,7.556962 -16.851602,16.855776 0,9.301262 7.552552,16.845955 16.851602,16.845955 9.29931,0 16.84423,-7.544693 16.84423,-16.845955 0,-9.298814 -7.54492,-16.855776 -16.84423,-16.855776 z m 22.79424,5.272186 C 135.51285,26.323311 118.00407,52.052871 107.0246,97.370101 l 24.09926,-16.85331 13.09768,16.77715 13.09744,-16.79189 22.69425,16.8435 C 167.1993,51.642581 150.98915,26.397001 147.3539,-39.532385 Z m 30.548,-5.964999 c -9.29906,0 -16.84398,7.544693 -16.84398,16.843493 0,9.298814 7.54492,16.843493 16.84398,16.843493 9.29929,0 16.84423,-7.544679 16.84423,-16.843493 0,-9.2988 -7.54494,-16.843493 -16.84423,-16.843493 z M 143.52284,-80 c -9.29929,0 -16.84423,7.544679 -16.84423,16.843493 0,9.2988 7.54494,16.853314 16.84423,16.853314 9.29906,0 16.84398,-7.554514 16.84398,-16.853314 C 160.36682,-72.455321 152.8219,-80 143.52284,-80 Z"
           sodipodi:nodetypes="sssssccccccccssssssssss" />
      </g>
    </pattern>
    <pattern
       inkscape:collect="always"
       xlink:href="#ticks"
       id="pattern5-4"
       patternTransform="translate(-90.08629,-149.91519)" />
    <pattern
       patternUnits="userSpaceOnUse"
       width="60"
       height="60"
       preserveAspectRatio="xMidYMid"
       style="fill:#000000"
       id="ticks"
       inkscape:stockid="Ticks">
      <path
         id="path28"
         d="M 0,0 H 10 V 50 H 0 Z M 79.142136,3.7867966 86.213203,10.857864 50.857864,46.213203 43.786797,39.142136 Z M 150,20 V 30 H 100 V 20 Z m 56.2132,19.142136 -7.07106,7.071067 -35.35534,-35.355339 7.07106,-7.0710674 z M 250,50 H 240 V 0 h 10 z M 19.142136,63.786797 26.213203,70.857864 -9.1421356,106.2132 -16.213203,99.142136 Z M 90,80 V 90 H 40 V 80 Z m 56.2132,19.142136 -7.07106,7.071064 -35.35534,-35.355336 7.07106,-7.071067 z M 190,110 H 180 V 60 h 10 z m 40.85786,-3.7868 -7.07106,-7.071064 35.35534,-35.355339 7.07106,7.071067 z M 30,140 v 10 h -50 v -10 z m 56.213203,19.14214 -7.071067,7.07106 -35.355339,-35.35534 7.071067,-7.07106 z M 130,170 h -10 v -50 h 10 z m 40.85786,-3.7868 -7.07106,-7.07106 35.35534,-35.35534 7.07106,7.07106 z M 220,150 v -10 h 50 v 10 z m -193.786797,69.14214 -7.071067,7.07106 -35.355339,-35.35534 7.0710674,-7.07106 z M 70,230 H 60 v -50 h 10 z m 40.85786,-3.7868 -7.07106,-7.07106 35.35534,-35.35534 7.07106,7.07106 z M 160,210 v -10 h 50 v 10 z m 63.7868,-19.14214 7.07106,-7.07106 35.35534,35.35534 -7.07106,7.07106 z M 10,290 H 0 v -50 h 10 z m 40.857864,-3.7868 -7.071067,-7.07106 35.355339,-35.35534 7.071067,7.07106 z M 100,270 v -10 h 50 v 10 z m 63.7868,-19.14214 7.07106,-7.07106 35.35534,35.35534 -7.07106,7.07106 z M 240,240 h 10 v 50 h -10 z"
         style="stroke-width:10;stroke-linecap:square;paint-order:markers fill stroke;stop-color:#000000"
         transform="scale(0.25)" />
    </pattern>
    <pattern
       inkscape:collect="always"
       xlink:href="#Wave 2"
       preserveAspectRatio="xMidYMid"
       id="pattern38-6"
       patternTransform="matrix(1.0364423,0,0,1.0364423,743.67487,444.80594)" />
    <pattern
       patternUnits="userSpaceOnUse"
       width="30"
       height="9"
       patternTransform="translate(435,777)"
       preserveAspectRatio="xMidYMid"
       style="fill:#000000"
       id="Wave 2">
      <path
         id="path37"
         style="stroke:none;stroke-linecap:butt;stroke-linejoin:bevel;paint-order:stroke markers fill;stop-color:#000000"
         d="M 8,9 15,5.5 22,9 Z M 0,9 V 4 L 8,0 h 14 l 8,4 V 9 L 15,1 Z"
         sodipodi:nodetypes="cccccccccccc" />
    </pattern>
    <pattern
       inkscape:collect="always"
       xlink:href="#Wave 3"
       preserveAspectRatio="xMidYMid"
       id="pattern6-0"
       patternTransform="matrix(0,-0.44085768,0.44085768,0,807.66639,496.88936)" />
    <pattern
       patternUnits="userSpaceOnUse"
       width="20"
       height="200"
       patternTransform="translate(530,595)"
       preserveAspectRatio="xMidYMid"
       style="fill:#000000"
       id="Wave 3">
      <path
         style="stroke:#000000;stroke-width:0;stroke-linejoin:bevel;paint-order:stroke markers fill;stop-color:#000000"
         d="m 515,695 v -35 c 0,-3.92609 1.06702,-7.77836 3.08697,-11.14496 l 8.82606,-14.71008 C 528.93298,630.77836 530,626.92609 530,623 v -28 h 5 v 28 c 0,3.92609 -1.06702,7.77836 -3.08697,11.14496 l -8.82606,14.71008 C 521.06702,652.22164 520,656.07391 520,660 v 35 z m 10,0 v -35 c 0,-3.92609 1.06702,-7.77836 3.08697,-11.14496 l 8.82606,-14.71008 C 538.93298,630.77836 540,626.92609 540,623 v -28 h 5 v 28 c 0,3.92609 -1.06702,7.77836 -3.08697,11.14496 l -8.82606,14.71008 C 531.06702,652.22164 530,656.07391 530,660 v 35 z m 10,0 v -35 c 0,-3.92609 1.06702,-7.77836 3.08697,-11.14496 l 8.82606,-14.71008 C 548.93298,630.77836 550,626.92609 550,623 v -28 h 5 v 28 c 0,3.92609 -1.06702,7.77836 -3.08697,11.14496 l -8.82606,14.71008 C 541.06702,652.22164 540,656.07391 540,660 v 35 z m 10,0 v -35 c 0,-3.92609 1.06702,-7.77836 3.08697,-11.14496 l 8.82606,-14.71008 C 558.93298,630.77836 560,626.92609 560,623 v -28 h 5 v 28 c 0,3.92609 -1.06702,7.77836 -3.08697,11.14496 l -8.82606,14.71008 C 551.06702,652.22164 550,656.07391 550,660 v 35 z m 10,0 v -35 c 0,-3.92609 1.06702,-7.77836 3.08697,-11.14496 l 8.82606,-14.71008 C 568.93298,630.77836 570,626.92609 570,623 v -28 h 5 v 28 c 0,3.92609 -1.06702,7.77836 -3.08697,11.14496 l -8.82606,14.71008 C 561.06702,652.22164 560,656.07391 560,660 v 35 z m 10,0 v -35 c 0,-3.92609 1.06702,-7.77836 3.08697,-11.14496 l 8.82606,-14.71008 C 578.93298,630.77836 580,626.92609 580,623 v -28 h 5 v 28 c 0,3.92609 -1.06702,7.77836 -3.08697,11.14496 l -8.82606,14.71008 C 571.06702,652.22164 570,656.07391 570,660 v 35 z m 10,0 v -35 c 0,-3.92609 1.06702,-7.77836 3.08697,-11.14496 l 8.82606,-14.71008 C 588.93298,630.77836 590,626.92609 590,623 v -28 h 5 v 28 c 0,3.92609 -1.06702,7.77836 -3.08697,11.14496 l -8.82606,14.71008 C 581.06702,652.22164 580,656.07391 580,660 v 35 z m -65,100 v -35 c 0,-3.92609 1.06702,-7.77836 3.08697,-11.14496 l 8.82606,-14.71008 C 523.93298,730.77836 525,726.92609 525,723 v -28 h 5 v 28 c 0,3.92609 -1.06702,7.77836 -3.08697,11.14496 l -8.82606,14.71008 C 516.06702,752.22164 515,756.07391 515,760 v 35 z m 10,0 v -35 c 0,-3.92609 1.06702,-7.77836 3.08697,-11.14496 l 8.82606,-14.71008 C 533.93298,730.77836 535,726.92609 535,723 v -28 h 5 v 28 c 0,3.92609 -1.06702,7.77836 -3.08697,11.14496 l -8.82606,14.71008 C 526.06702,752.22164 525,756.07391 525,760 v 35 z m 10,0 v -35 c 0,-3.92609 1.06702,-7.77836 3.08697,-11.14496 l 8.82606,-14.71008 C 543.93298,730.77836 545,726.92609 545,723 v -28 h 5 v 28 c 0,3.92609 -1.06702,7.77836 -3.08697,11.14496 l -8.82606,14.71008 C 536.06702,752.22164 535,756.07391 535,760 v 35 z m 10,0 v -35 c 0,-3.92609 1.06702,-7.77836 3.08697,-11.14496 l 8.82606,-14.71008 C 553.93298,730.77836 555,726.92609 555,723 v -28 h 5 v 28 c 0,3.92609 -1.06702,7.77836 -3.08697,11.14496 l -8.82606,14.71008 C 546.06702,752.22164 545,756.07391 545,760 v 35 z m 10,0 v -35 c 0,-3.92609 1.06702,-7.77836 3.08697,-11.14496 l 8.82606,-14.71008 C 563.93298,730.77836 565,726.92609 565,723 v -28 h 5 v 28 c 0,3.92609 -1.06702,7.77836 -3.08697,11.14496 l -8.82606,14.71008 C 556.06702,752.22164 555,756.07391 555,760 v 35 z m 10,0 v -35 c 0,-3.92609 1.06702,-7.77836 3.08697,-11.14496 l 8.82606,-14.71008 C 573.93298,730.77836 575,726.92609 575,723 v -28 h 5 v 28 c 0,3.92609 -1.06702,7.77836 -3.08697,11.14496 l -8.82606,14.71008 C 566.06702,752.22164 565,756.07391 565,760 v 35 z m 10,0 v -35 c 0,-3.92609 1.06702,-7.77836 3.08697,-11.14496 l 8.82606,-14.71008 C 583.93298,730.77836 585,726.92609 585,723 v -28 h 5 v 28 c 0,3.92609 -1.06702,7.77836 -3.08697,11.14496 l -8.82606,14.71008 C 576.06702,752.22164 575,756.07391 575,760 v 35 z"
         id="path5-2"
         sodipodi:nodetypes="ccccccccc"
         clip-path="url(#clipPath5)"
         transform="translate(-530,-595)" />
    </pattern>
    <clipPath
       clipPathUnits="userSpaceOnUse"
       id="clipPath5">
      <rect
         style="fill:#000000;stroke:#000000;stroke-width:0;stroke-linejoin:bevel;paint-order:stroke markers fill;stop-color:#000000"
         id="rect5-4"
         width="20"
         height="200"
         x="530"
         y="595" />
    </clipPath>
  </defs>
  <g
     inkscape:label="Layer 1"
     inkscape:groupmode="layer"
     id="layer1">
    <rect
       style="fill:url(#pattern168939);stroke:none"
       width="100"
       height="100"
       x="668.83612"
       y="579.85944"
       id="rect167485" />
    <rect
       style="fill:url(#pattern182968);stroke:none"
       width="100"
       height="100"
       x="658.48224"
       y="454.24588"
       id="rect180826" />
    <rect
       style="fill:url(#pattern10);fill-opacity:1;stroke:none"
       width="98.380363"
       height="95.301483"
       x="542.9389"
       y="455.55594"
       id="rect6-6" />
    <rect
       style="fill:url(#pattern13);fill-opacity:1;stroke-width:6;stroke-linecap:square;paint-order:markers fill stroke;stop-color:#000000"
       id="rect7"
       width="100"
       height="100"
       x="783.24304"
       y="581.85944" />
    <rect
       style="fill:url(#pattern5-4);stroke:none"
       width="122.74375"
       height="115.54921"
       x="535.40839"
       y="568.31012"
       id="rect5" />
    <rect
       style="fill:url(#pattern38-6);stroke:none"
       width="106.5"
       height="100.80347"
       x="764.50824"
       y="451.05594"
       id="rect37" />
    <rect
       style="fill:url(#pattern6-0);stroke:none"
       width="94"
       height="100.80347"
       x="889.9137"
       y="451.05594"
       id="rect6-4" />
  </g>
</svg>
