<?xml version="1.0" encoding="UTF-8" standalone="no"?>
<svg
   width="700.00061"
   height="220"
   viewBox="0 0 185.20849 58.208335"
   version="1.1"
   id="svg243962"
   xml:space="preserve"
   xmlns="http://www.w3.org/2000/svg"
   xmlns:svg="http://www.w3.org/2000/svg"><defs
     id="defs243959" /><g
     id="layer2"
     style="font-variation-settings:normal;opacity:1;vector-effect:none;fill:#cbe1fb;fill-opacity:1;stroke-width:0.125564;stroke-linecap:butt;stroke-linejoin:miter;stroke-miterlimit:4;stroke-dasharray:none;stroke-dashoffset:0;stroke-opacity:1;-inkscape-stroke:none;stop-color:#000000;stop-opacity:1"
     transform="translate(-1756.876)"><g
       id="layer3-78"
       transform="translate(1750.9028,-30.121324)"
       style="font-variation-settings:normal;vector-effect:none;fill:#cbe1fb;fill-opacity:1;stroke-width:0.125564;stroke-linecap:butt;stroke-linejoin:miter;stroke-miterlimit:4;stroke-dasharray:none;stroke-dashoffset:0;stroke-opacity:1;-inkscape-stroke:none;stop-color:#000000;stop-opacity:1"><g
         aria-label="Bemvindo!"
         id="text118971-76"
         style="font-size:14.4164px;line-height:1.25;font-family:'Roboto Condensed';-inkscape-font-specification:'Roboto Condensed, ';vector-effect:none;stroke-width:0.125564;stop-color:#000000;stop-opacity:1"><path
           d="m 21.282812,46.328237 q 0,0.648738 -0.259496,1.138896 -0.259495,0.490157 -0.72082,0.821734 -0.446908,0.331578 -1.052397,0.504574 -0.591072,0.172997 -1.268643,0.172997 H 13.036631 V 38.730794 h 5.478232 q 0.533407,0 0.965899,0.230663 0.432492,0.230662 0.735236,0.605489 0.302744,0.36041 0.461325,0.836151 0.172997,0.461325 0.172997,0.937066 0,0.749653 -0.374827,1.412807 -0.374826,0.648738 -1.095646,0.965899 0.8794,0.259495 1.383974,0.937066 0.518991,0.663154 0.518991,1.672302 z m -2.00388,-0.374826 q 0,-0.273912 -0.100915,-0.518991 -0.0865,-0.259495 -0.245079,-0.446908 -0.15858,-0.187413 -0.374826,-0.288328 -0.216246,-0.115331 -0.475741,-0.115331 h -3.056277 v 2.695866 h 2.955362 q 0.273912,0 0.504574,-0.100914 0.245079,-0.100915 0.418076,-0.273912 0.172996,-0.187413 0.273911,-0.432492 0.100915,-0.245079 0.100915,-0.51899 z M 15.026094,40.43193 v 2.580535 h 2.652618 q 0.504574,0 0.850567,-0.345993 0.36041,-0.345994 0.36041,-0.951483 0,-0.591072 -0.331577,-0.937066 Q 18.240951,40.43193 17.76521,40.43193 Z"
           style="font-weight:bold;font-family:Raleway;-inkscape-font-specification:Raleway;vector-effect:none;stop-color:#000000;stop-opacity:1"
           id="path268" /><path
           d="m 26.155532,49.110602 q -0.908233,0 -1.64347,-0.302744 -0.735236,-0.317161 -1.254226,-0.850568 -0.518991,-0.533407 -0.807319,-1.23981 -0.273911,-0.706404 -0.273911,-1.484889 0,-0.807319 0.273911,-1.513722 0.273912,-0.72082 0.792902,-1.254227 0.518991,-0.547823 1.254227,-0.864984 0.749653,-0.317161 1.672302,-0.317161 0.92265,0 1.64347,0.317161 0.735236,0.317161 1.23981,0.850568 0.518991,0.533406 0.778486,1.23981 0.273912,0.706404 0.273912,1.470473 0,0.187413 -0.01442,0.36041 0,0.172997 -0.02883,0.288328 h -5.838642 q 0.04325,0.446908 0.216246,0.792902 0.172997,0.345993 0.446909,0.591072 0.273911,0.245079 0.619905,0.374826 0.345994,0.129748 0.72082,0.129748 0.576656,0 1.08123,-0.273912 0.51899,-0.288328 0.706404,-0.749652 l 1.657886,0.461324 q -0.418076,0.864984 -1.340726,1.427224 -0.908233,0.547823 -2.176876,0.547823 z m 1.96063,-4.555582 q -0.07208,-0.850568 -0.634321,-1.355142 -0.547823,-0.51899 -1.340725,-0.51899 -0.389243,0 -0.735237,0.144164 -0.331577,0.129748 -0.591072,0.374826 -0.259495,0.245079 -0.432492,0.591073 -0.158581,0.345993 -0.187413,0.764069 z"
           style="font-weight:bold;font-family:Raleway;-inkscape-font-specification:Raleway;vector-effect:none;stop-color:#000000;stop-opacity:1"
           id="path269" /><path
           d="m 43.022705,48.966438 h -1.931798 v -4.238421 q 0,-0.908233 -0.317161,-1.326309 -0.302744,-0.418076 -0.850567,-0.418076 -0.576656,0 -1.08123,0.446909 -0.504574,0.432492 -0.72082,1.138895 v 4.397002 h -1.931798 v -4.238421 q 0,-0.908233 -0.317161,-1.326309 -0.302744,-0.418076 -0.850567,-0.418076 -0.56224,0 -1.08123,0.432492 -0.504574,0.432492 -0.72082,1.138896 v 4.411418 h -1.931798 v -7.554193 h 1.744385 v 1.398391 q 0.418075,-0.735237 1.138895,-1.12448 0.735237,-0.403659 1.672303,-0.403659 0.951482,0 1.470472,0.461325 0.518991,0.461325 0.663155,1.138896 0.461325,-0.778486 1.167728,-1.182145 0.706404,-0.418076 1.614637,-0.418076 0.691987,0 1.138896,0.259495 0.446908,0.259496 0.691987,0.677571 0.245079,0.418076 0.331577,0.951483 0.100915,0.533406 0.100915,1.08123 z"
           style="font-weight:bold;font-family:Raleway;-inkscape-font-specification:Raleway;vector-effect:none;stop-color:#000000;stop-opacity:1"
           id="path270" /><path
           d="m 46.569121,48.966438 -2.782365,-7.554193 h 1.989463 l 1.917381,5.982806 1.931798,-5.982806 h 1.816466 l -2.782365,7.554193 z"
           style="font-weight:bold;font-family:Raleway;-inkscape-font-specification:Raleway;vector-effect:none;stop-color:#000000;stop-opacity:1"
           id="path271" /><path
           d="m 52.451009,48.966438 v -7.554193 h 1.931798 v 7.554193 z m 0,-8.60659 v -1.917382 h 1.931798 v 1.917382 z"
           style="font-weight:bold;font-family:Raleway;-inkscape-font-specification:Raleway;vector-effect:none;stop-color:#000000;stop-opacity:1"
           id="path272" /><path
           d="m 63.147966,48.966438 h -1.931798 v -4.238421 q 0,-0.908233 -0.31716,-1.326309 -0.317161,-0.418076 -0.879401,-0.418076 -0.288328,0 -0.591072,0.115332 -0.302745,0.115331 -0.576656,0.331577 -0.259495,0.201829 -0.475741,0.490157 -0.216246,0.288328 -0.317161,0.634322 v 4.411418 h -1.931798 v -7.554193 h 1.744385 v 1.398391 q 0.418075,-0.72082 1.210977,-1.12448 0.792902,-0.403659 1.787634,-0.403659 0.706403,0 1.153312,0.259495 0.446908,0.259496 0.691987,0.677571 0.245079,0.418076 0.331577,0.951483 0.100915,0.533406 0.100915,1.08123 z"
           style="font-weight:bold;font-family:Raleway;-inkscape-font-specification:Raleway;vector-effect:none;stop-color:#000000;stop-opacity:1"
           id="path273" /><path
           d="m 67.963019,49.110602 q -0.778485,0 -1.44164,-0.302744 -0.663154,-0.302745 -1.138895,-0.836151 -0.475741,-0.533407 -0.749653,-1.239811 -0.259495,-0.72082 -0.259495,-1.542554 0,-0.821735 0.245079,-1.528139 0.259495,-0.706403 0.706403,-1.23981 0.446909,-0.533407 1.066814,-0.836151 0.619905,-0.302745 1.355141,-0.302745 0.836152,0 1.499306,0.403659 0.677571,0.40366 1.052397,1.052398 v -4.296088 h 1.931798 v 8.303847 q 0,0.302744 0.100915,0.432492 0.100914,0.129747 0.345993,0.144164 v 1.643469 q -0.504574,0.100915 -0.821735,0.100915 -0.51899,0 -0.850567,-0.259495 -0.331577,-0.259495 -0.374827,-0.677571 l -0.04325,-0.475741 q -0.418075,0.72082 -1.138895,1.095646 -0.706404,0.36041 -1.48489,0.36041 z m 0.504574,-1.643469 q 0.273912,0 0.56224,-0.0865 0.288328,-0.100915 0.533407,-0.273911 0.245079,-0.172997 0.432492,-0.403659 0.201829,-0.230663 0.302744,-0.504574 v -1.80205 q -0.115331,-0.317161 -0.331577,-0.576656 -0.20183,-0.273912 -0.475741,-0.461325 -0.259495,-0.20183 -0.56224,-0.317161 -0.288328,-0.115331 -0.576656,-0.115331 -0.432492,0 -0.807318,0.187413 -0.36041,0.187413 -0.619905,0.51899 -0.259496,0.317161 -0.40366,0.735237 -0.144164,0.418075 -0.144164,0.864984 0,0.475741 0.158581,0.8794 0.15858,0.403659 0.432492,0.706404 0.273911,0.302744 0.648738,0.475741 0.389243,0.172997 0.850567,0.172998 z"
           style="font-weight:bold;font-family:Raleway;-inkscape-font-specification:Raleway;vector-effect:none;stop-color:#000000;stop-opacity:1"
           id="path274" /><path
           d="m 77.621987,49.110602 q -0.92265,0 -1.657886,-0.317161 -0.735237,-0.31716 -1.254227,-0.850567 -0.504574,-0.547823 -0.778486,-1.254227 -0.273911,-0.706403 -0.273911,-1.484889 0,-0.792902 0.273911,-1.499306 0.273912,-0.706403 0.778486,-1.23981 0.51899,-0.547823 1.254227,-0.864984 0.735236,-0.317161 1.657886,-0.317161 0.922649,0 1.643469,0.317161 0.735237,0.317161 1.239811,0.864984 0.51899,0.533407 0.792902,1.23981 0.273911,0.706404 0.273911,1.499306 0,0.778486 -0.273911,1.484889 -0.273912,0.706404 -0.778486,1.254227 -0.504574,0.533407 -1.23981,0.850567 -0.735237,0.317161 -1.657886,0.317161 z M 75.64694,45.203758 q 0,0.504574 0.144164,0.92265 0.15858,0.403659 0.418076,0.706403 0.273911,0.302744 0.634321,0.475741 0.36041,0.158581 0.778486,0.158581 0.418075,0 0.778485,-0.158581 0.36041,-0.172997 0.619906,-0.475741 0.273911,-0.302744 0.418075,-0.72082 0.158581,-0.418075 0.158581,-0.922649 0,-0.490158 -0.158581,-0.908234 -0.144164,-0.418075 -0.418075,-0.72082 -0.259496,-0.302744 -0.619906,-0.461324 -0.36041,-0.172997 -0.778485,-0.172997 -0.418076,0 -0.778486,0.172997 -0.36041,0.172996 -0.634321,0.475741 -0.259496,0.302744 -0.418076,0.72082 -0.144164,0.418075 -0.144164,0.908233 z"
           style="font-weight:bold;font-family:Raleway;-inkscape-font-specification:Raleway;vector-effect:none;stop-color:#000000;stop-opacity:1"
           id="path275" /><path
           d="m 83.244369,45.11726 v -6.48738 h 1.931797 v 6.48738 z m 0,3.849178 v -2.176876 h 1.931797 v 2.176876 z"
           style="font-weight:bold;font-family:Raleway;-inkscape-font-specification:Raleway;vector-effect:none;stop-color:#000000;stop-opacity:1"
           id="path276" /></g><g
         aria-label="Vamos configurar
    algumas coisas…"
         id="text115541-86"
         style="font-size:5.02259px;line-height:1.25;font-family:'Roboto Condensed';-inkscape-font-specification:'Roboto Condensed, ';vector-effect:none;stroke-width:0.125564;stop-color:#000000;stop-opacity:1"><path
           d="m 30.737405,57.821141 0.964338,2.697131 0.954292,-2.697131 H 33.38431 L 31.993053,61.38718 H 31.410432 L 30.00913,57.821141 Z"
           style="font-weight:bold;font-family:Raleway;-inkscape-font-specification:Raleway;vector-effect:none;stop-color:#000000;stop-opacity:1"
           id="path240" /><path
           d="m 34.167822,61.437406 q -0.190859,0 -0.356604,-0.06027 -0.165745,-0.06529 -0.286288,-0.175791 -0.120542,-0.115519 -0.190858,-0.266197 -0.06529,-0.150677 -0.06529,-0.331491 0,-0.185836 0.08036,-0.341536 0.08538,-0.160723 0.231039,-0.27122 0.150678,-0.110497 0.356604,-0.170768 0.205926,-0.06529 0.452033,-0.06529 0.175791,0 0.341536,0.03014 0.170768,0.03014 0.301355,0.08538 V 59.71968 q 0,-0.261174 -0.150677,-0.401807 -0.145655,-0.140632 -0.436966,-0.140632 -0.210948,0 -0.411852,0.07534 -0.200904,0.07534 -0.411852,0.220993 l -0.205927,-0.42692 q 0.507282,-0.336513 1.094925,-0.336513 0.567553,0 0.878953,0.281265 0.316423,0.276242 0.316423,0.803614 v 0.818682 q 0,0.105475 0.03516,0.150678 0.04018,0.0452 0.125564,0.05023 v 0.572575 q -0.170768,0.03516 -0.296332,0.03516 -0.190859,0 -0.296333,-0.08538 -0.100452,-0.08538 -0.125565,-0.226016 l -0.01507,-0.145655 q -0.17579,0.231039 -0.42692,0.351581 -0.251129,0.120542 -0.537417,0.120542 z m 0.190858,-0.492214 q 0.170768,0 0.321446,-0.06027 0.1557,-0.06027 0.241084,-0.160723 0.110497,-0.08538 0.110497,-0.190858 v -0.301355 q -0.120542,-0.0452 -0.261174,-0.07032 -0.140633,-0.03014 -0.27122,-0.03014 -0.261175,0 -0.42692,0.120542 -0.165746,0.11552 -0.165746,0.296333 0,0.170768 0.130588,0.286287 0.130587,0.110497 0.321445,0.110497 z"
           style="font-weight:bold;font-family:Raleway;-inkscape-font-specification:Raleway;vector-effect:none;stop-color:#000000;stop-opacity:1"
           id="path241" /><path
           d="m 40.420944,61.38718 h -0.673027 v -1.476641 q 0,-0.316423 -0.110497,-0.462078 -0.105475,-0.145656 -0.296333,-0.145656 -0.200904,0 -0.376694,0.155701 -0.175791,0.150677 -0.25113,0.396784 v 1.53189 h -0.673027 v -1.476641 q 0,-0.316423 -0.110497,-0.462078 -0.105474,-0.145656 -0.296333,-0.145656 -0.195881,0 -0.376694,0.150678 -0.175791,0.150678 -0.25113,0.396785 v 1.536912 h -0.673027 v -2.631837 h 0.607734 v 0.487191 q 0.145655,-0.256152 0.396784,-0.391762 0.256153,-0.140632 0.582621,-0.140632 0.331491,0 0.512304,0.160723 0.180813,0.160723 0.231039,0.396784 0.160723,-0.27122 0.40683,-0.411852 0.246107,-0.145655 0.56253,-0.145655 0.241084,0 0.396785,0.09041 0.1557,0.09041 0.241084,0.236062 0.08538,0.145655 0.11552,0.331491 0.03516,0.185836 0.03516,0.376694 z"
           style="font-weight:bold;font-family:Raleway;-inkscape-font-specification:Raleway;vector-effect:none;stop-color:#000000;stop-opacity:1"
           id="path242" /><path
           d="m 42.224052,61.437406 q -0.321445,0 -0.577597,-0.110497 -0.256153,-0.110497 -0.436966,-0.296333 -0.17579,-0.190858 -0.27122,-0.436965 -0.09543,-0.246107 -0.09543,-0.517327 0,-0.276242 0.09543,-0.522349 0.09543,-0.246107 0.27122,-0.431943 0.180813,-0.190858 0.436966,-0.301355 0.256152,-0.110497 0.577597,-0.110497 0.321446,0 0.572576,0.110497 0.256152,0.110497 0.431942,0.301355 0.180814,0.185836 0.276243,0.431943 0.09543,0.246107 0.09543,0.522349 0,0.27122 -0.09543,0.517327 -0.09543,0.246107 -0.27122,0.436965 -0.175791,0.185836 -0.431943,0.296333 -0.256152,0.110497 -0.577598,0.110497 z m -0.688094,-1.361122 q 0,0.175791 0.05022,0.321446 0.05525,0.140633 0.145656,0.246107 0.09543,0.105474 0.220994,0.165745 0.125564,0.05525 0.271219,0.05525 0.145655,0 0.27122,-0.05525 0.125565,-0.06027 0.215972,-0.165745 0.09543,-0.105474 0.145655,-0.25113 0.05525,-0.145655 0.05525,-0.321445 0,-0.170768 -0.05525,-0.316423 -0.05023,-0.145656 -0.145655,-0.25113 -0.09041,-0.105474 -0.215972,-0.160723 -0.125565,-0.06027 -0.27122,-0.06027 -0.145655,0 -0.271219,0.06027 -0.125565,0.06027 -0.220994,0.165746 -0.09041,0.105474 -0.145656,0.251129 -0.05022,0.145655 -0.05022,0.316423 z"
           style="font-weight:bold;font-family:Raleway;-inkscape-font-specification:Raleway;vector-effect:none;stop-color:#000000;stop-opacity:1"
           id="path243" /><path
           d="m 45.046742,61.437406 q -0.331491,0 -0.647914,-0.105474 -0.316423,-0.105475 -0.542439,-0.301356 l 0.251129,-0.421897 q 0.241084,0.170768 0.467101,0.261175 0.231039,0.08538 0.457056,0.08538 0.200903,0 0.316423,-0.07534 0.115519,-0.07534 0.115519,-0.215972 0,-0.140632 -0.13561,-0.205926 -0.135609,-0.06529 -0.441987,-0.150678 -0.256153,-0.07032 -0.436966,-0.135609 -0.180813,-0.06529 -0.29131,-0.145656 -0.110497,-0.08538 -0.160723,-0.190858 -0.05023,-0.110497 -0.05023,-0.261175 0,-0.200903 0.07534,-0.361626 0.08036,-0.160723 0.220994,-0.27122 0.140633,-0.11552 0.326468,-0.175791 0.190859,-0.06027 0.411853,-0.06027 0.296333,0 0.552485,0.08538 0.261174,0.08538 0.477146,0.276243 l -0.27122,0.406829 q -0.200904,-0.150677 -0.391762,-0.220993 -0.185836,-0.07032 -0.371672,-0.07032 -0.170768,0 -0.286287,0.07032 -0.11552,0.07032 -0.11552,0.226016 0,0.07032 0.02511,0.11552 0.03013,0.0452 0.09041,0.08036 0.06027,0.03516 0.1557,0.07032 0.100452,0.03014 0.246107,0.06529 0.27122,0.07032 0.462078,0.140633 0.195881,0.07032 0.316423,0.160722 0.125565,0.09041 0.180813,0.210949 0.06027,0.11552 0.06027,0.281265 0,0.38674 -0.286288,0.612756 -0.286288,0.220994 -0.778502,0.220994 z"
           style="font-weight:bold;font-family:Raleway;-inkscape-font-specification:Raleway;vector-effect:none;stop-color:#000000;stop-opacity:1"
           id="path244" /><path
           d="m 47.588171,60.071262 q 0,-0.276243 0.09543,-0.52235 0.09543,-0.246107 0.276243,-0.431942 0.180813,-0.185836 0.436965,-0.296333 0.256152,-0.110497 0.577598,-0.110497 0.431943,0 0.733298,0.185836 0.306378,0.185835 0.457056,0.487191 L 49.5068,59.58407 q -0.08538,-0.145655 -0.226016,-0.220994 -0.140633,-0.08036 -0.311401,-0.08036 -0.145655,0 -0.27122,0.06027 -0.125564,0.05525 -0.220994,0.160723 -0.09041,0.100452 -0.145655,0.246107 -0.05023,0.145655 -0.05023,0.321446 0,0.17579 0.05525,0.321445 0.05525,0.145656 0.145655,0.25113 0.09543,0.105474 0.220994,0.165745 0.125565,0.05525 0.266197,0.05525 0.180813,0 0.331491,-0.09041 0.1557,-0.09041 0.215972,-0.220994 l 0.657959,0.200904 q -0.13561,0.301355 -0.447011,0.492214 -0.3114,0.190858 -0.748366,0.190858 -0.321445,0 -0.577597,-0.110497 -0.256153,-0.110497 -0.436966,-0.296333 -0.180813,-0.190858 -0.281265,-0.436965 -0.09543,-0.251129 -0.09543,-0.522349 z"
           style="font-weight:bold;font-family:Raleway;-inkscape-font-specification:Raleway;vector-effect:none;stop-color:#000000;stop-opacity:1"
           id="path245" /><path
           d="m 51.777002,61.437406 q -0.321445,0 -0.577598,-0.110497 -0.256152,-0.110497 -0.436965,-0.296333 -0.175791,-0.190858 -0.27122,-0.436965 -0.09543,-0.246107 -0.09543,-0.517327 0,-0.276242 0.09543,-0.522349 0.09543,-0.246107 0.27122,-0.431943 0.180813,-0.190858 0.436965,-0.301355 0.256153,-0.110497 0.577598,-0.110497 0.321446,0 0.572576,0.110497 0.256152,0.110497 0.431942,0.301355 0.180814,0.185836 0.276243,0.431943 0.09543,0.246107 0.09543,0.522349 0,0.27122 -0.09543,0.517327 -0.09543,0.246107 -0.27122,0.436965 -0.175791,0.185836 -0.431943,0.296333 -0.256152,0.110497 -0.577598,0.110497 z m -0.688095,-1.361122 q 0,0.175791 0.05023,0.321446 0.05525,0.140633 0.145655,0.246107 0.09543,0.105474 0.220994,0.165745 0.125565,0.05525 0.27122,0.05525 0.145655,0 0.27122,-0.05525 0.125565,-0.06027 0.215972,-0.165745 0.09543,-0.105474 0.145655,-0.25113 0.05525,-0.145655 0.05525,-0.321445 0,-0.170768 -0.05525,-0.316423 -0.05023,-0.145656 -0.145655,-0.25113 -0.09041,-0.105474 -0.215972,-0.160723 -0.125565,-0.06027 -0.27122,-0.06027 -0.145655,0 -0.27122,0.06027 -0.125564,0.06027 -0.220994,0.165746 -0.09041,0.105474 -0.145655,0.251129 -0.05023,0.145655 -0.05023,0.316423 z"
           style="font-weight:bold;font-family:Raleway;-inkscape-font-specification:Raleway;vector-effect:none;stop-color:#000000;stop-opacity:1"
           id="path246" /><path
           d="m 56.051221,61.38718 h -0.673027 v -1.476641 q 0,-0.316423 -0.110497,-0.462078 -0.110497,-0.145656 -0.306378,-0.145656 -0.100452,0 -0.205926,0.04018 -0.105475,0.04018 -0.200904,0.11552 -0.09041,0.07032 -0.165745,0.170768 -0.07534,0.100452 -0.110497,0.220994 v 1.536912 h -0.673028 v -2.631837 h 0.607734 v 0.487191 q 0.145655,-0.251129 0.421897,-0.391762 0.276243,-0.140632 0.622802,-0.140632 0.246107,0 0.401807,0.09041 0.1557,0.09041 0.241084,0.236062 0.08538,0.145655 0.11552,0.331491 0.03516,0.185836 0.03516,0.376694 z"
           style="font-weight:bold;font-family:Raleway;-inkscape-font-specification:Raleway;vector-effect:none;stop-color:#000000;stop-opacity:1"
           id="path247" /><path
           d="M 56.774459,59.40828 H 56.4279 v -0.512304 h 0.346559 v -0.160723 q 0,-0.215972 0.07032,-0.411853 0.07534,-0.195881 0.210949,-0.336513 0.140632,-0.145655 0.336513,-0.231039 0.200904,-0.08538 0.452033,-0.08538 0.286288,0 0.52235,0.09543 0.241084,0.09041 0.452033,0.231039 l -0.266197,0.502259 q -0.130588,-0.11552 -0.306378,-0.185836 -0.175791,-0.07032 -0.356604,-0.07032 -0.226017,0 -0.336514,0.140632 -0.105474,0.140633 -0.105474,0.326469 v 0.185836 h 1.411348 v 2.491204 h -0.673027 v -1.9789 H 57.44749 v 1.9789 h -0.673027 z"
           style="font-weight:bold;font-family:Raleway;-inkscape-font-specification:Raleway;vector-effect:none;stop-color:#000000;stop-opacity:1"
           id="path248" /><path
           d="m 60.496192,61.402248 q -0.266197,0 -0.482169,-0.105474 -0.215971,-0.105475 -0.376694,-0.286288 -0.1557,-0.185836 -0.241084,-0.42692 -0.08538,-0.241084 -0.08538,-0.512304 0,-0.286288 0.09041,-0.532395 0.09041,-0.246107 0.25113,-0.431943 0.160723,-0.185835 0.386739,-0.29131 0.226017,-0.105474 0.497237,-0.105474 0.306378,0 0.537417,0.140632 0.231039,0.13561 0.381717,0.366649 v -0.462078 h 0.587643 v 2.506273 q 0,0.29131 -0.110497,0.522349 -0.110497,0.231039 -0.306378,0.391762 -0.190859,0.160723 -0.462079,0.246107 -0.266197,0.08538 -0.58262,0.08538 -0.431943,0 -0.728276,-0.145655 -0.29131,-0.140633 -0.502259,-0.401807 l 0.366649,-0.356604 q 0.150678,0.185836 0.376695,0.29131 0.231039,0.105474 0.487191,0.105474 0.1557,0 0.296333,-0.0452 0.145655,-0.04018 0.256152,-0.130587 0.110497,-0.09041 0.170768,-0.231039 0.06529,-0.140633 0.06529,-0.331491 v -0.331491 q -0.130588,0.226016 -0.366649,0.351581 -0.236062,0.120542 -0.507282,0.120542 z m 0.226016,-0.537417 q 0.110497,0 0.210949,-0.03516 0.100452,-0.03516 0.185836,-0.09543 0.08538,-0.06027 0.150678,-0.140633 0.06529,-0.08036 0.100452,-0.170768 v -0.627824 q -0.09041,-0.231039 -0.286288,-0.371671 -0.190858,-0.140633 -0.401807,-0.140633 -0.155701,0 -0.281265,0.07032 -0.125565,0.06529 -0.215972,0.180814 -0.09041,0.110497 -0.140632,0.256152 -0.0452,0.145655 -0.0452,0.301355 0,0.160723 0.05525,0.301355 0.05525,0.140633 0.150678,0.246107 0.100452,0.105475 0.231039,0.165746 0.130587,0.06027 0.286287,0.06027 z"
           style="font-weight:bold;font-family:Raleway;-inkscape-font-specification:Raleway;vector-effect:none;stop-color:#000000;stop-opacity:1"
           id="path249" /><path
           d="m 63.454494,61.437406 q -0.40683,0 -0.617779,-0.261174 -0.210948,-0.261175 -0.210948,-0.773479 v -1.64741 h 0.673027 v 1.501755 q 0,0.607733 0.436965,0.607733 0.195881,0 0.376694,-0.11552 0.185836,-0.120542 0.301356,-0.361626 v -1.632342 h 0.673027 v 1.858358 q 0,0.105475 0.03516,0.150678 0.04018,0.0452 0.125565,0.05023 v 0.572575 q -0.100452,0.02009 -0.170768,0.02511 -0.06529,0.005 -0.120543,0.005 -0.180813,0 -0.296332,-0.08036 -0.110497,-0.08538 -0.130588,-0.231039 l -0.01507,-0.210949 q -0.17579,0.27122 -0.452033,0.40683 -0.276242,0.13561 -0.607733,0.13561 z"
           style="font-weight:bold;font-family:Raleway;-inkscape-font-specification:Raleway;vector-effect:none;stop-color:#000000;stop-opacity:1"
           id="path250" /><path
           d="m 67.321878,59.337964 q -0.306378,0.005 -0.547462,0.120542 -0.241085,0.110497 -0.346559,0.336513 V 61.38718 H 65.75483 v -2.631837 h 0.617779 v 0.56253 q 0.07032,-0.13561 0.165745,-0.241084 0.09543,-0.110497 0.205926,-0.190859 0.110497,-0.08036 0.220994,-0.120542 0.11552,-0.0452 0.220994,-0.0452 0.05525,0 0.08036,0 0.03013,0 0.05525,0.005 z"
           style="font-weight:bold;font-family:Raleway;-inkscape-font-specification:Raleway;vector-effect:none;stop-color:#000000;stop-opacity:1"
           id="path251" /><path
           d="m 68.38163,61.437406 q -0.190859,0 -0.356604,-0.06027 -0.165746,-0.06529 -0.286288,-0.175791 -0.120542,-0.115519 -0.190858,-0.266197 -0.06529,-0.150677 -0.06529,-0.331491 0,-0.185836 0.08036,-0.341536 0.08538,-0.160723 0.231039,-0.27122 0.150677,-0.110497 0.356604,-0.170768 0.205926,-0.06529 0.452033,-0.06529 0.17579,0 0.341536,0.03014 0.170768,0.03014 0.301355,0.08538 V 59.71968 q 0,-0.261174 -0.150677,-0.401807 -0.145656,-0.140632 -0.436966,-0.140632 -0.210949,0 -0.411852,0.07534 -0.200904,0.07534 -0.411853,0.220993 l -0.205926,-0.42692 q 0.507282,-0.336513 1.094925,-0.336513 0.567553,0 0.878953,0.281265 0.316423,0.276242 0.316423,0.803614 v 0.818682 q 0,0.105475 0.03516,0.150678 0.04018,0.0452 0.125565,0.05023 v 0.572575 q -0.170768,0.03516 -0.296333,0.03516 -0.190858,0 -0.296332,-0.08538 -0.100452,-0.08538 -0.125565,-0.226016 l -0.01507,-0.145655 q -0.175791,0.231039 -0.42692,0.351581 -0.25113,0.120542 -0.537417,0.120542 z m 0.190858,-0.492214 q 0.170768,0 0.321446,-0.06027 0.1557,-0.06027 0.241084,-0.160723 0.110497,-0.08538 0.110497,-0.190858 v -0.301355 q -0.120542,-0.0452 -0.261174,-0.07032 -0.140633,-0.03014 -0.27122,-0.03014 -0.261175,0 -0.42692,0.120542 -0.165746,0.11552 -0.165746,0.296333 0,0.170768 0.130587,0.286287 0.130588,0.110497 0.321446,0.110497 z"
           style="font-weight:bold;font-family:Raleway;-inkscape-font-specification:Raleway;vector-effect:none;stop-color:#000000;stop-opacity:1"
           id="path252" /><path
           d="m 72.113413,59.337964 q -0.306378,0.005 -0.547463,0.120542 -0.241084,0.110497 -0.346558,0.336513 v 1.592161 h -0.673028 v -2.631837 h 0.617779 v 0.56253 q 0.07032,-0.13561 0.165745,-0.241084 0.09543,-0.110497 0.205927,-0.190859 0.110497,-0.08036 0.220994,-0.120542 0.115519,-0.0452 0.220994,-0.0452 0.05525,0 0.08036,0 0.03014,0 0.05525,0.005 z"
           style="font-weight:bold;font-family:Raleway;-inkscape-font-specification:Raleway;vector-effect:none;stop-color:#000000;stop-opacity:1"
           id="path253" /><path
           d="m 35.845375,67.921147 q -0.190859,0 -0.356604,-0.06027 -0.165746,-0.06529 -0.286288,-0.17579 -0.120542,-0.11552 -0.190858,-0.266198 -0.06529,-0.150677 -0.06529,-0.331491 0,-0.185836 0.08036,-0.341536 0.08538,-0.160723 0.231039,-0.27122 0.150677,-0.110497 0.356604,-0.170768 0.205926,-0.06529 0.452033,-0.06529 0.17579,0 0.341536,0.03014 0.170768,0.03014 0.301355,0.08538 v -0.150678 q 0,-0.261174 -0.150677,-0.401807 -0.145655,-0.140632 -0.436966,-0.140632 -0.210948,0 -0.411852,0.07534 -0.200904,0.07534 -0.411852,0.220994 L 35.091988,65.5304 q 0.507282,-0.336513 1.094925,-0.336513 0.567553,0 0.878953,0.281265 0.316423,0.276242 0.316423,0.803614 v 0.818682 q 0,0.105475 0.03516,0.150678 0.04018,0.0452 0.125564,0.05023 v 0.572575 q -0.170768,0.03516 -0.296333,0.03516 -0.190858,0 -0.296332,-0.08538 -0.100452,-0.08538 -0.125565,-0.226016 l -0.01507,-0.145655 q -0.175791,0.231039 -0.42692,0.351581 -0.25113,0.120542 -0.537417,0.120542 z m 0.190858,-0.492214 q 0.170768,0 0.321446,-0.06027 0.1557,-0.06027 0.241084,-0.160723 0.110497,-0.08538 0.110497,-0.190858 v -0.301355 q -0.120542,-0.0452 -0.261174,-0.07032 -0.140633,-0.03014 -0.27122,-0.03014 -0.261175,0 -0.42692,0.120542 -0.165746,0.11552 -0.165746,0.296333 0,0.170768 0.130587,0.286287 0.130588,0.110497 0.321446,0.110497 z"
           style="font-weight:bold;font-family:Raleway;-inkscape-font-specification:Raleway;vector-effect:none;stop-color:#000000;stop-opacity:1"
           id="path254" /><path
           d="m 38.005086,64.204431 h 0.673027 v 2.822695 q 0,0.145655 0.07032,0.226017 0.07032,0.08036 0.200903,0.08036 0.06027,0 0.130588,-0.02009 0.07534,-0.02009 0.140632,-0.05023 l 0.09041,0.512304 q -0.13561,0.06529 -0.316423,0.100452 -0.180813,0.03516 -0.326469,0.03516 -0.316423,0 -0.492213,-0.165745 -0.170768,-0.170768 -0.170768,-0.482169 z"
           style="font-weight:bold;font-family:Raleway;-inkscape-font-specification:Raleway;vector-effect:none;stop-color:#000000;stop-opacity:1"
           id="path255" /><path
           d="m 40.631897,67.885989 q -0.266197,0 -0.482169,-0.105474 -0.215971,-0.105475 -0.376694,-0.286288 -0.1557,-0.185836 -0.241084,-0.42692 -0.08538,-0.241084 -0.08538,-0.512304 0,-0.286288 0.09041,-0.532395 0.09041,-0.246107 0.25113,-0.431943 0.160723,-0.185835 0.386739,-0.29131 0.226017,-0.105474 0.497237,-0.105474 0.306378,0 0.537417,0.140632 0.231039,0.13561 0.381717,0.366649 v -0.462078 h 0.587643 v 2.506273 q 0,0.29131 -0.110497,0.522349 -0.110497,0.231039 -0.306378,0.391762 -0.190859,0.160723 -0.462079,0.246107 -0.266197,0.08538 -0.58262,0.08538 -0.431943,0 -0.728276,-0.145655 -0.29131,-0.140633 -0.502259,-0.401807 l 0.366649,-0.356604 q 0.150678,0.185836 0.376695,0.29131 0.231039,0.105474 0.487191,0.105474 0.1557,0 0.296333,-0.0452 0.145655,-0.04018 0.256152,-0.130587 0.110497,-0.09041 0.170768,-0.231039 0.06529,-0.140633 0.06529,-0.331491 v -0.331491 q -0.130588,0.226016 -0.366649,0.351581 -0.236062,0.120542 -0.507282,0.120542 z m 0.226016,-0.537417 q 0.110497,0 0.210949,-0.03516 0.100452,-0.03516 0.185836,-0.09543 0.08538,-0.06027 0.150678,-0.140633 0.06529,-0.08036 0.100452,-0.170768 V 66.27876 q -0.09041,-0.231039 -0.286288,-0.371671 -0.190858,-0.140633 -0.401807,-0.140633 -0.155701,0 -0.281265,0.07032 -0.125565,0.06529 -0.215972,0.180814 -0.09041,0.110497 -0.140632,0.256152 -0.0452,0.145655 -0.0452,0.301355 0,0.160723 0.05525,0.301356 0.05525,0.140632 0.150678,0.246106 0.100452,0.105475 0.231039,0.165746 0.130587,0.06027 0.286287,0.06027 z"
           style="font-weight:bold;font-family:Raleway;-inkscape-font-specification:Raleway;vector-effect:none;stop-color:#000000;stop-opacity:1"
           id="path256" /><path
           d="m 43.590197,67.921147 q -0.40683,0 -0.617779,-0.261174 -0.210948,-0.261175 -0.210948,-0.773479 v -1.64741 h 0.673027 v 1.501755 q 0,0.607733 0.436965,0.607733 0.195881,0 0.376694,-0.11552 0.185836,-0.120542 0.301356,-0.361626 v -1.632342 h 0.673027 v 1.858358 q 0,0.105475 0.03516,0.150678 0.04018,0.0452 0.125565,0.05023 v 0.572575 q -0.100452,0.02009 -0.170768,0.02511 -0.06529,0.005 -0.120543,0.005 -0.180813,0 -0.296332,-0.08036 -0.110497,-0.08538 -0.130588,-0.231039 l -0.01507,-0.210948 q -0.175791,0.271219 -0.452034,0.406829 -0.276242,0.13561 -0.607733,0.13561 z"
           style="font-weight:bold;font-family:Raleway;-inkscape-font-specification:Raleway;vector-effect:none;stop-color:#000000;stop-opacity:1"
           id="path257" /><path
           d="M 49.978922,67.870921 H 49.305895 V 66.39428 q 0,-0.316423 -0.110497,-0.462078 -0.105474,-0.145656 -0.296332,-0.145656 -0.200904,0 -0.376695,0.155701 -0.17579,0.150677 -0.251129,0.396784 v 1.53189 H 47.598215 V 66.39428 q 0,-0.316423 -0.110497,-0.462078 -0.105475,-0.145656 -0.296333,-0.145656 -0.195881,0 -0.376694,0.150678 -0.175791,0.150678 -0.25113,0.396785 v 1.536912 h -0.673027 v -2.631837 h 0.607733 v 0.487191 q 0.145656,-0.256152 0.396785,-0.391762 0.256152,-0.140632 0.582621,-0.140632 0.33149,0 0.512304,0.160723 0.180813,0.160723 0.231039,0.396784 0.160723,-0.27122 0.40683,-0.411852 0.246107,-0.145655 0.56253,-0.145655 0.241084,0 0.396784,0.09041 0.155701,0.09041 0.241085,0.236062 0.08538,0.145655 0.115519,0.331491 0.03516,0.185836 0.03516,0.376694 z"
           style="font-weight:bold;font-family:Raleway;-inkscape-font-specification:Raleway;vector-effect:none;stop-color:#000000;stop-opacity:1"
           id="path258" /><path
           d="m 51.284794,67.921147 q -0.190859,0 -0.356604,-0.06027 -0.165746,-0.06529 -0.286288,-0.17579 -0.120542,-0.11552 -0.190858,-0.266198 -0.06529,-0.150677 -0.06529,-0.331491 0,-0.185836 0.08036,-0.341536 0.08538,-0.160723 0.23104,-0.27122 0.150677,-0.110497 0.356603,-0.170768 0.205927,-0.06529 0.452034,-0.06529 0.17579,0 0.341536,0.03014 0.170768,0.03014 0.301355,0.08538 v -0.150678 q 0,-0.261174 -0.150678,-0.401807 -0.145655,-0.140632 -0.436965,-0.140632 -0.210949,0 -0.411852,0.07534 -0.200904,0.07534 -0.411853,0.220994 L 50.531408,65.5304 q 0.507282,-0.336513 1.094925,-0.336513 0.567552,0 0.878953,0.281265 0.316423,0.276242 0.316423,0.803614 v 0.818682 q 0,0.105475 0.03516,0.150678 0.04018,0.0452 0.125565,0.05023 v 0.572575 q -0.170768,0.03516 -0.296333,0.03516 -0.190858,0 -0.296333,-0.08538 -0.100451,-0.08538 -0.125564,-0.226016 l -0.01507,-0.145655 q -0.175791,0.231039 -0.42692,0.351581 -0.25113,0.120542 -0.537417,0.120542 z m 0.190858,-0.492214 q 0.170768,0 0.321446,-0.06027 0.1557,-0.06027 0.241084,-0.160723 0.110497,-0.08538 0.110497,-0.190858 v -0.301355 q -0.120542,-0.0452 -0.261175,-0.07032 -0.140632,-0.03014 -0.271219,-0.03014 -0.261175,0 -0.426921,0.120542 -0.165745,0.11552 -0.165745,0.296333 0,0.170768 0.130587,0.286287 0.130588,0.110497 0.321446,0.110497 z"
           style="font-weight:bold;font-family:Raleway;-inkscape-font-specification:Raleway;vector-effect:none;stop-color:#000000;stop-opacity:1"
           id="path259" /><path
           d="m 54.444001,67.921147 q -0.331491,0 -0.647914,-0.105474 -0.316423,-0.105475 -0.54244,-0.301356 l 0.25113,-0.421897 q 0.241084,0.170768 0.467101,0.261175 0.231039,0.08538 0.457055,0.08538 0.200904,0 0.316424,-0.07534 0.115519,-0.07534 0.115519,-0.215972 0,-0.140632 -0.13561,-0.205926 -0.13561,-0.06529 -0.441988,-0.150678 -0.256152,-0.07032 -0.436965,-0.135609 -0.180813,-0.06529 -0.29131,-0.145656 -0.110497,-0.08538 -0.160723,-0.190858 -0.05023,-0.110497 -0.05023,-0.261175 0,-0.200903 0.07534,-0.361626 0.08036,-0.160723 0.220994,-0.27122 0.140632,-0.11552 0.326468,-0.175791 0.190859,-0.06027 0.411853,-0.06027 0.296332,0 0.552484,0.08538 0.261175,0.08538 0.477146,0.276243 l -0.271219,0.40683 q -0.200904,-0.150678 -0.391762,-0.220994 -0.185836,-0.07032 -0.371672,-0.07032 -0.170768,0 -0.286288,0.07032 -0.115519,0.07032 -0.115519,0.226016 0,0.07032 0.02511,0.11552 0.03014,0.0452 0.09041,0.08036 0.06027,0.03516 0.155701,0.07032 0.100451,0.03014 0.246106,0.06529 0.27122,0.07032 0.462079,0.140633 0.195881,0.07032 0.316423,0.160722 0.125565,0.09041 0.180813,0.210949 0.06027,0.11552 0.06027,0.281265 0,0.38674 -0.286287,0.612756 -0.286288,0.220994 -0.778502,0.220994 z"
           style="font-weight:bold;font-family:Raleway;-inkscape-font-specification:Raleway;vector-effect:none;stop-color:#000000;stop-opacity:1"
           id="path260" /><path
           d="m 56.98543,66.555003 q 0,-0.276243 0.09543,-0.52235 0.09543,-0.246107 0.276242,-0.431942 0.180814,-0.185836 0.436966,-0.296333 0.256152,-0.110497 0.577598,-0.110497 0.431942,0 0.733298,0.185836 0.306378,0.185835 0.457055,0.487191 l -0.657959,0.200903 q -0.08538,-0.145655 -0.226016,-0.220993 -0.140633,-0.08036 -0.311401,-0.08036 -0.145655,0 -0.27122,0.06027 -0.125565,0.05525 -0.220994,0.160723 -0.09041,0.100452 -0.145655,0.246107 -0.05023,0.145655 -0.05023,0.321446 0,0.17579 0.05525,0.321446 0.05525,0.145655 0.145655,0.251129 0.09543,0.105474 0.220994,0.165745 0.125564,0.05525 0.266197,0.05525 0.180813,0 0.331491,-0.09041 0.1557,-0.09041 0.215971,-0.220994 l 0.65796,0.200904 q -0.13561,0.301355 -0.447011,0.492214 -0.311401,0.190858 -0.748366,0.190858 -0.321446,0 -0.577598,-0.110497 -0.256152,-0.110497 -0.436965,-0.296333 -0.180813,-0.190858 -0.281265,-0.436965 -0.09543,-0.251129 -0.09543,-0.522349 z"
           style="font-weight:bold;font-family:Raleway;-inkscape-font-specification:Raleway;vector-effect:none;stop-color:#000000;stop-opacity:1"
           id="path261" /><path
           d="m 61.174259,67.921147 q -0.321446,0 -0.577598,-0.110497 -0.256152,-0.110497 -0.436965,-0.296333 -0.175791,-0.190858 -0.27122,-0.436965 -0.09543,-0.246107 -0.09543,-0.517327 0,-0.276242 0.09543,-0.522349 0.09543,-0.246107 0.27122,-0.431943 0.180813,-0.190858 0.436965,-0.301355 0.256152,-0.110497 0.577598,-0.110497 0.321446,0 0.572575,0.110497 0.256153,0.110497 0.431943,0.301355 0.180813,0.185836 0.276243,0.431943 0.09543,0.246107 0.09543,0.522349 0,0.27122 -0.09543,0.517327 -0.09543,0.246107 -0.27122,0.436965 -0.175791,0.185836 -0.431943,0.296333 -0.256152,0.110497 -0.577598,0.110497 z m -0.688095,-1.361122 q 0,0.175791 0.05023,0.321446 0.05525,0.140633 0.145655,0.246107 0.09543,0.105474 0.220994,0.165745 0.125565,0.05525 0.27122,0.05525 0.145655,0 0.27122,-0.05525 0.125565,-0.06027 0.215971,-0.165745 0.09543,-0.105474 0.145656,-0.251129 0.05525,-0.145656 0.05525,-0.321446 0,-0.170768 -0.05525,-0.316423 -0.05023,-0.145656 -0.145656,-0.25113 -0.09041,-0.105474 -0.215971,-0.160723 -0.125565,-0.06027 -0.27122,-0.06027 -0.145655,0 -0.27122,0.06027 -0.125564,0.06027 -0.220994,0.165746 -0.09041,0.105474 -0.145655,0.251129 -0.05023,0.145655 -0.05023,0.316423 z"
           style="font-weight:bold;font-family:Raleway;-inkscape-font-specification:Raleway;vector-effect:none;stop-color:#000000;stop-opacity:1"
           id="path262" /><path
           d="m 63.002476,67.870921 v -2.631837 h 0.673027 v 2.631837 z m 0,-2.998486 v -0.668004 h 0.673027 v 0.668004 z"
           style="font-weight:bold;font-family:Raleway;-inkscape-font-specification:Raleway;vector-effect:none;stop-color:#000000;stop-opacity:1"
           id="path263" /><path
           d="m 65.277707,67.921147 q -0.331491,0 -0.647914,-0.105474 -0.316423,-0.105475 -0.54244,-0.301356 l 0.25113,-0.421897 q 0.241084,0.170768 0.467101,0.261175 0.231039,0.08538 0.457055,0.08538 0.200904,0 0.316423,-0.07534 0.11552,-0.07534 0.11552,-0.215972 0,-0.140632 -0.13561,-0.205926 -0.13561,-0.06529 -0.441988,-0.150678 -0.256152,-0.07032 -0.436965,-0.135609 -0.180813,-0.06529 -0.29131,-0.145656 -0.110497,-0.08538 -0.160723,-0.190858 -0.05023,-0.110497 -0.05023,-0.261175 0,-0.200903 0.07534,-0.361626 0.08036,-0.160723 0.220994,-0.27122 0.140632,-0.11552 0.326468,-0.175791 0.190858,-0.06027 0.411852,-0.06027 0.296333,0 0.552485,0.08538 0.261175,0.08538 0.477146,0.276243 l -0.271219,0.40683 q -0.200904,-0.150678 -0.391763,-0.220994 -0.185835,-0.07032 -0.371671,-0.07032 -0.170768,0 -0.286288,0.07032 -0.115519,0.07032 -0.115519,0.226016 0,0.07032 0.02511,0.11552 0.03014,0.0452 0.09041,0.08036 0.06027,0.03516 0.1557,0.07032 0.100452,0.03014 0.246107,0.06529 0.27122,0.07032 0.462079,0.140633 0.195881,0.07032 0.316423,0.160722 0.125565,0.09041 0.180813,0.210949 0.06027,0.11552 0.06027,0.281265 0,0.38674 -0.286287,0.612756 -0.286288,0.220994 -0.778502,0.220994 z"
           style="font-weight:bold;font-family:Raleway;-inkscape-font-specification:Raleway;vector-effect:none;stop-color:#000000;stop-opacity:1"
           id="path264" /><path
           d="m 67.497688,67.921147 q -0.190858,0 -0.356604,-0.06027 -0.165745,-0.06529 -0.286287,-0.17579 -0.120543,-0.11552 -0.190859,-0.266198 -0.06529,-0.150677 -0.06529,-0.331491 0,-0.185836 0.08036,-0.341536 0.08538,-0.160723 0.231039,-0.27122 0.150678,-0.110497 0.356604,-0.170768 0.205926,-0.06529 0.452033,-0.06529 0.175791,0 0.341536,0.03014 0.170768,0.03014 0.301356,0.08538 v -0.150678 q 0,-0.261174 -0.150678,-0.401807 -0.145655,-0.140632 -0.436965,-0.140632 -0.210949,0 -0.411853,0.07534 -0.200903,0.07534 -0.411852,0.220994 L 66.7443,65.530394 q 0.507281,-0.336513 1.094924,-0.336513 0.567553,0 0.878953,0.281265 0.316424,0.276242 0.316424,0.803614 v 0.818682 q 0,0.105475 0.03516,0.150678 0.04018,0.0452 0.125565,0.05023 v 0.572575 q -0.170769,0.03516 -0.296333,0.03516 -0.190859,0 -0.296333,-0.08538 -0.100452,-0.08538 -0.125565,-0.226016 l -0.01507,-0.145655 q -0.17579,0.231039 -0.42692,0.351581 -0.251129,0.120542 -0.537417,0.120542 z m 0.190859,-0.492214 q 0.170768,0 0.321445,-0.06027 0.155701,-0.06027 0.241085,-0.160723 0.110497,-0.08538 0.110497,-0.190858 v -0.301355 q -0.120543,-0.0452 -0.261175,-0.07032 -0.140633,-0.03014 -0.27122,-0.03014 -0.261175,0 -0.42692,0.120542 -0.165746,0.11552 -0.165746,0.296333 0,0.170768 0.130588,0.286287 0.130587,0.110497 0.321446,0.110497 z"
           style="font-weight:bold;font-family:Raleway;-inkscape-font-specification:Raleway;vector-effect:none;stop-color:#000000;stop-opacity:1"
           id="path265" /><path
           d="m 70.656896,67.921147 q -0.331491,0 -0.647915,-0.105474 -0.316423,-0.105475 -0.542439,-0.301356 l 0.251129,-0.421897 q 0.241085,0.170768 0.467101,0.261175 0.231039,0.08538 0.457056,0.08538 0.200903,0 0.316423,-0.07534 0.11552,-0.07534 0.11552,-0.215972 0,-0.140632 -0.13561,-0.205926 -0.13561,-0.06529 -0.441988,-0.150678 -0.256152,-0.07032 -0.436966,-0.135609 -0.180813,-0.06529 -0.29131,-0.145656 -0.110497,-0.08538 -0.160723,-0.190858 -0.05023,-0.110497 -0.05023,-0.261175 0,-0.200903 0.07534,-0.361626 0.08036,-0.160723 0.220994,-0.27122 0.140633,-0.11552 0.326469,-0.175791 0.190858,-0.06027 0.411852,-0.06027 0.296333,0 0.552485,0.08538 0.261175,0.08538 0.477146,0.276243 l -0.27122,0.40683 q -0.200904,-0.150678 -0.391762,-0.220994 -0.185836,-0.07032 -0.371672,-0.07032 -0.170768,0 -0.286287,0.07032 -0.11552,0.07032 -0.11552,0.226016 0,0.07032 0.02511,0.11552 0.03014,0.0452 0.09041,0.08036 0.06027,0.03516 0.1557,0.07032 0.100452,0.03014 0.246107,0.06529 0.27122,0.07032 0.462078,0.140633 0.195881,0.07032 0.316423,0.160722 0.125565,0.09041 0.180814,0.210949 0.06027,0.11552 0.06027,0.281265 0,0.38674 -0.286288,0.612756 -0.286288,0.220994 -0.778501,0.220994 z"
           style="font-weight:bold;font-family:Raleway;-inkscape-font-specification:Raleway;vector-effect:none;stop-color:#000000;stop-opacity:1"
           id="path266" /><path
           d="m 72.143582,67.870921 v -0.723253 h 0.552485 v 0.723253 z m 0.944247,0 v -0.723253 h 0.552485 v 0.723253 z m 0.944247,0 v -0.723253 h 0.552485 v 0.723253 z"
           style="font-weight:bold;font-family:Raleway;-inkscape-font-specification:Raleway;vector-effect:none;stop-color:#000000;stop-opacity:1"
           id="path267" /></g></g></g></svg>
