<?xml version="1.0" encoding="UTF-8" standalone="no"?>
<svg
   width="700.00037"
   height="220"
   viewBox="0 0 185.20843 58.208335"
   version="1.1"
   id="svg243962"
   xml:space="preserve"
   xmlns="http://www.w3.org/2000/svg"
   xmlns:svg="http://www.w3.org/2000/svg"><defs
     id="defs243959" /><g
     id="layer2"
     style="font-variation-settings:normal;opacity:1;vector-effect:none;fill:#cbe1fb;fill-opacity:1;stroke-width:0.125564;stroke-linecap:butt;stroke-linejoin:miter;stroke-miterlimit:4;stroke-dasharray:none;stroke-dashoffset:0;stroke-opacity:1;-inkscape-stroke:none;stop-color:#000000;stop-opacity:1"
     transform="translate(-390.41688)"><g
       id="layer3-2"
       style="font-variation-settings:normal;display:inline;vector-effect:none;fill:#cbe1fb;fill-opacity:1;stroke-width:0.125564;stroke-linecap:butt;stroke-linejoin:miter;stroke-miterlimit:4;stroke-dasharray:none;stroke-dashoffset:0;stroke-opacity:1;-inkscape-stroke:none;stop-color:#000000;stop-opacity:1"
       transform="translate(378.59115,-32.556143)"><g
         aria-label="Willkommen!"
         id="text118971-6"
         style="font-size:12.0826px;line-height:1.25;font-family:'Roboto Condensed';-inkscape-font-specification:'Roboto Condensed, ';vector-effect:none;stroke-width:0.125563;stop-color:#000000;stop-opacity:1"><path
           d="m 21.585762,40.369172 h 1.53449 l 0.966608,2.839411 0.966608,-2.839411 h 1.546573 l -1.461995,3.90268 1.087434,2.74275 2.428603,-6.669595 h 1.81239 l -3.491871,8.578646 H 25.57302 l -1.48616,-3.600615 -1.486159,3.600615 h -1.401582 l -3.467706,-8.578646 h 1.788225 l 2.440685,6.669595 1.063269,-2.74275 z"
           style="font-weight:bold;font-family:Raleway;-inkscape-font-specification:Raleway;vector-effect:none;stop-color:#000000;stop-opacity:1"
           id="path560" /><path
           d="M 31.191422,48.923653 V 42.59237 h 1.619069 v 6.331283 z m 0,-7.213312 v -1.606986 h 1.619069 v 1.606986 z"
           style="font-weight:bold;font-family:Raleway;-inkscape-font-specification:Raleway;vector-effect:none;stop-color:#000000;stop-opacity:1"
           id="path561" /><path
           d="m 34.260393,40.103355 h 1.619068 v 6.790421 q 0,0.350395 0.169156,0.543717 0.169157,0.193321 0.483304,0.193321 0.144992,0 0.314148,-0.04833 0.181239,-0.04833 0.338313,-0.120826 l 0.217487,1.232425 q -0.326231,0.157074 -0.761204,0.241652 -0.434974,0.08458 -0.785369,0.08458 -0.761204,0 -1.184095,-0.398725 -0.410808,-0.410809 -0.410808,-1.15993 z"
           style="font-weight:bold;font-family:Raleway;-inkscape-font-specification:Raleway;vector-effect:none;stop-color:#000000;stop-opacity:1"
           id="path562" /><path
           d="m 38.09057,40.103355 h 1.619068 v 6.790421 q 0,0.350395 0.169157,0.543717 0.169156,0.193321 0.483304,0.193321 0.144991,0 0.314147,-0.04833 0.181239,-0.04833 0.338313,-0.120826 l 0.217487,1.232425 q -0.32623,0.157074 -0.761204,0.241652 -0.434974,0.08458 -0.785369,0.08458 -0.761204,0 -1.184095,-0.398725 -0.410808,-0.410809 -0.410808,-1.15993 z"
           style="font-weight:bold;font-family:Raleway;-inkscape-font-specification:Raleway;vector-effect:none;stop-color:#000000;stop-opacity:1"
           id="path563" /><path
           d="m 46.2584,48.923653 -1.836555,-2.74275 -0.869947,0.857864 v 1.884886 H 41.93283 v -8.820298 h 1.619068 v 5.352592 l 2.537346,-2.851494 h 1.727812 l -2.356107,2.682337 2.525263,3.636863 z"
           style="font-weight:bold;font-family:Raleway;-inkscape-font-specification:Raleway;vector-effect:none;stop-color:#000000;stop-opacity:1"
           id="path564" /><path
           d="m 51.272659,49.044479 q -0.773286,0 -1.389499,-0.265818 -0.616212,-0.265817 -1.051186,-0.712873 -0.422891,-0.459139 -0.65246,-1.051186 -0.22957,-0.592047 -0.22957,-1.244508 0,-0.664543 0.22957,-1.25659 0.229569,-0.592048 0.65246,-1.039104 0.434974,-0.459139 1.051186,-0.724956 0.616213,-0.265817 1.389499,-0.265817 0.773286,0 1.377416,0.265817 0.616213,0.265817 1.039104,0.724956 0.434974,0.447056 0.664543,1.039104 0.229569,0.592047 0.229569,1.25659 0,0.652461 -0.229569,1.244508 -0.229569,0.592047 -0.65246,1.051186 -0.422891,0.447056 -1.039104,0.712873 -0.616213,0.265818 -1.389499,0.265818 z m -1.655316,-3.274385 q 0,0.422891 0.120826,0.773287 0.132909,0.338312 0.350395,0.592047 0.22957,0.253734 0.531635,0.398726 0.302065,0.132908 0.65246,0.132908 0.350395,0 0.65246,-0.132908 0.302065,-0.144992 0.519552,-0.398726 0.22957,-0.253735 0.350396,-0.60413 0.132908,-0.350395 0.132908,-0.773286 0,-0.410809 -0.132908,-0.761204 -0.120826,-0.350396 -0.350396,-0.60413 -0.217487,-0.253735 -0.519552,-0.386643 -0.302065,-0.144992 -0.65246,-0.144992 -0.350395,0 -0.65246,0.144992 -0.302065,0.144991 -0.531635,0.398725 -0.217486,0.253735 -0.350395,0.60413 -0.120826,0.350396 -0.120826,0.761204 z"
           style="font-weight:bold;font-family:Raleway;-inkscape-font-specification:Raleway;vector-effect:none;stop-color:#000000;stop-opacity:1"
           id="path565" /><path
           d="m 65.50595,48.923653 h -1.619068 v -3.552285 q 0,-0.761203 -0.265817,-1.111599 -0.253735,-0.350395 -0.712873,-0.350395 -0.483304,0 -0.906195,0.37456 -0.422891,0.362478 -0.60413,0.954526 v 3.685193 h -1.619069 v -3.552285 q 0,-0.761203 -0.265817,-1.111599 -0.253735,-0.350395 -0.712873,-0.350395 -0.471222,0 -0.906195,0.362478 -0.422891,0.362478 -0.60413,0.954525 v 3.697276 H 55.670714 V 42.59237 h 1.461995 v 1.172013 q 0.350395,-0.616213 0.954525,-0.942443 0.616213,-0.338313 1.401582,-0.338313 0.797451,0 1.232425,0.386643 0.434974,0.386643 0.5558,0.954526 0.386643,-0.652461 0.97869,-0.990774 0.592048,-0.350395 1.353251,-0.350395 0.579965,0 0.954526,0.217487 0.37456,0.217487 0.579964,0.567882 0.205405,0.350395 0.2779,0.797452 0.08458,0.447056 0.08458,0.906195 z"
           style="font-weight:bold;font-family:Raleway;-inkscape-font-specification:Raleway;vector-effect:none;stop-color:#000000;stop-opacity:1"
           id="path566" /><path
           d="m 76.754844,48.923653 h -1.619068 v -3.552285 q 0,-0.761203 -0.265817,-1.111599 -0.253735,-0.350395 -0.712874,-0.350395 -0.483304,0 -0.906195,0.37456 -0.422891,0.362478 -0.60413,0.954526 v 3.685193 h -1.619068 v -3.552285 q 0,-0.761203 -0.265817,-1.111599 -0.253735,-0.350395 -0.712874,-0.350395 -0.471221,0 -0.906195,0.362478 -0.422891,0.362478 -0.60413,0.954525 v 3.697276 H 66.919608 V 42.59237 h 1.461995 v 1.172013 q 0.350395,-0.616213 0.954525,-0.942443 0.616213,-0.338313 1.401582,-0.338313 0.797451,0 1.232425,0.386643 0.434973,0.386643 0.555799,0.954526 0.386644,-0.652461 0.978691,-0.990774 0.592047,-0.350395 1.353251,-0.350395 0.579965,0 0.954525,0.217487 0.374561,0.217487 0.579965,0.567882 0.205404,0.350395 0.2779,0.797452 0.08458,0.447056 0.08458,0.906195 z"
           style="font-weight:bold;font-family:Raleway;-inkscape-font-specification:Raleway;vector-effect:none;stop-color:#000000;stop-opacity:1"
           id="path567" /><path
           d="m 81.104581,49.044479 q -0.761204,0 -1.377416,-0.253735 -0.616213,-0.265817 -1.051186,-0.712873 -0.434974,-0.447057 -0.676626,-1.039104 -0.229569,-0.592047 -0.229569,-1.244508 0,-0.676625 0.229569,-1.268673 0.229569,-0.60413 0.664543,-1.051186 0.434974,-0.459139 1.051186,-0.724956 0.628295,-0.265817 1.401582,-0.265817 0.773286,0 1.377416,0.265817 0.616213,0.265817 1.039104,0.712874 0.434973,0.447056 0.65246,1.039103 0.229569,0.592048 0.229569,1.232425 0,0.157074 -0.01208,0.302065 0,0.144992 -0.02416,0.241652 H 79.48552 q 0.03625,0.374561 0.181239,0.664543 0.144991,0.289983 0.37456,0.495387 0.22957,0.205404 0.519552,0.314147 0.289983,0.108744 0.60413,0.108744 0.483304,0 0.906195,-0.22957 0.434974,-0.241652 0.592048,-0.628295 l 1.389498,0.386643 q -0.350395,0.724956 -1.123681,1.196178 -0.761204,0.459139 -1.824473,0.459139 z m 1.643234,-3.818102 q -0.06041,-0.712873 -0.531635,-1.135764 -0.459138,-0.434974 -1.123681,-0.434974 -0.326231,0 -0.616213,0.120826 -0.2779,0.108744 -0.495387,0.314148 -0.217486,0.205404 -0.362478,0.495386 -0.132908,0.289983 -0.157073,0.640378 z"
           style="font-weight:bold;font-family:Raleway;-inkscape-font-specification:Raleway;vector-effect:none;stop-color:#000000;stop-opacity:1"
           id="path568" /><path
           d="m 91.2902,48.923653 h -1.619068 v -3.552285 q 0,-0.761203 -0.265817,-1.111599 -0.265817,-0.350395 -0.737039,-0.350395 -0.241652,0 -0.495386,0.09666 -0.253735,0.09666 -0.483304,0.277899 -0.217487,0.169157 -0.398726,0.410809 -0.181239,0.241652 -0.265817,0.531634 v 3.697276 H 85.405974 V 42.59237 h 1.461995 v 1.172013 q 0.350395,-0.60413 1.014938,-0.942443 0.664543,-0.338313 1.498243,-0.338313 0.592047,0 0.966608,0.217487 0.37456,0.217487 0.579964,0.567882 0.205405,0.350395 0.2779,0.797452 0.08458,0.447056 0.08458,0.906195 z"
           style="font-weight:bold;font-family:Raleway;-inkscape-font-specification:Raleway;vector-effect:none;stop-color:#000000;stop-opacity:1"
           id="path569" /><path
           d="m 93.017989,45.697599 v -5.43717 h 1.619068 v 5.43717 z m 0,3.226054 V 47.09918 h 1.619068 v 1.824473 z"
           style="font-weight:bold;font-family:Raleway;-inkscape-font-specification:Raleway;vector-effect:none;stop-color:#000000;stop-opacity:1"
           id="path570" /></g><g
         aria-label="Lass uns ein paar
     Dinge einrichten…"
         id="text115541-6"
         style="font-size:5.02259px;line-height:1.25;font-family:'Roboto Condensed';-inkscape-font-specification:'Roboto Condensed, ';vector-effect:none;stroke-width:0.125564;stop-color:#000000;stop-opacity:1"><path
           d="m 32.15884,61.916218 v -3.566039 h 0.693118 v 2.958305 h 1.818177 v 0.607734 z"
           style="font-weight:bold;font-family:Raleway;-inkscape-font-specification:Raleway;vector-effect:none;stop-color:#000000;stop-opacity:1"
           id="path530" /><path
           d="m 35.744968,61.966444 q -0.190859,0 -0.356604,-0.06027 -0.165746,-0.06529 -0.286288,-0.175791 -0.120542,-0.11552 -0.190858,-0.266197 -0.06529,-0.150678 -0.06529,-0.331491 0,-0.185836 0.08036,-0.341536 0.08538,-0.160723 0.231039,-0.27122 0.150677,-0.110497 0.356604,-0.170768 0.205926,-0.06529 0.452033,-0.06529 0.17579,0 0.341536,0.03014 0.170768,0.03014 0.301355,0.08538 v -0.150678 q 0,-0.261175 -0.150677,-0.401807 -0.145656,-0.140633 -0.436966,-0.140633 -0.210949,0 -0.411852,0.07534 -0.200904,0.07534 -0.411853,0.220994 l -0.205926,-0.42692 q 0.507282,-0.336514 1.094925,-0.336514 0.567553,0 0.878953,0.281265 0.316423,0.276243 0.316423,0.803615 v 0.818682 q 0,0.105474 0.03516,0.150678 0.04018,0.0452 0.125565,0.05023 v 0.572575 q -0.170768,0.03516 -0.296333,0.03516 -0.190858,0 -0.296332,-0.08538 -0.100452,-0.08538 -0.125565,-0.226017 l -0.01507,-0.145655 q -0.175791,0.231039 -0.42692,0.351582 -0.25113,0.120542 -0.537417,0.120542 z m 0.190858,-0.492214 q 0.170768,0 0.321446,-0.06027 0.1557,-0.06027 0.241084,-0.160723 0.110497,-0.08538 0.110497,-0.190859 v -0.301355 q -0.120542,-0.0452 -0.261174,-0.07032 -0.140633,-0.03014 -0.27122,-0.03014 -0.261175,0 -0.42692,0.120542 -0.165746,0.11552 -0.165746,0.296333 0,0.170768 0.130587,0.286288 0.130588,0.110497 0.321446,0.110497 z"
           style="font-weight:bold;font-family:Raleway;-inkscape-font-specification:Raleway;vector-effect:none;stop-color:#000000;stop-opacity:1"
           id="path531" /><path
           d="m 38.904174,61.966444 q -0.331491,0 -0.647914,-0.105475 -0.316423,-0.105474 -0.54244,-0.301355 l 0.251129,-0.421898 q 0.241085,0.170768 0.467101,0.261175 0.23104,0.08538 0.457056,0.08538 0.200904,0 0.316423,-0.07534 0.11552,-0.07534 0.11552,-0.215971 0,-0.140633 -0.13561,-0.205926 -0.13561,-0.06529 -0.441988,-0.150678 -0.256152,-0.07032 -0.436965,-0.13561 -0.180814,-0.06529 -0.291311,-0.145655 -0.110497,-0.08538 -0.160723,-0.190859 -0.05023,-0.110497 -0.05023,-0.261174 0,-0.200904 0.07534,-0.361627 0.08036,-0.160723 0.220994,-0.27122 0.140633,-0.115519 0.326469,-0.17579 0.190858,-0.06027 0.411852,-0.06027 0.296333,0 0.552485,0.08538 0.261175,0.08538 0.477146,0.276242 l -0.27122,0.40683 q -0.200903,-0.150678 -0.391762,-0.220994 -0.185836,-0.07032 -0.371671,-0.07032 -0.170768,0 -0.286288,0.07032 -0.11552,0.07032 -0.11552,0.226017 0,0.07032 0.02511,0.115519 0.03014,0.0452 0.09041,0.08036 0.06027,0.03516 0.1557,0.07032 0.100452,0.03014 0.246107,0.06529 0.27122,0.07032 0.462078,0.140633 0.195881,0.07032 0.316424,0.160723 0.125564,0.09041 0.180813,0.210949 0.06027,0.115519 0.06027,0.281265 0,0.386739 -0.286288,0.612756 -0.286287,0.220994 -0.778501,0.220994 z"
           style="font-weight:bold;font-family:Raleway;-inkscape-font-specification:Raleway;vector-effect:none;stop-color:#000000;stop-opacity:1"
           id="path532" /><path
           d="m 41.4004,61.966444 q -0.331491,0 -0.647914,-0.105475 -0.316423,-0.105474 -0.54244,-0.301355 l 0.25113,-0.421898 q 0.241084,0.170768 0.467101,0.261175 0.231039,0.08538 0.457055,0.08538 0.200904,0 0.316424,-0.07534 0.115519,-0.07534 0.115519,-0.215971 0,-0.140633 -0.13561,-0.205926 -0.13561,-0.06529 -0.441988,-0.150678 -0.256152,-0.07032 -0.436965,-0.13561 -0.180813,-0.06529 -0.29131,-0.145655 -0.110497,-0.08538 -0.160723,-0.190859 -0.05023,-0.110497 -0.05023,-0.261174 0,-0.200904 0.07534,-0.361627 0.08036,-0.160723 0.220994,-0.27122 0.140632,-0.115519 0.326468,-0.17579 0.190859,-0.06027 0.411852,-0.06027 0.296333,0 0.552485,0.08538 0.261175,0.08538 0.477146,0.276242 l -0.271219,0.40683 q -0.200904,-0.150678 -0.391762,-0.220994 -0.185836,-0.07032 -0.371672,-0.07032 -0.170768,0 -0.286288,0.07032 -0.115519,0.07032 -0.115519,0.226017 0,0.07032 0.02511,0.115519 0.03014,0.0452 0.09041,0.08036 0.06027,0.03516 0.155701,0.07032 0.100451,0.03014 0.246106,0.06529 0.27122,0.07032 0.462079,0.140633 0.195881,0.07032 0.316423,0.160723 0.125565,0.09041 0.180813,0.210949 0.06027,0.115519 0.06027,0.281265 0,0.386739 -0.286287,0.612756 -0.286288,0.220994 -0.778502,0.220994 z"
           style="font-weight:bold;font-family:Raleway;-inkscape-font-specification:Raleway;vector-effect:none;stop-color:#000000;stop-opacity:1"
           id="path533" /><path
           d="m 44.911188,61.966444 q -0.40683,0 -0.617779,-0.261175 Q 44.08246,61.444094 44.08246,60.93179 v -1.647409 h 0.673027 v 1.501754 q 0,0.607733 0.436966,0.607733 0.195881,0 0.376694,-0.115519 0.185836,-0.120542 0.301355,-0.361627 v -1.632341 h 0.673027 v 1.858358 q 0,0.105474 0.03516,0.150678 0.04018,0.0452 0.125564,0.05023 v 0.572575 q -0.100452,0.02009 -0.170768,0.02511 -0.06529,0.005 -0.120542,0.005 -0.180813,0 -0.296333,-0.08036 -0.110497,-0.08538 -0.130587,-0.231039 l -0.01507,-0.210949 q -0.175791,0.27122 -0.452033,0.40683 -0.276242,0.13561 -0.607733,0.13561 z"
           style="font-weight:bold;font-family:Raleway;-inkscape-font-specification:Raleway;vector-effect:none;stop-color:#000000;stop-opacity:1"
           id="path534" /><path
           d="m 49.657526,61.916218 h -0.673027 v -1.476642 q 0,-0.316423 -0.110497,-0.462078 -0.110497,-0.145655 -0.306378,-0.145655 -0.100452,0 -0.205926,0.04018 -0.105475,0.04018 -0.200904,0.115519 -0.09041,0.07032 -0.165745,0.170768 -0.07534,0.100452 -0.110497,0.220994 v 1.536913 H 47.211525 V 59.28438 h 0.607733 v 0.487191 q 0.145655,-0.25113 0.421898,-0.391762 0.276242,-0.140633 0.622801,-0.140633 0.246107,0 0.401807,0.09041 0.1557,0.09041 0.241084,0.236062 0.08538,0.145655 0.11552,0.331491 0.03516,0.185835 0.03516,0.376694 z"
           style="font-weight:bold;font-family:Raleway;-inkscape-font-specification:Raleway;vector-effect:none;stop-color:#000000;stop-opacity:1"
           id="path535" /><path
           d="m 51.239633,61.966444 q -0.331491,0 -0.647915,-0.105475 -0.316423,-0.105474 -0.542439,-0.301355 l 0.251129,-0.421898 q 0.241085,0.170768 0.467101,0.261175 0.231039,0.08538 0.457056,0.08538 0.200903,0 0.316423,-0.07534 0.11552,-0.07534 0.11552,-0.215971 0,-0.140633 -0.13561,-0.205926 -0.13561,-0.06529 -0.441988,-0.150678 -0.256152,-0.07032 -0.436966,-0.13561 -0.180813,-0.06529 -0.29131,-0.145655 -0.110497,-0.08538 -0.160723,-0.190859 -0.05023,-0.110497 -0.05023,-0.261174 0,-0.200904 0.07534,-0.361627 0.08036,-0.160723 0.220994,-0.27122 0.140633,-0.115519 0.326469,-0.17579 0.190858,-0.06027 0.411852,-0.06027 0.296333,0 0.552485,0.08538 0.261175,0.08538 0.477146,0.276242 l -0.27122,0.40683 q -0.200904,-0.150678 -0.391762,-0.220994 -0.185836,-0.07032 -0.371672,-0.07032 -0.170768,0 -0.286287,0.07032 -0.11552,0.07032 -0.11552,0.226017 0,0.07032 0.02511,0.115519 0.03014,0.0452 0.09041,0.08036 0.06027,0.03516 0.1557,0.07032 0.100452,0.03014 0.246107,0.06529 0.27122,0.07032 0.462078,0.140633 0.195881,0.07032 0.316423,0.160723 0.125565,0.09041 0.180814,0.210949 0.06027,0.115519 0.06027,0.281265 0,0.386739 -0.286288,0.612756 -0.286288,0.220994 -0.778501,0.220994 z"
           style="font-weight:bold;font-family:Raleway;-inkscape-font-specification:Raleway;vector-effect:none;stop-color:#000000;stop-opacity:1"
           id="path536" /><path
           d="m 55.167296,61.966444 q -0.316423,0 -0.572575,-0.105475 -0.256152,-0.110497 -0.436966,-0.296333 -0.180813,-0.185835 -0.281265,-0.431942 -0.09543,-0.246107 -0.09543,-0.517327 0,-0.281265 0.09543,-0.527372 0.09543,-0.25113 0.276243,-0.436965 0.180813,-0.190859 0.436965,-0.301356 0.261175,-0.110497 0.582621,-0.110497 0.321445,0 0.572575,0.110497 0.256152,0.110497 0.431943,0.296333 0.180813,0.185836 0.271219,0.431943 0.09543,0.246107 0.09543,0.512304 0,0.06529 -0.005,0.125565 0,0.06027 -0.01004,0.100452 h -2.034149 q 0.01507,0.1557 0.07534,0.276242 0.06027,0.120542 0.1557,0.205926 0.09543,0.08538 0.215971,0.130588 0.120543,0.0452 0.25113,0.0452 0.200904,0 0.376694,-0.09543 0.180813,-0.100452 0.246107,-0.261175 l 0.577598,0.160723 q -0.145655,0.301355 -0.467101,0.497236 -0.316423,0.190859 -0.758411,0.190859 z m 0.683072,-1.587139 q -0.02511,-0.296333 -0.220994,-0.472123 -0.190858,-0.180814 -0.467101,-0.180814 -0.13561,0 -0.256152,0.05023 -0.115519,0.0452 -0.205926,0.130588 -0.09041,0.08538 -0.150678,0.205926 -0.05525,0.120542 -0.06529,0.266197 z"
           style="font-weight:bold;font-family:Raleway;-inkscape-font-specification:Raleway;vector-effect:none;stop-color:#000000;stop-opacity:1"
           id="path537" /><path
           d="m 56.955332,61.916218 v -2.631837 h 0.673027 v 2.631837 z m 0,-2.998487 v -0.668004 h 0.673027 v 0.668004 z"
           style="font-weight:bold;font-family:Raleway;-inkscape-font-specification:Raleway;vector-effect:none;stop-color:#000000;stop-opacity:1"
           id="path538" /><path
           d="m 60.682092,61.916218 h -0.673027 v -1.476642 q 0,-0.316423 -0.110497,-0.462078 -0.110497,-0.145655 -0.306378,-0.145655 -0.100452,0 -0.205927,0.04018 -0.105474,0.04018 -0.200903,0.115519 -0.09041,0.07032 -0.165746,0.170768 -0.07534,0.100452 -0.110497,0.220994 v 1.536913 H 58.23609 V 59.28438 h 0.607734 v 0.487191 q 0.145655,-0.25113 0.421897,-0.391762 0.276243,-0.140633 0.622801,-0.140633 0.246107,0 0.401808,0.09041 0.1557,0.09041 0.241084,0.236062 0.08538,0.145655 0.11552,0.331491 0.03516,0.185835 0.03516,0.376694 z"
           style="font-weight:bold;font-family:Raleway;-inkscape-font-specification:Raleway;vector-effect:none;stop-color:#000000;stop-opacity:1"
           id="path539" /><path
           d="m 64.052239,61.966444 q -0.3114,0 -0.542439,-0.13561 -0.23104,-0.140633 -0.361627,-0.376694 v 1.53189 h -0.673027 v -3.701649 h 0.587643 v 0.452033 q 0.145655,-0.231039 0.376694,-0.361627 0.231039,-0.13561 0.532395,-0.13561 0.266197,0 0.492214,0.110497 0.226016,0.105475 0.386739,0.29131 0.165746,0.180814 0.256152,0.431943 0.09543,0.246107 0.09543,0.52235 0,0.286287 -0.08538,0.537417 -0.08538,0.251129 -0.241084,0.436965 -0.150678,0.185836 -0.361626,0.29131 -0.210949,0.105475 -0.462079,0.105475 z m -0.226016,-0.572576 q 0.150677,0 0.276242,-0.06529 0.130587,-0.06529 0.220994,-0.175791 0.09041,-0.110497 0.140633,-0.256152 0.05023,-0.145655 0.05023,-0.301355 0,-0.165746 -0.05525,-0.306378 -0.05525,-0.145656 -0.1557,-0.25113 -0.09543,-0.105474 -0.231039,-0.165745 -0.130588,-0.06027 -0.286288,-0.06027 -0.09543,0 -0.195881,0.03516 -0.100452,0.03014 -0.185836,0.09041 -0.08538,0.06027 -0.1557,0.140633 -0.06529,0.08036 -0.100452,0.17579 v 0.617779 q 0.09041,0.226017 0.276242,0.376694 0.185836,0.145655 0.401808,0.145655 z"
           style="font-weight:bold;font-family:Raleway;-inkscape-font-specification:Raleway;vector-effect:none;stop-color:#000000;stop-opacity:1"
           id="path540" /><path
           d="m 66.377691,61.966444 q -0.190858,0 -0.356604,-0.06027 -0.165745,-0.06529 -0.286287,-0.175791 -0.120543,-0.11552 -0.190859,-0.266197 -0.06529,-0.150678 -0.06529,-0.331491 0,-0.185836 0.08036,-0.341536 0.08538,-0.160723 0.231039,-0.27122 0.150678,-0.110497 0.356604,-0.170768 0.205926,-0.06529 0.452033,-0.06529 0.175791,0 0.341536,0.03014 0.170768,0.03014 0.301356,0.08538 v -0.150678 q 0,-0.261175 -0.150678,-0.401807 -0.145655,-0.140633 -0.436965,-0.140633 -0.210949,0 -0.411853,0.07534 -0.200903,0.07534 -0.411852,0.220994 l -0.205926,-0.42692 q 0.507281,-0.336514 1.094924,-0.336514 0.567553,0 0.878953,0.281265 0.316424,0.276243 0.316424,0.803615 v 0.818682 q 0,0.105474 0.03516,0.150678 0.04018,0.0452 0.125565,0.05023 v 0.572575 q -0.170769,0.03516 -0.296333,0.03516 -0.190859,0 -0.296333,-0.08538 -0.100452,-0.08538 -0.125565,-0.226017 l -0.01507,-0.145655 q -0.17579,0.231039 -0.42692,0.351582 -0.251129,0.120542 -0.537417,0.120542 z m 0.190858,-0.492214 q 0.170769,0 0.321446,-0.06027 0.155701,-0.06027 0.241085,-0.160723 0.110497,-0.08538 0.110497,-0.190859 v -0.301355 q -0.120543,-0.0452 -0.261175,-0.07032 -0.140633,-0.03014 -0.27122,-0.03014 -0.261175,0 -0.42692,0.120542 -0.165746,0.11552 -0.165746,0.296333 0,0.170768 0.130588,0.286288 0.130587,0.110497 0.321445,0.110497 z"
           style="font-weight:bold;font-family:Raleway;-inkscape-font-specification:Raleway;vector-effect:none;stop-color:#000000;stop-opacity:1"
           id="path541" /><path
           d="m 69.260656,61.966444 q -0.190858,0 -0.356604,-0.06027 -0.165745,-0.06529 -0.286287,-0.175791 -0.120543,-0.11552 -0.190859,-0.266197 -0.06529,-0.150678 -0.06529,-0.331491 0,-0.185836 0.08036,-0.341536 0.08538,-0.160723 0.231039,-0.27122 0.150678,-0.110497 0.356604,-0.170768 0.205926,-0.06529 0.452033,-0.06529 0.175791,0 0.341536,0.03014 0.170768,0.03014 0.301356,0.08538 v -0.150678 q 0,-0.261175 -0.150678,-0.401807 -0.145655,-0.140633 -0.436965,-0.140633 -0.210949,0 -0.411853,0.07534 -0.200903,0.07534 -0.411852,0.220994 l -0.205926,-0.42692 q 0.507281,-0.336514 1.094924,-0.336514 0.567553,0 0.878954,0.281265 0.316423,0.276243 0.316423,0.803615 v 0.818682 q 0,0.105474 0.03516,0.150678 0.04018,0.0452 0.125565,0.05023 v 0.572575 q -0.170768,0.03516 -0.296333,0.03516 -0.190859,0 -0.296333,-0.08538 -0.100452,-0.08538 -0.125565,-0.226017 l -0.01507,-0.145655 q -0.17579,0.231039 -0.42692,0.351582 -0.251129,0.120542 -0.537417,0.120542 z m 0.190859,-0.492214 q 0.170768,0 0.321445,-0.06027 0.155701,-0.06027 0.241085,-0.160723 0.110497,-0.08538 0.110497,-0.190859 v -0.301355 q -0.120543,-0.0452 -0.261175,-0.07032 -0.140633,-0.03014 -0.27122,-0.03014 -0.261175,0 -0.42692,0.120542 -0.165746,0.11552 -0.165746,0.296333 0,0.170768 0.130588,0.286288 0.130587,0.110497 0.321446,0.110497 z"
           style="font-weight:bold;font-family:Raleway;-inkscape-font-specification:Raleway;vector-effect:none;stop-color:#000000;stop-opacity:1"
           id="path542" /><path
           d="m 72.992439,59.867001 q -0.306378,0.005 -0.547462,0.120542 -0.241085,0.110497 -0.346559,0.336514 v 1.592161 h -0.673027 v -2.631837 h 0.617778 v 0.56253 q 0.07032,-0.13561 0.165746,-0.241085 0.09543,-0.110497 0.205926,-0.190858 0.110497,-0.08036 0.220994,-0.120542 0.11552,-0.0452 0.220994,-0.0452 0.05525,0 0.08036,0 0.03014,0 0.05525,0.005 z"
           style="font-weight:bold;font-family:Raleway;-inkscape-font-specification:Raleway;vector-effect:none;stop-color:#000000;stop-opacity:1"
           id="path543" /><path
           d="M 38.185943,68.399959 V 64.83392 h 1.295828 q 0.436965,0 0.763434,0.140632 0.331491,0.140633 0.552485,0.381717 0.220993,0.241085 0.33149,0.567553 0.110497,0.321446 0.110497,0.688095 0,0.40683 -0.125564,0.73832 -0.120542,0.326469 -0.351582,0.562531 -0.231039,0.231039 -0.557507,0.361626 -0.321446,0.125565 -0.723253,0.125565 z m 2.355594,-1.788042 q 0,-0.256152 -0.07032,-0.472124 -0.07032,-0.215971 -0.205926,-0.371671 -0.13561,-0.155701 -0.336514,-0.241085 -0.195881,-0.08538 -0.44701,-0.08538 H 38.87906 v 2.350572 h 0.602711 q 0.256152,0 0.452033,-0.09041 0.200904,-0.09041 0.331491,-0.246107 0.13561,-0.160723 0.205926,-0.376694 0.07032,-0.215972 0.07032,-0.467101 z"
           style="font-weight:bold;font-family:Raleway;-inkscape-font-specification:Raleway;vector-effect:none;stop-color:#000000;stop-opacity:1"
           id="path544" /><path
           d="m 41.716821,68.399959 v -2.631837 h 0.673027 v 2.631837 z m 0,-2.998486 v -0.668005 h 0.673027 v 0.668005 z"
           style="font-weight:bold;font-family:Raleway;-inkscape-font-specification:Raleway;vector-effect:none;stop-color:#000000;stop-opacity:1"
           id="path545" /><path
           d="m 45.44358,68.399959 h -0.673027 v -1.476642 q 0,-0.316423 -0.110497,-0.462078 -0.110497,-0.145655 -0.306378,-0.145655 -0.100452,0 -0.205927,0.04018 -0.105474,0.04018 -0.200903,0.115519 -0.09041,0.07032 -0.165746,0.170768 -0.07534,0.100452 -0.110497,0.220994 v 1.536913 h -0.673027 v -2.631837 h 0.607734 v 0.487191 q 0.145655,-0.25113 0.421897,-0.391762 0.276243,-0.140633 0.622801,-0.140633 0.246107,0 0.401808,0.09041 0.1557,0.09041 0.241084,0.236062 0.08538,0.145655 0.11552,0.331491 0.03516,0.185835 0.03516,0.376694 z"
           style="font-weight:bold;font-family:Raleway;-inkscape-font-specification:Raleway;vector-effect:none;stop-color:#000000;stop-opacity:1"
           id="path546" /><path
           d="m 47.060844,68.415027 q -0.266197,0 -0.482168,-0.105475 -0.215972,-0.105474 -0.376695,-0.286287 -0.1557,-0.185836 -0.241084,-0.426921 -0.08538,-0.241084 -0.08538,-0.512304 0,-0.286287 0.09041,-0.532394 0.09041,-0.246107 0.251129,-0.431943 0.160723,-0.185836 0.38674,-0.29131 0.226016,-0.105475 0.497236,-0.105475 0.306378,0 0.537417,0.140633 0.231039,0.13561 0.381717,0.366649 v -0.462078 h 0.587643 v 2.506272 q 0,0.29131 -0.110497,0.522349 -0.110497,0.23104 -0.306378,0.391762 -0.190858,0.160723 -0.462078,0.246107 -0.266197,0.08538 -0.582621,0.08538 -0.431942,0 -0.728275,-0.145655 -0.29131,-0.140632 -0.502259,-0.401807 l 0.366649,-0.356604 q 0.150678,0.185836 0.376694,0.29131 0.231039,0.105475 0.487191,0.105475 0.155701,0 0.296333,-0.0452 0.145655,-0.04018 0.256152,-0.130588 0.110497,-0.09041 0.170768,-0.231039 0.06529,-0.140632 0.06529,-0.331491 v -0.331491 q -0.130587,0.226017 -0.366649,0.351581 -0.236062,0.120543 -0.507282,0.120543 z m 0.226017,-0.537418 q 0.110497,0 0.210949,-0.03516 0.100452,-0.03516 0.185836,-0.09543 0.08538,-0.06027 0.150677,-0.140632 0.06529,-0.08036 0.100452,-0.170768 v -0.627824 q -0.09041,-0.231039 -0.286288,-0.371672 -0.190858,-0.140632 -0.401807,-0.140632 -0.1557,0 -0.281265,0.07032 -0.125565,0.06529 -0.215971,0.180813 -0.09041,0.110497 -0.140633,0.256152 -0.0452,0.145655 -0.0452,0.301356 0,0.160722 0.05525,0.301355 0.05525,0.140633 0.150678,0.246107 0.100452,0.105474 0.231039,0.165745 0.130588,0.06027 0.286288,0.06027 z"
           style="font-weight:bold;font-family:Raleway;-inkscape-font-specification:Raleway;vector-effect:none;stop-color:#000000;stop-opacity:1"
           id="path547" /><path
           d="m 50.436018,68.450185 q -0.316423,0 -0.572575,-0.105475 -0.256152,-0.110497 -0.436965,-0.296332 -0.180813,-0.185836 -0.281265,-0.431943 -0.09543,-0.246107 -0.09543,-0.517327 0,-0.281265 0.09543,-0.527372 0.09543,-0.251129 0.276242,-0.436965 0.180814,-0.190859 0.436966,-0.301356 0.261174,-0.110497 0.58262,-0.110497 0.321446,0 0.572575,0.110497 0.256152,0.110497 0.431943,0.296333 0.180813,0.185836 0.27122,0.431943 0.09543,0.246107 0.09543,0.512304 0,0.06529 -0.005,0.125565 0,0.06027 -0.01005,0.100452 H 49.76301 q 0.01507,0.1557 0.07534,0.276242 0.06027,0.120542 0.155701,0.205926 0.09543,0.08538 0.215971,0.130588 0.120542,0.0452 0.251129,0.0452 0.200904,0 0.376695,-0.09543 0.180813,-0.100452 0.246107,-0.261175 l 0.577597,0.160723 q -0.145655,0.301355 -0.4671,0.497236 -0.316424,0.190859 -0.758412,0.190859 z m 0.683073,-1.587139 q -0.02511,-0.296333 -0.220994,-0.472123 -0.190859,-0.180813 -0.467101,-0.180813 -0.13561,0 -0.256152,0.05022 -0.11552,0.0452 -0.205926,0.130588 -0.09041,0.08538 -0.150678,0.205926 -0.05525,0.120542 -0.06529,0.266197 z"
           style="font-weight:bold;font-family:Raleway;-inkscape-font-specification:Raleway;vector-effect:none;stop-color:#000000;stop-opacity:1"
           id="path548" /><path
           d="m 54.649966,68.450185 q -0.316423,0 -0.572575,-0.105475 -0.256153,-0.110497 -0.436966,-0.296332 -0.180813,-0.185836 -0.281265,-0.431943 -0.09543,-0.246107 -0.09543,-0.517327 0,-0.281265 0.09543,-0.527372 0.09543,-0.251129 0.276243,-0.436965 0.180813,-0.190859 0.436965,-0.301356 0.261175,-0.110497 0.58262,-0.110497 0.321446,0 0.572576,0.110497 0.256152,0.110497 0.431942,0.296333 0.180814,0.185836 0.27122,0.431943 0.09543,0.246107 0.09543,0.512304 0,0.06529 -0.005,0.125565 0,0.06027 -0.01004,0.100452 h -2.034149 q 0.01507,0.1557 0.07534,0.276242 0.06027,0.120542 0.1557,0.205926 0.09543,0.08538 0.215971,0.130588 0.120542,0.0452 0.25113,0.0452 0.200903,0 0.376694,-0.09543 0.180813,-0.100452 0.246107,-0.261175 l 0.577598,0.160723 q -0.145655,0.301355 -0.467101,0.497236 -0.316423,0.190859 -0.758411,0.190859 z m 0.683072,-1.587139 q -0.02511,-0.296333 -0.220994,-0.472123 -0.190858,-0.180813 -0.467101,-0.180813 -0.13561,0 -0.256152,0.05022 -0.115519,0.0452 -0.205926,0.130588 -0.09041,0.08538 -0.150678,0.205926 -0.05525,0.120542 -0.06529,0.266197 z"
           style="font-weight:bold;font-family:Raleway;-inkscape-font-specification:Raleway;vector-effect:none;stop-color:#000000;stop-opacity:1"
           id="path549" /><path
           d="m 56.438002,68.399959 v -2.631837 h 0.673027 v 2.631837 z m 0,-2.998486 v -0.668005 h 0.673027 v 0.668005 z"
           style="font-weight:bold;font-family:Raleway;-inkscape-font-specification:Raleway;vector-effect:none;stop-color:#000000;stop-opacity:1"
           id="path550" /><path
           d="m 60.164762,68.399959 h -0.673028 v -1.476642 q 0,-0.316423 -0.110497,-0.462078 -0.110497,-0.145655 -0.306378,-0.145655 -0.100451,0 -0.205926,0.04018 -0.105474,0.04018 -0.200903,0.115519 -0.09041,0.07032 -0.165746,0.170768 -0.07534,0.100452 -0.110497,0.220994 v 1.536913 H 57.71876 v -2.631837 h 0.607734 v 0.487191 q 0.145655,-0.25113 0.421897,-0.391762 0.276243,-0.140633 0.622801,-0.140633 0.246107,0 0.401808,0.09041 0.1557,0.09041 0.241084,0.236062 0.08538,0.145655 0.115519,0.331491 0.03516,0.185835 0.03516,0.376694 z"
           style="font-weight:bold;font-family:Raleway;-inkscape-font-specification:Raleway;vector-effect:none;stop-color:#000000;stop-opacity:1"
           id="path551" /><path
           d="m 62.319442,66.350742 q -0.306378,0.005 -0.547462,0.120542 -0.241084,0.110497 -0.346559,0.336514 v 1.592161 h -0.673027 v -2.631837 h 0.617779 v 0.56253 q 0.07032,-0.13561 0.165745,-0.241085 0.09543,-0.110497 0.205927,-0.190858 0.110497,-0.08036 0.220994,-0.120542 0.115519,-0.0452 0.220994,-0.0452 0.05525,0 0.08036,0 0.03013,0 0.05525,0.005 z"
           style="font-weight:bold;font-family:Raleway;-inkscape-font-specification:Raleway;vector-effect:none;stop-color:#000000;stop-opacity:1"
           id="path552" /><path
           d="m 62.696133,68.399959 v -2.631837 h 0.673027 v 2.631837 z m 0,-2.998486 v -0.668005 h 0.673027 v 0.668005 z"
           style="font-weight:bold;font-family:Raleway;-inkscape-font-specification:Raleway;vector-effect:none;stop-color:#000000;stop-opacity:1"
           id="path553" /><path
           d="m 63.811144,67.08404 q 0,-0.276242 0.09543,-0.522349 0.09543,-0.246107 0.276242,-0.431943 0.180814,-0.185836 0.436966,-0.296333 0.256152,-0.110497 0.577598,-0.110497 0.431942,0 0.733298,0.185836 0.306378,0.185836 0.457056,0.487191 l -0.65796,0.200904 q -0.08538,-0.145655 -0.226016,-0.220994 -0.140633,-0.08036 -0.311401,-0.08036 -0.145655,0 -0.27122,0.06027 -0.125565,0.05525 -0.220994,0.160723 -0.09041,0.100451 -0.145655,0.246106 -0.05023,0.145656 -0.05023,0.321446 0,0.175791 0.05525,0.321446 0.05525,0.145655 0.145655,0.251129 0.09543,0.105475 0.220994,0.165746 0.125565,0.05525 0.266197,0.05525 0.180813,0 0.331491,-0.09041 0.1557,-0.09041 0.215971,-0.220994 l 0.65796,0.200903 q -0.13561,0.301356 -0.447011,0.492214 -0.3114,0.190859 -0.748366,0.190859 -0.321446,0 -0.577598,-0.110497 -0.256152,-0.110497 -0.436965,-0.296333 -0.180813,-0.190858 -0.281265,-0.436965 -0.09543,-0.25113 -0.09543,-0.52235 z"
           style="font-weight:bold;font-family:Raleway;-inkscape-font-specification:Raleway;vector-effect:none;stop-color:#000000;stop-opacity:1"
           id="path554" /><path
           d="m 69.255628,68.399959 h -0.673027 v -1.476642 q 0,-0.3114 -0.11552,-0.457055 -0.11552,-0.150678 -0.326468,-0.150678 -0.09041,0 -0.190859,0.04018 -0.100452,0.04018 -0.190858,0.115519 -0.09041,0.07032 -0.165746,0.170768 -0.07534,0.100452 -0.110497,0.220994 v 1.536913 h -0.673027 v -3.666491 h 0.673027 v 1.521845 q 0.145655,-0.256152 0.391762,-0.391762 0.25113,-0.140633 0.552485,-0.140633 0.256152,0 0.416875,0.09041 0.160723,0.08538 0.25113,0.231039 0.09041,0.145655 0.125564,0.331491 0.03516,0.185836 0.03516,0.381717 z"
           style="font-weight:bold;font-family:Raleway;-inkscape-font-specification:Raleway;vector-effect:none;stop-color:#000000;stop-opacity:1"
           id="path555" /><path
           d="m 71.395238,68.264349 q -0.13561,0.06027 -0.331491,0.120542 -0.195881,0.06027 -0.411853,0.06027 -0.140632,0 -0.266197,-0.03516 -0.120542,-0.03516 -0.215971,-0.110497 -0.09041,-0.08036 -0.145655,-0.200904 -0.05525,-0.125564 -0.05525,-0.301355 v -1.5118 h -0.346559 v -0.517326 h 0.346559 v -0.853841 h 0.673027 v 0.853841 h 0.552485 v 0.517326 h -0.552485 v 1.285783 q 0,0.140633 0.07032,0.200904 0.07534,0.05525 0.180814,0.05525 0.105474,0 0.205926,-0.03516 0.100452,-0.03516 0.160723,-0.06027 z"
           style="font-weight:bold;font-family:Raleway;-inkscape-font-specification:Raleway;vector-effect:none;stop-color:#000000;stop-opacity:1"
           id="path556" /><path
           d="m 72.902007,68.450185 q -0.316424,0 -0.572576,-0.105475 -0.256152,-0.110497 -0.436965,-0.296332 -0.180813,-0.185836 -0.281265,-0.431943 -0.09543,-0.246107 -0.09543,-0.517327 0,-0.281265 0.09543,-0.527372 0.09543,-0.251129 0.276242,-0.436965 0.180814,-0.190859 0.436966,-0.301356 0.261174,-0.110497 0.58262,-0.110497 0.321446,0 0.572576,0.110497 0.256152,0.110497 0.431942,0.296333 0.180814,0.185836 0.27122,0.431943 0.09543,0.246107 0.09543,0.512304 0,0.06529 -0.005,0.125565 0,0.06027 -0.01004,0.100452 H 72.22898 q 0.01507,0.1557 0.07534,0.276242 0.06027,0.120542 0.155701,0.205926 0.09543,0.08538 0.215971,0.130588 0.120542,0.0452 0.25113,0.0452 0.200903,0 0.376694,-0.09543 0.180813,-0.100452 0.246107,-0.261175 l 0.577598,0.160723 q -0.145655,0.301355 -0.467101,0.497236 -0.316423,0.190859 -0.758411,0.190859 z m 0.683072,-1.587139 q -0.02511,-0.296333 -0.220994,-0.472123 -0.190858,-0.180813 -0.467101,-0.180813 -0.13561,0 -0.256152,0.05022 -0.11552,0.0452 -0.205926,0.130588 -0.09041,0.08538 -0.150678,0.205926 -0.05525,0.120542 -0.06529,0.266197 z"
           style="font-weight:bold;font-family:Raleway;-inkscape-font-specification:Raleway;vector-effect:none;stop-color:#000000;stop-opacity:1"
           id="path557" /><path
           d="m 77.136044,68.399959 h -0.673027 v -1.476642 q 0,-0.316423 -0.110497,-0.462078 -0.110497,-0.145655 -0.306378,-0.145655 -0.100451,0 -0.205926,0.04018 -0.105474,0.04018 -0.200903,0.115519 -0.09041,0.07032 -0.165746,0.170768 -0.07534,0.100452 -0.110497,0.220994 v 1.536913 h -0.673027 v -2.631837 h 0.607733 v 0.487191 q 0.145656,-0.25113 0.421898,-0.391762 0.276243,-0.140633 0.622801,-0.140633 0.246107,0 0.401807,0.09041 0.155701,0.09041 0.241085,0.236062 0.08538,0.145655 0.115519,0.331491 0.03516,0.185835 0.03516,0.376694 z"
           style="font-weight:bold;font-family:Raleway;-inkscape-font-specification:Raleway;vector-effect:none;stop-color:#000000;stop-opacity:1"
           id="path558" /><path
           d="m 77.708609,68.399959 v -0.723253 h 0.552485 v 0.723253 z m 0.944247,0 v -0.723253 h 0.552485 v 0.723253 z m 0.944247,0 v -0.723253 h 0.552485 v 0.723253 z"
           style="font-weight:bold;font-family:Raleway;-inkscape-font-specification:Raleway;vector-effect:none;stop-color:#000000;stop-opacity:1"
           id="path559" /></g></g></g></svg>
