<?xml version="1.0" encoding="UTF-8" standalone="no"?>
<svg
   width="700.00037"
   height="220"
   viewBox="0 0 185.20843 58.208335"
   version="1.1"
   id="svg243962"
   xml:space="preserve"
   xmlns="http://www.w3.org/2000/svg"
   xmlns:svg="http://www.w3.org/2000/svg"><defs
     id="defs243959" /><g
     id="layer2"
     style="font-variation-settings:normal;opacity:1;vector-effect:none;fill:#cbe1fb;fill-opacity:1;stroke-width:0.125564;stroke-linecap:butt;stroke-linejoin:miter;stroke-miterlimit:4;stroke-dasharray:none;stroke-dashoffset:0;stroke-opacity:1;-inkscape-stroke:none;stop-color:#000000;stop-opacity:1"><g
       id="layer3"
       style="font-variation-settings:normal;display:inline;vector-effect:none;fill:#cbe1fb;fill-opacity:1;stroke-width:0.125564;stroke-linecap:butt;stroke-linejoin:miter;stroke-miterlimit:4;stroke-dasharray:none;stroke-dashoffset:0;stroke-opacity:1;-inkscape-stroke:none;stop-color:#000000;stop-opacity:1"
       transform="translate(-13.234204,-29.619188)"><g
         aria-label="Welcome!"
         id="text118971"
         style="font-size:15.457px;line-height:1.25;font-family:'Roboto Condensed';-inkscape-font-specification:'Roboto Condensed, ';vector-effect:none;stroke-width:0.125564;stop-color:#000000;stop-opacity:1"><path
           d="m 25.365714,38.597506 h 1.963039 l 1.23656,3.632395 1.23656,-3.632395 h 1.978496 l -1.870297,4.99261 1.39113,3.508739 3.106857,-8.532263 h 2.31855 l -4.467073,10.974469 h -1.793012 l -1.901211,-4.606186 -1.901211,4.606186 H 24.87109 L 20.434931,38.566592 h 2.287636 l 3.122314,8.532263 1.360216,-3.508739 z"
           style="font-weight:bold;font-family:Raleway;-inkscape-font-specification:Raleway;vector-effect:none;stop-color:#000000;stop-opacity:1"
           id="path637" /><path
           d="m 40.420807,49.695631 q -0.973791,0 -1.762098,-0.324597 -0.788307,-0.340054 -1.344759,-0.911963 -0.556452,-0.571909 -0.865592,-1.329302 -0.293683,-0.757393 -0.293683,-1.592071 0,-0.865592 0.293683,-1.622985 0.293683,-0.77285 0.850135,-1.344758 0.556452,-0.587366 1.344759,-0.92742 0.803764,-0.340054 1.793012,-0.340054 0.989248,0 1.762098,0.340054 0.788307,0.340054 1.329302,0.911963 0.556452,0.571908 0.834678,1.329301 0.293683,0.757393 0.293683,1.576614 0,0.200941 -0.01546,0.386425 0,0.185484 -0.03091,0.30914 H 38.34957 q 0.04637,0.479167 0.231855,0.850135 0.185484,0.370968 0.479167,0.633737 0.293683,0.262769 0.664651,0.401882 0.370968,0.139113 0.77285,0.139113 0.61828,0 1.159275,-0.293683 0.556452,-0.30914 0.757393,-0.803764 l 1.777555,0.494624 q -0.448253,0.92742 -1.437501,1.530243 -0.973791,0.587366 -2.334008,0.587366 z m 2.102152,-4.884412 q -0.07729,-0.911963 -0.680108,-1.452958 -0.587366,-0.556452 -1.437501,-0.556452 -0.417339,0 -0.788307,0.15457 -0.355511,0.139113 -0.633737,0.401882 -0.278226,0.262769 -0.46371,0.633737 -0.170027,0.370968 -0.200941,0.819221 z"
           style="font-weight:bold;font-family:Raleway;-inkscape-font-specification:Raleway;vector-effect:none;stop-color:#000000;stop-opacity:1"
           id="path638" /><path
           d="m 45.908028,38.257452 h 2.071238 v 8.686833 q 0,0.448253 0.216398,0.695565 0.216398,0.247312 0.61828,0.247312 0.185484,0 0.401882,-0.06183 0.231855,-0.06183 0.432796,-0.15457 l 0.278226,1.576614 q -0.417339,0.200941 -0.973791,0.30914 -0.556452,0.108199 -1.004705,0.108199 -0.973791,0 -1.514786,-0.510081 -0.525538,-0.525538 -0.525538,-1.483872 z"
           style="font-weight:bold;font-family:Raleway;-inkscape-font-specification:Raleway;vector-effect:none;stop-color:#000000;stop-opacity:1"
           id="path639" /><path
           d="m 50.313264,45.491327 q 0,-0.850135 0.293683,-1.607528 0.293683,-0.757393 0.850135,-1.329301 0.556452,-0.571909 1.344759,-0.911963 0.788307,-0.340054 1.777555,-0.340054 1.329302,0 2.256722,0.571909 0.942877,0.571909 1.406587,1.499328 l -2.024867,0.61828 q -0.262769,-0.448253 -0.695565,-0.680108 -0.432796,-0.247312 -0.958334,-0.247312 -0.448253,0 -0.834678,0.185484 -0.386425,0.170027 -0.680108,0.494624 -0.278226,0.30914 -0.448253,0.757393 -0.15457,0.448253 -0.15457,0.989248 0,0.540995 0.170027,0.989248 0.170027,0.448253 0.448253,0.77285 0.293683,0.324597 0.680108,0.510081 0.386425,0.170027 0.819221,0.170027 0.556452,0 1.020162,-0.278226 0.479167,-0.278226 0.664651,-0.680108 l 2.024867,0.61828 q -0.417339,0.92742 -1.375673,1.514786 -0.958334,0.587366 -2.303093,0.587366 -0.989248,0 -1.777555,-0.340054 -0.788307,-0.340054 -1.344759,-0.911963 -0.556452,-0.587366 -0.865592,-1.344759 -0.293683,-0.77285 -0.293683,-1.607528 z"
           style="font-weight:bold;font-family:Raleway;-inkscape-font-specification:Raleway;vector-effect:none;stop-color:#000000;stop-opacity:1"
           id="path640" /><path
           d="m 63.20437,49.695631 q -0.989248,0 -1.777555,-0.340054 -0.788307,-0.340054 -1.344759,-0.911963 -0.540995,-0.587366 -0.834678,-1.344759 -0.293683,-0.757393 -0.293683,-1.592071 0,-0.850135 0.293683,-1.607528 0.293683,-0.757393 0.834678,-1.329301 0.556452,-0.587366 1.344759,-0.92742 0.788307,-0.340054 1.777555,-0.340054 0.989248,0 1.762098,0.340054 0.788307,0.340054 1.329302,0.92742 0.556452,0.571908 0.850135,1.329301 0.293683,0.757393 0.293683,1.607528 0,0.834678 -0.293683,1.592071 -0.293683,0.757393 -0.834678,1.344759 -0.540995,0.571909 -1.329302,0.911963 -0.788307,0.340054 -1.777555,0.340054 z m -2.117609,-4.188847 q 0,0.540995 0.15457,0.989248 0.170027,0.432796 0.448253,0.757393 0.293683,0.324597 0.680108,0.510081 0.386425,0.170027 0.834678,0.170027 0.448253,0 0.834678,-0.170027 0.386425,-0.185484 0.664651,-0.510081 0.293683,-0.324597 0.448253,-0.77285 0.170027,-0.448253 0.170027,-0.989248 0,-0.525538 -0.170027,-0.973791 -0.15457,-0.448253 -0.448253,-0.77285 -0.278226,-0.324597 -0.664651,-0.494624 -0.386425,-0.185484 -0.834678,-0.185484 -0.448253,0 -0.834678,0.185484 -0.386425,0.185484 -0.680108,0.510081 -0.278226,0.324597 -0.448253,0.77285 -0.15457,0.448253 -0.15457,0.973791 z"
           style="font-weight:bold;font-family:Raleway;-inkscape-font-specification:Raleway;vector-effect:none;stop-color:#000000;stop-opacity:1"
           id="path641" /><path
           d="m 81.412702,49.541061 h -2.071238 v -4.544358 q 0,-0.973791 -0.340054,-1.422044 -0.324597,-0.448253 -0.911963,-0.448253 -0.61828,0 -1.159275,0.479167 -0.540995,0.46371 -0.77285,1.221103 v 4.714385 h -2.071238 v -4.544358 q 0,-0.973791 -0.340054,-1.422044 -0.324597,-0.448253 -0.911963,-0.448253 -0.602823,0 -1.159275,0.46371 -0.540995,0.46371 -0.77285,1.221103 v 4.729842 h -2.071238 v -8.099467 h 1.870297 v 1.499328 q 0.448253,-0.788306 1.221103,-1.205645 0.788307,-0.432796 1.793012,-0.432796 1.020162,0 1.576614,0.494624 0.556452,0.494624 0.711022,1.221102 0.494624,-0.834677 1.252017,-1.267473 0.757393,-0.448253 1.731184,-0.448253 0.741936,0 1.221103,0.278226 0.479167,0.278226 0.741936,0.726479 0.262769,0.448252 0.355511,1.020161 0.108199,0.571909 0.108199,1.159275 z"
           style="font-weight:bold;font-family:Raleway;-inkscape-font-specification:Raleway;vector-effect:none;stop-color:#000000;stop-opacity:1"
           id="path642" /><path
           d="m 86.97722,49.695631 q -0.973791,0 -1.762098,-0.324597 -0.788307,-0.340054 -1.344759,-0.911963 -0.556452,-0.571909 -0.865592,-1.329302 -0.293683,-0.757393 -0.293683,-1.592071 0,-0.865592 0.293683,-1.622985 0.293683,-0.77285 0.850135,-1.344758 0.556452,-0.587366 1.344759,-0.92742 0.803764,-0.340054 1.793012,-0.340054 0.989248,0 1.762098,0.340054 0.788307,0.340054 1.329302,0.911963 0.556452,0.571908 0.834678,1.329301 0.293683,0.757393 0.293683,1.576614 0,0.200941 -0.01546,0.386425 0,0.185484 -0.03091,0.30914 h -6.260085 q 0.04637,0.479167 0.231855,0.850135 0.185484,0.370968 0.479167,0.633737 0.293683,0.262769 0.664651,0.401882 0.370968,0.139113 0.77285,0.139113 0.61828,0 1.159275,-0.293683 0.556452,-0.30914 0.757393,-0.803764 l 1.777555,0.494624 q -0.448253,0.92742 -1.437501,1.530243 -0.973791,0.587366 -2.334008,0.587366 z m 2.102152,-4.884412 q -0.07729,-0.911963 -0.680108,-1.452958 -0.587366,-0.556452 -1.437501,-0.556452 -0.417339,0 -0.788307,0.15457 -0.355511,0.139113 -0.633737,0.401882 -0.278226,0.262769 -0.46371,0.633737 -0.170027,0.370968 -0.200941,0.819221 z"
           style="font-weight:bold;font-family:Raleway;-inkscape-font-specification:Raleway;vector-effect:none;stop-color:#000000;stop-opacity:1"
           id="path643" /><path
           d="m 92.881779,45.414042 v -6.955649 h 2.071238 v 6.955649 z m 0,4.127019 v -2.334007 h 2.071238 v 2.334007 z"
           style="font-weight:bold;font-family:Raleway;-inkscape-font-specification:Raleway;vector-effect:none;stop-color:#000000;stop-opacity:1"
           id="path644" /></g><g
         aria-label="Let's set up a few things..."
         id="text115541"
         style="font-size:5.02259px;line-height:1.25;font-family:'Roboto Condensed';-inkscape-font-specification:'Roboto Condensed, ';vector-effect:none;stroke-width:0.125564;stop-color:#000000;stop-opacity:1"><path
           d="m 34.729437,60.836632 v -3.566039 h 0.693117 v 2.958305 h 1.818178 v 0.607734 z"
           style="font-weight:bold;font-family:Raleway;-inkscape-font-specification:Raleway;vector-effect:none;stop-color:#000000;stop-opacity:1"
           id="path614" /><path
           d="m 38.71234,60.886858 q -0.316423,0 -0.572575,-0.105475 -0.256152,-0.110497 -0.436966,-0.296333 -0.180813,-0.185835 -0.281265,-0.431942 -0.09543,-0.246107 -0.09543,-0.517327 0,-0.281265 0.09543,-0.527372 0.09543,-0.25113 0.276243,-0.436965 0.180813,-0.190859 0.436965,-0.301356 0.261175,-0.110497 0.58262,-0.110497 0.321446,0 0.572576,0.110497 0.256152,0.110497 0.431943,0.296333 0.180813,0.185836 0.271219,0.431943 0.09543,0.246107 0.09543,0.512304 0,0.06529 -0.005,0.125565 0,0.06027 -0.01004,0.100452 h -2.034149 q 0.01507,0.1557 0.07534,0.276242 0.06027,0.120542 0.1557,0.205926 0.09543,0.08538 0.215971,0.130588 0.120543,0.0452 0.25113,0.0452 0.200903,0 0.376694,-0.09543 0.180813,-0.100452 0.246107,-0.261175 l 0.577598,0.160723 q -0.145655,0.301355 -0.467101,0.497236 -0.316423,0.190859 -0.758411,0.190859 z m 0.683072,-1.587139 q -0.02511,-0.296333 -0.220994,-0.472123 -0.190858,-0.180814 -0.467101,-0.180814 -0.13561,0 -0.256152,0.05023 -0.115519,0.0452 -0.205926,0.130588 -0.09041,0.08538 -0.150678,0.205926 -0.05525,0.120542 -0.06529,0.266197 z"
           style="font-weight:bold;font-family:Raleway;-inkscape-font-specification:Raleway;vector-effect:none;stop-color:#000000;stop-opacity:1"
           id="path615" /><path
           d="m 42.057372,60.701022 q -0.13561,0.06027 -0.331491,0.120542 -0.195881,0.06027 -0.411852,0.06027 -0.140633,0 -0.266198,-0.03516 -0.120542,-0.03516 -0.215971,-0.110497 -0.09041,-0.08036 -0.145655,-0.200904 -0.05525,-0.125564 -0.05525,-0.301355 v -1.5118 h -0.346558 v -0.517326 h 0.346558 v -0.853841 h 0.673027 v 0.853841 h 0.552485 v 0.517326 h -0.552485 v 1.285783 q 0,0.140633 0.07032,0.200904 0.07534,0.05525 0.180813,0.05525 0.105474,0 0.205926,-0.03516 0.100452,-0.03516 0.160723,-0.06027 z"
           style="font-weight:bold;font-family:Raleway;-inkscape-font-specification:Raleway;vector-effect:none;stop-color:#000000;stop-opacity:1"
           id="path616" /><path
           d="m 42.408948,58.330359 v -1.12506 h 0.572575 v 1.12506 z"
           style="font-weight:bold;font-family:Raleway;-inkscape-font-specification:Raleway;vector-effect:none;stop-color:#000000;stop-opacity:1"
           id="path617" /><path
           d="m 44.528466,60.886858 q -0.331491,0 -0.647914,-0.105475 -0.316423,-0.105474 -0.54244,-0.301355 l 0.25113,-0.421898 q 0.241084,0.170768 0.467101,0.261175 0.231039,0.08538 0.457055,0.08538 0.200904,0 0.316424,-0.07534 0.115519,-0.07534 0.115519,-0.215971 0,-0.140633 -0.13561,-0.205926 -0.13561,-0.06529 -0.441988,-0.150678 -0.256152,-0.07032 -0.436965,-0.13561 -0.180813,-0.06529 -0.29131,-0.145655 -0.110497,-0.08538 -0.160723,-0.190859 -0.05023,-0.110497 -0.05023,-0.261174 0,-0.200904 0.07534,-0.361627 0.08036,-0.160723 0.220994,-0.27122 0.140632,-0.115519 0.326468,-0.17579 0.190859,-0.06027 0.411853,-0.06027 0.296332,0 0.552484,0.08538 0.261175,0.08538 0.477147,0.276242 l -0.27122,0.40683 q -0.200904,-0.150678 -0.391762,-0.220994 -0.185836,-0.07032 -0.371672,-0.07032 -0.170768,0 -0.286288,0.07032 -0.115519,0.07032 -0.115519,0.226017 0,0.07032 0.02511,0.115519 0.03013,0.0452 0.09041,0.08036 0.06027,0.03516 0.155701,0.07032 0.100451,0.03013 0.246107,0.06529 0.271219,0.07032 0.462078,0.140633 0.195881,0.07032 0.316423,0.160723 0.125565,0.09041 0.180813,0.210949 0.06027,0.115519 0.06027,0.281265 0,0.386739 -0.286287,0.612756 -0.286288,0.220994 -0.778502,0.220994 z"
           style="font-weight:bold;font-family:Raleway;-inkscape-font-specification:Raleway;vector-effect:none;stop-color:#000000;stop-opacity:1"
           id="path618" /><path
           d="m 48.230113,60.886858 q -0.331491,0 -0.647914,-0.105475 -0.316423,-0.105474 -0.54244,-0.301355 l 0.25113,-0.421898 q 0.241084,0.170768 0.467101,0.261175 0.231039,0.08538 0.457055,0.08538 0.200904,0 0.316423,-0.07534 0.11552,-0.07534 0.11552,-0.215971 0,-0.140633 -0.13561,-0.205926 -0.13561,-0.06529 -0.441988,-0.150678 -0.256152,-0.07032 -0.436965,-0.13561 -0.180813,-0.06529 -0.29131,-0.145655 -0.110497,-0.08538 -0.160723,-0.190859 -0.05023,-0.110497 -0.05023,-0.261174 0,-0.200904 0.07534,-0.361627 0.08036,-0.160723 0.220994,-0.27122 0.140632,-0.115519 0.326468,-0.17579 0.190858,-0.06027 0.411852,-0.06027 0.296333,0 0.552485,0.08538 0.261175,0.08538 0.477146,0.276242 l -0.27122,0.40683 q -0.200903,-0.150678 -0.391762,-0.220994 -0.185835,-0.07032 -0.371671,-0.07032 -0.170768,0 -0.286288,0.07032 -0.115519,0.07032 -0.115519,0.226017 0,0.07032 0.02511,0.115519 0.03014,0.0452 0.09041,0.08036 0.06027,0.03516 0.1557,0.07032 0.100452,0.03013 0.246107,0.06529 0.27122,0.07032 0.462079,0.140633 0.195881,0.07032 0.316423,0.160723 0.125565,0.09041 0.180813,0.210949 0.06027,0.115519 0.06027,0.281265 0,0.386739 -0.286288,0.612756 -0.286287,0.220994 -0.778501,0.220994 z"
           style="font-weight:bold;font-family:Raleway;-inkscape-font-specification:Raleway;vector-effect:none;stop-color:#000000;stop-opacity:1"
           id="path619" /><path
           d="m 50.952355,60.886858 q -0.316423,0 -0.572575,-0.105475 -0.256152,-0.110497 -0.436966,-0.296333 -0.180813,-0.185835 -0.281265,-0.431942 -0.09543,-0.246107 -0.09543,-0.517327 0,-0.281265 0.09543,-0.527372 0.09543,-0.25113 0.276243,-0.436965 0.180813,-0.190859 0.436965,-0.301356 0.261175,-0.110497 0.582621,-0.110497 0.321445,0 0.572575,0.110497 0.256152,0.110497 0.431943,0.296333 0.180813,0.185836 0.271219,0.431943 0.09543,0.246107 0.09543,0.512304 0,0.06529 -0.005,0.125565 0,0.06027 -0.01004,0.100452 h -2.034149 q 0.01507,0.1557 0.07534,0.276242 0.06027,0.120542 0.1557,0.205926 0.09543,0.08538 0.215971,0.130588 0.120543,0.0452 0.25113,0.0452 0.200903,0 0.376694,-0.09543 0.180813,-0.100452 0.246107,-0.261175 l 0.577598,0.160723 q -0.145655,0.301355 -0.467101,0.497236 -0.316423,0.190859 -0.758411,0.190859 z m 0.683072,-1.587139 q -0.02511,-0.296333 -0.220994,-0.472123 -0.190858,-0.180814 -0.467101,-0.180814 -0.13561,0 -0.256152,0.05023 -0.115519,0.0452 -0.205926,0.130588 -0.09041,0.08538 -0.150678,0.205926 -0.05525,0.120542 -0.06529,0.266197 z"
           style="font-weight:bold;font-family:Raleway;-inkscape-font-specification:Raleway;vector-effect:none;stop-color:#000000;stop-opacity:1"
           id="path620" /><path
           d="m 54.297387,60.701022 q -0.13561,0.06027 -0.331491,0.120542 -0.195881,0.06027 -0.411852,0.06027 -0.140633,0 -0.266198,-0.03516 -0.120542,-0.03516 -0.215971,-0.110497 -0.09041,-0.08036 -0.145655,-0.200904 -0.05525,-0.125564 -0.05525,-0.301355 v -1.5118 h -0.346558 v -0.517326 h 0.346558 v -0.853841 h 0.673027 v 0.853841 h 0.552485 v 0.517326 h -0.552485 v 1.285783 q 0,0.140633 0.07032,0.200904 0.07534,0.05525 0.180813,0.05525 0.105474,0 0.205926,-0.03516 0.100452,-0.03516 0.160723,-0.06027 z"
           style="font-weight:bold;font-family:Raleway;-inkscape-font-specification:Raleway;vector-effect:none;stop-color:#000000;stop-opacity:1"
           id="path621" /><path
           d="m 56.657998,60.886858 q -0.406829,0 -0.617778,-0.261175 -0.210949,-0.261175 -0.210949,-0.773479 v -1.647409 h 0.673027 v 1.501754 q 0,0.607733 0.436966,0.607733 0.195881,0 0.376694,-0.115519 0.185836,-0.120542 0.301355,-0.361627 v -1.632341 h 0.673027 v 1.858358 q 0,0.105474 0.03516,0.150678 0.04018,0.0452 0.125565,0.05022 v 0.572576 q -0.100452,0.02009 -0.170768,0.02511 -0.06529,0.005 -0.120542,0.005 -0.180813,0 -0.296333,-0.08036 -0.110497,-0.08538 -0.130587,-0.231039 l -0.01507,-0.210949 q -0.175791,0.27122 -0.452033,0.40683 -0.276243,0.13561 -0.607734,0.13561 z"
           style="font-weight:bold;font-family:Raleway;-inkscape-font-specification:Raleway;vector-effect:none;stop-color:#000000;stop-opacity:1"
           id="path622" /><path
           d="m 60.535428,60.886858 q -0.311401,0 -0.54244,-0.13561 -0.231039,-0.140633 -0.361626,-0.376695 v 1.53189 h -0.673027 v -3.701648 h 0.587643 v 0.452033 q 0.145655,-0.23104 0.376694,-0.361627 0.231039,-0.13561 0.532394,-0.13561 0.266198,0 0.492214,0.110497 0.226017,0.105475 0.38674,0.29131 0.165745,0.180814 0.256152,0.431943 0.09543,0.246107 0.09543,0.52235 0,0.286287 -0.08538,0.537417 -0.08538,0.251129 -0.241084,0.436965 -0.150678,0.185836 -0.361627,0.29131 -0.210949,0.105475 -0.462078,0.105475 z m -0.226017,-0.572576 q 0.150678,0 0.276243,-0.06529 0.130587,-0.06529 0.220994,-0.175791 0.09041,-0.110497 0.140632,-0.256152 0.05023,-0.145655 0.05023,-0.301355 0,-0.165746 -0.05525,-0.306378 -0.05525,-0.145656 -0.155701,-0.25113 -0.09543,-0.105474 -0.231039,-0.165745 -0.130587,-0.06027 -0.286287,-0.06027 -0.09543,0 -0.195881,0.03516 -0.100452,0.03014 -0.185836,0.09041 -0.08538,0.06027 -0.155701,0.140633 -0.06529,0.08036 -0.100451,0.17579 v 0.617779 q 0.09041,0.226017 0.276242,0.376694 0.185836,0.145655 0.401807,0.145655 z"
           style="font-weight:bold;font-family:Raleway;-inkscape-font-specification:Raleway;vector-effect:none;stop-color:#000000;stop-opacity:1"
           id="path623" /><path
           d="m 64.066301,60.886858 q -0.190858,0 -0.356604,-0.06027 -0.165745,-0.06529 -0.286287,-0.175791 -0.120543,-0.11552 -0.190859,-0.266197 -0.06529,-0.150678 -0.06529,-0.331491 0,-0.185836 0.08036,-0.341536 0.08538,-0.160723 0.231039,-0.27122 0.150678,-0.110497 0.356604,-0.170768 0.205926,-0.06529 0.452033,-0.06529 0.175791,0 0.341536,0.03014 0.170768,0.03014 0.301356,0.08538 v -0.150678 q 0,-0.261175 -0.150678,-0.401807 -0.145655,-0.140633 -0.436965,-0.140633 -0.210949,0 -0.411853,0.07534 -0.200903,0.07534 -0.411852,0.220994 l -0.205926,-0.42692 q 0.507281,-0.336514 1.094924,-0.336514 0.567553,0 0.878954,0.281265 0.316423,0.276243 0.316423,0.803615 v 0.818682 q 0,0.105474 0.03516,0.150678 0.04018,0.0452 0.125565,0.05022 v 0.572576 q -0.170768,0.03516 -0.296333,0.03516 -0.190859,0 -0.296333,-0.08538 -0.100452,-0.08538 -0.125565,-0.226017 l -0.01507,-0.145655 q -0.17579,0.231039 -0.42692,0.351582 -0.251129,0.120542 -0.537417,0.120542 z m 0.190859,-0.492214 q 0.170768,0 0.321445,-0.06027 0.155701,-0.06027 0.241085,-0.160723 0.110497,-0.08538 0.110497,-0.190859 v -0.301355 q -0.120543,-0.0452 -0.261175,-0.07032 -0.140633,-0.03014 -0.27122,-0.03014 -0.261175,0 -0.42692,0.120542 -0.165746,0.11552 -0.165746,0.296333 0,0.170768 0.130588,0.286288 0.130587,0.110497 0.321446,0.110497 z"
           style="font-weight:bold;font-family:Raleway;-inkscape-font-specification:Raleway;vector-effect:none;stop-color:#000000;stop-opacity:1"
           id="path624" /><path
           d="M 67.597178,60.836632 V 58.857731 H 67.25062 v -0.512304 h 0.346558 v -0.160723 q 0,-0.492214 0.236062,-0.778501 0.236062,-0.286288 0.642892,-0.286288 0.321445,0 0.647914,0.1557 l -0.13561,0.507282 q -0.07534,-0.04018 -0.180814,-0.06529 -0.100451,-0.03013 -0.185835,-0.03013 -0.351582,0 -0.351582,0.472123 v 0.185836 h 0.642892 v 0.512304 h -0.642892 v 1.978901 z"
           style="font-weight:bold;font-family:Raleway;-inkscape-font-specification:Raleway;vector-effect:none;stop-color:#000000;stop-opacity:1"
           id="path625" /><path
           d="m 70.384705,60.886858 q -0.316423,0 -0.572575,-0.105475 -0.256152,-0.110497 -0.436966,-0.296333 -0.180813,-0.185835 -0.281265,-0.431942 -0.09543,-0.246107 -0.09543,-0.517327 0,-0.281265 0.09543,-0.527372 0.09543,-0.25113 0.276243,-0.436965 0.180813,-0.190859 0.436965,-0.301356 0.261175,-0.110497 0.582621,-0.110497 0.321445,0 0.572575,0.110497 0.256152,0.110497 0.431943,0.296333 0.180813,0.185836 0.27122,0.431943 0.09543,0.246107 0.09543,0.512304 0,0.06529 -0.005,0.125565 0,0.06027 -0.01004,0.100452 h -2.034149 q 0.01507,0.1557 0.07534,0.276242 0.06027,0.120542 0.1557,0.205926 0.09543,0.08538 0.215972,0.130588 0.120542,0.0452 0.251129,0.0452 0.200904,0 0.376694,-0.09543 0.180814,-0.100452 0.246107,-0.261175 l 0.577598,0.160723 q -0.145655,0.301355 -0.467101,0.497236 -0.316423,0.190859 -0.758411,0.190859 z m 0.683072,-1.587139 q -0.02511,-0.296333 -0.220994,-0.472123 -0.190858,-0.180814 -0.467101,-0.180814 -0.135609,0 -0.256152,0.05023 -0.115519,0.0452 -0.205926,0.130588 -0.09041,0.08538 -0.150678,0.205926 -0.05525,0.120542 -0.06529,0.266197 z"
           style="font-weight:bold;font-family:Raleway;-inkscape-font-specification:Raleway;vector-effect:none;stop-color:#000000;stop-opacity:1"
           id="path626" /><path
           d="m 75.367101,58.204795 h 0.637869 l -1.099947,2.631837 h -0.552485 l -0.452033,-1.155196 -0.447011,1.155196 h -0.552485 l -1.094924,-2.631837 h 0.632846 l 0.783524,1.99899 0.321446,-0.85384 -0.462078,-1.140128 h 0.542439 l 0.276243,0.808637 0.281265,-0.808637 h 0.54244 l -0.457056,1.140128 0.316423,0.85384 z"
           style="font-weight:bold;font-family:Raleway;-inkscape-font-specification:Raleway;vector-effect:none;stop-color:#000000;stop-opacity:1"
           id="path627" /><path
           d="m 78.963267,60.701022 q -0.13561,0.06027 -0.331491,0.120542 -0.195881,0.06027 -0.411852,0.06027 -0.140633,0 -0.266197,-0.03516 -0.120543,-0.03516 -0.215972,-0.110497 -0.09041,-0.08036 -0.145655,-0.200904 -0.05525,-0.125564 -0.05525,-0.301355 v -1.5118 h -0.346559 v -0.517326 h 0.346559 v -0.853841 h 0.673027 v 0.853841 h 0.552485 v 0.517326 h -0.552485 v 1.285783 q 0,0.140633 0.07032,0.200904 0.07534,0.05525 0.180813,0.05525 0.105475,0 0.205926,-0.03516 0.100452,-0.03516 0.160723,-0.06027 z"
           style="font-weight:bold;font-family:Raleway;-inkscape-font-specification:Raleway;vector-effect:none;stop-color:#000000;stop-opacity:1"
           id="path628" /><path
           d="M 81.760844,60.836632 H 81.087817 V 59.35999 q 0,-0.3114 -0.115519,-0.457055 -0.11552,-0.150678 -0.326469,-0.150678 -0.09041,0 -0.190858,0.04018 -0.100452,0.04018 -0.190859,0.115519 -0.09041,0.07032 -0.165745,0.170768 -0.07534,0.100452 -0.110497,0.220994 v 1.536913 H 79.314843 V 57.17014 h 0.673027 v 1.521845 q 0.145655,-0.256152 0.391762,-0.391762 0.251129,-0.140633 0.552485,-0.140633 0.256152,0 0.416875,0.09041 0.160723,0.08538 0.251129,0.231039 0.09041,0.145655 0.125565,0.331491 0.03516,0.185836 0.03516,0.381717 z"
           style="font-weight:bold;font-family:Raleway;-inkscape-font-specification:Raleway;vector-effect:none;stop-color:#000000;stop-opacity:1"
           id="path629" /><path
           d="m 82.348477,60.836632 v -2.631837 h 0.673027 v 2.631837 z m 0,-2.998487 v -0.668004 h 0.673027 v 0.668004 z"
           style="font-weight:bold;font-family:Raleway;-inkscape-font-specification:Raleway;vector-effect:none;stop-color:#000000;stop-opacity:1"
           id="path630" /><path
           d="M 86.075236,60.836632 H 85.402209 V 59.35999 q 0,-0.316423 -0.110497,-0.462078 -0.110497,-0.145655 -0.306378,-0.145655 -0.100452,0 -0.205926,0.04018 -0.105474,0.04018 -0.200904,0.115519 -0.09041,0.07032 -0.165745,0.170768 -0.07534,0.100452 -0.110497,0.220994 v 1.536913 h -0.673027 v -2.631837 h 0.607733 v 0.487191 q 0.145655,-0.25113 0.421898,-0.391762 0.276242,-0.140633 0.622801,-0.140633 0.246107,0 0.401807,0.09041 0.155701,0.09041 0.241085,0.236062 0.08538,0.145655 0.115519,0.331491 0.03516,0.185835 0.03516,0.376694 z"
           style="font-weight:bold;font-family:Raleway;-inkscape-font-specification:Raleway;vector-effect:none;stop-color:#000000;stop-opacity:1"
           id="path631" /><path
           d="m 87.6925,60.8517 q -0.266197,0 -0.482169,-0.105475 -0.215971,-0.105474 -0.376694,-0.286287 -0.1557,-0.185836 -0.241084,-0.426921 -0.08538,-0.241084 -0.08538,-0.512304 0,-0.286287 0.09041,-0.532394 0.09041,-0.246107 0.25113,-0.431943 0.160723,-0.185836 0.386739,-0.29131 0.226017,-0.105475 0.497237,-0.105475 0.306378,0 0.537417,0.140633 0.231039,0.13561 0.381717,0.366649 v -0.462078 h 0.587643 v 2.506272 q 0,0.29131 -0.110497,0.522349 -0.110497,0.23104 -0.306378,0.391762 -0.190859,0.160723 -0.462078,0.246107 -0.266198,0.08538 -0.582621,0.08538 -0.431943,0 -0.728275,-0.145655 -0.291311,-0.140632 -0.502259,-0.401807 l 0.366649,-0.356604 q 0.150677,0.185836 0.376694,0.29131 0.231039,0.105475 0.487191,0.105475 0.1557,0 0.296333,-0.0452 0.145655,-0.04018 0.256152,-0.130587 0.110497,-0.09041 0.170768,-0.231039 0.06529,-0.140633 0.06529,-0.331491 V 60.379576 Q 88.435843,60.605593 88.199782,60.731157 87.96372,60.8517 87.6925,60.8517 Z m 0.226017,-0.537418 q 0.110497,0 0.210948,-0.03516 0.100452,-0.03516 0.185836,-0.09543 0.08538,-0.06027 0.150678,-0.140632 0.06529,-0.08036 0.100452,-0.170769 v -0.627823 q -0.09041,-0.231039 -0.286288,-0.371672 -0.190858,-0.140633 -0.401807,-0.140633 -0.1557,0 -0.281265,0.07032 -0.125565,0.06529 -0.215972,0.180813 -0.09041,0.110497 -0.140632,0.256152 -0.0452,0.145655 -0.0452,0.301356 0,0.160722 0.05525,0.301355 0.05525,0.140632 0.150678,0.246107 0.100452,0.105474 0.231039,0.165745 0.130587,0.06027 0.286288,0.06027 z"
           style="font-weight:bold;font-family:Raleway;-inkscape-font-specification:Raleway;vector-effect:none;stop-color:#000000;stop-opacity:1"
           id="path632" /><path
           d="m 90.841657,60.886858 q -0.331491,0 -0.647914,-0.105475 -0.316424,-0.105474 -0.54244,-0.301355 l 0.251129,-0.421898 q 0.241085,0.170768 0.467101,0.261175 0.231039,0.08538 0.457056,0.08538 0.200904,0 0.316423,-0.07534 0.11552,-0.07534 0.11552,-0.215971 0,-0.140633 -0.13561,-0.205926 -0.13561,-0.06529 -0.441988,-0.150678 -0.256152,-0.07032 -0.436966,-0.13561 -0.180813,-0.06529 -0.29131,-0.145655 -0.110497,-0.08538 -0.160723,-0.190859 -0.05023,-0.110497 -0.05023,-0.261174 0,-0.200904 0.07534,-0.361627 0.08036,-0.160723 0.220994,-0.27122 0.140633,-0.115519 0.326469,-0.17579 0.190858,-0.06027 0.411852,-0.06027 0.296333,0 0.552485,0.08538 0.261175,0.08538 0.477146,0.276242 l -0.27122,0.40683 q -0.200903,-0.150678 -0.391762,-0.220994 -0.185836,-0.07032 -0.371672,-0.07032 -0.170768,0 -0.286287,0.07032 -0.11552,0.07032 -0.11552,0.226017 0,0.07032 0.02511,0.115519 0.03014,0.0452 0.09041,0.08036 0.06027,0.03516 0.1557,0.07032 0.100452,0.03013 0.246107,0.06529 0.27122,0.07032 0.462078,0.140633 0.195881,0.07032 0.316423,0.160723 0.125565,0.09041 0.180814,0.210949 0.06027,0.115519 0.06027,0.281265 0,0.386739 -0.286288,0.612756 -0.286287,0.220994 -0.778501,0.220994 z"
           style="font-weight:bold;font-family:Raleway;-inkscape-font-specification:Raleway;vector-effect:none;stop-color:#000000;stop-opacity:1"
           id="path633" /><path
           d="m 92.328343,60.836632 v -0.723253 h 0.552485 v 0.723253 z"
           style="font-weight:bold;font-family:Raleway;-inkscape-font-specification:Raleway;vector-effect:none;stop-color:#000000;stop-opacity:1"
           id="path634" /><path
           d="m 93.458417,60.836632 v -0.723253 h 0.552485 v 0.723253 z"
           style="font-weight:bold;font-family:Raleway;-inkscape-font-specification:Raleway;vector-effect:none;stop-color:#000000;stop-opacity:1"
           id="path635" /><path
           d="m 94.588494,60.836632 v -0.723253 h 0.552485 v 0.723253 z"
           style="font-weight:bold;font-family:Raleway;-inkscape-font-specification:Raleway;vector-effect:none;stop-color:#000000;stop-opacity:1"
           id="path636" /></g></g></g></svg>
