<?xml version="1.0" encoding="UTF-8" standalone="no"?>
<svg
   width="700.00037"
   height="220"
   viewBox="0 0 185.20843 58.208335"
   version="1.1"
   id="svg243962"
   xml:space="preserve"
   xmlns="http://www.w3.org/2000/svg"
   xmlns:svg="http://www.w3.org/2000/svg"><defs
     id="defs243959" /><g
     id="layer2"
     style="font-variation-settings:normal;opacity:1;vector-effect:none;fill:#cbe1fb;fill-opacity:1;stroke-width:0.125564;stroke-linecap:butt;stroke-linejoin:miter;stroke-miterlimit:4;stroke-dasharray:none;stroke-dashoffset:0;stroke-opacity:1;-inkscape-stroke:none;stop-color:#000000;stop-opacity:1"
     transform="translate(-585.62531)"><g
       id="layer3-3"
       transform="translate(575.98907,-31.000559)"
       style="font-variation-settings:normal;display:inline;vector-effect:none;fill:#cbe1fb;fill-opacity:1;stroke-width:0.125564;stroke-linecap:butt;stroke-linejoin:miter;stroke-miterlimit:4;stroke-dasharray:none;stroke-dashoffset:0;stroke-opacity:1;-inkscape-stroke:none;stop-color:#000000;stop-opacity:1"><g
         aria-label="¡Bienvenid@!"
         id="text118971-4"
         style="font-size:12.619px;line-height:1.25;font-family:'Roboto Condensed';-inkscape-font-specification:'Roboto Condensed, ';vector-effect:none;stroke-width:0.125564;stop-color:#000000;stop-opacity:1"><path
           d="m 20.057386,44.070118 v 5.678551 H 18.36644 v -5.678551 z m 0,-3.369273 v 1.905469 H 18.36644 v -1.905469 z"
           style="font-weight:bold;font-family:Raleway;-inkscape-font-specification:Raleway;vector-effect:none;stop-color:#000000;stop-opacity:1"
           id="path518" /><path
           d="m 29.281855,47.376296 q 0,0.567856 -0.227142,0.996902 -0.227142,0.429046 -0.63095,0.719283 -0.391189,0.290237 -0.921187,0.441665 -0.517379,0.151428 -1.110472,0.151428 h -4.328317 v -8.959491 h 4.79522 q 0.466903,0 0.845473,0.201904 0.37857,0.201904 0.643569,0.529998 0.264999,0.315475 0.403808,0.731902 0.151428,0.403808 0.151428,0.820235 0,0.656188 -0.328094,1.236662 -0.328094,0.567855 -0.959044,0.845473 0.769759,0.227142 1.211424,0.820235 0.454284,0.580474 0.454284,1.463804 z m -1.754041,-0.328094 q 0,-0.239761 -0.08833,-0.454284 -0.07571,-0.227142 -0.214523,-0.391189 -0.138809,-0.164047 -0.328094,-0.25238 -0.189285,-0.100952 -0.416427,-0.100952 h -2.675228 v 2.359754 h 2.586895 q 0.239761,0 0.441665,-0.08833 0.214523,-0.08833 0.365951,-0.239761 0.151428,-0.164047 0.239761,-0.37857 0.08833,-0.214524 0.08833,-0.454285 z m -3.722605,-4.833077 v 2.258801 h 2.321896 q 0.441665,0 0.744521,-0.302856 0.315475,-0.302856 0.315475,-0.832854 0,-0.517379 -0.290237,-0.820235 -0.277618,-0.302856 -0.694045,-0.302856 z"
           style="font-weight:bold;font-family:Raleway;-inkscape-font-specification:Raleway;vector-effect:none;stop-color:#000000;stop-opacity:1"
           id="path519" /><path
           d="m 30.48064,49.685574 v -6.612357 h 1.690946 v 6.612357 z m 0,-7.533544 v -1.678327 h 1.690946 v 1.678327 z"
           style="font-weight:bold;font-family:Raleway;-inkscape-font-specification:Raleway;vector-effect:none;stop-color:#000000;stop-opacity:1"
           id="path520" /><path
           d="m 36.764892,49.811764 q -0.794997,0 -1.438566,-0.264999 -0.643569,-0.277618 -1.097853,-0.744521 -0.454284,-0.466903 -0.706664,-1.085234 -0.239761,-0.618332 -0.239761,-1.299758 0,-0.706664 0.239761,-1.324995 0.239761,-0.63095 0.694045,-1.097853 0.454284,-0.479522 1.097853,-0.75714 0.656188,-0.277618 1.463804,-0.277618 0.807616,0 1.438566,0.277618 0.643569,0.277618 1.085234,0.744521 0.454284,0.466903 0.681426,1.085234 0.239761,0.618331 0.239761,1.287138 0,0.164047 -0.01262,0.315475 0,0.151428 -0.02524,0.25238 h -5.110695 q 0.03786,0.391189 0.189285,0.694046 0.151428,0.302856 0.391189,0.517379 0.239761,0.214523 0.542617,0.328094 0.302856,0.113571 0.63095,0.113571 0.50476,0 0.946425,-0.239761 0.454284,-0.25238 0.618331,-0.656188 l 1.451185,0.403808 q -0.365951,0.75714 -1.173567,1.249281 -0.794997,0.479522 -1.905469,0.479522 z m 1.716184,-3.987605 q -0.0631,-0.744521 -0.555236,-1.186186 -0.479522,-0.454284 -1.173567,-0.454284 -0.340713,0 -0.643569,0.12619 -0.290237,0.113571 -0.517379,0.328094 -0.227142,0.214523 -0.37857,0.517379 -0.138809,0.302856 -0.164047,0.668807 z"
           style="font-weight:bold;font-family:Raleway;-inkscape-font-specification:Raleway;vector-effect:none;stop-color:#000000;stop-opacity:1"
           id="path521" /><path
           d="M 47.402696,49.685574 H 45.71175 v -3.709987 q 0,-0.794997 -0.277618,-1.160948 -0.277618,-0.365951 -0.769759,-0.365951 -0.25238,0 -0.517379,0.100952 -0.264999,0.100952 -0.50476,0.290237 -0.227142,0.176666 -0.416427,0.429046 -0.189285,0.25238 -0.277618,0.555236 v 3.861415 h -1.690946 v -6.612357 h 1.526899 v 1.224043 q 0.365951,-0.63095 1.059996,-0.984282 0.694045,-0.353332 1.564756,-0.353332 0.618331,0 1.00952,0.227142 0.391189,0.227142 0.605712,0.593093 0.214523,0.365951 0.290237,0.832854 0.08833,0.466903 0.08833,0.946425 z"
           style="font-weight:bold;font-family:Raleway;-inkscape-font-specification:Raleway;vector-effect:none;stop-color:#000000;stop-opacity:1"
           id="path522" /><path
           d="m 50.506935,49.685574 -2.435467,-6.612357 h 1.741422 l 1.678327,5.236886 1.690946,-5.236886 h 1.589994 l -2.435467,6.612357 z"
           style="font-weight:bold;font-family:Raleway;-inkscape-font-specification:Raleway;vector-effect:none;stop-color:#000000;stop-opacity:1"
           id="path523" /><path
           d="m 58.49474,49.811764 q -0.794997,0 -1.438566,-0.264999 -0.643569,-0.277618 -1.097853,-0.744521 -0.454284,-0.466903 -0.706664,-1.085234 -0.239761,-0.618332 -0.239761,-1.299758 0,-0.706664 0.239761,-1.324995 0.239761,-0.63095 0.694045,-1.097853 0.454284,-0.479522 1.097853,-0.75714 0.656188,-0.277618 1.463804,-0.277618 0.807616,0 1.438566,0.277618 0.643569,0.277618 1.085234,0.744521 0.454284,0.466903 0.681426,1.085234 0.239761,0.618331 0.239761,1.287138 0,0.164047 -0.01262,0.315475 0,0.151428 -0.02524,0.25238 h -5.110695 q 0.03786,0.391189 0.189285,0.694046 0.151428,0.302856 0.391189,0.517379 0.239761,0.214523 0.542617,0.328094 0.302856,0.113571 0.63095,0.113571 0.50476,0 0.946425,-0.239761 0.454284,-0.25238 0.618331,-0.656188 l 1.451185,0.403808 q -0.365951,0.75714 -1.173567,1.249281 -0.794997,0.479522 -1.905469,0.479522 z m 1.716184,-3.987605 q -0.06309,-0.744521 -0.555236,-1.186186 -0.479522,-0.454284 -1.173567,-0.454284 -0.340713,0 -0.643569,0.12619 -0.290237,0.113571 -0.517379,0.328094 -0.227142,0.214523 -0.37857,0.517379 -0.138809,0.302856 -0.164047,0.668807 z"
           style="font-weight:bold;font-family:Raleway;-inkscape-font-specification:Raleway;vector-effect:none;stop-color:#000000;stop-opacity:1"
           id="path524" /><path
           d="m 69.132545,49.685574 h -1.690946 v -3.709987 q 0,-0.794997 -0.277618,-1.160948 -0.277618,-0.365951 -0.769759,-0.365951 -0.25238,0 -0.517379,0.100952 -0.264999,0.100952 -0.50476,0.290237 -0.227142,0.176666 -0.416427,0.429046 -0.189285,0.25238 -0.277618,0.555236 v 3.861415 h -1.690946 v -6.612357 h 1.526899 v 1.224043 q 0.365951,-0.63095 1.059996,-0.984282 0.694045,-0.353332 1.564756,-0.353332 0.618331,0 1.00952,0.227142 0.391189,0.227142 0.605712,0.593093 0.214523,0.365951 0.290237,0.832854 0.08833,0.466903 0.08833,0.946425 z"
           style="font-weight:bold;font-family:Raleway;-inkscape-font-specification:Raleway;vector-effect:none;stop-color:#000000;stop-opacity:1"
           id="path525" /><path
           d="m 70.608945,49.685574 v -6.612357 h 1.690946 v 6.612357 z m 0,-7.533544 v -1.678327 h 1.690946 v 1.678327 z"
           style="font-weight:bold;font-family:Raleway;-inkscape-font-specification:Raleway;vector-effect:none;stop-color:#000000;stop-opacity:1"
           id="path526" /><path
           d="m 76.565102,49.811764 q -0.681426,0 -1.2619,-0.264999 -0.580474,-0.264999 -0.996901,-0.731902 -0.416427,-0.466903 -0.656188,-1.085234 -0.227142,-0.630951 -0.227142,-1.350234 0,-0.719283 0.214523,-1.337614 0.227142,-0.618331 0.618331,-1.085234 0.391189,-0.466903 0.933806,-0.731902 0.542617,-0.264999 1.186186,-0.264999 0.731902,0 1.312376,0.353332 0.593093,0.353332 0.921187,0.921187 v -3.760462 h 1.690946 v 7.268545 q 0,0.264999 0.08833,0.37857 0.08833,0.113571 0.302856,0.12619 v 1.438566 q -0.441665,0.08833 -0.719283,0.08833 -0.454284,0 -0.744521,-0.227142 -0.290237,-0.227142 -0.328094,-0.593093 l -0.03786,-0.416427 q -0.365951,0.63095 -0.996901,0.959044 -0.618331,0.315475 -1.299757,0.315475 z m 0.441665,-1.438566 q 0.239761,0 0.492141,-0.07571 0.25238,-0.08833 0.466903,-0.239761 0.214523,-0.151428 0.37857,-0.353332 0.176666,-0.201904 0.264999,-0.441666 V 45.68535 q -0.100952,-0.277618 -0.290237,-0.50476 -0.176666,-0.239761 -0.416427,-0.403808 -0.227142,-0.176666 -0.492141,-0.277618 -0.25238,-0.100952 -0.50476,-0.100952 -0.37857,0 -0.706664,0.164047 -0.315475,0.164047 -0.542617,0.454284 -0.227142,0.277618 -0.353332,0.643569 -0.12619,0.365951 -0.12619,0.75714 0,0.416427 0.138809,0.769759 0.138809,0.353333 0.37857,0.618332 0.239761,0.264999 0.567855,0.416427 0.340713,0.151428 0.744521,0.151428 z"
           style="font-weight:bold;font-family:Raleway;-inkscape-font-specification:Raleway;vector-effect:none;stop-color:#000000;stop-opacity:1"
           id="path527" /><path
           d="m 86.521475,42.076316 q 0.921187,0 1.76666,0.315475 0.858092,0.315475 1.51428,0.921187 0.656188,0.605712 1.034758,1.501661 0.391189,0.895949 0.391189,2.069516 0,0.176666 -0.02524,0.479522 -0.01262,0.290238 -0.07571,0.618332 -0.0631,0.328094 -0.189285,0.668807 -0.12619,0.340713 -0.340713,0.618331 -0.214523,0.277618 -0.542617,0.441665 -0.315475,0.176666 -0.769759,0.176666 -0.340713,0 -0.567855,-0.100952 -0.214523,-0.08833 -0.353332,-0.239761 -0.12619,-0.151428 -0.189285,-0.328094 -0.0631,-0.189285 -0.08833,-0.365951 -0.391189,0.391189 -0.946425,0.63095 -0.555236,0.227142 -1.198805,0.227142 -0.946425,0 -1.438566,-0.492141 -0.492141,-0.492141 -0.492141,-1.274519 0,-0.517379 0.201904,-0.870712 0.214523,-0.353332 0.542617,-0.567855 0.340713,-0.214523 0.75714,-0.302856 0.429046,-0.100952 0.858092,-0.100952 0.50476,0 0.870711,0.100952 0.365951,0.08833 0.555236,0.176666 0,-0.340713 -0.06309,-0.63095 -0.0631,-0.290237 -0.227142,-0.492141 -0.164047,-0.201904 -0.441665,-0.315475 -0.277618,-0.113571 -0.706664,-0.113571 -0.517379,0 -0.946425,0.151428 -0.429046,0.151428 -0.731902,0.403808 l -0.328094,-0.895949 q 0.959044,-0.63095 2.170468,-0.63095 0.820235,0 1.274519,0.25238 0.466903,0.25238 0.681426,0.643569 0.227142,0.37857 0.277618,0.845473 0.05048,0.466903 0.05048,0.895949 v 1.211425 q 0,0.277618 0.01262,0.542617 0.02524,0.25238 0.08833,0.454284 0.0631,0.189285 0.189285,0.315475 0.12619,0.113571 0.353332,0.113571 0.340713,0 0.542617,-0.25238 0.214523,-0.25238 0.328094,-0.605712 0.12619,-0.365951 0.164047,-0.75714 0.03786,-0.39119 0.03786,-0.656189 0,-0.88333 -0.302856,-1.627851 -0.290237,-0.75714 -0.820235,-1.299757 -0.529998,-0.555236 -1.274519,-0.858092 -0.744521,-0.315475 -1.653089,-0.315475 -0.895949,0 -1.64047,0.302856 -0.731902,0.302856 -1.274519,0.845473 -0.529998,0.529998 -0.832854,1.274519 -0.290237,0.731902 -0.290237,1.602613 0,0.845474 0.277618,1.589995 0.277618,0.731902 0.782378,1.287138 0.517379,0.542617 1.236662,0.858092 0.719283,0.328094 1.602613,0.328094 0.605712,0 1.047377,-0.138809 0.441665,-0.12619 0.921187,-0.340713 l 0.201904,0.656188 q -0.529998,0.25238 -1.085234,0.37857 -0.555236,0.12619 -1.110472,0.12619 -0.946425,0 -1.779279,-0.340713 -0.832854,-0.340713 -1.463804,-0.971663 -0.618331,-0.618331 -0.984282,-1.489042 -0.353332,-0.88333 -0.353332,-1.943327 0,-1.123091 0.391189,-1.993802 0.391189,-0.88333 1.047377,-1.476423 0.668807,-0.605712 1.539518,-0.921187 0.870711,-0.315475 1.817136,-0.315475 z m 0.618331,6.511405 q 0.340713,-0.164047 0.492141,-0.403808 0.151428,-0.239761 0.151428,-0.529998 v -0.479523 q -0.176666,-0.06309 -0.555236,-0.164047 -0.37857,-0.100952 -0.858092,-0.100952 -0.593093,0 -0.971663,0.227142 -0.37857,0.227142 -0.37857,0.76976 0,0.429046 0.264999,0.681426 0.277618,0.25238 0.75714,0.25238 0.25238,0 0.555236,-0.06309 0.302856,-0.06309 0.542617,-0.189285 z"
           style="font-weight:bold;font-family:Raleway;-inkscape-font-specification:Raleway;vector-effect:none;stop-color:#000000;stop-opacity:1"
           id="path528" /><path
           d="M 92.957154,46.3163 V 40.63775 H 94.6481 v 5.67855 z m 0,3.369274 V 47.780105 H 94.6481 v 1.905469 z"
           style="font-weight:bold;font-family:Raleway;-inkscape-font-specification:Raleway;vector-effect:none;stop-color:#000000;stop-opacity:1"
           id="path529" /></g><g
         aria-label="Configuremos
    algunas cosas..."
         id="text115541-7"
         style="font-size:5.02259px;line-height:1.25;font-family:'Roboto Condensed';-inkscape-font-specification:'Roboto Condensed, ';vector-effect:none;stroke-width:0.125564;stop-color:#000000;stop-opacity:1"><path
           d="m 31.999057,60.356174 q 0,-0.326468 0.11552,-0.642891 0.120542,-0.321446 0.346559,-0.572576 0.226016,-0.251129 0.552485,-0.406829 0.326468,-0.155701 0.743343,-0.155701 0.492214,0 0.848818,0.215972 0.361626,0.215971 0.537417,0.56253 l -0.532395,0.366649 q -0.07032,-0.150678 -0.170768,-0.25113 -0.100452,-0.105474 -0.215971,-0.165745 -0.11552,-0.06027 -0.241085,-0.08538 -0.125564,-0.03014 -0.246106,-0.03014 -0.261175,0 -0.457056,0.105475 -0.190859,0.105474 -0.321446,0.276242 -0.125565,0.165746 -0.190858,0.381717 -0.06529,0.210949 -0.06529,0.421898 0,0.236061 0.07534,0.457055 0.07534,0.215972 0.210949,0.381717 0.140632,0.165746 0.331491,0.266197 0.195881,0.100452 0.42692,0.100452 0.120542,0 0.251129,-0.03013 0.130588,-0.03014 0.246107,-0.09543 0.120542,-0.06529 0.220994,-0.165745 0.100452,-0.105474 0.160723,-0.25113 l 0.567553,0.326469 q -0.08538,0.200903 -0.246107,0.356604 -0.1557,0.150677 -0.356604,0.256152 -0.195881,0.105474 -0.421898,0.160723 -0.226016,0.05525 -0.441988,0.05525 -0.381716,0 -0.69814,-0.160723 -0.316423,-0.160723 -0.547462,-0.416875 -0.226017,-0.261174 -0.356604,-0.587643 -0.125565,-0.331491 -0.125565,-0.673027 z"
           style="font-weight:bold;font-family:Raleway;-inkscape-font-specification:Raleway;vector-effect:none;stop-color:#000000;stop-opacity:1"
           id="path492" /><path
           d="m 36.810693,62.214533 q -0.321446,0 -0.577598,-0.110497 -0.256152,-0.110497 -0.436965,-0.296333 -0.175791,-0.190859 -0.27122,-0.436966 -0.09543,-0.246107 -0.09543,-0.517326 0,-0.276243 0.09543,-0.52235 0.09543,-0.246107 0.27122,-0.431943 0.180813,-0.190858 0.436965,-0.301355 0.256152,-0.110497 0.577598,-0.110497 0.321446,0 0.572575,0.110497 0.256153,0.110497 0.431943,0.301355 0.180813,0.185836 0.276243,0.431943 0.09543,0.246107 0.09543,0.52235 0,0.271219 -0.09543,0.517326 -0.09543,0.246107 -0.27122,0.436966 -0.175791,0.185836 -0.431943,0.296333 -0.256152,0.110497 -0.577598,0.110497 z m -0.688095,-1.361122 q 0,0.17579 0.05023,0.321445 0.05525,0.140633 0.145655,0.246107 0.09543,0.105475 0.220994,0.165746 0.125565,0.05525 0.27122,0.05525 0.145655,0 0.27122,-0.05525 0.125565,-0.06027 0.215971,-0.165746 0.09543,-0.105474 0.145656,-0.251129 0.05525,-0.145655 0.05525,-0.321446 0,-0.170768 -0.05525,-0.316423 -0.05023,-0.145655 -0.145656,-0.25113 -0.09041,-0.105474 -0.215971,-0.160723 -0.125565,-0.06027 -0.27122,-0.06027 -0.145655,0 -0.27122,0.06027 -0.125564,0.06027 -0.220994,0.165746 -0.09041,0.105474 -0.145655,0.251129 -0.05023,0.145656 -0.05023,0.316424 z"
           style="font-weight:bold;font-family:Raleway;-inkscape-font-specification:Raleway;vector-effect:none;stop-color:#000000;stop-opacity:1"
           id="path493" /><path
           d="m 41.084912,62.164307 h -0.673027 v -1.476642 q 0,-0.316423 -0.110497,-0.462078 -0.110497,-0.145655 -0.306378,-0.145655 -0.100452,0 -0.205926,0.04018 -0.105474,0.04018 -0.200904,0.11552 -0.09041,0.07032 -0.165745,0.170768 -0.07534,0.100452 -0.110497,0.220994 v 1.536913 h -0.673027 v -2.631838 h 0.607733 v 0.487192 q 0.145655,-0.25113 0.421898,-0.391762 0.276242,-0.140633 0.622801,-0.140633 0.246107,0 0.401807,0.09041 0.155701,0.09041 0.241085,0.236061 0.08538,0.145656 0.115519,0.331491 0.03516,0.185836 0.03516,0.376695 z"
           style="font-weight:bold;font-family:Raleway;-inkscape-font-specification:Raleway;vector-effect:none;stop-color:#000000;stop-opacity:1"
           id="path494" /><path
           d="m 41.808151,60.185406 h -0.346559 v -0.512304 h 0.346559 v -0.160723 q 0,-0.215971 0.07032,-0.411852 0.07534,-0.195881 0.210949,-0.336514 0.140633,-0.145655 0.336514,-0.231039 0.200903,-0.08538 0.452033,-0.08538 0.286287,0 0.522349,0.09543 0.241084,0.09041 0.452033,0.231039 l -0.266197,0.502259 q -0.130587,-0.115519 -0.306378,-0.185836 -0.175791,-0.07032 -0.356604,-0.07032 -0.226017,0 -0.336513,0.140633 -0.105475,0.140632 -0.105475,0.326468 v 0.185836 h 1.411348 v 2.491205 h -0.673027 v -1.978901 h -0.738321 v 1.978901 h -0.673027 z"
           style="font-weight:bold;font-family:Raleway;-inkscape-font-specification:Raleway;vector-effect:none;stop-color:#000000;stop-opacity:1"
           id="path495" /><path
           d="m 45.529884,62.179374 q -0.266197,0 -0.482168,-0.105474 -0.215972,-0.105474 -0.376695,-0.286288 -0.1557,-0.185835 -0.241084,-0.42692 -0.08538,-0.241084 -0.08538,-0.512304 0,-0.286288 0.09041,-0.532395 0.09041,-0.246106 0.251129,-0.431942 0.160723,-0.185836 0.38674,-0.291311 0.226016,-0.105474 0.497236,-0.105474 0.306378,0 0.537417,0.140633 0.231039,0.13561 0.381717,0.366649 v -0.462079 h 0.587643 v 2.506273 q 0,0.29131 -0.110497,0.522349 -0.110497,0.231039 -0.306378,0.391762 -0.190858,0.160723 -0.462078,0.246107 -0.266197,0.08538 -0.582621,0.08538 -0.431942,0 -0.728275,-0.145655 -0.29131,-0.140632 -0.502259,-0.401807 l 0.366649,-0.356604 q 0.150678,0.185836 0.376694,0.29131 0.231039,0.105475 0.487191,0.105475 0.155701,0 0.296333,-0.0452 0.145655,-0.04018 0.256152,-0.130587 0.110497,-0.09041 0.170768,-0.231039 0.06529,-0.140633 0.06529,-0.331491 v -0.331491 q -0.130587,0.226016 -0.366649,0.351581 -0.236062,0.120542 -0.507282,0.120542 z m 0.226017,-0.537417 q 0.110497,0 0.210949,-0.03516 0.100451,-0.03516 0.185835,-0.09543 0.08539,-0.06027 0.150678,-0.140633 0.06529,-0.08036 0.100452,-0.170768 v -0.627823 q -0.09041,-0.23104 -0.286288,-0.371672 -0.190858,-0.140633 -0.401807,-0.140633 -0.1557,0 -0.281265,0.07032 -0.125565,0.06529 -0.215971,0.180813 -0.09041,0.110497 -0.140633,0.256152 -0.0452,0.145655 -0.0452,0.301355 0,0.160723 0.05525,0.301356 0.05525,0.140632 0.150678,0.246107 0.100452,0.105474 0.231039,0.165745 0.130588,0.06027 0.286288,0.06027 z"
           style="font-weight:bold;font-family:Raleway;-inkscape-font-specification:Raleway;vector-effect:none;stop-color:#000000;stop-opacity:1"
           id="path496" /><path
           d="m 48.488184,62.214533 q -0.406829,0 -0.617778,-0.261175 -0.210949,-0.261175 -0.210949,-0.773479 v -1.64741 h 0.673027 v 1.501755 q 0,0.607733 0.436965,0.607733 0.195881,0 0.376695,-0.115519 0.185836,-0.120542 0.301355,-0.361627 v -1.632342 h 0.673027 v 1.858359 q 0,0.105474 0.03516,0.150677 0.04018,0.0452 0.125565,0.05023 v 0.572576 q -0.100452,0.02009 -0.170768,0.02511 -0.06529,0.005 -0.120542,0.005 -0.180813,0 -0.296333,-0.08036 -0.110497,-0.08538 -0.130587,-0.231039 l -0.01507,-0.210949 q -0.175791,0.27122 -0.452033,0.40683 -0.276243,0.13561 -0.607734,0.13561 z"
           style="font-weight:bold;font-family:Raleway;-inkscape-font-specification:Raleway;vector-effect:none;stop-color:#000000;stop-opacity:1"
           id="path497" /><path
           d="m 52.35557,60.11509 q -0.306378,0.005 -0.547463,0.120542 -0.241084,0.110497 -0.346559,0.336514 v 1.592161 H 50.788521 V 59.532469 H 51.4063 v 0.56253 q 0.07032,-0.135609 0.165745,-0.241084 0.09543,-0.110497 0.205927,-0.190858 0.110497,-0.08036 0.220994,-0.120542 0.115519,-0.0452 0.220994,-0.0452 0.05525,0 0.08036,0 0.03014,0 0.05525,0.005 z"
           style="font-weight:bold;font-family:Raleway;-inkscape-font-specification:Raleway;vector-effect:none;stop-color:#000000;stop-opacity:1"
           id="path498" /><path
           d="m 53.822155,62.214533 q -0.316423,0 -0.572575,-0.105475 -0.256152,-0.110497 -0.436965,-0.296333 -0.180813,-0.185836 -0.281265,-0.431942 -0.09543,-0.246107 -0.09543,-0.517327 0,-0.281265 0.09543,-0.527372 0.09543,-0.25113 0.276242,-0.436966 0.180814,-0.190858 0.436966,-0.301355 0.261174,-0.110497 0.58262,-0.110497 0.321446,0 0.572575,0.110497 0.256152,0.110497 0.431943,0.296333 0.180813,0.185836 0.27122,0.431943 0.09543,0.246107 0.09543,0.512304 0,0.06529 -0.005,0.125565 0,0.06027 -0.01005,0.100451 h -2.034149 q 0.01507,0.155701 0.07534,0.276243 0.06027,0.120542 0.155701,0.205926 0.09543,0.08538 0.215971,0.130587 0.120542,0.0452 0.251129,0.0452 0.200904,0 0.376695,-0.09543 0.180813,-0.100451 0.246107,-0.261174 l 0.577597,0.160723 q -0.145655,0.301355 -0.4671,0.497236 -0.316424,0.190859 -0.758412,0.190859 z m 0.683073,-1.587139 q -0.02511,-0.296333 -0.220994,-0.472123 -0.190859,-0.180814 -0.467101,-0.180814 -0.13561,0 -0.256152,0.05023 -0.11552,0.0452 -0.205926,0.130588 -0.09041,0.08538 -0.150678,0.205926 -0.05525,0.120542 -0.06529,0.266197 z"
           style="font-weight:bold;font-family:Raleway;-inkscape-font-specification:Raleway;vector-effect:none;stop-color:#000000;stop-opacity:1"
           id="path499" /><path
           d="m 59.698582,62.164307 h -0.673027 v -1.476642 q 0,-0.316423 -0.110497,-0.462078 -0.105474,-0.145655 -0.296333,-0.145655 -0.200903,0 -0.376694,0.1557 -0.175791,0.150678 -0.251129,0.396785 v 1.53189 h -0.673028 v -1.476642 q 0,-0.316423 -0.110496,-0.462078 -0.105475,-0.145655 -0.296333,-0.145655 -0.195881,0 -0.376695,0.150677 -0.17579,0.150678 -0.251129,0.396785 v 1.536913 h -0.673027 v -2.631838 h 0.607733 v 0.487192 q 0.145655,-0.256152 0.396785,-0.391762 0.256152,-0.140633 0.58262,-0.140633 0.331491,0 0.512305,0.160723 0.180813,0.160723 0.231039,0.396785 0.160723,-0.27122 0.406829,-0.411853 0.246107,-0.145655 0.562531,-0.145655 0.241084,0 0.396784,0.09041 0.1557,0.09041 0.241085,0.236061 0.08538,0.145656 0.115519,0.331491 0.03516,0.185836 0.03516,0.376695 z"
           style="font-weight:bold;font-family:Raleway;-inkscape-font-specification:Raleway;vector-effect:none;stop-color:#000000;stop-opacity:1"
           id="path500" /><path
           d="m 61.50169,62.214533 q -0.321446,0 -0.577598,-0.110497 -0.256152,-0.110497 -0.436965,-0.296333 -0.175791,-0.190859 -0.27122,-0.436966 -0.09543,-0.246107 -0.09543,-0.517326 0,-0.276243 0.09543,-0.52235 0.09543,-0.246107 0.27122,-0.431943 0.180813,-0.190858 0.436965,-0.301355 0.256152,-0.110497 0.577598,-0.110497 0.321446,0 0.572575,0.110497 0.256152,0.110497 0.431943,0.301355 0.180813,0.185836 0.276242,0.431943 0.09543,0.246107 0.09543,0.52235 0,0.271219 -0.09543,0.517326 -0.09543,0.246107 -0.27122,0.436966 -0.17579,0.185836 -0.431942,0.296333 -0.256152,0.110497 -0.577598,0.110497 z m -0.688095,-1.361122 q 0,0.17579 0.05023,0.321445 0.05525,0.140633 0.145655,0.246107 0.09543,0.105475 0.220994,0.165746 0.125565,0.05525 0.27122,0.05525 0.145655,0 0.27122,-0.05525 0.125564,-0.06027 0.215971,-0.165746 0.09543,-0.105474 0.145655,-0.251129 0.05525,-0.145655 0.05525,-0.321446 0,-0.170768 -0.05525,-0.316423 -0.05023,-0.145655 -0.145655,-0.25113 -0.09041,-0.105474 -0.215971,-0.160723 -0.125565,-0.06027 -0.27122,-0.06027 -0.145655,0 -0.27122,0.06027 -0.125565,0.06027 -0.220994,0.165746 -0.09041,0.105474 -0.145655,0.251129 -0.05023,0.145656 -0.05023,0.316424 z"
           style="font-weight:bold;font-family:Raleway;-inkscape-font-specification:Raleway;vector-effect:none;stop-color:#000000;stop-opacity:1"
           id="path501" /><path
           d="m 64.324382,62.214533 q -0.331491,0 -0.647914,-0.105475 -0.316423,-0.105474 -0.54244,-0.301355 l 0.251129,-0.421898 q 0.241085,0.170768 0.467101,0.261175 0.231039,0.08538 0.457056,0.08538 0.200904,0 0.316423,-0.07534 0.11552,-0.07534 0.11552,-0.215971 0,-0.140633 -0.13561,-0.205927 -0.13561,-0.06529 -0.441988,-0.150677 -0.256152,-0.07032 -0.436965,-0.13561 -0.180814,-0.06529 -0.291311,-0.145655 -0.110497,-0.08538 -0.160723,-0.190859 -0.05022,-0.110497 -0.05022,-0.261174 0,-0.200904 0.07534,-0.361627 0.08036,-0.160723 0.220994,-0.27122 0.140633,-0.115519 0.326469,-0.17579 0.190858,-0.06027 0.411852,-0.06027 0.296333,0 0.552485,0.08539 0.261175,0.08538 0.477146,0.276242 l -0.27122,0.40683 q -0.200903,-0.150678 -0.391762,-0.220994 -0.185836,-0.07032 -0.371671,-0.07032 -0.170769,0 -0.286288,0.07032 -0.11552,0.07032 -0.11552,0.226016 0,0.07032 0.02511,0.11552 0.03014,0.0452 0.09041,0.08036 0.06027,0.03516 0.1557,0.07032 0.100452,0.03014 0.246107,0.06529 0.27122,0.07032 0.462078,0.140633 0.195881,0.07032 0.316424,0.160723 0.125564,0.09041 0.180813,0.210949 0.06027,0.115519 0.06027,0.281265 0,0.386739 -0.286288,0.612756 -0.286287,0.220994 -0.778501,0.220994 z"
           style="font-weight:bold;font-family:Raleway;-inkscape-font-specification:Raleway;vector-effect:none;stop-color:#000000;stop-opacity:1"
           id="path502" /><path
           d="m 37.689647,68.698274 q -0.190858,0 -0.356603,-0.06027 -0.165746,-0.06529 -0.286288,-0.17579 -0.120542,-0.11552 -0.190859,-0.266197 -0.06529,-0.150678 -0.06529,-0.331491 0,-0.185836 0.08036,-0.341537 0.08538,-0.160722 0.231039,-0.271219 0.150678,-0.110497 0.356604,-0.170768 0.205927,-0.06529 0.452033,-0.06529 0.175791,0 0.341537,0.03014 0.170768,0.03014 0.301355,0.08538 v -0.150677 q 0,-0.261175 -0.150678,-0.401807 -0.145655,-0.140633 -0.436965,-0.140633 -0.210949,0 -0.411852,0.07534 -0.200904,0.07534 -0.411853,0.220994 l -0.205926,-0.42692 q 0.507282,-0.336514 1.094925,-0.336514 0.567552,0 0.878953,0.281265 0.316423,0.276243 0.316423,0.803615 v 0.818682 q 0,0.105474 0.03516,0.150677 0.04018,0.0452 0.125565,0.05023 v 0.572576 q -0.170768,0.03516 -0.296333,0.03516 -0.190858,0 -0.296333,-0.08538 -0.100452,-0.08538 -0.125564,-0.226017 l -0.01507,-0.145655 q -0.175791,0.231039 -0.42692,0.351581 -0.25113,0.120543 -0.537418,0.120543 z m 0.190859,-0.492214 q 0.170768,0 0.321446,-0.06027 0.1557,-0.06027 0.241084,-0.160723 0.110497,-0.08538 0.110497,-0.190859 v -0.301355 q -0.120542,-0.0452 -0.261175,-0.07032 -0.140632,-0.03014 -0.27122,-0.03014 -0.261174,0 -0.42692,0.120542 -0.165745,0.11552 -0.165745,0.296333 0,0.170768 0.130587,0.286288 0.130587,0.110497 0.321446,0.110497 z"
           style="font-weight:bold;font-family:Raleway;-inkscape-font-specification:Raleway;vector-effect:none;stop-color:#000000;stop-opacity:1"
           id="path503" /><path
           d="m 39.849358,64.981557 h 0.673027 v 2.822696 q 0,0.145655 0.07032,0.226016 0.07032,0.08036 0.200904,0.08036 0.06027,0 0.130587,-0.02009 0.07534,-0.02009 0.140633,-0.05023 l 0.09041,0.512304 q -0.13561,0.06529 -0.316424,0.100452 -0.180813,0.03516 -0.326468,0.03516 -0.316423,0 -0.492214,-0.165745 -0.170768,-0.170768 -0.170768,-0.482169 z"
           style="font-weight:bold;font-family:Raleway;-inkscape-font-specification:Raleway;vector-effect:none;stop-color:#000000;stop-opacity:1"
           id="path504" /><path
           d="m 42.47617,68.663115 q -0.266198,0 -0.482169,-0.105474 -0.215971,-0.105474 -0.376694,-0.286288 -0.155701,-0.185835 -0.241085,-0.42692 -0.08538,-0.241084 -0.08538,-0.512304 0,-0.286288 0.09041,-0.532395 0.09041,-0.246106 0.251129,-0.431942 0.160723,-0.185836 0.38674,-0.29131 0.226016,-0.105475 0.497236,-0.105475 0.306378,0 0.537417,0.140633 0.23104,0.13561 0.381717,0.366649 V 66.01621 h 0.587643 v 2.506273 q 0,0.29131 -0.110497,0.522349 -0.110497,0.231039 -0.306378,0.391762 -0.190858,0.160723 -0.462078,0.246107 -0.266197,0.08538 -0.58262,0.08538 -0.431943,0 -0.728276,-0.145655 -0.29131,-0.140632 -0.502259,-0.401807 l 0.366649,-0.356604 q 0.150678,0.185836 0.376694,0.29131 0.231039,0.105475 0.487192,0.105475 0.1557,0 0.296332,-0.0452 0.145656,-0.04018 0.256152,-0.130587 0.110497,-0.09041 0.170769,-0.231039 0.06529,-0.140633 0.06529,-0.331491 v -0.331491 q -0.130587,0.226017 -0.366649,0.351581 -0.236062,0.120542 -0.507281,0.120542 z m 0.226016,-0.537417 q 0.110497,0 0.210949,-0.03516 0.100452,-0.03516 0.185836,-0.09543 0.08538,-0.06027 0.150677,-0.140633 0.06529,-0.08036 0.100452,-0.170768 v -0.627823 q -0.09041,-0.23104 -0.286287,-0.371672 -0.190859,-0.140633 -0.401808,-0.140633 -0.1557,0 -0.281265,0.07032 -0.125564,0.06529 -0.215971,0.180813 -0.09041,0.110497 -0.140633,0.256152 -0.0452,0.145655 -0.0452,0.301355 0,0.160723 0.05525,0.301356 0.05525,0.140632 0.150677,0.246107 0.100452,0.105474 0.231039,0.165745 0.130588,0.06027 0.286288,0.06027 z"
           style="font-weight:bold;font-family:Raleway;-inkscape-font-specification:Raleway;vector-effect:none;stop-color:#000000;stop-opacity:1"
           id="path505" /><path
           d="m 45.43447,68.698274 q -0.40683,0 -0.617779,-0.261175 -0.210949,-0.261175 -0.210949,-0.773479 v -1.64741 h 0.673027 v 1.501755 q 0,0.607733 0.436966,0.607733 0.195881,0 0.376694,-0.115519 0.185836,-0.120542 0.301355,-0.361627 V 66.01621 h 0.673027 v 1.858359 q 0,0.105474 0.03516,0.150677 0.04018,0.0452 0.125564,0.05023 v 0.572576 q -0.100451,0.02009 -0.170768,0.02511 -0.06529,0.005 -0.120542,0.005 -0.180813,0 -0.296333,-0.08036 -0.110497,-0.08538 -0.130587,-0.231039 l -0.01507,-0.210949 q -0.175791,0.27122 -0.452033,0.40683 -0.276242,0.13561 -0.607733,0.13561 z"
           style="font-weight:bold;font-family:Raleway;-inkscape-font-specification:Raleway;vector-effect:none;stop-color:#000000;stop-opacity:1"
           id="path506" /><path
           d="m 50.180808,68.648048 h -0.673027 v -1.476642 q 0,-0.316423 -0.110497,-0.462078 -0.110497,-0.145655 -0.306378,-0.145655 -0.100452,0 -0.205926,0.04018 -0.105475,0.04018 -0.200904,0.11552 -0.09041,0.07032 -0.165745,0.170768 -0.07534,0.100452 -0.110497,0.220994 v 1.536913 H 47.734807 V 66.01621 h 0.607733 v 0.487192 q 0.145655,-0.25113 0.421898,-0.391762 0.276242,-0.140633 0.622801,-0.140633 0.246107,0 0.401807,0.09041 0.1557,0.09041 0.241084,0.236061 0.08538,0.145656 0.11552,0.331491 0.03516,0.185836 0.03516,0.376695 z"
           style="font-weight:bold;font-family:Raleway;-inkscape-font-specification:Raleway;vector-effect:none;stop-color:#000000;stop-opacity:1"
           id="path507" /><path
           d="m 51.486673,68.698274 q -0.190858,0 -0.356604,-0.06027 -0.165745,-0.06529 -0.286287,-0.17579 -0.120543,-0.11552 -0.190859,-0.266197 -0.06529,-0.150678 -0.06529,-0.331491 0,-0.185836 0.08036,-0.341537 0.08538,-0.160722 0.231039,-0.271219 0.150678,-0.110497 0.356604,-0.170768 0.205926,-0.06529 0.452033,-0.06529 0.175791,0 0.341536,0.03014 0.170768,0.03014 0.301356,0.08538 v -0.150677 q 0,-0.261175 -0.150678,-0.401807 -0.145655,-0.140633 -0.436965,-0.140633 -0.210949,0 -0.411853,0.07534 -0.200903,0.07534 -0.411852,0.220994 l -0.205926,-0.42692 q 0.507281,-0.336514 1.094924,-0.336514 0.567553,0 0.878954,0.281265 0.316423,0.276243 0.316423,0.803615 v 0.818682 q 0,0.105474 0.03516,0.150677 0.04018,0.0452 0.125565,0.05023 v 0.572576 q -0.170768,0.03516 -0.296333,0.03516 -0.190859,0 -0.296333,-0.08538 -0.100452,-0.08538 -0.125565,-0.226017 L 52.45101,68.22615 q -0.17579,0.231039 -0.42692,0.351581 -0.251129,0.120543 -0.537417,0.120543 z m 0.190859,-0.492214 q 0.170768,0 0.321445,-0.06027 0.155701,-0.06027 0.241085,-0.160723 0.110497,-0.08538 0.110497,-0.190859 v -0.301355 q -0.120543,-0.0452 -0.261175,-0.07032 -0.140633,-0.03014 -0.27122,-0.03014 -0.261175,0 -0.42692,0.120542 -0.165746,0.11552 -0.165746,0.296333 0,0.170768 0.130588,0.286288 0.130587,0.110497 0.321446,0.110497 z"
           style="font-weight:bold;font-family:Raleway;-inkscape-font-specification:Raleway;vector-effect:none;stop-color:#000000;stop-opacity:1"
           id="path508" /><path
           d="m 54.645879,68.698274 q -0.331491,0 -0.647914,-0.105475 -0.316424,-0.105474 -0.54244,-0.301355 l 0.251129,-0.421898 q 0.241085,0.170768 0.467101,0.261175 0.231039,0.08538 0.457056,0.08538 0.200904,0 0.316423,-0.07534 0.11552,-0.07534 0.11552,-0.215971 0,-0.140633 -0.13561,-0.205927 -0.13561,-0.06529 -0.441988,-0.150677 -0.256152,-0.07032 -0.436965,-0.13561 -0.180814,-0.06529 -0.291311,-0.145655 -0.110497,-0.08538 -0.160723,-0.190859 -0.05022,-0.110497 -0.05022,-0.261174 0,-0.200904 0.07534,-0.361627 0.08036,-0.160723 0.220994,-0.27122 0.140633,-0.115519 0.326469,-0.17579 0.190858,-0.06027 0.411852,-0.06027 0.296333,0 0.552485,0.08538 0.261175,0.08538 0.477146,0.276242 l -0.27122,0.40683 q -0.200903,-0.150678 -0.391762,-0.220994 -0.185836,-0.07032 -0.371671,-0.07032 -0.170769,0 -0.286288,0.07032 -0.11552,0.07032 -0.11552,0.226016 0,0.07032 0.02511,0.11552 0.03014,0.0452 0.09041,0.08036 0.06027,0.03516 0.1557,0.07032 0.100452,0.03014 0.246107,0.06529 0.27122,0.07032 0.462078,0.140633 0.195881,0.07032 0.316424,0.160723 0.125564,0.09041 0.180813,0.210949 0.06027,0.115519 0.06027,0.281265 0,0.386739 -0.286288,0.612756 -0.286287,0.220994 -0.778501,0.220994 z"
           style="font-weight:bold;font-family:Raleway;-inkscape-font-specification:Raleway;vector-effect:none;stop-color:#000000;stop-opacity:1"
           id="path509" /><path
           d="m 57.187307,67.332129 q 0,-0.276242 0.09543,-0.522349 0.09543,-0.246107 0.276243,-0.431943 0.180813,-0.185836 0.436965,-0.296333 0.256152,-0.110497 0.577598,-0.110497 0.431943,0 0.733298,0.185836 0.306378,0.185836 0.457056,0.487191 l -0.657959,0.200904 q -0.08538,-0.145655 -0.226017,-0.220994 -0.140632,-0.08036 -0.3114,-0.08036 -0.145656,0 -0.27122,0.06027 -0.125565,0.05525 -0.220994,0.160723 -0.09041,0.100452 -0.145655,0.246107 -0.05023,0.145655 -0.05023,0.321446 0,0.175791 0.05525,0.321446 0.05525,0.145655 0.145655,0.251129 0.09543,0.105475 0.220994,0.165746 0.125565,0.05525 0.266198,0.05525 0.180813,0 0.33149,-0.09041 0.155701,-0.09041 0.215972,-0.220994 L 59.77394,68.0152 q -0.13561,0.301356 -0.44701,0.492214 -0.311401,0.190859 -0.748366,0.190859 -0.321446,0 -0.577598,-0.110497 -0.256152,-0.110497 -0.436965,-0.296333 -0.180814,-0.190859 -0.281266,-0.436966 -0.09543,-0.251129 -0.09543,-0.522349 z"
           style="font-weight:bold;font-family:Raleway;-inkscape-font-specification:Raleway;vector-effect:none;stop-color:#000000;stop-opacity:1"
           id="path510" /><path
           d="m 61.376137,68.698274 q -0.321446,0 -0.577598,-0.110497 -0.256152,-0.110497 -0.436965,-0.296333 -0.175791,-0.190859 -0.27122,-0.436966 -0.09543,-0.246106 -0.09543,-0.517326 0,-0.276243 0.09543,-0.52235 0.09543,-0.246107 0.27122,-0.431942 0.180813,-0.190859 0.436965,-0.301356 0.256152,-0.110497 0.577598,-0.110497 0.321446,0 0.572575,0.110497 0.256152,0.110497 0.431943,0.301356 0.180813,0.185835 0.276242,0.431942 0.09543,0.246107 0.09543,0.52235 0,0.27122 -0.09543,0.517326 -0.09543,0.246107 -0.27122,0.436966 -0.17579,0.185836 -0.431942,0.296333 -0.256152,0.110497 -0.577598,0.110497 z m -0.688095,-1.361122 q 0,0.17579 0.05023,0.321445 0.05525,0.140633 0.145655,0.246107 0.09543,0.105475 0.220994,0.165746 0.125565,0.05525 0.27122,0.05525 0.145655,0 0.27122,-0.05525 0.125564,-0.06027 0.215971,-0.165746 0.09543,-0.105474 0.145655,-0.251129 0.05525,-0.145655 0.05525,-0.321446 0,-0.170768 -0.05525,-0.316423 -0.05023,-0.145655 -0.145655,-0.25113 -0.09041,-0.105474 -0.215971,-0.160723 -0.125565,-0.06027 -0.27122,-0.06027 -0.145655,0 -0.27122,0.06027 -0.125565,0.06027 -0.220994,0.165746 -0.09041,0.105474 -0.145655,0.251129 -0.05023,0.145656 -0.05023,0.316424 z"
           style="font-weight:bold;font-family:Raleway;-inkscape-font-specification:Raleway;vector-effect:none;stop-color:#000000;stop-opacity:1"
           id="path511" /><path
           d="m 64.198829,68.698274 q -0.331491,0 -0.647914,-0.105475 -0.316424,-0.105474 -0.54244,-0.301355 l 0.251129,-0.421898 q 0.241085,0.170768 0.467101,0.261175 0.231039,0.08538 0.457056,0.08538 0.200904,0 0.316423,-0.07534 0.11552,-0.07534 0.11552,-0.215971 0,-0.140633 -0.13561,-0.205927 -0.13561,-0.06529 -0.441988,-0.150677 -0.256152,-0.07032 -0.436966,-0.13561 -0.180813,-0.06529 -0.29131,-0.145655 -0.110497,-0.08538 -0.160723,-0.190859 -0.05023,-0.110497 -0.05023,-0.261174 0,-0.200904 0.07534,-0.361627 0.08036,-0.160723 0.220994,-0.27122 0.140633,-0.115519 0.326469,-0.17579 0.190858,-0.06027 0.411852,-0.06027 0.296333,0 0.552485,0.08538 0.261175,0.08538 0.477146,0.276242 l -0.27122,0.40683 q -0.200903,-0.150678 -0.391762,-0.220994 -0.185836,-0.07032 -0.371672,-0.07032 -0.170768,0 -0.286287,0.07032 -0.11552,0.07032 -0.11552,0.226016 0,0.07032 0.02511,0.11552 0.03014,0.0452 0.09041,0.08036 0.06027,0.03516 0.1557,0.07032 0.100452,0.03014 0.246107,0.06529 0.27122,0.07032 0.462078,0.140633 0.195881,0.07032 0.316423,0.160723 0.125565,0.09041 0.180814,0.210949 0.06027,0.115519 0.06027,0.281265 0,0.386739 -0.286288,0.612756 -0.286287,0.220994 -0.778501,0.220994 z"
           style="font-weight:bold;font-family:Raleway;-inkscape-font-specification:Raleway;vector-effect:none;stop-color:#000000;stop-opacity:1"
           id="path512" /><path
           d="m 66.418812,68.698274 q -0.190859,0 -0.356604,-0.06027 -0.165746,-0.06529 -0.286288,-0.17579 -0.120542,-0.11552 -0.190858,-0.266197 -0.06529,-0.150678 -0.06529,-0.331491 0,-0.185836 0.08036,-0.341537 0.08538,-0.160722 0.23104,-0.271219 0.150677,-0.110497 0.356603,-0.170768 0.205927,-0.06529 0.452034,-0.06529 0.17579,0 0.341536,0.03014 0.170768,0.03014 0.301355,0.08538 v -0.150677 q 0,-0.261175 -0.150678,-0.401807 -0.145655,-0.140633 -0.436965,-0.140633 -0.210949,0 -0.411852,0.07534 -0.200904,0.07534 -0.411853,0.220994 l -0.205926,-0.42692 q 0.507282,-0.336514 1.094925,-0.336514 0.567552,0 0.878953,0.281265 0.316423,0.276243 0.316423,0.803615 v 0.818682 q 0,0.105474 0.03516,0.150677 0.04018,0.0452 0.125565,0.05023 v 0.572576 q -0.170768,0.03516 -0.296333,0.03516 -0.190858,0 -0.296333,-0.08538 -0.100451,-0.08538 -0.125564,-0.226017 l -0.01507,-0.145655 q -0.175791,0.231039 -0.42692,0.351581 -0.25113,0.120543 -0.537417,0.120543 z M 66.60967,68.20606 q 0.170768,0 0.321446,-0.06027 0.1557,-0.06027 0.241084,-0.160723 0.110497,-0.08538 0.110497,-0.190859 v -0.301355 q -0.120542,-0.0452 -0.261175,-0.07032 -0.140632,-0.03014 -0.271219,-0.03014 -0.261175,0 -0.426921,0.120542 -0.165745,0.11552 -0.165745,0.296333 0,0.170768 0.130587,0.286288 0.130588,0.110497 0.321446,0.110497 z"
           style="font-weight:bold;font-family:Raleway;-inkscape-font-specification:Raleway;vector-effect:none;stop-color:#000000;stop-opacity:1"
           id="path513" /><path
           d="m 69.578019,68.698274 q -0.331491,0 -0.647914,-0.105475 -0.316423,-0.105474 -0.54244,-0.301355 l 0.25113,-0.421898 q 0.241084,0.170768 0.467101,0.261175 0.231039,0.08538 0.457055,0.08538 0.200904,0 0.316424,-0.07534 0.115519,-0.07534 0.115519,-0.215971 0,-0.140633 -0.13561,-0.205927 -0.13561,-0.06529 -0.441988,-0.150677 -0.256152,-0.07032 -0.436965,-0.13561 -0.180813,-0.06529 -0.29131,-0.145655 -0.110497,-0.08538 -0.160723,-0.190859 -0.05023,-0.110497 -0.05023,-0.261174 0,-0.200904 0.07534,-0.361627 0.08036,-0.160723 0.220994,-0.27122 0.140632,-0.115519 0.326468,-0.17579 0.190858,-0.06027 0.411852,-0.06027 0.296333,0 0.552485,0.08538 0.261175,0.08538 0.477146,0.276242 l -0.271219,0.40683 q -0.200904,-0.150678 -0.391762,-0.220994 -0.185836,-0.07032 -0.371672,-0.07032 -0.170768,0 -0.286288,0.07032 -0.115519,0.07032 -0.115519,0.226016 0,0.07032 0.02511,0.11552 0.03013,0.0452 0.09041,0.08036 0.06027,0.03516 0.155701,0.07032 0.100451,0.03014 0.246106,0.06529 0.27122,0.07032 0.462079,0.140633 0.195881,0.07032 0.316423,0.160723 0.125565,0.09041 0.180813,0.210949 0.06027,0.115519 0.06027,0.281265 0,0.386739 -0.286287,0.612756 -0.286288,0.220994 -0.778502,0.220994 z"
           style="font-weight:bold;font-family:Raleway;-inkscape-font-specification:Raleway;vector-effect:none;stop-color:#000000;stop-opacity:1"
           id="path514" /><path
           d="m 71.064702,68.648048 v -0.723253 h 0.552485 v 0.723253 z"
           style="font-weight:bold;font-family:Raleway;-inkscape-font-specification:Raleway;vector-effect:none;stop-color:#000000;stop-opacity:1"
           id="path515" /><path
           d="m 72.194779,68.648048 v -0.723253 h 0.552485 v 0.723253 z"
           style="font-weight:bold;font-family:Raleway;-inkscape-font-specification:Raleway;vector-effect:none;stop-color:#000000;stop-opacity:1"
           id="path516" /><path
           d="m 73.324853,68.648048 v -0.723253 h 0.552485 v 0.723253 z"
           style="font-weight:bold;font-family:Raleway;-inkscape-font-specification:Raleway;vector-effect:none;stop-color:#000000;stop-opacity:1"
           id="path517" /></g></g></g></svg>
