<?xml version="1.0" encoding="UTF-8" standalone="no"?>
<svg
   width="700.00037"
   height="220"
   viewBox="0 0 185.20843 58.208335"
   version="1.1"
   id="svg243962"
   xml:space="preserve"
   xmlns="http://www.w3.org/2000/svg"
   xmlns:svg="http://www.w3.org/2000/svg"><defs
     id="defs243959" /><g
     id="layer2"
     style="font-variation-settings:normal;opacity:1;vector-effect:none;fill:#cbe1fb;fill-opacity:1;stroke-width:0.125564;stroke-linecap:butt;stroke-linejoin:miter;stroke-miterlimit:4;stroke-dasharray:none;stroke-dashoffset:0;stroke-opacity:1;-inkscape-stroke:none;stop-color:#000000;stop-opacity:1"
     transform="translate(-976.04219)"><g
       id="layer3-6"
       transform="translate(968.73295,-31.837979)"
       style="font-variation-settings:normal;vector-effect:none;fill:#cbe1fb;fill-opacity:1;stroke-width:0.125564;stroke-linecap:butt;stroke-linejoin:miter;stroke-miterlimit:4;stroke-dasharray:none;stroke-dashoffset:0;stroke-opacity:1;-inkscape-stroke:none;stop-color:#000000;stop-opacity:1"><g
         aria-label="Velkomin!"
         id="text118971-7"
         style="font-size:13.5986px;line-height:1.25;font-family:'Roboto Condensed';-inkscape-font-specification:'Roboto Condensed, ';vector-effect:none;stroke-width:0.125564;stop-color:#000000;stop-opacity:1"><path
           d="m 16.92198,40.620407 2.610932,7.302449 2.583734,-7.302449 h 1.971797 l -3.766813,9.655007 h -1.577437 l -3.79401,-9.655007 z"
           style="font-weight:bold;font-family:Raleway;-inkscape-font-specification:Raleway;vector-effect:none;stop-color:#000000;stop-opacity:1"
           id="path408" /><path
           d="m 27.379271,50.4114 q -0.856712,0 -1.55024,-0.285571 -0.693529,-0.299169 -1.183079,-0.802318 -0.489549,-0.503148 -0.761521,-1.169479 -0.258374,-0.666332 -0.258374,-1.400656 0,-0.761522 0.258374,-1.427853 0.258373,-0.67993 0.747923,-1.183078 0.489549,-0.516747 1.183078,-0.815916 0.707127,-0.299169 1.577438,-0.299169 0.87031,0 1.55024,0.299169 0.693529,0.299169 1.16948,0.802317 0.489549,0.503148 0.734324,1.16948 0.258374,0.666331 0.258374,1.387057 0,0.176782 -0.0136,0.339965 0,0.163183 -0.0272,0.271972 h -5.507433 q 0.0408,0.421557 0.203979,0.747923 0.163183,0.326366 0.421556,0.557543 0.258374,0.231176 0.58474,0.353563 0.326366,0.122388 0.67993,0.122388 0.543944,0 1.019895,-0.258374 0.48955,-0.271972 0.666331,-0.707127 l 1.563839,0.435155 Q 30.30297,49.364307 29.43266,49.894653 28.575948,50.4114 27.379271,50.4114 Z m 1.84941,-4.297158 q -0.06799,-0.802318 -0.598339,-1.278269 -0.516747,-0.489549 -1.26467,-0.489549 -0.367162,0 -0.693528,0.135986 -0.312768,0.122387 -0.557543,0.353563 -0.244775,0.231177 -0.407958,0.557543 -0.149584,0.326366 -0.176782,0.720726 z"
           style="font-weight:bold;font-family:Raleway;-inkscape-font-specification:Raleway;vector-effect:none;stop-color:#000000;stop-opacity:1"
           id="path409" /><path
           d="m 32.206761,40.348435 h 1.822213 v 7.642414 q 0,0.394359 0.19038,0.611937 0.190381,0.217577 0.543944,0.217577 0.163183,0 0.353564,-0.05439 0.203979,-0.05439 0.380761,-0.135986 l 0.244774,1.387057 q -0.367162,0.176782 -0.856711,0.271972 -0.48955,0.09519 -0.883909,0.09519 -0.856712,0 -1.332663,-0.448753 -0.462353,-0.462353 -0.462353,-1.305466 z"
           style="font-weight:bold;font-family:Raleway;-inkscape-font-specification:Raleway;vector-effect:none;stop-color:#000000;stop-opacity:1"
           id="path410" /><path
           d="m 41.399408,50.275414 -2.066987,-3.086883 -0.9791,0.965501 v 2.121382 h -1.822212 v -9.926979 h 1.822212 v 6.02418 l 2.855707,-3.209269 h 1.944599 l -2.651727,3.018889 2.842108,4.093179 z"
           style="font-weight:bold;font-family:Raleway;-inkscape-font-specification:Raleway;vector-effect:none;stop-color:#000000;stop-opacity:1"
           id="path411" /><path
           d="m 47.042803,50.4114 q -0.87031,0 -1.563839,-0.29917 -0.693529,-0.299169 -1.183078,-0.802317 -0.475951,-0.516747 -0.734325,-1.183078 -0.258373,-0.666332 -0.258373,-1.400656 0,-0.747923 0.258373,-1.414255 0.258374,-0.666331 0.734325,-1.169479 0.489549,-0.516747 1.183078,-0.815916 0.693529,-0.299169 1.563839,-0.299169 0.870311,0 1.550241,0.299169 0.693528,0.299169 1.169479,0.815916 0.48955,0.503148 0.747923,1.169479 0.258374,0.666332 0.258374,1.414255 0,0.734324 -0.258374,1.400656 -0.258373,0.666331 -0.734324,1.183078 -0.475951,0.503148 -1.16948,0.802317 -0.693528,0.29917 -1.563839,0.29917 z m -1.863008,-3.685221 q 0,0.475951 0.135986,0.87031 0.149584,0.380761 0.394359,0.666332 0.258374,0.28557 0.598339,0.448753 0.339965,0.149585 0.734324,0.149585 0.39436,0 0.734325,-0.149585 0.339965,-0.163183 0.584739,-0.448753 0.258374,-0.285571 0.39436,-0.67993 0.149584,-0.39436 0.149584,-0.870311 0,-0.462352 -0.149584,-0.856712 -0.135986,-0.394359 -0.39436,-0.67993 -0.244774,-0.28557 -0.584739,-0.435155 -0.339965,-0.163183 -0.734325,-0.163183 -0.394359,0 -0.734324,0.163183 -0.339965,0.163183 -0.598339,0.448754 -0.244775,0.285571 -0.394359,0.67993 -0.135986,0.394359 -0.135986,0.856712 z"
           style="font-weight:bold;font-family:Raleway;-inkscape-font-specification:Raleway;vector-effect:none;stop-color:#000000;stop-opacity:1"
           id="path412" /><path
           d="m 63.061939,50.275414 h -1.822213 v -3.997989 q 0,-0.856712 -0.299169,-1.251071 -0.285571,-0.39436 -0.802318,-0.39436 -0.543944,0 -1.019895,0.421557 -0.475951,0.407958 -0.67993,1.074289 v 4.147574 h -1.822212 v -3.997989 q 0,-0.856712 -0.299169,-1.251071 -0.285571,-0.39436 -0.802318,-0.39436 -0.530345,0 -1.019895,0.407958 -0.475951,0.407958 -0.67993,1.07429 v 4.161172 h -1.822212 v -7.125667 h 1.64543 v 1.319064 q 0.39436,-0.693528 1.07429,-1.060691 0.693529,-0.38076 1.577438,-0.38076 0.897507,0 1.387057,0.435155 0.489549,0.435155 0.625535,1.074289 0.435156,-0.734324 1.101487,-1.115085 0.666331,-0.394359 1.523043,-0.394359 0.652733,0 1.07429,0.244774 0.421556,0.244775 0.652733,0.639135 0.231176,0.394359 0.312767,0.897507 0.09519,0.503148 0.09519,1.019895 z"
           style="font-weight:bold;font-family:Raleway;-inkscape-font-specification:Raleway;vector-effect:none;stop-color:#000000;stop-opacity:1"
           id="path413" /><path
           d="m 64.652971,50.275414 v -7.125667 h 1.822213 v 7.125667 z m 0,-8.118365 v -1.808614 h 1.822213 v 1.808614 z"
           style="font-weight:bold;font-family:Raleway;-inkscape-font-specification:Raleway;vector-effect:none;stop-color:#000000;stop-opacity:1"
           id="path414" /><path
           d="M 74.743122,50.275414 H 72.92091 v -3.997989 q 0,-0.856712 -0.29917,-1.251071 -0.299169,-0.39436 -0.829514,-0.39436 -0.271972,0 -0.557543,0.108789 -0.28557,0.108789 -0.543944,0.312768 -0.244775,0.19038 -0.448754,0.462352 -0.203979,0.271972 -0.299169,0.598339 v 4.161172 h -1.822212 v -7.125667 h 1.64543 v 1.319064 q 0.39436,-0.67993 1.142283,-1.060691 0.747923,-0.38076 1.686226,-0.38076 0.666332,0 1.087888,0.244774 0.421557,0.244775 0.652733,0.639135 0.231176,0.394359 0.312768,0.897507 0.09519,0.503148 0.09519,1.019895 z"
           style="font-weight:bold;font-family:Raleway;-inkscape-font-specification:Raleway;vector-effect:none;stop-color:#000000;stop-opacity:1"
           id="path415" /><path
           d="m 76.687699,46.644587 v -6.11937 h 1.822212 v 6.11937 z m 0,3.630827 v -2.053389 h 1.822212 v 2.053389 z"
           style="font-weight:bold;font-family:Raleway;-inkscape-font-specification:Raleway;vector-effect:none;stop-color:#000000;stop-opacity:1"
           id="path416" /></g><g
         aria-label="Við ættum að stilla
      nokkur atriði..."
         id="text115541-8"
         style="font-size:5.02259px;line-height:1.25;font-family:'Roboto Condensed';-inkscape-font-specification:'Roboto Condensed, ';vector-effect:none;stroke-width:0.125564;stop-color:#000000;stop-opacity:1"><path
           d="m 28.588918,58.993836 0.964337,2.697131 0.954293,-2.697131 h 0.728275 l -1.391257,3.566039 h -0.582621 l -1.401302,-3.566039 z"
           style="font-weight:bold;font-family:Raleway;-inkscape-font-specification:Raleway;vector-effect:none;stop-color:#000000;stop-opacity:1"
           id="path377" /><path
           d="m 31.55224,62.559875 v -2.631837 h 0.673027 v 2.631837 z m 0,-2.998486 v -0.668004 h 0.673027 v 0.668004 z"
           style="font-weight:bold;font-family:Raleway;-inkscape-font-specification:Raleway;vector-effect:none;stop-color:#000000;stop-opacity:1"
           id="path378" /><path
           d="m 35.1685,59.244966 -0.356603,0.195881 q 0.316423,0.366649 0.472123,0.808637 0.1557,0.436965 0.1557,0.85384 0,0.351582 -0.105474,0.632847 -0.105474,0.276242 -0.29131,0.472123 -0.180814,0.195881 -0.436966,0.301356 -0.256152,0.100451 -0.557507,0.100451 -0.29131,0 -0.54244,-0.09041 -0.246107,-0.09543 -0.431943,-0.256152 -0.180813,-0.165746 -0.286287,-0.38674 -0.105475,-0.226016 -0.105475,-0.487191 0,-0.246107 0.09543,-0.467101 0.09543,-0.220994 0.256152,-0.381717 0.165745,-0.160723 0.386739,-0.256152 0.220994,-0.09543 0.477146,-0.09543 0.261175,0 0.487191,0.110497 0.226017,0.105474 0.366649,0.281265 -0.05525,-0.241084 -0.160722,-0.467101 -0.105475,-0.226016 -0.291311,-0.436965 l -0.467101,0.261174 -0.195881,-0.261174 0.426921,-0.236062 Q 33.902808,59.300209 33.706927,59.1646 33.511046,59.02899 33.259916,58.89338 h 0.863886 q 0.241084,0.130587 0.452033,0.3114 l 0.396784,-0.226016 z m -1.793064,2.139623 q 0,0.140633 0.05023,0.261175 0.05525,0.11552 0.145655,0.205926 0.09041,0.08538 0.215971,0.13561 0.125565,0.05023 0.27122,0.05023 0.150678,0 0.276242,-0.05023 0.125565,-0.05525 0.215972,-0.145655 0.09543,-0.09041 0.145655,-0.210949 0.05525,-0.120542 0.05525,-0.261174 0,-0.140633 -0.05525,-0.256152 -0.05023,-0.11552 -0.140633,-0.200904 -0.09041,-0.08538 -0.215971,-0.130587 -0.125565,-0.05023 -0.27122,-0.05023 -0.150678,0 -0.276242,0.05023 -0.125565,0.05022 -0.220994,0.140632 -0.09041,0.08538 -0.145655,0.205926 -0.05023,0.11552 -0.05023,0.256152 z"
           style="font-weight:bold;font-family:Raleway;-inkscape-font-specification:Raleway;vector-effect:none;stop-color:#000000;stop-opacity:1"
           id="path379" /><path
           d="m 37.835489,62.610101 q -0.190858,0 -0.356604,-0.06027 -0.165745,-0.06529 -0.286287,-0.17579 -0.120543,-0.11552 -0.190859,-0.266198 -0.06529,-0.150677 -0.06529,-0.331491 0,-0.185835 0.08036,-0.341536 0.08538,-0.160723 0.231039,-0.27122 0.150678,-0.110497 0.356604,-0.170768 0.205926,-0.06529 0.452033,-0.06529 0.160723,0 0.316423,0.02511 0.1557,0.02511 0.276243,0.07534 0.005,-0.0452 0.01507,-0.110496 0.01005,-0.07032 0.02511,-0.110497 -0.0452,-0.457056 -0.577597,-0.457056 -0.210949,0 -0.411853,0.07534 -0.200903,0.07534 -0.416875,0.220994 L 37.07708,60.219352 q 0.517327,-0.336513 1.099947,-0.336513 0.311401,0 0.54244,0.100452 0.231039,0.09543 0.376694,0.27122 0.165746,-0.170768 0.401807,-0.27122 0.236062,-0.100452 0.532395,-0.100452 0.321446,0 0.577598,0.110497 0.256152,0.110497 0.431943,0.296333 0.180813,0.185836 0.276242,0.431942 0.09543,0.246107 0.09543,0.52235 0,0.05525 -0.005,0.115519 -0.005,0.06027 -0.01005,0.100452 h -2.059261 q 0.02511,0.311401 0.231039,0.487191 0.210948,0.170769 0.492213,0.170769 0.200904,0 0.376695,-0.09543 0.180813,-0.100451 0.246107,-0.261174 l 0.577598,0.160723 q -0.145656,0.301355 -0.467101,0.497236 -0.321446,0.190858 -0.758411,0.190858 -0.376695,0 -0.668005,-0.145655 -0.286288,-0.150677 -0.462078,-0.396784 -0.09041,0.145655 -0.215972,0.246107 -0.125564,0.100451 -0.271219,0.170768 -0.140633,0.06529 -0.296333,0.09543 -0.150678,0.03014 -0.286288,0.03014 z m 0.190858,-0.492213 q 0.170769,0 0.321446,-0.06027 0.150678,-0.06027 0.241085,-0.160722 0.05022,-0.04018 0.08036,-0.08538 0.03014,-0.05023 0.03014,-0.09543 -0.01005,-0.02009 -0.02009,-0.06529 -0.01005,-0.0452 -0.01507,-0.09041 -0.005,-0.05023 -0.01005,-0.09543 -0.005,-0.05023 -0.005,-0.07534 -0.110497,-0.04018 -0.241085,-0.06027 -0.125564,-0.02511 -0.241084,-0.02511 -0.261175,0 -0.431943,0.120542 -0.165745,0.11552 -0.165745,0.296333 0,0.170768 0.130587,0.286288 0.13561,0.110497 0.326468,0.110497 z m 2.692109,-1.074835 q -0.02511,-0.301355 -0.220994,-0.487191 -0.190859,-0.185836 -0.477146,-0.185836 -0.286288,0 -0.477146,0.185836 -0.190859,0.185836 -0.215972,0.487191 z"
           style="font-weight:bold;font-family:Raleway;-inkscape-font-specification:Raleway;vector-effect:none;stop-color:#000000;stop-opacity:1"
           id="path380" /><path
           d="m 43.380413,62.424266 q -0.13561,0.06027 -0.331491,0.120542 -0.195881,0.06027 -0.411852,0.06027 -0.140633,0 -0.266198,-0.03516 -0.120542,-0.03516 -0.215971,-0.110497 -0.09041,-0.08036 -0.145655,-0.200904 -0.05525,-0.125565 -0.05525,-0.301355 v -1.5118 h -0.346558 v -0.517327 h 0.346558 v -0.85384 h 0.673027 v 0.85384 h 0.552485 v 0.517327 h -0.552485 v 1.285783 q 0,0.140633 0.07032,0.200904 0.07534,0.05525 0.180813,0.05525 0.105474,0 0.205926,-0.03516 0.100452,-0.03516 0.160723,-0.06027 z"
           style="font-weight:bold;font-family:Raleway;-inkscape-font-specification:Raleway;vector-effect:none;stop-color:#000000;stop-opacity:1"
           id="path381" /><path
           d="m 45.309082,62.424266 q -0.13561,0.06027 -0.331491,0.120542 -0.195881,0.06027 -0.411852,0.06027 -0.140633,0 -0.266198,-0.03516 -0.120542,-0.03516 -0.215971,-0.110497 -0.09041,-0.08036 -0.145655,-0.200904 -0.05525,-0.125565 -0.05525,-0.301355 v -1.5118 h -0.346558 v -0.517327 h 0.346558 v -0.85384 h 0.673027 v 0.85384 h 0.552485 v 0.517327 h -0.552485 v 1.285783 q 0,0.140633 0.07032,0.200904 0.07534,0.05525 0.180813,0.05525 0.105474,0 0.205926,-0.03516 0.100452,-0.03516 0.160723,-0.06027 z"
           style="font-weight:bold;font-family:Raleway;-inkscape-font-specification:Raleway;vector-effect:none;stop-color:#000000;stop-opacity:1"
           id="path382" /><path
           d="m 46.464271,62.610101 q -0.40683,0 -0.617779,-0.261174 -0.210948,-0.261175 -0.210948,-0.773479 v -1.64741 h 0.673027 v 1.501755 q 0,0.607733 0.436965,0.607733 0.195881,0 0.376694,-0.115519 0.185836,-0.120543 0.301356,-0.361627 v -1.632342 h 0.673027 v 1.858359 q 0,0.105474 0.03516,0.150677 0.04018,0.0452 0.125565,0.05023 v 0.572575 q -0.100452,0.02009 -0.170768,0.02511 -0.06529,0.005 -0.120543,0.005 -0.180813,0 -0.296332,-0.08036 -0.110497,-0.08538 -0.130588,-0.23104 l -0.01507,-0.210948 q -0.175791,0.27122 -0.452034,0.406829 -0.276242,0.13561 -0.607733,0.13561 z"
           style="font-weight:bold;font-family:Raleway;-inkscape-font-specification:Raleway;vector-effect:none;stop-color:#000000;stop-opacity:1"
           id="path383" /><path
           d="M 52.852997,62.559875 H 52.17997 v -1.476641 q 0,-0.316423 -0.110497,-0.462078 -0.105474,-0.145655 -0.296333,-0.145655 -0.200903,0 -0.376694,0.1557 -0.17579,0.150678 -0.251129,0.396784 v 1.53189 H 50.47229 v -1.476641 q 0,-0.316423 -0.110497,-0.462078 -0.105475,-0.145655 -0.296333,-0.145655 -0.195881,0 -0.376694,0.150677 -0.175791,0.150678 -0.25113,0.396785 v 1.536912 h -0.673027 v -2.631837 h 0.607733 v 0.487191 q 0.145655,-0.256152 0.396785,-0.391762 0.256152,-0.140632 0.58262,-0.140632 0.331491,0 0.512305,0.160723 0.180813,0.160723 0.231039,0.396784 0.160723,-0.271219 0.40683,-0.411852 0.246107,-0.145655 0.56253,-0.145655 0.241084,0 0.396784,0.09041 0.155701,0.09041 0.241085,0.236061 0.08538,0.145655 0.115519,0.331491 0.03516,0.185836 0.03516,0.376695 z"
           style="font-weight:bold;font-family:Raleway;-inkscape-font-specification:Raleway;vector-effect:none;stop-color:#000000;stop-opacity:1"
           id="path384" /><path
           d="m 55.36429,62.610101 q -0.190858,0 -0.356604,-0.06027 -0.165745,-0.06529 -0.286288,-0.17579 -0.120542,-0.11552 -0.190858,-0.266198 -0.06529,-0.150677 -0.06529,-0.331491 0,-0.185835 0.08036,-0.341536 0.08538,-0.160723 0.231039,-0.27122 0.150678,-0.110497 0.356604,-0.170768 0.205926,-0.06529 0.452033,-0.06529 0.175791,0 0.341536,0.03014 0.170768,0.03014 0.301356,0.08538 v -0.150677 q 0,-0.261175 -0.150678,-0.401808 -0.145655,-0.140632 -0.436966,-0.140632 -0.210948,0 -0.411852,0.07534 -0.200904,0.07534 -0.411852,0.220994 l -0.205927,-0.426921 q 0.507282,-0.336513 1.094925,-0.336513 0.567553,0 0.878953,0.281265 0.316424,0.276242 0.316424,0.803614 v 0.818683 q 0,0.105474 0.03516,0.150677 0.04018,0.0452 0.125564,0.05023 v 0.572575 q -0.170768,0.03516 -0.296332,0.03516 -0.190859,0 -0.296333,-0.08538 -0.100452,-0.08538 -0.125565,-0.226017 l -0.01507,-0.145655 q -0.17579,0.231039 -0.42692,0.351581 -0.251129,0.120542 -0.537417,0.120542 z m 0.190858,-0.492213 q 0.170769,0 0.321446,-0.06027 0.155701,-0.06027 0.241085,-0.160722 0.110497,-0.08538 0.110497,-0.190859 V 61.40468 q -0.120543,-0.0452 -0.261175,-0.07032 -0.140633,-0.03014 -0.27122,-0.03014 -0.261175,0 -0.42692,0.120542 -0.165746,0.11552 -0.165746,0.296333 0,0.170768 0.130588,0.286288 0.130587,0.110497 0.321445,0.110497 z"
           style="font-weight:bold;font-family:Raleway;-inkscape-font-specification:Raleway;vector-effect:none;stop-color:#000000;stop-opacity:1"
           id="path385" /><path
           d="m 59.864527,59.244966 -0.356604,0.195881 q 0.316424,0.366649 0.472124,0.808637 0.1557,0.436965 0.1557,0.85384 0,0.351582 -0.105474,0.632847 -0.105475,0.276242 -0.291311,0.472123 -0.180813,0.195881 -0.436965,0.301356 -0.256152,0.100451 -0.557507,0.100451 -0.291311,0 -0.54244,-0.09041 -0.246107,-0.09543 -0.431943,-0.256152 -0.180813,-0.165746 -0.286288,-0.38674 -0.105474,-0.226016 -0.105474,-0.487191 0,-0.246107 0.09543,-0.467101 0.09543,-0.220994 0.256152,-0.381717 0.165746,-0.160723 0.38674,-0.256152 0.220994,-0.09543 0.477146,-0.09543 0.261175,0 0.487191,0.110497 0.226017,0.105474 0.366649,0.281265 -0.05525,-0.241084 -0.160723,-0.467101 -0.105474,-0.226016 -0.29131,-0.436965 l -0.467101,0.261174 -0.195881,-0.261174 0.42692,-0.236062 Q 58.598836,59.300209 58.402954,59.1646 58.207073,59.02899 57.955944,58.89338 h 0.863885 q 0.241085,0.130587 0.452034,0.3114 l 0.396784,-0.226016 z m -1.793064,2.139623 q 0,0.140633 0.05022,0.261175 0.05525,0.11552 0.145656,0.205926 0.09041,0.08538 0.215971,0.13561 0.125565,0.05023 0.27122,0.05023 0.150678,0 0.276242,-0.05023 0.125565,-0.05525 0.215972,-0.145655 0.09543,-0.09041 0.145655,-0.210949 0.05525,-0.120542 0.05525,-0.261174 0,-0.140633 -0.05525,-0.256152 -0.05023,-0.11552 -0.140633,-0.200904 -0.09041,-0.08538 -0.215971,-0.130587 -0.125565,-0.05023 -0.27122,-0.05023 -0.150678,0 -0.276242,0.05023 -0.125565,0.05022 -0.220994,0.140632 -0.09041,0.08538 -0.145656,0.205926 -0.05022,0.11552 -0.05022,0.256152 z"
           style="font-weight:bold;font-family:Raleway;-inkscape-font-specification:Raleway;vector-effect:none;stop-color:#000000;stop-opacity:1"
           id="path386" /><path
           d="m 62.807759,62.610101 q -0.331491,0 -0.647914,-0.105474 -0.316423,-0.105474 -0.54244,-0.301355 l 0.25113,-0.421898 q 0.241084,0.170768 0.467101,0.261175 0.231039,0.08538 0.457055,0.08538 0.200904,0 0.316424,-0.07534 0.115519,-0.07534 0.115519,-0.215971 0,-0.140633 -0.13561,-0.205927 -0.13561,-0.06529 -0.441988,-0.150677 -0.256152,-0.07032 -0.436965,-0.13561 -0.180813,-0.06529 -0.29131,-0.145655 -0.110497,-0.08538 -0.160723,-0.190859 -0.05023,-0.110497 -0.05023,-0.261175 0,-0.200903 0.07534,-0.361626 0.08036,-0.160723 0.220994,-0.27122 0.140632,-0.115519 0.326468,-0.175791 0.190859,-0.06027 0.411853,-0.06027 0.296332,0 0.552485,0.08538 0.261174,0.08538 0.477146,0.276243 l -0.27122,0.40683 q -0.200904,-0.150678 -0.391762,-0.220994 -0.185836,-0.07032 -0.371672,-0.07032 -0.170768,0 -0.286288,0.07032 -0.115519,0.07032 -0.115519,0.226016 0,0.07032 0.02511,0.11552 0.03014,0.0452 0.09041,0.08036 0.06027,0.03516 0.155701,0.07032 0.100451,0.03013 0.246107,0.06529 0.271219,0.07032 0.462078,0.140633 0.195881,0.07032 0.316423,0.160723 0.125565,0.09041 0.180813,0.210948 0.06027,0.11552 0.06027,0.281265 0,0.38674 -0.286287,0.612756 -0.286288,0.220994 -0.778502,0.220994 z"
           style="font-weight:bold;font-family:Raleway;-inkscape-font-specification:Raleway;vector-effect:none;stop-color:#000000;stop-opacity:1"
           id="path387" /><path
           d="m 65.886607,62.424266 q -0.13561,0.06027 -0.331491,0.120542 -0.195881,0.06027 -0.411852,0.06027 -0.140633,0 -0.266198,-0.03516 -0.120542,-0.03516 -0.215971,-0.110497 -0.09041,-0.08036 -0.145655,-0.200904 -0.05525,-0.125565 -0.05525,-0.301355 v -1.5118 h -0.346558 v -0.517327 h 0.346558 v -0.85384 h 0.673027 v 0.85384 h 0.552485 v 0.517327 h -0.552485 v 1.285783 q 0,0.140633 0.07032,0.200904 0.07534,0.05525 0.180813,0.05525 0.105474,0 0.205926,-0.03516 0.100452,-0.03516 0.160723,-0.06027 z"
           style="font-weight:bold;font-family:Raleway;-inkscape-font-specification:Raleway;vector-effect:none;stop-color:#000000;stop-opacity:1"
           id="path388" /><path
           d="m 66.238183,62.559875 v -2.631837 h 0.673027 v 2.631837 z m 0,-2.998486 v -0.668004 h 0.673027 v 0.668004 z"
           style="font-weight:bold;font-family:Raleway;-inkscape-font-specification:Raleway;vector-effect:none;stop-color:#000000;stop-opacity:1"
           id="path389" /><path
           d="m 67.513914,58.893385 h 0.673027 v 2.822695 q 0,0.145655 0.07032,0.226017 0.07032,0.08036 0.200904,0.08036 0.06027,0 0.130587,-0.02009 0.07534,-0.02009 0.140633,-0.05023 l 0.09041,0.512304 q -0.13561,0.06529 -0.316424,0.100452 -0.180813,0.03516 -0.326468,0.03516 -0.316423,0 -0.492214,-0.165745 -0.170768,-0.170768 -0.170768,-0.482169 z"
           style="font-weight:bold;font-family:Raleway;-inkscape-font-specification:Raleway;vector-effect:none;stop-color:#000000;stop-opacity:1"
           id="path390" /><path
           d="m 69.106073,58.893385 h 0.673028 v 2.822695 q 0,0.145655 0.07032,0.226017 0.07032,0.08036 0.200903,0.08036 0.06027,0 0.130588,-0.02009 0.07534,-0.02009 0.140632,-0.05023 l 0.09041,0.512304 q -0.13561,0.06529 -0.316423,0.100452 -0.180814,0.03516 -0.326469,0.03516 -0.316423,0 -0.492214,-0.165745 Q 69.10608,62.26354 69.10608,61.952139 Z"
           style="font-weight:bold;font-family:Raleway;-inkscape-font-specification:Raleway;vector-effect:none;stop-color:#000000;stop-opacity:1"
           id="path391" /><path
           d="m 71.421486,62.610101 q -0.190859,0 -0.356604,-0.06027 -0.165746,-0.06529 -0.286288,-0.17579 -0.120542,-0.11552 -0.190858,-0.266198 -0.06529,-0.150677 -0.06529,-0.331491 0,-0.185835 0.08036,-0.341536 0.08539,-0.160723 0.23104,-0.27122 0.150677,-0.110497 0.356604,-0.170768 0.205926,-0.06529 0.452033,-0.06529 0.17579,0 0.341536,0.03014 0.170768,0.03014 0.301355,0.08538 v -0.150677 q 0,-0.261175 -0.150678,-0.401808 -0.145655,-0.140632 -0.436965,-0.140632 -0.210949,0 -0.411852,0.07534 -0.200904,0.07534 -0.411853,0.220994 L 70.6681,60.219354 q 0.507282,-0.336513 1.094925,-0.336513 0.567553,0 0.878953,0.281265 0.316423,0.276242 0.316423,0.803614 v 0.818683 q 0,0.105474 0.03516,0.150677 0.04018,0.0452 0.125565,0.05023 v 0.572575 q -0.170768,0.03516 -0.296333,0.03516 -0.190858,0 -0.296332,-0.08538 -0.100452,-0.08538 -0.125565,-0.226017 l -0.01507,-0.145655 q -0.175791,0.231039 -0.42692,0.351581 -0.25113,0.120542 -0.537417,0.120542 z m 0.190858,-0.492213 q 0.170768,0 0.321446,-0.06027 0.1557,-0.06027 0.241084,-0.160722 0.110497,-0.08538 0.110497,-0.190859 V 61.40468 q -0.120542,-0.0452 -0.261174,-0.07032 -0.140633,-0.03014 -0.27122,-0.03014 -0.261175,0 -0.426921,0.120542 -0.165745,0.11552 -0.165745,0.296333 0,0.170768 0.130587,0.286288 0.130588,0.110497 0.321446,0.110497 z"
           style="font-weight:bold;font-family:Raleway;-inkscape-font-specification:Raleway;vector-effect:none;stop-color:#000000;stop-opacity:1"
           id="path392" /><path
           d="m 37.8355,69.043617 h -0.673027 v -1.476642 q 0,-0.316423 -0.110497,-0.462078 -0.110497,-0.145655 -0.306378,-0.145655 -0.100452,0 -0.205927,0.04018 -0.105474,0.04018 -0.200903,0.11552 -0.09041,0.07032 -0.165746,0.170768 -0.07534,0.100452 -0.110497,0.220994 v 1.536913 h -0.673027 v -2.631838 h 0.607734 v 0.487192 q 0.145655,-0.25113 0.421897,-0.391763 0.276243,-0.140632 0.622802,-0.140632 0.246106,0 0.401807,0.09041 0.1557,0.09041 0.241084,0.236061 0.08538,0.145655 0.11552,0.331491 0.03516,0.185836 0.03516,0.376695 z"
           style="font-weight:bold;font-family:Raleway;-inkscape-font-specification:Raleway;vector-effect:none;stop-color:#000000;stop-opacity:1"
           id="path393" /><path
           d="m 39.6386,69.093842 q -0.321445,0 -0.577598,-0.110497 -0.256152,-0.110497 -0.436965,-0.296332 -0.175791,-0.190859 -0.27122,-0.436966 -0.09543,-0.246107 -0.09543,-0.517327 0,-0.276242 0.09543,-0.522349 0.09543,-0.246107 0.27122,-0.431943 0.180813,-0.190858 0.436965,-0.301355 0.256153,-0.110497 0.577598,-0.110497 0.321446,0 0.572576,0.110497 0.256152,0.110497 0.431942,0.301355 0.180814,0.185836 0.276243,0.431943 0.09543,0.246107 0.09543,0.522349 0,0.27122 -0.09543,0.517327 -0.09543,0.246107 -0.27122,0.436966 -0.175791,0.185835 -0.431943,0.296332 -0.256152,0.110497 -0.577598,0.110497 z M 38.950505,67.73272 q 0,0.175791 0.05023,0.321446 0.05525,0.140633 0.145655,0.246107 0.09543,0.105475 0.220994,0.165746 0.125565,0.05525 0.27122,0.05525 0.145655,0 0.27122,-0.05525 0.125565,-0.06027 0.215972,-0.165746 0.09543,-0.105474 0.145655,-0.251129 0.05525,-0.145655 0.05525,-0.321446 0,-0.170768 -0.05525,-0.316423 -0.05023,-0.145655 -0.145655,-0.25113 -0.09041,-0.105474 -0.215972,-0.160723 -0.125565,-0.06027 -0.27122,-0.06027 -0.145655,0 -0.27122,0.06027 -0.125564,0.06027 -0.220994,0.165746 -0.09041,0.105474 -0.145655,0.251129 -0.05023,0.145655 -0.05023,0.316423 z"
           style="font-weight:bold;font-family:Raleway;-inkscape-font-specification:Raleway;vector-effect:none;stop-color:#000000;stop-opacity:1"
           id="path394" /><path
           d="m 43.264906,69.043617 -0.763434,-1.140128 -0.361626,0.356603 v 0.783525 h -0.673028 v -3.666491 h 0.673028 v 2.225007 l 1.054743,-1.185331 h 0.718231 l -0.979405,1.115015 1.049721,1.5118 z"
           style="font-weight:bold;font-family:Raleway;-inkscape-font-specification:Raleway;vector-effect:none;stop-color:#000000;stop-opacity:1"
           id="path395" /><path
           d="m 46.067505,69.043617 -0.763434,-1.140128 -0.361627,0.356603 v 0.783525 h -0.673027 v -3.666491 h 0.673027 v 2.225007 l 1.054744,-1.185331 h 0.718231 l -0.979405,1.115015 1.049721,1.5118 z"
           style="font-weight:bold;font-family:Raleway;-inkscape-font-specification:Raleway;vector-effect:none;stop-color:#000000;stop-opacity:1"
           id="path396" /><path
           d="m 47.875629,69.093842 q -0.40683,0 -0.617779,-0.261174 -0.210949,-0.261175 -0.210949,-0.773479 v -1.64741 h 0.673028 v 1.501755 q 0,0.607733 0.436965,0.607733 0.195881,0 0.376694,-0.115519 0.185836,-0.120543 0.301356,-0.361627 v -1.632342 h 0.673027 v 1.858359 q 0,0.105474 0.03516,0.150677 0.04018,0.0452 0.125565,0.05023 v 0.572576 q -0.100452,0.02009 -0.170769,0.02511 -0.06529,0.005 -0.120542,0.005 -0.180813,0 -0.296332,-0.08036 -0.110497,-0.08538 -0.130588,-0.23104 l -0.01507,-0.210948 q -0.17579,0.27122 -0.452033,0.406829 -0.276242,0.13561 -0.607733,0.13561 z"
           style="font-weight:bold;font-family:Raleway;-inkscape-font-specification:Raleway;vector-effect:none;stop-color:#000000;stop-opacity:1"
           id="path397" /><path
           d="m 51.743015,66.9944 q -0.306378,0.005 -0.547462,0.120542 -0.241085,0.110497 -0.346559,0.336513 v 1.592162 h -0.673027 v -2.631838 h 0.617778 v 0.56253 q 0.07032,-0.13561 0.165746,-0.241084 0.09543,-0.110497 0.205926,-0.190858 0.110497,-0.08036 0.220994,-0.120543 0.11552,-0.0452 0.220994,-0.0452 0.05525,0 0.08036,0 0.03014,0 0.05525,0.005 z"
           style="font-weight:bold;font-family:Raleway;-inkscape-font-specification:Raleway;vector-effect:none;stop-color:#000000;stop-opacity:1"
           id="path398" /><path
           d="m 53.922813,69.093842 q -0.190858,0 -0.356604,-0.06027 -0.165745,-0.06529 -0.286287,-0.17579 -0.120543,-0.11552 -0.190859,-0.266198 -0.06529,-0.150677 -0.06529,-0.331491 0,-0.185835 0.08036,-0.341536 0.08538,-0.160723 0.231039,-0.27122 0.150678,-0.110497 0.356604,-0.170768 0.205926,-0.06529 0.452033,-0.06529 0.175791,0 0.341536,0.03014 0.170768,0.03014 0.301356,0.08538 v -0.150677 q 0,-0.261175 -0.150678,-0.401808 -0.145655,-0.140632 -0.436965,-0.140632 -0.210949,0 -0.411853,0.07534 -0.200903,0.07534 -0.411852,0.220994 l -0.205926,-0.426921 q 0.507281,-0.336513 1.094924,-0.336513 0.567553,0 0.878954,0.281265 0.316423,0.276242 0.316423,0.803614 v 0.818683 q 0,0.105474 0.03516,0.150677 0.04018,0.0452 0.125565,0.05023 v 0.572576 q -0.170768,0.03516 -0.296333,0.03516 -0.190859,0 -0.296333,-0.08538 -0.100452,-0.08538 -0.125565,-0.226017 l -0.01507,-0.145655 q -0.175791,0.231039 -0.426921,0.351581 -0.251129,0.120542 -0.537417,0.120542 z m 0.190859,-0.492213 q 0.170768,0 0.321445,-0.06027 0.155701,-0.06027 0.241085,-0.160722 0.110497,-0.08538 0.110497,-0.190859 v -0.301355 q -0.120542,-0.0452 -0.261175,-0.07032 -0.140633,-0.03014 -0.27122,-0.03014 -0.261175,0 -0.42692,0.120542 -0.165745,0.11552 -0.165745,0.296333 0,0.170768 0.130587,0.286288 0.130587,0.110497 0.321446,0.110497 z"
           style="font-weight:bold;font-family:Raleway;-inkscape-font-specification:Raleway;vector-effect:none;stop-color:#000000;stop-opacity:1"
           id="path399" /><path
           d="m 57.64454,68.908007 q -0.13561,0.06027 -0.331491,0.120542 -0.195881,0.06027 -0.411853,0.06027 -0.140632,0 -0.266197,-0.03516 -0.120542,-0.03516 -0.215971,-0.110497 -0.09041,-0.08036 -0.145655,-0.200904 -0.05525,-0.125565 -0.05525,-0.301355 v -1.5118 h -0.346559 v -0.517327 h 0.346559 v -0.85384 h 0.673027 v 0.85384 h 0.552485 v 0.517327 H 56.89115 v 1.285783 q 0,0.140633 0.07032,0.200904 0.07534,0.05525 0.180814,0.05525 0.105474,0 0.205926,-0.03516 0.100452,-0.03516 0.160723,-0.06027 z"
           style="font-weight:bold;font-family:Raleway;-inkscape-font-specification:Raleway;vector-effect:none;stop-color:#000000;stop-opacity:1"
           id="path400" /><path
           d="m 59.563163,66.9944 q -0.306378,0.005 -0.547462,0.120542 -0.241084,0.110497 -0.346559,0.336513 v 1.592162 h -0.673027 v -2.631838 h 0.617779 v 0.56253 q 0.07032,-0.13561 0.165745,-0.241084 0.09543,-0.110497 0.205927,-0.190858 0.110497,-0.08036 0.220994,-0.120543 0.115519,-0.0452 0.220994,-0.0452 0.05525,0 0.08036,0 0.03014,0 0.05525,0.005 z"
           style="font-weight:bold;font-family:Raleway;-inkscape-font-specification:Raleway;vector-effect:none;stop-color:#000000;stop-opacity:1"
           id="path401" /><path
           d="m 59.939854,69.043617 v -2.631838 h 0.673027 v 2.631838 z m 0,-2.998487 v -0.668004 h 0.673027 v 0.668004 z"
           style="font-weight:bold;font-family:Raleway;-inkscape-font-specification:Raleway;vector-effect:none;stop-color:#000000;stop-opacity:1"
           id="path402" /><path
           d="m 63.556117,65.728707 -0.356604,0.195881 q 0.316423,0.366649 0.472123,0.808637 0.1557,0.436965 0.1557,0.85384 0,0.351582 -0.105474,0.632847 -0.105474,0.276242 -0.29131,0.472123 -0.180813,0.195881 -0.436966,0.301356 -0.256152,0.100451 -0.557507,0.100451 -0.29131,0 -0.54244,-0.09041 -0.246107,-0.09543 -0.431943,-0.256152 -0.180813,-0.165746 -0.286287,-0.38674 -0.105475,-0.226016 -0.105475,-0.487191 0,-0.246107 0.09543,-0.467101 0.09543,-0.220994 0.256152,-0.381717 0.165745,-0.160723 0.386739,-0.256152 0.220994,-0.09543 0.477146,-0.09543 0.261175,0 0.487192,0.110497 0.226016,0.105474 0.366649,0.281265 -0.05525,-0.241084 -0.160723,-0.467101 -0.105475,-0.226016 -0.291311,-0.436965 l -0.4671,0.261174 -0.195881,-0.261174 0.42692,-0.236062 q -0.160723,-0.140633 -0.356604,-0.276242 -0.195881,-0.13561 -0.447011,-0.27122 h 0.863886 q 0.241084,0.130587 0.452033,0.3114 l 0.396785,-0.226016 z m -1.793065,2.139623 q 0,0.140633 0.05023,0.261175 0.05525,0.11552 0.145655,0.205926 0.09041,0.08538 0.215971,0.13561 0.125565,0.05023 0.27122,0.05023 0.150678,0 0.276243,-0.05023 0.125564,-0.05525 0.215971,-0.145655 0.09543,-0.09041 0.145655,-0.210949 0.05525,-0.120542 0.05525,-0.261174 0,-0.140633 -0.05525,-0.256152 -0.05023,-0.11552 -0.140632,-0.200904 -0.09041,-0.08538 -0.215972,-0.130587 -0.125565,-0.05023 -0.27122,-0.05023 -0.150677,0 -0.276242,0.05023 -0.125565,0.05022 -0.220994,0.140632 -0.09041,0.08538 -0.145655,0.205926 -0.05023,0.11552 -0.05023,0.256152 z"
           style="font-weight:bold;font-family:Raleway;-inkscape-font-specification:Raleway;vector-effect:none;stop-color:#000000;stop-opacity:1"
           id="path403" /><path
           d="m 64.299454,69.043617 v -2.631838 h 0.673027 v 2.631838 z m 0,-2.998487 v -0.668004 h 0.673027 v 0.668004 z"
           style="font-weight:bold;font-family:Raleway;-inkscape-font-specification:Raleway;vector-effect:none;stop-color:#000000;stop-opacity:1"
           id="path404" /><path
           d="m 65.565141,69.043617 v -0.723253 h 0.552485 v 0.723253 z"
           style="font-weight:bold;font-family:Raleway;-inkscape-font-specification:Raleway;vector-effect:none;stop-color:#000000;stop-opacity:1"
           id="path405" /><path
           d="m 66.695218,69.043617 v -0.723253 h 0.552485 v 0.723253 z"
           style="font-weight:bold;font-family:Raleway;-inkscape-font-specification:Raleway;vector-effect:none;stop-color:#000000;stop-opacity:1"
           id="path406" /><path
           d="m 67.825292,69.043617 v -0.723253 h 0.552484 v 0.723253 z"
           style="font-weight:bold;font-family:Raleway;-inkscape-font-specification:Raleway;vector-effect:none;stop-color:#000000;stop-opacity:1"
           id="path407" /></g></g></g></svg>
