<?xml version="1.0" encoding="UTF-8" standalone="no"?>
<svg
   width="700.00061"
   height="220"
   viewBox="0 0 185.20849 58.208335"
   version="1.1"
   id="svg243962"
   inkscape:version="1.3-dev (77c38b38a8, 2022-05-06, custom)"
   sodipodi:docname="pl.svg"
   inkscape:export-filename="/home/doctormo/Projects/inkscape/inkscape/share/screens/start-welcome.png"
   inkscape:export-xdpi="96"
   inkscape:export-ydpi="96"
   xml:space="preserve"
   xmlns:inkscape="http://www.inkscape.org/namespaces/inkscape"
   xmlns:sodipodi="http://sodipodi.sourceforge.net/DTD/sodipodi-0.dtd"
   xmlns="http://www.w3.org/2000/svg"
   xmlns:svg="http://www.w3.org/2000/svg"><sodipodi:namedview
     id="namedview243964"
     pagecolor="#ffffff"
     bordercolor="#666666"
     borderopacity="1.0"
     objecttolerance="10.0"
     gridtolerance="10.0"
     guidetolerance="10.0"
     inkscape:pageshadow="2"
     inkscape:pageopacity="0.0"
     inkscape:pagecheckerboard="0"
     inkscape:document-units="px"
     showgrid="false"
     units="px"
     inkscape:zoom="0.83034467"
     inkscape:cx="414.28579"
     inkscape:cy="272.77829"
     inkscape:window-width="1534"
     inkscape:window-height="843"
     inkscape:window-x="66"
     inkscape:window-y="20"
     inkscape:window-maximized="1"
     inkscape:current-layer="layer3-79"
     inkscape:showpageshadow="2"
     inkscape:deskcolor="#d1d1d1" /><defs
     id="defs243959" /><g
     inkscape:groupmode="layer"
     id="layer2"
     inkscape:label="Text"
     style="font-variation-settings:normal;opacity:1;vector-effect:none;fill:#cbe1fb;fill-opacity:1;stroke-width:0.125564;stroke-linecap:butt;stroke-linejoin:miter;stroke-miterlimit:4;stroke-dasharray:none;stroke-dashoffset:0;stroke-opacity:1;-inkscape-stroke:none;stop-color:#000000;stop-opacity:1"
     transform="translate(-1561.6675)"><g
       inkscape:groupmode="layer"
       id="layer3-79"
       inkscape:label="pl"
       transform="translate(1559.0591,-30.210713)"
       style="font-variation-settings:normal;vector-effect:none;fill:#cbe1fb;fill-opacity:1;stroke-width:0.125564;stroke-linecap:butt;stroke-linejoin:miter;stroke-miterlimit:4;stroke-dasharray:none;stroke-dashoffset:0;stroke-opacity:1;-inkscape-stroke:none;stop-color:#000000;stop-opacity:1"><path
         id="path29"
         style="font-weight:bold;font-size:14.5573px;line-height:1.25;font-family:Raleway;-inkscape-font-specification:Raleway;vector-effect:none;stroke-width:0.125565;stop-color:#000000"
         d="M 26.152699 39.075288 L 26.152699 41.011604 L 28.102968 41.011604 L 28.102968 39.075288 L 26.152699 39.075288 z M 43.8834 39.075288 L 43.8834 41.011604 L 45.833669 41.011604 L 45.833669 39.075288 L 43.8834 39.075288 z M 55.820139 39.075288 L 55.820139 41.011604 L 57.770924 41.011604 L 57.770924 39.075288 L 55.820139 39.075288 z M 68.630727 39.264941 L 68.630727 45.815445 L 70.581512 45.815445 L 70.581512 39.264941 L 68.630727 39.264941 z M 9.9356013 39.366743 L 14.113641 49.702547 L 15.802427 49.702547 L 17.593015 45.36431 L 19.383603 49.702547 L 21.071873 49.702547 L 25.278851 39.366743 L 23.095522 39.366743 L 20.169602 47.402429 L 18.859088 44.097721 L 20.620737 39.395682 L 18.757285 39.395682 L 17.593015 42.816662 L 16.428228 39.395682 L 14.579246 39.395682 L 16.311956 44.097721 L 15.030898 47.402429 L 12.089992 39.366743 L 9.9356013 39.366743 z M 30.301283 39.599287 L 30.301283 42.074072 L 29.296693 42.074072 L 29.296693 43.573722 L 30.301283 43.573722 L 30.301283 47.955366 C 30.301283 48.295037 30.354727 48.586077 30.46148 48.828698 C 30.568234 49.061614 30.70899 49.255814 30.883677 49.411091 C 31.068069 49.556665 31.276562 49.663551 31.509478 49.731485 C 31.7521 49.799419 32.009272 49.833288 32.281007 49.833288 C 32.698316 49.833288 33.096243 49.77508 33.474733 49.658622 C 33.853222 49.542164 34.173367 49.425747 34.435398 49.309289 L 34.042657 47.766231 C 33.926199 47.814755 33.770633 47.872963 33.576536 47.940897 C 33.382438 48.008831 33.183475 48.0427 32.979673 48.0427 C 32.775871 48.0427 32.601246 47.989256 32.455674 47.882503 C 32.319805 47.766044 32.252069 47.571845 32.252069 47.300109 L 32.252069 43.573722 L 33.853521 43.573722 L 33.853521 42.074072 L 32.252069 42.074072 L 32.252069 39.599287 L 30.301283 39.599287 z M 38.526104 41.94333 C 37.390636 41.94333 36.332845 42.268239 35.352655 42.918464 L 35.949517 44.156115 C 36.357122 43.874674 36.755049 43.6609 37.143243 43.515327 C 37.531437 43.369754 37.929365 43.297253 38.336969 43.297253 C 38.899851 43.297253 39.322118 43.432727 39.603558 43.704463 C 39.894704 43.976199 40.040224 44.364597 40.040224 44.86925 L 40.040224 45.305916 C 39.787898 45.199159 39.496858 45.116612 39.166892 45.058386 C 38.846632 45.000159 38.516442 44.971052 38.176772 44.971052 C 37.701233 44.971052 37.264673 45.034025 36.866774 45.160188 C 36.468875 45.276646 36.124391 45.441741 35.833245 45.655248 C 35.551804 45.868755 35.328501 46.130691 35.163519 46.441247 C 35.008241 46.742097 34.930458 47.072288 34.930458 47.431367 C 34.930458 47.780742 34.993431 48.100886 35.119594 48.392032 C 35.255462 48.683178 35.440132 48.94035 35.673048 49.163561 C 35.905966 49.377068 36.182195 49.546928 36.502455 49.673091 C 36.822715 49.78955 37.167716 49.847757 37.536501 49.847757 C 38.089677 49.847757 38.608785 49.731341 39.094028 49.498425 C 39.579271 49.265508 39.991492 48.925789 40.331162 48.479365 L 40.375087 48.901562 C 40.423612 49.173298 40.544792 49.391836 40.738889 49.556819 C 40.942691 49.721801 41.228967 49.804349 41.597751 49.804349 C 41.840373 49.804349 42.126649 49.77048 42.456614 49.702547 L 42.456614 48.0427 C 42.291631 48.032995 42.17045 47.984316 42.092812 47.896972 C 42.024878 47.809628 41.991009 47.664108 41.991009 47.460306 L 41.991009 45.087841 C 41.991009 44.068831 41.685158 43.292035 41.073752 42.758268 C 40.472051 42.214795 39.622753 41.94333 38.526104 41.94333 z M 51.147556 41.94333 C 50.526445 41.94333 49.968187 42.050217 49.47324 42.263724 C 48.978292 42.477231 48.556025 42.763507 48.20665 43.122586 C 47.857275 43.481666 47.590575 43.898652 47.406182 44.37419 C 47.221791 44.849728 47.129714 45.354542 47.129714 45.888309 C 47.129714 46.412371 47.221791 46.917186 47.406182 47.402429 C 47.60028 47.877966 47.871745 48.299716 48.22112 48.668501 C 48.570495 49.027581 48.992762 49.313857 49.487709 49.527363 C 49.982657 49.740871 50.540914 49.847757 51.162026 49.847757 C 52.006348 49.847757 52.729185 49.663604 53.330885 49.294819 C 53.932587 48.926035 54.364383 48.450325 54.626414 47.868033 L 52.719553 47.28564 C 52.603095 47.537966 52.394602 47.75174 52.093752 47.926428 C 51.802606 48.101115 51.481945 48.188427 51.13257 48.188427 C 50.860834 48.188427 50.603663 48.134983 50.361041 48.02823 C 50.11842 47.911772 49.905162 47.751441 49.72077 47.547639 C 49.546083 47.343837 49.405327 47.101476 49.298573 46.820035 C 49.19182 46.538594 49.138376 46.227979 49.138376 45.888309 C 49.138376 45.548639 49.187055 45.238024 49.284104 44.956583 C 49.390857 44.675143 49.531613 44.437545 49.7063 44.243448 C 49.890692 44.039646 50.10395 43.88408 50.346571 43.777327 C 50.589193 43.660868 50.851129 43.60266 51.13257 43.60266 C 51.462535 43.60266 51.763621 43.680443 52.035357 43.835721 C 52.307093 43.981294 52.525632 44.194552 52.690614 44.475992 L 54.597475 43.894116 C 54.306329 43.311825 53.864487 42.840879 53.272491 42.481799 C 52.6902 42.122719 51.982174 41.94333 51.147556 41.94333 z M 63.084295 41.94333 C 62.463185 41.94333 61.900162 42.050217 61.395509 42.263724 C 60.900562 42.477231 60.478295 42.768271 60.12892 43.137056 C 59.779545 43.496135 59.512844 43.918402 59.328452 44.403645 C 59.14406 44.879183 59.051983 45.388246 59.051983 45.931717 C 59.051983 46.45578 59.14406 46.95583 59.328452 47.431367 C 59.522549 47.906906 59.794532 48.324408 60.143906 48.683487 C 60.493281 49.042567 60.915031 49.328842 61.409979 49.54235 C 61.904927 49.746151 62.45842 49.847757 63.069826 49.847757 C 63.923853 49.847757 64.656735 49.663604 65.268141 49.294819 C 65.889252 48.91633 66.340106 48.435855 66.621547 47.853564 L 64.947747 47.387442 C 64.821584 47.697998 64.58347 47.950405 64.234096 48.144502 C 63.894426 48.328895 63.530884 48.421488 63.14269 48.421488 C 62.890363 48.421488 62.647485 48.377574 62.414569 48.29023 C 62.181652 48.202886 61.97316 48.076941 61.788767 47.911958 C 61.604375 47.746976 61.45409 47.548012 61.337632 47.315095 C 61.221172 47.082179 61.148154 46.814962 61.119041 46.514111 L 67.014805 46.514111 C 67.034211 46.436472 67.043744 46.339631 67.043744 46.223172 C 67.05345 46.106714 67.058213 45.985533 67.058213 45.85937 C 67.058213 45.345013 66.966136 44.849728 66.781744 44.37419 C 66.607057 43.898652 66.34512 43.481666 65.995745 43.122586 C 65.656075 42.763507 65.238573 42.477231 64.743626 42.263724 C 64.258383 42.050217 63.705406 41.94333 63.084295 41.94333 z M 26.152699 42.074072 L 26.152699 49.702547 L 28.102968 49.702547 L 28.102968 42.074072 L 26.152699 42.074072 z M 43.8834 42.074072 L 43.8834 49.906152 C 43.8834 50.187593 43.790807 50.41566 43.606414 50.590348 C 43.422023 50.77474 43.204 50.866817 42.951674 50.866817 C 42.796396 50.866817 42.64083 50.83771 42.485553 50.779483 C 42.330275 50.730959 42.199566 50.653177 42.092812 50.546423 L 41.248419 51.871406 C 41.51045 52.104323 41.806255 52.274183 42.13622 52.380936 C 42.466185 52.497395 42.81595 52.555602 43.184735 52.555602 C 43.553519 52.555602 43.898003 52.487348 44.218263 52.35148 C 44.548228 52.215612 44.829223 52.02193 45.062139 51.769604 C 45.304761 51.526982 45.494196 51.230661 45.630063 50.881286 C 45.765931 50.541616 45.833669 50.168028 45.833669 49.760424 L 45.833669 42.074072 L 43.8834 42.074072 z M 55.820139 42.074072 L 55.820139 49.702547 L 57.770924 49.702547 L 57.770924 42.074072 L 55.820139 42.074072 z M 63.055356 43.35513 C 63.589124 43.35513 64.039978 43.529754 64.408762 43.879129 C 64.787249 44.2188 65.001023 44.674935 65.04955 45.247521 L 61.090102 45.247521 C 61.109511 44.966081 61.172484 44.708909 61.279237 44.475992 C 61.395695 44.243076 61.541216 44.044112 61.715903 43.879129 C 61.89059 43.714147 62.089554 43.588202 62.312766 43.500858 C 62.545683 43.403809 62.793325 43.35513 63.055356 43.35513 z M 38.497166 46.062975 C 38.749491 46.062975 39.011428 46.092082 39.283164 46.150309 C 39.5549 46.198833 39.807307 46.26657 40.040224 46.353914 L 40.040224 47.227762 C 40.040224 47.431564 39.933336 47.615718 39.71983 47.7807 C 39.554847 47.974797 39.322016 48.130363 39.021165 48.246821 C 38.730019 48.36328 38.419403 48.421488 38.089438 48.421488 C 37.720654 48.421488 37.410039 48.314601 37.157712 48.101094 C 36.905386 47.877882 36.779441 47.601135 36.779441 47.27117 C 36.779441 46.921795 36.939255 46.63552 37.259515 46.412308 C 37.579775 46.179392 37.992513 46.062975 38.497166 46.062975 z M 68.630727 47.504231 L 68.630727 49.702547 L 70.581512 49.702547 L 70.581512 47.504231 L 68.630727 47.504231 z M 37.413511 58.533015 C 37.258517 58.53635 37.118429 58.564919 36.992865 58.618281 C 36.862277 58.675204 36.750206 58.752172 36.656451 58.849275 C 36.566045 58.94303 36.495321 59.055101 36.445094 59.185689 C 36.398214 59.316276 36.374814 59.453569 36.374814 59.59755 L 36.374814 59.758263 L 36.028582 59.758263 L 36.028582 60.270894 L 36.374814 60.270894 L 36.374814 62.249584 L 37.048158 62.249584 L 37.048158 60.270894 L 37.786098 60.270894 L 37.786098 62.249584 L 38.459442 62.249584 L 38.459442 59.758263 L 37.048158 59.758263 L 37.048158 59.572745 C 37.048158 59.448855 37.083262 59.339905 37.153578 59.24615 C 37.227243 59.152395 37.339314 59.10559 37.489992 59.10559 C 37.610534 59.10559 37.729365 59.12899 37.846559 59.17587 C 37.963752 59.222747 38.065942 59.284375 38.153 59.361388 L 38.419134 58.85961 C 38.278502 58.765858 38.127688 58.688373 37.966965 58.6281 C 37.809591 58.56448 37.635374 58.533015 37.444517 58.533015 C 37.434053 58.533015 37.423844 58.532793 37.413511 58.533015 z M 27.495253 58.583141 L 27.495253 62.249584 L 28.16808 62.249584 L 28.16808 61.46617 L 28.529815 61.109602 L 29.293076 62.249584 L 30.011379 62.249584 L 28.96183 60.738049 L 29.941099 59.622871 L 29.222796 59.622871 L 28.16808 60.808329 L 28.16808 58.583141 L 27.495253 58.583141 z M 50.42822 58.583141 L 50.42822 59.251318 L 51.101047 59.251318 L 51.101047 58.583141 L 50.42822 58.583141 z M 25.666941 58.658589 C 25.486128 58.658589 25.316853 58.68381 25.159478 58.734037 C 25.002104 58.780914 24.862992 58.851121 24.74245 58.944876 C 24.625256 59.038631 24.533465 59.155644 24.466497 59.296276 C 24.399529 59.436909 24.365728 59.597604 24.365728 59.778417 C 24.365728 59.915701 24.38601 60.034533 24.42619 60.134985 C 24.469719 60.232088 24.533166 60.319454 24.616876 60.396467 C 24.700585 60.470128 24.804594 60.535395 24.928485 60.592321 C 25.055724 60.645892 25.204718 60.69582 25.375486 60.7427 C 25.516118 60.782877 25.643529 60.8198 25.757375 60.853287 C 25.87122 60.886772 25.967952 60.923695 26.048313 60.963875 C 26.128677 61.004057 26.190821 61.050861 26.234348 61.104435 C 26.277875 61.158009 26.29946 61.223275 26.29946 61.300288 C 26.29946 61.544721 26.108602 61.667191 25.726886 61.667191 C 25.589602 61.667191 25.455947 61.650035 25.32536 61.616548 C 25.194772 61.583067 25.075941 61.543022 24.968792 61.496142 C 24.861644 61.445919 24.767517 61.397294 24.687156 61.350414 C 24.61014 61.300186 24.556575 61.260142 24.526442 61.230008 L 24.220518 61.827905 C 24.428118 61.975234 24.662143 62.089125 24.923317 62.169486 C 25.184491 62.249847 25.449196 62.289892 25.717067 62.289892 C 25.891184 62.289892 26.05682 62.271431 26.214194 62.234598 C 26.374917 62.194417 26.515849 62.132272 26.636391 62.048563 C 26.760281 61.964853 26.857013 61.856421 26.927329 61.722485 C 27.000994 61.585201 27.037917 61.420867 27.037917 61.230008 C 27.037917 61.065938 27.011391 60.928644 26.957818 60.818147 C 26.904244 60.704302 26.827276 60.607053 26.726825 60.526692 C 26.629721 60.446329 26.50907 60.379761 26.365089 60.326187 C 26.224457 60.272616 26.066883 60.222172 25.892767 60.175292 C 25.758831 60.141806 25.639999 60.109824 25.5362 60.079691 C 25.435748 60.049557 25.35202 60.016272 25.285052 59.979439 C 25.218085 59.942609 25.166339 59.900745 25.129506 59.853865 C 25.096019 59.803639 25.07938 59.741494 25.07938 59.66783 C 25.07938 59.540591 25.126185 59.44204 25.21994 59.371724 C 25.313695 59.301408 25.455929 59.266304 25.646787 59.266304 C 25.753936 59.266304 25.859247 59.279825 25.963047 59.306611 C 26.066847 59.333399 26.162276 59.366684 26.249334 59.406864 C 26.339739 59.443697 26.415404 59.481922 26.475677 59.522102 C 26.539295 59.562282 26.582462 59.594264 26.605902 59.617704 L 26.912343 59.055464 C 26.754969 58.948315 26.570871 58.856008 26.359922 58.778995 C 26.148973 58.698634 25.91807 58.658589 25.666941 58.658589 z M 31.337396 59.572745 C 31.139043 59.577061 30.960056 59.613755 30.799961 59.682816 C 30.629193 59.75648 30.48332 59.857368 30.362778 59.984606 C 30.245585 60.108497 30.155097 60.252033 30.091477 60.416104 C 30.027857 60.580176 29.996392 60.754392 29.996392 60.938553 C 29.996392 61.119366 30.027857 61.291763 30.091477 61.455834 C 30.155096 61.619905 30.245584 61.765778 30.362778 61.893017 C 30.48332 62.016907 30.629193 62.115458 30.799961 62.189123 C 30.970729 62.262787 31.163406 62.29971 31.377703 62.29971 C 31.592001 62.29971 31.784161 62.262787 31.954929 62.189123 C 32.125697 62.115458 32.26975 62.016907 32.386944 61.893017 C 32.504137 61.765778 32.594625 61.619905 32.658245 61.455834 C 32.721865 61.291763 32.753847 61.119366 32.753847 60.938553 C 32.753847 60.754392 32.721865 60.580176 32.658245 60.416104 C 32.594626 60.252033 32.502318 60.108497 32.381777 59.984606 C 32.264583 59.857368 32.121046 59.75648 31.950278 59.682816 C 31.782859 59.609151 31.592001 59.572745 31.377703 59.572745 C 31.36431 59.572745 31.350619 59.572457 31.337396 59.572745 z M 34.858111 59.572745 C 34.627072 59.572745 34.419571 59.61955 34.23541 59.713305 C 34.051248 59.80706 33.910317 59.937593 33.813214 60.105012 L 33.813214 59.617704 L 33.205499 59.617704 L 33.205499 62.249584 L 33.878843 62.249584 L 33.878843 60.712727 C 33.902281 60.632366 33.939204 60.55852 33.98943 60.491552 C 34.039654 60.424587 34.094522 60.3679 34.154795 60.32102 C 34.218414 60.270793 34.2855 60.232051 34.355816 60.205265 C 34.426132 60.178478 34.495037 60.165474 34.562005 60.165474 C 34.692592 60.165474 34.794265 60.213581 34.86793 60.310685 C 34.941594 60.407788 34.978517 60.56224 34.978517 60.773189 L 34.978517 62.249584 L 35.651861 62.249584 L 35.651861 60.607307 C 35.651861 60.480069 35.640161 60.354477 35.616721 60.230586 C 35.596628 60.106696 35.557886 59.995927 35.500966 59.898823 C 35.444043 59.801722 35.363954 59.723452 35.260154 59.663179 C 35.156354 59.602906 35.022182 59.572745 34.858111 59.572745 z M 40.103269 59.572745 C 39.935522 59.576865 39.780992 59.612244 39.639731 59.678165 C 39.489054 59.748482 39.359824 59.845213 39.252675 59.969103 C 39.145528 60.092994 39.061801 60.237047 39.001527 60.401118 C 38.941254 60.565189 38.911094 60.743044 38.911094 60.933902 C 38.911094 61.114715 38.939957 61.285293 38.996877 61.446016 C 39.053799 61.606738 39.133889 61.748973 39.237689 61.872863 C 39.344837 61.993405 39.470429 62.088834 39.61441 62.159151 C 39.758391 62.229466 39.919087 62.26457 40.096551 62.26457 C 40.277364 62.26457 40.446639 62.224526 40.604014 62.144164 C 40.761387 62.060454 40.883341 61.943442 40.9704 61.792765 L 40.9704 62.124011 C 40.9704 62.251249 40.948814 62.362019 40.905287 62.455773 C 40.865107 62.549527 40.80842 62.626494 40.734755 62.686767 C 40.66109 62.747038 40.575543 62.790205 40.47844 62.816992 C 40.384685 62.847125 40.285617 62.862467 40.181817 62.862467 C 40.011049 62.862467 39.849051 62.827363 39.695025 62.757047 C 39.544347 62.68673 39.418755 62.589482 39.318304 62.465592 L 38.951401 62.822159 C 39.092033 62.996275 39.259489 63.130447 39.453696 63.224202 C 39.651251 63.321305 39.893855 63.369413 40.181817 63.369413 C 40.392766 63.369413 40.587262 63.341066 40.764727 63.284146 C 40.94554 63.227224 41.099475 63.145315 41.226715 63.038167 C 41.357302 62.931018 41.459491 62.800485 41.533156 62.646459 C 41.606821 62.492433 41.643743 62.318217 41.643743 62.124011 L 41.643743 59.617704 L 41.056182 59.617704 L 41.056182 60.079691 C 40.955731 59.925665 40.828319 59.803712 40.674294 59.713305 C 40.520268 59.61955 40.341111 59.572745 40.136859 59.572745 C 40.125558 59.572745 40.114452 59.57247 40.103269 59.572745 z M 53.300913 59.572745 C 53.083268 59.572745 52.889288 59.61955 52.71852 59.713305 C 52.5511 59.803712 52.418748 59.934245 52.321645 60.105012 L 52.321645 59.617704 L 51.71393 59.617704 L 51.71393 62.249584 L 52.386757 62.249584 L 52.386757 60.712727 C 52.436983 60.548656 52.520711 60.416304 52.637904 60.315852 C 52.758446 60.2154 52.884038 60.165474 53.014626 60.165474 C 53.141864 60.165474 53.240932 60.213581 53.311248 60.310685 C 53.384913 60.407788 53.421319 60.56224 53.421319 60.773189 L 53.421319 62.249584 L 54.094663 62.249584 L 54.094663 60.717895 C 54.144889 60.553824 54.228617 60.421471 54.345811 60.32102 C 54.463004 60.217219 54.588597 60.165474 54.722532 60.165474 C 54.849771 60.165474 54.948322 60.213581 55.018638 60.310685 C 55.092302 60.407788 55.129225 60.56224 55.129225 60.773189 L 55.129225 62.249584 L 55.802052 62.249584 L 55.802052 60.607307 C 55.802052 60.480069 55.790352 60.354477 55.766912 60.230586 C 55.746819 60.106696 55.708594 59.995927 55.651674 59.898823 C 55.594751 59.801722 55.514145 59.723452 55.410345 59.663179 C 55.306545 59.602906 55.17471 59.572745 55.013987 59.572745 C 54.803038 59.572745 54.615302 59.621369 54.45123 59.718473 C 54.287159 59.812227 54.151686 59.949004 54.044537 60.129817 C 54.011054 59.972443 53.934086 59.840607 53.813543 59.733459 C 53.693001 59.62631 53.521907 59.572745 53.300913 59.572745 z M 46.786582 59.582564 C 46.716266 59.582564 46.642937 59.597906 46.565924 59.628039 C 46.492259 59.654827 46.418413 59.694872 46.344749 59.748445 C 46.271085 59.80202 46.202696 59.865466 46.139076 59.939131 C 46.07546 60.009447 46.020075 60.090053 45.973195 60.18046 L 45.973195 59.617704 L 45.355145 59.617704 L 45.355145 62.249584 L 46.028489 62.249584 L 46.028489 60.657433 C 46.098805 60.506756 46.213998 60.394684 46.374721 60.32102 C 46.535443 60.243991 46.718239 60.203947 46.922491 60.200614 L 46.922491 59.587731 C 46.905751 59.584398 46.887291 59.582564 46.867197 59.582564 L 46.786582 59.582564 z M 42.226137 59.617704 L 42.226137 61.265148 C 42.226137 61.606684 42.296344 61.864629 42.436977 62.038744 C 42.577609 62.212861 42.783807 62.29971 43.055027 62.29971 C 43.276021 62.29971 43.47858 62.254725 43.662742 62.164318 C 43.846903 62.073912 43.997717 61.938438 44.11491 61.757625 L 44.129897 61.968465 C 44.143291 62.06557 44.186973 62.142538 44.260638 62.199458 C 44.337651 62.253031 44.436201 62.279557 44.556744 62.279557 C 44.593579 62.279557 44.633623 62.278239 44.67715 62.274906 C 44.724027 62.271559 44.781231 62.262978 44.848199 62.249584 L 44.848199 61.677009 C 44.791276 61.673656 44.749412 61.657017 44.722625 61.626883 C 44.699185 61.596748 44.687485 61.546305 44.687485 61.475988 L 44.687485 59.617704 L 44.014141 59.617704 L 44.014141 61.250162 C 43.937128 61.410885 43.836758 61.531536 43.712868 61.611897 C 43.592326 61.68891 43.466734 61.727136 43.336147 61.727136 C 43.044837 61.727136 42.899481 61.524576 42.899481 61.119421 L 42.899481 59.617704 L 42.226137 59.617704 z M 47.273891 59.617704 L 47.273891 61.265148 C 47.273891 61.606684 47.344098 61.864629 47.484731 62.038744 C 47.625363 62.212861 47.831561 62.29971 48.102781 62.29971 C 48.323775 62.29971 48.526334 62.254725 48.710496 62.164318 C 48.894657 62.073912 49.045471 61.938438 49.162664 61.757625 L 49.177651 61.968465 C 49.191044 62.06557 49.234211 62.142538 49.307875 62.199458 C 49.384888 62.253031 49.483956 62.279557 49.604498 62.279557 C 49.641333 62.279557 49.681377 62.278239 49.724904 62.274906 C 49.771781 62.271559 49.828985 62.262978 49.895953 62.249584 L 49.895953 61.677009 C 49.83903 61.673656 49.797166 61.657017 49.770379 61.626883 C 49.746939 61.596748 49.735239 61.546305 49.735239 61.475988 L 49.735239 59.617704 L 49.061895 59.617704 L 49.061895 61.250162 C 48.984883 61.410885 48.884512 61.531536 48.760622 61.611897 C 48.64008 61.68891 48.514488 61.727136 48.383901 61.727136 C 48.09259 61.727136 47.946718 61.524576 47.946718 61.119421 L 47.946718 59.617704 L 47.273891 59.617704 z M 50.42822 59.617704 L 50.42822 62.319864 C 50.42822 62.416965 50.396239 62.495752 50.332619 62.556026 C 50.269 62.619645 50.193851 62.651627 50.106793 62.651627 C 50.053218 62.651627 49.999652 62.641231 49.946079 62.621138 C 49.892506 62.604398 49.847003 62.577873 49.81017 62.541039 L 49.519232 62.997859 C 49.609638 63.07822 49.711311 63.136726 49.825156 63.173559 C 49.939001 63.213739 50.059653 63.23402 50.186891 63.23402 C 50.31413 63.23402 50.432962 63.21062 50.543459 63.16374 C 50.657304 63.116862 50.754552 63.049777 50.834914 62.962719 C 50.918621 62.879009 50.983887 62.77682 51.030767 62.656278 C 51.077647 62.539084 51.101047 62.41037 51.101047 62.269738 L 51.101047 59.617704 L 50.42822 59.617704 z M 56.0532 59.617704 L 57.09293 62.249584 C 57.059443 62.360082 57.027978 62.452389 56.997845 62.526053 C 56.967705 62.599718 56.937545 62.656405 56.907411 62.696585 C 56.877277 62.740119 56.843476 62.770279 56.806642 62.787019 C 56.769808 62.803759 56.729763 62.812341 56.686236 62.812341 C 56.649403 62.812341 56.604417 62.806884 56.550844 62.796838 C 56.497267 62.790138 56.441883 62.778438 56.384963 62.761698 L 56.384963 63.344608 C 56.445235 63.364695 56.501922 63.378216 56.555495 63.384916 C 56.612419 63.394962 56.667803 63.399902 56.721376 63.399902 C 56.949067 63.399902 57.139925 63.341395 57.293951 63.224202 C 57.447976 63.107008 57.556926 62.956194 57.620546 62.772033 L 58.725388 59.617704 L 58.092352 59.617704 L 57.459832 61.667191 L 56.746698 59.617704 L 56.0532 59.617704 z M 31.377703 60.14532 C 31.474807 60.14532 31.564778 60.165085 31.648488 60.205265 C 31.732195 60.242097 31.804222 60.295662 31.864495 60.365978 C 31.928112 60.436294 31.976736 60.520023 32.010223 60.617126 C 32.047056 60.71423 32.065517 60.820057 32.065517 60.933902 C 32.065517 61.051096 32.047056 61.158227 32.010223 61.25533 C 31.97674 61.352434 31.928115 61.436161 31.864495 61.506477 C 31.804225 61.576794 31.732198 61.631662 31.648488 61.671842 C 31.564778 61.708675 31.474807 61.727136 31.377703 61.727136 C 31.2806 61.727136 31.190112 61.708675 31.106402 61.671842 C 31.022693 61.631661 30.948847 61.576793 30.885227 61.506477 C 30.824957 61.436161 30.776333 61.353736 30.739499 61.259981 C 30.706013 61.162877 30.689373 61.055747 30.689373 60.938553 C 30.689373 60.824708 30.706013 60.719397 30.739499 60.622293 C 30.776329 60.52519 30.824954 60.441462 30.885227 60.371146 C 30.948846 60.300829 31.022692 60.245445 31.106402 60.205265 C 31.190112 60.165085 31.2806 60.14532 31.377703 60.14532 z M 40.282586 60.14532 C 40.423219 60.14532 40.556874 60.192125 40.684112 60.28588 C 40.814697 60.379634 40.910126 60.503408 40.9704 60.657433 L 40.9704 61.285302 C 40.946958 61.345574 40.913674 61.402261 40.870147 61.455834 C 40.826615 61.50941 40.776172 61.556731 40.719252 61.596911 C 40.662329 61.637091 40.600702 61.668556 40.533734 61.691996 C 40.466766 61.715436 40.396558 61.727136 40.322894 61.727136 C 40.219093 61.727136 40.123664 61.707371 40.036606 61.667191 C 39.949549 61.62701 39.872581 61.571626 39.805613 61.50131 C 39.741994 61.430994 39.691551 61.349085 39.654718 61.25533 C 39.617884 61.161575 39.599424 61.060688 39.599424 60.953539 C 39.599424 60.849739 39.614249 60.749369 39.644382 60.652266 C 39.677864 60.555162 39.725186 60.470131 39.785459 60.396467 C 39.84573 60.319452 39.917757 60.259127 40.001466 60.2156 C 40.085176 60.16872 40.178786 60.14532 40.282586 60.14532 z M 28.032688 65.066983 L 28.032688 68.733426 L 28.705515 68.733426 L 28.705515 67.950012 L 29.06725 67.593444 L 29.830511 68.733426 L 30.548813 68.733426 L 29.499265 67.221374 L 30.478533 66.106713 L 29.760231 66.106713 L 28.705515 67.291654 L 28.705515 65.066983 L 28.032688 65.066983 z M 30.835101 65.066983 L 30.835101 65.734643 L 31.507928 65.734643 L 31.507928 65.066983 L 30.835101 65.066983 z M 32.110992 65.066983 L 32.110992 68.125711 C 32.110992 68.333311 32.167679 68.494007 32.281524 68.607853 C 32.398718 68.718349 32.563052 68.773734 32.774001 68.773734 C 32.871104 68.773734 32.979537 68.762034 33.100079 68.738594 C 33.220621 68.715153 33.326449 68.681351 33.416855 68.637825 L 33.326422 68.125711 C 33.282893 68.145805 33.236088 68.162444 33.185862 68.175838 C 33.138984 68.189231 33.0953 68.195991 33.05512 68.195991 C 32.968065 68.195991 32.900979 68.168949 32.854099 68.115376 C 32.807219 68.061802 32.783819 67.986653 32.783819 67.88955 L 32.783819 65.066983 L 32.110992 65.066983 z M 33.707794 65.066983 L 33.707794 68.733426 L 34.381138 68.733426 L 34.381138 67.950012 L 34.742356 67.593444 L 35.506134 68.733426 L 36.224436 68.733426 L 35.174371 67.221374 L 36.154156 66.106713 L 35.435854 66.106713 L 34.381138 67.291654 L 34.381138 65.066983 L 33.707794 65.066983 z M 55.119407 65.066983 L 55.119407 65.734643 L 55.792234 65.734643 L 55.792234 65.066983 L 55.119407 65.066983 z M 60.704079 65.066983 L 60.433294 65.664363 L 60.864792 65.795104 L 61.331947 65.066983 L 60.704079 65.066983 z M 46.314776 65.247851 L 46.314776 66.101546 L 45.968027 66.101546 L 45.968027 66.618827 L 46.314776 66.618827 L 46.314776 68.130879 C 46.314776 68.248073 46.333237 68.348443 46.37007 68.432153 C 46.4069 68.512515 46.455007 68.579084 46.515281 68.632657 C 46.5789 68.682882 46.650927 68.719805 46.731288 68.743245 C 46.814998 68.766685 46.904183 68.778385 46.997939 68.778385 C 47.141919 68.778385 47.279213 68.75862 47.4098 68.71844 C 47.540387 68.678258 47.650639 68.637697 47.741046 68.597517 L 47.605653 68.06525 C 47.565473 68.08199 47.511908 68.102271 47.44494 68.125711 C 47.377972 68.149151 47.309067 68.160851 47.238751 68.160851 C 47.168436 68.160851 47.10811 68.142391 47.057883 68.105558 C 47.011003 68.065376 46.987603 67.998291 46.987603 67.904536 L 46.987603 66.618827 L 47.540024 66.618827 L 47.540024 66.101546 L 46.987603 66.101546 L 46.987603 65.247851 L 46.314776 65.247851 z M 44.569146 66.051419 C 44.432202 66.053774 44.304477 66.073695 44.18519 66.111364 C 44.0613 66.151545 43.95235 66.210567 43.858595 66.287581 C 43.764839 66.361245 43.690994 66.451217 43.63742 66.558365 C 43.587194 66.665514 43.562489 66.786165 43.562489 66.9201 C 43.562489 67.020552 43.579129 67.107918 43.612616 67.181583 C 43.6461 67.251902 43.699665 67.315349 43.773329 67.372269 C 43.846994 67.425846 43.943726 67.47447 44.064268 67.517997 C 44.184809 67.561523 44.330682 67.606509 44.50145 67.653389 C 44.705702 67.710314 44.852877 67.760757 44.943284 67.804284 C 45.03369 67.847813 45.079193 67.916202 45.079193 68.009956 C 45.079193 68.103711 45.040451 68.175737 44.963437 68.225964 C 44.886425 68.27619 44.781114 68.301411 44.647178 68.301411 C 44.496501 68.301411 44.343867 68.273065 44.189841 68.216145 C 44.039163 68.155874 43.883926 68.068508 43.723203 67.954662 L 43.472056 68.376859 C 43.622734 68.507446 43.803193 68.607816 44.014141 68.678132 C 44.22509 68.748448 44.44117 68.783552 44.662164 68.783552 C 44.990306 68.783552 45.250069 68.709706 45.440928 68.562377 C 45.631786 68.4117 45.727215 68.207838 45.727215 67.950012 C 45.727215 67.839515 45.706934 67.745388 45.666754 67.668375 C 45.629922 67.588016 45.569596 67.517808 45.485886 67.457535 C 45.405525 67.397267 45.300214 67.343701 45.169626 67.296821 C 45.042387 67.249946 44.888452 67.203142 44.707639 67.156262 C 44.610536 67.132828 44.528111 67.111243 44.461143 67.091149 C 44.397523 67.067709 44.345776 67.044309 44.305597 67.020869 C 44.265417 66.997429 44.235256 66.970387 44.215163 66.940254 C 44.198423 66.910121 44.189841 66.871379 44.189841 66.824499 C 44.189841 66.720701 44.228584 66.645553 44.305597 66.598673 C 44.38261 66.551793 44.478039 66.528393 44.591884 66.528393 C 44.715774 66.528393 44.839548 66.551793 44.963437 66.598673 C 45.090677 66.645551 45.22121 66.719397 45.355145 66.819848 L 45.626446 66.413154 C 45.482466 66.285913 45.323589 66.193605 45.149473 66.136686 C 44.978705 66.079766 44.794607 66.051419 44.597052 66.051419 C 44.587844 66.051419 44.578276 66.051262 44.569146 66.051419 z M 37.53495 66.05607 C 37.143189 66.05607 36.778631 66.168659 36.440444 66.393001 L 36.646116 66.819848 C 36.786748 66.722745 36.924041 66.648899 37.057977 66.598673 C 37.191912 66.548446 37.329206 66.523225 37.469838 66.523225 C 37.664045 66.523225 37.809917 66.570031 37.907021 66.663785 C 38.007473 66.75754 38.057399 66.891712 38.057399 67.065828 L 38.057399 67.216723 C 37.970341 67.179896 37.869971 67.151033 37.756125 67.13094 C 37.645628 67.110847 37.531738 67.100968 37.414544 67.100968 C 37.250474 67.100968 37.09966 67.122553 36.962375 67.16608 C 36.825092 67.206261 36.70626 67.263464 36.605808 67.337129 C 36.508702 67.410794 36.431734 67.501282 36.374814 67.60843 C 36.321241 67.71223 36.294716 67.826121 36.294716 67.950012 C 36.294716 68.070553 36.316302 68.180806 36.359828 68.281257 C 36.406706 68.381709 36.470153 68.470379 36.550514 68.547391 C 36.630876 68.621058 36.726305 68.679564 36.836802 68.723091 C 36.947298 68.763271 37.06613 68.783552 37.193369 68.783552 C 37.384227 68.783552 37.563384 68.743508 37.730804 68.663146 C 37.898223 68.582785 38.040974 68.465256 38.158168 68.31123 L 38.173154 68.456957 C 38.189896 68.550715 38.231761 68.62638 38.298728 68.6833 C 38.369045 68.74022 38.467595 68.768566 38.594834 68.768566 C 38.678544 68.768566 38.777611 68.756866 38.891457 68.733426 L 38.891457 68.160851 C 38.834533 68.157498 38.79267 68.140859 38.765883 68.110725 C 38.742443 68.08059 38.730743 68.030147 38.730743 67.95983 L 38.730743 67.141275 C 38.730743 66.789694 38.624915 66.521868 38.413966 66.337707 C 38.206366 66.150197 37.913318 66.05607 37.53495 66.05607 z M 49.152329 66.05607 C 48.760567 66.05607 48.395493 66.168659 48.057305 66.393001 L 48.263494 66.819848 C 48.404126 66.722745 48.54142 66.648899 48.675356 66.598673 C 48.809291 66.548446 48.946585 66.523225 49.087217 66.523225 C 49.281424 66.523225 49.426779 66.570031 49.523883 66.663785 C 49.624334 66.75754 49.674778 66.891712 49.674778 67.065828 L 49.674778 67.216723 C 49.58772 67.179896 49.487349 67.151033 49.373504 67.13094 C 49.263008 67.110847 49.149117 67.100968 49.031923 67.100968 C 48.867852 67.100968 48.717038 67.122553 48.579754 67.16608 C 48.44247 67.206261 48.323639 67.263464 48.223187 67.337129 C 48.126081 67.410794 48.049113 67.501282 47.992193 67.60843 C 47.93862 67.71223 47.911578 67.826121 47.911578 67.950012 C 47.911578 68.070553 47.93368 68.180806 47.977207 68.281257 C 48.024084 68.381709 48.087532 68.470379 48.167893 68.547391 C 48.248255 68.621058 48.343684 68.679564 48.45418 68.723091 C 48.564677 68.763271 48.683509 68.783552 48.810748 68.783552 C 49.001606 68.783552 49.180764 68.743508 49.348183 68.663146 C 49.515603 68.582785 49.657837 68.465256 49.77503 68.31123 L 49.790016 68.456957 C 49.806758 68.550715 49.848622 68.62638 49.91559 68.6833 C 49.985906 68.74022 50.084974 68.768566 50.212213 68.768566 C 50.295922 68.768566 50.394473 68.756866 50.508319 68.733426 L 50.508319 68.160851 C 50.451396 68.157498 50.409532 68.140859 50.382745 68.110725 C 50.359305 68.08059 50.347605 68.030147 50.347605 67.95983 L 50.347605 67.141275 C 50.347605 66.789694 50.242294 66.521868 50.031345 66.337707 C 49.823745 66.150197 49.530697 66.05607 49.152329 66.05607 z M 57.625714 66.05607 C 57.411417 66.05607 57.216919 66.092993 57.042804 66.166658 C 56.872036 66.240322 56.72668 66.340693 56.606138 66.467931 C 56.485596 66.591822 56.393289 66.737695 56.329669 66.905114 C 56.266049 67.069185 56.234067 67.245221 56.234067 67.43273 C 56.234067 67.613544 56.266049 67.78594 56.329669 67.950012 C 56.396637 68.114083 56.490247 68.257619 56.610789 68.38151 C 56.73133 68.5054 56.877203 68.604468 57.047971 68.678132 C 57.218739 68.748448 57.409598 68.783552 57.620546 68.783552 C 57.915204 68.783552 58.16769 68.720105 58.378639 68.592866 C 58.592936 68.462279 58.748691 68.296126 58.845794 68.095222 L 58.268569 67.934509 C 58.225039 68.041657 58.142614 68.129023 58.022072 68.195991 C 57.904878 68.259611 57.779287 68.291593 57.645351 68.291593 C 57.558293 68.291593 57.474565 68.276251 57.394203 68.246118 C 57.313843 68.21598 57.242333 68.172296 57.178713 68.115376 C 57.115092 68.058454 57.06283 67.990065 57.02265 67.909704 C 56.98247 67.829342 56.957249 67.737035 56.947202 67.633235 L 58.981703 67.633235 C 58.988403 67.606447 58.991522 67.573163 58.991522 67.532983 C 58.994855 67.492799 58.996689 67.450936 58.996689 67.407409 C 58.996689 67.229945 58.964708 67.059367 58.901088 66.895296 C 58.840817 66.731224 58.750329 66.58717 58.629787 66.463281 C 58.512593 66.33939 58.369056 66.240322 58.198289 66.166658 C 58.030869 66.092993 57.840011 66.05607 57.625714 66.05607 z M 61.061163 66.05607 C 60.830124 66.05607 60.622106 66.103392 60.437945 66.197147 C 60.253783 66.290902 60.113369 66.421435 60.016265 66.588854 L 60.016265 66.101546 L 59.408551 66.101546 L 59.408551 68.733426 L 60.081378 68.733426 L 60.081378 67.196569 C 60.104816 67.116208 60.141739 67.042362 60.191965 66.975394 C 60.242189 66.908429 60.297573 66.851742 60.357847 66.804862 C 60.421467 66.754635 60.488552 66.715893 60.558868 66.689107 C 60.629184 66.66232 60.697572 66.648799 60.76454 66.648799 C 60.895127 66.648799 60.997317 66.697423 61.070981 66.794527 C 61.144646 66.89163 61.181569 67.045565 61.181569 67.256514 L 61.181569 68.733426 L 61.854396 68.733426 L 61.854396 67.091149 C 61.854396 66.963911 61.842696 66.838319 61.819256 66.714428 C 61.799164 66.590538 61.760938 66.479769 61.704018 66.382665 C 61.647094 66.285564 61.566489 66.206777 61.462689 66.146504 C 61.358889 66.086231 61.225234 66.05607 61.061163 66.05607 z M 30.835101 66.101546 L 30.835101 68.733426 L 31.507928 68.733426 L 31.507928 66.101546 L 30.835101 66.101546 z M 40.538901 66.101546 L 40.538901 67.74899 C 40.538901 68.090526 40.609109 68.34847 40.749741 68.522586 C 40.890373 68.696702 41.096055 68.783552 41.367275 68.783552 C 41.588268 68.783552 41.790828 68.738567 41.974989 68.64816 C 42.159151 68.557754 42.309964 68.421763 42.427158 68.24095 L 42.442144 68.452306 C 42.455538 68.549412 42.499221 68.62638 42.572886 68.6833 C 42.649898 68.736873 42.748449 68.763399 42.868992 68.763399 C 42.905826 68.763399 42.946388 68.761564 42.989915 68.758231 C 43.036792 68.754884 43.093479 68.74682 43.160447 68.733426 L 43.160447 68.160851 C 43.103523 68.157498 43.06166 68.140859 43.034873 68.110725 C 43.011433 68.08059 42.999733 68.030147 42.999733 67.95983 L 42.999733 66.101546 L 42.326906 66.101546 L 42.326906 67.734004 C 42.249893 67.894727 42.149005 68.014861 42.025116 68.095222 C 41.904573 68.172236 41.778982 68.210978 41.648394 68.210978 C 41.357085 68.210978 41.211729 68.008418 41.211729 67.603263 L 41.211729 66.101546 L 40.538901 66.101546 z M 50.609088 66.101546 L 51.703595 68.733426 L 52.256532 68.733426 L 52.703534 67.577941 L 53.155186 68.733426 L 53.707607 68.733426 L 54.807798 66.101546 L 54.170111 66.101546 L 53.386179 68.10039 L 53.069919 67.246695 L 53.527256 66.106713 L 52.984653 66.106713 L 52.703534 66.914933 L 52.427065 66.106713 L 51.884462 66.106713 L 52.346966 67.246695 L 52.025539 68.10039 L 51.241607 66.101546 L 50.609088 66.101546 z M 55.119407 66.101546 L 55.119407 68.733426 L 55.792234 68.733426 L 55.792234 66.101546 L 55.119407 66.101546 z M 57.615378 66.543379 C 57.79954 66.543379 57.955294 66.603705 58.082533 66.724247 C 58.213123 66.84144 58.286969 66.999014 58.303709 67.196569 L 56.937384 67.196569 C 56.944077 67.099466 56.965663 67.010797 57.002496 66.930436 C 57.042675 66.850072 57.093118 66.781167 57.153391 66.724247 C 57.213662 66.667322 57.28205 66.623639 57.359063 66.593505 C 57.439425 66.560019 57.524972 66.543379 57.615378 66.543379 z M 37.525132 67.477689 C 37.61219 67.477689 37.702679 67.487575 37.796433 67.507661 C 37.890188 67.524408 37.977038 67.547808 38.057399 67.577941 L 38.057399 67.879732 C 38.057399 67.95005 38.020476 68.013498 37.946812 68.070418 C 37.889889 68.137386 37.809799 68.190951 37.705999 68.231131 C 37.605547 68.271311 37.498417 68.291593 37.384572 68.291593 C 37.257333 68.291593 37.150203 68.25467 37.063145 68.181005 C 36.976087 68.103993 36.932403 68.008563 36.932403 67.894718 C 36.932403 67.774175 36.987788 67.675108 37.098284 67.598095 C 37.208782 67.517734 37.351016 67.477689 37.525132 67.477689 z M 49.142511 67.477689 C 49.229568 67.477689 49.320057 67.487575 49.413812 67.507661 C 49.507566 67.524408 49.594417 67.547808 49.674778 67.577941 L 49.674778 67.879732 C 49.674778 67.95005 49.637855 68.013498 49.56419 68.070418 C 49.507268 68.137386 49.427178 68.190951 49.323378 68.231131 C 49.222926 68.271311 49.115796 68.291593 49.001951 68.291593 C 48.874712 68.291593 48.767064 68.25467 48.680007 68.181005 C 48.592948 68.103993 48.549782 68.008563 48.549782 67.894718 C 48.549782 67.774175 48.605166 67.675108 48.715663 67.598095 C 48.82616 67.517734 48.968394 67.477689 49.142511 67.477689 z M 62.426971 68.009956 L 62.426971 68.733426 L 62.979392 68.733426 L 62.979392 68.009956 L 62.426971 68.009956 z M 63.557135 68.009956 L 63.557135 68.733426 L 64.109556 68.733426 L 64.109556 68.009956 L 63.557135 68.009956 z M 64.687298 68.009956 L 64.687298 68.733426 L 65.239719 68.733426 L 65.239719 68.009956 L 64.687298 68.009956 z " /></g></g></svg>
