<?xml version="1.0" encoding="UTF-8" standalone="no"?>
<svg
   width="700.00061"
   height="220"
   viewBox="0 0 185.20849 58.208335"
   version="1.1"
   id="svg243962"
   xml:space="preserve"
   xmlns="http://www.w3.org/2000/svg"
   xmlns:svg="http://www.w3.org/2000/svg"><defs
     id="defs243959" /><g
     id="layer2"
     style="font-variation-settings:normal;opacity:1;vector-effect:none;fill:#cbe1fb;fill-opacity:1;stroke-width:0.125564;stroke-linecap:butt;stroke-linejoin:miter;stroke-miterlimit:4;stroke-dasharray:none;stroke-dashoffset:0;stroke-opacity:1;-inkscape-stroke:none;stop-color:#000000;stop-opacity:1"
     transform="translate(-3123.3355)"><g
       id="layer3-3-3-0"
       transform="translate(3111.8255,-31.375647)"
       style="font-variation-settings:normal;display:inline;vector-effect:none;fill:#cbe1fb;fill-opacity:1;stroke-width:0.125564;stroke-linecap:butt;stroke-linejoin:miter;stroke-miterlimit:4;stroke-dasharray:none;stroke-dashoffset:0;stroke-opacity:1;-inkscape-stroke:none;stop-color:#000000;stop-opacity:1"><g
         aria-label="Üdvözöljük!"
         id="text118971-4-0-1"
         style="font-size:13.58px;line-height:1.25;font-family:'Roboto Condensed';-inkscape-font-specification:'Roboto Condensed, ';vector-effect:none;stroke-width:0.125564;stop-color:#000000;stop-opacity:1"><path
           d="m 20.621758,40.236545 v -1.61602 h 1.50738 v 1.61602 z m 2.60736,0 v -1.61602 h 1.50738 v 1.61602 z m -0.55678,9.13934 q 0.66542,0 1.11356,-0.2716 0.46172,-0.2716 0.73332,-0.70616 0.28518,-0.43456 0.39382,-0.99134 0.12222,-0.57036 0.12222,-1.16788 v -4.91596 h 1.86046 v 4.91596 q 0,0.99134 -0.24444,1.86046 -0.23086,0.86912 -0.7469,1.52096 -0.50246,0.65184 -1.30368,1.03208 -0.80122,0.38024 -1.91478,0.38024 -1.1543,0 -1.9691,-0.39382 -0.80122,-0.4074 -1.30368,-1.05924 -0.50246,-0.66542 -0.73332,-1.53454 -0.21728,-0.86912 -0.21728,-1.80614 v -4.91596 h 1.87404 v 4.91596 q 0,0.6111 0.10864,1.18146 0.12222,0.55678 0.39382,0.99134 0.28518,0.43456 0.73332,0.70616 0.44814,0.25802 1.09998,0.25802 z"
           style="font-weight:bold;font-family:Raleway;-inkscape-font-specification:Raleway;vector-effect:none;stop-color:#000000;stop-opacity:1"
           id="path440" /><path
           d="m 31.431401,51.100545 q -0.73332,0 -1.358,-0.28518 -0.62468,-0.28518 -1.07282,-0.78764 -0.44814,-0.50246 -0.70616,-1.16788 -0.24444,-0.679 -0.24444,-1.45306 0,-0.77406 0.23086,-1.43948 0.24444,-0.66542 0.66542,-1.16788 0.42098,-0.50246 1.00492,-0.78764 0.58394,-0.28518 1.27652,-0.28518 0.78764,0 1.41232,0.38024 0.63826,0.38024 0.99134,0.99134 v -4.04684 h 1.81972 v 7.82208 q 0,0.28518 0.09506,0.4074 0.09506,0.12222 0.32592,0.1358 v 1.54812 q -0.4753,0.09506 -0.77406,0.09506 -0.48888,0 -0.80122,-0.24444 -0.31234,-0.24444 -0.35308,-0.63826 l -0.04074,-0.44814 q -0.39382,0.679 -1.07282,1.03208 -0.66542,0.3395 -1.39874,0.3395 z m 0.4753,-1.54812 q 0.25802,0 0.52962,-0.08148 0.2716,-0.09506 0.50246,-0.25802 0.23086,-0.16296 0.4074,-0.38024 0.19012,-0.21728 0.28518,-0.4753 v -1.6975 q -0.10864,-0.29876 -0.31234,-0.5432 -0.19012,-0.25802 -0.44814,-0.43456 -0.24444,-0.19012 -0.52962,-0.29876 -0.2716,-0.10864 -0.5432,-0.10864 -0.4074,0 -0.76048,0.17654 -0.3395,0.17654 -0.58394,0.48888 -0.24444,0.29876 -0.38024,0.69258 -0.1358,0.39382 -0.1358,0.8148 0,0.44814 0.14938,0.82838 0.14938,0.38024 0.4074,0.66542 0.25802,0.28518 0.6111,0.44814 0.36666,0.16296 0.80122,0.16296 z"
           style="font-weight:bold;font-family:Raleway;-inkscape-font-specification:Raleway;vector-effect:none;stop-color:#000000;stop-opacity:1"
           id="path441" /><path
           d="m 39.158401,50.964745 -2.62094,-7.11592 h 1.87404 l 1.80614,5.6357 1.81972,-5.6357 h 1.71108 l -2.62094,7.11592 z"
           style="font-weight:bold;font-family:Raleway;-inkscape-font-specification:Raleway;vector-effect:none;stop-color:#000000;stop-opacity:1"
           id="path442" /><path
           d="m 45.676778,42.762425 v -1.61602 h 1.50738 v 1.61602 z m 2.60736,0 v -1.61602 h 1.50738 v 1.61602 z m -0.5432,8.33812 q -0.86912,0 -1.5617,-0.29876 -0.69258,-0.29876 -1.18146,-0.80122 -0.4753,-0.51604 -0.73332,-1.18146 -0.25802,-0.66542 -0.25802,-1.39874 0,-0.7469 0.25802,-1.41232 0.25802,-0.66542 0.73332,-1.16788 0.48888,-0.51604 1.18146,-0.8148 0.69258,-0.29876 1.5617,-0.29876 0.86912,0 1.54812,0.29876 0.69258,0.29876 1.16788,0.8148 0.48888,0.50246 0.7469,1.16788 0.25802,0.66542 0.25802,1.41232 0,0.73332 -0.25802,1.39874 -0.25802,0.66542 -0.73332,1.18146 -0.4753,0.50246 -1.16788,0.80122 -0.69258,0.29876 -1.5617,0.29876 z m -1.86046,-3.68018 q 0,0.4753 0.1358,0.86912 0.14938,0.38024 0.39382,0.66542 0.25802,0.28518 0.59752,0.44814 0.3395,0.14938 0.73332,0.14938 0.39382,0 0.73332,-0.14938 0.3395,-0.16296 0.58394,-0.44814 0.25802,-0.28518 0.39382,-0.679 0.14938,-0.39382 0.14938,-0.86912 0,-0.46172 -0.14938,-0.85554 -0.1358,-0.39382 -0.39382,-0.679 -0.24444,-0.28518 -0.58394,-0.43456 -0.3395,-0.16296 -0.73332,-0.16296 -0.39382,0 -0.73332,0.16296 -0.3395,0.16296 -0.59752,0.44814 -0.24444,0.28518 -0.39382,0.679 -0.1358,0.39382 -0.1358,0.85554 z"
           style="font-weight:bold;font-family:Raleway;-inkscape-font-specification:Raleway;vector-effect:none;stop-color:#000000;stop-opacity:1"
           id="path443" /><path
           d="m 52.0186,49.851185 3.96536,-4.72584 h -3.8024 v -1.27652 h 5.71718 v 1.11356 l -3.9382,4.72584 h 4.0061 v 1.27652 H 52.0186 Z"
           style="font-weight:bold;font-family:Raleway;-inkscape-font-specification:Raleway;vector-effect:none;stop-color:#000000;stop-opacity:1"
           id="path444" /><path
           d="m 60.220868,42.762425 v -1.61602 h 1.50738 v 1.61602 z m 2.60736,0 v -1.61602 h 1.50738 v 1.61602 z m -0.5432,8.33812 q -0.86912,0 -1.5617,-0.29876 -0.69258,-0.29876 -1.18146,-0.80122 -0.4753,-0.51604 -0.73332,-1.18146 -0.25802,-0.66542 -0.25802,-1.39874 0,-0.7469 0.25802,-1.41232 0.25802,-0.66542 0.73332,-1.16788 0.48888,-0.51604 1.18146,-0.8148 0.69258,-0.29876 1.5617,-0.29876 0.86912,0 1.54812,0.29876 0.69258,0.29876 1.16788,0.8148 0.48888,0.50246 0.7469,1.16788 0.25802,0.66542 0.25802,1.41232 0,0.73332 -0.25802,1.39874 -0.25802,0.66542 -0.73332,1.18146 -0.4753,0.50246 -1.16788,0.80122 -0.69258,0.29876 -1.5617,0.29876 z m -1.86046,-3.68018 q 0,0.4753 0.1358,0.86912 0.14938,0.38024 0.39382,0.66542 0.25802,0.28518 0.59752,0.44814 0.3395,0.14938 0.73332,0.14938 0.39382,0 0.73332,-0.14938 0.3395,-0.16296 0.58394,-0.44814 0.25802,-0.28518 0.39382,-0.679 0.14938,-0.39382 0.14938,-0.86912 0,-0.46172 -0.14938,-0.85554 -0.1358,-0.39382 -0.39382,-0.679 -0.24444,-0.28518 -0.58394,-0.43456 -0.3395,-0.16296 -0.73332,-0.16296 -0.39382,0 -0.73332,0.16296 -0.3395,0.16296 -0.59752,0.44814 -0.24444,0.28518 -0.39382,0.679 -0.1358,0.39382 -0.1358,0.85554 z"
           style="font-weight:bold;font-family:Raleway;-inkscape-font-specification:Raleway;vector-effect:none;stop-color:#000000;stop-opacity:1"
           id="path445" /><path
           d="m 67.214554,41.051345 h 1.81972 v 7.63196 q 0,0.39382 0.19012,0.6111 0.19012,0.21728 0.5432,0.21728 0.16296,0 0.35308,-0.05432 0.2037,-0.05432 0.38024,-0.1358 l 0.24444,1.38516 q -0.36666,0.17654 -0.85554,0.2716 -0.48888,0.09506 -0.8827,0.09506 -0.85554,0 -1.33084,-0.44814 -0.46172,-0.46172 -0.46172,-1.30368 z"
           style="font-weight:bold;font-family:Raleway;-inkscape-font-specification:Raleway;vector-effect:none;stop-color:#000000;stop-opacity:1"
           id="path446" /><path
           d="m 70.949045,53.626425 q -0.51604,0 -0.97776,-0.16296 -0.46172,-0.14938 -0.82838,-0.4753 l 0.78764,-1.23578 q 0.14938,0.14938 0.36666,0.21728 0.21728,0.08148 0.43456,0.08148 0.35308,0 0.6111,-0.25802 0.25802,-0.24444 0.25802,-0.63826 v -7.30604 h 1.81972 v 7.17024 q 0,0.57036 -0.19012,1.04566 -0.19012,0.48888 -0.52962,0.82838 -0.32592,0.35308 -0.78764,0.5432 -0.44814,0.19012 -0.96418,0.19012 z m 0.65184,-10.76894 v -1.80614 h 1.81972 v 1.80614 z"
           style="font-weight:bold;font-family:Raleway;-inkscape-font-specification:Raleway;vector-effect:none;stop-color:#000000;stop-opacity:1"
           id="path447" /><path
           d="m 76.272401,42.762425 v -1.61602 h 1.50738 v 1.61602 z m 2.60736,0 v -1.61602 h 1.50738 v 1.61602 z m -1.6296,8.33812 q -1.09998,0 -1.67034,-0.70616 -0.57036,-0.70616 -0.57036,-2.09132 v -4.45424 h 1.81972 v 4.06042 q 0,1.64318 1.18146,1.64318 0.52962,0 1.0185,-0.31234 0.50246,-0.32592 0.8148,-0.97776 v -4.4135 h 1.81972 v 5.0246 q 0,0.28518 0.09506,0.4074 0.10864,0.12222 0.3395,0.1358 v 1.54812 q -0.2716,0.05432 -0.46172,0.0679 -0.17654,0.01358 -0.32592,0.01358 -0.48888,0 -0.80122,-0.21728 -0.29876,-0.23086 -0.35308,-0.62468 l -0.04074,-0.57036 q -0.4753,0.73332 -1.2222,1.09998 -0.7469,0.36666 -1.64318,0.36666 z"
           style="font-weight:bold;font-family:Raleway;-inkscape-font-specification:Raleway;vector-effect:none;stop-color:#000000;stop-opacity:1"
           id="path448" /><path
           d="m 88.331419,50.964745 -2.06416,-3.08266 -0.97776,0.96418 v 2.11848 h -1.81972 v -9.9134 h 1.81972 v 6.01594 l 2.8518,-3.20488 h 1.94194 l -2.6481,3.01476 2.83822,4.08758 z"
           style="font-weight:bold;font-family:Raleway;-inkscape-font-specification:Raleway;vector-effect:none;stop-color:#000000;stop-opacity:1"
           id="path449" /><path
           d="m 91.400481,47.338885 v -6.111 h 1.81972 v 6.111 z m 0,3.62586 v -2.05058 h 1.81972 v 2.05058 z"
           style="font-weight:bold;font-family:Raleway;-inkscape-font-specification:Raleway;vector-effect:none;stop-color:#000000;stop-opacity:1"
           id="path450" /></g><g
         aria-label="Állítsunk be néhány dolgot"
         id="text115541-7-2-8"
         style="font-size:5.02259px;line-height:1.25;font-family:'Roboto Condensed';-inkscape-font-specification:'Roboto Condensed, ';vector-effect:none;stroke-width:0.125564;stop-color:#000000;stop-opacity:1"><path
           d="m 32.037533,58.847322 h 0.612756 l 1.3561,3.566039 H 33.293181 L 32.96169,61.524362 h -1.245602 l -0.326469,0.888999 h -0.713208 z m 0.798592,2.189849 -0.492214,-1.401303 -0.512304,1.401303 z m -0.316423,-2.491205 -0.431943,-0.130587 0.27122,-0.597688 h 0.627824 z"
           style="font-weight:bold;font-family:Raleway;-inkscape-font-specification:Raleway;vector-effect:none;stop-color:#000000;stop-opacity:1"
           id="path417" /><path
           d="m 34.327829,58.74687 h 0.673027 v 2.822695 q 0,0.145656 0.07032,0.226017 0.07032,0.08036 0.200903,0.08036 0.06027,0 0.130588,-0.02009 0.07534,-0.02009 0.140632,-0.05023 l 0.09041,0.512304 q -0.13561,0.06529 -0.316423,0.100452 -0.180814,0.03516 -0.326469,0.03516 -0.316423,0 -0.492214,-0.165745 -0.170768,-0.170768 -0.170768,-0.482169 z"
           style="font-weight:bold;font-family:Raleway;-inkscape-font-specification:Raleway;vector-effect:none;stop-color:#000000;stop-opacity:1"
           id="path418" /><path
           d="m 35.919988,58.74687 h 0.673027 v 2.822695 q 0,0.145656 0.07032,0.226017 0.07032,0.08036 0.200904,0.08036 0.06027,0 0.130587,-0.02009 0.07534,-0.02009 0.140633,-0.05023 l 0.09041,0.512304 q -0.13561,0.06529 -0.316423,0.100452 -0.180813,0.03516 -0.326468,0.03516 -0.316424,0 -0.492214,-0.165745 -0.170768,-0.170768 -0.170768,-0.482169 z"
           style="font-weight:bold;font-family:Raleway;-inkscape-font-specification:Raleway;vector-effect:none;stop-color:#000000;stop-opacity:1"
           id="path419" /><path
           d="m 38.02445,59.475145 -0.431943,-0.130587 0.27122,-0.597688 h 0.627824 z m -0.507281,2.938216 v -2.631838 h 0.673027 v 2.631838 z"
           style="font-weight:bold;font-family:Raleway;-inkscape-font-specification:Raleway;vector-effect:none;stop-color:#000000;stop-opacity:1"
           id="path420" /><path
           d="m 40.375018,62.277751 q -0.13561,0.06027 -0.331491,0.120542 -0.195881,0.06027 -0.411852,0.06027 -0.140633,0 -0.266198,-0.03516 -0.120542,-0.03516 -0.215971,-0.110497 -0.09041,-0.08036 -0.145655,-0.200904 -0.05525,-0.125565 -0.05525,-0.301355 v -1.5118 H 38.602043 V 59.78152 h 0.346558 v -0.85384 h 0.673027 v 0.85384 h 0.552485 v 0.517327 h -0.552485 v 1.285783 q 0,0.140633 0.07032,0.200904 0.07534,0.05525 0.180813,0.05525 0.105474,0 0.205926,-0.03516 0.100452,-0.03516 0.160723,-0.06027 z"
           style="font-weight:bold;font-family:Raleway;-inkscape-font-specification:Raleway;vector-effect:none;stop-color:#000000;stop-opacity:1"
           id="path421" /><path
           d="m 41.721066,62.463586 q -0.33149,0 -0.647914,-0.105474 -0.316423,-0.105474 -0.542439,-0.301355 l 0.251129,-0.421898 q 0.241084,0.170768 0.467101,0.261175 0.231039,0.08538 0.457056,0.08538 0.200903,0 0.316423,-0.07534 0.115519,-0.07534 0.115519,-0.215971 0,-0.140633 -0.135609,-0.205927 -0.13561,-0.06529 -0.441988,-0.150677 -0.256153,-0.07032 -0.436966,-0.13561 -0.180813,-0.06529 -0.29131,-0.145655 -0.110497,-0.08538 -0.160723,-0.190859 -0.05023,-0.110497 -0.05023,-0.261174 0,-0.200904 0.07534,-0.361627 0.08036,-0.160723 0.220994,-0.27122 0.140633,-0.115519 0.326468,-0.17579 0.190859,-0.06027 0.411853,-0.06027 0.296333,0 0.552485,0.08538 0.261174,0.08538 0.477146,0.276243 l -0.27122,0.40683 q -0.200904,-0.150678 -0.391762,-0.220994 -0.185836,-0.07032 -0.371672,-0.07032 -0.170768,0 -0.286287,0.07032 -0.11552,0.07032 -0.11552,0.226016 0,0.07032 0.02511,0.11552 0.03014,0.0452 0.09041,0.08036 0.06027,0.03516 0.1557,0.07032 0.100452,0.03013 0.246107,0.06529 0.27122,0.07032 0.462078,0.140633 0.195881,0.07032 0.316423,0.160723 0.125565,0.09041 0.180813,0.210948 0.06027,0.11552 0.06027,0.281266 0,0.386739 -0.286288,0.612756 -0.286288,0.220993 -0.778502,0.220993 z"
           style="font-weight:bold;font-family:Raleway;-inkscape-font-specification:Raleway;vector-effect:none;stop-color:#000000;stop-opacity:1"
           id="path422" /><path
           d="m 44.026434,62.463586 q -0.406829,0 -0.617778,-0.261174 -0.210949,-0.261175 -0.210949,-0.773479 v -1.64741 h 0.673027 v 1.501755 q 0,0.607733 0.436965,0.607733 0.195881,0 0.376695,-0.115519 0.185835,-0.120543 0.301355,-0.361627 v -1.632342 h 0.673027 v 1.858359 q 0,0.105474 0.03516,0.150677 0.04018,0.0452 0.125565,0.05023 v 0.572576 q -0.100452,0.02009 -0.170768,0.02511 -0.06529,0.005 -0.120542,0.005 -0.180813,0 -0.296333,-0.08036 -0.110497,-0.08538 -0.130587,-0.231039 l -0.01507,-0.210949 q -0.175791,0.27122 -0.452033,0.40683 -0.276243,0.135609 -0.607734,0.135609 z"
           style="font-weight:bold;font-family:Raleway;-inkscape-font-specification:Raleway;vector-effect:none;stop-color:#000000;stop-opacity:1"
           id="path423" /><path
           d="m 48.772773,62.413361 h -0.673027 v -1.476642 q 0,-0.316423 -0.110497,-0.462078 -0.110497,-0.145655 -0.306378,-0.145655 -0.100452,0 -0.205926,0.04018 -0.105475,0.04018 -0.200904,0.11552 -0.09041,0.07032 -0.165746,0.170768 -0.07534,0.100452 -0.110497,0.220994 v 1.536913 h -0.673027 v -2.631838 h 0.607734 v 0.487192 q 0.145655,-0.25113 0.421897,-0.391762 0.276243,-0.140633 0.622802,-0.140633 0.246106,0 0.401807,0.09041 0.1557,0.09041 0.241084,0.236061 0.08538,0.145656 0.11552,0.331491 0.03516,0.185836 0.03516,0.376695 z"
           style="font-weight:bold;font-family:Raleway;-inkscape-font-specification:Raleway;vector-effect:none;stop-color:#000000;stop-opacity:1"
           id="path424" /><path
           d="m 51.158493,62.413361 -0.763434,-1.140128 -0.361626,0.356604 v 0.783524 H 49.360406 V 58.74687 h 0.673027 v 2.225007 l 1.054744,-1.185331 h 0.71823 l -0.979405,1.115015 1.049721,1.5118 z"
           style="font-weight:bold;font-family:Raleway;-inkscape-font-specification:Raleway;vector-effect:none;stop-color:#000000;stop-opacity:1"
           id="path425" /><path
           d="m 54.865158,62.463586 q -0.301356,0 -0.537417,-0.135609 -0.236062,-0.13561 -0.371672,-0.371672 v 0.457056 H 53.368426 V 58.74687 h 0.673027 v 1.496732 q 0.140633,-0.241085 0.366649,-0.371672 0.231039,-0.13561 0.537417,-0.13561 0.256152,0 0.467101,0.110497 0.210949,0.110497 0.361627,0.296333 0.1557,0.185836 0.236061,0.436965 0.08538,0.25113 0.08538,0.527372 0,0.286288 -0.09543,0.532395 -0.09041,0.246107 -0.256152,0.431942 -0.165745,0.180814 -0.391762,0.286288 -0.226016,0.105474 -0.487191,0.105474 z m -0.185836,-0.572575 q 0.160723,0 0.296333,-0.06027 0.13561,-0.06529 0.231039,-0.170768 0.09543,-0.105474 0.145655,-0.246107 0.05525,-0.140632 0.05525,-0.301355 0,-0.160723 -0.05023,-0.306378 -0.05023,-0.145655 -0.145655,-0.256152 -0.09041,-0.110497 -0.215972,-0.175791 -0.125565,-0.06529 -0.276242,-0.06529 -0.226017,0 -0.40683,0.150678 -0.175791,0.145655 -0.27122,0.361627 v 0.627823 q 0.03516,0.100452 0.100452,0.180814 0.07032,0.08036 0.1557,0.140632 0.08538,0.05525 0.185836,0.09041 0.100452,0.03014 0.195881,0.03014 z"
           style="font-weight:bold;font-family:Raleway;-inkscape-font-specification:Raleway;vector-effect:none;stop-color:#000000;stop-opacity:1"
           id="path426" /><path
           d="m 57.773232,62.463586 q -0.316423,0 -0.572575,-0.105474 -0.256152,-0.110497 -0.436966,-0.296333 -0.180813,-0.185836 -0.281265,-0.431942 -0.09543,-0.246107 -0.09543,-0.517327 0,-0.281265 0.09543,-0.527372 0.09543,-0.25113 0.276243,-0.436966 0.180813,-0.190858 0.436965,-0.301355 0.261175,-0.110497 0.582621,-0.110497 0.321445,0 0.572575,0.110497 0.256152,0.110497 0.431943,0.296333 0.180813,0.185836 0.271219,0.431943 0.09543,0.246107 0.09543,0.512304 0,0.06529 -0.005,0.125565 0,0.06027 -0.01004,0.100451 h -2.034149 q 0.01507,0.155701 0.07534,0.276243 0.06027,0.120542 0.1557,0.205926 0.09543,0.08538 0.215971,0.130587 0.120543,0.0452 0.25113,0.0452 0.200904,0 0.376694,-0.09543 0.180813,-0.100451 0.246107,-0.261174 l 0.577598,0.160723 q -0.145655,0.301355 -0.467101,0.497236 -0.316423,0.190858 -0.758411,0.190858 z m 0.683072,-1.587138 q -0.02511,-0.296333 -0.220994,-0.472123 -0.190858,-0.180814 -0.467101,-0.180814 -0.13561,0 -0.256152,0.05023 -0.115519,0.0452 -0.205926,0.130588 -0.09041,0.08538 -0.150678,0.205926 -0.05525,0.120542 -0.06529,0.266197 z"
           style="font-weight:bold;font-family:Raleway;-inkscape-font-specification:Raleway;vector-effect:none;stop-color:#000000;stop-opacity:1"
           id="path427" /><path
           d="m 63.212689,62.413361 h -0.673027 v -1.476642 q 0,-0.316423 -0.110497,-0.462078 -0.110497,-0.145655 -0.306378,-0.145655 -0.100451,0 -0.205926,0.04018 -0.105474,0.04018 -0.200903,0.11552 -0.09041,0.07032 -0.165746,0.170768 -0.07534,0.100452 -0.110497,0.220994 v 1.536913 h -0.673027 v -2.631838 h 0.607733 v 0.487192 q 0.145656,-0.25113 0.421898,-0.391762 0.276242,-0.140633 0.622801,-0.140633 0.246107,0 0.401807,0.09041 0.155701,0.09041 0.241085,0.236061 0.08538,0.145656 0.115519,0.331491 0.03516,0.185836 0.03516,0.376695 z"
           style="font-weight:bold;font-family:Raleway;-inkscape-font-specification:Raleway;vector-effect:none;stop-color:#000000;stop-opacity:1"
           id="path428" /><path
           d="m 65.186559,59.475145 -0.431943,-0.130587 0.27122,-0.597688 h 0.627824 z m -0.165746,2.988441 q -0.316423,0 -0.572575,-0.105474 -0.256152,-0.110497 -0.436965,-0.296333 -0.180813,-0.185836 -0.281265,-0.431942 -0.09543,-0.246107 -0.09543,-0.517327 0,-0.281265 0.09543,-0.527372 0.09543,-0.25113 0.276242,-0.436966 0.180814,-0.190858 0.436966,-0.301355 0.261174,-0.110497 0.58262,-0.110497 0.321446,0 0.572575,0.110497 0.256152,0.110497 0.431943,0.296333 0.180813,0.185836 0.27122,0.431943 0.09543,0.246107 0.09543,0.512304 0,0.06529 -0.005,0.125565 0,0.06027 -0.01005,0.100451 h -2.034149 q 0.01507,0.155701 0.07534,0.276243 0.06027,0.120542 0.155701,0.205926 0.09543,0.08538 0.215971,0.130587 0.120542,0.0452 0.251129,0.0452 0.200904,0 0.376695,-0.09543 0.180813,-0.100451 0.246107,-0.261174 l 0.577597,0.160723 q -0.145655,0.301355 -0.4671,0.497236 -0.316424,0.190858 -0.758412,0.190858 z m 0.683073,-1.587138 q -0.02511,-0.296333 -0.220994,-0.472123 -0.190859,-0.180814 -0.467101,-0.180814 -0.13561,0 -0.256152,0.05023 -0.11552,0.0452 -0.205926,0.130588 -0.09041,0.08538 -0.150678,0.205926 -0.05525,0.120542 -0.06529,0.266197 z"
           style="font-weight:bold;font-family:Raleway;-inkscape-font-specification:Raleway;vector-effect:none;stop-color:#000000;stop-opacity:1"
           id="path429" /><path
           d="m 69.254851,62.413361 h -0.673027 v -1.476642 q 0,-0.311401 -0.115519,-0.457056 -0.11552,-0.150677 -0.326469,-0.150677 -0.09041,0 -0.190858,0.04018 -0.100452,0.04018 -0.190859,0.11552 -0.09041,0.07032 -0.165745,0.170768 -0.07534,0.100452 -0.110497,0.220994 v 1.536913 H 66.80885 V 58.74687 h 0.673027 v 1.521845 q 0.145655,-0.256153 0.391762,-0.391762 0.25113,-0.140633 0.552485,-0.140633 0.256152,0 0.416875,0.09041 0.160723,0.08538 0.251129,0.231039 0.09041,0.145655 0.125565,0.331491 0.03516,0.185836 0.03516,0.381717 z"
           style="font-weight:bold;font-family:Raleway;-inkscape-font-specification:Raleway;vector-effect:none;stop-color:#000000;stop-opacity:1"
           id="path430" /><path
           d="m 70.560718,62.463586 q -0.190858,0 -0.356604,-0.06027 -0.165745,-0.06529 -0.286287,-0.17579 -0.120542,-0.11552 -0.190859,-0.266198 -0.06529,-0.150677 -0.06529,-0.33149 0,-0.185836 0.08036,-0.341537 0.08538,-0.160722 0.231039,-0.271219 0.150678,-0.110497 0.356604,-0.170769 0.205926,-0.06529 0.452033,-0.06529 0.175791,0 0.341536,0.03014 0.170768,0.03014 0.301356,0.08538 v -0.150677 q 0,-0.261175 -0.150678,-0.401808 -0.145655,-0.140632 -0.436965,-0.140632 -0.210949,0 -0.411853,0.07534 -0.200903,0.07534 -0.411852,0.220994 l -0.205926,-0.42692 q 0.507281,-0.336514 1.094924,-0.336514 0.567553,0 0.878954,0.281265 0.316423,0.276243 0.316423,0.803615 v 0.818682 q 0,0.105474 0.03516,0.150677 0.04018,0.0452 0.125565,0.05023 v 0.572576 q -0.170768,0.03516 -0.296333,0.03516 -0.190858,0 -0.296333,-0.08538 -0.100452,-0.08538 -0.125565,-0.226017 l -0.01507,-0.145655 q -0.175791,0.231039 -0.426921,0.351581 -0.251129,0.120542 -0.537417,0.120542 z m 0.190859,-0.492213 q 0.170768,0 0.321446,-0.06027 0.1557,-0.06027 0.241084,-0.160723 0.110497,-0.08538 0.110497,-0.190859 v -0.301355 q -0.120542,-0.0452 -0.261175,-0.07032 -0.140632,-0.03014 -0.27122,-0.03014 -0.261174,0 -0.42692,0.120542 -0.165745,0.11552 -0.165745,0.296333 0,0.170768 0.130587,0.286288 0.130587,0.110497 0.321446,0.110497 z m 0.326468,-2.496228 -0.431943,-0.130587 0.27122,-0.597688 h 0.627824 z"
           style="font-weight:bold;font-family:Raleway;-inkscape-font-specification:Raleway;vector-effect:none;stop-color:#000000;stop-opacity:1"
           id="path431" /><path
           d="m 75.171451,62.413361 h -0.673027 v -1.476642 q 0,-0.316423 -0.110497,-0.462078 -0.110497,-0.145655 -0.306378,-0.145655 -0.100452,0 -0.205927,0.04018 -0.105474,0.04018 -0.200903,0.11552 -0.09041,0.07032 -0.165746,0.170768 -0.07534,0.100452 -0.110497,0.220994 v 1.536913 h -0.673027 v -2.631838 h 0.607734 v 0.487192 q 0.145655,-0.25113 0.421897,-0.391762 0.276243,-0.140633 0.622801,-0.140633 0.246107,0 0.401808,0.09041 0.1557,0.09041 0.241084,0.236061 0.08538,0.145656 0.115519,0.331491 0.03516,0.185836 0.03516,0.376695 z"
           style="font-weight:bold;font-family:Raleway;-inkscape-font-specification:Raleway;vector-effect:none;stop-color:#000000;stop-opacity:1"
           id="path432" /><path
           d="m 75.754056,62.925665 q 0.08538,0.02511 0.165745,0.03516 0.08036,0.01507 0.13561,0.01507 0.06529,0 0.120542,-0.02511 0.05525,-0.02511 0.100452,-0.09041 0.0452,-0.06027 0.09041,-0.170768 0.0452,-0.110497 0.09543,-0.276242 l -1.039676,-2.631838 h 0.693117 l 0.713208,2.049217 0.632846,-2.049217 h 0.632847 l -1.10497,3.154187 q -0.09543,0.276242 -0.326468,0.452033 -0.231039,0.175791 -0.572576,0.175791 -0.08036,0 -0.165745,-0.01507 -0.08036,-0.01004 -0.170768,-0.04018 z"
           style="font-weight:bold;font-family:Raleway;-inkscape-font-specification:Raleway;vector-effect:none;stop-color:#000000;stop-opacity:1"
           id="path433" /><path
           d="m 80.620939,62.463586 q -0.27122,0 -0.502259,-0.105474 -0.231039,-0.105474 -0.396785,-0.29131 -0.165745,-0.185836 -0.261174,-0.431943 -0.09041,-0.251129 -0.09041,-0.537417 0,-0.286288 0.08538,-0.532395 0.09041,-0.246107 0.246107,-0.431942 0.1557,-0.185836 0.371672,-0.291311 0.215971,-0.105474 0.472123,-0.105474 0.29131,0 0.52235,0.140633 0.236061,0.140632 0.366649,0.366649 V 58.74687 h 0.673027 v 2.893012 q 0,0.105474 0.03516,0.150677 0.03516,0.0452 0.120542,0.05023 v 0.572576 q -0.175791,0.03516 -0.286288,0.03516 -0.180813,0 -0.296332,-0.09041 -0.11552,-0.09041 -0.130588,-0.236062 l -0.01507,-0.165745 q -0.145655,0.251129 -0.396784,0.381717 -0.246107,0.125564 -0.517327,0.125564 z m 0.175791,-0.572575 q 0.09543,0 0.195881,-0.03014 0.100452,-0.03516 0.185836,-0.09543 0.08538,-0.06027 0.150677,-0.140632 0.07032,-0.08036 0.105475,-0.175791 V 60.8212 q -0.04018,-0.110497 -0.11552,-0.200904 -0.07032,-0.09543 -0.165745,-0.160723 -0.09041,-0.07032 -0.195881,-0.110497 -0.100452,-0.04018 -0.200904,-0.04018 -0.150678,0 -0.281265,0.06529 -0.125565,0.06529 -0.215971,0.180813 -0.09041,0.110497 -0.140633,0.256152 -0.05023,0.145655 -0.05023,0.301356 0,0.165745 0.05525,0.306378 0.05525,0.140632 0.150677,0.246107 0.09543,0.105474 0.226017,0.165745 0.13561,0.06027 0.296333,0.06027 z"
           style="font-weight:bold;font-family:Raleway;-inkscape-font-specification:Raleway;vector-effect:none;stop-color:#000000;stop-opacity:1"
           id="path434" /><path
           d="m 83.986067,62.463586 q -0.321446,0 -0.577598,-0.110496 -0.256152,-0.110497 -0.436965,-0.296333 -0.175791,-0.190859 -0.27122,-0.436966 -0.09543,-0.246107 -0.09543,-0.517326 0,-0.276243 0.09543,-0.52235 0.09543,-0.246107 0.27122,-0.431943 0.180813,-0.190858 0.436965,-0.301355 0.256152,-0.110497 0.577598,-0.110497 0.321446,0 0.572575,0.110497 0.256152,0.110497 0.431943,0.301355 0.180813,0.185836 0.276242,0.431943 0.09543,0.246107 0.09543,0.52235 0,0.271219 -0.09543,0.517326 -0.09543,0.246107 -0.27122,0.436966 -0.17579,0.185836 -0.431942,0.296333 -0.256152,0.110496 -0.577598,0.110496 z m -0.688095,-1.361121 q 0,0.17579 0.05023,0.321445 0.05525,0.140633 0.145655,0.246107 0.09543,0.105475 0.220994,0.165746 0.125565,0.05525 0.27122,0.05525 0.145655,0 0.27122,-0.05525 0.125564,-0.06027 0.215971,-0.165746 0.09543,-0.105474 0.145655,-0.251129 0.05525,-0.145655 0.05525,-0.321446 0,-0.170768 -0.05525,-0.316423 -0.05023,-0.145655 -0.145655,-0.25113 -0.09041,-0.105474 -0.215971,-0.160723 -0.125565,-0.06027 -0.27122,-0.06027 -0.145655,0 -0.27122,0.06027 -0.125565,0.06027 -0.220994,0.165746 -0.09041,0.105474 -0.145655,0.251129 -0.05023,0.145655 -0.05023,0.316424 z"
           style="font-weight:bold;font-family:Raleway;-inkscape-font-specification:Raleway;vector-effect:none;stop-color:#000000;stop-opacity:1"
           id="path435" /><path
           d="m 85.809263,58.74687 h 0.673027 v 2.822695 q 0,0.145656 0.07032,0.226017 0.07032,0.08036 0.200903,0.08036 0.06027,0 0.130588,-0.02009 0.07534,-0.02009 0.140632,-0.05023 l 0.09041,0.512304 q -0.13561,0.06529 -0.316423,0.100452 -0.180814,0.03516 -0.326469,0.03516 -0.316423,0 -0.492214,-0.165745 -0.170768,-0.170768 -0.170768,-0.482169 z"
           style="font-weight:bold;font-family:Raleway;-inkscape-font-specification:Raleway;vector-effect:none;stop-color:#000000;stop-opacity:1"
           id="path436" /><path
           d="m 88.436076,62.428428 q -0.266197,0 -0.482169,-0.105474 -0.215971,-0.105474 -0.376694,-0.286288 -0.1557,-0.185836 -0.241084,-0.42692 -0.08538,-0.241084 -0.08538,-0.512304 0,-0.286288 0.09041,-0.532395 0.09041,-0.246107 0.25113,-0.431942 0.160723,-0.185836 0.386739,-0.291311 0.226017,-0.105474 0.497237,-0.105474 0.306378,0 0.537417,0.140633 0.231039,0.135609 0.381717,0.366649 v -0.462079 h 0.587643 v 2.506273 q 0,0.29131 -0.110497,0.522349 -0.110497,0.231039 -0.306378,0.391762 -0.190859,0.160723 -0.462078,0.246107 -0.266198,0.08538 -0.582621,0.08538 -0.431943,0 -0.728275,-0.145655 -0.291311,-0.140632 -0.502259,-0.401807 l 0.366649,-0.356604 q 0.150677,0.185836 0.376694,0.29131 0.231039,0.105475 0.487191,0.105475 0.1557,0 0.296333,-0.0452 0.145655,-0.04018 0.256152,-0.130587 0.110497,-0.09041 0.170768,-0.231039 0.06529,-0.140633 0.06529,-0.331491 v -0.331491 q -0.130588,0.226016 -0.366649,0.351581 -0.236062,0.120542 -0.507282,0.120542 z m 0.226017,-0.537417 q 0.110497,0 0.210948,-0.03516 0.100452,-0.03516 0.185836,-0.09543 0.08538,-0.06027 0.150678,-0.140633 0.06529,-0.08036 0.100452,-0.170768 V 60.8212 q -0.09041,-0.23104 -0.286288,-0.371672 -0.190858,-0.140633 -0.401807,-0.140633 -0.1557,0 -0.281265,0.07032 -0.125565,0.06529 -0.215971,0.180813 -0.09041,0.110497 -0.140633,0.256152 -0.0452,0.145655 -0.0452,0.301355 0,0.160723 0.05525,0.301356 0.05525,0.140632 0.150678,0.246107 0.100452,0.105474 0.231039,0.165745 0.130587,0.06027 0.286288,0.06027 z"
           style="font-weight:bold;font-family:Raleway;-inkscape-font-specification:Raleway;vector-effect:none;stop-color:#000000;stop-opacity:1"
           id="path437" /><path
           d="m 91.806227,62.463586 q -0.321446,0 -0.577598,-0.110496 -0.256152,-0.110497 -0.436966,-0.296333 -0.17579,-0.190859 -0.271219,-0.436966 -0.09543,-0.246107 -0.09543,-0.517326 0,-0.276243 0.09543,-0.52235 0.09543,-0.246107 0.271219,-0.431943 0.180814,-0.190858 0.436966,-0.301355 0.256152,-0.110497 0.577598,-0.110497 0.321445,0 0.572575,0.110497 0.256152,0.110497 0.431943,0.301355 0.180813,0.185836 0.276242,0.431943 0.09543,0.246107 0.09543,0.52235 0,0.271219 -0.09543,0.517326 -0.09543,0.246107 -0.27122,0.436966 -0.17579,0.185836 -0.431942,0.296333 -0.256153,0.110496 -0.577598,0.110496 z m -0.688095,-1.361121 q 0,0.17579 0.05023,0.321445 0.05525,0.140633 0.145655,0.246107 0.09543,0.105475 0.220994,0.165746 0.125565,0.05525 0.27122,0.05525 0.145655,0 0.27122,-0.05525 0.125564,-0.06027 0.215971,-0.165746 0.09543,-0.105474 0.145655,-0.251129 0.05525,-0.145655 0.05525,-0.321446 0,-0.170768 -0.05525,-0.316423 -0.05023,-0.145655 -0.145655,-0.25113 -0.09041,-0.105474 -0.215971,-0.160723 -0.125565,-0.06027 -0.27122,-0.06027 -0.145655,0 -0.27122,0.06027 -0.125565,0.06027 -0.220994,0.165746 -0.09041,0.105474 -0.145655,0.251129 -0.05023,0.145655 -0.05023,0.316424 z"
           style="font-weight:bold;font-family:Raleway;-inkscape-font-specification:Raleway;vector-effect:none;stop-color:#000000;stop-opacity:1"
           id="path438" /><path
           d="m 95.176371,62.277751 q -0.13561,0.06027 -0.331491,0.120542 -0.195881,0.06027 -0.411852,0.06027 -0.140632,0 -0.266197,-0.03516 -0.120542,-0.03516 -0.215972,-0.110497 -0.09041,-0.08036 -0.145655,-0.200904 -0.05525,-0.125565 -0.05525,-0.301355 v -1.5118 H 93.403395 V 59.78152 h 0.346559 v -0.85384 h 0.673027 v 0.85384 h 0.552485 v 0.517327 h -0.552485 v 1.285783 q 0,0.140633 0.07032,0.200904 0.07534,0.05525 0.180813,0.05525 0.105475,0 0.205927,-0.03516 0.100451,-0.03516 0.160722,-0.06027 z"
           style="font-weight:bold;font-family:Raleway;-inkscape-font-specification:Raleway;vector-effect:none;stop-color:#000000;stop-opacity:1"
           id="path439" /></g></g></g></svg>
