<?xml version="1.0" encoding="UTF-8" standalone="no"?>
<svg width="100" height="100" viewBox="0 0 26.458334 26.458334" version="1.1" id="svg10012" inkscape:version="1.3-alpha (9cd57a7883, 2023-05-01)" sodipodi:docname="celticf.svg" xmlns:inkscape="http://www.inkscape.org/namespaces/inkscape" xmlns:sodipodi="http://sodipodi.sourceforge.net/DTD/sodipodi-0.dtd" xmlns="http://www.w3.org/2000/svg" xmlns:svg="http://www.w3.org/2000/svg" xmlns:rdf="http://www.w3.org/1999/02/22-rdf-syntax-ns#" xmlns:cc="http://creativecommons.org/ns#" xmlns:dc="http://purl.org/dc/elements/1.1/">
  <defs id="defs10006" />
  <sodipodi:namedview id="base" pagecolor="#ffffff" bordercolor="#666666" borderopacity="1.0" inkscape:pageopacity="0.0" inkscape:pageshadow="2" inkscape:zoom="1" inkscape:cx="38" inkscape:cy="50" inkscape:document-units="px" inkscape:current-layer="layer1" inkscape:document-rotation="0" showgrid="false" units="px" inkscape:window-width="1534" inkscape:window-height="843" inkscape:window-x="66" inkscape:window-y="20" inkscape:window-maximized="1" inkscape:showpageshadow="2" inkscape:pagecheckerboard="0" inkscape:deskcolor="#d1d1d1" />
  <metadata id="metadata10009">
    <rdf:RDF>
      <cc:Work rdf:about="">
        <dc:format>image/svg+xml</dc:format>
        <dc:type rdf:resource="http://purl.org/dc/dcmitype/StillImage" />
      </cc:Work>
    </rdf:RDF>
  </metadata>
  <g inkscape:label="Layer 1" inkscape:groupmode="layer" id="layer1" transform="translate(-70.005836,-46.768833)">
    <path style="color:#000000;font-style:normal;font-variant:normal;font-weight:normal;font-stretch:normal;font-size:medium;line-height:normal;font-family:sans-serif;font-variant-ligatures:normal;font-variant-position:normal;font-variant-caps:normal;font-variant-numeric:normal;font-variant-alternates:normal;font-variant-east-asian:normal;font-feature-settings:normal;font-variation-settings:normal;text-indent:0;text-align:start;text-decoration:none;text-decoration-line:none;text-decoration-style:solid;text-decoration-color:#000000;letter-spacing:normal;word-spacing:normal;text-transform:none;writing-mode:lr-tb;direction:ltr;text-orientation:mixed;dominant-baseline:auto;baseline-shift:baseline;text-anchor:start;white-space:normal;shape-padding:0;shape-margin:0;inline-size:0;clip-rule:nonzero;display:inline;overflow:visible;visibility:visible;opacity:0.2;isolation:auto;mix-blend-mode:normal;color-interpolation:sRGB;color-interpolation-filters:linearRGB;solid-color:#000000;solid-opacity:1;vector-effect:none;fill:#000000;fill-opacity:1;fill-rule:nonzero;stroke:none;stroke-width:0.0784929px;stroke-linecap:butt;stroke-linejoin:miter;stroke-miterlimit:4;stroke-dasharray:none;stroke-dashoffset:0;stroke-opacity:1;paint-order:stroke markers fill;color-rendering:auto;image-rendering:auto;shape-rendering:auto;text-rendering:auto;enable-background:accumulate;stop-color:#000000" d="m 93.818337,50.635938 -0.747716,0.0014 v 3.370632 1.919012 14.119813 h -0.48056 -18.465535 v 0.634822 h 19.693811 z" id="path9068" />
    <path style="color:#000000;font-style:normal;font-variant:normal;font-weight:normal;font-stretch:normal;font-size:medium;line-height:normal;font-family:sans-serif;font-variant-ligatures:normal;font-variant-position:normal;font-variant-caps:normal;font-variant-numeric:normal;font-variant-alternates:normal;font-variant-east-asian:normal;font-feature-settings:normal;font-variation-settings:normal;text-indent:0;text-align:start;text-decoration:none;text-decoration-line:none;text-decoration-style:solid;text-decoration-color:#000000;letter-spacing:normal;word-spacing:normal;text-transform:none;writing-mode:lr-tb;direction:ltr;text-orientation:mixed;dominant-baseline:auto;baseline-shift:baseline;text-anchor:start;white-space:normal;shape-padding:0;shape-margin:0;inline-size:0;clip-rule:nonzero;display:inline;overflow:visible;visibility:visible;opacity:0.7;isolation:auto;mix-blend-mode:normal;color-interpolation:sRGB;color-interpolation-filters:linearRGB;solid-color:#000000;solid-opacity:1;vector-effect:none;fill:#ffffff;fill-opacity:1;fill-rule:nonzero;stroke:none;stroke-width:0.351486;stroke-linecap:butt;stroke-linejoin:miter;stroke-miterlimit:4;stroke-dasharray:none;stroke-dashoffset:0;stroke-opacity:1;paint-order:stroke markers fill;color-rendering:auto;image-rendering:auto;shape-rendering:auto;text-rendering:auto;enable-background:accumulate;stop-color:#000000" d="m 73.093393,49.756372 v 0.0073 4.329057 1.919068 13.592465 h 0.03895 19.457292 0.0387 v -13.677398 -1.919015 -4.244177 -0.0073 z" id="path9037" />
    <path id="path9035" style="color:#000000;font-style:normal;font-variant:normal;font-weight:normal;font-stretch:normal;font-size:medium;line-height:normal;font-family:sans-serif;font-variant-ligatures:normal;font-variant-position:normal;font-variant-caps:normal;font-variant-numeric:normal;font-variant-alternates:normal;font-variant-east-asian:normal;font-feature-settings:normal;font-variation-settings:normal;text-indent:0;text-align:start;text-decoration:none;text-decoration-line:none;text-decoration-style:solid;text-decoration-color:#000000;letter-spacing:normal;word-spacing:normal;text-transform:none;writing-mode:lr-tb;direction:ltr;text-orientation:mixed;dominant-baseline:auto;baseline-shift:baseline;text-anchor:start;white-space:normal;shape-padding:0;shape-margin:0;inline-size:0;clip-rule:nonzero;display:inline;overflow:visible;visibility:visible;opacity:0.4;isolation:auto;mix-blend-mode:normal;color-interpolation:sRGB;color-interpolation-filters:linearRGB;solid-color:#000000;solid-opacity:1;vector-effect:none;fill:#000000;fill-opacity:1;fill-rule:nonzero;stroke:none;stroke-width:0.351486;stroke-linecap:butt;stroke-linejoin:miter;stroke-miterlimit:4;stroke-dasharray:none;stroke-dashoffset:0;stroke-opacity:1;paint-order:stroke markers fill;color-rendering:auto;image-rendering:auto;shape-rendering:auto;text-rendering:auto;enable-background:accumulate;stop-color:#000000" d="m 72.651671,49.31439 v 0.441826 0.0073 4.32963 1.918755 14.034603 h 0.480292 19.458098 0.480562 V 55.926637 54.007674 49.763497 49.31465 Z m 0.441586,0.441826 h 19.534969 v 0.0073 4.244437 1.919015 13.677398 H 92.589526 73.13223 73.09327 V 56.011882 54.092606 49.763497 Z" />
    <g inkscape:label="Celtic Flower" style="fill:#ffffff;stroke:#000000;stroke-width:2" class="prefab" id="g5" transform="matrix(0.02296809,0,0,0.02296809,72.321512,49.07966)" inkscape:transform-center-x="0.063772815" inkscape:transform-center-y="0.098876488">&#10;  <path d="M 856.63991,48.101367 H 56.639914 L 856.63991,848.10137 Z m -400,0 H 856.63989 V 848.10137 H 456.63991 v -400 z M 56.815546,448.10137 H 856.63988 v 400 H 56.815546 Z m -10e-7,-400.000001 H 856.63989 L 56.815545,848.1014 Z" id="path1" style="vector-effect:non-scaling-stroke;fill:none;fill-opacity:1;stroke:#00349c;stroke-opacity:1;-inkscape-stroke:hairline" />
&#10;  <path d="M 336.51882,87.866992 A 239.94731,240 0 0 0 96.571555,327.86699 a 239.94731,240 0 0 0 239.947265,240 239.94731,240 0 0 0 239.94921,-240 A 239.94731,240 0 0 0 336.51882,87.866992 Z m 0,79.999998 a 159.96487,160 0 0 1 159.96484,160 159.96487,160 0 0 1 -159.96484,160 159.96487,160 0 0 1 -159.96485,-160 159.96487,160 0 0 1 159.96485,-160 z m 0,80 a 79.982437,80 0 0 0 -79.98243,80 79.982437,80 0 0 0 79.98243,80 79.982437,80 0 0 0 79.98242,-80 79.982437,80 0 0 0 -79.98242,-80 z" id="path2" style="vector-effect:non-scaling-stroke;fill:none;fill-opacity:1;stroke:#00349c;stroke-opacity:1;-inkscape-stroke:hairline" />
&#10;  <path d="m 576.46803,87.866992 a 239.94731,240 0 0 0 -239.94921,239.999998 239.94731,240 0 0 0 239.94921,240 239.94731,240 0 0 0 239.94727,-240 A 239.94731,240 0 0 0 576.46803,87.866992 Z m 0,79.999998 a 159.96487,160 0 0 1 159.96485,160 159.96487,160 0 0 1 -159.96485,160 159.96487,160 0 0 1 -159.96679,-160 159.96487,160 0 0 1 159.96679,-160 z m 0,80 a 79.982437,80 0 0 0 -79.98437,80 79.982437,80 0 0 0 79.98437,80 79.982437,80 0 0 0 79.98243,-80 79.982437,80 0 0 0 -79.98243,-80 z" id="path3" style="vector-effect:non-scaling-stroke;fill:none;fill-opacity:1;stroke:#00349c;stroke-opacity:1;-inkscape-stroke:hairline" />
&#10;  <path d="m 336.51882,327.86699 a 239.94731,240 0 0 0 -239.947265,240 239.94731,240 0 0 0 239.947265,240 239.94731,240 0 0 0 239.94921,-240 239.94731,240 0 0 0 -239.94921,-240 z m 0,80 a 159.96487,160 0 0 1 159.96484,160 159.96487,160 0 0 1 -159.96484,160 159.96487,160 0 0 1 -159.96485,-160 159.96487,160 0 0 1 159.96485,-160 z m 0,80 a 79.982437,80 0 0 0 -79.98243,80 79.982437,80 0 0 0 79.98243,80 79.982437,80 0 0 0 79.98242,-80 79.982437,80 0 0 0 -79.98242,-80 z" id="path4" style="vector-effect:non-scaling-stroke;fill:none;fill-opacity:1;stroke:#00349c;stroke-opacity:1;-inkscape-stroke:hairline" />
&#10;  <path d="m 576.46803,327.86699 a 239.94731,240 0 0 0 -239.94921,240 239.94731,240 0 0 0 239.94921,240 239.94731,240 0 0 0 239.94727,-240 239.94731,240 0 0 0 -239.94727,-240 z m 0,80 a 159.96487,160 0 0 1 159.96485,160 159.96487,160 0 0 1 -159.96485,160 159.96487,160 0 0 1 -159.96679,-160 159.96487,160 0 0 1 159.96679,-160 z m 0,80 a 79.982437,80 0 0 0 -79.98437,80 79.982437,80 0 0 0 79.98437,80 79.982437,80 0 0 0 79.98243,-80 79.982437,80 0 0 0 -79.98243,-80 z" id="path5" style="vector-effect:non-scaling-stroke;fill:none;fill-opacity:1;stroke:#00349c;stroke-opacity:1;-inkscape-stroke:hairline" />
&#10;</g>
    <path d="m 80.050725,58.447589 c -0.931367,0 -1.78113,0.34736 -2.428696,0.91868 0.002,0.0018 0.0039,0.0037 0.0061,0.0054 0.646814,0.56815 1.494208,0.913339 2.422684,0.913339 0.108161,0 0.215177,-0.0048 0.320881,-0.01411 0.314786,-0.02762 0.617943,-0.0954 0.904862,-0.197469 0.44321,-0.157665 0.847579,-0.397424 1.194205,-0.701827 0.0022,-0.0018 0.0043,-0.0039 0.0065,-0.0056 -0.347215,-0.306181 -0.752467,-0.547827 -1.197166,-0.706225 -0.288141,-0.102628 -0.592791,-0.170405 -0.909123,-0.197836 -0.105511,-0.0091 -0.21216,-0.01433 -0.320074,-0.01433 z" style="fill:#669900;stroke:#000000;stroke-width:0.0459363;fill-opacity:0.32207465" id="path21" inkscape:transform-center-x="2.8237864" inkscape:transform-center-y="0.093482083" sodipodi:nodetypes="cccscscccccc" />
    <path d="m 82.806223,54.180907 c -0.57119,0.647709 -0.918454,1.497666 -0.918454,2.429234 0,0.108406 0.0052,0.215525 0.01433,0.321509 0.02747,0.315669 0.0951,0.619724 0.197424,0.907329 0.158556,0.445664 0.400644,0.851728 0.70748,1.199501 8.52e-4,-9.7e-4 0.0017,-0.002 0.0026,-0.0028 0.305403,-0.347272 0.545717,-0.75287 0.703622,-1.19748 0.102297,-0.288056 0.170145,-0.592418 0.197663,-0.908405 0.0091,-0.105303 0.01389,-0.211878 0.01389,-0.319579 0,-0.929756 -0.345932,-1.77823 -0.915135,-2.425468 -0.0011,-0.0012 -0.0023,-0.0023 -0.0034,-0.0037 z" style="fill:#669900;stroke:#000000;stroke-width:0.0459363;fill-opacity:0.32207465" id="path20" inkscape:transform-center-x="0.067157911" inkscape:transform-center-y="-2.663123" sodipodi:nodetypes="cscsccccsccc" />
    <path d="m 85.5619,58.447589 c -0.107964,-2e-6 -0.214829,0.0048 -0.320388,0.01389 -0.315643,0.02756 -0.619692,0.09534 -0.907464,0.197554 1.1e-5,1.3e-5 7e-6,3.3e-5 1e-5,5e-5 -0.446147,0.158491 -0.852909,0.400114 -1.200936,0.707167 0.0021,0.0018 0.0042,0.0037 0.0061,0.0054 0.347399,0.305146 0.752524,0.545787 1.1973,0.703173 0.287328,0.101672 0.590876,0.168994 0.905896,0.196339 0.105278,0.0091 0.211877,0.01389 0.319535,0.01389 0.928475,0 1.77587,-0.345189 2.422685,-0.913339 0.0021,-0.0018 0.0039,-0.0037 0.0061,-0.0054 -0.647568,-0.57132 -1.49733,-0.91868 -2.428696,-0.91868 z" style="fill:#669900;stroke:#000000;stroke-width:0.0459363;fill-opacity:0.322075;font-variation-settings:normal;opacity:1;vector-effect:none;stroke-linecap:butt;stroke-linejoin:miter;stroke-miterlimit:4;stroke-dasharray:none;stroke-dashoffset:0;stroke-opacity:1;-inkscape-stroke:none;stop-color:#000000;stop-opacity:1" id="path19" inkscape:transform-center-x="-2.6884986" inkscape:transform-center-y="0.093504083" sodipodi:nodetypes="ccccccscscccc" />
    <path d="m 82.809677,59.689212 c -0.549853,0.621726 -0.843756,1.377365 -0.90796,2.11275 -0.0091,0.105597 -0.01389,0.212508 -0.01389,0.320521 0,0.933484 0.348625,1.785111 0.921909,2.433319 v -0.0079 c 0.569217,-0.647244 0.915133,-1.495741 0.915133,-2.425512 0,-0.107927 -0.0048,-0.214743 -0.01389,-0.320297 -7.8e-5,-2.9e-5 0,-1.67e-4 0,-2.5e-4 -0.02741,-0.31472 -0.09464,-0.618011 -0.196166,-0.905085 -0.157687,-0.445837 -0.398989,-0.851836 -0.705011,-1.199813 z" style="fill:#669900;stroke:#000000;stroke-width:0.0459363;fill-opacity:0.32207465" id="path18" inkscape:transform-center-x="0.067083411" inkscape:transform-center-y="2.8496905" sodipodi:nodetypes="ccsccsccccc" />
    <path d="m 80.050725,54.772696 c -0.508017,0 -0.967837,0.2063 -1.30039,0.53966 -0.331595,0.332399 -0.536655,0.791119 -0.536655,1.297785 0,0.104015 0.0091,0.205867 0.02572,0.30518 0.566477,-0.197315 1.175022,-0.304842 1.80878,-0.305134 8.6e-4,0 0.0017,-4.6e-5 0.0026,-4.6e-5 0,-0.634821 0.107486,-1.244378 0.305045,-1.811744 -0.09927,-0.01671 -0.201071,-0.0257 -0.305045,-0.0257 z" style="fill:#cc0000;stroke:#000000;stroke-width:0.0459363;fill-opacity:0.26618338" id="path17" inkscape:transform-center-x="3.5886789" inkscape:transform-center-y="-3.428808" />
    <path d="m 78.239342,61.817394 c -0.0165,0.09927 -0.02565,0.201093 -0.02565,0.305089 0,0.510161 0.207971,0.97163 0.543608,1.304561 0.332002,0.329328 0.788912,0.532887 1.293436,0.532887 0.104211,0 0.206236,-0.0091 0.305718,-0.02581 -0.196426,-0.56427 -0.304177,-1.170125 -0.30536,-1.801199 -6e-6,-0.0034 -3.55e-4,-0.007 -3.55e-4,-0.01043 -0.05677,0 -0.113263,-0.0012 -0.169625,-0.0028 -0.01238,-3.73e-4 -0.02459,-7.12e-4 -0.03687,-0.0012 -0.05326,-0.002 -0.106345,-0.0045 -0.159208,-0.008 -0.0043,-2.87e-4 -0.0087,-3.74e-4 -0.01323,-6.78e-4 -0.01043,-7.12e-4 -0.02083,-0.0018 -0.03123,-0.0026 -0.03936,-0.0028 -0.07863,-0.0063 -0.117753,-0.0099 -0.01845,-0.0017 -0.03701,-0.0034 -0.05545,-0.0054 -0.04508,-0.0048 -0.08997,-0.01018 -0.134705,-0.01606 -0.01079,-0.0015 -0.02189,-0.0023 -0.03275,-0.0039 -0.01476,-0.002 -0.02928,-0.0045 -0.04397,-0.0067 -0.02272,-0.0033 -0.04533,-0.0067 -0.06797,-0.01043 -0.08466,-0.01323 -0.168907,-0.02784 -0.252244,-0.04499 -0.120009,-0.02469 -0.238586,-0.05328 -0.355602,-0.08564 -0.115189,-0.03186 -0.22885,-0.06748 -0.340888,-0.106492 z" style="fill:#cc0000;stroke:#000000;stroke-width:0.0459363;fill-opacity:0.26618338" id="path16" inkscape:transform-center-x="3.5883584" inkscape:transform-center-y="3.615846" />
    <path d="m 87.373284,61.817394 c -0.07014,0.02443 -0.141107,0.04703 -0.212507,0.06869 -0.0023,7.2e-4 -0.0048,0.0013 -0.0071,0.0021 -0.04031,0.01214 -0.08054,0.02446 -0.121212,0.03571 -0.01153,0.0033 -0.02316,0.0059 -0.03467,0.009 -0.01324,0.0034 -0.02641,0.0067 -0.03961,0.01018 -9.11e-4,2.34e-4 -0.0018,4.34e-4 -0.0028,6.77e-4 -0.02846,0.0074 -0.05727,0.01389 -0.08592,0.02105 -0.0281,0.007 -0.05602,0.01411 -0.08429,0.02062 -0.01693,0.0039 -0.03379,0.0076 -0.05074,0.01128 -0.0079,0.0017 -0.01541,0.0034 -0.02324,0.0052 -0.01153,0.0026 -0.02288,0.0052 -0.03442,0.0076 -0.03989,0.0082 -0.08015,0.01541 -0.120365,0.02266 -0.01433,0.0026 -0.02858,0.0056 -0.04297,0.008 -0.0034,6e-4 -0.007,0.001 -0.01043,0.0016 -0.01975,0.0034 -0.03994,0.0061 -0.05983,0.0093 -0.04347,0.0071 -0.08681,0.01454 -0.130626,0.0204 -0.005,6.85e-4 -0.01018,0.0011 -0.01519,0.0018 -0.0054,7.38e-4 -0.01104,0.0013 -0.0165,0.002 -0.04423,0.0059 -0.08887,0.01018 -0.133404,0.01498 -0.02274,0.0023 -0.04536,0.0054 -0.06819,0.0076 -0.0037,3.38e-4 -0.0074,6.15e-4 -0.01104,9.4e-4 -0.02318,0.0021 -0.0464,0.0042 -0.06966,0.0059 -0.01932,0.0017 -0.03854,0.0034 -0.05797,0.005 -0.02951,0.002 -0.05929,0.0031 -0.08892,0.0045 -0.0026,1.4e-4 -0.0054,2.62e-4 -0.008,4.09e-4 -0.09345,0.0048 -0.187311,0.0078 -0.281941,0.0078 0,4.69e-4 -4.5e-5,9.22e-4 -4.5e-5,0.0013 -2.4e-5,0.0943 -0.0033,0.187832 -0.0079,0.280956 -8.7e-5,0.0023 -2.6e-4,0.0048 -3.47e-4,0.007 -0.0016,0.03032 -0.0026,0.06074 -0.0045,0.09093 -0.0013,0.0191 -0.0033,0.03794 -0.0048,0.05688 -0.0018,0.02327 -0.0039,0.04649 -0.0059,0.06967 -3.47e-4,0.0039 -6.94e-4,0.008 -0.001,0.0119 -0.0022,0.02387 -0.0052,0.04751 -0.0079,0.07129 -0.0045,0.04336 -0.009,0.08685 -0.01453,0.129909 -6.08e-4,0.0056 -0.0012,0.01104 -0.002,0.0165 -6.95e-4,0.0052 -0.0012,0.01067 -0.0018,0.01585 -0.0059,0.04302 -0.01323,0.08555 -0.02018,0.128216 -0.0033,0.02062 -0.0063,0.04158 -0.0098,0.06222 -6.95e-4,0.0037 -0.0011,0.0076 -0.0018,0.01153 -0.0022,0.01259 -0.0048,0.02489 -0.007,0.03737 -0.0076,0.04178 -0.01498,0.08362 -0.02355,0.125069 -0.0023,0.01153 -0.005,0.02302 -0.0079,0.0345 -0.0015,0.0067 -0.0031,0.01324 -0.0043,0.01997 -4.6e-5,1.74e-4 -4.6e-5,3.47e-4 -8.8e-5,5.21e-4 -0.0039,0.0178 -0.0079,0.03548 -0.0119,0.05321 -0.0061,0.02663 -0.01303,0.05293 -0.01932,0.07941 -0.0074,0.03044 -0.01433,0.06107 -0.02229,0.09134 -4.6e-5,1.75e-4 -8.6e-5,3.49e-4 -1.73e-4,5.22e-4 -0.0037,0.01389 -0.007,0.02778 -0.01079,0.04158 -0.0031,0.01153 -0.0059,0.02324 -0.0091,0.03476 -0.01079,0.03952 -0.0229,0.07856 -0.03468,0.117716 -0.001,0.0034 -0.002,0.0067 -0.0031,0.01018 -0.02149,0.07103 -0.04403,0.141648 -0.06832,0.211422 0.09927,0.0165 0.20107,0.02572 0.305045,0.02572 0.506988,0 0.966021,-0.205432 1.298415,-0.537596 0.332782,-0.332559 0.538627,-0.792158 0.538627,-1.299852 0,-0.10399 -0.0091,-0.205822 -0.02565,-0.30509 z" style="fill:#cc0000;stroke:#000000;stroke-width:0.0459363;fill-opacity:0.26618338" id="path15" inkscape:transform-center-x="-3.4543381" inkscape:transform-center-y="3.6157455" />
    <path d="m 85.5619,54.772696 c -0.103953,-2e-6 -0.205758,0.0091 -0.305001,0.0257 0.03893,0.111852 0.07445,0.22534 0.106272,0.340349 0.0031,0.01129 0.0059,0.02282 0.009,0.03414 0.0039,0.01454 0.0074,0.02911 0.01129,0.04364 0.0012,0.0048 0.0023,0.0098 0.0037,0.01455 4.8e-5,1.82e-4 8.7e-5,3.56e-4 1.74e-4,5.39e-4 2.6e-4,8.92e-4 4.33e-4,0.0018 6.08e-4,0.0026 0.01281,0.04954 0.02508,0.09922 0.03648,0.149289 0.0045,0.01953 0.009,0.03915 0.01323,0.05882 0.0037,0.01736 0.008,0.03461 0.01178,0.05208 0.0085,0.04125 0.01585,0.08291 0.02347,0.124483 0.0023,0.01259 0.005,0.025 0.0071,0.03758 0.0012,0.0067 0.002,0.01324 0.0031,0.01997 0.0082,0.04768 0.01563,0.09564 0.02253,0.143734 0.0018,0.01303 0.0043,0.02567 0.0061,0.03863 7.81e-4,0.0054 0.0012,0.01104 0.002,0.0165 7.81e-4,0.0061 0.0015,0.01214 0.0022,0.01823 0.01324,0.101021 0.0235,0.202958 0.03114,0.30563 9.46e-4,0.01067 0.002,0.02105 0.0026,0.03171 3.47e-4,0.0045 4.35e-4,0.009 6.95e-4,0.01346 0.008,0.120831 0.01214,0.242725 0.01214,0.365607 0.0034,0 0.007,3.47e-4 0.01043,3.56e-4 0.63095,0.0012 1.236688,0.108921 1.80084,0.305403 0.01671,-0.09949 0.02581,-0.201548 0.02581,-0.305764 0,-0.504657 -0.203523,-0.961671 -0.532798,-1.293749 -0.332854,-0.335683 -0.79422,-0.543696 -1.304246,-0.543696 z" style="fill:#cc0000;stroke:#000000;stroke-width:0.0459363;fill-opacity:0.26618338" id="path14" inkscape:transform-center-x="-3.4548121" inkscape:transform-center-y="-3.428725" />
    <path d="m 80.050725,51.097801 c -1.522734,0 -2.9012,0.617737 -3.898654,1.616289 -0.996304,0.997402 -1.612476,2.374741 -1.612476,3.896051 0,1.004428 0.269983,1.945217 0.739239,2.756217 0.339669,-0.587041 0.784918,-1.104909 1.308912,-1.529351 -0.136095,-0.383739 -0.211119,-0.796387 -0.211119,-1.226866 0,-1.013981 0.410622,-1.932019 1.074566,-2.596917 0.665004,-0.665963 1.584139,-1.077976 2.599521,-1.077976 0.430386,0 0.842943,0.07503 1.226593,0.211161 0.424373,-0.524099 0.942118,-0.969488 1.52904,-1.309224 -0.810836,-0.469362 -1.751414,-0.739383 -2.755633,-0.739376 z" style="fill:#669900;stroke:#000000;stroke-width:0.0459363;fill-opacity:0.322075;font-variation-settings:normal;opacity:1;vector-effect:none;stroke-linecap:butt;stroke-linejoin:miter;stroke-miterlimit:4;stroke-dasharray:none;stroke-dashoffset:0;stroke-opacity:1;-inkscape-stroke:none;stop-color:#000000;stop-opacity:1" id="path13" inkscape:transform-center-x="4.2004604" inkscape:transform-center-y="-4.040737" />
    <path d="m 85.5619,51.097801 c -1.002802,-8e-6 -1.942162,0.269224 -2.752223,0.737355 v 0.0039 c 0.1028,0.05961 0.203523,0.122438 0.301994,0.188374 0.09846,0.0659 0.19469,0.1349 0.288536,0.206843 0.09386,0.07194 0.185316,0.146858 0.274273,0.224568 0.08895,0.07769 0.175417,0.158209 0.259197,0.241388 0.08379,0.08319 0.164893,0.169017 0.243228,0.257404 0.05441,0.06138 0.106922,0.124419 0.158577,0.18818 0.383637,-0.135877 0.796231,-0.210533 1.226417,-0.210533 1.017309,0 1.937898,0.413686 2.603199,1.081878 0.661716,0.664596 1.070886,1.580961 1.070886,2.593016 0,0.430578 -0.07504,0.843321 -0.211205,1.227134 0.524026,0.424313 0.969298,0.942085 1.308957,1.529128 0.469277,-0.811013 0.739287,-1.751814 0.739287,-2.756262 -3e-6,-1.519451 -0.614779,-2.895175 -1.608934,-3.892284 -0.99774,-1.000704 -2.377603,-1.620057 -3.902198,-1.620057 z" style="fill:#669900;stroke:#000000;stroke-width:0.0459363;fill-opacity:0.322075;font-variation-settings:normal;opacity:1;vector-effect:none;stroke-linecap:butt;stroke-linejoin:miter;stroke-miterlimit:4;stroke-dasharray:none;stroke-dashoffset:0;stroke-opacity:1;-inkscape-stroke:none;stop-color:#000000;stop-opacity:1" id="path12" inkscape:transform-center-x="-4.0679186" inkscape:transform-center-y="-4.040698" />
    <path d="m 90.330783,59.371696 c -0.05961,0.102764 -0.122438,0.203436 -0.188352,0.30186 -0.06591,0.09842 -0.134922,0.194602 -0.206843,0.288402 -0.07194,0.0938 -0.146793,0.185227 -0.224479,0.274136 -0.07769,0.08892 -0.158187,0.175332 -0.241345,0.259065 -0.08316,0.08375 -0.168951,0.164807 -0.257313,0.243095 -0.06099,0.05404 -0.123594,0.10621 -0.186921,0.157535 0.135856,0.38372 0.21049,0.796406 0.21049,1.226683 0,1.01501 -0.411456,1.933879 -1.076585,2.598939 -0.664845,0.664776 -1.583149,1.075957 -2.597502,1.075957 -0.4302,4e-6 -0.842814,-0.07464 -1.226462,-0.210533 -0.05171,0.06389 -0.104321,0.127023 -0.158794,0.188505 -0.07832,0.08835 -0.159424,0.174159 -0.243183,0.257313 -0.08378,0.08316 -0.17021,0.163656 -0.259154,0.241346 -0.08894,0.07767 -0.180388,0.152544 -0.274226,0.224475 -0.09383,0.07193 -0.190045,0.140913 -0.288491,0.2068 -0.09845,0.06591 -0.199116,0.128737 -0.301904,0.188332 v 0.0039 c 0.81006,0.468131 1.749419,0.737364 2.752223,0.737355 1.521707,0 2.89934,-0.616905 3.896635,-1.614272 0.997488,-0.99756 1.614495,-2.375729 1.614495,-3.89807 0,-1.002175 -0.268753,-1.941016 -0.736056,-2.750788 z" style="fill:#669900;stroke:#000000;stroke-width:0.0459363;fill-opacity:0.322075;font-variation-settings:normal;opacity:1;vector-effect:none;stroke-linecap:butt;stroke-linejoin:miter;stroke-miterlimit:4;stroke-dasharray:none;stroke-dashoffset:0;stroke-opacity:1;-inkscape-stroke:none;stop-color:#000000;stop-opacity:1" id="path11" inkscape:transform-center-x="-4.0679641" inkscape:transform-center-y="4.230462" />
    <path d="m 80.087143,67.595376 c 1.002804,9e-6 1.942162,-0.269226 2.752225,-0.737356 v -0.0039 c -0.102801,-0.05961 -0.203523,-0.12245 -0.301996,-0.188376 -0.09846,-0.0659 -0.19469,-0.1349 -0.288536,-0.206843 -0.09383,-0.07194 -0.185315,-0.146858 -0.274272,-0.224566 -0.08895,-0.07769 -0.175418,-0.158209 -0.259196,-0.241388 -0.08379,-0.08319 -0.164894,-0.169017 -0.24323,-0.257406 -0.05441,-0.06138 -0.106922,-0.124417 -0.158577,-0.188179 -0.383637,0.135877 -0.79623,0.210532 -1.226416,0.210532 -1.01731,0 -1.937899,-0.413686 -2.603198,-1.081876 -0.661718,-0.664601 -1.070888,-1.580966 -1.070888,-2.593021 0,-0.430579 0.07504,-0.843321 0.211205,-1.227134 -0.524026,-0.424313 -0.969296,-0.942085 -1.308955,-1.529128 -0.469278,0.811015 -0.739286,1.751814 -0.739286,2.756262 0,1.519451 0.614777,2.895175 1.608931,3.892283 0.997741,1.000705 2.377603,1.620058 3.902198,1.620058 z" style="fill:#669900;stroke:#000000;stroke-width:0.0459363;fill-opacity:0.322075;font-variation-settings:normal;opacity:1;vector-effect:none;stroke-linecap:butt;stroke-linejoin:miter;stroke-miterlimit:4;stroke-dasharray:none;stroke-dashoffset:0;stroke-opacity:1;-inkscape-stroke:none;stop-color:#000000;stop-opacity:1" id="path22" inkscape:transform-center-x="4.1657359" inkscape:transform-center-y="4.188239" />
  </g>
</svg>
