<?xml version="1.0" encoding="UTF-8" standalone="no"?>
<svg width="100" height="100" viewBox="0 0 26.458334 26.458334" version="1.1" id="svg10012" inkscape:version="1.3-alpha (9cd57a7883, 2023-05-01)" sodipodi:docname="celtick.svg" xmlns:inkscape="http://www.inkscape.org/namespaces/inkscape" xmlns:sodipodi="http://sodipodi.sourceforge.net/DTD/sodipodi-0.dtd" xmlns="http://www.w3.org/2000/svg" xmlns:svg="http://www.w3.org/2000/svg" xmlns:rdf="http://www.w3.org/1999/02/22-rdf-syntax-ns#" xmlns:cc="http://creativecommons.org/ns#" xmlns:dc="http://purl.org/dc/elements/1.1/">
  <defs id="defs10006" />
  <sodipodi:namedview id="base" pagecolor="#ffffff" bordercolor="#666666" borderopacity="1.0" inkscape:pageopacity="0.0" inkscape:pageshadow="2" inkscape:zoom="5.6568542" inkscape:cx="45.078057" inkscape:cy="28.637825" inkscape:document-units="px" inkscape:current-layer="layer1" inkscape:document-rotation="0" showgrid="false" units="px" inkscape:window-width="1534" inkscape:window-height="843" inkscape:window-x="66" inkscape:window-y="20" inkscape:window-maximized="1" inkscape:showpageshadow="2" inkscape:pagecheckerboard="0" inkscape:deskcolor="#d1d1d1" />
  <metadata id="metadata10009">
    <rdf:RDF>
      <cc:Work rdf:about="">
        <dc:format>image/svg+xml</dc:format>
        <dc:type rdf:resource="http://purl.org/dc/dcmitype/StillImage" />
      </cc:Work>
    </rdf:RDF>
  </metadata>
  <g inkscape:label="Layer 1" inkscape:groupmode="layer" id="layer1" transform="translate(-70.005836,-46.768833)">
    <path style="color:#000000;font-style:normal;font-variant:normal;font-weight:normal;font-stretch:normal;font-size:medium;line-height:normal;font-family:sans-serif;font-variant-ligatures:normal;font-variant-position:normal;font-variant-caps:normal;font-variant-numeric:normal;font-variant-alternates:normal;font-variant-east-asian:normal;font-feature-settings:normal;font-variation-settings:normal;text-indent:0;text-align:start;text-decoration:none;text-decoration-line:none;text-decoration-style:solid;text-decoration-color:#000000;letter-spacing:normal;word-spacing:normal;text-transform:none;writing-mode:lr-tb;direction:ltr;text-orientation:mixed;dominant-baseline:auto;baseline-shift:baseline;text-anchor:start;white-space:normal;shape-padding:0;shape-margin:0;inline-size:0;clip-rule:nonzero;display:inline;overflow:visible;visibility:visible;opacity:0.2;isolation:auto;mix-blend-mode:normal;color-interpolation:sRGB;color-interpolation-filters:linearRGB;solid-color:#000000;solid-opacity:1;vector-effect:none;fill:#000000;fill-opacity:1;fill-rule:nonzero;stroke:none;stroke-width:0.0784929px;stroke-linecap:butt;stroke-linejoin:miter;stroke-miterlimit:4;stroke-dasharray:none;stroke-dashoffset:0;stroke-opacity:1;paint-order:stroke markers fill;color-rendering:auto;image-rendering:auto;shape-rendering:auto;text-rendering:auto;enable-background:accumulate;stop-color:#000000" d="m 93.818337,50.635938 -0.747716,0.0014 v 3.370632 1.919012 14.119813 h -0.48056 -18.465535 v 0.634822 h 19.693811 z" id="path9068" />
    <path style="color:#000000;font-style:normal;font-variant:normal;font-weight:normal;font-stretch:normal;font-size:medium;line-height:normal;font-family:sans-serif;font-variant-ligatures:normal;font-variant-position:normal;font-variant-caps:normal;font-variant-numeric:normal;font-variant-alternates:normal;font-variant-east-asian:normal;font-feature-settings:normal;font-variation-settings:normal;text-indent:0;text-align:start;text-decoration:none;text-decoration-line:none;text-decoration-style:solid;text-decoration-color:#000000;letter-spacing:normal;word-spacing:normal;text-transform:none;writing-mode:lr-tb;direction:ltr;text-orientation:mixed;dominant-baseline:auto;baseline-shift:baseline;text-anchor:start;white-space:normal;shape-padding:0;shape-margin:0;inline-size:0;clip-rule:nonzero;display:inline;overflow:visible;visibility:visible;opacity:0.7;isolation:auto;mix-blend-mode:normal;color-interpolation:sRGB;color-interpolation-filters:linearRGB;solid-color:#000000;solid-opacity:1;vector-effect:none;fill:#ffffff;fill-opacity:1;fill-rule:nonzero;stroke:none;stroke-width:0.351486;stroke-linecap:butt;stroke-linejoin:miter;stroke-miterlimit:4;stroke-dasharray:none;stroke-dashoffset:0;stroke-opacity:1;paint-order:stroke markers fill;color-rendering:auto;image-rendering:auto;shape-rendering:auto;text-rendering:auto;enable-background:accumulate;stop-color:#000000" d="m 73.093393,49.756372 v 0.0073 4.329057 1.919068 13.592465 h 0.03895 19.457292 0.0387 v -13.677398 -1.919015 -4.244177 -0.0073 z" id="path9037" />
    <path id="path9035" style="color:#000000;font-style:normal;font-variant:normal;font-weight:normal;font-stretch:normal;font-size:medium;line-height:normal;font-family:sans-serif;font-variant-ligatures:normal;font-variant-position:normal;font-variant-caps:normal;font-variant-numeric:normal;font-variant-alternates:normal;font-variant-east-asian:normal;font-feature-settings:normal;font-variation-settings:normal;text-indent:0;text-align:start;text-decoration:none;text-decoration-line:none;text-decoration-style:solid;text-decoration-color:#000000;letter-spacing:normal;word-spacing:normal;text-transform:none;writing-mode:lr-tb;direction:ltr;text-orientation:mixed;dominant-baseline:auto;baseline-shift:baseline;text-anchor:start;white-space:normal;shape-padding:0;shape-margin:0;inline-size:0;clip-rule:nonzero;display:inline;overflow:visible;visibility:visible;opacity:0.4;isolation:auto;mix-blend-mode:normal;color-interpolation:sRGB;color-interpolation-filters:linearRGB;solid-color:#000000;solid-opacity:1;vector-effect:none;fill:#000000;fill-opacity:1;fill-rule:nonzero;stroke:none;stroke-width:0.351486;stroke-linecap:butt;stroke-linejoin:miter;stroke-miterlimit:4;stroke-dasharray:none;stroke-dashoffset:0;stroke-opacity:1;paint-order:stroke markers fill;color-rendering:auto;image-rendering:auto;shape-rendering:auto;text-rendering:auto;enable-background:accumulate;stop-color:#000000" d="m 72.651671,49.31439 v 0.441826 0.0073 4.32963 1.918755 14.034603 h 0.480292 19.458098 0.480562 V 55.926637 54.007674 49.763497 49.31465 Z m 0.441586,0.441826 h 19.534969 v 0.0073 4.244437 1.919015 13.677398 H 92.589526 73.13223 73.09327 V 56.011882 54.092606 49.763497 Z" />
    <g inkscape:label="Diamond Trellis" style="fill:#ffffff;stroke:#000000;stroke-width:2" class="prefab" id="g4" transform="matrix(0.02214941,0,0,0.02214941,72.994309,49.496588)">&#10;  <path d="M 299.40779,96.242134 C 166.88781,96.241144 59.458625,203.69307 59.458605,336.24214 c 0,132.54908 107.429195,240.00105 239.949165,240.00001 132.51925,-3e-5 239.94729,-107.45168 239.94729,-240.00001 C 539.35507,203.69382 431.92699,96.242164 299.40779,96.242134 Z m 2.6e-4,38.090176 c 111.48724,0 201.86546,90.39812 201.86547,201.90983 10e-6,111.51172 -90.37825,201.90983 -201.86548,201.90984 -111.48819,10e-4 -201.867936,-90.39716 -201.867946,-201.90983 1e-5,-111.51267 90.379766,-201.91119 201.867956,-201.90984 z" id="path1" style="vector-effect:non-scaling-stroke;fill:none;fill-opacity:1;stroke:#00349c;stroke-opacity:1;-inkscape-stroke:hairline" />
&#10;  <path d="m 600.59414,96.242134 c -132.52,-9.9e-4 -239.94922,107.450946 -239.94922,240.000026 -1e-5,132.54908 107.42923,240.00103 239.94921,239.99999 132.51922,-3e-5 239.94727,-107.45168 239.94726,-240 2e-5,-132.54833 -107.42803,-239.999996 -239.94725,-240.000016 z m 2.5e-4,38.090176 c 111.48723,1e-5 201.86547,90.39811 201.86547,201.90983 0,111.51173 -90.37825,201.90983 -201.86548,201.90984 -111.4882,10e-4 -201.86793,-90.39717 -201.86792,-201.90984 0,-111.51266 90.37972,-201.91118 201.86793,-201.90983 z" id="path2" style="vector-effect:non-scaling-stroke;fill:none;fill-opacity:1;stroke:#00349c;stroke-opacity:1;-inkscape-stroke:hairline" />
&#10;  <path d="m 450.76266,355.75782 c -132.51997,-9.9e-4 -239.94919,107.45093 -239.94919,240.00001 0,132.54907 107.42924,240.00105 239.9492,240.00004 132.51922,-10e-5 239.94727,-107.45171 239.94728,-240.00003 -2e-5,-132.54833 -107.42806,-240 -239.94729,-240.00002 z m 2.7e-4,38.09017 c 111.48724,0 201.86549,90.39812 201.86549,201.90984 -2e-5,111.51171 -90.37825,201.90983 -201.86548,201.90984 -111.48821,10e-4 -201.86794,-90.39718 -201.86795,-201.90985 1e-5,-111.51267 90.37974,-201.91116 201.86794,-201.90983 z" id="path3" style="vector-effect:non-scaling-stroke;fill:none;fill-opacity:1;stroke:#00349c;stroke-opacity:1;-inkscape-stroke:hairline" />
&#10;  <path d="m 450.00083,225.99999 c -112.57591,-8.4e-4 -203.83717,91.27972 -203.83717,203.88034 -1e-5,112.60061 91.26127,203.88118 203.83716,203.8803 112.57525,-3e-5 203.83552,-91.28034 203.83551,-203.88031 2e-5,-112.59998 -91.26025,-203.88031 -203.8355,-203.88033 z m 2.1e-4,32.35766 c 94.70855,1e-5 171.48498,76.79331 171.48498,171.52266 0,94.72936 -76.77644,171.52266 -171.48498,171.52267 -94.70937,8.5e-4 -171.48707,-76.79251 -171.48706,-171.52267 0,-94.73015 76.77769,-171.52381 171.48706,-171.52266 z" id="path4" style="vector-effect:non-scaling-stroke;fill:none;fill-opacity:1;stroke:#00349c;stroke-opacity:1;-inkscape-stroke:hairline" />
&#10;</g>
    <path d="m 81.449238,54.763732 c -1.749449,0.621978 -3.002542,2.291202 -3.002542,4.254459 0,0.268721 0.02442,0.531611 0.06957,0.787341 0.06961,0.39424 0.189618,0.771085 0.354218,1.123087 0.07387,0.157987 0.156329,0.311091 0.247321,0.458475 0.166797,0.01905 0.3363,0.02925 0.508224,0.02923 0.127197,0 0.253167,-0.0053 0.377665,-0.01577 -0.30282,-0.375649 -0.5356,-0.809892 -0.678454,-1.28341 4.85e-4,-6.87e-4 9.42e-4,-0.0014 0.0014,-0.002 -4.78e-4,6.7e-4 -9.94e-4,0.0013 -0.0015,0.002 -0.10495,-0.347927 -0.161962,-0.716654 -0.161962,-1.098817 0,-0.008 6.78e-4,-0.01577 8.21e-4,-0.02366 0.01885,-0.01885 0.03759,-0.03788 0.05642,-0.05681 -0.01864,0.01864 -0.03806,0.03626 -0.05638,0.05511 0.0094,-1.42356 0.801386,-2.66024 1.967489,-3.302726 -0.0039,0.01618 -0.0066,0.033 -0.01045,0.04931 0.01086,-0.04652 0.02208,-0.09292 0.03409,-0.138997 0.0076,-0.02942 0.01516,-0.05892 0.02323,-0.08813 0.01721,-0.06146 0.03581,-0.12224 0.05511,-0.182776 0.0072,-0.02245 0.01372,-0.04517 0.02116,-0.06748 0.05599,-0.167861 0.120006,-0.332017 0.191809,-0.491959 9.41e-4,-0.002 0.0017,-0.0043 0.0027,-0.0064 z m -2.128204,5.359332 z" style="fill:#669900;stroke:#000000;stroke-width:0.0442988;font-variation-settings:normal;opacity:1;vector-effect:none;fill-opacity:0.5672704;stroke-linecap:butt;stroke-linejoin:miter;stroke-miterlimit:4;stroke-dasharray:none;stroke-dashoffset:0;stroke-opacity:1;-inkscape-stroke:none;stop-color:#000000;stop-opacity:1" id="path16" sodipodi:nodetypes="sssscsccccscccccccccsssccc" />
    <path d="m 86.607625,60.082746 c -0.141784,0.486609 -0.377931,0.932754 -0.687843,1.317326 -0.007,-5.43e-4 -0.01393,-0.001 -0.02098,-0.0016 0.007,6.11e-4 0.01373,0.0015 0.02063,0.002 -0.224852,0.278934 -0.488779,0.524793 -0.78267,0.730756 -0.01209,-0.0027 -0.02432,-0.0053 -0.03642,-0.0082 0.01188,0.0027 0.0234,0.0063 0.0353,0.009 -0.615914,0.431311 -1.365067,0.685158 -2.174059,0.685158 -0.808984,9e-6 -1.558145,-0.253851 -2.174057,-0.685158 0.01209,-0.0027 0.02368,-0.0064 0.03569,-0.009 -0.03333,0.0078 -0.06666,0.01536 -0.100237,0.02249 -0.02991,0.0064 -0.05998,0.01209 -0.09008,0.01782 -0.04288,0.0082 -0.08582,0.01618 -0.129041,0.02346 -0.02964,0.0049 -0.05947,0.0092 -0.0893,0.01373 -0.04384,0.0066 -0.08768,0.01291 -0.131868,0.01844 -0.02969,0.0037 -0.05955,0.0066 -0.08938,0.0098 -0.04497,0.0047 -0.08993,0.0096 -0.135227,0.01332 -0.02913,0.0023 -0.05851,0.0039 -0.08778,0.0057 -0.04628,0.0029 -0.09253,0.0059 -0.13912,0.0078 -0.0051,2.01e-4 -0.01004,6.87e-4 -0.01516,8.67e-4 0.812962,0.790457 1.922094,1.277623 3.145474,1.277614 1.223362,-2e-6 2.332475,-0.487172 3.145431,-1.277614 0.266736,-0.259348 0.501851,-0.551091 0.698313,-0.869321 0.09827,-0.159197 0.186361,-0.325201 0.264625,-0.496717 -0.126193,-0.28622 -0.281669,-0.556573 -0.462284,-0.807589 z" style="fill:#669900;stroke:#000000;stroke-width:0.0442988;font-variation-settings:normal;opacity:1;vector-effect:none;fill-opacity:0.5672704;stroke-linecap:butt;stroke-linejoin:miter;stroke-miterlimit:4;stroke-dasharray:none;stroke-dashoffset:0;stroke-opacity:1;-inkscape-stroke:none;stop-color:#000000;stop-opacity:1" id="path15" sodipodi:nodetypes="scccccccccccscsssscccsscss" />
    <path d="m 79.816065,62.256371 c 0.33253,-0.01168 0.657246,-0.05408 0.971458,-0.124248 0.809986,-0.18085 1.550147,-0.546678 2.174233,-1.050712 -0.05537,-0.04472 -0.109845,-0.09049 -0.163396,-0.137317 -0.05355,-0.04681 -0.106178,-0.09471 -0.157803,-0.143586 -0.05165,-0.04888 -0.102307,-0.09876 -0.151924,-0.149691 -0.04964,-0.05091 -0.09821,-0.102819 -0.145737,-0.155734 v 2e-6 c -0.04423,0.0339 -0.08924,0.06687 -0.134756,0.09915 -0.01516,0.01086 -0.03071,0.02104 -0.04603,0.03163 -0.03108,0.02147 -0.06224,0.04282 -0.09387,0.06351 -0.0055,0.0037 -0.01086,0.0076 -0.01639,0.01106 -0.01229,0.008 -0.02512,0.01536 -0.03755,0.02327 -0.02946,0.01864 -0.05906,0.03716 -0.08899,0.05515 -0.01946,0.01168 -0.03915,0.02321 -0.05884,0.03466 -0.02913,0.017 -0.05845,0.03352 -0.08799,0.04978 -0.01147,0.0064 -0.0226,0.01311 -0.03409,0.01926 -0.009,0.0049 -0.01844,0.0092 -0.02743,0.01414 -0.03017,0.01598 -0.06066,0.03155 -0.09124,0.04689 -0.01987,0.01004 -0.03966,0.02008 -0.0597,0.02977 -0.03325,0.01598 -0.06689,0.03142 -0.100586,0.04667 -0.01454,0.0066 -0.02891,0.01373 -0.04362,0.02028 -0.0035,0.0016 -0.0072,0.0029 -0.01086,0.0045 -0.04683,0.02049 -0.09411,0.04009 -0.141763,0.05896 -0.0049,0.002 -0.0098,0.0041 -0.01475,0.0061 -0.0013,5.29e-4 -0.0027,9.88e-4 -0.0041,0.0015 -0.05136,0.02008 -0.103188,0.03913 -0.155427,0.05732 -0.0033,0.0011 -0.0064,0.0025 -0.0096,0.0035 -0.01475,0.0051 -0.02977,0.0094 -0.04456,0.01434 -0.03591,0.01209 -0.07189,0.0238 -0.108187,0.03491 -0.02237,0.0068 -0.04492,0.01311 -0.06744,0.01967 -0.03247,0.0094 -0.065,0.01864 -0.09776,0.02721 -0.02397,0.0063 -0.04806,0.01229 -0.07219,0.01823 -0.03231,0.008 -0.06476,0.01557 -0.09733,0.0228 -0.02417,0.0053 -0.04837,0.01065 -0.07268,0.01557 -0.0338,0.007 -0.06781,0.01332 -0.101876,0.01946 -0.02323,0.0041 -0.0464,0.0084 -0.06973,0.01229 -0.03704,0.0061 -0.07432,0.01127 -0.111648,0.01659 -0.02079,0.0029 -0.04146,0.0061 -0.06234,0.0086 -0.04874,0.0059 -0.0978,0.01106 -0.147007,0.01557 -0.0096,8.73e-4 -0.01926,0.002 -0.02886,0.0029 -0.124493,0.01045 -0.250457,0.01577 -0.377664,0.01577 -0.07631,0 -0.152149,-0.0019 -0.227507,-0.0057 -0.0011,-6.8e-5 -0.0023,-2.01e-4 -0.0035,-2.61e-4 -0.0057,-3.01e-4 -0.01127,-9.28e-4 -0.017,-0.0013 -0.01393,-7.89e-4 -0.02784,-0.0023 -0.04183,-0.0031 -0.01659,-0.0014 -0.03329,-0.0025 -0.04993,-0.0037 -0.03743,-0.0029 -0.07506,-0.0049 -0.112222,-0.0086 -0.002,-2.01e-4 -0.0039,-5.28e-4 -0.0059,-7.37e-4 -0.0047,-4.78e-4 -0.0092,-0.0013 -0.01393,-0.0018 -0.0076,-8.28e-4 -0.01496,-0.0019 -0.02258,-0.0029 -0.03728,-0.0043 -0.07449,-0.009 -0.111567,-0.01393 -0.0218,-0.0029 -0.04388,-0.0051 -0.06558,-0.0084 -0.06392,-0.0096 -0.127177,-0.02118 -0.190172,-0.0335 -0.0084,-0.0016 -0.017,-0.0029 -0.0253,-0.0045 -0.0057,-0.0011 -0.01127,-0.0027 -0.0168,-0.0039 -1.35e-4,-2.2e-5 -2.6e-4,-6.7e-5 -3.93e-4,-9.2e-5 -0.0851,0.264818 -0.146352,0.540311 -0.181178,0.823984 0.35035,0.07311 0.713261,0.111915 1.085364,0.111915 0.06365,0 0.126951,-0.0014 0.190048,-0.0037" style="fill:#669900;stroke:#000000;stroke-width:0.0442988;font-variation-settings:normal;opacity:1;vector-effect:none;fill-opacity:0.5672704;stroke-linecap:butt;stroke-linejoin:miter;stroke-miterlimit:4;stroke-dasharray:none;stroke-dashoffset:0;stroke-opacity:1;-inkscape-stroke:none;stop-color:#000000;stop-opacity:1" id="path13" sodipodi:nodetypes="cscsssssssssssssssssssssscsssssssssssssssscccccsscccccccccsc" />
    <path d="m 83.787557,55.310199 c 0.002,0.0053 0.0039,0.01086 0.0059,0.01639 9.1e-4,0.0023 0.0019,0.0045 0.0029,0.007 0.0074,0.01885 0.01434,0.03784 0.02145,0.05685 0.0086,0.02313 0.017,0.04624 0.0253,0.06951 0.0019,0.0055 0.0037,0.01106 0.0055,0.01639 0.0074,0.02112 0.01434,0.04236 0.02145,0.06363 0.0039,0.01188 0.0082,0.02352 0.01188,0.03538 0.0064,0.01946 0.01352,0.03855 0.01967,0.05818 0.0023,0.0072 0.0041,0.01434 0.0061,0.02155 0.0017,0.0057 0.0033,0.01168 0.0049,0.01741 8.85e-4,0.0033 0.0018,0.0064 0.0027,0.0094 8.13e-4,0.0027 0.0014,0.0055 0.0023,0.0084 0.0057,0.01946 0.01065,0.03923 0.01598,0.0588 0.0066,0.02397 0.01332,0.04779 0.01946,0.07184 0.0039,0.01516 0.0086,0.03014 0.01229,0.04542 10e-4,0.0041 0.0019,0.0084 0.0029,0.0125 6.19e-4,0.0025 0.0011,0.0051 0.0017,0.0076 0.0051,0.02128 0.0096,0.04288 0.01454,0.06428 0.0041,0.01762 0.0082,0.03509 0.01188,0.05273 0.0025,0.01168 0.0047,0.02333 0.0072,0.03499 0.0082,0.03993 0.01598,0.08 0.02323,0.120314 0.0011,0.0064 0.0025,0.01291 0.0035,0.01926 0.001,0.0059 0.0023,0.01188 0.0031,0.01782 7.36e-4,0.0043 0.0012,0.0088 0.0019,0.01311 5.28e-4,0.0033 9.48e-4,0.0064 0.0014,0.0096 0.0098,0.05961 0.01844,0.119618 0.02579,0.18001 2.85e-4,0.002 6.54e-4,0.0043 9.08e-4,0.0064 0.0016,0.0125 0.0035,0.02505 0.0047,0.03767 4.45e-4,0.0039 6.54e-4,0.008 0.0011,0.01188 1.09e-4,0.001 1.58e-4,0.002 2.6e-4,0.0031 0.0066,0.06041 0.01168,0.121216 0.01578,0.182346 1.59e-4,0.0023 4.52e-4,0.0045 6.04e-4,0.0068 0.0013,0.01475 0.0027,0.02962 0.0035,0.04456 1.34e-4,0.0025 9.3e-5,0.0051 2.18e-4,0.0076 4e-6,9.2e-5 -4e-6,1.76e-4 0,2.6e-4 0.0013,0.02413 0.0023,0.04835 0.0031,0.07258 0.0025,0.05709 0.0041,0.114352 0.0041,0.172041 0,0.08223 -0.0029,0.163765 -0.0072,0.244897 -1.36e-4,0.0025 -6.8e-5,0.0051 -2.2e-4,0.0076 -2.93e-4,0.0051 -8.27e-4,0.01045 -0.0012,0.01557 -6e-6,6.6e-5 6e-6,1.58e-4 0,2.17e-4 -4.26e-4,0.0068 -0.0011,0.01352 -0.0016,0.02028 -2.3e-5,3.02e-4 -6.6e-5,6.03e-4 -9.2e-5,9.08e-4 -4.1e-4,0.0051 -7.03e-4,0.01004 -0.0011,0.01516 -0.0041,0.06187 -0.0094,0.123407 -0.01618,0.184558 -4.26e-4,0.0039 -6.35e-4,0.008 -0.0011,0.01188 -0.0014,0.0127 -0.0033,0.02512 -0.0047,0.03767 -9.3e-5,6.52e-4 -1.77e-4,0.0013 -2.61e-4,0.0019 -1.08e-4,8.44e-4 -1.59e-4,0.0017 -2.6e-4,0.0025 -6.35e-4,0.0053 -0.0016,0.01045 -0.0023,0.01557 -2.3e-5,2.44e-4 -6.8e-5,4.87e-4 -9.2e-5,7.37e-4 -0.0074,0.05875 -0.01557,0.1172 -0.02518,0.175196 -7.21e-4,0.0043 -0.0012,0.0088 -0.0019,0.01311 -10e-4,0.0059 -0.002,0.01188 -0.0031,0.01782 -0.0068,0.03886 -0.01434,0.07742 -0.02198,0.11593 -5.59e-4,0.0029 -9.92e-4,0.0055 -0.0016,0.0084 -0.01168,0.05869 -0.02428,0.117098 -0.03845,0.174909 -9.98e-4,0.0041 -0.0019,0.0084 -0.0029,0.0125 -0.0037,0.01536 -0.0084,0.03022 -0.01229,0.04542 -0.0033,0.0125 -0.0068,0.02481 -0.01004,0.0372 -2e-5,1.08e-4 -6.5e-5,2e-4 -9.2e-5,3.01e-4 -0.0012,0.0045 -0.0025,0.009 -0.0037,0.01373 -2e-5,9.2e-5 -6.5e-5,1.76e-4 -9e-5,2.6e-4 -0.0037,0.01373 -0.0074,0.02751 -0.01127,0.04122 -9.1e-4,0.0033 -0.0017,0.0066 -0.0027,0.0096 -0.0035,0.01229 -0.0064,0.02456 -0.01004,0.03669 -0.0045,0.01618 -0.0088,0.03249 -0.01373,0.04853 -0.0059,0.01905 -0.01291,0.03773 -0.01905,0.05677 -1.6e-4,4.77e-4 -3.17e-4,9.48e-4 -4.77e-4,0.0014 -0.0125,0.03872 -0.02542,0.07721 -0.03892,0.115458 -0.0066,0.01844 -0.01332,0.03665 -0.02008,0.05499 -0.0015,0.0041 -0.0031,0.0082 -0.0045,0.01229 -0.0045,0.01229 -0.0088,0.02471 -0.01352,0.03694 -0.0127,0.03331 -0.02616,0.06623 -0.03962,0.09915 -0.01127,0.02749 -0.02135,0.05554 -0.03308,0.08276 -0.0061,0.01434 -0.01291,0.02829 -0.01926,0.04253 -0.0068,0.01516 -0.01413,0.02972 -0.02098,0.04474 -5.62e-4,0.0012 -0.0012,0.0025 -0.0017,0.0037 -0.01987,0.04349 -0.03964,0.08705 -0.0609,0.129738 -0.0084,0.017 -0.01721,0.0338 -0.026,0.0507 -0.01721,0.03335 -0.0355,0.06592 -0.05343,0.09876 -0.0033,0.0061 -0.0068,0.01229 -0.01004,0.01844 -9e-5,1.76e-4 -1.58e-4,3.85e-4 -2.58e-4,5.61e-4 -4.5e-5,1.09e-4 -1.09e-4,2.01e-4 -1.77e-4,3.01e-4 -0.0025,0.0045 -0.0049,0.009 -0.0074,0.01352 -0.0066,0.01168 -0.0125,0.02356 -0.01905,0.03513 -0.009,0.01577 -0.01803,0.03169 -0.02725,0.0474 -0.01311,0.02227 -0.02716,0.04376 -0.04058,0.06576 -0.0068,0.01127 -0.01373,0.02243 -0.02071,0.03362 -0.01536,0.02485 -0.0302,0.05017 -0.04611,0.07471 -0.0061,0.0094 -0.01188,0.01885 -0.01803,0.02821 -0.120478,0.182734 -0.254671,0.355378 -0.3999,0.518044 0.187631,0.21027 0.395626,0.401705 0.619491,0.573463 0.496229,-0.552391 0.87811,-1.209281 1.109156,-1.933574 0.08563,-0.268469 0.150715,-0.546113 0.192978,-0.83125 0.03798,-0.256177 0.05826,-0.518139 0.05826,-0.78492 0,-0.432141 -0.05187,-0.852049 -0.149343,-1.254123 -0.310763,-0.171201 -0.647686,-0.300797 -1.003801,-0.379822 z" style="fill:#669900;stroke:#000000;stroke-width:0.0442988;font-variation-settings:normal;opacity:1;vector-effect:none;fill-opacity:0.56727;stroke-linecap:butt;stroke-linejoin:miter;stroke-miterlimit:4;stroke-dasharray:none;stroke-dashoffset:0;stroke-opacity:1;-inkscape-stroke:none;stop-color:#000000;stop-opacity:1" id="path12" />
    <path d="m 82.042642,58.318926 c -0.278931,0.05943 -0.54779,0.145716 -0.804819,0.254503 0.231399,0.719581 0.611624,1.372346 1.105047,1.921676 0.190109,0.211651 0.397413,0.407406 0.618886,0.58631 0.623974,0.504043 1.36401,0.869871 2.173885,1.050712 0.294351,-0.206127 0.558652,-0.452282 0.783795,-0.731577 -0.007,-5.78e-4 -0.01373,-0.0015 -0.02063,-0.002 -0.05224,-0.0047 -0.104253,-0.01004 -0.15596,-0.01639 -0.0039,-4.77e-4 -0.0078,-7.19e-4 -0.01168,-0.0012 -0.01598,-0.002 -0.03175,-0.0049 -0.04771,-0.007 -0.03831,-0.0053 -0.07656,-0.01065 -0.114557,-0.017 -0.02258,-0.0037 -0.04499,-0.008 -0.06744,-0.01209 -0.03513,-0.0064 -0.07016,-0.01291 -0.10499,-0.02008 -0.01024,-0.002 -0.02069,-0.0037 -0.03093,-0.0059 -0.01311,-0.0029 -0.02618,-0.0064 -0.03933,-0.0092 -0.03315,-0.0074 -0.06615,-0.01516 -0.09903,-0.02323 -0.0074,-0.0019 -0.01516,-0.0035 -0.02253,-0.0053 -0.01598,-0.0041 -0.0319,-0.0084 -0.04785,-0.0125 h -4.3e-5 c -0.03419,-0.009 -0.06812,-0.01864 -0.101959,-0.02846 -0.0049,-0.0014 -0.0098,-0.0027 -0.01475,-0.0041 -0.01577,-0.0047 -0.03147,-0.0092 -0.04712,-0.01393 -4.18e-4,-1.33e-4 -8.36e-4,-2.6e-4 -0.0013,-3.93e-4 -0.038,-0.01168 -0.07565,-0.02403 -0.113205,-0.03665 -0.01352,-0.0045 -0.02741,-0.0086 -0.04093,-0.01332 -0.0031,-10e-4 -0.0059,-0.0023 -0.0088,-0.0033 -0.05412,-0.01885 -0.107818,-0.0386 -0.160979,-0.05949 -0.05304,-0.02083 -0.105523,-0.04279 -0.157557,-0.06558 -0.0031,-0.0013 -0.0059,-0.0025 -0.009,-0.0037 -0.01311,-0.0057 -0.02592,-0.01229 -0.03899,-0.01803 -0.03526,-0.01598 -0.07041,-0.03202 -0.105175,-0.04884 -0.02028,-0.0098 -0.04011,-0.01987 -0.06013,-0.03003 -0.03028,-0.01516 -0.06045,-0.03059 -0.09032,-0.04646 -0.0092,-0.0049 -0.01864,-0.0094 -0.02794,-0.01434 -0.01168,-0.0063 -0.02309,-0.01331 -0.03475,-0.01967 -0.02907,-0.01598 -0.05791,-0.03239 -0.08657,-0.04906 -0.01147,-0.0066 -0.02305,-0.0127 -0.03436,-0.01946 h -4.5e-5 c -0.009,-0.0053 -0.01762,-0.01106 -0.02657,-0.01639 -0.02876,-0.01741 -0.0572,-0.03511 -0.08553,-0.05308 -0.01311,-0.0084 -0.02659,-0.01618 -0.03962,-0.0246 -0.0059,-0.0039 -0.01147,-0.008 -0.01741,-0.01188 -0.03026,-0.01987 -0.06007,-0.04026 -0.08981,-0.06078 -0.01639,-0.01127 -0.03315,-0.02243 -0.04945,-0.03401 -0.04536,-0.0322 -0.09022,-0.0651 -0.134326,-0.09893 -0.05597,-0.04294 -0.110952,-0.08713 -0.164871,-0.132503 -0.05392,-0.04538 -0.106752,-0.09196 -0.158459,-0.139776 -0.05173,-0.04781 -0.102286,-0.09684 -0.151678,-0.147048 -0.04939,-0.05019 -0.09757,-0.101569 -0.144487,-0.154136 l -3.94e-4,-4.37e-4 c -0.03968,-0.04447 -0.07793,-0.09024 -0.115602,-0.136477 -6.5e-5,-9.2e-5 -1.58e-4,-1.76e-4 -2.17e-4,-2.6e-4 -6.6e-5,-6.6e-5 -1.09e-4,-1.6e-4 -1.76e-4,-2.17e-4 -0.0235,-0.02856 -0.04652,-0.05746 -0.0693,-0.08661 -1.76e-4,-2.33e-4 -3.77e-4,-4.61e-4 -5.61e-4,-6.94e-4 -0.0019,-0.0025 -0.0039,-0.0047 -0.0057,-0.0072 -0.01086,-0.01373 -0.02172,-0.02745 -0.03231,-0.0414 -0.009,-0.01188 -0.01762,-0.02413 -0.02651,-0.03612 -9.2e-5,-1.33e-4 -1.76e-4,-2.58e-4 -2.6e-4,-3.94e-4 -9.2e-5,-1.08e-4 -1.76e-4,-2.33e-4 -2.58e-4,-3.42e-4 -0.01905,-0.02567 -0.03825,-0.05126 -0.05681,-0.07735 -1.08e-4,-1.57e-4 -2.35e-4,-3.17e-4 -3.44e-4,-4.77e-4 -0.0293,-0.04122 -0.05797,-0.08289 -0.08592,-0.125108 -0.0025,-0.0037 -0.0049,-0.0076 -0.0074,-0.01127 -6.5e-5,-9.2e-5 -1.08e-4,-1.76e-4 -1.76e-4,-2.6e-4 -4.5e-5,-4.5e-5 -4.5e-5,-1.09e-4 -9.2e-5,-1.76e-4 -0.02251,-0.03431 -0.04396,-0.06934 -0.06553,-0.104294 -1.35e-4,-2.01e-4 -2.6e-4,-4.02e-4 -3.93e-4,-6.03e-4 -0.0049,-0.0078 -0.0096,-0.01577 -0.01434,-0.02362 -0.0017,-0.0029 -0.0035,-0.0057 -0.0053,-0.0086 -0.0084,-0.01393 -0.01721,-0.02782 -0.02557,-0.04191 -0.01741,-0.02958 -0.03462,-0.05935 -0.05144,-0.08938 -0.01987,-0.03528 -0.03892,-0.07094 -0.05779,-0.106814 -4.3e-5,-9.2e-5 -9.2e-5,-1.74e-4 -1.33e-4,-2.58e-4 -2.3e-5,-6.8e-5 -6.8e-5,-1.09e-4 -9.2e-5,-1.77e-4 -0.01434,-0.02745 -0.02885,-0.05484 -0.04269,-0.08262 -2.3e-5,-6.6e-5 -6.6e-5,-1.09e-4 -9.2e-5,-1.77e-4 -6.6e-5,-1.08e-4 -1.09e-4,-2.33e-4 -1.76e-4,-3.42e-4 -0.01967,-0.03935 -0.03907,-0.07883 -0.05759,-0.118839 -0.0029,-0.0061 -0.0057,-0.01229 -0.0086,-0.01844 -0.0039,-0.0084 -0.0072,-0.0168 -0.01086,-0.02518 -1.4e-5,-2.3e-5 -2.3e-5,-6.6e-5 -4.5e-5,-9.2e-5 -1.9e-5,-4.6e-5 -2.3e-5,-9.3e-5 -4.5e-5,-1.34e-4 -0.0072,-0.01577 -0.01393,-0.03184 -0.02077,-0.04775 -1.33e-4,-2.93e-4 -2.6e-4,-5.78e-4 -3.93e-4,-8.67e-4 -0.02215,-0.05095 -0.04335,-0.102368 -0.06363,-0.154259 -4.5e-5,-1.09e-4 -9.2e-5,-2.34e-4 -1.35e-4,-3.42e-4 -1.6e-5,-4.5e-5 -2.2e-5,-9.2e-5 -4.3e-5,-1.35e-4 -0.0059,-0.01496 -0.01188,-0.02985 -0.01762,-0.04491 -2.2e-5,-6.7e-5 -6.7e-5,-1.08e-4 -9.2e-5,-1.76e-4 -1.6e-5,-4.5e-5 -2.3e-5,-9.2e-5 -4.5e-5,-1.33e-4 -0.0033,-0.0086 -0.0068,-0.017 -0.01004,-0.02561 -0.0015,-0.0041 -0.0031,-0.0084 -0.0045,-0.0125 -0.01905,-0.05177 -0.03681,-0.104171 -0.05398,-0.15682 -0.0013,-0.0039 -0.0029,-0.0078 -0.0041,-0.01168 z" style="fill:#669900;stroke:#000000;stroke-width:0.0442988;font-variation-settings:normal;opacity:1;vector-effect:none;fill-opacity:0.5672704;stroke-linecap:butt;stroke-linejoin:miter;stroke-miterlimit:4;stroke-dasharray:none;stroke-dashoffset:0;stroke-opacity:1;-inkscape-stroke:none;stop-color:#000000;stop-opacity:1" id="path11" sodipodi:nodetypes="ccsscccsssssssccsccsscccssssssccsssscccsssssssssccccccccccccscscccccccscsccccccccccccssccscccscc" />
    <path d="m 82.34287,53.393194 c -0.364175,0.405439 -0.666839,0.867227 -0.893632,1.370538 -0.133118,0.295428 -0.239887,0.605229 -0.317664,0.926381 -0.09737,0.402076 -0.149199,0.82197 -0.149199,1.254037 0,0.271269 0.02112,0.537501 0.06035,0.797812 0.0658,-0.02575 0.132236,-0.05029 0.199266,-0.07354 0.06701,-0.02325 0.134614,-0.04525 0.202811,-0.06588 0.0682,-0.02065 0.136949,-0.03993 0.206267,-0.05783 0.06932,-0.01782 0.139202,-0.03446 0.209639,-0.04953 -0.01106,-0.09032 -0.01987,-0.181403 -0.02573,-0.273233 -0.0059,-0.09184 -0.009,-0.184435 -0.009,-0.277775 0,-0.06484 0.0018,-0.129226 0.0045,-0.193367 8.87e-4,-0.02075 0.0023,-0.04136 0.0035,-0.06203 0.0014,-0.02428 0.0023,-0.0487 0.0039,-0.07285 2.19e-4,-0.0031 5.12e-4,-0.0059 7.37e-4,-0.009 0.0013,-0.01782 0.0035,-0.03558 0.0049,-0.05343 0.0019,-0.02198 0.0039,-0.04394 0.0061,-0.06584 0.0051,-0.05128 0.01127,-0.102286 0.01823,-0.15305 0.0015,-0.01127 0.0027,-0.02249 0.0043,-0.03366 4.02e-4,-0.0029 6.78e-4,-0.0055 0.0011,-0.0084 5.94e-4,-0.0041 0.0013,-0.0082 0.0019,-0.01229 0.0084,-0.05687 0.01823,-0.113267 0.02891,-0.169419 0.0023,-0.01229 0.0049,-0.0243 0.0074,-0.03646 0.0063,-0.03241 0.0125,-0.06492 0.01967,-0.09708 0.0012,-0.0055 0.0025,-0.01086 0.0037,-0.01639 0.0033,-0.01434 0.007,-0.02846 0.01045,-0.04273 0.0037,-0.01536 0.0074,-0.03075 0.01127,-0.04611 0.01188,-0.0481 0.02456,-0.09591 0.03802,-0.143401 0.0039,-0.01373 0.0076,-0.02768 0.01147,-0.0414 9.4e-4,-0.0033 0.0017,-0.0066 0.0027,-0.0096 0.0049,-0.0168 0.01045,-0.03349 0.01577,-0.05031 0.0076,-0.02456 0.01577,-0.0489 0.02366,-0.07328 0.01086,-0.03304 0.02196,-0.0659 0.03354,-0.0986 0.0076,-0.02141 0.01496,-0.0429 0.02276,-0.06416 0.0055,-0.01475 0.01045,-0.02958 0.01598,-0.04421 0.0035,-0.009 0.0074,-0.01803 0.01086,-0.02708 0.02997,-0.07662 0.06185,-0.152252 0.09583,-0.226772 0.0084,-0.01844 0.017,-0.03646 0.02565,-0.05468 0.03728,-0.07893 0.07633,-0.156861 0.11802,-0.233173 0.0035,-0.0064 0.0066,-0.0127 0.01004,-0.01905 0.04454,-0.08065 0.09219,-0.159299 0.141455,-0.236807 0.13068,-0.205554 0.276858,-0.400306 0.438318,-0.581293 -0.187672,-0.210106 -0.393673,-0.403483 -0.617545,-0.575106 z" style="fill:#669900;stroke:#000000;stroke-width:0.0442988;font-variation-settings:normal;opacity:1;vector-effect:none;fill-opacity:0.5672704;stroke-linecap:butt;stroke-linejoin:miter;stroke-miterlimit:4;stroke-dasharray:none;stroke-dashoffset:0;stroke-opacity:1;-inkscape-stroke:none;stop-color:#000000;stop-opacity:1" id="path10" />
    <path d="m 79.626021,51.628294 c -2.935238,-2.2e-5 -5.31473,2.379974 -5.31473,5.315856 0,2.264501 1.41627,4.197058 3.410661,4.963066 0.04222,-0.284992 0.106445,-0.56279 0.192035,-0.831121 -1.619728,-0.672173 -2.759201,-2.268702 -2.759201,-4.131945 0,-2.469939 2.001842,-4.47222 4.471237,-4.472189 1.02222,0 1.963709,0.343869 2.716849,0.921233 l 4.5e-5,4.5e-5 c 0.06416,0.04919 0.126746,0.100237 0.188102,0.152743 0.0055,0.0047 0.01086,0.0094 0.01639,0.01413 0.05685,0.04915 0.112407,0.09964 0.166674,0.151535 0.0059,0.0055 0.01168,0.01106 0.01762,0.0168 0.05675,0.05484 0.112161,0.110973 0.165957,0.168723 0.0014,0.0015 0.0029,0.0031 0.0043,0.0045 0.02008,0.02165 0.03929,0.04415 0.05896,0.06619 0.145225,0.162679 0.279423,0.335301 0.3999,0.518044 0.0061,0.0092 0.01188,0.01885 0.01803,0.02821 0.0018,0.0029 0.0035,0.0057 0.0053,0.0086 0.378788,0.03517 0.743575,0.118041 1.089388,0.240962 -0.226747,-0.502819 -0.529226,-0.964163 -0.893157,-1.369283 -0.190232,-0.211767 -0.396905,-0.408522 -0.61854,-0.587522 -0.912123,-0.736665 -2.072093,-1.17859 -3.335736,-1.17859 z" style="fill:#669900;stroke:#000000;stroke-width:0.0442988;fill-opacity:0.5672704" id="path9" />
    <path d="m 86.297101,51.628294 c -1.26357,-10e-6 -2.423366,0.441896 -3.335345,1.17859 0.221634,0.179006 0.428302,0.375753 0.618539,0.587522 0.7531,-0.577812 1.694282,-0.922457 2.716806,-0.922445 2.469376,0 4.471194,2.00227 4.471194,4.472189 0,1.851846 -1.125347,3.440768 -2.729309,4.120049 -0.130393,0.05523 -0.264006,0.104191 -0.400375,0.147048 -0.0037,0.0011 -0.0072,0.0025 -0.01065,0.0037 -4.5e-5,1.2e-5 -8.4e-5,2e-5 -1.68e-4,4.3e-5 -0.05003,0.01557 -0.100873,0.02927 -0.151637,0.04312 -0.02028,0.0055 -0.04021,0.01188 -0.06062,0.01721 -1.66e-4,4.3e-5 -2.5e-4,4.3e-5 -4.18e-4,9.2e-5 -0.06017,0.01557 -0.120928,0.0295 -0.182038,0.04253 -0.08399,0.01782 -0.168743,0.0337 -0.254415,0.04681 -0.05966,0.0092 -0.119986,0.01618 -0.180399,0.02296 0.0023,-2.6e-4 0.0047,-3.36e-4 0.007,-6.02e-4 -0.19646,0.318228 -0.431578,0.609973 -0.698311,0.869319 0.06312,0.0023 0.12646,0.0037 0.19013,0.0037 0.383714,0 0.757706,-0.04114 1.118154,-0.118798 0.281449,-0.06064 0.554641,-0.143565 0.817754,-0.246585 1.977538,-0.774316 3.378779,-2.698092 3.378779,-4.950477 0,-2.935866 -2.379466,-5.315854 -5.314687,-5.315857 z" style="fill:#669900;stroke:#000000;stroke-width:0.0442988;font-variation-settings:normal;opacity:1;vector-effect:none;fill-opacity:0.5672704;stroke-linecap:butt;stroke-linejoin:miter;stroke-miterlimit:4;stroke-dasharray:none;stroke-dashoffset:0;stroke-opacity:1;-inkscape-stroke:none;stop-color:#000000;stop-opacity:1" id="path8" />
    <path id="path7" style="fill:#669900;stroke:#000000;stroke-width:0.0442988;font-variation-settings:normal;opacity:1;vector-effect:none;fill-opacity:0.56727;stroke-linecap:butt;stroke-linejoin:miter;stroke-miterlimit:4;stroke-dasharray:none;stroke-dashoffset:0;stroke-opacity:1;-inkscape-stroke:none;stop-color:#000000;stop-opacity:1" d="m 84.882437,57.72907 c -0.0033,0.02249 -0.0076,0.04468 -0.01127,0.06709 -3.36e-4,0.0019 -5.02e-4,0.0039 -8.38e-4,0.0057 -0.0051,0.03194 -0.01004,0.06394 -0.01598,0.09569 -5.02e-4,0.0027 -0.0011,0.0051 -0.0016,0.0078 -6.7e-4,0.0039 -0.0015,0.0076 -0.0023,0.01147 -2.3e-5,1.6e-4 -6.8e-5,3.17e-4 -8.4e-5,4.77e-4 -0.0037,0.01946 -0.0074,0.0388 -0.01127,0.05818 -9.63e-4,0.0049 -0.002,0.0096 -0.0031,0.01454 -0.0092,0.04646 -0.01864,0.09282 -0.02919,0.138834 -0.0029,0.01413 -0.0057,0.02825 -0.009,0.04222 -0.01475,0.06254 -0.03114,0.124452 -0.04814,0.186115 -0.007,0.02512 -0.01352,0.05033 -0.0209,0.07533 -0.0049,0.01721 -0.01065,0.03405 -0.01598,0.05101 -0.0031,0.01024 -0.0063,0.02028 -0.0096,0.03036 -1.66e-4,3.85e-4 -2.5e-4,7.79e-4 -3.34e-4,0.0012 -0.0047,0.01496 -0.0086,0.03028 -0.01332,0.04521 0.03843,0.01598 0.07643,0.03267 0.11425,0.04974 0.01967,0.0088 0.03933,0.01782 0.05888,0.02692 0.0025,0.0012 0.0051,0.0023 0.0076,0.0035 0.008,0.0037 0.01618,0.0074 0.02428,0.01127 0.0066,0.0031 0.01311,0.0068 0.01967,0.0098 0.04476,0.02155 0.08911,0.04384 0.133036,0.06685 0.0051,0.0027 0.01024,0.0051 0.01536,0.0078 0.0096,0.0051 0.01926,0.01024 0.02886,0.01537 1.66e-4,6.7e-5 2.5e-4,1.59e-4 4.18e-4,2.19e-4 0.05818,0.0313 0.115582,0.06379 0.172184,0.09755 0.0049,0.0031 0.0098,0.0059 0.01496,0.009 0.03016,0.01823 0.06011,0.03661 0.08985,0.05537 0.0094,0.0061 0.01885,0.01229 0.02841,0.01844 0.01536,0.0098 0.03087,0.01967 0.04611,0.02973 0.0015,9.65e-4 0.0029,0.002 0.0043,0.0029 0.01414,0.0094 0.02815,0.01926 0.04222,0.0288 0.01004,0.0068 0.02008,0.01352 0.02993,0.02049 0.03046,0.02116 0.06074,0.04259 0.09067,0.06445 0.0041,0.0031 0.0082,0.0059 0.01229,0.0088 0.0023,0.0017 0.0047,0.0035 0.007,0.0053 0.0066,0.0049 0.01291,0.0098 0.01946,0.01475 0.02872,0.02149 0.05714,0.04337 0.0853,0.06553 0.01209,0.0094 0.02421,0.01885 0.0362,0.02856 0.0017,0.0014 0.0035,0.0027 0.0051,0.0041 0.0068,0.0053 0.01332,0.01065 0.02008,0.01618 0.0078,0.0064 0.01516,0.01311 0.02301,0.01946 0.03417,0.02819 0.06793,0.05683 0.101221,0.086 0.0074,0.0066 0.01516,0.0127 0.02253,0.01926 0.0049,0.0045 0.01004,0.009 0.01496,0.01331 0.0068,0.0059 0.01311,0.01209 0.01987,0.01803 0.0072,0.0066 0.01434,0.01311 0.02159,0.01967 0.03538,0.03239 0.07047,0.06512 0.104724,0.09868 1.68e-4,1.58e-4 3.34e-4,3.18e-4 5.02e-4,4.78e-4 4.18e-4,3.75e-4 7.54e-4,7.86e-4 0.0011,0.0012 0.03546,0.03475 0.07012,0.07029 0.104397,0.106199 0.002,0.0023 0.0043,0.0045 0.0064,0.0068 0.05894,0.06203 0.116319,0.125599 0.171692,0.190908 0.0029,0.0035 0.0059,0.0068 0.0088,0.01024 0.0066,0.0078 0.0127,0.01557 0.01926,0.02327 0.0029,0.0035 0.0059,0.0072 0.0088,0.01065 0.03065,0.03712 0.0608,0.07467 0.09028,0.112775 0.0025,0.0031 0.0049,0.0061 0.0074,0.0094 0.0029,0.0037 0.0057,0.0076 0.0086,0.01127 0.02585,0.03382 0.05107,0.06812 0.076,0.102655 1.67e-4,2.5e-4 4.19e-4,4.86e-4 5.85e-4,7.36e-4 0.01496,0.02067 0.02981,0.04134 0.04435,0.0623 0.08088,0.116525 0.156329,0.237086 0.226079,0.361313 6.6e-5,1.09e-4 8.4e-5,2.01e-4 1.68e-4,3.01e-4 2.1e-5,6.6e-5 4.3e-5,1.09e-4 8.4e-5,1.77e-4 0.03433,0.06117 0.06717,0.123284 0.09868,0.186196 9.71e-4,0.0019 0.0019,0.0039 0.0029,0.0057 0.03143,0.06301 0.06148,0.126808 0.08997,0.191462 l 4.4e-5,4.5e-5 v 0 c 0.06123,0.138854 0.115909,0.281278 0.163006,0.427112 0.279125,-0.05949 0.548888,-0.144324 0.806075,-0.253248 -0.149281,-0.464279 -0.361005,-0.900441 -0.624725,-1.2992 v 0 C 87.222006,59.474149 87.001784,59.203601 86.757744,58.95666 86.23157,58.424228 85.593988,58.002172 84.882443,57.728924 Z" sodipodi:nodetypes="cscscccscccsscccccssscssccccccscccsssccssscsssccsscscssscsscscscccsscccccccsc" />
    <path d="m 82.978411,57.376408 c -0.38354,-2e-6 -0.757228,0.04155 -1.117723,0.118757 -0.281711,0.06033 -0.55475,0.143771 -0.81797,0.246803 -0.714556,0.27968 -1.353599,0.709672 -1.878633,1.250878 -6.6e-5,0.0086 -8.67e-4,0.0168 -8.67e-4,0.02534 0,0.382163 0.05701,0.75089 0.161962,1.098817 4.78e-4,-6.7e-4 9.94e-4,-0.0013 0.0015,-0.002 0.026,-0.03681 0.05234,-0.07338 0.07942,-0.109354 9.8e-4,-0.0013 0.002,-0.0027 0.0029,-0.0039 0.0025,-0.0035 0.0053,-0.0066 0.0078,-0.01004 3.09e-4,-4.1e-4 6.45e-4,-8.03e-4 9.53e-4,-0.0012 0.03104,-0.04085 0.06275,-0.08119 0.09514,-0.120908 0.03267,-0.04011 0.06599,-0.07965 0.100013,-0.118573 0.06726,-0.07694 0.13701,-0.151678 0.209338,-0.223829 0.0025,-0.0025 0.0047,-0.0047 0.0072,-0.0072 0.03141,-0.03118 0.06345,-0.0617 0.09577,-0.09192 0.008,-0.0074 0.01598,-0.01496 0.02401,-0.02233 0.0078,-0.0072 0.01536,-0.01454 0.02327,-0.02159 0.0057,-0.0051 0.01127,-0.01024 0.017,-0.01536 0.01598,-0.01434 0.0321,-0.02844 0.04822,-0.04257 0.0066,-0.0057 0.01311,-0.01168 0.01967,-0.01721 0.02635,-0.0228 0.05291,-0.04536 0.07981,-0.06752 0.0045,-0.0037 0.009,-0.0072 0.01332,-0.01086 0.0033,-0.0027 0.0066,-0.0053 0.0098,-0.0078 0.0094,-0.0078 0.01905,-0.01516 0.02852,-0.02284 0.03079,-0.02471 0.06189,-0.04904 0.09335,-0.07293 0.0051,-0.0039 0.01024,-0.0078 0.01537,-0.01168 0.0039,-0.0029 0.0076,-0.0059 0.01147,-0.0088 0.0011,-8.42e-4 0.0023,-0.0017 0.0035,-0.0025 0.03096,-0.02305 0.06234,-0.04554 0.09391,-0.06779 0.01147,-0.0082 0.02313,-0.01598 0.0347,-0.02405 0.01209,-0.0084 0.02395,-0.0168 0.03608,-0.02501 0.0033,-0.0023 0.0064,-0.0045 0.0096,-0.0068 0.01352,-0.009 0.02721,-0.01782 0.04079,-0.02669 0.01127,-0.0074 0.02229,-0.01475 0.03353,-0.02198 0.02938,-0.01885 0.05892,-0.03741 0.08873,-0.05564 0.0035,-0.0023 0.007,-0.0043 0.01065,-0.0064 0.0572,-0.03478 0.115274,-0.06828 0.17413,-0.100545 6.27e-4,-3.44e-4 0.0012,-7.37e-4 0.0019,-0.0011 0.0098,-0.0053 0.01987,-0.01065 0.02973,-0.01598 0.0053,-0.0029 0.01106,-0.0055 0.01639,-0.0084 0.04269,-0.02272 0.0858,-0.04478 0.129308,-0.06615 0.0074,-0.0037 0.01454,-0.0076 0.02188,-0.01127 0.0074,-0.0037 0.01495,-0.007 0.02233,-0.01065 0.0031,-0.0014 0.0061,-0.0029 0.0092,-0.0043 0.01926,-0.0092 0.03857,-0.01823 0.05797,-0.027 0.03792,-0.01741 0.07598,-0.03458 0.114517,-0.05087 0.06426,-0.02721 0.129266,-0.053 0.194964,-0.07731 0.06572,-0.02432 0.132114,-0.04714 0.199206,-0.06844 0.06711,-0.02131 0.13492,-0.04107 0.203364,-0.05922 0.06844,-0.01823 0.137522,-0.03468 0.207262,-0.04953 0.07547,-0.01598 0.151617,-0.03028 0.228415,-0.04257 0.0768,-0.01229 0.154259,-0.02264 0.23231,-0.03097 0.07805,-0.0084 0.156656,-0.01475 0.235855,-0.01885 0.0792,-0.0043 0.158971,-0.0064 0.239231,-0.0064 0.07742,0 0.154361,0.0019 0.230797,0.0057 0.07643,0.0039 0.152395,0.0096 0.227767,0.01741 0.07537,0.0078 0.150162,0.01721 0.22439,0.02864 0.07422,0.01147 0.147868,0.0246 0.220847,0.03958 0.08508,-0.264769 0.146434,-0.540198 0.180952,-0.823984 -0.350242,-0.07266 -0.713021,-0.111136 -1.084802,-0.111136 z" style="fill:#669900;stroke:#000000;stroke-width:0.0442988;font-variation-settings:normal;opacity:1;vector-effect:none;fill-opacity:0.56727;stroke-linecap:butt;stroke-linejoin:miter;stroke-miterlimit:4;stroke-dasharray:none;stroke-dashoffset:0;stroke-opacity:1;-inkscape-stroke:none;stop-color:#000000;stop-opacity:1" id="path6" sodipodi:nodetypes="ssscsccssscssscccscccsssccsscccssccscscsccssccssssssssssssccss" />
    <path d="m 78.516258,59.805532 c -0.253702,0.391161 -0.457757,0.817498 -0.602273,1.270563 -0.08559,0.268331 -0.149814,0.546129 -0.192035,0.831121 -0.03796,0.256224 -0.05828,0.518229 -0.05828,0.785049 0,2.935882 2.379495,5.31588 5.314732,5.315856 2.935221,-2e-6 5.314687,-2.37999 5.314689,-5.315856 0,-0.271187 -0.0209,-0.537415 -0.06009,-0.797637 -0.279301,0.109354 -0.570349,0.194985 -0.870185,0.256447 0.01741,-0.0035 0.03511,-0.0061 0.05242,-0.0098 0.02243,0.180563 0.0344,0.364373 0.0344,0.551051 0,2.46992 -2.001817,4.47219 -4.471194,4.47219 -2.469397,2.2e-5 -4.47128,-2.00225 -4.47128,-4.47219 0,-0.184312 0.01168,-0.365832 0.0335,-0.544174 0.01352,0.0029 0.02745,0.0047 0.04105,0.0076 -0.01373,-0.0027 -0.02716,-0.0061 -0.04085,-0.009 0.03485,-0.283106 0.09602,-0.558064 0.180953,-0.822384 0.04333,-0.134798 0.09323,-0.266604 0.148646,-0.395488 -0.164584,-0.352002 -0.284611,-0.728847 -0.354219,-1.123087 z" style="fill:#669900;stroke:#000000;stroke-width:0.0442988;font-variation-settings:normal;opacity:1;vector-effect:none;fill-opacity:0.5672704;stroke-linecap:butt;stroke-linejoin:miter;stroke-miterlimit:4;stroke-dasharray:none;stroke-dashoffset:0;stroke-opacity:1;-inkscape-stroke:none;stop-color:#000000;stop-opacity:1" id="path5" sodipodi:nodetypes="cssscscccscscccscc" />
    <path style="fill:#669900;stroke:#000000;stroke-width:0.0442988;font-variation-settings:normal;opacity:1;vector-effect:none;fill-opacity:0.56727;stroke-linecap:butt;stroke-linejoin:miter;stroke-miterlimit:4;stroke-dasharray:none;stroke-dashoffset:0;stroke-opacity:1;-inkscape-stroke:none;stop-color:#000000;stop-opacity:1" d="m 82.961539,54.502352 c -0.142869,-2e-6 -0.283964,0.0074 -0.423434,0.02049 -0.15936,0.246835 -0.294517,0.510641 -0.403403,0.787644 0.266309,-0.05916 0.542763,-0.09137 0.82688,-0.09137 0.283593,0 0.55956,0.03206 0.825412,0.09102 0.0023,0.0055 0.0045,0.01106 0.0066,0.01639 -0.002,-0.0053 -0.0039,-0.01086 -0.0059,-0.01639 0.355856,0.07897 0.692534,0.20845 1.003126,0.379481 0.001,0.0039 0.002,0.0078 0.0031,0.01147 -8.89e-4,-0.0037 -0.0015,-0.0076 -0.0025,-0.01127 1.156264,0.637009 1.943894,1.858435 1.966365,3.266776 -0.01618,-0.01639 -0.03358,-0.03182 -0.05005,-0.04806 0.03225,0.03177 0.06469,0.06334 0.09612,0.09596 0.02202,0.02282 0.04376,0.04587 0.06537,0.06908 0.04253,0.04572 0.08416,0.09227 0.125067,0.139468 0.01618,0.01864 0.033,0.03694 0.04896,0.05589 0.05175,0.06138 0.101712,0.124268 0.150674,0.187958 0.01967,0.02567 0.03888,0.05171 0.05814,0.07775 0.03392,0.04583 0.06703,0.09223 0.0995,0.139161 0.01782,0.02579 0.03599,0.05132 0.05339,0.07744 0.0031,0.0045 0.0064,0.009 0.0094,0.01352 0.04067,-0.242906 0.06213,-0.492304 0.06213,-0.746805 -2e-6,-1.963377 -1.253304,-3.63262 -3.002933,-4.254504 -0.345815,-0.122915 -0.7106,-0.205777 -1.089388,-0.240959 l -7.78e-4,-9.1e-5 c -0.138915,-0.01291 -0.279461,-0.02028 -0.421749,-0.02028 z" id="path14" sodipodi:nodetypes="scccccccccccccccsssscssccs" />
  </g>
</svg>
