<?xml version="1.0" encoding="UTF-8" standalone="no"?>
<svg width="100" height="100" viewBox="0 0 26.458334 26.458334" version="1.1" id="svg10012" inkscape:version="1.3-alpha (9cd57a7883, 2023-05-01)" sodipodi:docname="cross.svg" xmlns:inkscape="http://www.inkscape.org/namespaces/inkscape" xmlns:sodipodi="http://sodipodi.sourceforge.net/DTD/sodipodi-0.dtd" xmlns="http://www.w3.org/2000/svg" xmlns:svg="http://www.w3.org/2000/svg" xmlns:rdf="http://www.w3.org/1999/02/22-rdf-syntax-ns#" xmlns:cc="http://creativecommons.org/ns#" xmlns:dc="http://purl.org/dc/elements/1.1/">
  <defs id="defs10006" />
  <sodipodi:namedview id="base" pagecolor="#ffffff" bordercolor="#666666" borderopacity="1.0" inkscape:pageopacity="0.0" inkscape:pageshadow="2" inkscape:zoom="4.7387531" inkscape:cx="126.82661" inkscape:cy="79.134741" inkscape:document-units="px" inkscape:current-layer="layer1" inkscape:document-rotation="0" showgrid="false" units="px" inkscape:window-width="1534" inkscape:window-height="843" inkscape:window-x="66" inkscape:window-y="20" inkscape:window-maximized="1" inkscape:showpageshadow="2" inkscape:pagecheckerboard="0" inkscape:deskcolor="#d1d1d1" />
  <metadata id="metadata10009">
    <rdf:RDF>
      <cc:Work rdf:about="">
        <dc:format>image/svg+xml</dc:format>
        <dc:type rdf:resource="http://purl.org/dc/dcmitype/StillImage" />
      </cc:Work>
    </rdf:RDF>
  </metadata>
  <g inkscape:label="Layer 1" inkscape:groupmode="layer" id="layer1" transform="translate(-70.005836,-46.768833)">
    <path style="color:#000000;font-style:normal;font-variant:normal;font-weight:normal;font-stretch:normal;font-size:medium;line-height:normal;font-family:sans-serif;font-variant-ligatures:normal;font-variant-position:normal;font-variant-caps:normal;font-variant-numeric:normal;font-variant-alternates:normal;font-variant-east-asian:normal;font-feature-settings:normal;font-variation-settings:normal;text-indent:0;text-align:start;text-decoration:none;text-decoration-line:none;text-decoration-style:solid;text-decoration-color:#000000;letter-spacing:normal;word-spacing:normal;text-transform:none;writing-mode:lr-tb;direction:ltr;text-orientation:mixed;dominant-baseline:auto;baseline-shift:baseline;text-anchor:start;white-space:normal;shape-padding:0;shape-margin:0;inline-size:0;clip-rule:nonzero;display:inline;overflow:visible;visibility:visible;opacity:0.2;isolation:auto;mix-blend-mode:normal;color-interpolation:sRGB;color-interpolation-filters:linearRGB;solid-color:#000000;solid-opacity:1;vector-effect:none;fill:#000000;fill-opacity:1;fill-rule:nonzero;stroke:none;stroke-width:0.0784929px;stroke-linecap:butt;stroke-linejoin:miter;stroke-miterlimit:4;stroke-dasharray:none;stroke-dashoffset:0;stroke-opacity:1;paint-order:stroke markers fill;color-rendering:auto;image-rendering:auto;shape-rendering:auto;text-rendering:auto;enable-background:accumulate;stop-color:#000000" d="m 93.818337,50.635938 -0.747716,0.0014 v 3.370632 1.919012 14.119813 h -0.48056 -18.465535 v 0.634822 h 19.693811 z" id="path9068" />
    <path style="color:#000000;font-style:normal;font-variant:normal;font-weight:normal;font-stretch:normal;font-size:medium;line-height:normal;font-family:sans-serif;font-variant-ligatures:normal;font-variant-position:normal;font-variant-caps:normal;font-variant-numeric:normal;font-variant-alternates:normal;font-variant-east-asian:normal;font-feature-settings:normal;font-variation-settings:normal;text-indent:0;text-align:start;text-decoration:none;text-decoration-line:none;text-decoration-style:solid;text-decoration-color:#000000;letter-spacing:normal;word-spacing:normal;text-transform:none;writing-mode:lr-tb;direction:ltr;text-orientation:mixed;dominant-baseline:auto;baseline-shift:baseline;text-anchor:start;white-space:normal;shape-padding:0;shape-margin:0;inline-size:0;clip-rule:nonzero;display:inline;overflow:visible;visibility:visible;opacity:0.7;isolation:auto;mix-blend-mode:normal;color-interpolation:sRGB;color-interpolation-filters:linearRGB;solid-color:#000000;solid-opacity:1;vector-effect:none;fill:#ffffff;fill-opacity:1;fill-rule:nonzero;stroke:none;stroke-width:0.351486;stroke-linecap:butt;stroke-linejoin:miter;stroke-miterlimit:4;stroke-dasharray:none;stroke-dashoffset:0;stroke-opacity:1;paint-order:stroke markers fill;color-rendering:auto;image-rendering:auto;shape-rendering:auto;text-rendering:auto;enable-background:accumulate;stop-color:#000000" d="m 73.093393,49.756372 v 0.0073 4.329057 1.919068 13.592465 h 0.03895 19.457292 0.0387 v -13.677398 -1.919015 -4.244177 -0.0073 z" id="path9037" />
    <path id="path9035" style="color:#000000;font-style:normal;font-variant:normal;font-weight:normal;font-stretch:normal;font-size:medium;line-height:normal;font-family:sans-serif;font-variant-ligatures:normal;font-variant-position:normal;font-variant-caps:normal;font-variant-numeric:normal;font-variant-alternates:normal;font-variant-east-asian:normal;font-feature-settings:normal;font-variation-settings:normal;text-indent:0;text-align:start;text-decoration:none;text-decoration-line:none;text-decoration-style:solid;text-decoration-color:#000000;letter-spacing:normal;word-spacing:normal;text-transform:none;writing-mode:lr-tb;direction:ltr;text-orientation:mixed;dominant-baseline:auto;baseline-shift:baseline;text-anchor:start;white-space:normal;shape-padding:0;shape-margin:0;inline-size:0;clip-rule:nonzero;display:inline;overflow:visible;visibility:visible;opacity:0.4;isolation:auto;mix-blend-mode:normal;color-interpolation:sRGB;color-interpolation-filters:linearRGB;solid-color:#000000;solid-opacity:1;vector-effect:none;fill:#000000;fill-opacity:1;fill-rule:nonzero;stroke:none;stroke-width:0.351486;stroke-linecap:butt;stroke-linejoin:miter;stroke-miterlimit:4;stroke-dasharray:none;stroke-dashoffset:0;stroke-opacity:1;paint-order:stroke markers fill;color-rendering:auto;image-rendering:auto;shape-rendering:auto;text-rendering:auto;enable-background:accumulate;stop-color:#000000" d="m 72.651671,49.31439 v 0.441826 0.0073 4.32963 1.918755 14.034603 h 0.480292 19.458098 0.480562 V 55.926637 54.007674 49.763497 49.31465 Z m 0.441586,0.441826 h 19.534969 v 0.0073 4.244437 1.919015 13.677398 H 92.589526 73.13223 73.09327 V 56.011882 54.092606 49.763497 Z" />
    <g inkscape:label="Cross" style="fill:#ffffff;stroke:#000000;stroke-width:2" class="prefab" id="g2" transform="matrix(0.02073529,0,0,0.02073529,73.471252,50.092234)" inkscape:transform-center-x="0.52569849" inkscape:transform-center-y="-0.21441418">&#10;  <path d="m 749.60503,148.57132 h -602.712 v 50.22556 h 602.712 z m 0,100.4511 h -602.712 v 50.22736 h 602.712 z m 0,100.4529 h -602.712 v 50.22555 h 602.712 z m 0,100.45109 h -602.712 v 50.22738 h 602.712 z m 0,100.45293 h -602.712 v 50.22554 h 602.712 z m 0,100.45108 h -602.712 v 50.22736 h 602.712 z m 0,100.45291 h -602.712 V 148.57132 h 602.712 z m -602.712,-602.71201 v 602.71199 h 50.22554 V 148.57132 Z m 100.45108,0 v 602.71199 h 50.22737 V 148.57132 Z m 100.45291,0 v 602.71199 h 50.22554 V 148.57132 Z m 100.45109,0 v 602.71199 h 50.22738 V 148.57132 Z m 100.45292,0 v 602.71199 h 50.22555 V 148.57132 Z m 100.45109,0 v 602.71199 h 50.22736 V 148.57132 Z m 100.45291,0 v 602.71199 h -602.712 V 148.57132 Z" id="path1" style="vector-effect:non-scaling-stroke;fill:none;fill-opacity:1;stroke:#00349c;stroke-opacity:1;-inkscape-stroke:hairline" />
&#10;  <path d="M 874.43077,449.92732 448.24904,23.745584 412.73421,59.260416 838.91594,485.44216 Z M 803.40113,520.95697 377.21938,94.775236 341.70328,130.29134 767.88501,556.47307 Z M 732.3702,591.98789 306.18845,165.80616 270.67362,201.32099 696.85536,627.50273 Z M 661.34054,663.01754 235.15881,236.83581 199.64268,272.35193 625.82443,698.53367 Z M 590.30959,734.04849 164.12786,307.86676 128.61304,343.38158 554.79478,769.56331 Z M 519.27996,805.07813 93.098217,378.8964 57.582106,414.4125 483.76384,840.59424 Z M 448.24902,876.10906 22.067279,449.92733 448.24904,23.745586 874.43077,449.92732 Z m 1e-5,-852.363476 L 22.067292,449.92732 57.582115,485.44215 483.76385,59.260407 Z M 519.27868,94.775226 93.096935,520.95696 128.61305,556.47307 554.79479,130.29134 Z m 71.03093,71.030924 -426.18174,426.18174 35.51481,35.51482 426.18175,-426.18173 z m 71.02964,71.02966 -426.18173,426.18173 35.51611,35.51612 426.18174,-426.18174 z M 732.3702,307.86674 306.18845,734.04848 341.70328,769.5633 767.88502,343.38157 Z M 803.39985,378.89639 377.2181,805.07812 412.73421,840.59423 838.91595,414.4125 Z M 874.43077,449.92732 448.24903,876.10906 22.067292,449.92732 448.24903,23.745584 Z" id="path2" style="vector-effect:non-scaling-stroke;fill:none;fill-opacity:1;stroke:#00349c;stroke-opacity:1;-inkscape-stroke:hairline" />
&#10; </g>
    <path d="m 82.765833,50.584616 -0.736377,0.736388 h -4.2e-5 l -0.73644,0.736425 -0.73642,0.736426 0.379061,0.379067 h 0.714696 l 0.379103,-0.379107 0.379061,0.379107 h 0.357316 0.357359 l 0.379103,-0.379107 0.379081,0.379107 h 0.714676 l 0.37906,-0.379067 -0.736419,-0.736426 -0.736419,-0.736425 z" style="fill:#cc0000;stroke:#00349c;stroke-width:0.0271755;font-variation-settings:normal;opacity:1;vector-effect:non-scaling-stroke;fill-opacity:0.300457;stroke-linecap:butt;stroke-linejoin:miter;stroke-miterlimit:2;stroke-dasharray:none;stroke-dashoffset:0;stroke-opacity:1;-inkscape-stroke:hairline;paint-order:stroke markers fill;stop-color:#000000;stop-opacity:1" id="path3" inkscape:transform-center-x="0.525712" inkscape:transform-center-y="-7.7572527" />
    <path d="m 82.737472,68.300148 -0.736378,-0.736385 h -4.2e-5 l -0.73644,-0.736426 -0.736419,-0.736428 0.37906,-0.379064 h 0.714697 l 0.379102,0.379106 0.379061,-0.379106 h 0.357317 0.357358 l 0.379103,0.379106 0.379082,-0.379106 h 0.714675 l 0.37906,0.379064 -0.736419,0.736428 -0.736419,0.736426 z" style="fill:#cc0000;stroke:#00349c;stroke-width:0.0271755;font-variation-settings:normal;opacity:1;vector-effect:non-scaling-stroke;fill-opacity:0.300457;stroke-linecap:butt;stroke-linejoin:miter;stroke-miterlimit:2;stroke-dasharray:none;stroke-dashoffset:0;stroke-opacity:1;-inkscape-stroke:hairline;paint-order:stroke markers fill;stop-color:#000000;stop-opacity:1" id="path4" inkscape:transform-center-x="0.5540735" inkscape:transform-center-y="7.3699748" />
    <path d="m 91.621983,59.419318 -0.736377,0.736385 v 4.3e-5 l -0.736441,0.736425 -0.736419,0.736426 -0.379061,-0.379067 v -0.714678 l 0.379103,-0.379106 -0.379103,-0.379067 v -0.357321 -0.357359 l 0.379103,-0.379107 -0.379103,-0.379067 v -0.714679 l 0.379061,-0.379067 0.736419,0.736425 0.736441,0.736428 z" style="fill:#cc0000;stroke:#00349c;stroke-width:0.0271755;font-variation-settings:normal;opacity:1;vector-effect:non-scaling-stroke;fill-opacity:0.300457;stroke-linecap:butt;stroke-linejoin:miter;stroke-miterlimit:2;stroke-dasharray:none;stroke-dashoffset:0;stroke-opacity:1;-inkscape-stroke:hairline;paint-order:stroke markers fill;stop-color:#000000;stop-opacity:1" id="path5" inkscape:transform-center-x="-7.0363099" inkscape:transform-center-y="-0.21668368" />
    <path d="m 73.893234,59.411364 0.736377,0.736386 v 4.2e-5 l 0.736441,0.736425 0.736419,0.736428 0.379061,-0.379067 v -0.71468 l -0.379103,-0.379106 0.379103,-0.379067 v -0.357319 -0.357361 l -0.379103,-0.379107 0.379103,-0.379067 v -0.714677 l -0.379061,-0.379069 -0.736419,0.736428 -0.736441,0.736425 z" style="fill:#cc0000;stroke:#00349c;stroke-width:0.0271755;font-variation-settings:normal;opacity:1;vector-effect:non-scaling-stroke;fill-opacity:0.300457;stroke-linecap:butt;stroke-linejoin:miter;stroke-miterlimit:2;stroke-dasharray:none;stroke-dashoffset:0;stroke-opacity:1;-inkscape-stroke:hairline;paint-order:stroke markers fill;stop-color:#000000;stop-opacity:1" id="path6" inkscape:transform-center-x="8.1041409" inkscape:transform-center-y="-0.22463668" />
  </g>
</svg>
