<?xml version="1.0" encoding="UTF-8" standalone="no"?>
<svg width="100" height="100" viewBox="0 0 26.458334 26.458334" version="1.1" id="svg10012" inkscape:version="1.3-alpha (9cd57a7883, 2023-05-01)" sodipodi:docname="crown.svg" xmlns:inkscape="http://www.inkscape.org/namespaces/inkscape" xmlns:sodipodi="http://sodipodi.sourceforge.net/DTD/sodipodi-0.dtd" xmlns="http://www.w3.org/2000/svg" xmlns:svg="http://www.w3.org/2000/svg" xmlns:rdf="http://www.w3.org/1999/02/22-rdf-syntax-ns#" xmlns:cc="http://creativecommons.org/ns#" xmlns:dc="http://purl.org/dc/elements/1.1/">
  <defs id="defs10006" />
  <sodipodi:namedview id="base" pagecolor="#ffffff" bordercolor="#666666" borderopacity="1.0" inkscape:pageopacity="0.0" inkscape:pageshadow="2" inkscape:zoom="5.6568542" inkscape:cx="57.452426" inkscape:cy="47.729708" inkscape:document-units="px" inkscape:current-layer="layer1" inkscape:document-rotation="0" showgrid="false" units="px" inkscape:window-width="1534" inkscape:window-height="843" inkscape:window-x="66" inkscape:window-y="20" inkscape:window-maximized="1" inkscape:showpageshadow="2" inkscape:pagecheckerboard="0" inkscape:deskcolor="#d1d1d1" />
  <metadata id="metadata10009">
    <rdf:RDF>
      <cc:Work rdf:about="">
        <dc:format>image/svg+xml</dc:format>
        <dc:type rdf:resource="http://purl.org/dc/dcmitype/StillImage" />
      </cc:Work>
    </rdf:RDF>
  </metadata>
  <g inkscape:label="Layer 1" inkscape:groupmode="layer" id="layer1" transform="translate(-70.005836,-46.768833)">
    <path style="color:#000000;font-style:normal;font-variant:normal;font-weight:normal;font-stretch:normal;font-size:medium;line-height:normal;font-family:sans-serif;font-variant-ligatures:normal;font-variant-position:normal;font-variant-caps:normal;font-variant-numeric:normal;font-variant-alternates:normal;font-variant-east-asian:normal;font-feature-settings:normal;font-variation-settings:normal;text-indent:0;text-align:start;text-decoration:none;text-decoration-line:none;text-decoration-style:solid;text-decoration-color:#000000;letter-spacing:normal;word-spacing:normal;text-transform:none;writing-mode:lr-tb;direction:ltr;text-orientation:mixed;dominant-baseline:auto;baseline-shift:baseline;text-anchor:start;white-space:normal;shape-padding:0;shape-margin:0;inline-size:0;clip-rule:nonzero;display:inline;overflow:visible;visibility:visible;opacity:0.2;isolation:auto;mix-blend-mode:normal;color-interpolation:sRGB;color-interpolation-filters:linearRGB;solid-color:#000000;solid-opacity:1;vector-effect:none;fill:#000000;fill-opacity:1;fill-rule:nonzero;stroke:none;stroke-width:0.0784929px;stroke-linecap:butt;stroke-linejoin:miter;stroke-miterlimit:4;stroke-dasharray:none;stroke-dashoffset:0;stroke-opacity:1;paint-order:stroke markers fill;color-rendering:auto;image-rendering:auto;shape-rendering:auto;text-rendering:auto;enable-background:accumulate;stop-color:#000000" d="m 93.818337,50.635938 -0.747716,0.0014 v 3.370632 1.919012 14.119813 h -0.48056 -18.465535 v 0.634822 h 19.693811 z" id="path9068" />
    <path style="color:#000000;font-style:normal;font-variant:normal;font-weight:normal;font-stretch:normal;font-size:medium;line-height:normal;font-family:sans-serif;font-variant-ligatures:normal;font-variant-position:normal;font-variant-caps:normal;font-variant-numeric:normal;font-variant-alternates:normal;font-variant-east-asian:normal;font-feature-settings:normal;font-variation-settings:normal;text-indent:0;text-align:start;text-decoration:none;text-decoration-line:none;text-decoration-style:solid;text-decoration-color:#000000;letter-spacing:normal;word-spacing:normal;text-transform:none;writing-mode:lr-tb;direction:ltr;text-orientation:mixed;dominant-baseline:auto;baseline-shift:baseline;text-anchor:start;white-space:normal;shape-padding:0;shape-margin:0;inline-size:0;clip-rule:nonzero;display:inline;overflow:visible;visibility:visible;opacity:0.7;isolation:auto;mix-blend-mode:normal;color-interpolation:sRGB;color-interpolation-filters:linearRGB;solid-color:#000000;solid-opacity:1;vector-effect:none;fill:#ffffff;fill-opacity:1;fill-rule:nonzero;stroke:none;stroke-width:0.351486;stroke-linecap:butt;stroke-linejoin:miter;stroke-miterlimit:4;stroke-dasharray:none;stroke-dashoffset:0;stroke-opacity:1;paint-order:stroke markers fill;color-rendering:auto;image-rendering:auto;shape-rendering:auto;text-rendering:auto;enable-background:accumulate;stop-color:#000000" d="m 73.093393,49.756372 v 0.0073 4.329057 1.919068 13.592465 h 0.03895 19.457292 0.0387 v -13.677398 -1.919015 -4.244177 -0.0073 z" id="path9037" />
    <path id="path9035" style="color:#000000;font-style:normal;font-variant:normal;font-weight:normal;font-stretch:normal;font-size:medium;line-height:normal;font-family:sans-serif;font-variant-ligatures:normal;font-variant-position:normal;font-variant-caps:normal;font-variant-numeric:normal;font-variant-alternates:normal;font-variant-east-asian:normal;font-feature-settings:normal;font-variation-settings:normal;text-indent:0;text-align:start;text-decoration:none;text-decoration-line:none;text-decoration-style:solid;text-decoration-color:#000000;letter-spacing:normal;word-spacing:normal;text-transform:none;writing-mode:lr-tb;direction:ltr;text-orientation:mixed;dominant-baseline:auto;baseline-shift:baseline;text-anchor:start;white-space:normal;shape-padding:0;shape-margin:0;inline-size:0;clip-rule:nonzero;display:inline;overflow:visible;visibility:visible;opacity:0.4;isolation:auto;mix-blend-mode:normal;color-interpolation:sRGB;color-interpolation-filters:linearRGB;solid-color:#000000;solid-opacity:1;vector-effect:none;fill:#000000;fill-opacity:1;fill-rule:nonzero;stroke:none;stroke-width:0.351486;stroke-linecap:butt;stroke-linejoin:miter;stroke-miterlimit:4;stroke-dasharray:none;stroke-dashoffset:0;stroke-opacity:1;paint-order:stroke markers fill;color-rendering:auto;image-rendering:auto;shape-rendering:auto;text-rendering:auto;enable-background:accumulate;stop-color:#000000" d="m 72.651671,49.31439 v 0.441826 0.0073 4.32963 1.918755 14.034603 h 0.480292 19.458098 0.480562 V 55.926637 54.007674 49.763497 49.31465 Z m 0.441586,0.441826 h 19.534969 v 0.0073 4.244437 1.919015 13.677398 H 92.589526 73.13223 73.09327 V 56.011882 54.092606 49.763497 Z" />
    <g inkscape:label="Crown" style="fill:#ffffff;stroke:#000000;stroke-width:2" class="prefab" id="g2" transform="matrix(0.02626812,0,0,0.02626812,70.910612,47.700236)">&#10;  <path d="m 415.21433,101.36145 -172.92072,71.62912 42.8532,103.4833 -103.47551,-42.85535 -71.62814,172.92932 103.47544,42.87137 -103.47548,42.85533 71.62823,172.94536 103.47542,-42.87132 -42.85316,103.49935 172.92075,71.62903 42.86922,-103.49669 42.8532,103.49669 L 673.87347,725.8478 631.00422,622.34845 734.49845,665.21982 806.12664,492.27453 702.63252,449.4192 806.12675,406.54776 734.49855,233.61852 631.00432,276.4738 673.87358,172.99055 500.93675,101.36145 458.08364,204.84207 Z m -43.92187,106.0226 11.8121,28.5167 c 12.55828,30.3292 42.159,50.09029 74.97899,50.09023 32.82008,-3e-5 62.40464,-19.76102 74.96295,-50.09029 l 11.81214,-28.51655 22.9975,9.51449 -11.83083,28.53258 c -12.55838,30.31319 -5.61466,65.22396 17.59233,88.43211 23.20706,23.20829 58.1159,30.15223 88.44372,17.59325 l 28.51525,-11.81538 9.51401,22.98255 -28.5152,11.81272 c -30.32775,12.55891 -50.08772,42.16105 -50.08783,74.98274 -10e-6,32.82165 19.76,62.40766 50.08779,74.96669 l 28.51526,11.81266 -9.5141,22.9988 -28.51518,-11.83168 c -30.32772,-12.55879 -65.23678,-5.61494 -88.44378,17.59321 -23.207,23.20831 -30.15059,58.11633 -17.59233,88.44558 l 11.83094,28.51669 -22.99761,9.51714 -11.81216,-28.51662 c -12.55833,-30.3294 -42.14288,-50.09048 -74.96276,-50.09033 -32.82013,6e-5 -62.42067,19.76109 -74.97913,50.09029 l -11.81211,28.51658 -22.98141,-9.51711 11.81476,-28.51663 c 12.55849,-30.32924 5.61475,-65.23734 -17.59225,-88.44549 -23.20706,-23.20829 -58.11353,-30.15218 -88.4251,-17.59318 l -28.53121,11.83144 -9.51672,-22.99866 28.51517,-11.81267 c 30.32783,-12.55899 50.08776,-42.14514 50.08783,-74.96666 -5e-5,-32.82162 -19.75997,-62.42379 -50.08783,-74.98274 l -28.51525,-11.81272 9.51679,-22.98263 28.53117,11.81548 c 30.31171,12.55895 65.21803,5.6149 88.42511,-17.59333 23.207,-23.20815 30.15065,-58.11888 17.5923,-88.43206 L 348.311,216.89854 Z m 36.83195,121.44616 c -6.57044,15.45598 -16.11641,29.81036 -28.46435,42.15891 -12.34806,12.34867 -26.70423,21.89762 -42.15948,28.46841 6.27923,15.58543 9.67737,32.49885 9.67736,49.9617 2e-5,17.44656 -3.39813,34.3602 -9.67739,49.94567 15.45516,6.57081 29.81152,16.11978 42.15949,28.46836 12.34787,12.34879 21.89378,26.70295 28.46427,42.15887 15.58467,-6.27952 32.49732,-9.6779 49.95931,-9.67792 17.44576,6e-5 34.35843,3.39838 49.94301,9.67783 6.57062,-15.45588 16.11905,-29.8101 28.46711,-42.15877 12.34797,-12.34859 26.7015,-21.89764 42.17275,-28.46845 -6.29527,-15.58546 -9.69329,-32.49899 -9.69337,-49.9456 2e-5,-17.46285 3.39811,-34.37632 9.69344,-49.96174 -15.47139,-6.57072 -29.82483,-16.11976 -42.17285,-28.46839 -12.34777,-12.34869 -21.89657,-26.7029 -28.46699,-42.1589 -15.58468,6.27944 -32.49744,9.67793 -49.94319,9.67795 -17.46188,-9e-5 -34.37439,-3.39848 -49.95912,-9.67793 z m -300.03946,120.589 699.99997,4e-5 -2e-5,349.99995 -699.99995,-2e-5 z m 4e-5,-349.999927 349.99999,2.5e-5 -6e-5,699.999952 -349.99998,-2e-5 z m -3e-5,-2.7e-5 699.99997,3.9e-5 10e-6,699.999945 -700.00002,-10e-6 z m -4e-5,699.999974 4e-5,-699.999974 699.99997,3.9e-5 10e-6,699.999945 z m 350.00002,-350 350.00006,-349.999947 -6e-5,699.999957 z m -349.99997,349.99997 1e-5,-699.999925 349.99996,349.999955 z" id="path1" style="vector-effect:non-scaling-stroke;fill:none;fill-opacity:1;stroke:#00349c;stroke-opacity:1;-inkscape-stroke:hairline" />
&#10;</g>
    <path d="m 80.663776,53.147842 -0.603703,0.249906 0.310342,0.749514 c 0.329883,0.79627 0.147506,1.713299 -0.462104,2.322933 0,0 -5.2e-5,5.2e-5 -5.2e-5,5.2e-5 -0.609606,0.609595 -1.526518,0.791993 -2.322726,0.462103 l -0.749412,-0.310394 -0.250008,0.603705 0.749051,0.310292 c 0.796656,0.329899 1.315712,1.107535 1.315714,1.969697 h 1.379435 c 0,-0.11467 -0.0056,-0.228464 -0.01651,-0.341023 -0.01086,-0.112563 -0.02728,-0.22389 -0.04873,-0.333687 -0.0215,-0.109804 -0.04806,-0.218059 -0.07962,-0.324452 -0.03155,-0.106395 -0.06808,-0.210922 -0.109327,-0.313269 0.101183,-0.04302 0.200542,-0.09093 0.297774,-0.143598 2.89e-4,-1.58e-4 5.87e-4,-2.58e-4 8.73e-4,-4.06e-4 0,0 5.5e-5,-5.2e-5 5.5e-5,-5.2e-5 2.08e-4,-1.11e-4 4.06e-4,-2.39e-4 6.14e-4,-3.58e-4 0.09727,-0.05275 0.192398,-0.110283 0.284948,-0.172548 2.6e-5,-1.9e-5 7.8e-5,-2.6e-5 1.08e-4,-5.2e-5 0.09276,-0.0624 0.182951,-0.129524 0.270223,-0.201323 2.6e-5,-2.2e-5 8.1e-5,-2.6e-5 1.11e-4,-5.2e-5 0.08724,-0.07178 0.171548,-0.148224 0.252573,-0.229231 2.6e-5,-2.6e-5 7.8e-5,-7.8e-5 1.09e-4,-1.09e-4 l 1.1e-4,-1.08e-4 c 0.08109,-0.08109 0.157562,-0.165468 0.229383,-0.252779 0.07182,-0.08731 0.138972,-0.177543 0.201367,-0.270328 0.06239,-0.09278 0.120099,-0.188097 0.172938,-0.285614 0.05284,-0.09751 0.100857,-0.197197 0.14401,-0.298697 0.102334,0.04124 0.206883,0.07777 0.31327,0.109327 0.106395,0.03156 0.214615,0.05816 0.3244,0.07962 0.109783,0.0215 0.221139,0.03779 0.333686,0.04874 0.112542,0.01086 0.226301,0.01651 0.340973,0.01651 h 5.2e-5 v -1.379537 h -5.2e-5 c -0.862137,2e-6 -1.63968,-0.519073 -1.969561,-1.315764 z" style="fill:#ffcc00;stroke:#000000;stroke-width:0.0525363;fill-opacity:0.30109066" id="path5" />
    <path d="m 78.650881,59.50565 c -3e-6,0.862159 -0.519061,1.639334 -1.315715,1.969235 l -0.749051,0.310292 0.250008,0.604116 0.749462,-0.310805 c 0.796228,-0.329903 1.71312,-0.147485 2.322726,0.462154 5.2e-5,5.2e-5 1.09e-4,1.58e-4 1.59e-4,2.08e-4 0.60946,0.609634 0.791804,1.526472 0.461949,2.323087 l -0.310342,0.749101 0.603705,0.249958 0.310292,-0.749051 c 0.329886,-0.796691 1.10742,-1.315764 1.969542,-1.315766 v -1.379534 c -0.11467,0 -0.228423,0.0056 -0.34097,0.01651 -0.112542,0.01086 -0.223902,0.02728 -0.333689,0.04874 -0.109783,0.0215 -0.218016,0.04806 -0.3244,0.07962 -0.106395,0.03156 -0.210923,0.06808 -0.313267,0.109327 -0.04315,-0.101509 -0.09117,-0.201193 -0.144011,-0.298697 -0.05284,-0.09751 -0.110543,-0.192832 -0.17296,-0.285614 -0.0624,-0.09278 -0.129546,-0.183016 -0.201366,-0.270325 -0.07178,-0.08726 -0.148202,-0.17157 -0.229231,-0.252627 l -1.59e-4,-1.59e-4 c -0.08109,-0.08109 -0.165467,-0.157606 -0.252779,-0.229433 -0.08731,-0.07182 -0.177542,-0.13895 -0.270327,-0.201366 -0.09278,-0.06242 -0.188141,-0.1201 -0.285664,-0.172939 -0.09751,-0.05286 -0.197197,-0.100922 -0.298697,-0.144053 0.04124,-0.102356 0.07777,-0.206884 0.109327,-0.31327 0.03156,-0.106374 0.05816,-0.214636 0.07962,-0.3244 0.0215,-0.109761 0.03779,-0.221039 0.04874,-0.333532 0.01086,-0.112498 0.0165,-0.226197 0.0165,-0.340769 z" style="fill:#ffcc00;stroke:#000000;stroke-width:0.0525363;fill-opacity:0.30109066" id="path4" />
    <path d="m 85.885321,59.501416 c 0,0.114561 0.0056,0.228272 0.01651,0.340766 0.01064,0.108697 0.02671,0.216091 0.04715,0.322245 2.4e-5,1.31e-4 2.8e-5,2.39e-4 5.2e-5,3.59e-4 v 5.2e-5 c 0.0012,0.0063 0.0024,0.01281 0.0037,0.01911 9e-6,2.6e-5 -7e-6,7.8e-5 0,1.08e-4 0.01759,0.08883 0.04031,0.176088 0.06459,0.262733 5.2e-5,2.38e-4 9.9e-5,4.47e-4 1.99e-4,6.66e-4 0.0078,0.02795 0.0152,0.05603 0.0238,0.08372 0,0 0,5.2e-5 0,5.2e-5 1.3e-5,5.2e-5 2.6e-5,1.11e-4 5.2e-5,1.59e-4 0.02936,0.09543 0.0614,0.189856 0.0986,0.281972 -0.101596,0.04315 -0.201345,0.09121 -0.298902,0.144054 -0.09736,0.05275 -0.192527,0.110261 -0.285153,0.172547 -1.98e-4,1.28e-4 -3.98e-4,2.39e-4 -5.95e-4,3.56e-4 0,0 -5.3e-5,5.5e-5 -5.3e-5,5.5e-5 -9.9e-5,7.8e-5 -1.99e-4,1.88e-4 -3.97e-4,2.58e-4 -0.09265,0.06233 -0.182733,0.129394 -0.269914,0.201106 0,0 -5.3e-5,0 -5.3e-5,0 -0.08728,0.0718 -0.171613,0.148267 -0.252677,0.229333 0,0 -5.2e-5,5.2e-5 -5.2e-5,5.2e-5 l -5.4e-5,5.2e-5 c -0.07821,0.07821 -0.151633,0.159756 -0.221226,0.243751 -10e-5,1.59e-4 -2.97e-4,2.98e-4 -3.97e-4,4.65e-4 -0.0046,0.0054 -0.0089,0.01086 -0.01347,0.01607 -9.8e-5,1.28e-4 -1.98e-4,2.78e-4 -2.98e-4,4.06e-4 -0.0673,0.08229 -0.130501,0.16714 -0.189465,0.254267 -7.8e-5,1.3e-4 -1.98e-4,2.39e-4 -2.98e-4,3.58e-4 -0.0041,0.0061 -0.008,0.01238 -0.01216,0.01846 -1.99e-4,2.67e-4 -2.97e-4,5.56e-4 -4.97e-4,8.23e-4 -0.05953,0.08922 -0.115191,0.180496 -0.165923,0.274071 -0.05286,0.09751 -0.100923,0.197197 -0.144076,0.298697 -0.102334,-0.04124 -0.206883,-0.07777 -0.313267,-0.109327 -0.106374,-0.03156 -0.214593,-0.05816 -0.32435,-0.07962 -0.109762,-0.0215 -0.221041,-0.03779 -0.333532,-0.04874 -0.112498,-0.01086 -0.226201,-0.01651 -0.340767,-0.01651 v 1.37954 c 0.862116,-4e-6 1.639248,0.519071 1.969134,1.315767 l 0.310292,0.749051 0.604063,-0.249958 -0.310754,-0.749103 c -0.329882,-0.796691 -0.147507,-1.713653 0.462103,-2.323292 2.6e-5,-2.6e-5 7.8e-5,-2.3e-5 10e-5,-5.2e-5 0.609604,-0.609571 1.52652,-0.791985 2.323137,-0.462103 l 0.749051,0.310805 0.249906,-0.604114 -0.748999,-0.310292 c -0.796663,-0.329884 -1.315725,-1.107055 -1.315723,-1.969219 z" style="fill:#ffcc00;stroke:#000000;stroke-width:0.0525363;fill-opacity:0.30109066" id="path3" />
    <path d="m 85.223038,53.147842 -0.31029,0.749051 c -0.32988,0.796678 -1.106984,1.315745 -1.969084,1.315767 v 1.379539 c 0.114561,-3e-6 0.228229,-0.0056 0.340716,-0.01651 0.112498,-0.01086 0.223776,-0.02728 0.333533,-0.04874 0.109761,-0.0215 0.218024,-0.04806 0.324402,-0.07962 0.106373,-0.03156 0.210879,-0.06811 0.313215,-0.109327 0.04315,0.101509 0.09121,0.201193 0.144075,0.298697 0.05286,0.09751 0.110479,0.192832 0.172895,0.285614 0.06242,0.09278 0.12959,0.183016 0.201432,0.270325 0.07182,0.08731 0.148289,0.171679 0.229385,0.252782 l 2.98e-4,3.06e-4 2.97e-4,3.08e-4 c 0.0809,0.08085 0.165077,0.157172 0.252165,0.228821 7.8e-5,5.2e-5 9.7e-5,1.08e-4 1.97e-4,1.58e-4 5.2e-5,5.2e-5 10e-5,1.09e-4 1.98e-4,1.59e-4 0.08718,0.07169 0.17726,0.138754 0.269914,0.201062 0,0 5.5e-5,0 5.5e-5,0 2.97e-4,2.09e-4 5.95e-4,3.67e-4 8.92e-4,5.65e-4 0.09252,0.0622 0.187533,0.119686 0.284794,0.172374 2.6e-5,1.9e-5 7.8e-5,2.6e-5 9.7e-5,5.2e-5 0.09753,0.05284 0.197284,0.100879 0.298854,0.14401 -0.04135,0.102356 -0.07792,0.206883 -0.109544,0.313267 -0.03162,0.106396 -0.05829,0.214659 -0.07979,0.324453 -0.0215,0.109804 -0.03783,0.221127 -0.0488,0.333686 -0.01086,0.112563 -0.01651,0.226344 -0.01651,0.341025 h 1.379485 c 4e-6,-0.862166 0.519062,-1.6398 1.315716,-1.969699 l 0.748999,-0.310292 -0.249906,-0.603705 -0.749051,0.310394 c -0.796508,0.329841 -1.713275,0.147529 -2.322881,-0.461847 -1e-4,-1.08e-4 -1.99e-4,-1.89e-4 -3.97e-4,-3.06e-4 -0.609604,-0.609634 -0.791989,-1.526663 -0.462103,-2.322933 l 0.310754,-0.749514 z" style="fill:#ffcc00;stroke:#000000;stroke-width:0.0525363;fill-opacity:0.30109066" id="path2" />
  </g>
</svg>
