<?xml version="1.0" encoding="UTF-8" standalone="no"?>
<svg width="100" height="100" viewBox="0 0 26.458334 26.458334" version="1.1" id="svg10012" inkscape:version="1.3-alpha (9cd57a7883, 2023-05-01)" sodipodi:docname="dtarget.svg" xmlns:inkscape="http://www.inkscape.org/namespaces/inkscape" xmlns:sodipodi="http://sodipodi.sourceforge.net/DTD/sodipodi-0.dtd" xmlns="http://www.w3.org/2000/svg" xmlns:svg="http://www.w3.org/2000/svg" xmlns:rdf="http://www.w3.org/1999/02/22-rdf-syntax-ns#" xmlns:cc="http://creativecommons.org/ns#" xmlns:dc="http://purl.org/dc/elements/1.1/">
  <defs id="defs10006" />
  <sodipodi:namedview id="base" pagecolor="#ffffff" bordercolor="#666666" borderopacity="1.0" inkscape:pageopacity="0.0" inkscape:pageshadow="2" inkscape:zoom="5.6568542" inkscape:cx="57.452426" inkscape:cy="47.729708" inkscape:document-units="px" inkscape:current-layer="layer1" inkscape:document-rotation="0" showgrid="false" units="px" inkscape:window-width="1534" inkscape:window-height="843" inkscape:window-x="66" inkscape:window-y="20" inkscape:window-maximized="1" inkscape:showpageshadow="2" inkscape:pagecheckerboard="0" inkscape:deskcolor="#d1d1d1" />
  <metadata id="metadata10009">
    <rdf:RDF>
      <cc:Work rdf:about="">
        <dc:format>image/svg+xml</dc:format>
        <dc:type rdf:resource="http://purl.org/dc/dcmitype/StillImage" />
      </cc:Work>
    </rdf:RDF>
  </metadata>
  <g inkscape:label="Layer 1" inkscape:groupmode="layer" id="layer1" transform="translate(-70.005836,-46.768833)">
    <path style="color:#000000;font-style:normal;font-variant:normal;font-weight:normal;font-stretch:normal;font-size:medium;line-height:normal;font-family:sans-serif;font-variant-ligatures:normal;font-variant-position:normal;font-variant-caps:normal;font-variant-numeric:normal;font-variant-alternates:normal;font-variant-east-asian:normal;font-feature-settings:normal;font-variation-settings:normal;text-indent:0;text-align:start;text-decoration:none;text-decoration-line:none;text-decoration-style:solid;text-decoration-color:#000000;letter-spacing:normal;word-spacing:normal;text-transform:none;writing-mode:lr-tb;direction:ltr;text-orientation:mixed;dominant-baseline:auto;baseline-shift:baseline;text-anchor:start;white-space:normal;shape-padding:0;shape-margin:0;inline-size:0;clip-rule:nonzero;display:inline;overflow:visible;visibility:visible;opacity:0.2;isolation:auto;mix-blend-mode:normal;color-interpolation:sRGB;color-interpolation-filters:linearRGB;solid-color:#000000;solid-opacity:1;vector-effect:none;fill:#000000;fill-opacity:1;fill-rule:nonzero;stroke:none;stroke-width:0.0784929px;stroke-linecap:butt;stroke-linejoin:miter;stroke-miterlimit:4;stroke-dasharray:none;stroke-dashoffset:0;stroke-opacity:1;paint-order:stroke markers fill;color-rendering:auto;image-rendering:auto;shape-rendering:auto;text-rendering:auto;enable-background:accumulate;stop-color:#000000" d="m 93.818337,50.635938 -0.747716,0.0014 v 3.370632 1.919012 14.119813 h -0.48056 -18.465535 v 0.634822 h 19.693811 z" id="path9068" />
    <path style="color:#000000;font-style:normal;font-variant:normal;font-weight:normal;font-stretch:normal;font-size:medium;line-height:normal;font-family:sans-serif;font-variant-ligatures:normal;font-variant-position:normal;font-variant-caps:normal;font-variant-numeric:normal;font-variant-alternates:normal;font-variant-east-asian:normal;font-feature-settings:normal;font-variation-settings:normal;text-indent:0;text-align:start;text-decoration:none;text-decoration-line:none;text-decoration-style:solid;text-decoration-color:#000000;letter-spacing:normal;word-spacing:normal;text-transform:none;writing-mode:lr-tb;direction:ltr;text-orientation:mixed;dominant-baseline:auto;baseline-shift:baseline;text-anchor:start;white-space:normal;shape-padding:0;shape-margin:0;inline-size:0;clip-rule:nonzero;display:inline;overflow:visible;visibility:visible;opacity:0.7;isolation:auto;mix-blend-mode:normal;color-interpolation:sRGB;color-interpolation-filters:linearRGB;solid-color:#000000;solid-opacity:1;vector-effect:none;fill:#ffffff;fill-opacity:1;fill-rule:nonzero;stroke:none;stroke-width:0.351486;stroke-linecap:butt;stroke-linejoin:miter;stroke-miterlimit:4;stroke-dasharray:none;stroke-dashoffset:0;stroke-opacity:1;paint-order:stroke markers fill;color-rendering:auto;image-rendering:auto;shape-rendering:auto;text-rendering:auto;enable-background:accumulate;stop-color:#000000" d="m 73.093393,49.756372 v 0.0073 4.329057 1.919068 13.592465 h 0.03895 19.457292 0.0387 v -13.677398 -1.919015 -4.244177 -0.0073 z" id="path9037" />
    <path id="path9035" style="color:#000000;font-style:normal;font-variant:normal;font-weight:normal;font-stretch:normal;font-size:medium;line-height:normal;font-family:sans-serif;font-variant-ligatures:normal;font-variant-position:normal;font-variant-caps:normal;font-variant-numeric:normal;font-variant-alternates:normal;font-variant-east-asian:normal;font-feature-settings:normal;font-variation-settings:normal;text-indent:0;text-align:start;text-decoration:none;text-decoration-line:none;text-decoration-style:solid;text-decoration-color:#000000;letter-spacing:normal;word-spacing:normal;text-transform:none;writing-mode:lr-tb;direction:ltr;text-orientation:mixed;dominant-baseline:auto;baseline-shift:baseline;text-anchor:start;white-space:normal;shape-padding:0;shape-margin:0;inline-size:0;clip-rule:nonzero;display:inline;overflow:visible;visibility:visible;opacity:0.4;isolation:auto;mix-blend-mode:normal;color-interpolation:sRGB;color-interpolation-filters:linearRGB;solid-color:#000000;solid-opacity:1;vector-effect:none;fill:#000000;fill-opacity:1;fill-rule:nonzero;stroke:none;stroke-width:0.351486;stroke-linecap:butt;stroke-linejoin:miter;stroke-miterlimit:4;stroke-dasharray:none;stroke-dashoffset:0;stroke-opacity:1;paint-order:stroke markers fill;color-rendering:auto;image-rendering:auto;shape-rendering:auto;text-rendering:auto;enable-background:accumulate;stop-color:#000000" d="m 72.651671,49.31439 v 0.441826 0.0073 4.32963 1.918755 14.034603 h 0.480292 19.458098 0.480562 V 55.926637 54.007674 49.763497 49.31465 Z m 0.441586,0.441826 h 19.534969 v 0.0073 4.244437 1.919015 13.677398 H 92.589526 73.13223 73.09327 V 56.011882 54.092606 49.763497 Z" />
    <g inkscape:label="Diamond Target" style="fill:#ffffff;stroke:#000000;stroke-width:2" class="prefab" id="g2" transform="matrix(0.02138986,0,0,0.02138986,73.185,49.89076)">&#10;  <path d="M 454.88752,17.71104 883.45894,446.28246 454.88752,874.85388 26.3161,446.28246 Z m 0,0 L 26.3161,446.28246 97.74467,517.71103 526.31609,89.13961 Z M 597.74466,160.56818 169.17324,589.1396 240.60181,660.56817 669.17323,231.99675 Z M 740.6018,303.42532 312.03038,731.99674 383.45895,803.42531 812.03037,374.85389 Z M 26.3161,446.28246 454.88752,17.71104 883.45894,446.28246 454.88752,874.85388 Z m 0,0 428.57142,428.57142 71.42857,-71.42857 L 97.74467,374.85389 Z M 169.17324,303.42532 597.74466,731.99674 669.17323,660.56817 240.60181,231.99675 Z M 312.03038,160.56818 740.6018,589.1396 812.03037,517.71103 383.45895,89.13961 Z M 452.92223,446.28246 H 883.45894 L 454.88752,874.85388 Z m -426.60613,0 428.57142,-428.57142 v 428.57142 z" id="path1" style="vector-effect:non-scaling-stroke;fill:none;fill-opacity:1;stroke:#00349c;stroke-opacity:1;-inkscape-stroke:hairline" />
&#10;  <path d="M 454.88751,143.23754 A 303.04575,303.04575 0 0 0 151.8426,446.28245 303.04575,303.04575 0 0 0 454.88751,749.32737 303.04575,303.04575 0 0 0 757.93243,446.28245 303.04575,303.04575 0 0 0 454.88751,143.23754 Z m 0,101.01366 A 202.0305,202.0305 0 0 1 656.91876,446.28245 202.0305,202.0305 0 0 1 454.88751,648.3137 202.0305,202.0305 0 0 1 252.85627,446.28245 202.0305,202.0305 0 0 1 454.88751,244.2512 Z m 0,101.01564 A 101.01525,101.01525 0 0 0 353.8719,446.28245 101.01525,101.01525 0 0 0 454.88751,547.29806 101.01525,101.01525 0 0 0 555.90314,446.28245 101.01525,101.01525 0 0 0 454.88751,345.26684 Z" id="path2" style="vector-effect:non-scaling-stroke;fill:none;fill-opacity:1;stroke:#00349c;stroke-opacity:1;-inkscape-stroke:hairline" />
&#10;</g>
    <path d="m 78.332853,54.854543 c -0.517223,0.517337 -0.947894,1.120933 -1.267225,1.788477 -0.355825,0.743835 -0.574715,1.565704 -0.622268,2.433429 -0.0065,0.119295 -0.01039,0.23931 -0.01039,0.360244 0,0.120941 0.0039,0.240905 0.01039,0.360202 0.04755,0.867729 0.26648,1.689589 0.62231,2.433431 0.319339,0.667554 0.749989,1.271128 1.267224,1.788474 0.517199,0.51731 1.121407,0.947448 1.788559,1.267141 0.743556,0.356305 1.565531,0.574706 2.433306,0.622353 0.115245,0.0063 0.231155,0.01 0.347918,0.01018 0.0041,9e-6 0.0082,2.43e-4 0.01234,2.43e-4 0.12094,0 0.24093,-0.0039 0.360244,-0.01039 0.867721,-0.04755 1.689553,-0.266483 2.433388,-0.62231 0.667548,-0.319335 1.271135,-0.749998 1.788477,-1.267225 l -1.52641,-1.526407 -8.81e-4,8.77e-4 c -0.528273,0.527978 -1.19287,0.919169 -1.936116,1.117869 -0.356914,0.09541 -0.731708,0.147012 -1.118705,0.147012 -0.0074,0 -0.01472,-4.85e-4 -0.02222,-5.65e-4 -0.379045,-0.0019 -0.746345,-0.0531 -1.096355,-0.146601 -0.743718,-0.198659 -1.408638,-0.590146 -1.937077,-1.118579 l -9.21e-4,-9.21e-4 c -0.527954,-0.528272 -0.919128,-1.192854 -1.117823,-1.93608 -0.09541,-0.356914 -0.147013,-0.731709 -0.147013,-1.118705 0,-0.387014 0.05158,-0.761824 0.147013,-1.118748 0.19881,-0.743632 0.590302,-1.408549 1.118705,-1.936952 v -4.3e-5 z" style="fill:#000000;stroke:#000000;stroke-width:0.0427798;fill-opacity:0.26385075" id="path5" />
    <path d="m 82.91496,55.115274 c -0.386968,-2e-6 -0.761737,0.05165 -1.118623,0.147056 -0.743659,0.19881 -1.408607,0.590244 -1.937033,1.118664 l 1.527828,1.527828 c 0.391009,-0.390998 0.931174,-0.63284 1.527828,-0.632838 0.596664,-2e-6 1.13686,0.241827 1.527871,0.632838 0.391012,0.391011 0.632841,0.931207 0.632838,1.527871 3e-6,0.596654 -0.241839,1.136819 -0.632838,1.527829 l 1.527828,1.52783 c 0.52842,-0.528429 0.919856,-1.193376 1.118664,-1.937036 0.09541,-0.356886 0.147056,-0.731654 0.147056,-1.118623 2e-6,-0.386983 -0.05165,-0.761769 -0.147056,-1.118663 -0.19881,-0.743645 -0.590252,-1.408575 -1.118664,-1.936995 v -4.3e-5 C 85.442248,55.85258 84.777313,55.461095 84.033667,55.262287 83.676753,55.166877 83.301959,55.115274 82.91496,55.115274 Z" style="fill:#000000;stroke:#000000;stroke-width:0.0427798;fill-opacity:0.26385075" id="path4" />
    <path d="m 81.387091,57.908822 c -2.84e-4,2.84e-4 -5.5e-4,5.91e-4 -8.36e-4,8.77e-4 -0.390509,0.390944 -0.632007,0.930765 -0.632005,1.526994 -2e-6,0.595792 0.241162,1.135241 0.631169,1.526116 l 0.0017,0.0017 4.3e-5,-4.2e-5 c 0.383959,0.383959 0.911833,0.62359 1.495702,0.632128 0.01083,1.54e-4 0.02122,7.93e-4 0.03209,7.93e-4 0.596226,2e-6 1.136048,-0.241496 1.526992,-0.632005 l 8.72e-4,-8.36e-4 v -4.1e-5 L 82.914993,59.43668 h -4.2e-5 l -0.04181,0.04186 -2.1e-4,-0.04186 h 0.04203 v -4.3e-5 l -1.527832,-1.527828 z" style="fill:#000000;stroke:#000000;stroke-width:0.0427798;fill-opacity:0.26385075" id="path3" />
  </g>
</svg>
