<?xml version="1.0" encoding="UTF-8" standalone="no"?>
<svg width="100" height="100" viewBox="0 0 26.458334 26.458334" version="1.1" id="svg10012" inkscape:version="1.3-alpha (9cd57a7883, 2023-05-01)" sodipodi:docname="dvision.svg" xmlns:inkscape="http://www.inkscape.org/namespaces/inkscape" xmlns:sodipodi="http://sodipodi.sourceforge.net/DTD/sodipodi-0.dtd" xmlns="http://www.w3.org/2000/svg" xmlns:svg="http://www.w3.org/2000/svg" xmlns:rdf="http://www.w3.org/1999/02/22-rdf-syntax-ns#" xmlns:cc="http://creativecommons.org/ns#" xmlns:dc="http://purl.org/dc/elements/1.1/">
  <defs id="defs10006" />
  <sodipodi:namedview id="base" pagecolor="#ffffff" bordercolor="#666666" borderopacity="1.0" inkscape:pageopacity="0.0" inkscape:pageshadow="2" inkscape:zoom="1" inkscape:cx="44" inkscape:cy="40" inkscape:document-units="px" inkscape:current-layer="layer1" inkscape:document-rotation="0" showgrid="false" units="px" inkscape:window-width="1534" inkscape:window-height="843" inkscape:window-x="66" inkscape:window-y="20" inkscape:window-maximized="1" inkscape:showpageshadow="2" inkscape:pagecheckerboard="0" inkscape:deskcolor="#d1d1d1" />
  <metadata id="metadata10009">
    <rdf:RDF>
      <cc:Work rdf:about="">
        <dc:format>image/svg+xml</dc:format>
        <dc:type rdf:resource="http://purl.org/dc/dcmitype/StillImage" />
      </cc:Work>
    </rdf:RDF>
  </metadata>
  <g inkscape:label="Layer 1" inkscape:groupmode="layer" id="layer1" transform="translate(-70.005836,-46.768833)">
    <path style="color:#000000;font-style:normal;font-variant:normal;font-weight:normal;font-stretch:normal;font-size:medium;line-height:normal;font-family:sans-serif;font-variant-ligatures:normal;font-variant-position:normal;font-variant-caps:normal;font-variant-numeric:normal;font-variant-alternates:normal;font-variant-east-asian:normal;font-feature-settings:normal;font-variation-settings:normal;text-indent:0;text-align:start;text-decoration:none;text-decoration-line:none;text-decoration-style:solid;text-decoration-color:#000000;letter-spacing:normal;word-spacing:normal;text-transform:none;writing-mode:lr-tb;direction:ltr;text-orientation:mixed;dominant-baseline:auto;baseline-shift:baseline;text-anchor:start;white-space:normal;shape-padding:0;shape-margin:0;inline-size:0;clip-rule:nonzero;display:inline;overflow:visible;visibility:visible;opacity:0.2;isolation:auto;mix-blend-mode:normal;color-interpolation:sRGB;color-interpolation-filters:linearRGB;solid-color:#000000;solid-opacity:1;vector-effect:none;fill:#000000;fill-opacity:1;fill-rule:nonzero;stroke:none;stroke-width:0.0784929px;stroke-linecap:butt;stroke-linejoin:miter;stroke-miterlimit:4;stroke-dasharray:none;stroke-dashoffset:0;stroke-opacity:1;paint-order:stroke markers fill;color-rendering:auto;image-rendering:auto;shape-rendering:auto;text-rendering:auto;enable-background:accumulate;stop-color:#000000" d="m 93.818337,50.635938 -0.747716,0.0014 v 3.370632 1.919012 14.119813 h -0.48056 -18.465535 v 0.634822 h 19.693811 z" id="path9068" />
    <path style="color:#000000;font-style:normal;font-variant:normal;font-weight:normal;font-stretch:normal;font-size:medium;line-height:normal;font-family:sans-serif;font-variant-ligatures:normal;font-variant-position:normal;font-variant-caps:normal;font-variant-numeric:normal;font-variant-alternates:normal;font-variant-east-asian:normal;font-feature-settings:normal;font-variation-settings:normal;text-indent:0;text-align:start;text-decoration:none;text-decoration-line:none;text-decoration-style:solid;text-decoration-color:#000000;letter-spacing:normal;word-spacing:normal;text-transform:none;writing-mode:lr-tb;direction:ltr;text-orientation:mixed;dominant-baseline:auto;baseline-shift:baseline;text-anchor:start;white-space:normal;shape-padding:0;shape-margin:0;inline-size:0;clip-rule:nonzero;display:inline;overflow:visible;visibility:visible;opacity:0.7;isolation:auto;mix-blend-mode:normal;color-interpolation:sRGB;color-interpolation-filters:linearRGB;solid-color:#000000;solid-opacity:1;vector-effect:none;fill:#ffffff;fill-opacity:1;fill-rule:nonzero;stroke:none;stroke-width:0.351486;stroke-linecap:butt;stroke-linejoin:miter;stroke-miterlimit:4;stroke-dasharray:none;stroke-dashoffset:0;stroke-opacity:1;paint-order:stroke markers fill;color-rendering:auto;image-rendering:auto;shape-rendering:auto;text-rendering:auto;enable-background:accumulate;stop-color:#000000" d="m 73.093393,49.756372 v 0.0073 4.329057 1.919068 13.592465 h 0.03895 19.457292 0.0387 v -13.677398 -1.919015 -4.244177 -0.0073 z" id="path9037" />
    <path id="path9035" style="color:#000000;font-style:normal;font-variant:normal;font-weight:normal;font-stretch:normal;font-size:medium;line-height:normal;font-family:sans-serif;font-variant-ligatures:normal;font-variant-position:normal;font-variant-caps:normal;font-variant-numeric:normal;font-variant-alternates:normal;font-variant-east-asian:normal;font-feature-settings:normal;font-variation-settings:normal;text-indent:0;text-align:start;text-decoration:none;text-decoration-line:none;text-decoration-style:solid;text-decoration-color:#000000;letter-spacing:normal;word-spacing:normal;text-transform:none;writing-mode:lr-tb;direction:ltr;text-orientation:mixed;dominant-baseline:auto;baseline-shift:baseline;text-anchor:start;white-space:normal;shape-padding:0;shape-margin:0;inline-size:0;clip-rule:nonzero;display:inline;overflow:visible;visibility:visible;opacity:0.4;isolation:auto;mix-blend-mode:normal;color-interpolation:sRGB;color-interpolation-filters:linearRGB;solid-color:#000000;solid-opacity:1;vector-effect:none;fill:#000000;fill-opacity:1;fill-rule:nonzero;stroke:none;stroke-width:0.351486;stroke-linecap:butt;stroke-linejoin:miter;stroke-miterlimit:4;stroke-dasharray:none;stroke-dashoffset:0;stroke-opacity:1;paint-order:stroke markers fill;color-rendering:auto;image-rendering:auto;shape-rendering:auto;text-rendering:auto;enable-background:accumulate;stop-color:#000000" d="m 72.651671,49.31439 v 0.441826 0.0073 4.32963 1.918755 14.034603 h 0.480292 19.458098 0.480562 V 55.926637 54.007674 49.763497 49.31465 Z m 0.441586,0.441826 h 19.534969 v 0.0073 4.244437 1.919015 13.677398 H 92.589526 73.13223 73.09327 V 56.011882 54.092606 49.763497 Z" />
    <g inkscape:label="Double Vision" style="fill:#ffffff;stroke:#000000;stroke-width:2" class="prefab" id="g3" transform="matrix(0.02254034,0,0,0.02254034,72.51902,49.785223)">
      <path d="M 854.44504,46.327501 H 54.445038 V 135.21639 H 854.44504 Z m 0,177.777779 H 54.445038 v 88.88889 H 854.44504 Z m 0,177.77778 H 54.445038 v 88.8889 H 854.44504 Z m 0,177.77778 H 54.445038 v 88.88892 H 854.44504 Z m 0,177.77775 H 54.445038 v 88.8889 H 854.44504 Z M 54.445038,46.3275 V 846.32749 H 143.33393 V 46.3275 Z m 177.777792,0 v 799.99999 h 88.88888 V 46.3275 Z m 177.77777,0 v 799.99999 h 88.88889 V 46.3275 Z m 177.77778,0 v 799.99999 h 88.88889 V 46.3275 Z m 177.77777,0 v 799.99999 h 88.88889 V 46.3275 Z" id="path1" style="vector-effect:non-scaling-stroke;fill:none;fill-opacity:1;stroke:#00349c;stroke-opacity:1;-inkscape-stroke:hairline" />
      <path d="M 365.55637,135.21617 A 311.11111,311.11111 0 0 0 54.445036,446.32749 311.11111,311.11111 0 0 0 365.55637,757.43882 311.11111,311.11111 0 0 0 676.6677,446.32749 311.11111,311.11111 0 0 0 365.55637,135.21617 Z m 0,88.88867 A 222.22223,222.22223 0 0 1 587.77902,446.32749 222.22223,222.22223 0 0 1 365.55637,668.55015 222.22223,222.22223 0 0 1 143.33371,446.32749 222.22223,222.22223 0 0 1 365.55637,224.10484 Z m 0,88.88867 A 133.33334,133.33333 0 0 0 232.22238,446.32749 133.33334,133.33333 0 0 0 365.55637,579.66148 133.33334,133.33333 0 0 0 498.89035,446.32749 133.33334,133.33333 0 0 0 365.55637,312.99351 Z m 0,88.88867 a 44.444447,44.444447 0 0 1 44.44336,44.44531 44.444447,44.444447 0 0 1 -44.44336,44.44532 44.444447,44.444447 0 0 1 -44.44531,-44.44532 44.444447,44.444447 0 0 1 44.44531,-44.44531 z" id="path2" style="vector-effect:non-scaling-stroke;fill:none;fill-opacity:1;stroke:#00349c;stroke-opacity:1;-inkscape-stroke:hairline" />
      <path d="M 543.33371,135.21617 A 311.11111,311.11111 0 0 0 232.22238,446.32749 311.11111,311.11111 0 0 0 543.33371,757.43882 311.11111,311.11111 0 0 0 854.44504,446.32749 311.11111,311.11111 0 0 0 543.33371,135.21617 Z m 0,88.88867 A 222.22224,222.22223 0 0 1 765.55637,446.32749 222.22224,222.22223 0 0 1 543.33371,668.55015 222.22224,222.22223 0 0 1 321.11106,446.32749 222.22224,222.22223 0 0 1 543.33371,224.10484 Z m 0,88.88867 A 133.33336,133.33333 0 0 0 409.99973,446.32749 133.33336,133.33333 0 0 0 543.33371,579.66148 133.33336,133.33333 0 0 0 676.6677,446.32749 133.33336,133.33333 0 0 0 543.33371,312.99351 Z m 0,88.88867 a 44.444447,44.444447 0 0 1 44.44531,44.44531 44.444447,44.444447 0 0 1 -44.44531,44.44532 44.444447,44.444447 0 0 1 -44.44336,-44.44532 44.444447,44.444447 0 0 1 44.44336,-44.44531 z" id="path3" style="vector-effect:non-scaling-stroke;fill:none;fill-opacity:1;stroke:#00349c;stroke-opacity:1;-inkscape-stroke:hairline" />
    </g>
    <path d="m 84.765951,58.843797 c -0.553273,1.5e-5 -1.001779,0.44854 -1.001768,1.001813 -1.1e-5,0.552698 0.447572,1.000823 1.000052,1.001769 h 0.0034 c 0.552496,-9.22e-4 1.000107,-0.449054 1.000094,-1.001769 1.1e-5,-0.55329 -0.44852,-1.001824 -1.001811,-1.001813 z" style="fill:#4861d4;fill-opacity:0.329097;stroke:#000000;stroke-width:0.0450807" id="path11" />
    <path d="m 80.75879,58.843797 c -0.553291,-1.1e-5 -1.001824,0.448523 -1.001813,1.001813 0,0.0173 4.61e-4,0.03444 0.0013,0.0515 0.02678,0.528786 0.463545,0.949368 0.998775,0.95026 h 0.0034 c 0.55248,-9.45e-4 1.000063,-0.449071 1.000052,-1.001768 1.1e-5,-0.553274 -0.448495,-1.001798 -1.001768,-1.001813 z" style="fill:#4861d4;fill-opacity:0.329097;stroke:#000000;stroke-width:0.0450807" id="path10" />
    <path d="m 79.756977,52.905387 c -0.707515,0.101547 -1.380947,0.3081 -2.00358,0.604716 -0.705239,0.335965 -1.345707,0.786179 -1.897616,1.326533 -0.03521,0.03448 -0.07148,0.0679 -0.105966,0.103105 -0.541234,0.552539 -0.992045,1.193694 -1.327855,1.900476 -0.295833,0.622646 -0.500299,1.296486 -0.601764,2.00358 -0.04699,0.327446 -0.07396,0.661349 -0.07396,1.001813 0,0.340268 0.02554,0.674453 0.07238,1.001769 0.101269,0.70769 0.309498,1.380534 0.605507,2.00358 0.335545,0.706261 0.785075,1.347517 1.325698,1.899772 0.0347,0.03544 0.07118,0.06909 0.106628,0.103809 0.5517,0.540327 1.19191,0.99053 1.896954,1.326491 0.622584,0.296666 1.296044,0.503233 2.00358,0.604802 V 64.85454 64.753143 C 79.016811,64.60281 78.335787,64.290066 77.753403,63.852499 77.374409,63.567746 77.037912,63.229874 76.753089,62.85095 76.315201,62.2684 76.000574,61.587935 75.85024,60.84737 c -0.06572,-0.323705 -0.100414,-0.658669 -0.100414,-1.001768 0,-0.343161 0.03497,-0.678076 0.100735,-1.001813 0.150334,-0.740159 0.463511,-1.421171 0.901087,-2.00358 0.28497,-0.379296 0.622445,-0.716914 1.001768,-1.001856 0.582469,-0.437548 1.263338,-0.751076 2.00358,-0.90135 v -0.100372 z" style="fill:#cc0000;fill-opacity:0.429642;stroke:#000000;stroke-width:0.0450807" id="path9" />
    <path d="m 85.767762,52.905387 v 1.931249 0.100414 c 0.740244,0.15027 1.421113,0.463802 2.003582,0.90135 0.379321,0.284944 0.716796,0.622524 1.001769,1.001813 0.437573,0.582399 0.750742,1.263419 0.901084,2.00358 0.06576,0.32374 0.100735,0.658652 0.100735,1.001813 3e-6,0.343099 -0.03469,0.678063 -0.100414,1.001769 -0.150334,0.740564 -0.464959,1.421029 -0.902846,2.003579 -0.284823,0.378924 -0.62132,0.716796 -1.000315,1.001549 -0.582384,0.437567 -1.26341,0.75032 -2.003582,0.900645 v 0.101397 1.931293 c 0.707536,-0.101568 1.380998,-0.308137 2.003582,-0.604803 0.705044,-0.335961 1.345254,-0.786164 1.896954,-1.32649 0.03544,-0.03472 0.07193,-0.06837 0.106628,-0.10381 0.540623,-0.552255 0.990155,-1.193511 1.325698,-1.899772 0.296009,-0.623045 0.504239,-1.29589 0.605507,-2.00358 0.04685,-0.327316 0.07238,-0.661498 0.07238,-1.001768 0,-0.340462 -0.02697,-0.674376 -0.07396,-1.001814 -0.101482,-0.7071 -0.305965,-1.380921 -0.601809,-2.003579 -0.335799,-0.706751 -0.786604,-1.34787 -1.327812,-1.90039 -0.03453,-0.03525 -0.07084,-0.06869 -0.106094,-0.10319 -0.551884,-0.540313 -1.192302,-0.990525 -1.897483,-1.32649 -0.622627,-0.296633 -1.296067,-0.50319 -2.003582,-0.604758 z" style="fill:#cc0000;fill-opacity:0.429642;stroke:#000000;stroke-width:0.0450807" id="path7" />
  </g>
</svg>
