<?xml version="1.0" encoding="UTF-8" standalone="no"?>
<svg width="100" height="100" viewBox="0 0 26.458334 26.458334" version="1.1" id="svg10012" inkscape:version="1.3-alpha (9cd57a7883, 2023-05-01)" sodipodi:docname="explosion.svg" xmlns:inkscape="http://www.inkscape.org/namespaces/inkscape" xmlns:sodipodi="http://sodipodi.sourceforge.net/DTD/sodipodi-0.dtd" xmlns="http://www.w3.org/2000/svg" xmlns:svg="http://www.w3.org/2000/svg" xmlns:rdf="http://www.w3.org/1999/02/22-rdf-syntax-ns#" xmlns:cc="http://creativecommons.org/ns#" xmlns:dc="http://purl.org/dc/elements/1.1/">
  <defs id="defs10006" />
  <sodipodi:namedview id="base" pagecolor="#ffffff" bordercolor="#666666" borderopacity="1.0" inkscape:pageopacity="0.0" inkscape:pageshadow="2" inkscape:zoom="1" inkscape:cx="58" inkscape:cy="48" inkscape:document-units="px" inkscape:current-layer="layer1" inkscape:document-rotation="0" showgrid="false" units="px" inkscape:window-width="1534" inkscape:window-height="843" inkscape:window-x="66" inkscape:window-y="20" inkscape:window-maximized="1" inkscape:showpageshadow="2" inkscape:pagecheckerboard="0" inkscape:deskcolor="#d1d1d1" />
  <metadata id="metadata10009">
    <rdf:RDF>
      <cc:Work rdf:about="">
        <dc:format>image/svg+xml</dc:format>
        <dc:type rdf:resource="http://purl.org/dc/dcmitype/StillImage" />
      </cc:Work>
    </rdf:RDF>
  </metadata>
  <g inkscape:label="Layer 1" inkscape:groupmode="layer" id="layer1" transform="translate(-70.005836,-46.768833)">
    <path style="color:#000000;font-style:normal;font-variant:normal;font-weight:normal;font-stretch:normal;font-size:medium;line-height:normal;font-family:sans-serif;font-variant-ligatures:normal;font-variant-position:normal;font-variant-caps:normal;font-variant-numeric:normal;font-variant-alternates:normal;font-variant-east-asian:normal;font-feature-settings:normal;font-variation-settings:normal;text-indent:0;text-align:start;text-decoration:none;text-decoration-line:none;text-decoration-style:solid;text-decoration-color:#000000;letter-spacing:normal;word-spacing:normal;text-transform:none;writing-mode:lr-tb;direction:ltr;text-orientation:mixed;dominant-baseline:auto;baseline-shift:baseline;text-anchor:start;white-space:normal;shape-padding:0;shape-margin:0;inline-size:0;clip-rule:nonzero;display:inline;overflow:visible;visibility:visible;opacity:0.2;isolation:auto;mix-blend-mode:normal;color-interpolation:sRGB;color-interpolation-filters:linearRGB;solid-color:#000000;solid-opacity:1;vector-effect:none;fill:#000000;fill-opacity:1;fill-rule:nonzero;stroke:none;stroke-width:0.0784929px;stroke-linecap:butt;stroke-linejoin:miter;stroke-miterlimit:4;stroke-dasharray:none;stroke-dashoffset:0;stroke-opacity:1;paint-order:stroke markers fill;color-rendering:auto;image-rendering:auto;shape-rendering:auto;text-rendering:auto;enable-background:accumulate;stop-color:#000000" d="m 93.818337,50.635938 -0.747716,0.0014 v 3.370632 1.919012 14.119813 h -0.48056 -18.465535 v 0.634822 h 19.693811 z" id="path9068" />
    <path style="color:#000000;font-style:normal;font-variant:normal;font-weight:normal;font-stretch:normal;font-size:medium;line-height:normal;font-family:sans-serif;font-variant-ligatures:normal;font-variant-position:normal;font-variant-caps:normal;font-variant-numeric:normal;font-variant-alternates:normal;font-variant-east-asian:normal;font-feature-settings:normal;font-variation-settings:normal;text-indent:0;text-align:start;text-decoration:none;text-decoration-line:none;text-decoration-style:solid;text-decoration-color:#000000;letter-spacing:normal;word-spacing:normal;text-transform:none;writing-mode:lr-tb;direction:ltr;text-orientation:mixed;dominant-baseline:auto;baseline-shift:baseline;text-anchor:start;white-space:normal;shape-padding:0;shape-margin:0;inline-size:0;clip-rule:nonzero;display:inline;overflow:visible;visibility:visible;opacity:0.7;isolation:auto;mix-blend-mode:normal;color-interpolation:sRGB;color-interpolation-filters:linearRGB;solid-color:#000000;solid-opacity:1;vector-effect:none;fill:#ffffff;fill-opacity:1;fill-rule:nonzero;stroke:none;stroke-width:0.351486;stroke-linecap:butt;stroke-linejoin:miter;stroke-miterlimit:4;stroke-dasharray:none;stroke-dashoffset:0;stroke-opacity:1;paint-order:stroke markers fill;color-rendering:auto;image-rendering:auto;shape-rendering:auto;text-rendering:auto;enable-background:accumulate;stop-color:#000000" d="m 73.093393,49.756372 v 0.0073 4.329057 1.919068 13.592465 h 0.03895 19.457292 0.0387 v -13.677398 -1.919015 -4.244177 -0.0073 z" id="path9037" />
    <path id="path9035" style="color:#000000;font-style:normal;font-variant:normal;font-weight:normal;font-stretch:normal;font-size:medium;line-height:normal;font-family:sans-serif;font-variant-ligatures:normal;font-variant-position:normal;font-variant-caps:normal;font-variant-numeric:normal;font-variant-alternates:normal;font-variant-east-asian:normal;font-feature-settings:normal;font-variation-settings:normal;text-indent:0;text-align:start;text-decoration:none;text-decoration-line:none;text-decoration-style:solid;text-decoration-color:#000000;letter-spacing:normal;word-spacing:normal;text-transform:none;writing-mode:lr-tb;direction:ltr;text-orientation:mixed;dominant-baseline:auto;baseline-shift:baseline;text-anchor:start;white-space:normal;shape-padding:0;shape-margin:0;inline-size:0;clip-rule:nonzero;display:inline;overflow:visible;visibility:visible;opacity:0.4;isolation:auto;mix-blend-mode:normal;color-interpolation:sRGB;color-interpolation-filters:linearRGB;solid-color:#000000;solid-opacity:1;vector-effect:none;fill:#000000;fill-opacity:1;fill-rule:nonzero;stroke:none;stroke-width:0.351486;stroke-linecap:butt;stroke-linejoin:miter;stroke-miterlimit:4;stroke-dasharray:none;stroke-dashoffset:0;stroke-opacity:1;paint-order:stroke markers fill;color-rendering:auto;image-rendering:auto;shape-rendering:auto;text-rendering:auto;enable-background:accumulate;stop-color:#000000" d="m 72.651671,49.31439 v 0.441826 0.0073 4.32963 1.918755 14.034603 h 0.480292 19.458098 0.480562 V 55.926637 54.007674 49.763497 49.31465 Z m 0.441586,0.441826 h 19.534969 v 0.0073 4.244437 1.919015 13.677398 H 92.589526 73.13223 73.09327 V 56.011882 54.092606 49.763497 Z" />
    <g inkscape:label="Expload" style="fill:#ffffff;stroke:#000000;stroke-width:2" class="prefab" id="g2" transform="matrix(0.02592951,0,0,0.02592951,71.179897,47.879581)">&#10;  <path d="m 452.62367,334.31408 22.89282,60.68312 59.09711,-26.72179 -26.72178,59.09712 60.68313,22.89281 -60.68312,22.89283 26.72178,59.0971 -59.09712,-26.72177 -22.89281,60.68313 -22.89282,-60.68312 -59.09711,26.72178 26.72177,-59.09712 -60.68312,-22.8928 60.68312,-22.89283 -26.72178,-59.09711 59.09712,26.72177 z m 0,-117.09905 46.01226,121.96694 118.77922,-53.70809 -53.70807,118.77924 121.96695,46.01223 -121.96694,46.01226 53.70809,118.77922 L 498.63594,561.34876 452.62371,683.31571 406.61145,561.34877 287.83223,615.05686 341.5403,496.27762 219.57335,450.26539 341.54029,404.25313 287.8322,285.47391 406.61144,339.18198 Z m 10e-6,-116.94969 69.10219,183.17256 178.38519,-80.65993 -80.65993,178.3852 183.17256,69.10219 -183.17257,69.10219 80.65993,178.38519 -178.3852,-80.65994 -69.10219,183.17257 -69.10219,-183.17257 -178.38519,80.65993 80.65993,-178.3852 -183.17255,-69.10219 183.17256,-69.10219 -80.65993,-178.38519 178.3852,80.65993 z m -350,1e-5 699.99997,3e-5 -2e-5,699.99997 -699.99998,-10e-6 z m -3e-5,699.99999 3e-5,-699.99999 699.99997,3e-5 -2e-5,699.99997 z M 452.68413,450.37146 802.6237,100.26538 l -3e-5,699.99997 z m -350.06044,349.89383 1e-5,-699.99991 349.99998,349.99998 z" id="path1" style="vector-effect:non-scaling-stroke;fill:none;fill-opacity:1;stroke:#00349c;stroke-opacity:1;-inkscape-stroke:hairline" />
&#10;</g>
    <path d="m 82.916193,50.47942 -1.791769,4.749558 -4.625431,-2.091479 5.2e-5,1.04e-4 2.144198,2.1442 3.079891,1.392596 1.193062,-3.16254 1.193112,3.16254 3.07989,-1.392596 -0.0018,0.0041 2.145011,-2.146072 0.0011,-0.0024 -4.625431,2.091479 z" style="fill:#ffcc00;stroke:#000000;stroke-width:0.051859;opacity:0.42366745" id="path12" />
    <path d="m 82.916193,53.511857 -1.193061,3.16254 -3.079889,-1.392596 2.146984,2.146984 1.532374,0.692905 0.593592,-1.573497 0.593595,1.573497 1.532374,-0.692905 -0.0028,0.0061 2.147948,-2.148959 0.0018,-0.0041 -3.079889,1.392598 z" style="fill:#ff6600;stroke:#000000;stroke-width:0.051859;opacity:0.42366745" id="path11" />
    <path d="m 80.790227,57.428785 0.692905,1.532372 -1.573497,0.593594 1.573497,0.593593 -0.692905,1.532374 2.125966,-2.125967 z" style="fill:#ff6600;stroke:#000000;stroke-width:0.051859;opacity:0.42366745" id="path10" />
    <path d="m 78.643243,55.281801 1.392648,3.079889 -3.16254,1.193061 3.16254,1.193062 -1.392648,3.079889 2.146984,-2.146984 0.692905,-1.532374 -1.573497,-0.593593 1.573497,-0.593594 -0.692905,-1.532372 z" style="fill:#ffcc00;stroke:#000000;stroke-width:0.051859;opacity:0.42366745" id="path9" />
    <path d="m 76.499042,53.137601 2.09143,4.625379 -4.749608,1.791771 4.749608,1.791772 -2.091479,4.625429 2.14425,-2.14425 1.392648,-3.079889 -3.16254,-1.193062 3.16254,-1.193061 -1.392648,-3.079889 z" style="fill:#cc0000;stroke:#000000;stroke-width:0.051859;opacity:0.42366745" id="path8" />
    <path d="m 82.916193,56.548193 -0.593592,1.573497 -1.532374,-0.692905 2.125966,2.125966 -2.125966,2.125967 1.532374,-0.692905 0.593592,1.573496 0.593595,-1.573496 1.530751,0.692147 -2.122774,-2.122475 2.121661,-2.122675 0.0028,-0.0061 -1.532375,0.692905 z" style="fill:#cc0000;stroke:#000000;stroke-width:0.051859;opacity:0.42366745" id="path7" />
    <path d="m 82.322601,60.987813 -1.532374,0.692905 -2.146984,2.146984 3.079889,-1.392596 1.193061,3.16254 1.193113,-3.16254 3.078725,1.392041 -2.14744,-2.147138 -1.530803,-0.692196 -0.593595,1.573496 z" style="fill:#ff6600;stroke:#000000;stroke-width:0.051859;opacity:0.42366745" id="path6" />
    <path d="m 81.748248,62.467493 -3.079889,1.392596 -2.14425,2.14425 4.625431,-2.091427 1.791769,4.749558 1.791821,-4.749558 4.624773,2.091122 -2.144706,-2.144451 -3.078775,-1.39209 -1.193113,3.16254 z" style="fill:#ffcc00;stroke:#000000;stroke-width:0.051859;opacity:0.42366745" id="path5" />
    <path d="m 85.039426,57.43481 -2.121661,2.122675 2.122774,2.122475 0.0016,7.63e-4 -0.692856,-1.532373 1.573447,-0.593594 -1.573447,-0.593593 z" style="fill:#ffcc00;stroke:#000000;stroke-width:0.051859;opacity:0.42366745" id="path4" />
    <path d="m 87.187374,55.285851 -2.147948,2.148959 -0.690119,1.526347 1.573444,0.593594 -1.573444,0.593593 0.692855,1.532374 -0.0016,-7.04e-4 2.14744,2.147135 0.0012,5.88e-4 -1.392648,-3.07989 3.16254,-1.193061 -3.16254,-1.193061 z" style="fill:#cc0000;stroke:#000000;stroke-width:0.051859;opacity:0.42366745" id="path3" />
    <path d="m 89.332383,53.139779 -2.145009,2.146072 -1.390826,3.075839 3.16254,1.193061 -3.16254,1.193062 1.392648,3.079889 -0.0011,-4.88e-4 2.144706,2.144451 6.85e-4,2.94e-4 -2.09148,-4.625432 4.749559,-1.791769 -4.749559,-1.791771 z" style="fill:#ff6600;stroke:#000000;stroke-width:0.051859;opacity:0.42366745" id="path2" />
  </g>
</svg>
