<?xml version="1.0" encoding="UTF-8" standalone="no"?>
<svg width="100" height="100" viewBox="0 0 26.458334 26.458334" version="1.1" id="svg10012" inkscape:version="1.3-alpha (9cd57a7883, 2023-05-01)" sodipodi:docname="rose.svg" xmlns:inkscape="http://www.inkscape.org/namespaces/inkscape" xmlns:sodipodi="http://sodipodi.sourceforge.net/DTD/sodipodi-0.dtd" xmlns="http://www.w3.org/2000/svg" xmlns:svg="http://www.w3.org/2000/svg" xmlns:rdf="http://www.w3.org/1999/02/22-rdf-syntax-ns#" xmlns:cc="http://creativecommons.org/ns#" xmlns:dc="http://purl.org/dc/elements/1.1/">
  <defs id="defs10006" />
  <sodipodi:namedview id="base" pagecolor="#ffffff" bordercolor="#666666" borderopacity="1.0" inkscape:pageopacity="0.0" inkscape:pageshadow="2" inkscape:zoom="1" inkscape:cx="74" inkscape:cy="48" inkscape:document-units="px" inkscape:current-layer="layer1" inkscape:document-rotation="0" showgrid="false" units="px" inkscape:window-width="1534" inkscape:window-height="843" inkscape:window-x="66" inkscape:window-y="20" inkscape:window-maximized="1" inkscape:showpageshadow="2" inkscape:pagecheckerboard="0" inkscape:deskcolor="#d1d1d1" />
  <metadata id="metadata10009">
    <rdf:RDF>
      <cc:Work rdf:about="">
        <dc:format>image/svg+xml</dc:format>
        <dc:type rdf:resource="http://purl.org/dc/dcmitype/StillImage" />
      </cc:Work>
    </rdf:RDF>
  </metadata>
  <g inkscape:label="Layer 1" inkscape:groupmode="layer" id="layer1" transform="translate(-70.005836,-46.768833)">
    <path style="color:#000000;font-style:normal;font-variant:normal;font-weight:normal;font-stretch:normal;font-size:medium;line-height:normal;font-family:sans-serif;font-variant-ligatures:normal;font-variant-position:normal;font-variant-caps:normal;font-variant-numeric:normal;font-variant-alternates:normal;font-variant-east-asian:normal;font-feature-settings:normal;font-variation-settings:normal;text-indent:0;text-align:start;text-decoration:none;text-decoration-line:none;text-decoration-style:solid;text-decoration-color:#000000;letter-spacing:normal;word-spacing:normal;text-transform:none;writing-mode:lr-tb;direction:ltr;text-orientation:mixed;dominant-baseline:auto;baseline-shift:baseline;text-anchor:start;white-space:normal;shape-padding:0;shape-margin:0;inline-size:0;clip-rule:nonzero;display:inline;overflow:visible;visibility:visible;opacity:0.2;isolation:auto;mix-blend-mode:normal;color-interpolation:sRGB;color-interpolation-filters:linearRGB;solid-color:#000000;solid-opacity:1;vector-effect:none;fill:#000000;fill-opacity:1;fill-rule:nonzero;stroke:none;stroke-width:0.0784929px;stroke-linecap:butt;stroke-linejoin:miter;stroke-miterlimit:4;stroke-dasharray:none;stroke-dashoffset:0;stroke-opacity:1;paint-order:stroke markers fill;color-rendering:auto;image-rendering:auto;shape-rendering:auto;text-rendering:auto;enable-background:accumulate;stop-color:#000000" d="m 93.818337,50.635938 -0.747716,0.0014 v 3.370632 1.919012 14.119813 h -0.48056 -18.465535 v 0.634822 h 19.693811 z" id="path9068" />
    <path style="color:#000000;font-style:normal;font-variant:normal;font-weight:normal;font-stretch:normal;font-size:medium;line-height:normal;font-family:sans-serif;font-variant-ligatures:normal;font-variant-position:normal;font-variant-caps:normal;font-variant-numeric:normal;font-variant-alternates:normal;font-variant-east-asian:normal;font-feature-settings:normal;font-variation-settings:normal;text-indent:0;text-align:start;text-decoration:none;text-decoration-line:none;text-decoration-style:solid;text-decoration-color:#000000;letter-spacing:normal;word-spacing:normal;text-transform:none;writing-mode:lr-tb;direction:ltr;text-orientation:mixed;dominant-baseline:auto;baseline-shift:baseline;text-anchor:start;white-space:normal;shape-padding:0;shape-margin:0;inline-size:0;clip-rule:nonzero;display:inline;overflow:visible;visibility:visible;opacity:0.7;isolation:auto;mix-blend-mode:normal;color-interpolation:sRGB;color-interpolation-filters:linearRGB;solid-color:#000000;solid-opacity:1;vector-effect:none;fill:#ffffff;fill-opacity:1;fill-rule:nonzero;stroke:none;stroke-width:0.351486;stroke-linecap:butt;stroke-linejoin:miter;stroke-miterlimit:4;stroke-dasharray:none;stroke-dashoffset:0;stroke-opacity:1;paint-order:stroke markers fill;color-rendering:auto;image-rendering:auto;shape-rendering:auto;text-rendering:auto;enable-background:accumulate;stop-color:#000000" d="m 73.093393,49.756372 v 0.0073 4.329057 1.919068 13.592465 h 0.03895 19.457292 0.0387 v -13.677398 -1.919015 -4.244177 -0.0073 z" id="path9037" />
    <path id="path9035" style="color:#000000;font-style:normal;font-variant:normal;font-weight:normal;font-stretch:normal;font-size:medium;line-height:normal;font-family:sans-serif;font-variant-ligatures:normal;font-variant-position:normal;font-variant-caps:normal;font-variant-numeric:normal;font-variant-alternates:normal;font-variant-east-asian:normal;font-feature-settings:normal;font-variation-settings:normal;text-indent:0;text-align:start;text-decoration:none;text-decoration-line:none;text-decoration-style:solid;text-decoration-color:#000000;letter-spacing:normal;word-spacing:normal;text-transform:none;writing-mode:lr-tb;direction:ltr;text-orientation:mixed;dominant-baseline:auto;baseline-shift:baseline;text-anchor:start;white-space:normal;shape-padding:0;shape-margin:0;inline-size:0;clip-rule:nonzero;display:inline;overflow:visible;visibility:visible;opacity:0.4;isolation:auto;mix-blend-mode:normal;color-interpolation:sRGB;color-interpolation-filters:linearRGB;solid-color:#000000;solid-opacity:1;vector-effect:none;fill:#000000;fill-opacity:1;fill-rule:nonzero;stroke:none;stroke-width:0.351486;stroke-linecap:butt;stroke-linejoin:miter;stroke-miterlimit:4;stroke-dasharray:none;stroke-dashoffset:0;stroke-opacity:1;paint-order:stroke markers fill;color-rendering:auto;image-rendering:auto;shape-rendering:auto;text-rendering:auto;enable-background:accumulate;stop-color:#000000" d="m 72.651671,49.31439 v 0.441826 0.0073 4.32963 1.918755 14.034603 h 0.480292 19.458098 0.480562 V 55.926637 54.007674 49.763497 49.31465 Z m 0.441586,0.441826 h 19.534969 v 0.0073 4.244437 1.919015 13.677398 H 92.589526 73.13223 73.09327 V 56.011882 54.092606 49.763497 Z" />
    <g inkscape:label="Rose" style="fill:#ffffff;stroke:#000000;stroke-width:2" class="prefab" id="g2" transform="matrix(0.02246177,0,0,0.02246177,72.977202,49.290538)">&#10;  <path d="m 366.16486,141.20427 c -52.97238,52.97238 -82.73196,124.81835 -82.73196,199.73262 0,74.91426 29.75958,146.76023 82.73196,199.73261 52.97238,52.97238 124.81835,82.73195 199.73261,82.73195 74.91426,0 146.76023,-29.75957 199.73261,-82.73195 110.30927,-110.30928 110.30927,-289.15595 0,-399.46523 -110.30928,-110.309272 -289.15594,-110.309272 -399.46522,0 z m 159.7861,639.14434 c 110.30928,-110.30928 110.30928,-289.15595 0,-399.46523 -110.30928,-110.30928 -289.15595,-110.30928 -399.46523,0 -52.972388,52.97238 -82.731958,124.81835 -82.731948,199.73261 0,74.91426 29.75958,146.76023 82.731968,199.73261 52.97238,52.97238 124.81835,82.73195 199.7326,82.73195 74.91426,10e-6 146.76023,-29.75956 199.73261,-82.73194 z m 239.6791,-399.4652 c -110.30928,-110.30927 -289.15594,-110.30927 -399.46522,0 -52.97238,52.97238 -82.73196,124.81835 -82.73196,199.73262 0,74.91426 29.75958,146.76023 82.73196,199.73261 52.97238,52.97238 124.81835,82.73195 199.73261,82.73195 74.91426,0 146.76023,-29.75957 199.73261,-82.73195 110.30927,-110.30928 110.30927,-289.15595 0,-399.46523 z M 126.4857,540.66951 c 52.97238,52.97238 124.81835,82.73196 199.73262,82.73196 74.91426,0 146.76023,-29.75958 199.73261,-82.73196 110.30928,-110.30928 110.30928,-289.15595 0,-399.46523 -110.30928,-110.309279 -289.15595,-110.309279 -399.46523,0 -52.972388,52.97238 -82.731968,124.81835 -82.731968,199.73262 0,74.91426 29.75958,146.76023 82.731968,199.73261 z M 381.7153,267.74832 c -71.07107,71.07106 -71.07115,186.29994 -1.8e-4,257.37091 71.07097,71.07097 186.29985,71.07089 257.37091,-1.8e-4 71.07106,-71.07106 71.07114,-186.29993 1.8e-4,-257.3709 -71.07097,-71.07097 -186.29985,-71.07089 -257.37091,1.7e-4 z m 128.68521,386.05625 c 71.07107,-71.07106 71.07115,-186.29994 1.8e-4,-257.37091 -71.07097,-71.07097 -186.29985,-71.07089 -257.37091,1.7e-4 -71.07107,71.07106 -71.07115,186.29994 -1.8e-4,257.37091 71.07097,71.07097 186.29985,71.07089 257.37091,-1.7e-4 z M 639.08602,396.43386 c -71.07106,-71.07106 -186.29993,-71.07113 -257.3709,-1.7e-4 -71.07097,71.07097 -71.07089,186.29985 1.7e-4,257.37091 71.07106,71.07107 186.29994,71.07115 257.37091,1.8e-4 71.07097,-71.07097 71.07089,-186.29986 -1.8e-4,-257.37092 z M 253.02976,525.11907 c 71.07106,71.07107 186.29994,71.07115 257.37091,1.8e-4 71.07097,-71.07097 71.07089,-186.29985 -1.7e-4,-257.37091 -71.07106,-71.07107 -186.29994,-71.07115 -257.37091,-1.8e-4 -71.07097,71.07097 -71.07089,186.29985 1.7e-4,257.37091 z M 46.292252,60.335872 H 846.58515 L 46.292252,860.3359 Z m 399.912178,-2e-6 H 46.292282 v 800 H 446.20443 Z m 399.91219,400 H 46.292282 v 400 H 846.11662 Z m 0,-399.999998 H 46.292272 L 846.11662,860.3359 Z" id="path1" style="vector-effect:non-scaling-stroke;fill:none;fill-opacity:1;stroke:#00349c;stroke-opacity:1;-inkscape-stroke:hairline" />
&#10;</g>
    <path d="m 86.585437,56.0514 -0.0032,0.0032 c 8.5e-5,6.87e-4 8.5e-5,0.0014 2.54e-4,0.0021 0.01814,0.128887 0.03247,0.258192 0.04278,0.387773 6.7e-5,8.5e-4 8.4e-5,0.0017 1.69e-4,0.0026 0.01025,0.129868 0.01665,0.260011 0.019,0.390185 0.0023,0.130701 7.64e-4,0.261458 -0.0049,0.392072 -4e-6,9.4e-5 5e-6,1.79e-4 0,2.65e-4 -1.2e-5,2.62e-4 -2.3e-5,5.25e-4 -4.7e-5,7.87e-4 -0.0055,0.130446 -0.01516,0.260748 -0.02882,0.390713 0.06402,0.04015 0.127222,0.0822 0.189467,0.126133 0.06224,0.04393 0.123551,0.08978 0.18381,0.137575 0.06026,0.04779 0.119495,0.09749 0.177599,0.149208 0.05808,0.05172 0.115033,0.105428 0.170746,0.161141 0.105343,0.105343 0.203662,0.215057 0.294987,0.328504 0.09132,0.113454 0.175656,0.23062 0.253046,0.351009 0.07738,0.120391 0.147799,0.243972 0.211325,0.370137 0.0635,0.126176 0.120092,0.254931 0.169828,0.385711 h 0.0083 c -0.0014,0.0036 -0.0026,0.0075 -0.0041,0.0111 -8.6e-5,2.8e-4 -2.54e-4,5.53e-4 -3.4e-4,8.33e-4 -8.5e-5,2.79e-4 -1.7e-4,5.59e-4 -3.39e-4,8.32e-4 -0.02252,0.05953 -0.04681,0.118534 -0.07221,0.177193 -1.7e-4,3.4e-4 -2.56e-4,6.7e-4 -4.24e-4,0.001 -0.0049,0.01131 -0.0098,0.02241 -0.01473,0.0336 -0.02399,0.05407 -0.04912,0.107733 -0.07559,0.160928 -0.0015,0.003 -0.003,0.006 -0.0043,0.0088 -0.0013,0.0026 -0.0026,0.0051 -0.0038,0.0079 -3.39e-4,6.71e-4 -6.78e-4,0.0013 -10e-4,0.002 -2.4e-5,6.8e-5 -6.9e-5,1.11e-4 -8.6e-5,1.79e-4 -0.02986,0.05924 -0.06122,0.117894 -0.09416,0.175912 -1.5e-5,2.2e-5 -2.1e-5,6.6e-5 -4.5e-5,9.4e-5 -0.0051,0.009 -0.01046,0.01772 -0.01558,0.02658 -4.5e-5,9.4e-5 -8.6e-5,1.79e-4 -1.71e-4,2.62e-4 -0.0058,0.01003 -0.01217,0.01964 -0.01793,0.02952 -0.02231,0.03785 -0.04476,0.07563 -0.06839,0.11292 -0.0023,0.0036 -0.0047,0.0073 -0.007,0.0111 -0.0043,0.0068 -0.0088,0.01366 -0.01302,0.02049 -0.0019,0.003 -0.0038,0.006 -0.0058,0.009 -8.5e-5,1.63e-4 -1.7e-4,3.23e-4 -3.39e-4,4.85e-4 -0.03238,0.0498 -0.06581,0.09911 -0.100604,0.147757 -2.54e-4,2.97e-4 -4.22e-4,6.19e-4 -5.93e-4,9.2e-4 -0.0034,0.0047 -0.0066,0.0096 -0.01003,0.01451 -1.7e-4,1.77e-4 -2.56e-4,3.82e-4 -4.25e-4,5.68e-4 -0.03834,0.05309 -0.07838,0.105364 -0.119601,0.156978 -2.54e-4,3.14e-4 -5.08e-4,6.11e-4 -7.62e-4,9.2e-4 -0.0014,0.0017 -0.0028,0.0034 -0.0043,0.0051 -0.0047,0.0058 -0.0094,0.01131 -0.01409,0.01708 -0.0041,0.0049 -0.0081,0.0098 -0.01217,0.01473 -0.03281,0.04009 -0.06645,0.07968 -0.100988,0.11879 -1.7e-4,2.37e-4 -4.24e-4,4.68e-4 -5.95e-4,7.05e-4 -0.01174,0.01323 -0.02344,0.02668 -0.03541,0.03987 -1.71e-4,2.05e-4 -3.4e-4,3.73e-4 -5.1e-4,5.7e-4 -0.04489,0.04946 -0.09072,0.09834 -0.13845,0.146092 -0.05556,0.05556 -0.112323,0.109099 -0.170256,0.16065 -0.05793,0.05155 -0.116997,0.101094 -0.177107,0.148717 -0.06011,0.04764 -0.121267,0.09337 -0.183341,0.137191 -0.06207,0.0438 -0.125045,0.0857 -0.188869,0.12577 0.01345,0.126325 0.02282,0.252993 0.02869,0.379788 3.39e-4,0.007 6.79e-4,0.01409 9.67e-4,0.02113 4.5e-5,9.09e-4 4.5e-5,0.0018 8.5e-5,0.0028 0.0051,0.119708 0.0066,0.239517 0.0051,0.3593 -1.71e-4,0.01089 -2.54e-4,0.02184 -4.25e-4,0.03277 -4.4e-5,0.002 -4.4e-5,0.0041 -8.5e-5,0.006 -0.0011,0.05416 -0.0026,0.108331 -0.0049,0.162443 -1.7e-5,3.65e-4 -2.1e-5,7.3e-4 -4.4e-5,0.0011 -3e-6,4.5e-5 2e-6,9.4e-5 0,1.34e-4 -0.0028,0.06175 -0.0066,0.123465 -0.01131,0.185134 -4.22e-4,0.0058 -6.79e-4,0.01153 -0.0011,0.01729 -2.54e-4,0.0038 -6.79e-4,0.0077 -0.001,0.01153 -5.94e-4,0.006 -0.0012,0.01174 -0.0017,0.01772 -0.0038,0.04647 -0.0081,0.09294 -0.01281,0.139325 -0.0012,0.01174 -0.0021,0.02346 -0.0034,0.03518 -0.0066,0.06128 -0.01452,0.122461 -0.02303,0.183554 -2.54e-4,0.0019 -3.39e-4,0.0038 -5.93e-4,0.0058 l 0.0085,0.0085 c 0.538596,-0.07785 1.062492,-0.225251 1.560129,-0.435197 0.747085,-0.315188 1.434458,-0.772406 2.01897,-1.356919 0.536384,-0.536384 0.956166,-1.145092 1.260316,-1.794528 -0.0016,-0.0034 -0.0034,-0.0066 -0.0049,-0.0098 -0.30377,-0.645703 -0.72176,-1.251017 -1.255401,-1.784658 -0.597365,-0.597656 -1.284761,-1.049732 -2.018117,-1.358946 -0.506423,-0.213528 -1.034575,-0.359475 -1.570966,-0.43568 z" style="fill:#0cfd11;stroke:#000000;stroke-width:0.0449237;font-variation-settings:normal;opacity:1;vector-effect:none;fill-opacity:0.443744;stroke-linecap:butt;stroke-linejoin:miter;stroke-miterlimit:4;stroke-dasharray:none;stroke-dashoffset:0;stroke-opacity:1;-inkscape-stroke:none;stop-color:#000000;stop-opacity:1" id="path7" sodipodi:nodetypes="cccscsssccsssssssccccccscsccccsccccsccccccccsscccscscsssscscccccsscscccccsccssccsscc" />
    <path d="m 82.999757,51.203562 v 3.166847 0.0023 2.21117 0.003 c 0.05426,0.02547 0.108053,0.05221 0.161653,0.07945 0.02378,0.01195 0.04758,0.02393 0.07125,0.03624 0.0066,0.0034 0.01323,0.0066 0.01964,0.01003 2.4e-5,1.5e-5 6.8e-5,2.1e-5 9.4e-5,4.5e-5 0.0158,0.0083 0.03157,0.01729 0.0473,0.02598 0.02527,0.01345 0.05031,0.02762 0.07546,0.0415 7.38e-4,4.08e-4 0.0015,8.24e-4 0.0021,0.0012 0.02071,0.01153 0.04162,0.02273 0.06229,0.03447 0.127713,0.0723 0.253594,0.148994 0.376981,0.23111 -0.277362,0.04306 -0.55128,0.113796 -0.816873,0.213738 v 0.0026 c 0.05787,0.02188 0.115205,0.04553 0.172241,0.0701 0.01729,0.0075 0.03458,0.01537 0.05185,0.02303 0.04246,0.019 0.08464,0.03879 0.126561,0.05932 0.0064,0.0032 0.01259,0.0062 0.019,0.0094 0.0012,6.21e-4 0.0026,0.0012 0.0036,0.0018 0.0079,0.0038 0.0158,0.0077 0.02369,0.01153 0.0023,0.0012 0.0047,0.0023 0.007,0.0034 0.05475,0.02781 0.109142,0.05654 0.162848,0.08698 9.4e-5,4.5e-5 1.77e-4,1.11e-4 2.63e-4,1.8e-4 0.0058,0.0032 0.01131,0.0066 0.01708,0.0098 0.05349,0.03067 0.106453,0.06265 0.158815,0.09595 0.0028,0.0017 0.0055,0.0034 0.0081,0.0051 5.7e-4,3.65e-4 0.0011,6.96e-4 0.0017,0.0011 0.0036,0.0023 0.007,0.0045 0.01067,0.0066 9.35e-4,5.85e-4 0.0019,0.0012 0.0028,0.0018 4.5e-5,2.2e-5 9.4e-5,6.7e-5 1.37e-4,9.2e-5 0.05104,0.03296 0.101414,0.06735 0.151257,0.102781 0.01409,0.01003 0.02828,0.02028 0.04237,0.03063 0.04587,0.03351 0.09134,0.06786 0.136081,0.103528 1.36e-4,1.09e-4 2.64e-4,2.03e-4 3.99e-4,3.06e-4 0.002,0.0016 0.0041,0.0032 0.006,0.0049 2.36e-4,1.77e-4 4.67e-4,3.82e-4 7.04e-4,5.68e-4 0.0064,0.0051 0.01259,0.01046 0.019,0.01558 0.0045,0.0036 0.009,0.0073 0.01345,0.0111 0.03913,0.032 0.07776,0.06483 0.115951,0.09849 0.01473,0.01302 0.02939,0.0257 0.04391,0.03887 l 2.65e-4,2.65e-4 c 0.04909,0.04455 0.09764,0.09004 0.145024,0.137404 l 3.4e-4,3.48e-4 c 4.6e-5,4.4e-5 8.5e-5,9.4e-5 1.7e-4,1.36e-4 l 4.25e-4,3.99e-4 c 0.04867,0.04869 0.09548,0.09851 0.141182,0.148995 0.0062,0.0068 0.01259,0.01366 0.01878,0.02071 0.04397,0.04922 0.08637,0.09932 0.127521,0.150126 0.001,0.0012 0.002,0.0026 0.003,0.0036 0.0028,0.0034 0.0055,0.0068 0.0083,0.01025 0.0019,0.0023 0.0036,0.0045 0.0055,0.0068 0.04188,0.05236 0.08233,0.105492 0.121267,0.15939 0.0028,0.0041 0.0058,0.0079 0.0085,0.01195 0.0394,0.05499 0.07727,0.110721 0.113625,0.167139 2.54e-4,3.48e-4 4.24e-4,7.04e-4 6.78e-4,0.0011 0.07682,0.119346 0.146391,0.241976 0.209532,0.367023 7.65e-4,0.0015 0.0015,0.003 0.0023,0.0045 0.06321,0.125578 0.119901,0.253626 0.169338,0.383824 h 0.007 c 0.09866,-0.263576 0.168676,-0.535315 0.211112,-0.810509 v 0 c 9.69e-4,0.0014 0.0018,0.003 0.0028,0.0045 0.02113,0.03172 0.04186,0.06353 0.06229,0.0955 1.7e-4,2.31e-4 2.56e-4,4.68e-4 4.24e-4,7.07e-4 3.4e-4,5.59e-4 7.65e-4,0.0011 0.0011,0.0017 0.0036,0.0056 0.007,0.0111 0.01067,0.01686 8.4e-5,1.35e-4 1.69e-4,2.97e-4 2.54e-4,4.42e-4 1.7e-5,2.2e-5 2.2e-5,6.6e-5 4.5e-5,9.2e-5 0.03283,0.05181 0.06393,0.10436 0.09512,0.156893 v 4.5e-5 l 4.5e-5,4.5e-5 c 0.01793,0.03012 0.03537,0.06037 0.05264,0.09072 0.01366,0.02384 0.02681,0.04784 0.04009,0.07181 0.0047,0.0085 0.0096,0.01686 0.0143,0.02549 8.4e-5,1.77e-4 1.69e-4,3.82e-4 3.4e-4,5.68e-4 8.5e-5,1.62e-4 1.68e-4,3.22e-4 2.54e-4,4.84e-4 0.0098,0.01772 0.01964,0.03548 0.02927,0.05334 0.0049,0.0088 0.0098,0.0175 0.01452,0.02636 0.0038,0.0073 0.0081,0.0143 0.01174,0.0215 0.0068,0.01323 0.01345,0.02641 0.02028,0.03957 0.03482,0.06758 0.06876,0.135526 0.101031,0.204046 h 0.0094 c 0.2985,-0.640294 0.482752,-1.320003 0.554786,-2.009408 0.05443,-0.520886 0.04502,-1.047263 -0.02843,-1.566399 -1.69e-4,-0.0013 -3.4e-4,-0.0026 -5.09e-4,-0.0038 -0.07631,-0.53661 -0.221885,-1.064978 -0.434907,-1.571631 -0.308133,-0.732861 -0.758713,-1.419843 -1.355779,-2.016909 -0.535479,-0.535485 -1.143053,-0.95468 -1.791247,-1.258706 z" style="fill:#a00101;stroke:#000000;stroke-width:0.0449237;font-variation-settings:normal;opacity:1;vector-effect:none;fill-opacity:0.443744;stroke-linecap:butt;stroke-linejoin:miter;stroke-miterlimit:4;stroke-dasharray:none;stroke-dashoffset:0;stroke-opacity:1;-inkscape-stroke:none;stop-color:#000000;stop-opacity:1" id="path6" sodipodi:nodetypes="ccccccccccscccccccccccccccsccccccccccccccccsscsscscccscscscccscccsscccccccccscccssccsccscccc" />
    <path d="m 82.996467,51.201938 c -0.649459,0.304154 -1.258181,0.723923 -1.794573,1.260315 -0.584015,0.584016 -1.040979,1.270703 -1.356129,2.017041 -0.210194,0.497786 -0.357733,1.021884 -0.435723,1.560699 l 0.0096,0.0096 c -0.0038,5.34e-4 -0.0077,9.95e-4 -0.01153,0.0015 -0.04224,0.295595 -0.06461,0.595327 -0.06461,0.897419 0,0.226701 0.01238,0.452076 0.03642,0.675389 0.07488,0.69841 0.264838,1.376053 0.558913,2.006511 h 0.0094 c 0.03042,-0.06455 0.06207,-0.128524 0.09463,-0.192071 2.45e-4,-4.85e-4 4.93e-4,-9.67e-4 7.47e-4,-0.0014 0.0016,-0.003 0.003,-0.006 0.0047,-0.0092 9.4e-5,-1.8e-4 1.6e-4,-3.82e-4 2.62e-4,-5.7e-4 0.0055,-0.01067 0.01067,-0.02143 0.01622,-0.03206 0.04222,-0.08088 0.08622,-0.160906 0.131918,-0.239973 0.0457,-0.07907 0.09315,-0.157214 0.142314,-0.234358 0.02092,-0.03287 0.04239,-0.06545 0.06397,-0.09796 l 2.22e-4,0.0019 c 0.04244,0.273615 0.113411,0.543544 0.21141,0.805642 h 0.0075 c 0.02378,-0.06254 0.04901,-0.124639 0.07595,-0.186179 0.02833,-0.06476 0.0584,-0.12893 0.09025,-0.192456 0.03183,-0.06352 0.06543,-0.126368 0.100775,-0.188506 0.03533,-0.06214 0.07241,-0.12355 0.111255,-0.184173 0.03885,-0.0606 0.07945,-0.120413 0.121821,-0.179349 0.04237,-0.05894 0.08654,-0.116976 0.132452,-0.174076 0.04592,-0.0571 0.09356,-0.113241 0.143018,-0.168377 0.04946,-0.05512 0.100668,-0.109228 0.15367,-0.16223 0.0023,-0.0023 0.0045,-0.0045 0.0068,-0.0066 l 9.4e-5,-9.4e-5 c 0.0508,-0.05057 0.102546,-0.0996 0.155313,-0.146924 0.05512,-0.04946 0.111276,-0.0971 0.168377,-0.143018 0.0018,-0.0014 0.0036,-0.0028 0.0053,-0.0043 1.35e-4,-1.11e-4 2.97e-4,-2.02e-4 4.4e-4,-3.05e-4 0.05524,-0.04425 0.111341,-0.08696 0.168292,-0.127926 0.05894,-0.04237 0.118726,-0.08297 0.179349,-0.121822 0.0013,-8.24e-4 0.0026,-0.0016 0.0038,-0.0023 0.05936,-0.03795 0.119452,-0.07426 0.180267,-0.108843 0.06214,-0.03533 0.125023,-0.06895 0.188549,-0.100774 6.36e-4,-3.25e-4 0.0013,-6.04e-4 0.0019,-9.23e-4 1.11e-4,-6.8e-5 2.37e-4,-1.11e-4 3.48e-4,-1.79e-4 0.06278,-0.0314 0.126176,-0.06116 0.190172,-0.08914 0.06476,-0.02833 0.130125,-0.0549 0.195977,-0.07975 -0.265693,-0.100113 -0.539534,-0.172284 -0.817135,-0.21523 l -0.0021,-2.62e-4 c 0.03569,-0.02374 0.07155,-0.04715 0.107626,-0.0701 0.0768,-0.04888 0.154438,-0.09597 0.232821,-0.141225 0.07838,-0.04525 0.157576,-0.08871 0.237429,-0.130339 0.01003,-0.0053 0.02028,-0.01025 0.03048,-0.01558 0.0019,-9.74e-4 0.0038,-0.0019 0.0058,-0.003 0.06801,-0.0349 0.136423,-0.06878 0.205391,-0.101073 0.0011,-5.1e-4 0.0021,-9.82e-4 0.0032,-0.0015 v -2.211168 c -0.0011,-4.16e-4 -0.0021,-8.58e-4 -0.0032,-0.0013 0.0011,-4.1e-4 0.0021,-7.73e-4 0.0032,-0.0012 v -3.166842 c -0.0011,-5.18e-4 -0.0021,-0.0011 -0.0032,-0.0016 z" style="fill:#fd0808;stroke:#000000;stroke-width:0.0449237;fill-opacity:0.44374371" id="path5" sodipodi:nodetypes="ssscccssccscccsssccccssssssssssssccsscssccscccsssccscccccss" />
    <path d="m 79.408243,56.05118 c -0.535953,0.07606 -1.063644,0.221849 -1.569691,0.43502 -0.734103,0.309242 -1.422214,0.76161 -2.020243,1.359641 -0.52294,0.522938 -0.944492,1.128081 -1.253517,1.784658 -0.0016,0.0034 -0.0034,0.0066 -0.0049,0.0098 0.309444,0.660425 0.732844,1.268942 1.258431,1.794529 0.584015,0.584017 1.27069,1.040979 2.017039,1.356131 0.500802,0.211474 1.028233,0.359643 1.570483,0.437257 l 0.002,-0.002 c -1.2e-5,-8.5e-5 -2.3e-5,-1.71e-4 -4.4e-5,-2.56e-4 -0.02092,-0.147181 -0.03697,-0.295375 -0.04777,-0.444366 -0.01089,-0.149101 -0.01644,-0.298993 -0.01644,-0.449499 0,-0.112835 0.0032,-0.225315 0.0092,-0.337407 2.3e-5,-5.36e-4 2.3e-5,-0.0011 4.5e-5,-0.0016 8e-6,-1.62e-4 4.4e-5,-3.22e-4 4.4e-5,-4.84e-4 2e-6,-4.5e-5 -2e-6,-9.4e-5 0,-1.37e-4 2.05e-4,-0.0038 2.74e-4,-0.0077 4.85e-4,-0.01153 0.006,-0.108587 0.01516,-0.216696 0.02668,-0.32438 -0.06378,-0.03998 -0.126773,-0.0818 -0.188826,-0.125471 -0.06205,-0.04367 -0.123145,-0.08925 -0.183255,-0.136743 -0.06009,-0.04749 -0.119154,-0.09693 -0.177065,-0.148376 -0.05791,-0.05144 -0.114692,-0.104915 -0.170213,-0.160436 -0.05305,-0.05304 -0.104318,-0.107178 -0.153819,-0.162357 -0.0495,-0.05518 -0.09721,-0.111405 -0.143146,-0.168548 -0.04594,-0.05714 -0.0901,-0.115226 -0.132495,-0.174205 -0.04239,-0.05898 -0.08304,-0.118854 -0.121907,-0.179519 -0.03887,-0.06067 -0.07599,-0.122142 -0.11134,-0.184344 -0.03535,-0.0622 -0.06893,-0.125152 -0.100775,-0.188741 -0.03185,-0.06359 -0.06195,-0.12782 -0.09029,-0.192626 -0.02835,-0.06483 -0.05492,-0.130232 -0.07975,-0.196149 -0.0011,-0.0028 -0.002,-0.0058 -0.0032,-0.0085 h 0.0064 c 0.02171,-0.05701 0.045,-0.113539 0.06931,-0.169743 2.28e-4,-5.28e-4 4.31e-4,-0.0011 6.61e-4,-0.0016 0.0049,-0.01131 0.0098,-0.02258 0.01494,-0.03388 0.02371,-0.05341 0.0485,-0.106431 0.07462,-0.158985 4.5e-5,-1.11e-4 1.09e-4,-2.05e-4 1.77e-4,-3.05e-4 0.0034,-0.0066 0.0064,-0.01345 0.0098,-0.02006 6.9e-5,-1.37e-4 1.11e-4,-2.63e-4 1.8e-4,-3.99e-4 0.02984,-0.05919 0.06124,-0.117809 0.09416,-0.175785 2.1e-5,-6.8e-5 4.5e-5,-1.11e-4 9.2e-5,-1.79e-4 0.0047,-0.0085 0.0098,-0.01665 0.01473,-0.02515 0.02807,-0.04863 0.05725,-0.09678 0.08748,-0.14447 6.8e-5,-1.09e-4 1.37e-4,-2.37e-4 2.2e-4,-3.48e-4 0.0083,-0.01302 0.01665,-0.02621 0.02515,-0.03925 l 4.4e-5,-4.5e-5 c 0.03211,-0.04937 0.06521,-0.09828 0.09967,-0.146519 1.34e-4,-1.79e-4 2.62e-4,-3.82e-4 3.97e-4,-5.7e-4 0.0041,-0.0058 0.0079,-0.01153 0.01195,-0.01729 1.9e-5,-2.1e-5 2.1e-5,-6.6e-5 4.4e-5,-9.2e-5 0.03838,-0.05315 0.07847,-0.105427 0.11973,-0.157106 1.34e-4,-1.6e-4 2.63e-4,-3.22e-4 3.97e-4,-4.83e-4 0.01025,-0.01281 0.02092,-0.02532 0.03119,-0.038 0.03247,-0.03964 0.06577,-0.07883 0.09994,-0.117531 0.01217,-0.01387 0.02421,-0.0276 0.03659,-0.04124 1.37e-4,-1.62e-4 2.65e-4,-2.88e-4 3.99e-4,-4.42e-4 0.04483,-0.04939 0.09059,-0.09823 0.13828,-0.145921 0.05552,-0.05552 0.112301,-0.108992 0.170213,-0.160436 0.05791,-0.05144 0.116976,-0.100902 0.177064,-0.148419 0.06009,-0.04752 0.121203,-0.09309 0.183256,-0.136785 0.06205,-0.04369 0.125023,-0.08551 0.188826,-0.125514 -0.0021,-0.01921 -0.0028,-0.03883 -0.0047,-0.05817 -2.3e-5,-3.07e-4 -6.8e-5,-6.12e-4 -9.4e-5,-9.22e-4 -0.0079,-0.07789 -0.01387,-0.15606 -0.019,-0.2344 -1.3e-5,-2.39e-4 -2.1e-5,-4.68e-4 -4.5e-5,-7.04e-4 -1e-5,-1.8e-4 -2.1e-5,-3.48e-4 -4.4e-5,-5.28e-4 -0.0019,-0.03123 -0.0034,-0.0625 -0.0047,-0.09379 -1.5e-5,-3.22e-4 -2.1e-5,-6.45e-4 -4.4e-5,-9.65e-4 -0.0045,-0.09505 -0.0077,-0.190299 -0.0077,-0.285906 0,-0.151044 0.0055,-0.301522 0.01644,-0.451166 0.01089,-0.149635 0.02705,-0.298455 0.04818,-0.446251 z" style="fill:#0cfd11;stroke:#000000;stroke-width:0.0449237;font-variation-settings:normal;opacity:1;vector-effect:none;fill-opacity:0.443744;stroke-linecap:butt;stroke-linejoin:miter;stroke-miterlimit:4;stroke-dasharray:none;stroke-dashoffset:0;stroke-opacity:1;-inkscape-stroke:none;stop-color:#000000;stop-opacity:1" id="path4" sodipodi:nodetypes="cssscsscccsscsscccssssssssssssccsccccscccccccccssccccsccsssscccsccscsscc" />
    <path d="m 85.374738,59.6405 c -0.02485,0.06585 -0.05142,0.131213 -0.07975,0.195977 -0.02833,0.06476 -0.0584,0.12893 -0.09025,0.192455 -0.03183,0.06353 -0.06543,0.126369 -0.100775,0.188507 -0.0346,0.06086 -0.07095,0.12101 -0.108928,0.180395 l -4.5e-5,4.4e-5 -4.5e-5,4.5e-5 c -7.64e-4,0.0012 -0.0015,0.0026 -0.0023,0.0036 -0.03885,0.0606 -0.07945,0.120413 -0.121821,0.179349 -0.04107,0.0571 -0.08389,0.113326 -0.12829,0.168718 -1.9e-5,2.4e-5 -2.1e-5,6.9e-5 -4.5e-5,9.4e-5 l -4.4e-5,4.5e-5 c -0.0014,0.0017 -0.0028,0.0034 -0.0041,0.0051 -0.04592,0.0571 -0.09356,0.113241 -0.143018,0.168377 -0.04743,0.05287 -0.09661,0.104766 -0.147309,0.155698 -0.0021,0.0021 -0.0043,0.0045 -0.0064,0.0066 -0.05289,0.05289 -0.106879,0.104019 -0.161887,0.153371 -0.05501,0.04935 -0.111042,0.09693 -0.168036,0.142762 -0.05697,0.04583 -0.114884,0.08991 -0.173692,0.132238 -0.05879,0.04231 -0.11847,0.08286 -0.178944,0.121651 -0.06047,0.03879 -0.121778,0.07582 -0.183767,0.111127 -0.06201,0.03531 -0.124746,0.06884 -0.188122,0.100646 -0.06338,0.03181 -0.127414,0.06188 -0.192029,0.09021 -0.06461,0.02833 -0.129783,0.0549 -0.195486,0.07975 v 0.0023 c 0.264154,0.09928 0.53632,0.171024 0.812221,0.213825 l 0.0019,2.62e-4 c 0.309564,0.04222 -0.53249,0.325753 -0.814152,0.457923 v 0.003 2.214022 0.0015 3.164914 c 0.659142,-0.309305 1.266533,-0.7321 1.791239,-1.256806 0.598033,-0.598033 1.050397,-1.286133 1.359638,-2.020243 0.213161,-0.506027 0.358954,-1.033715 0.435023,-1.569646 5.08e-4,-0.0034 8.9e-4,-0.0068 0.0014,-0.01003 0.07255,-0.51723 0.08084,-1.041639 0.02562,-1.560566 -0.07367,-0.692331 -0.260573,-1.374886 -0.561412,-2.017436 -0.03251,0.06944 -0.06662,0.138301 -0.101778,0.206757 -5.96e-4,0.0012 -0.0012,0.0023 -0.0018,0.0036 -0.0053,0.01046 -0.01046,0.02092 -0.0158,0.03119 -0.04162,0.07983 -0.08509,0.158963 -0.130339,0.237341 -0.04525,0.07838 -0.0923,0.156018 -0.141182,0.232821 -0.02293,0.03603 -0.04634,0.07187 -0.07006,0.10752 v 0 l -2.54e-4,-0.0021 c -0.04299,-0.277448 -0.115158,-0.551282 -0.215247,-0.816963 z" style="fill:#fd0808;stroke:#000000;stroke-width:0.0449237;font-variation-settings:normal;opacity:1;vector-effect:none;fill-opacity:0.443744;stroke-linecap:butt;stroke-linejoin:miter;stroke-miterlimit:4;stroke-dasharray:none;stroke-dashoffset:0;stroke-opacity:1;-inkscape-stroke:none;stop-color:#000000;stop-opacity:1" id="path3" sodipodi:nodetypes="csssccccsssccsssssssssscccscccccssscscscsssccccc" />
    <path d="m 79.943466,59.640412 c -0.296684,0.633207 -0.488147,1.314255 -0.563432,2.016251 -0.02395,0.223354 -0.03642,0.448776 -0.03642,0.675522 0,0.300986 0.02228,0.59958 0.06423,0.894127 1.11e-4,7.64e-4 2.05e-4,0.0016 3.05e-4,0.0023 0.07753,0.543055 0.225856,1.071254 0.43761,1.572763 0.315143,0.746371 0.772109,1.433064 1.356129,2.017086 0.525578,0.525576 1.134075,0.948997 1.794486,1.258429 0.0011,-5.08e-4 0.0023,-0.0011 0.0034,-0.0017 v -3.164917 c -6.89e-4,-2.56e-4 -0.0014,-5.1e-4 -0.0021,-7.64e-4 6.87e-4,-2.56e-4 0.0014,-5.1e-4 0.0021,-7.64e-4 v -2.213946 c -0.0011,-5.08e-4 -0.0021,-9.82e-4 -0.0032,-0.0015 h -4.5e-5 c -0.05012,-0.02348 -0.09932,-0.04886 -0.148802,-0.07366 -1.11e-4,-6.6e-5 -2.37e-4,-1.09e-4 -3.48e-4,-1.77e-4 -2.54e-4,-1.37e-4 -4.93e-4,-2.62e-4 -7.47e-4,-3.99e-4 -0.03691,-0.01857 -0.07409,-0.03637 -0.110637,-0.05559 -1.34e-4,-6.6e-5 -2.96e-4,-1.34e-4 -4.39e-4,-2.2e-4 -1.11e-4,-4.5e-5 -2.05e-4,-1.11e-4 -3.08e-4,-1.77e-4 -0.02858,-0.01494 -0.05667,-0.03095 -0.08489,-0.04668 -0.0096,-0.0053 -0.01942,-0.01067 -0.02905,-0.01601 -0.0021,-0.0012 -0.0045,-0.0026 -0.0066,-0.0036 -6.8e-5,-4.5e-5 -1.36e-4,-9.4e-5 -2.2e-4,-1.37e-4 -0.02286,-0.01259 -0.0456,-0.02544 -0.06831,-0.03838 -1.79e-4,-9.4e-5 -3.48e-4,-2.05e-4 -5.27e-4,-3.05e-4 -0.02199,-0.01238 -0.04408,-0.02444 -0.06585,-0.03721 -0.04417,-0.02589 -0.08775,-0.05275 -0.131299,-0.07971 -1.11e-4,-6.6e-5 -2.4e-4,-1.6e-4 -3.48e-4,-2.2e-4 -2.4e-5,-1.7e-5 -6.9e-5,-2.3e-5 -9.4e-5,-4.4e-5 -0.03994,-0.02472 -0.07971,-0.04967 -0.119111,-0.07529 -2.3e-4,-1.6e-4 -4.76e-4,-2.88e-4 -7.04e-4,-4.42e-4 -0.0079,-0.0051 -0.0158,-0.01046 -0.02361,-0.0158 -0.0088,-0.0058 -0.01793,-0.01046 -0.02662,-0.01622 0.278061,-0.04299 0.55263,-0.113987 0.818759,-0.214396 -2.05e-4,-6.7e-5 -4.08e-4,-1.78e-4 -6.13e-4,-2.63e-4 -1.77e-4,-6.8e-5 -3.82e-4,-1.62e-4 -5.68e-4,-2.22e-4 h -4.5e-5 c -0.02367,-0.009 -0.04735,-0.01772 -0.07089,-0.02715 -0.01238,-0.0049 -0.02457,-0.0098 -0.0368,-0.01473 -0.02647,-0.01089 -0.05264,-0.02256 -0.07892,-0.034 -2.22e-4,-9.4e-5 -4.42e-4,-1.77e-4 -6.62e-4,-2.62e-4 -2.65e-4,-1.11e-4 -5.27e-4,-2.4e-4 -7.9e-4,-3.48e-4 -0.0038,-0.0016 -0.0075,-0.0032 -0.01131,-0.0049 -1.6e-4,-6.6e-5 -3.22e-4,-1.6e-4 -4.82e-4,-2.2e-4 -9.4e-5,-4.5e-5 -1.8e-4,-9.4e-5 -2.65e-4,-1.36e-4 -0.05704,-0.02506 -0.113796,-0.05098 -0.169871,-0.07875 -0.01345,-0.0066 -0.02683,-0.01345 -0.04024,-0.02028 -0.03078,-0.01558 -0.06137,-0.03176 -0.09183,-0.04826 -0.01323,-0.0073 -0.02643,-0.0143 -0.03957,-0.02154 -0.0096,-0.0053 -0.019,-0.0111 -0.02843,-0.01644 l -4.5e-5,-4.5e-5 c -0.0051,-0.003 -0.01025,-0.006 -0.01537,-0.009 -3.82e-4,-2.2e-4 -7.56e-4,-4.42e-4 -0.0011,-6.62e-4 -0.02681,-0.01537 -0.05373,-0.03031 -0.08024,-0.04632 -0.02606,-0.0158 -0.0517,-0.03245 -0.07744,-0.04892 -6.8e-5,-4.5e-5 -1.62e-4,-9.4e-5 -2.2e-4,-1.36e-4 -6.8e-5,-4.5e-5 -1.62e-4,-9.2e-5 -2.22e-4,-1.35e-4 -0.0081,-0.0051 -0.01644,-0.01025 -0.02448,-0.01558 -0.0066,-0.0043 -0.01345,-0.0083 -0.02007,-0.01281 -0.01281,-0.0083 -0.02557,-0.01708 -0.03834,-0.02557 -0.02935,-0.01964 -0.05847,-0.03977 -0.08739,-0.06028 -0.0051,-0.0036 -0.01025,-0.0075 -0.01558,-0.0111 -1.77e-4,-1.37e-4 -3.48e-4,-2.63e-4 -5.25e-4,-4e-4 -1.37e-4,-9.4e-5 -2.63e-4,-1.79e-4 -3.99e-4,-2.62e-4 -0.0043,-0.003 -0.0085,-0.0062 -0.01302,-0.0092 -1.37e-4,-1.11e-4 -2.97e-4,-2.05e-4 -4.42e-4,-3.07e-4 -0.0021,-0.0016 -0.0045,-0.0032 -0.0066,-0.0047 -0.03975,-0.02884 -0.07926,-0.05825 -0.118193,-0.08871 -0.0096,-0.0075 -0.01878,-0.01558 -0.02835,-0.02312 l -4.4e-5,-4.5e-5 c -2.4e-5,-2.3e-5 -4.5e-5,-6.8e-5 -9.4e-5,-9.4e-5 -0.01366,-0.01089 -0.0272,-0.02218 -0.04079,-0.0333 -2.02e-4,-1.62e-4 -4.16e-4,-3.13e-4 -6.1e-4,-4.84e-4 -0.01537,-0.01259 -0.03082,-0.02474 -0.04602,-0.03755 -0.01089,-0.0092 -0.02169,-0.01857 -0.03251,-0.0279 -0.01195,-0.01046 -0.02382,-0.02113 -0.03575,-0.03163 -9.4e-5,-6.6e-5 -1.8e-4,-1.34e-4 -2.65e-4,-2.19e-4 -1.09e-4,-1.11e-4 -2.37e-4,-2.05e-4 -3.48e-4,-3.06e-4 -0.01452,-0.01281 -0.02899,-0.02536 -0.04331,-0.03834 -0.0013,-0.0011 -0.0026,-0.0021 -0.0038,-0.0034 -0.0111,-0.01003 -0.02226,-0.02007 -0.0333,-0.0304 -0.03684,-0.03426 -0.07337,-0.06903 -0.109249,-0.104894 -3.13e-4,-3.16e-4 -6.02e-4,-6.47e-4 -9.2e-4,-9.67e-4 -0.04816,-0.0482 -0.09448,-0.09751 -0.13973,-0.147458 -9.4e-5,-9.4e-5 -1.8e-4,-2.03e-4 -2.65e-4,-3.05e-4 -4.48e-4,-5.02e-4 -9.09e-4,-9.91e-4 -0.0014,-0.0015 -2.05e-4,-2.28e-4 -4.08e-4,-4.76e-4 -6.1e-4,-7.04e-4 -0.0055,-0.0062 -0.01131,-0.01217 -0.01665,-0.01814 l -9.4e-5,-9.2e-5 c -1.35e-4,-1.62e-4 -2.97e-4,-3.24e-4 -4.4e-4,-4.84e-4 -0.04352,-0.04871 -0.0854,-0.09834 -0.126176,-0.14859 -3.74e-4,-4.59e-4 -7.73e-4,-9.03e-4 -0.0011,-0.0014 -4.67e-4,-5.68e-4 -9.39e-4,-0.0011 -0.0014,-0.0017 -1.08e-4,-1.35e-4 -2.36e-4,-2.54e-4 -3.47e-4,-4e-4 -0.0049,-0.006 -0.0096,-0.01195 -0.0143,-0.01793 -1.37e-4,-1.79e-4 -2.97e-4,-3.48e-4 -4.42e-4,-5.27e-4 -1.35e-4,-1.63e-4 -2.63e-4,-3.23e-4 -3.99e-4,-4.85e-4 -0.04135,-0.0517 -0.08126,-0.104211 -0.11973,-0.157405 -4.23e-4,-5.94e-4 -8.88e-4,-0.0012 -0.0013,-0.0018 -3.05e-4,-4.23e-4 -6.1e-4,-8.47e-4 -9.22e-4,-0.0013 -6.6e-5,-9.4e-5 -1.09e-4,-1.79e-4 -1.77e-4,-2.65e-4 -0.0023,-0.0032 -0.0047,-0.0066 -0.007,-0.0098 -2.22e-4,-3.05e-4 -4.42e-4,-6.12e-4 -6.64e-4,-9.22e-4 -4.5e-5,-6.6e-5 -9.2e-5,-1.11e-4 -1.35e-4,-1.77e-4 -0.03556,-0.04963 -0.06942,-0.10007 -0.102482,-0.150873 -2.28e-4,-3.57e-4 -4.76e-4,-6.96e-4 -7.04e-4,-0.0011 -1.62e-4,-2.28e-4 -2.88e-4,-4.67e-4 -4.42e-4,-7.04e-4 -0.0079,-0.01217 -0.0158,-0.02416 -0.02348,-0.03633 -1.11e-4,-1.8e-4 -2.04e-4,-3.57e-4 -3.07e-4,-5.27e-4 -2.03e-4,-3.06e-4 -3.73e-4,-6.11e-4 -5.68e-4,-9.2e-4 -0.03379,-0.05326 -0.06639,-0.107029 -0.09749,-0.16144 -6.8e-5,-1.11e-4 -1.62e-4,-2.31e-4 -2.2e-4,-3.48e-4 v -4.5e-5 c -0.0023,-0.0041 -0.0047,-0.0083 -0.007,-0.01238 -1.62e-4,-2.73e-4 -2.82e-4,-5.61e-4 -4.42e-4,-8.32e-4 -6.8e-5,-1.11e-4 -1.11e-4,-2.37e-4 -1.79e-4,-3.48e-4 -0.03245,-0.05731 -0.06338,-0.115268 -0.09283,-0.173778 -2.22e-4,-4.24e-4 -4.42e-4,-8.49e-4 -6.61e-4,-0.0013 -2.4e-5,-6.8e-5 -6.9e-5,-1.11e-4 -9.4e-5,-1.79e-4 -7.99e-4,-0.0016 -0.0017,-0.0032 -0.0026,-0.0047 -1.79e-4,-3.48e-4 -3.48e-4,-7.05e-4 -5.27e-4,-0.0011 -0.03061,-0.06109 -0.05938,-0.122867 -0.08673,-0.185133 -2.39e-4,-5.43e-4 -5.1e-4,-0.0011 -7.47e-4,-0.0016 -9.4e-5,-1.77e-4 -1.79e-4,-3.48e-4 -2.65e-4,-5.25e-4 -9.71e-4,-0.0021 -0.0019,-0.0045 -0.003,-0.0066 -1.11e-4,-2.82e-4 -2.31e-4,-5.62e-4 -3.48e-4,-8.33e-4 -2.3e-5,-6.8e-5 -6.8e-5,-1.11e-4 -9.4e-5,-1.79e-4 -0.02749,-0.06303 -0.05381,-0.126453 -0.07796,-0.190534 -0.100284,0.265926 -0.171216,0.540267 -0.214177,0.818099 -0.05943,-0.08952 -0.115674,-0.180949 -0.170384,-0.273181 -0.0055,-0.0092 -0.0111,-0.01814 -0.01644,-0.02724 -0.0051,-0.0088 -0.01003,-0.01772 -0.01494,-0.02658 -0.0083,-0.0143 -0.01644,-0.02877 -0.02457,-0.04316 -1.7e-5,-2.1e-5 -2.3e-5,-6.8e-5 -4.7e-5,-9.4e-5 -2.1e-5,-6.6e-5 -4.5e-5,-1.09e-4 -9.1e-5,-1.77e-4 -0.01153,-0.02028 -0.02297,-0.04043 -0.03426,-0.06075 -1.09e-4,-2.02e-4 -2.03e-4,-4.16e-4 -3.05e-4,-6.1e-4 -1.6e-4,-2.9e-4 -3.22e-4,-5.87e-4 -4.85e-4,-8.8e-4 -0.0143,-0.02574 -0.0285,-0.05155 -0.04241,-0.07749 -0.0088,-0.0158 -0.0175,-0.03131 -0.02594,-0.04719 -0.0026,-0.0049 -0.0049,-0.0098 -0.0075,-0.01473 -0.04256,-0.08143 -0.08391,-0.163489 -0.122889,-0.24664 z" style="fill:#a00101;stroke:#000000;stroke-width:0.0449237;font-variation-settings:normal;opacity:1;vector-effect:none;fill-opacity:0.443744;stroke-linecap:butt;stroke-linejoin:miter;stroke-miterlimit:4;stroke-dasharray:none;stroke-dashoffset:0;stroke-opacity:1;-inkscape-stroke:none;stop-color:#000000;stop-opacity:1" id="path2" sodipodi:nodetypes="cssscsscccccccccccscccccccccsccccccccccssccssccssssccccsssccssscccccsscscccsscccsccsccccccccsssccccsssccccsccscccccscccccccsccccccccsccccscccsccc" />
  </g>
</svg>
