<?xml version="1.0" encoding="UTF-8" standalone="no"?>
<svg width="100" height="100" viewBox="0 0 26.458334 26.458334" version="1.1" id="svg10012" inkscape:version="1.3-alpha (9cd57a7883, 2023-05-01)" sodipodi:docname="tv.svg" xmlns:inkscape="http://www.inkscape.org/namespaces/inkscape" xmlns:sodipodi="http://sodipodi.sourceforge.net/DTD/sodipodi-0.dtd" xmlns="http://www.w3.org/2000/svg" xmlns:svg="http://www.w3.org/2000/svg" xmlns:rdf="http://www.w3.org/1999/02/22-rdf-syntax-ns#" xmlns:cc="http://creativecommons.org/ns#" xmlns:dc="http://purl.org/dc/elements/1.1/">
  <defs id="defs10006" />
  <sodipodi:namedview id="base" pagecolor="#ffffff" bordercolor="#666666" borderopacity="1.0" inkscape:pageopacity="0.0" inkscape:pageshadow="2" inkscape:zoom="5.6568542" inkscape:cx="57.452426" inkscape:cy="47.729708" inkscape:document-units="px" inkscape:current-layer="layer1" inkscape:document-rotation="0" showgrid="false" units="px" inkscape:window-width="1534" inkscape:window-height="843" inkscape:window-x="66" inkscape:window-y="20" inkscape:window-maximized="1" inkscape:showpageshadow="2" inkscape:pagecheckerboard="0" inkscape:deskcolor="#d1d1d1" />
  <metadata id="metadata10009">
    <rdf:RDF>
      <cc:Work rdf:about="">
        <dc:format>image/svg+xml</dc:format>
        <dc:type rdf:resource="http://purl.org/dc/dcmitype/StillImage" />
      </cc:Work>
    </rdf:RDF>
  </metadata>
  <g inkscape:label="Layer 1" inkscape:groupmode="layer" id="layer1" transform="translate(-70.005836,-46.768833)">
    <path style="color:#000000;font-style:normal;font-variant:normal;font-weight:normal;font-stretch:normal;font-size:medium;line-height:normal;font-family:sans-serif;font-variant-ligatures:normal;font-variant-position:normal;font-variant-caps:normal;font-variant-numeric:normal;font-variant-alternates:normal;font-variant-east-asian:normal;font-feature-settings:normal;font-variation-settings:normal;text-indent:0;text-align:start;text-decoration:none;text-decoration-line:none;text-decoration-style:solid;text-decoration-color:#000000;letter-spacing:normal;word-spacing:normal;text-transform:none;writing-mode:lr-tb;direction:ltr;text-orientation:mixed;dominant-baseline:auto;baseline-shift:baseline;text-anchor:start;white-space:normal;shape-padding:0;shape-margin:0;inline-size:0;clip-rule:nonzero;display:inline;overflow:visible;visibility:visible;opacity:0.2;isolation:auto;mix-blend-mode:normal;color-interpolation:sRGB;color-interpolation-filters:linearRGB;solid-color:#000000;solid-opacity:1;vector-effect:none;fill:#000000;fill-opacity:1;fill-rule:nonzero;stroke:none;stroke-width:0.0784929px;stroke-linecap:butt;stroke-linejoin:miter;stroke-miterlimit:4;stroke-dasharray:none;stroke-dashoffset:0;stroke-opacity:1;paint-order:stroke markers fill;color-rendering:auto;image-rendering:auto;shape-rendering:auto;text-rendering:auto;enable-background:accumulate;stop-color:#000000" d="m 93.818337,50.635938 -0.747716,0.0014 v 3.370632 1.919012 14.119813 h -0.48056 -18.465535 v 0.634822 h 19.693811 z" id="path9068" />
    <path style="color:#000000;font-style:normal;font-variant:normal;font-weight:normal;font-stretch:normal;font-size:medium;line-height:normal;font-family:sans-serif;font-variant-ligatures:normal;font-variant-position:normal;font-variant-caps:normal;font-variant-numeric:normal;font-variant-alternates:normal;font-variant-east-asian:normal;font-feature-settings:normal;font-variation-settings:normal;text-indent:0;text-align:start;text-decoration:none;text-decoration-line:none;text-decoration-style:solid;text-decoration-color:#000000;letter-spacing:normal;word-spacing:normal;text-transform:none;writing-mode:lr-tb;direction:ltr;text-orientation:mixed;dominant-baseline:auto;baseline-shift:baseline;text-anchor:start;white-space:normal;shape-padding:0;shape-margin:0;inline-size:0;clip-rule:nonzero;display:inline;overflow:visible;visibility:visible;opacity:0.7;isolation:auto;mix-blend-mode:normal;color-interpolation:sRGB;color-interpolation-filters:linearRGB;solid-color:#000000;solid-opacity:1;vector-effect:none;fill:#ffffff;fill-opacity:1;fill-rule:nonzero;stroke:none;stroke-width:0.351486;stroke-linecap:butt;stroke-linejoin:miter;stroke-miterlimit:4;stroke-dasharray:none;stroke-dashoffset:0;stroke-opacity:1;paint-order:stroke markers fill;color-rendering:auto;image-rendering:auto;shape-rendering:auto;text-rendering:auto;enable-background:accumulate;stop-color:#000000" d="m 73.093393,49.756372 v 0.0073 4.329057 1.919068 13.592465 h 0.03895 19.457292 0.0387 v -13.677398 -1.919015 -4.244177 -0.0073 z" id="path9037" />
    <path id="path9035" style="color:#000000;font-style:normal;font-variant:normal;font-weight:normal;font-stretch:normal;font-size:medium;line-height:normal;font-family:sans-serif;font-variant-ligatures:normal;font-variant-position:normal;font-variant-caps:normal;font-variant-numeric:normal;font-variant-alternates:normal;font-variant-east-asian:normal;font-feature-settings:normal;font-variation-settings:normal;text-indent:0;text-align:start;text-decoration:none;text-decoration-line:none;text-decoration-style:solid;text-decoration-color:#000000;letter-spacing:normal;word-spacing:normal;text-transform:none;writing-mode:lr-tb;direction:ltr;text-orientation:mixed;dominant-baseline:auto;baseline-shift:baseline;text-anchor:start;white-space:normal;shape-padding:0;shape-margin:0;inline-size:0;clip-rule:nonzero;display:inline;overflow:visible;visibility:visible;opacity:0.4;isolation:auto;mix-blend-mode:normal;color-interpolation:sRGB;color-interpolation-filters:linearRGB;solid-color:#000000;solid-opacity:1;vector-effect:none;fill:#000000;fill-opacity:1;fill-rule:nonzero;stroke:none;stroke-width:0.351486;stroke-linecap:butt;stroke-linejoin:miter;stroke-miterlimit:4;stroke-dasharray:none;stroke-dashoffset:0;stroke-opacity:1;paint-order:stroke markers fill;color-rendering:auto;image-rendering:auto;shape-rendering:auto;text-rendering:auto;enable-background:accumulate;stop-color:#000000" d="m 72.651671,49.31439 v 0.441826 0.0073 4.32963 1.918755 14.034603 h 0.480292 19.458098 0.480562 V 55.926637 54.007674 49.763497 49.31465 Z m 0.441586,0.441826 h 19.534969 v 0.0073 4.244437 1.919015 13.677398 H 92.589526 73.13223 73.09327 V 56.011882 54.092606 49.763497 Z" />
    <g inkscape:label="TV Test Pattern" style="fill:#ffffff;stroke:#000000;stroke-width:2" class="prefab" id="g2" transform="matrix(0.02542632,0,0,0.02542632,71.374158,48.456961)">&#10;  <path d="M 221.18319,93.383985 C 156.75047,93.384345 104.51753,145.61728 104.51718,210.05 104.51646,274.48348 156.74971,326.71761 221.18319,326.71797 285.61743,326.71869 337.85188,274.48424 337.85116,210.05 337.85081,145.61652 285.61667,93.383262 221.18319,93.383985 Z m 466.66797,1e-5 C 623.41769,93.383272 571.18355,145.61653 571.18319,210.05 571.18247,274.48424 623.41691,326.71869 687.85115,326.71797 752.28463,326.71762 804.51789,274.48348 804.51717,210.05 804.51681,145.61729 752.28387,93.384355 687.85116,93.383995 Z M 221.18319,560.05 c -64.43347,3.6e-4 -116.66673,52.23449 -116.66601,116.66796 3.5e-4,64.43272 52.23329,116.66566 116.66601,116.66602 64.43348,7.2e-4 116.66762,-52.23254 116.66797,-116.66602 C 337.85188,612.28372 285.61743,560.04928 221.18319,560.05 Z m 466.66796,0 c -64.43423,-7.2e-4 -116.66868,52.23373 -116.66796,116.66796 3.5e-4,64.43347 52.23449,116.66674 116.66796,116.66602 64.43272,-3.5e-4 116.66567,-52.2333 116.66602,-116.66602 C 804.51789,612.28449 752.28462,560.05035 687.85115,560.05 Z M 454.5172,93.384985 c -193.2989,5.3e-4 -349.9985,156.700095 -349.99904,349.998995 5.2e-4,193.2989 156.70011,349.9985 349.99902,349.99904 C 647.8161,793.3825 804.51571,636.68291 804.51624,443.384 804.51571,250.0851 647.81611,93.385515 454.5172,93.384985 Z m 0,116.664825 C 583.38432,210.04934 687.85187,314.5169 687.85139,443.384 687.85186,572.25111 583.3843,676.71866 454.51718,676.71818 325.65007,676.71864 221.18252,572.25108 221.18301,443.38398 221.18254,314.51688 325.65009,210.04934 454.5172,210.04981 Z m 0,116.6671 c -64.43355,-2.4e-4 -116.66733,52.23353 -116.6671,116.66708 -2.3e-4,64.43354 52.23354,116.66731 116.66709,116.66708 64.43355,2.4e-4 116.66734,-52.23352 116.66711,-116.66707 2.4e-4,-64.43355 -52.23354,-116.66733 -116.6671,-116.66709 z M 104.51719,93.384005 l 700.00001,2e-5 -2e-5,699.999955 -700.00001,-2e-5 z m 1e-5,0 -2e-5,699.999955 116.66667,10e-6 2e-5,-699.999965 z m 233.33334,0 -2e-5,699.999965 116.66666,10e-6 3e-5,-699.999965 z m 233.33333,1e-5 -2e-5,699.999975 h 116.66667 l 3e-5,-699.999975 z m -466.6667,699.999945 2e-5,-699.999955 700.00001,2e-5 -2e-5,699.999955 z m 1e-5,0 700,2e-5 2e-5,-116.66665 -700.00002,-3e-5 z m 0,-233.33332 700.00002,3e-5 V 443.384 l -700.00001,-2e-5 z m 1e-5,-233.33332 700.00002,2e-5 V 210.05068 l -700.00002,-2e-5 z M 454.51717,443.38398 804.5172,93.384035 l -2e-5,699.999945 z m -349.99999,349.99998 2e-5,-699.999955 349.99999,349.999985 z" id="path1" style="vector-effect:non-scaling-stroke;fill:none;fill-opacity:1;stroke:#00349c;stroke-opacity:1;-inkscape-stroke:hairline" />
&#10;</g>
    <path d="m 82.930865,53.797779 c -1.081462,-4e-6 -2.093367,0.292348 -2.966438,0.797899 -0.04326,0.02504 -0.08785,0.048 -0.130412,0.0741 -3.38e-4,0.0011 -7.51e-4,0.0021 -0.0011,0.0034 -0.0032,0.01038 -0.0072,0.02023 -0.01028,0.03048 -4.51e-4,0.0014 -9.9e-4,0.0028 -0.0015,0.0042 -0.02292,0.07113 -0.04881,0.140848 -0.07682,0.209511 -0.0081,0.01961 -0.01581,0.03923 -0.02413,0.05861 -0.03228,0.07446 -0.06719,0.147467 -0.105223,0.218607 -5.2e-5,7.6e-5 -1.07e-4,1.55e-4 -1.54e-4,2.49e-4 -0.0091,0.01687 -0.01876,0.03316 -0.0281,0.04982 -7.6e-5,1.24e-4 -1.84e-4,2.58e-4 -2.51e-4,3.94e-4 -0.03445,0.06148 -0.0709,0.1216 -0.109499,0.180271 -7.7e-5,1.23e-4 -1.54e-4,2.7e-4 -2.51e-4,3.94e-4 -0.0051,0.0076 -0.0097,0.01539 -0.01476,0.02289 -0.0042,0.0068 -0.0087,0.0135 -0.01307,0.02023 -0.04537,0.06641 -0.09375,0.130497 -0.14422,0.192878 -0.0015,0.0019 -0.0032,0.0036 -0.0047,0.0055 -0.01223,0.01497 -0.02473,0.02979 -0.03725,0.04459 -0.02407,0.02846 -0.04838,0.05665 -0.07349,0.08418 -0.02688,0.02981 -0.05431,0.05905 -0.08254,0.08759 -5.58e-4,5.68e-4 -0.0011,0.0012 -0.0016,0.0017 -0.0064,0.0064 -0.01244,0.01265 -0.01897,0.01897 -2.51e-4,2.49e-4 -5e-4,5e-4 -7.51e-4,7.49e-4 -0.02829,0.02804 -0.05743,0.0552 -0.087,0.08188 -0.06898,0.06308 -0.140995,0.122781 -0.215729,0.179175 -0.01644,0.01265 -0.03335,0.02477 -0.05015,0.037 -0.107433,0.0776 -0.219828,0.148606 -0.337395,0.211505 -0.02551,0.0137 -0.05152,0.02637 -0.07748,0.03927 -0.0175,0.0087 -0.03482,0.01729 -0.05243,0.02553 -0.02939,0.01391 -0.05888,0.02756 -0.0888,0.04052 -0.01961,0.0085 -0.03951,0.01644 -0.05935,0.02447 -2.4e-5,1.5e-5 -7.7e-5,2.6e-5 -1.07e-4,5.1e-5 -7.6e-5,2.1e-5 -1.24e-4,2.5e-5 -2e-4,5.1e-5 -0.06615,0.02698 -0.133322,0.05186 -0.201774,0.0741 -0.0015,4.81e-4 -0.003,0.0011 -0.0044,0.0016 -0.002,6.63e-4 -0.004,0.0014 -0.0061,0.0021 -0.01049,0.0034 -0.02087,0.0074 -0.03139,0.01075 -0.0011,3.27e-4 -0.0021,7.22e-4 -0.0032,10e-4 -0.02637,0.043 -0.05173,0.08669 -0.07703,0.130412 -0.505042,0.872753 -0.794924,1.88556 -0.794922,2.966435 -4e-6,1.080882 0.28992,2.093635 0.79497,2.966388 0.0253,0.04372 0.05064,0.08745 0.07703,0.130455 0.0011,3.35e-4 0.0021,7.48e-4 0.0034,0.0011 0.01038,0.0032 0.02024,0.0072 0.03048,0.01038 0.0014,4.53e-4 0.0028,9.88e-4 0.0042,0.0015 0.07113,0.02292 0.140848,0.04881 0.209511,0.07682 0.01961,0.0081 0.03923,0.01581 0.05861,0.02413 0.07444,0.03226 0.147383,0.06719 0.218507,0.105244 0.01729,0.0093 0.03382,0.01919 0.05081,0.02865 1.05e-4,5.1e-5 2.03e-4,1.05e-4 2.97e-4,1.54e-4 0.06133,0.03439 0.121284,0.07079 0.179828,0.109309 0.01433,0.0095 0.02918,0.01834 0.04341,0.02807 7.7e-5,5.1e-5 1.53e-4,1.25e-4 2.5e-4,2.03e-4 0.06613,0.0452 0.129927,0.09341 0.192077,0.143673 1.53e-4,1.23e-4 3.37e-4,2.29e-4 5e-4,3.45e-4 0.01687,0.0137 0.03348,0.02775 0.05011,0.04181 2e-4,1.84e-4 4.32e-4,3.65e-4 6.43e-4,5.48e-4 0.02805,0.02374 0.05584,0.04775 0.08298,0.0725 0.03013,0.02717 0.05974,0.0549 0.08859,0.08342 l 2.98e-4,3e-4 c 0.0018,0.0018 0.0036,0.0036 0.0053,0.0053 0.0036,0.0036 0.0072,0.0072 0.01075,0.01075 0.0019,0.0019 0.0038,0.0038 0.0057,0.0057 0.05458,0.05515 0.106336,0.112956 0.15649,0.172216 0.01412,0.01666 0.02811,0.03318 0.0418,0.05011 0.0034,0.0042 0.0064,0.0087 0.0095,0.01286 7.7e-5,7.6e-5 1.25e-4,1.92e-4 2.03e-4,2.89e-4 0.01919,0.02394 0.03664,0.04905 0.05507,0.0736 0.02665,0.03525 0.05443,0.06962 0.07942,0.106169 0.0097,0.01412 0.01855,0.02899 0.02805,0.0434 0.01059,0.01602 0.01961,0.03286 0.02985,0.04905 7.6e-5,9.7e-5 1.54e-4,2.89e-4 2.5e-4,3.84e-4 0.01855,0.02952 0.03667,0.05916 0.05422,0.08934 5.1e-5,7.8e-5 1.05e-4,1.94e-4 1.54e-4,2.89e-4 0.0081,0.01391 0.01708,0.02707 0.02498,0.04106 0.0095,0.01708 0.0194,0.03363 0.02865,0.05081 0.02178,0.04074 0.04044,0.08327 0.06023,0.125142 7.8e-5,1.92e-4 1.83e-4,2.88e-4 2.51e-4,4.8e-4 0.01286,0.02705 0.02686,0.05329 0.03893,0.0808 0.0018,0.004 0.004,0.0081 0.0059,0.01201 0.0085,0.0194 0.01623,0.03902 0.02413,0.05861 0.02858,0.07001 0.05501,0.141121 0.07828,0.21369 0.0034,0.01028 0.0072,0.02023 0.01028,0.03048 3.36e-4,0.0011 7.49e-4,0.0021 0.0011,0.0034 0.04257,0.0261 0.08715,0.04906 0.130412,0.07411 0.87228,0.505093 1.883153,0.797323 2.963505,0.79785 h 0.003 0.003 c 1.079761,-5.77e-4 2.091458,-0.290334 2.963406,-0.794919 0.04372,-0.0253 0.08745,-0.05064 0.130455,-0.07703 3.83e-4,-0.0011 7.67e-4,-0.0021 0.0011,-0.0034 0.0032,-0.01038 0.0072,-0.02023 0.01038,-0.03048 5.1e-5,-1.92e-4 1.92e-4,-2.89e-4 1.92e-4,-4.81e-4 0.02321,-0.07239 0.04956,-0.143335 0.07807,-0.213193 0.0081,-0.01961 0.01581,-0.03923 0.02413,-0.05861 0.0018,-0.0042 0.004,-0.0081 0.0059,-0.01201 0.01201,-0.02749 0.02605,-0.05373 0.03893,-0.0808 0.01982,-0.04204 0.03863,-0.08474 0.06048,-0.125647 0.0093,-0.01729 0.01919,-0.03382 0.02865,-0.05081 5.2e-5,-9.7e-5 9.6e-5,-1.91e-4 1.94e-4,-2.89e-4 0.0078,-0.01412 0.01708,-0.02737 0.02513,-0.04132 0.0175,-0.03018 0.03567,-0.05978 0.05428,-0.08928 0.01028,-0.01623 0.0194,-0.0332 0.0299,-0.0492 0.0095,-0.01433 0.01834,-0.02918 0.02806,-0.0434 5.1e-5,-7.6e-5 9.7e-5,-9.7e-5 1.92e-4,-1.92e-4 0.02494,-0.0365 0.05266,-0.07079 0.07927,-0.105978 0.01834,-0.02454 0.0359,-0.04964 0.05507,-0.0736 0.0034,-0.0042 0.0064,-0.0089 0.0097,-0.01307 0.0015,-0.0019 0.003,-0.0036 0.0047,-0.0055 0.01223,-0.01497 0.02473,-0.02981 0.03725,-0.04459 0.05003,-0.05914 0.101696,-0.116793 0.156133,-0.171817 9.6e-5,-1.26e-4 1.92e-4,-2.7e-4 3.83e-4,-3.94e-4 l 1.94e-4,-2.02e-4 c 0.0018,-0.0018 0.0036,-0.0036 0.0055,-0.0055 0.0036,-0.0036 0.0072,-0.0072 0.01075,-0.01075 0.0018,-0.0018 0.0036,-0.0036 0.0053,-0.0053 l 9.7e-5,-1.06e-4 1.92e-4,-2.02e-4 c 7.5e-5,-7.5e-5 1.92e-4,-1.24e-4 2.88e-4,-2.02e-4 l 1.92e-4,-1.54e-4 c 0.0011,-0.0011 0.0023,-0.0021 0.0034,-0.0032 0.02756,-0.02715 0.05576,-0.05363 0.08448,-0.07956 0.02728,-0.02488 0.0552,-0.049 0.08338,-0.07286 1.92e-4,-1.83e-4 3.84e-4,-3.75e-4 5.76e-4,-5.48e-4 0.01665,-0.01412 0.03316,-0.0281 0.05011,-0.04181 1.92e-4,-1.26e-4 3.83e-4,-2.31e-4 4.79e-4,-3.45e-4 0.06217,-0.05028 0.125964,-0.09852 0.192139,-0.143715 7.6e-5,-5.1e-5 9.8e-5,-1.05e-4 1.94e-4,-1.53e-4 0.0083,-0.0055 0.01665,-0.01075 0.02492,-0.01623 0.0038,-0.0025 0.0076,-0.0049 0.01139,-0.0074 0.0023,-0.0016 0.0049,-0.0032 0.0072,-0.0047 0.05829,-0.03835 0.118016,-0.0746 0.179069,-0.108866 2.89e-4,-1.54e-4 4.81e-4,-3.07e-4 7.69e-4,-4.54e-4 9.6e-5,-4.9e-5 1.92e-4,-1.05e-4 2.9e-4,-1.51e-4 0.0156,-0.0087 0.03078,-0.01771 0.04638,-0.02617 0.0014,-7.12e-4 0.0025,-0.0015 0.004,-0.0023 1.91e-4,-7.5e-5 2.88e-4,-1.54e-4 4.81e-4,-2.48e-4 0.07113,-0.03805 0.144072,-0.07296 0.218506,-0.105244 0.0194,-0.0085 0.039,-0.01623 0.05861,-0.02413 0.06987,-0.0285 0.140785,-0.05486 0.213193,-0.07807 1.92e-4,-5.1e-5 2.88e-4,-1.53e-4 4.8e-4,-2.01e-4 0.01038,-0.0034 0.02023,-0.0072 0.03048,-0.01038 0.0011,-3.37e-4 0.0021,-7.5e-4 0.0034,-0.0011 0.02637,-0.04302 0.05171,-0.08674 0.07703,-0.130454 0.5046,-0.871986 0.794418,-1.883743 0.794919,-2.963557 v -0.0028 -0.0028 c -4.8e-4,-1.079831 -0.290307,-2.091612 -0.794919,-2.963607 -0.0253,-0.04372 -0.05066,-0.0874 -0.07703,-0.130412 -0.0011,-3.36e-4 -0.0021,-7.49e-4 -0.0034,-0.0011 -0.01028,-0.0032 -0.02023,-0.0072 -0.03048,-0.01038 -2.6e-5,-1.3e-5 -7.5e-5,-2.5e-5 -9.4e-5,-5.1e-5 -2.8e-5,-1.3e-5 -7.9e-5,-5.1e-5 -9.8e-5,-5.1e-5 -9.6e-5,-2.5e-5 -1.92e-4,-7.8e-5 -2.88e-4,-1.05e-4 -0.07239,-0.02321 -0.143336,-0.04956 -0.213195,-0.07807 -0.01961,-0.0081 -0.03921,-0.01581 -0.05861,-0.02413 -0.02981,-0.01286 -0.0592,-0.02656 -0.0885,-0.04044 -0.01813,-0.0087 -0.0361,-0.01729 -0.05403,-0.02626 -0.02545,-0.01265 -0.05096,-0.02515 -0.07598,-0.03853 -0.01729,-0.0093 -0.03382,-0.01919 -0.05081,-0.02865 -9.7e-5,-5.1e-5 -1.92e-4,-1.06e-4 -2.89e-4,-1.55e-4 -2.88e-4,-1.52e-4 -4.81e-4,-3.05e-4 -7.67e-4,-4.5e-4 -7.6e-5,-5.1e-5 -1.94e-4,-1.06e-4 -2.89e-4,-1.55e-4 -0.06097,-0.03422 -0.120609,-0.07041 -0.178837,-0.108697 -0.01434,-0.0095 -0.02918,-0.01834 -0.04341,-0.02806 -7.6e-5,-5.1e-5 -9.7e-5,-1.06e-4 -1.91e-4,-1.51e-4 -0.02045,-0.01391 -0.04018,-0.02875 -0.06023,-0.04319 -0.01855,-0.01349 -0.03716,-0.02692 -0.05542,-0.04081 -0.0257,-0.0194 -0.05115,-0.03915 -0.0762,-0.05939 -2.88e-4,-2e-4 -5.75e-4,-4.32e-4 -7.69e-4,-6.43e-4 -0.0018,-0.0015 -0.0036,-0.0032 -0.0055,-0.0047 -0.0097,-0.0081 -0.0194,-0.01602 -0.02905,-0.02424 -0.0053,-0.0044 -0.01028,-0.0087 -0.0156,-0.01307 -1.94e-4,-1.83e-4 -3.86e-4,-3.75e-4 -5.77e-4,-5.48e-4 -0.02829,-0.02395 -0.05631,-0.04817 -0.08367,-0.07315 -5.1e-5,-5.1e-5 -9.4e-5,-1.06e-4 -1.91e-4,-1.54e-4 -0.02783,-0.02513 -0.05515,-0.05083 -0.08188,-0.07712 -9.61e-4,-9.13e-4 -0.0019,-0.0018 -0.0028,-0.0028 -8.64e-4,-8.46e-4 -0.0018,-0.0016 -0.0025,-0.0025 -9.5e-5,-1.25e-4 -2.87e-4,-2.3e-4 -3.84e-4,-3.45e-4 l -1.92e-4,-2.02e-4 -9.6e-5,-1.07e-4 c -0.0072,-0.0072 -0.01433,-0.01433 -0.02161,-0.02161 l -1.91e-4,-2e-4 c -5.1e-5,-5e-5 -9.6e-5,-1.26e-4 -1.92e-4,-2.03e-4 l -1.92e-4,-2.02e-4 c -0.0018,-0.0018 -0.0034,-0.0036 -0.0051,-0.0055 -0.02629,-0.02675 -0.05199,-0.05405 -0.07712,-0.08188 -0.02521,-0.02764 -0.04967,-0.05588 -0.07385,-0.08448 -0.01412,-0.01666 -0.02811,-0.03316 -0.0418,-0.05011 -0.05041,-0.06229 -0.09875,-0.126323 -0.144074,-0.192624 -5e-5,-7.7e-5 -9.4e-5,-1.25e-4 -1.92e-4,-2.01e-4 -0.0055,-0.0083 -0.01075,-0.01665 -0.01623,-0.02492 -0.0025,-0.0038 -0.0049,-0.0076 -0.0074,-0.01139 -0.0016,-0.0023 -0.0032,-0.0049 -0.0047,-0.0072 -0.03835,-0.05829 -0.07461,-0.118016 -0.108866,-0.179069 -1.92e-4,-2.51e-4 -2.89e-4,-4.89e-4 -4.81e-4,-7.5e-4 -5.1e-5,-1.06e-4 -9.5e-5,-2e-4 -1.91e-4,-2.98e-4 -0.0087,-0.01561 -0.01771,-0.03078 -0.02617,-0.04638 -6.73e-4,-0.0014 -0.0015,-0.0025 -0.0023,-0.004 -7.7e-5,-1.53e-4 -1.92e-4,-3.34e-4 -2.88e-4,-4.99e-4 -0.03803,-0.07113 -0.07296,-0.144052 -0.105224,-0.218507 -0.0085,-0.0194 -0.01623,-0.03902 -0.02413,-0.05861 -0.0285,-0.06987 -0.05486,-0.140785 -0.07807,-0.213194 -4.9e-5,-1.78e-4 -1.91e-4,-3.25e-4 -1.91e-4,-4.96e-4 -0.0034,-0.01038 -0.0072,-0.02024 -0.01038,-0.03048 -3.83e-4,-0.0011 -7.68e-4,-0.0021 -0.0011,-0.0034 -0.043,-0.02637 -0.08674,-0.05171 -0.130455,-0.07703 -0.87273,-0.505103 -1.885481,-0.795027 -2.966363,-0.795025 z m -2.966438,2.966388 h 2.966438 2.966385 v 2.966435 2.966388 h -2.966385 -2.966438 v -2.966388 z" style="fill:#2d2d2d;stroke:#000000;stroke-width:0.0508527;fill-opacity:0.18560609" id="path6" sodipodi:nodetypes="csccscsccccccccsscscscsccccsccscccsssscccsccscsssccsscsccccssssssscccssscccssccssssscsscsscsccssccsccccsscccscsscsssscsssccccscscccsccccccssccscsscsscsscccssccsccccssccccsccccscscsccssscsscssscccsccccccssccscsccccccccccc" />
    <path d="m 76.998042,62.69699 c -0.819722,4e-6 -1.561767,0.332482 -2.098664,0.869956 -0.536145,0.536722 -0.86772,1.277866 -0.867724,2.096431 v 5.1e-5 c 4e-6,0.819143 0.332005,1.560761 0.868816,2.097571 0.536809,0.536809 1.278427,0.868809 2.097572,0.868814 0.818584,1e-5 1.559698,-0.331617 2.096429,-0.867772 0.537051,-0.536474 0.869427,-1.27773 0.869956,-2.096678 v -0.002 -0.0025 c -2.59e-4,-0.302556 -0.04598,-0.594423 -0.130412,-0.86936 -0.143883,-0.468492 -0.400654,-0.887527 -0.738556,-1.225429 -0.337901,-0.337903 -0.756936,-0.594674 -1.225429,-0.738556 -0.275737,-0.08468 -0.568492,-0.130453 -0.871992,-0.130453 z" style="fill:#2d2d2d;stroke:#000000;stroke-width:0.0508527;fill-opacity:0.18560609" id="path5" sodipodi:nodetypes="ssssscsscssssss" />
    <path d="m 88.863637,62.69699 c -0.303483,2e-6 -0.596219,0.04579 -0.871944,0.130454 -0.468493,0.143884 -0.887526,0.400652 -1.225429,0.738555 -0.337902,0.337902 -0.594674,0.756935 -0.738556,1.22543 -0.08468,0.275723 -0.130454,0.568461 -0.130454,0.871944 v 5.1e-5 c 7e-6,0.81972 0.332532,1.561713 0.870009,2.098612 0.53672,0.536145 1.277814,0.867768 2.096378,0.867772 h 5.1e-5 c 0.819145,-4e-6 1.560763,-0.332004 2.097572,-0.868813 0.53681,-0.53681 0.868811,-1.278429 0.868816,-2.097571 v -5.1e-5 c -5e-6,-0.818565 -0.331578,-1.559709 -0.867723,-2.096431 v 0 C 90.425458,63.029465 89.683414,62.69699 88.863692,62.696985 Z" style="fill:#2d2d2d;stroke:#000000;stroke-width:0.0508527;fill-opacity:0.18560609" id="path4" sodipodi:nodetypes="ssssssssssssccss" />
    <path d="m 88.897751,50.80486 c -0.818564,5e-6 -1.559658,0.33158 -2.096378,0.867724 -0.537477,0.536899 -0.870002,1.278943 -0.870009,2.098663 -2e-6,0.303501 0.04577,0.596255 0.130454,0.871993 0.143884,0.468495 0.400653,0.887528 0.738555,1.22543 0.337905,0.337903 0.756937,0.594673 1.22543,0.738554 0.274923,0.08444 0.566774,0.130138 0.869313,0.130413 h 0.0025 0.002 c 0.818925,-5.29e-4 1.560209,-0.332887 2.096678,-0.869908 0.536185,-0.536737 0.867782,-1.27787 0.867771,-2.09648 -2e-6,-0.819142 -0.332004,-1.560761 -0.868813,-2.097571 -0.53681,-0.536809 -1.278428,-0.868811 -2.097571,-0.868815 z" style="fill:#2d2d2d;stroke:#000000;stroke-width:0.0508527;fill-opacity:0.18560609" id="path3" sodipodi:nodetypes="ssssssscsscsss" />
    <path d="m 76.998042,50.831392 c -0.819145,5e-6 -1.560763,0.332007 -2.097572,0.868816 -0.536811,0.53681 -0.868812,1.278428 -0.868816,2.097571 -8e-6,0.818584 0.331569,1.559699 0.867724,2.096429 0.536474,0.537052 1.277777,0.869428 2.096726,0.869959 h 0.0019 0.0025 c 0.302539,-2.6e-4 0.594387,-0.04598 0.869311,-0.130413 0.468503,-0.143883 0.887567,-0.400602 1.225478,-0.738504 v -5e-5 c 0.337899,-0.337898 0.594675,-0.756941 0.738554,-1.22543 0.08444,-0.274939 0.130138,-0.566805 0.130413,-0.869361 v -0.0025 -0.002 c -5.29e-4,-0.818949 -0.332907,-1.560254 -0.869959,-2.096727 -0.536729,-0.536154 -1.277845,-0.867731 -2.096429,-0.867723 z" style="fill:#2d2d2d;stroke:#000000;stroke-width:0.0508527;fill-opacity:0.18560609" id="path2" sodipodi:nodetypes="cscssccsccsccsscc" />
  </g>
</svg>
