<?xml version="1.0" encoding="UTF-8" standalone="no"?>
<svg
   width="100"
   height="100"
   viewBox="0 0 26.458334 26.458334"
   version="1.1"
   id="svg10012"
   inkscape:version="1.3-dev (6dc8e11a42, 2022-04-29, custom)"
   sodipodi:docname="custom.svg"
   xml:space="preserve"
   xmlns:inkscape="http://www.inkscape.org/namespaces/inkscape"
   xmlns:sodipodi="http://sodipodi.sourceforge.net/DTD/sodipodi-0.dtd"
   xmlns="http://www.w3.org/2000/svg"
   xmlns:svg="http://www.w3.org/2000/svg"
   xmlns:rdf="http://www.w3.org/1999/02/22-rdf-syntax-ns#"
   xmlns:cc="http://creativecommons.org/ns#"
   xmlns:dc="http://purl.org/dc/elements/1.1/"><defs
     id="defs10006" /><sodipodi:namedview
     id="base"
     pagecolor="#ffffff"
     bordercolor="#666666"
     borderopacity="1.0"
     inkscape:pageopacity="0.0"
     inkscape:pageshadow="2"
     inkscape:zoom="7.9195959"
     inkscape:cx="81.948626"
     inkscape:cy="58.083772"
     inkscape:document-units="px"
     inkscape:current-layer="g19"
     inkscape:document-rotation="0"
     showgrid="false"
     units="px"
     inkscape:window-width="1534"
     inkscape:window-height="843"
     inkscape:window-x="66"
     inkscape:window-y="20"
     inkscape:window-maximized="1"
     inkscape:showpageshadow="2"
     inkscape:pagecheckerboard="0"
     inkscape:deskcolor="#d1d1d1" /><metadata
     id="metadata10009"><rdf:RDF><cc:Work
         rdf:about=""><dc:format>image/svg+xml</dc:format><dc:type
           rdf:resource="http://purl.org/dc/dcmitype/StillImage" /><dc:title /></cc:Work></rdf:RDF></metadata><g
     inkscape:label="Layer 1"
     inkscape:groupmode="layer"
     id="layer1"
     transform="translate(-70.005836,-46.768833)"><g
       id="g2969"
       transform="matrix(2.5155261,0,0,2.5155261,-852.83529,-1171.156)"
       style="display:inline;stroke-width:0.397531"><g
         id="g2960"
         transform="matrix(0,1,1,0,-57.10174,41.93237)"
         style="stroke-width:0.397531"><g
           id="g19"
           transform="matrix(0.20316495,0,0,0.20316495,352.16806,337.56285)"><path
             id="path2948"
             style="font-variation-settings:normal;opacity:0.2;vector-effect:none;fill:#000000;fill-opacity:1;stroke:none;stroke-width:0.150919px;stroke-linecap:butt;stroke-linejoin:miter;stroke-miterlimit:4;stroke-dasharray:none;stroke-dashoffset:0;stroke-opacity:1;paint-order:stroke markers fill;stop-color:#000000"
             d="m 450.33648,468.83217 0.003,-1.44763 h 38.23901 v -0.92553 -30.20974 h 1.31334 v 32.5829 z"
             sodipodi:nodetypes="cccccccc" /><path
             id="path2950"
             style="color:#000000;font-style:normal;font-variant:normal;font-weight:normal;font-stretch:normal;font-size:medium;line-height:normal;font-family:sans-serif;font-variant-ligatures:normal;font-variant-position:normal;font-variant-caps:normal;font-variant-numeric:normal;font-variant-alternates:normal;font-variant-east-asian:normal;font-feature-settings:normal;font-variation-settings:normal;text-indent:0;text-align:start;text-decoration:none;text-decoration-line:none;text-decoration-style:solid;text-decoration-color:#000000;letter-spacing:normal;word-spacing:normal;text-transform:none;writing-mode:lr-tb;direction:ltr;text-orientation:mixed;dominant-baseline:auto;baseline-shift:baseline;text-anchor:start;white-space:normal;shape-padding:0;shape-margin:0;inline-size:0;clip-rule:nonzero;display:inline;overflow:visible;visibility:visible;opacity:0.4;isolation:auto;mix-blend-mode:normal;color-interpolation:sRGB;color-interpolation-filters:linearRGB;solid-color:#000000;solid-opacity:1;vector-effect:none;fill:#000000;fill-opacity:1;fill-rule:nonzero;stroke:none;stroke-width:0.675803;stroke-linecap:butt;stroke-linejoin:miter;stroke-miterlimit:4;stroke-dasharray:none;stroke-dashoffset:0;stroke-opacity:1;paint-order:stroke markers fill;color-rendering:auto;image-rendering:auto;shape-rendering:auto;text-rendering:auto;enable-background:accumulate;stop-color:#000000"
             d="m 448.47519,433.44944 h 0.84955 39.2523 v 0.92605 32.08352 0.92553 h -40.10185 z m 0.84955,0.85112 v 32.23338 h 38.40275 v -0.0744 -32.08404 -0.0749 z"
             sodipodi:nodetypes="ccccccccccccccc" /><path
             style="color:#000000;font-style:normal;font-variant:normal;font-weight:normal;font-stretch:normal;font-size:medium;line-height:normal;font-family:sans-serif;font-variant-ligatures:normal;font-variant-position:normal;font-variant-caps:normal;font-variant-numeric:normal;font-variant-alternates:normal;font-variant-east-asian:normal;font-feature-settings:normal;font-variation-settings:normal;text-indent:0;text-align:start;text-decoration:none;text-decoration-line:none;text-decoration-style:solid;text-decoration-color:#000000;letter-spacing:normal;word-spacing:normal;text-transform:none;writing-mode:lr-tb;direction:ltr;text-orientation:mixed;dominant-baseline:auto;baseline-shift:baseline;text-anchor:start;white-space:normal;shape-padding:0;shape-margin:0;inline-size:0;clip-rule:nonzero;display:inline;overflow:visible;visibility:visible;opacity:0.7;isolation:auto;mix-blend-mode:normal;color-interpolation:sRGB;color-interpolation-filters:linearRGB;solid-color:#000000;solid-opacity:1;vector-effect:none;fill:#ffffff;fill-opacity:1;fill-rule:nonzero;stroke:none;stroke-width:0.675803;stroke-linecap:butt;stroke-linejoin:miter;stroke-miterlimit:4;stroke-dasharray:none;stroke-dashoffset:0;stroke-opacity:1;paint-order:stroke markers fill;color-rendering:auto;image-rendering:auto;shape-rendering:auto;text-rendering:auto;enable-background:accumulate;stop-color:#000000"
             d="m 449.32492,434.30041 h 38.40274 v 0.0749 32.08404 0.0744 h -38.40274 z"
             id="path2952"
             sodipodi:nodetypes="ccccccc" /><path
             id="path2954"
             style="color:#000000;font-style:normal;font-variant:normal;font-weight:normal;font-stretch:normal;font-size:medium;line-height:normal;font-family:sans-serif;font-variant-ligatures:normal;font-variant-position:normal;font-variant-caps:normal;font-variant-numeric:normal;font-variant-alternates:normal;font-variant-east-asian:normal;font-feature-settings:normal;font-variation-settings:normal;text-indent:0;text-align:start;text-decoration:none;text-decoration-line:none;text-decoration-style:solid;text-decoration-color:#000000;letter-spacing:normal;word-spacing:normal;text-transform:none;writing-mode:lr-tb;direction:ltr;text-orientation:mixed;dominant-baseline:auto;baseline-shift:baseline;text-anchor:start;white-space:normal;shape-padding:0;shape-margin:0;inline-size:0;clip-rule:nonzero;display:inline;overflow:visible;visibility:visible;opacity:0.4;isolation:auto;mix-blend-mode:normal;color-interpolation:sRGB;color-interpolation-filters:linearRGB;solid-color:#000000;solid-opacity:1;vector-effect:none;fill:#000000;fill-opacity:1;fill-rule:nonzero;stroke:none;stroke-width:0.397531;stroke-linecap:butt;stroke-linejoin:miter;stroke-miterlimit:4;stroke-dasharray:none;stroke-dashoffset:0;stroke-opacity:1;paint-order:stroke markers fill;color-rendering:auto;image-rendering:auto;shape-rendering:auto;text-rendering:auto;enable-background:accumulate;stop-color:#000000"
             d="m 451.0276,435.80485 h 0.50022 34.4956 v 0.56638 28.09152 0.56637 H 451.0276 Z m 0.50125,0.50075 v 28.22278 h 33.99485 v -0.0651 -28.09204 -0.0656 z"
             sodipodi:nodetypes="ccccccccccccccc" /><path
             id="path2956"
             style="color:#000000;font-style:normal;font-variant:normal;font-weight:normal;font-stretch:normal;font-size:medium;line-height:normal;font-family:sans-serif;font-variant-ligatures:normal;font-variant-position:normal;font-variant-caps:normal;font-variant-numeric:normal;font-variant-alternates:normal;font-variant-east-asian:normal;font-feature-settings:normal;font-variation-settings:normal;text-indent:0;text-align:start;text-decoration:none;text-decoration-line:none;text-decoration-style:solid;text-decoration-color:#000000;letter-spacing:normal;word-spacing:normal;text-transform:none;writing-mode:lr-tb;direction:ltr;text-orientation:mixed;dominant-baseline:auto;baseline-shift:baseline;text-anchor:start;white-space:normal;shape-padding:0;shape-margin:0;inline-size:0;clip-rule:nonzero;display:inline;overflow:visible;visibility:visible;opacity:0.2;isolation:auto;mix-blend-mode:normal;color-interpolation:sRGB;color-interpolation-filters:linearRGB;solid-color:#000000;solid-opacity:1;fill:#000000;fill-opacity:1;fill-rule:evenodd;stroke:none;stroke-width:3.77953;stroke-linecap:butt;stroke-linejoin:miter;stroke-miterlimit:4;stroke-dasharray:none;stroke-dashoffset:0;stroke-opacity:1;paint-order:stroke markers fill;color-rendering:auto;image-rendering:auto;shape-rendering:auto;text-rendering:auto;enable-background:accumulate;stop-color:#000000"
             d="M 117.37891,88.400777 V 411.48594 h 0.625 267.08203 0.61914 V 88.400777 Z m 44.72559,62.086243 c -2.15071,0.0102 -3.88319,1.7671 -3.86333,3.91774 l -0.006,155.74765 c -0.003,0.95735 0.34697,1.88221 0.98397,2.5969 l 20.46926,22.77368 c 0.73986,0.81103 1.78852,1.27087 2.88631,1.26566 h 158.10724 c 2.12958,-0.0102 3.85336,-1.73415 3.86334,-3.86372 V 154.4036 c 0.02,-2.15079 -1.71248,-3.9079 -3.86334,-3.91813 z m 3.86333,7.78146 h 10.20126 v 96.12298 c -0.0233,2.15304 1.71018,3.91371 3.86333,3.92391 H 322.7527 c 2.15299,-0.0104 3.88624,-1.77102 3.86295,-3.92391 v -96.12298 h 10.14684 v 170.79466 h -10.26183 v -60.37056 c -0.0102,-2.12942 -1.73391,-3.85315 -3.86333,-3.86333 H 197.15966 c -0.214,0.008 -0.42695,0.034 -0.63669,0.0772 -0.065,0.024 -0.12933,0.0497 -0.19294,0.0772 -0.13054,0.0319 -0.25934,0.0705 -0.38587,0.11576 -0.0915,0.0351 -0.18157,0.0738 -0.27011,0.11576 -0.10514,0.0468 -0.20813,0.0984 -0.30869,0.15435 -0.10586,0.0594 -0.20888,0.12383 -0.3087,0.19294 -0.0796,0.0613 -0.15688,0.12565 -0.23152,0.19293 -0.0665,0.062 -0.13091,0.12638 -0.19293,0.19294 -0.0944,0.0856 -0.18456,0.17569 -0.27011,0.27011 -0.0673,0.0746 -0.13165,0.15188 -0.19294,0.23152 -0.0681,0.0872 -0.13251,0.17736 -0.19293,0.27011 -0.0691,0.0998 -0.1335,0.20283 -0.19294,0.30869 -0.042,0.0885 -0.0806,0.17864 -0.11576,0.27011 -0.043,0.10122 -0.0815,0.20421 -0.11576,0.3087 -0.0453,0.12653 -0.0839,0.25533 -0.11576,0.38587 -0.0275,0.0636 -0.0532,0.12794 -0.0772,0.19293 -0.0432,0.20974 -0.0691,0.42269 -0.0772,0.63669 v 60.37055 h -8.99425 l -18.33423,-20.40829 z m 17.92792,0 h 134.99362 v 92.25964 H 183.89575 Z m 17.12724,114.34802 h 89.43392 v 56.44664 h -89.43392 z m 97.22117,0 H 318.774 v 56.44664 h -20.52984 z m -87.47447,3.45739 c -2.12944,0.0102 -3.85316,1.7339 -3.86334,3.86334 v 41.62961 c 0.0102,2.12942 1.7339,3.85314 3.86334,3.86333 h 21.68205 c 2.12942,-0.0102 3.85314,-1.73391 3.86333,-3.86333 v -41.62961 c -0.0101,-2.12944 -1.73391,-3.85316 -3.86333,-3.86334 z m 3.92391,7.78725 h 13.83422 v 33.78757 H 214.6936 Z"
             transform="matrix(0,0.10518012,0.10518012,0,442.2307,423.95984)"
             sodipodi:nodetypes="ccccccccccccccccccccccccccccccccccccccccccccccccccccccccccccccccccccccccccccccccc" /></g></g></g></g></svg>
