<?xml version="1.0" encoding="UTF-8" standalone="no"?>
<svg
   id="svg8"
   version="1.1"
   viewBox="0 0 24 24"
   height="24"
   width="24"
   xmlns="http://www.w3.org/2000/svg"
   xmlns:svg="http://www.w3.org/2000/svg"
   xmlns:rdf="http://www.w3.org/1999/02/22-rdf-syntax-ns#"
   xmlns:cc="http://creativecommons.org/ns#"
   xmlns:dc="http://purl.org/dc/elements/1.1/">
  <defs
     id="defs2" />
  <metadata
     id="metadata5">
    <rdf:RDF>
      <cc:Work
         rdf:about="">
        <dc:format>image/svg+xml</dc:format>
        <dc:type
           rdf:resource="http://purl.org/dc/dcmitype/StillImage" />
      </cc:Work>
    </rdf:RDF>
  </metadata>
  <g
     id="layer1"
     transform="translate(-910,-749.99358)">
    <g
       id="g36648"
       transform="matrix(0.05714284,0,0,0.05671825,922.07286,729.37901)"
       style="stroke-width:17.5655" />
    <path
       id="path36650"
       style="display:inline;fill-opacity:1;stroke:none;stroke-width:1.5;stroke-opacity:1"
       transform="translate(910,749.99358)"
       d="M 18.5,12 C 18.223,12 18,12.223 18,12.5 v 0.513672 H 16.285156 C 15.572876,13.013672 15,13.584036 15,14.291016 V 15 h 9 v -0.708984 c 0,-0.70698 -0.572876,-1.277344 -1.285156,-1.277344 H 21 V 12.5 C 21,12.223 20.777,12 20.5,12 Z m -2.857422,3.990234 0.642578,6.746094 c 0.06043,0.71075 0.57483,1.277344 1.28711,1.277344 h 3.855468 c 0.71228,0 1.22001,-0.573504 1.28711,-1.277344 l 0.642578,-6.746094 z M 12.76758,0.98103 9.62305,12.72126 11.38281,13.19392 14.5293,1.45369 Z M 18.796875,1.8847656 17.507812,3.1738281 21.421875,7.0859375 17.507812,11 h 2.578126 L 24,7.0859375 Z M 5.35352,1.88533 0.15234,7.0865 5.35352,12.28962 6.64258,11.00056 2.73047,7.0865 6.64258,3.17439 Z" />
  </g>
</svg>
