<?xml version="1.0" encoding="UTF-8" standalone="no"?>
<svg
   width="700.00061"
   height="220"
   viewBox="0 0 185.20849 58.208335"
   version="1.1"
   id="svg243962"
   xml:space="preserve"
   xmlns="http://www.w3.org/2000/svg"
   xmlns:svg="http://www.w3.org/2000/svg"><defs
     id="defs243959" /><g
     id="layer2"
     style="font-variation-settings:normal;opacity:1;vector-effect:none;fill:#cbe1fb;fill-opacity:1;stroke-width:0.125564;stroke-linecap:butt;stroke-linejoin:miter;stroke-miterlimit:4;stroke-dasharray:none;stroke-dashoffset:0;stroke-opacity:1;-inkscape-stroke:none;stop-color:#000000;stop-opacity:1"
     transform="translate(-2732.9185)"><g
       id="layer3-14"
       transform="translate(2726.8794,-24.23873)"
       style="font-variation-settings:normal;vector-effect:none;fill:#cbe1fb;fill-opacity:1;stroke-width:0.125564;stroke-linecap:butt;stroke-linejoin:miter;stroke-miterlimit:4;stroke-dasharray:none;stroke-dashoffset:0;stroke-opacity:1;-inkscape-stroke:none;stop-color:#000000;stop-opacity:1"><g
         aria-label="歡迎"
         id="text118971-48"
         style="font-size:16.2879px;line-height:1.25;font-family:'Roboto Condensed';-inkscape-font-specification:'Roboto Condensed, ';vector-effect:none;stroke-width:0.125564;stop-color:#000000;stop-opacity:1"><path
           d="m 14.705656,36.145769 h 0.863259 v 0.960986 h -0.863259 z m 3.95796,0 h 0.92841 v 0.960986 h -0.92841 z m -1.482199,6.28713 v 0.61894 h -1.351896 v -0.61894 z m 1.62879,0 h 1.775381 v -1.156441 h -1.775381 v -0.61894 h 2.215155 v -1.303032 h -2.068564 l 0.472349,-0.814395 -1.351895,-0.293183 h 2.410609 c 0.439773,0.260607 1.221592,0.846971 1.54735,1.172729 0.537501,-0.846971 0.977274,-1.93826 1.335608,-3.143565 h 0.146591 v 1.726518 c 0.01629,1.498487 -0.423485,4.772355 -2.703791,6.82463 h -2.003412 v -0.61894 h 1.775381 v -1.156441 h -1.775381 z m -1.62879,-1.156441 h -1.351896 v -0.61894 h 1.351896 z m 0,2.931822 v 0.61894 h -1.351896 v -0.61894 z m 5.163265,-12.671987 c -0.228031,2.150003 -0.667804,4.26743 -1.40076,5.814781 V 35.005616 H 17.39316 v 3.241292 h 0.293182 c -0.09773,0.325758 -0.211743,0.732956 -0.358334,1.107578 H 16.07384 l 0.293182,-0.846971 -0.977274,-0.260607 h 1.514775 v -3.241292 h -3.453035 v 3.241292 h 1.270456 c -0.423485,1.449624 -1.156441,2.850383 -2.0197,3.778793 0.293182,0.358334 0.798107,1.189017 0.977274,1.547351 0.179167,-0.179167 0.342046,-0.39091 0.504925,-0.602652 v 3.827656 h 1.645078 V 46.14654 h 5.146977 l 0.423485,0.70038 c 1.938261,-1.433335 2.866671,-4.120839 3.062126,-5.537886 0.179167,1.384471 0.960986,4.153415 2.720079,5.537886 0.276894,-0.472349 0.830683,-1.270456 1.172729,-1.677654 -2.459473,-2.003412 -2.964398,-5.603038 -2.964398,-7.166676 v -1.726518 h 0.895835 c -0.08144,0.879547 -0.179167,1.775382 -0.309471,2.426898 l 1.368184,0.781819 c 0.39091,-1.221593 0.70038,-3.02955 0.879547,-4.625764 l -1.303032,-0.472349 -0.276895,0.114015 H 23.810593 C 23.98976,33.621145 24.136351,32.72531 24.250366,31.7969 Z m -4.397734,0.03258 v 0.960986 h -1.531062 v -0.960986 h -1.71023 v 0.960986 h -1.645078 v 1.40076 h 1.645078 v 0.798107 h 1.71023 v -0.798107 h 1.531062 v 0.798107 h 1.71023 v -0.798107 h 1.742805 v -1.40076 h -1.742805 v -0.960986 z"
           style="font-weight:bold;font-family:Raleway;-inkscape-font-specification:Raleway;vector-effect:none;stop-color:#000000;stop-opacity:1"
           id="path98" /><path
           d="m 29.250721,32.888189 c 0.846971,0.830683 1.807957,2.0197 2.182579,2.801519 l 1.661366,-1.091289 C 32.67118,33.800311 31.66133,32.692734 30.798072,31.910915 Z m 3.632202,5.016673 h -3.518187 v 1.807957 h 1.693942 v 3.599627 c -0.61894,0.553788 -1.335608,1.107577 -1.93826,1.531062 l 0.92841,1.856821 c 0.781819,-0.716668 1.433335,-1.351896 2.035988,-2.003412 0.993562,1.270456 2.312882,1.759093 4.300006,1.840533 2.052275,0.09773 5.668189,0.06515 7.736753,-0.03258 0.09773,-0.553788 0.374621,-1.400759 0.586364,-1.840533 -2.296594,0.195455 -6.303418,0.244319 -8.323117,0.146591 -1.693942,-0.06515 -2.882959,-0.553788 -3.501899,-1.661365 z m 0.39091,3.176141 0.504924,1.726518 c 1.303033,-0.342046 2.964398,-0.78182 4.495461,-1.205305 L 38.062475,39.94085 36.0102,40.445775 v -6.173114 c 0.879547,-0.342046 1.807957,-0.749244 2.606064,-1.221593 v 11.271227 h 1.775381 V 34.207509 h 1.742806 v 6.612888 c 0,0.195455 -0.06515,0.260606 -0.244319,0.260606 -0.179167,0 -0.749243,0 -1.286744,-0.01629 0.228031,0.439774 0.472349,1.172729 0.537501,1.645078 0.960986,0 1.645078,-0.03258 2.133715,-0.30947 0.521213,-0.276894 0.651516,-0.732955 0.651516,-1.531063 v -8.306829 h -5.309856 v 0.407197 l -1.303032,-1.417047 c -0.537501,0.472349 -1.351896,0.993562 -2.150003,1.40076 L 34.218531,32.70902 v 8.160238 z"
           style="font-weight:bold;font-family:Raleway;-inkscape-font-specification:Raleway;vector-effect:none;stop-color:#000000;stop-opacity:1"
           id="path99" /></g><g
         aria-label="Let's set up a few things..."
         id="text115541-84"
         style="font-size:5.02259px;line-height:1.25;font-family:'Roboto Condensed';-inkscape-font-specification:'Roboto Condensed, ';vector-effect:none;stroke-width:0.125564;stop-color:#000000;stop-opacity:1"><path
           d="m 27.623207,57.118832 v -3.566039 h 0.693118 v 2.958305 h 1.818177 v 0.607734 z"
           style="font-weight:bold;font-family:Raleway;-inkscape-font-specification:Raleway;vector-effect:none;stop-color:#000000;stop-opacity:1"
           id="path75" /><path
           d="m 31.60611,57.169058 q -0.316423,0 -0.572575,-0.105475 -0.256152,-0.110497 -0.436966,-0.296333 -0.180813,-0.185836 -0.281265,-0.431942 -0.09543,-0.246107 -0.09543,-0.517327 0,-0.281265 0.09543,-0.527372 0.09543,-0.25113 0.276243,-0.436966 0.180813,-0.190858 0.436965,-0.301355 0.261175,-0.110497 0.582621,-0.110497 0.321445,0 0.572575,0.110497 0.256152,0.110497 0.431943,0.296333 0.180813,0.185836 0.27122,0.431943 0.09543,0.246107 0.09543,0.512304 0,0.06529 -0.005,0.125565 0,0.06027 -0.01004,0.100451 h -2.034149 q 0.01507,0.155701 0.07534,0.276243 0.06027,0.120542 0.1557,0.205926 0.09543,0.08538 0.215972,0.130587 0.120542,0.0452 0.251129,0.0452 0.200904,0 0.376694,-0.09543 0.180814,-0.100451 0.246107,-0.261174 l 0.577598,0.160723 q -0.145655,0.301355 -0.467101,0.497236 -0.316423,0.190859 -0.758411,0.190859 z m 0.683072,-1.587139 q -0.02511,-0.296333 -0.220994,-0.472123 -0.190858,-0.180814 -0.4671,-0.180814 -0.13561,0 -0.256153,0.05023 -0.115519,0.0452 -0.205926,0.130588 -0.09041,0.08538 -0.150677,0.205926 -0.05525,0.120542 -0.06529,0.266197 z"
           style="font-weight:bold;font-family:Raleway;-inkscape-font-specification:Raleway;vector-effect:none;stop-color:#000000;stop-opacity:1"
           id="path76" /><path
           d="m 34.951142,56.983222 q -0.13561,0.06027 -0.331491,0.120542 -0.195881,0.06027 -0.411852,0.06027 -0.140633,0 -0.266197,-0.03516 -0.120543,-0.03516 -0.215972,-0.110497 -0.09041,-0.08036 -0.145655,-0.200904 -0.05525,-0.125565 -0.05525,-0.301355 v -1.5118 h -0.346559 v -0.517327 h 0.346559 v -0.85384 h 0.673027 v 0.85384 h 0.552485 v 0.517327 h -0.552485 v 1.285783 q 0,0.140633 0.07032,0.200904 0.07534,0.05525 0.180813,0.05525 0.105475,0 0.205926,-0.03516 0.100452,-0.03516 0.160723,-0.06027 z"
           style="font-weight:bold;font-family:Raleway;-inkscape-font-specification:Raleway;vector-effect:none;stop-color:#000000;stop-opacity:1"
           id="path77" /><path
           d="m 35.302718,54.612559 v -1.12506 h 0.572575 v 1.12506 z"
           style="font-weight:bold;font-family:Raleway;-inkscape-font-specification:Raleway;vector-effect:none;stop-color:#000000;stop-opacity:1"
           id="path78" /><path
           d="m 37.422236,57.169058 q -0.331491,0 -0.647914,-0.105475 -0.316423,-0.105474 -0.542439,-0.301355 l 0.251129,-0.421898 q 0.241084,0.170768 0.467101,0.261175 0.231039,0.08538 0.457056,0.08538 0.200903,0 0.316423,-0.07534 0.115519,-0.07534 0.115519,-0.215971 0,-0.140633 -0.13561,-0.205927 -0.135609,-0.06529 -0.441987,-0.150677 -0.256153,-0.07032 -0.436966,-0.13561 -0.180813,-0.06529 -0.29131,-0.145655 -0.110497,-0.08538 -0.160723,-0.190859 -0.05023,-0.110497 -0.05023,-0.261174 0,-0.200904 0.07534,-0.361627 0.08036,-0.160723 0.220994,-0.27122 0.140633,-0.115519 0.326468,-0.17579 0.190859,-0.06027 0.411853,-0.06027 0.296333,0 0.552485,0.08539 0.261174,0.08538 0.477146,0.276242 l -0.27122,0.40683 q -0.200904,-0.150678 -0.391762,-0.220994 -0.185836,-0.07032 -0.371672,-0.07032 -0.170768,0 -0.286287,0.07032 -0.11552,0.07032 -0.11552,0.226016 0,0.07032 0.02511,0.11552 0.03014,0.0452 0.09041,0.08036 0.06027,0.03516 0.1557,0.07032 0.100452,0.03014 0.246107,0.06529 0.27122,0.07032 0.462078,0.140633 0.195881,0.07032 0.316423,0.160723 0.125565,0.09041 0.180813,0.210949 0.06027,0.115519 0.06027,0.281265 0,0.386739 -0.286288,0.612756 -0.286288,0.220994 -0.778502,0.220994 z"
           style="font-weight:bold;font-family:Raleway;-inkscape-font-specification:Raleway;vector-effect:none;stop-color:#000000;stop-opacity:1"
           id="path79" /><path
           d="m 41.123883,57.169058 q -0.331491,0 -0.647914,-0.105475 -0.316423,-0.105474 -0.54244,-0.301355 l 0.25113,-0.421898 q 0.241084,0.170768 0.467101,0.261175 0.231039,0.08538 0.457055,0.08538 0.200904,0 0.316424,-0.07534 0.115519,-0.07534 0.115519,-0.215971 0,-0.140633 -0.13561,-0.205927 -0.13561,-0.06529 -0.441988,-0.150677 -0.256152,-0.07032 -0.436965,-0.13561 -0.180813,-0.06529 -0.29131,-0.145655 -0.110497,-0.08538 -0.160723,-0.190859 -0.05023,-0.110497 -0.05023,-0.261174 0,-0.200904 0.07534,-0.361627 0.08036,-0.160723 0.220994,-0.27122 0.140632,-0.115519 0.326468,-0.17579 0.190859,-0.06027 0.411853,-0.06027 0.296332,0 0.552484,0.08539 0.261175,0.08538 0.477147,0.276242 l -0.27122,0.40683 q -0.200904,-0.150678 -0.391762,-0.220994 -0.185836,-0.07032 -0.371672,-0.07032 -0.170768,0 -0.286288,0.07032 -0.115519,0.07032 -0.115519,0.226016 0,0.07032 0.02511,0.11552 0.03014,0.0452 0.09041,0.08036 0.06027,0.03516 0.155701,0.07032 0.100451,0.03014 0.246107,0.06529 0.271219,0.07032 0.462078,0.140633 0.195881,0.07032 0.316423,0.160723 0.125565,0.09041 0.180813,0.210949 0.06027,0.115519 0.06027,0.281265 0,0.386739 -0.286287,0.612756 -0.286288,0.220994 -0.778502,0.220994 z"
           style="font-weight:bold;font-family:Raleway;-inkscape-font-specification:Raleway;vector-effect:none;stop-color:#000000;stop-opacity:1"
           id="path80" /><path
           d="m 43.846125,57.169058 q -0.316423,0 -0.572575,-0.105475 -0.256152,-0.110497 -0.436965,-0.296333 -0.180814,-0.185836 -0.281266,-0.431942 -0.09543,-0.246107 -0.09543,-0.517327 0,-0.281265 0.09543,-0.527372 0.09543,-0.25113 0.276243,-0.436966 0.180813,-0.190858 0.436965,-0.301355 0.261175,-0.110497 0.582621,-0.110497 0.321446,0 0.572575,0.110497 0.256152,0.110497 0.431943,0.296333 0.180813,0.185836 0.27122,0.431943 0.09543,0.246107 0.09543,0.512304 0,0.06529 -0.005,0.125565 0,0.06027 -0.01004,0.100451 h -2.034149 q 0.01507,0.155701 0.07534,0.276243 0.06027,0.120542 0.1557,0.205926 0.09543,0.08538 0.215972,0.130587 0.120542,0.0452 0.251129,0.0452 0.200904,0 0.376694,-0.09543 0.180814,-0.100451 0.246107,-0.261174 l 0.577598,0.160723 q -0.145655,0.301355 -0.467101,0.497236 -0.316423,0.190859 -0.758411,0.190859 z m 0.683072,-1.587139 q -0.02511,-0.296333 -0.220994,-0.472123 -0.190858,-0.180814 -0.4671,-0.180814 -0.13561,0 -0.256153,0.05023 -0.115519,0.0452 -0.205926,0.130588 -0.09041,0.08538 -0.150677,0.205926 -0.05525,0.120542 -0.06529,0.266197 z"
           style="font-weight:bold;font-family:Raleway;-inkscape-font-specification:Raleway;vector-effect:none;stop-color:#000000;stop-opacity:1"
           id="path81" /><path
           d="m 47.191157,56.983222 q -0.13561,0.06027 -0.331491,0.120542 -0.195881,0.06027 -0.411852,0.06027 -0.140633,0 -0.266197,-0.03516 -0.120543,-0.03516 -0.215972,-0.110497 -0.09041,-0.08036 -0.145655,-0.200904 -0.05525,-0.125565 -0.05525,-0.301355 v -1.5118 h -0.346559 v -0.517327 h 0.346559 v -0.85384 h 0.673027 v 0.85384 h 0.552485 v 0.517327 h -0.552485 v 1.285783 q 0,0.140633 0.07032,0.200904 0.07534,0.05525 0.180813,0.05525 0.105475,0 0.205926,-0.03516 0.100452,-0.03516 0.160723,-0.06027 z"
           style="font-weight:bold;font-family:Raleway;-inkscape-font-specification:Raleway;vector-effect:none;stop-color:#000000;stop-opacity:1"
           id="path82" /><path
           d="m 49.551769,57.169058 q -0.40683,0 -0.617779,-0.261175 -0.210949,-0.261175 -0.210949,-0.773479 v -1.64741 h 0.673027 v 1.501755 q 0,0.607733 0.436966,0.607733 0.195881,0 0.376694,-0.115519 0.185836,-0.120542 0.301355,-0.361627 v -1.632342 h 0.673028 v 1.858359 q 0,0.105474 0.03516,0.150677 0.04018,0.0452 0.125564,0.05023 v 0.572576 q -0.100451,0.02009 -0.170768,0.02511 -0.06529,0.005 -0.120542,0.005 -0.180813,0 -0.296333,-0.08036 -0.110497,-0.08538 -0.130587,-0.231039 l -0.01507,-0.210949 q -0.17579,0.27122 -0.452033,0.40683 -0.276242,0.13561 -0.607733,0.13561 z"
           style="font-weight:bold;font-family:Raleway;-inkscape-font-specification:Raleway;vector-effect:none;stop-color:#000000;stop-opacity:1"
           id="path83" /><path
           d="m 53.429198,57.169058 q -0.311401,0 -0.54244,-0.13561 -0.231039,-0.140633 -0.361626,-0.376695 v 1.53189 h -0.673027 v -3.701649 h 0.587643 v 0.452034 q 0.145655,-0.23104 0.376694,-0.361627 0.231039,-0.13561 0.532395,-0.13561 0.266197,0 0.492213,0.110497 0.226017,0.105474 0.38674,0.29131 0.165745,0.180814 0.256152,0.431943 0.09543,0.246107 0.09543,0.522349 0,0.286288 -0.08538,0.537418 -0.08538,0.251129 -0.241084,0.436965 -0.150678,0.185836 -0.361627,0.29131 -0.210948,0.105475 -0.462078,0.105475 z m -0.226016,-0.572576 q 0.150677,0 0.276242,-0.06529 0.130587,-0.06529 0.220994,-0.175791 0.09041,-0.110497 0.140632,-0.256152 0.05023,-0.145655 0.05023,-0.301356 0,-0.165745 -0.05525,-0.306378 -0.05525,-0.145655 -0.1557,-0.251129 -0.09543,-0.105474 -0.23104,-0.165746 -0.130587,-0.06027 -0.286287,-0.06027 -0.09543,0 -0.195881,0.03516 -0.100452,0.03014 -0.185836,0.09041 -0.08538,0.06027 -0.1557,0.140633 -0.06529,0.08036 -0.100452,0.17579 v 0.617779 q 0.09041,0.226016 0.276242,0.376694 0.185836,0.145655 0.401808,0.145655 z"
           style="font-weight:bold;font-family:Raleway;-inkscape-font-specification:Raleway;vector-effect:none;stop-color:#000000;stop-opacity:1"
           id="path84" /><path
           d="m 56.960071,57.169058 q -0.190858,0 -0.356604,-0.06027 -0.165745,-0.06529 -0.286287,-0.17579 -0.120542,-0.11552 -0.190859,-0.266197 -0.06529,-0.150678 -0.06529,-0.331491 0,-0.185836 0.08036,-0.341537 0.08538,-0.160722 0.231039,-0.271219 0.150678,-0.110497 0.356604,-0.170768 0.205926,-0.06529 0.452033,-0.06529 0.175791,0 0.341536,0.03013 0.170769,0.03014 0.301356,0.08538 v -0.150677 q 0,-0.261175 -0.150678,-0.401808 -0.145655,-0.140632 -0.436965,-0.140632 -0.210949,0 -0.411853,0.07534 -0.200903,0.07534 -0.411852,0.220994 l -0.205926,-0.42692 q 0.507281,-0.336514 1.094924,-0.336514 0.567553,0 0.878954,0.281265 0.316423,0.276243 0.316423,0.803615 v 0.818682 q 0,0.105474 0.03516,0.150677 0.04018,0.0452 0.125565,0.05023 v 0.572576 q -0.170768,0.03516 -0.296333,0.03516 -0.190858,0 -0.296333,-0.08538 -0.100452,-0.08538 -0.125565,-0.226017 l -0.01507,-0.145655 q -0.175791,0.231039 -0.426921,0.351581 -0.251129,0.120543 -0.537417,0.120543 z m 0.190859,-0.492214 q 0.170768,0 0.321446,-0.06027 0.1557,-0.06027 0.241084,-0.160723 0.110497,-0.08538 0.110497,-0.190859 v -0.301355 q -0.120542,-0.0452 -0.261175,-0.07032 -0.140632,-0.03014 -0.27122,-0.03014 -0.261174,0 -0.42692,0.120542 -0.165745,0.11552 -0.165745,0.296333 0,0.170768 0.130587,0.286288 0.130587,0.110497 0.321446,0.110497 z"
           style="font-weight:bold;font-family:Raleway;-inkscape-font-specification:Raleway;vector-effect:none;stop-color:#000000;stop-opacity:1"
           id="path85" /><path
           d="M 60.490948,57.118832 V 55.139931 H 60.14439 v -0.512304 h 0.346558 v -0.160723 q 0,-0.492214 0.236062,-0.778501 0.236062,-0.286288 0.642892,-0.286288 0.321446,0 0.647914,0.1557 l -0.13561,0.507282 q -0.07534,-0.04018 -0.180813,-0.06529 -0.100452,-0.03014 -0.185836,-0.03014 -0.351581,0 -0.351581,0.472123 v 0.185836 h 0.642891 v 0.512304 h -0.642891 v 1.978901 z"
           style="font-weight:bold;font-family:Raleway;-inkscape-font-specification:Raleway;vector-effect:none;stop-color:#000000;stop-opacity:1"
           id="path86" /><path
           d="m 63.278475,57.169058 q -0.316423,0 -0.572575,-0.105475 -0.256152,-0.110497 -0.436965,-0.296333 -0.180814,-0.185836 -0.281265,-0.431942 -0.09543,-0.246107 -0.09543,-0.517327 0,-0.281265 0.09543,-0.527372 0.09543,-0.25113 0.276242,-0.436966 0.180813,-0.190858 0.436965,-0.301355 0.261175,-0.110497 0.582621,-0.110497 0.321446,0 0.572575,0.110497 0.256152,0.110497 0.431943,0.296333 0.180813,0.185836 0.27122,0.431943 0.09543,0.246107 0.09543,0.512304 0,0.06529 -0.005,0.125565 0,0.06027 -0.01005,0.100451 h -2.034149 q 0.01507,0.155701 0.07534,0.276243 0.06027,0.120542 0.1557,0.205926 0.09543,0.08538 0.215972,0.130587 0.120542,0.0452 0.251129,0.0452 0.200904,0 0.376695,-0.09543 0.180813,-0.100451 0.246106,-0.261174 l 0.577598,0.160723 q -0.145655,0.301355 -0.467101,0.497236 -0.316423,0.190859 -0.758411,0.190859 z m 0.683073,-1.587139 q -0.02511,-0.296333 -0.220994,-0.472123 -0.190859,-0.180814 -0.467101,-0.180814 -0.13561,0 -0.256152,0.05023 -0.11552,0.0452 -0.205927,0.130588 -0.09041,0.08538 -0.150677,0.205926 -0.05525,0.120542 -0.06529,0.266197 z"
           style="font-weight:bold;font-family:Raleway;-inkscape-font-specification:Raleway;vector-effect:none;stop-color:#000000;stop-opacity:1"
           id="path87" /><path
           d="m 68.260871,54.486994 h 0.637869 l -1.099947,2.631838 h -0.552485 l -0.452033,-1.155196 -0.44701,1.155196 H 65.79478 l -1.094925,-2.631838 h 0.632846 l 0.783524,1.998991 0.321446,-0.85384 -0.462078,-1.140128 h 0.54244 l 0.276242,0.808637 0.281265,-0.808637 h 0.54244 l -0.457056,1.140128 0.316423,0.85384 z"
           style="font-weight:bold;font-family:Raleway;-inkscape-font-specification:Raleway;vector-effect:none;stop-color:#000000;stop-opacity:1"
           id="path88" /><path
           d="m 71.857037,56.983222 q -0.13561,0.06027 -0.331491,0.120542 -0.195881,0.06027 -0.411852,0.06027 -0.140633,0 -0.266197,-0.03516 -0.120542,-0.03516 -0.215972,-0.110497 -0.09041,-0.08036 -0.145655,-0.200904 -0.05525,-0.125565 -0.05525,-0.301355 v -1.5118 h -0.346559 v -0.517327 h 0.346559 v -0.85384 h 0.673027 v 0.85384 h 0.552485 v 0.517327 h -0.552485 v 1.285783 q 0,0.140633 0.07032,0.200904 0.07534,0.05525 0.180813,0.05525 0.105475,0 0.205927,-0.03516 0.100451,-0.03516 0.160722,-0.06027 z"
           style="font-weight:bold;font-family:Raleway;-inkscape-font-specification:Raleway;vector-effect:none;stop-color:#000000;stop-opacity:1"
           id="path89" /><path
           d="M 74.654614,57.118832 H 73.981587 V 55.64219 q 0,-0.3114 -0.115519,-0.457056 -0.11552,-0.150677 -0.326469,-0.150677 -0.09041,0 -0.190858,0.04018 -0.100452,0.04018 -0.190858,0.11552 -0.09041,0.07032 -0.165746,0.170768 -0.07534,0.100452 -0.110497,0.220994 v 1.536913 h -0.673027 v -3.666491 h 0.673027 v 1.521845 q 0.145655,-0.256152 0.391762,-0.391762 0.25113,-0.140633 0.552485,-0.140633 0.256152,0 0.416875,0.09041 0.160723,0.08538 0.25113,0.231039 0.09041,0.145655 0.125564,0.331491 0.03516,0.185836 0.03516,0.381717 z"
           style="font-weight:bold;font-family:Raleway;-inkscape-font-specification:Raleway;vector-effect:none;stop-color:#000000;stop-opacity:1"
           id="path90" /><path
           d="m 75.242247,57.118832 v -2.631838 h 0.673027 v 2.631838 z m 0,-2.998487 v -0.668004 h 0.673027 v 0.668004 z"
           style="font-weight:bold;font-family:Raleway;-inkscape-font-specification:Raleway;vector-effect:none;stop-color:#000000;stop-opacity:1"
           id="path91" /><path
           d="M 78.969007,57.118832 H 78.295979 V 55.64219 q 0,-0.316423 -0.110497,-0.462078 -0.110497,-0.145655 -0.306378,-0.145655 -0.100451,0 -0.205926,0.04018 -0.105474,0.04018 -0.200903,0.11552 -0.09041,0.07032 -0.165746,0.170768 -0.07534,0.100452 -0.110497,0.220994 v 1.536913 h -0.673027 v -2.631838 h 0.607734 v 0.487192 q 0.145655,-0.25113 0.421897,-0.391762 0.276243,-0.140633 0.622801,-0.140633 0.246107,0 0.401807,0.09041 0.155701,0.09041 0.241085,0.236061 0.08538,0.145656 0.115519,0.331491 0.03516,0.185836 0.03516,0.376695 z"
           style="font-weight:bold;font-family:Raleway;-inkscape-font-specification:Raleway;vector-effect:none;stop-color:#000000;stop-opacity:1"
           id="path92" /><path
           d="m 80.58627,57.133899 q -0.266197,0 -0.482168,-0.105474 -0.215972,-0.105474 -0.376695,-0.286288 -0.1557,-0.185835 -0.241084,-0.42692 -0.08538,-0.241084 -0.08538,-0.512304 0,-0.286288 0.09041,-0.532395 0.09041,-0.246106 0.251129,-0.431942 0.160723,-0.185836 0.38674,-0.291311 0.226016,-0.105474 0.497236,-0.105474 0.306378,0 0.537417,0.140633 0.231039,0.13561 0.381717,0.366649 v -0.462079 h 0.587643 v 2.506273 q 0,0.29131 -0.110497,0.522349 -0.110497,0.231039 -0.306378,0.391762 -0.190858,0.160723 -0.462078,0.246107 -0.266197,0.08538 -0.582621,0.08538 -0.431942,0 -0.728275,-0.145655 -0.29131,-0.140632 -0.502259,-0.401807 l 0.366649,-0.356604 q 0.150678,0.185836 0.376694,0.29131 0.231039,0.105475 0.487191,0.105475 0.155701,0 0.296333,-0.0452 0.145655,-0.04018 0.256152,-0.130587 0.110497,-0.09041 0.170768,-0.231039 0.06529,-0.140633 0.06529,-0.331491 v -0.331491 q -0.130587,0.226016 -0.366649,0.351581 -0.236062,0.120542 -0.507282,0.120542 z m 0.226017,-0.537417 q 0.110497,0 0.210949,-0.03516 0.100451,-0.03516 0.185835,-0.09543 0.08539,-0.06027 0.150678,-0.140633 0.06529,-0.08036 0.100452,-0.170768 v -0.627823 q -0.09041,-0.23104 -0.286288,-0.371672 -0.190858,-0.140633 -0.401807,-0.140633 -0.1557,0 -0.281265,0.07032 -0.125565,0.06529 -0.215971,0.180813 -0.09041,0.110497 -0.140633,0.256152 -0.0452,0.145655 -0.0452,0.301355 0,0.160723 0.05525,0.301356 0.05525,0.140632 0.150678,0.246107 0.100452,0.105474 0.231039,0.165745 0.130588,0.06027 0.286288,0.06027 z"
           style="font-weight:bold;font-family:Raleway;-inkscape-font-specification:Raleway;vector-effect:none;stop-color:#000000;stop-opacity:1"
           id="path93" /><path
           d="m 83.735427,57.169058 q -0.331491,0 -0.647914,-0.105475 -0.316423,-0.105474 -0.54244,-0.301355 l 0.25113,-0.421898 q 0.241084,0.170768 0.4671,0.261175 0.23104,0.08538 0.457056,0.08538 0.200904,0 0.316423,-0.07534 0.11552,-0.07534 0.11552,-0.215971 0,-0.140633 -0.13561,-0.205927 -0.13561,-0.06529 -0.441988,-0.150677 -0.256152,-0.07032 -0.436965,-0.13561 -0.180814,-0.06529 -0.291311,-0.145655 -0.110497,-0.08538 -0.160722,-0.190859 -0.05023,-0.110497 -0.05023,-0.261174 0,-0.200904 0.07534,-0.361627 0.08036,-0.160723 0.220994,-0.27122 0.140633,-0.115519 0.326469,-0.17579 0.190858,-0.06027 0.411852,-0.06027 0.296333,0 0.552485,0.08539 0.261175,0.08538 0.477146,0.276242 l -0.27122,0.40683 q -0.200903,-0.150678 -0.391762,-0.220994 -0.185836,-0.07032 -0.371671,-0.07032 -0.170768,0 -0.286288,0.07032 -0.11552,0.07032 -0.11552,0.226016 0,0.07032 0.02511,0.11552 0.03014,0.0452 0.09041,0.08036 0.06027,0.03516 0.1557,0.07032 0.100452,0.03014 0.246107,0.06529 0.27122,0.07032 0.462078,0.140633 0.195882,0.07032 0.316424,0.160723 0.125564,0.09041 0.180813,0.210949 0.06027,0.115519 0.06027,0.281265 0,0.386739 -0.286288,0.612756 -0.286287,0.220994 -0.778501,0.220994 z"
           style="font-weight:bold;font-family:Raleway;-inkscape-font-specification:Raleway;vector-effect:none;stop-color:#000000;stop-opacity:1"
           id="path94" /><path
           d="m 85.222114,57.118832 v -0.723253 h 0.552484 v 0.723253 z"
           style="font-weight:bold;font-family:Raleway;-inkscape-font-specification:Raleway;vector-effect:none;stop-color:#000000;stop-opacity:1"
           id="path95" /><path
           d="m 86.352187,57.118832 v -0.723253 h 0.552485 v 0.723253 z"
           style="font-weight:bold;font-family:Raleway;-inkscape-font-specification:Raleway;vector-effect:none;stop-color:#000000;stop-opacity:1"
           id="path96" /><path
           d="m 87.482264,57.118832 v -0.723253 h 0.552485 v 0.723253 z"
           style="font-weight:bold;font-family:Raleway;-inkscape-font-specification:Raleway;vector-effect:none;stop-color:#000000;stop-opacity:1"
           id="path97" /></g></g></g></svg>
