<?xml version="1.0" encoding="UTF-8" standalone="no"?>
<svg
   width="700.00037"
   height="220"
   viewBox="0 0 185.20843 58.208335"
   version="1.1"
   id="svg243962"
   xml:space="preserve"
   xmlns="http://www.w3.org/2000/svg"
   xmlns:svg="http://www.w3.org/2000/svg"><defs
     id="defs243959" /><g
     id="layer2"
     style="font-variation-settings:normal;opacity:1;vector-effect:none;fill:#cbe1fb;fill-opacity:1;stroke-width:0.125564;stroke-linecap:butt;stroke-linejoin:miter;stroke-miterlimit:4;stroke-dasharray:none;stroke-dashoffset:0;stroke-opacity:1;-inkscape-stroke:none;stop-color:#000000;stop-opacity:1"
     transform="translate(-195.20844)"><g
       id="layer3-7"
       transform="translate(184.59759,-32.578567)"
       style="font-variation-settings:normal;vector-effect:none;fill:#cbe1fb;fill-opacity:1;stroke-width:0.125564;stroke-linecap:butt;stroke-linejoin:miter;stroke-miterlimit:4;stroke-dasharray:none;stroke-dashoffset:0;stroke-opacity:1;-inkscape-stroke:none;stop-color:#000000;stop-opacity:1"><g
         aria-label="Vítejte!"
         id="text118971-2"
         style="font-size:14.993px;line-height:1.25;font-family:'Roboto Condensed';-inkscape-font-specification:'Roboto Condensed, ';vector-effect:none;stroke-width:0.125564;stop-color:#000000;stop-opacity:1"><path
           d="m 19.864829,39.385499 2.878656,8.051241 2.84867,-8.051241 h 2.173985 l -4.153061,10.64503 h -1.739188 l -4.183047,-10.64503 z"
           style="font-weight:bold;font-family:Raleway;-inkscape-font-specification:Raleway;vector-effect:none;stop-color:#000000;stop-opacity:1"
           id="path606" /><path
           d="m 30.224972,41.259624 -1.289398,-0.389818 0.809622,-1.784167 h 1.874125 z m -1.514293,8.770905 v -7.856332 h 2.009062 v 7.856332 z"
           style="font-weight:bold;font-family:Raleway;-inkscape-font-specification:Raleway;vector-effect:none;stop-color:#000000;stop-opacity:1"
           id="path607" /><path
           d="m 37.241683,49.625718 q -0.404811,0.179916 -0.989538,0.359832 -0.584727,0.179916 -1.229426,0.179916 -0.419804,0 -0.794629,-0.104951 -0.359832,-0.104951 -0.644699,-0.329846 -0.269874,-0.239888 -0.434797,-0.59972 -0.164923,-0.374825 -0.164923,-0.89958 v -4.512893 h -1.034517 v -1.544279 h 1.034517 v -2.54881 h 2.009062 v 2.54881 h 1.64923 v 1.544279 h -1.64923 v 3.838208 q 0,0.419804 0.209902,0.59972 0.224895,0.164923 0.539748,0.164923 0.314853,0 0.614713,-0.104951 0.29986,-0.104951 0.479776,-0.179916 z"
           style="font-weight:bold;font-family:Raleway;-inkscape-font-specification:Raleway;vector-effect:none;stop-color:#000000;stop-opacity:1"
           id="path608" /><path
           d="m 41.73956,50.180459 q -0.944559,0 -1.709202,-0.314853 -0.764643,-0.329846 -1.304391,-0.884587 -0.539748,-0.554741 -0.839608,-1.289398 -0.284867,-0.734657 -0.284867,-1.544279 0,-0.839608 0.284867,-1.574265 0.284867,-0.74965 0.824615,-1.304391 0.539748,-0.569734 1.304391,-0.89958 0.779636,-0.329846 1.739188,-0.329846 0.959552,0 1.709202,0.329846 0.764643,0.329846 1.289398,0.884587 0.539748,0.554741 0.809622,1.289398 0.284867,0.734657 0.284867,1.529286 0,0.194909 -0.01499,0.374825 0,0.179916 -0.02999,0.29986 h -6.072165 q 0.04498,0.464783 0.224895,0.824615 0.179916,0.359832 0.464783,0.614713 0.284867,0.254881 0.644699,0.389818 0.359832,0.134937 0.74965,0.134937 0.59972,0 1.124475,-0.284867 0.539748,-0.29986 0.734657,-0.779636 l 1.724195,0.479776 q -0.434797,0.89958 -1.394349,1.484307 -0.944559,0.569734 -2.263942,0.569734 z m 2.039048,-4.737788 q -0.07496,-0.884587 -0.659692,-1.409342 -0.569734,-0.539748 -1.394349,-0.539748 -0.404811,0 -0.764643,0.14993 -0.344839,0.134937 -0.614713,0.389818 -0.269874,0.254881 -0.44979,0.614713 -0.164923,0.359832 -0.194909,0.794629 z"
           style="font-weight:bold;font-family:Raleway;-inkscape-font-specification:Raleway;vector-effect:none;stop-color:#000000;stop-opacity:1"
           id="path609" /><path
           d="m 46.432353,52.969157 q -0.569734,0 -1.079496,-0.179916 -0.509762,-0.164923 -0.914573,-0.524755 l 0.869594,-1.364363 q 0.164923,0.164923 0.404811,0.239888 0.239888,0.08996 0.479776,0.08996 0.389818,0 0.674685,-0.284867 0.284867,-0.269874 0.284867,-0.704671 v -8.066234 h 2.009062 v 7.916304 q 0,0.629706 -0.209902,1.154461 -0.209902,0.539748 -0.584727,0.914573 -0.359832,0.389818 -0.869594,0.59972 -0.494769,0.209902 -1.064503,0.209902 z m 0.719664,-11.889449 v -1.994069 h 2.009062 v 1.994069 z"
           style="font-weight:bold;font-family:Raleway;-inkscape-font-specification:Raleway;vector-effect:none;stop-color:#000000;stop-opacity:1"
           id="path610" /><path
           d="m 55.698024,49.625718 q -0.404811,0.179916 -0.989538,0.359832 -0.584727,0.179916 -1.229426,0.179916 -0.419804,0 -0.794629,-0.104951 -0.359832,-0.104951 -0.644699,-0.329846 -0.269874,-0.239888 -0.434797,-0.59972 -0.164923,-0.374825 -0.164923,-0.89958 v -4.512893 h -1.034517 v -1.544279 h 1.034517 v -2.54881 h 2.009062 v 2.54881 h 1.64923 v 1.544279 h -1.64923 v 3.838208 q 0,0.419804 0.209902,0.59972 0.224895,0.164923 0.539748,0.164923 0.314853,0 0.614713,-0.104951 0.29986,-0.104951 0.479776,-0.179916 z"
           style="font-weight:bold;font-family:Raleway;-inkscape-font-specification:Raleway;vector-effect:none;stop-color:#000000;stop-opacity:1"
           id="path611" /><path
           d="m 60.195899,50.180459 q -0.944559,0 -1.709202,-0.314853 -0.764643,-0.329846 -1.304391,-0.884587 -0.539748,-0.554741 -0.839608,-1.289398 -0.284867,-0.734657 -0.284867,-1.544279 0,-0.839608 0.284867,-1.574265 0.284867,-0.74965 0.824615,-1.304391 0.539748,-0.569734 1.304391,-0.89958 0.779636,-0.329846 1.739188,-0.329846 0.959552,0 1.709202,0.329846 0.764643,0.329846 1.289398,0.884587 0.539748,0.554741 0.809622,1.289398 0.284867,0.734657 0.284867,1.529286 0,0.194909 -0.01499,0.374825 0,0.179916 -0.02999,0.29986 h -6.072165 q 0.04498,0.464783 0.224895,0.824615 0.179916,0.359832 0.464783,0.614713 0.284867,0.254881 0.644699,0.389818 0.359832,0.134937 0.74965,0.134937 0.59972,0 1.124475,-0.284867 0.539748,-0.29986 0.734657,-0.779636 l 1.724195,0.479776 q -0.434797,0.89958 -1.394349,1.484307 -0.944559,0.569734 -2.263942,0.569734 z m 2.039048,-4.737788 q -0.07496,-0.884587 -0.659692,-1.409342 -0.569734,-0.539748 -1.394349,-0.539748 -0.404811,0 -0.764643,0.14993 -0.344839,0.134937 -0.614713,0.389818 -0.269874,0.254881 -0.44979,0.614713 -0.164923,0.359832 -0.194909,0.794629 z"
           style="font-weight:bold;font-family:Raleway;-inkscape-font-specification:Raleway;vector-effect:none;stop-color:#000000;stop-opacity:1"
           id="path612" /><path
           d="m 65.923211,46.027398 v -6.74685 h 2.009062 v 6.74685 z m 0,4.003131 v -2.263943 h 2.009062 v 2.263943 z"
           style="font-weight:bold;font-family:Raleway;-inkscape-font-specification:Raleway;vector-effect:none;stop-color:#000000;stop-opacity:1"
           id="path613" /></g><g
         aria-label="Tady můžeš upravit
      několik nastavení..."
         id="text115541-0"
         style="font-size:5.02259px;line-height:1.25;font-family:'Roboto Condensed';-inkscape-font-specification:'Roboto Condensed, ';vector-effect:none;stroke-width:0.125564;stop-color:#000000;stop-opacity:1"><path
           d="m 33.180354,58.845913 h -1.140128 v 2.958305 h -0.688094 v -2.958305 h -1.140128 v -0.607734 h 2.96835 z"
           style="font-weight:bold;font-family:Raleway;-inkscape-font-specification:Raleway;vector-effect:none;stop-color:#000000;stop-opacity:1"
           id="path571" /><path
           d="m 33.722789,61.854444 q -0.190859,0 -0.356604,-0.06027 -0.165746,-0.06529 -0.286288,-0.175791 -0.120542,-0.115519 -0.190858,-0.266197 -0.06529,-0.150678 -0.06529,-0.331491 0,-0.185836 0.08036,-0.341536 0.08538,-0.160723 0.23104,-0.27122 0.150677,-0.110497 0.356603,-0.170768 0.205927,-0.06529 0.452034,-0.06529 0.17579,0 0.341536,0.03014 0.170768,0.03014 0.301355,0.08538 v -0.150678 q 0,-0.261174 -0.150678,-0.401807 -0.145655,-0.140632 -0.436965,-0.140632 -0.210949,0 -0.411852,0.07534 -0.200904,0.07534 -0.411853,0.220994 L 32.9694,59.463691 q 0.507282,-0.336513 1.094925,-0.336513 0.567552,0 0.878953,0.281265 0.316423,0.276242 0.316423,0.803614 v 0.818682 q 0,0.105475 0.03516,0.150678 0.04018,0.0452 0.125565,0.05023 v 0.572575 q -0.170768,0.03516 -0.296333,0.03516 -0.190858,0 -0.296333,-0.08538 -0.100451,-0.08538 -0.125564,-0.226016 l -0.01507,-0.145655 q -0.175791,0.231039 -0.42692,0.351581 -0.25113,0.120542 -0.537417,0.120542 z m 0.190858,-0.492214 q 0.170768,0 0.321446,-0.06027 0.1557,-0.06027 0.241084,-0.160723 0.110497,-0.08538 0.110497,-0.190858 v -0.301355 q -0.120542,-0.0452 -0.261175,-0.07032 -0.140632,-0.03013 -0.271219,-0.03013 -0.261175,0 -0.426921,0.120542 -0.165745,0.115519 -0.165745,0.296333 0,0.170768 0.130587,0.286287 0.130588,0.110497 0.321446,0.110497 z"
           style="font-weight:bold;font-family:Raleway;-inkscape-font-specification:Raleway;vector-effect:none;stop-color:#000000;stop-opacity:1"
           id="path572" /><path
           d="m 36.977424,61.854444 q -0.27122,0 -0.502259,-0.105474 -0.231039,-0.105475 -0.396785,-0.29131 -0.165745,-0.185836 -0.261174,-0.431943 -0.09041,-0.25113 -0.09041,-0.537417 0,-0.286288 0.08538,-0.532395 0.09041,-0.246107 0.246107,-0.431943 0.1557,-0.185835 0.371672,-0.29131 0.215971,-0.105474 0.472123,-0.105474 0.29131,0 0.522349,0.140632 0.236062,0.140633 0.36665,0.366649 v -1.496732 h 0.673027 v 2.893012 q 0,0.105475 0.03516,0.150678 0.03516,0.0452 0.120542,0.05023 v 0.572575 q -0.175791,0.03516 -0.286288,0.03516 -0.180813,0 -0.296333,-0.09041 -0.115519,-0.09041 -0.130587,-0.236062 l -0.01507,-0.165745 q -0.145655,0.251129 -0.396784,0.381716 -0.246107,0.125565 -0.517327,0.125565 z m 0.175791,-0.572575 q 0.09543,0 0.195881,-0.03014 0.100451,-0.03516 0.185835,-0.09543 0.08538,-0.06027 0.150678,-0.140632 0.07032,-0.08036 0.105475,-0.175791 v -0.627824 q -0.04018,-0.110497 -0.11552,-0.200903 -0.07032,-0.09543 -0.165746,-0.160723 -0.09041,-0.07032 -0.195881,-0.110497 -0.100451,-0.04018 -0.200903,-0.04018 -0.150678,0 -0.281265,0.06529 -0.125565,0.06529 -0.215972,0.180813 -0.09041,0.110497 -0.140632,0.256152 -0.05023,0.145655 -0.05023,0.301355 0,0.165746 0.05525,0.306378 0.05525,0.140633 0.150678,0.246107 0.09543,0.105475 0.226017,0.165746 0.13561,0.06027 0.296333,0.06027 z"
           style="font-weight:bold;font-family:Raleway;-inkscape-font-specification:Raleway;vector-effect:none;stop-color:#000000;stop-opacity:1"
           id="path573" /><path
           d="m 39.182334,62.316522 q 0.08538,0.02511 0.165745,0.03516 0.08036,0.01507 0.13561,0.01507 0.06529,0 0.120542,-0.02511 0.05525,-0.02511 0.100452,-0.09041 0.0452,-0.06027 0.09041,-0.170768 0.0452,-0.110497 0.09543,-0.276243 l -1.039676,-2.631837 h 0.693117 l 0.713208,2.049217 0.632846,-2.049217 h 0.632847 l -1.10497,3.154187 q -0.09543,0.276242 -0.326468,0.452033 -0.23104,0.17579 -0.572576,0.17579 -0.08036,0 -0.165745,-0.01507 -0.08036,-0.01005 -0.170768,-0.04018 z"
           style="font-weight:bold;font-family:Raleway;-inkscape-font-specification:Raleway;vector-effect:none;stop-color:#000000;stop-opacity:1"
           id="path574" /><path
           d="m 47.047703,61.804218 h -0.673027 v -1.476641 q 0,-0.316423 -0.110497,-0.462079 -0.105474,-0.145655 -0.296333,-0.145655 -0.200903,0 -0.376694,0.155701 -0.17579,0.150677 -0.251129,0.396784 v 1.53189 h -0.673027 v -1.476641 q 0,-0.316423 -0.110497,-0.462079 -0.105475,-0.145655 -0.296333,-0.145655 -0.195881,0 -0.376694,0.150678 -0.175791,0.150678 -0.25113,0.396785 v 1.536912 h -0.673027 v -2.631837 h 0.607733 v 0.487191 q 0.145655,-0.256152 0.396785,-0.391762 0.256152,-0.140632 0.58262,-0.140632 0.331491,0 0.512305,0.160723 0.180813,0.160723 0.231039,0.396784 0.160723,-0.27122 0.40683,-0.411852 0.246106,-0.145655 0.56253,-0.145655 0.241084,0 0.396784,0.09041 0.155701,0.09041 0.241085,0.236062 0.08538,0.145655 0.115519,0.331491 0.03516,0.185836 0.03516,0.376694 z"
           style="font-weight:bold;font-family:Raleway;-inkscape-font-specification:Raleway;vector-effect:none;stop-color:#000000;stop-opacity:1"
           id="path575" /><path
           d="m 48.348552,58.524467 q 0,-0.185836 0.130587,-0.286288 0.13561,-0.100452 0.356604,-0.100452 0.220994,0 0.351582,0.100452 0.135609,0.100452 0.135609,0.286288 0,0.185836 -0.135609,0.286288 -0.130588,0.100451 -0.351582,0.100451 -0.220994,0 -0.356604,-0.100451 -0.130587,-0.100452 -0.130587,-0.286288 z m 0.487191,-0.180813 q -0.08538,0 -0.145655,0.05023 -0.05525,0.0452 -0.05525,0.130587 0,0.07534 0.05525,0.130587 0.06027,0.05023 0.145655,0.05023 0.08036,0 0.140633,-0.05023 0.06529,-0.05023 0.06529,-0.130587 0,-0.08538 -0.06027,-0.130587 -0.06027,-0.05023 -0.145655,-0.05023 z m -0.396784,3.51079 q -0.40683,0 -0.617779,-0.261174 -0.210949,-0.261175 -0.210949,-0.773479 v -1.64741 h 0.673027 v 1.501755 q 0,0.607733 0.436966,0.607733 0.195881,0 0.376694,-0.11552 0.185836,-0.120542 0.301355,-0.361626 V 59.172381 H 50.0713 v 1.858358 q 0,0.105475 0.03516,0.150678 0.04018,0.0452 0.125565,0.05023 v 0.572575 q -0.100452,0.02009 -0.170768,0.02511 -0.06529,0.005 -0.120542,0.005 -0.180813,0 -0.296333,-0.08036 -0.110497,-0.08538 -0.130587,-0.231039 l -0.01507,-0.210949 q -0.175791,0.27122 -0.452033,0.40683 -0.276242,0.13561 -0.607733,0.13561 z"
           style="font-weight:bold;font-family:Raleway;-inkscape-font-specification:Raleway;vector-effect:none;stop-color:#000000;stop-opacity:1"
           id="path576" /><path
           d="m 51.261646,58.137727 0.42692,0.316424 0.42692,-0.316424 0.346559,0.160723 -0.532395,0.507282 H 51.442459 L 50.910065,58.29845 Z m -0.69814,3.254639 1.466596,-1.747861 h -1.406325 v -0.472124 h 2.11451 v 0.411852 l -1.456551,1.747862 H 52.7634 v 0.472123 h -2.199894 z"
           style="font-weight:bold;font-family:Raleway;-inkscape-font-specification:Raleway;vector-effect:none;stop-color:#000000;stop-opacity:1"
           id="path577" /><path
           d="m 54.365588,61.854444 q -0.316423,0 -0.572576,-0.105474 -0.256152,-0.110497 -0.436965,-0.296333 -0.180813,-0.185836 -0.281265,-0.431943 -0.09543,-0.246107 -0.09543,-0.517327 0,-0.281265 0.09543,-0.527372 0.09543,-0.251129 0.276243,-0.436965 0.180813,-0.190858 0.436965,-0.301355 0.261175,-0.110497 0.58262,-0.110497 0.321446,0 0.572576,0.110497 0.256152,0.110497 0.431942,0.296333 0.180814,0.185835 0.27122,0.431942 0.09543,0.246107 0.09543,0.512304 0,0.06529 -0.005,0.125565 0,0.06027 -0.01005,0.100452 h -2.034149 q 0.01507,0.1557 0.07534,0.276243 0.06027,0.120542 0.1557,0.205926 0.09543,0.08538 0.215971,0.130587 0.120542,0.0452 0.25113,0.0452 0.200903,0 0.376694,-0.09543 0.180813,-0.100452 0.246107,-0.261175 l 0.577598,0.160723 q -0.145655,0.301356 -0.467101,0.497237 -0.316423,0.190858 -0.758411,0.190858 z m 0.683072,-1.587138 q -0.02511,-0.296333 -0.220994,-0.472124 -0.190858,-0.180813 -0.467101,-0.180813 -0.13561,0 -0.256152,0.05023 -0.11552,0.0452 -0.205926,0.130587 -0.09041,0.08538 -0.150678,0.205926 -0.05525,0.120543 -0.06529,0.266198 z"
           style="font-weight:bold;font-family:Raleway;-inkscape-font-specification:Raleway;vector-effect:none;stop-color:#000000;stop-opacity:1"
           id="path578" /><path
           d="m 56.655883,58.137727 0.42692,0.316424 0.426921,-0.316424 0.346558,0.160723 -0.532394,0.507282 H 56.836696 L 56.304302,58.29845 Z m 0.492214,3.716717 q -0.331491,0 -0.647914,-0.105474 -0.316423,-0.105475 -0.54244,-0.301356 l 0.25113,-0.421897 q 0.241084,0.170768 0.467101,0.261175 0.231039,0.08538 0.457055,0.08538 0.200904,0 0.316423,-0.07534 0.11552,-0.07534 0.11552,-0.215972 0,-0.140632 -0.13561,-0.205926 -0.13561,-0.06529 -0.441988,-0.150678 -0.256152,-0.07032 -0.436965,-0.13561 -0.180813,-0.06529 -0.29131,-0.145655 -0.110497,-0.08538 -0.160723,-0.190858 -0.05023,-0.110497 -0.05023,-0.261175 0,-0.200903 0.07534,-0.361626 0.08036,-0.160723 0.220994,-0.27122 0.140632,-0.11552 0.326468,-0.175791 0.190858,-0.06027 0.411852,-0.06027 0.296333,0 0.552485,0.08538 0.261175,0.08538 0.477146,0.276243 l -0.27122,0.406829 q -0.200903,-0.150677 -0.391762,-0.220994 -0.185835,-0.07032 -0.371671,-0.07032 -0.170768,0 -0.286288,0.07032 -0.115519,0.07032 -0.115519,0.226017 0,0.07032 0.02511,0.11552 0.03014,0.0452 0.09041,0.08036 0.06027,0.03516 0.1557,0.07032 0.100452,0.03014 0.246107,0.06529 0.27122,0.07032 0.462079,0.140633 0.195881,0.07032 0.316423,0.160722 0.125565,0.09041 0.180813,0.210949 0.06027,0.11552 0.06027,0.281265 0,0.38674 -0.286288,0.612756 -0.286287,0.220994 -0.778501,0.220994 z"
           style="font-weight:bold;font-family:Raleway;-inkscape-font-specification:Raleway;vector-effect:none;stop-color:#000000;stop-opacity:1"
           id="path579" /><path
           d="m 60.658885,61.854444 q -0.406829,0 -0.617778,-0.261174 -0.210949,-0.261175 -0.210949,-0.773479 v -1.64741 h 0.673027 v 1.501755 q 0,0.607733 0.436965,0.607733 0.195881,0 0.376695,-0.11552 0.185836,-0.120542 0.301355,-0.361626 v -1.632342 h 0.673027 v 1.858358 q 0,0.105475 0.03516,0.150678 0.04018,0.0452 0.125565,0.05023 v 0.572575 q -0.100452,0.02009 -0.170768,0.02511 -0.06529,0.005 -0.120542,0.005 -0.180813,0 -0.296333,-0.08036 -0.110497,-0.08538 -0.130587,-0.231039 l -0.01507,-0.210949 q -0.175791,0.27122 -0.452033,0.40683 -0.276243,0.13561 -0.607734,0.13561 z"
           style="font-weight:bold;font-family:Raleway;-inkscape-font-specification:Raleway;vector-effect:none;stop-color:#000000;stop-opacity:1"
           id="path580" /><path
           d="m 64.536317,61.854444 q -0.311401,0 -0.54244,-0.13561 -0.231039,-0.140632 -0.361627,-0.376694 v 1.53189 h -0.673027 v -3.701649 h 0.587643 v 0.452033 q 0.145656,-0.231039 0.376695,-0.361626 0.231039,-0.13561 0.532394,-0.13561 0.266198,0 0.492214,0.110497 0.226017,0.105474 0.38674,0.29131 0.165745,0.180813 0.256152,0.431943 0.09543,0.246107 0.09543,0.522349 0,0.286288 -0.08538,0.537417 -0.08538,0.25113 -0.241085,0.436966 -0.150677,0.185835 -0.361626,0.29131 -0.210949,0.105474 -0.462078,0.105474 z M 64.3103,61.281869 q 0.150678,0 0.276243,-0.06529 0.130587,-0.06529 0.220994,-0.17579 0.09041,-0.110497 0.140632,-0.256153 0.05023,-0.145655 0.05023,-0.301355 0,-0.165745 -0.05525,-0.306378 -0.05525,-0.145655 -0.1557,-0.251129 -0.09543,-0.105475 -0.231039,-0.165746 -0.130587,-0.06027 -0.286288,-0.06027 -0.09543,0 -0.195881,0.03516 -0.100451,0.03014 -0.185835,0.09041 -0.08538,0.06027 -0.155701,0.140632 -0.06529,0.08036 -0.100452,0.175791 v 0.617779 q 0.09041,0.226016 0.276243,0.376694 0.185836,0.145655 0.401807,0.145655 z"
           style="font-weight:bold;font-family:Raleway;-inkscape-font-specification:Raleway;vector-effect:none;stop-color:#000000;stop-opacity:1"
           id="path581" /><path
           d="m 67.710586,59.755002 q -0.306378,0.005 -0.547462,0.120542 -0.241084,0.110497 -0.346559,0.336513 v 1.592161 h -0.673027 v -2.631837 h 0.617779 v 0.56253 q 0.07032,-0.13561 0.165745,-0.241084 0.09543,-0.110497 0.205926,-0.190859 0.110497,-0.08036 0.220994,-0.120542 0.11552,-0.0452 0.220994,-0.0452 0.05525,0 0.08036,0 0.03014,0 0.05525,0.005 z"
           style="font-weight:bold;font-family:Raleway;-inkscape-font-specification:Raleway;vector-effect:none;stop-color:#000000;stop-opacity:1"
           id="path582" /><path
           d="m 68.770338,61.854444 q -0.190859,0 -0.356604,-0.06027 -0.165746,-0.06529 -0.286288,-0.175791 -0.120542,-0.115519 -0.190858,-0.266197 -0.06529,-0.150678 -0.06529,-0.331491 0,-0.185836 0.08036,-0.341536 0.08538,-0.160723 0.231039,-0.27122 0.150677,-0.110497 0.356604,-0.170768 0.205926,-0.06529 0.452033,-0.06529 0.17579,0 0.341536,0.03014 0.170768,0.03014 0.301355,0.08538 v -0.150678 q 0,-0.261174 -0.150677,-0.401807 -0.145655,-0.140632 -0.436966,-0.140632 -0.210948,0 -0.411852,0.07534 -0.200904,0.07534 -0.411852,0.220994 l -0.205927,-0.42692 q 0.507282,-0.336513 1.094925,-0.336513 0.567553,0 0.878953,0.281265 0.316423,0.276242 0.316423,0.803614 v 0.818682 q 0,0.105475 0.03516,0.150678 0.04018,0.0452 0.125564,0.05023 v 0.572575 q -0.170768,0.03516 -0.296333,0.03516 -0.190858,0 -0.296332,-0.08538 -0.100452,-0.08538 -0.125565,-0.226016 l -0.01507,-0.145655 q -0.175791,0.231039 -0.42692,0.351581 -0.25113,0.120542 -0.537417,0.120542 z m 0.190858,-0.492214 q 0.170768,0 0.321446,-0.06027 0.1557,-0.06027 0.241084,-0.160723 0.110497,-0.08538 0.110497,-0.190858 v -0.301355 q -0.120542,-0.0452 -0.261174,-0.07032 -0.140633,-0.03013 -0.27122,-0.03013 -0.261175,0 -0.42692,0.120542 -0.165746,0.115519 -0.165746,0.296333 0,0.170768 0.130587,0.286287 0.130588,0.110497 0.321446,0.110497 z"
           style="font-weight:bold;font-family:Raleway;-inkscape-font-specification:Raleway;vector-effect:none;stop-color:#000000;stop-opacity:1"
           id="path583" /><path
           d="m 71.572934,61.804218 -0.96936,-2.631837 h 0.693117 l 0.668005,2.084375 0.673027,-2.084375 h 0.632846 l -0.96936,2.631837 z"
           style="font-weight:bold;font-family:Raleway;-inkscape-font-specification:Raleway;vector-effect:none;stop-color:#000000;stop-opacity:1"
           id="path584" /><path
           d="m 73.622149,61.804218 v -2.631837 h 0.673027 v 2.631837 z m 0,-2.998486 v -0.668005 h 0.673027 v 0.668005 z"
           style="font-weight:bold;font-family:Raleway;-inkscape-font-specification:Raleway;vector-effect:none;stop-color:#000000;stop-opacity:1"
           id="path585" /><path
           d="m 76.479997,61.668608 q -0.13561,0.06027 -0.331491,0.120543 -0.195881,0.06027 -0.411853,0.06027 -0.140632,0 -0.266197,-0.03516 -0.120542,-0.03516 -0.215971,-0.110497 -0.09041,-0.08036 -0.145656,-0.200903 -0.05525,-0.125565 -0.05525,-0.301356 V 59.689706 H 74.70702 v -0.517327 h 0.346559 v -0.85384 h 0.673027 v 0.85384 h 0.552485 v 0.517327 h -0.552485 v 1.285783 q 0,0.140632 0.07032,0.200904 0.07534,0.05525 0.180813,0.05525 0.105475,0 0.205927,-0.03516 0.100451,-0.03516 0.160723,-0.06027 z"
           style="font-weight:bold;font-family:Raleway;-inkscape-font-specification:Raleway;vector-effect:none;stop-color:#000000;stop-opacity:1"
           id="path586" /><path
           d="m 40.12659,68.287959 h -0.673027 v -1.476641 q 0,-0.316423 -0.110497,-0.462078 -0.110497,-0.145656 -0.306378,-0.145656 -0.100452,0 -0.205926,0.04018 -0.105475,0.04018 -0.200904,0.11552 -0.09041,0.07032 -0.165746,0.170768 -0.07534,0.100452 -0.110497,0.220994 v 1.536912 h -0.673027 v -2.631837 h 0.607734 v 0.487191 q 0.145655,-0.251129 0.421897,-0.391762 0.276243,-0.140632 0.622802,-0.140632 0.246106,0 0.401807,0.09041 0.1557,0.09041 0.241084,0.236062 0.08538,0.145655 0.11552,0.331491 0.03516,0.185836 0.03516,0.376694 z"
           style="font-weight:bold;font-family:Raleway;-inkscape-font-specification:Raleway;vector-effect:none;stop-color:#000000;stop-opacity:1"
           id="path587" /><path
           d="m 41.50277,64.621469 0.42692,0.316423 0.42692,-0.316423 0.346559,0.160722 -0.532394,0.507282 h -0.487192 l -0.532394,-0.507282 z m 0.431943,3.716716 q -0.316423,0 -0.572575,-0.105474 -0.256152,-0.110497 -0.436966,-0.296333 -0.180813,-0.185836 -0.281265,-0.431943 -0.09543,-0.246107 -0.09543,-0.517327 0,-0.281265 0.09543,-0.527372 0.09543,-0.251129 0.276243,-0.436965 0.180813,-0.190858 0.436965,-0.301355 0.261175,-0.110497 0.58262,-0.110497 0.321446,0 0.572576,0.110497 0.256152,0.110497 0.431943,0.296333 0.180813,0.185835 0.271219,0.431942 0.09543,0.246107 0.09543,0.512305 0,0.06529 -0.005,0.125564 0,0.06027 -0.01005,0.100452 h -2.034149 q 0.01507,0.1557 0.07534,0.276243 0.06027,0.120542 0.1557,0.205926 0.09543,0.08538 0.215971,0.130587 0.120543,0.0452 0.25113,0.0452 0.200903,0 0.376694,-0.09543 0.180813,-0.100452 0.246107,-0.261175 l 0.577598,0.160723 q -0.145655,0.301356 -0.467101,0.497237 -0.316423,0.190858 -0.758411,0.190858 z m 0.683072,-1.587138 q -0.02511,-0.296333 -0.220994,-0.472124 -0.190858,-0.180813 -0.467101,-0.180813 -0.13561,0 -0.256152,0.05023 -0.115519,0.0452 -0.205926,0.130587 -0.09041,0.08538 -0.150678,0.205926 -0.05525,0.120543 -0.06529,0.266198 z"
           style="font-weight:bold;font-family:Raleway;-inkscape-font-specification:Raleway;vector-effect:none;stop-color:#000000;stop-opacity:1"
           id="path588" /><path
           d="m 45.520838,68.287959 -0.763434,-1.140128 -0.361627,0.356604 v 0.783524 H 43.72275 v -3.66649 h 0.673027 v 2.225007 l 1.054744,-1.185331 h 0.718231 l -0.979405,1.115015 1.049721,1.511799 z"
           style="font-weight:bold;font-family:Raleway;-inkscape-font-specification:Raleway;vector-effect:none;stop-color:#000000;stop-opacity:1"
           id="path589" /><path
           d="m 47.605204,68.338185 q -0.321446,0 -0.577598,-0.110497 -0.256152,-0.110497 -0.436966,-0.296333 -0.17579,-0.190858 -0.271219,-0.436965 -0.09543,-0.246107 -0.09543,-0.517327 0,-0.276242 0.09543,-0.522349 0.09543,-0.246107 0.271219,-0.431943 0.180814,-0.190858 0.436966,-0.301355 0.256152,-0.110497 0.577598,-0.110497 0.321445,0 0.572575,0.110497 0.256152,0.110497 0.431943,0.301355 0.180813,0.185836 0.276242,0.431943 0.09543,0.246107 0.09543,0.522349 0,0.27122 -0.09543,0.517327 -0.09543,0.246107 -0.27122,0.436965 -0.17579,0.185836 -0.431943,0.296333 -0.256152,0.110497 -0.577597,0.110497 z m -0.688095,-1.361122 q 0,0.175791 0.05023,0.321446 0.05525,0.140633 0.145655,0.246107 0.09543,0.105474 0.220994,0.165745 0.125564,0.05525 0.27122,0.05525 0.145655,0 0.271219,-0.05525 0.125565,-0.06027 0.215972,-0.165745 0.09543,-0.105474 0.145655,-0.25113 0.05525,-0.145655 0.05525,-0.321445 0,-0.170768 -0.05525,-0.316423 -0.05023,-0.145656 -0.145655,-0.25113 -0.09041,-0.105474 -0.215972,-0.160723 -0.125564,-0.06027 -0.271219,-0.06027 -0.145656,0 -0.27122,0.06027 -0.125565,0.06027 -0.220994,0.165746 -0.09041,0.105474 -0.145655,0.251129 -0.05023,0.145655 -0.05023,0.316423 z"
           style="font-weight:bold;font-family:Raleway;-inkscape-font-specification:Raleway;vector-effect:none;stop-color:#000000;stop-opacity:1"
           id="path590" /><path
           d="m 49.428398,64.621469 h 0.673027 v 2.822695 q 0,0.145655 0.07032,0.226017 0.07032,0.08036 0.200903,0.08036 0.06027,0 0.130587,-0.02009 0.07534,-0.02009 0.140633,-0.05023 l 0.09041,0.512304 q -0.13561,0.06529 -0.316424,0.100452 -0.180813,0.03516 -0.326468,0.03516 -0.316423,0 -0.492214,-0.165745 -0.170768,-0.170769 -0.170768,-0.482169 z"
           style="font-weight:bold;font-family:Raleway;-inkscape-font-specification:Raleway;vector-effect:none;stop-color:#000000;stop-opacity:1"
           id="path591" /><path
           d="m 51.02558,68.287959 v -2.631837 h 0.673027 v 2.631837 z m 0,-2.998486 v -0.668004 h 0.673027 v 0.668004 z"
           style="font-weight:bold;font-family:Raleway;-inkscape-font-specification:Raleway;vector-effect:none;stop-color:#000000;stop-opacity:1"
           id="path592" /><path
           d="m 54.104423,68.287959 -0.763433,-1.140128 -0.361627,0.356604 v 0.783524 h -0.673027 v -3.66649 h 0.673027 v 2.225007 l 1.054744,-1.185331 h 0.71823 l -0.979405,1.115015 1.049722,1.511799 z"
           style="font-weight:bold;font-family:Raleway;-inkscape-font-specification:Raleway;vector-effect:none;stop-color:#000000;stop-opacity:1"
           id="path593" /><path
           d="m 58.760356,68.287959 h -0.673027 v -1.476641 q 0,-0.316423 -0.110497,-0.462078 -0.110497,-0.145656 -0.306378,-0.145656 -0.100452,0 -0.205926,0.04018 -0.105475,0.04018 -0.200904,0.11552 -0.09041,0.07032 -0.165745,0.170768 -0.07534,0.100452 -0.110497,0.220994 v 1.536912 h -0.673027 v -2.631837 h 0.607733 v 0.487191 q 0.145655,-0.251129 0.421898,-0.391762 0.276242,-0.140632 0.622801,-0.140632 0.246107,0 0.401807,0.09041 0.1557,0.09041 0.241084,0.236062 0.08538,0.145655 0.11552,0.331491 0.03516,0.185836 0.03516,0.376694 z"
           style="font-weight:bold;font-family:Raleway;-inkscape-font-specification:Raleway;vector-effect:none;stop-color:#000000;stop-opacity:1"
           id="path594" /><path
           d="m 60.066221,68.338185 q -0.190858,0 -0.356604,-0.06027 -0.165745,-0.06529 -0.286288,-0.175791 -0.120542,-0.115519 -0.190858,-0.266197 -0.06529,-0.150678 -0.06529,-0.331491 0,-0.185836 0.08036,-0.341536 0.08538,-0.160723 0.231039,-0.27122 0.150678,-0.110497 0.356604,-0.170768 0.205926,-0.06529 0.452033,-0.06529 0.175791,0 0.341536,0.03014 0.170768,0.03014 0.301356,0.08538 v -0.150678 q 0,-0.261174 -0.150678,-0.401807 -0.145655,-0.140632 -0.436966,-0.140632 -0.210948,0 -0.411852,0.07534 -0.200904,0.07534 -0.411852,0.220994 l -0.205927,-0.42692 q 0.507282,-0.336513 1.094925,-0.336513 0.567553,0 0.878953,0.281265 0.316424,0.276242 0.316424,0.803614 v 0.818682 q 0,0.105475 0.03516,0.150678 0.04018,0.0452 0.125564,0.05023 v 0.572575 q -0.170768,0.03516 -0.296332,0.03516 -0.190859,0 -0.296333,-0.08538 -0.100452,-0.08538 -0.125565,-0.226016 l -0.01507,-0.145655 q -0.17579,0.231039 -0.42692,0.351581 -0.251129,0.120542 -0.537417,0.120542 z m 0.190858,-0.492214 q 0.170769,0 0.321446,-0.06027 0.155701,-0.06027 0.241085,-0.160723 0.110497,-0.08538 0.110497,-0.190858 v -0.301355 q -0.120543,-0.0452 -0.261175,-0.07032 -0.140633,-0.03014 -0.27122,-0.03014 -0.261175,0 -0.42692,0.120542 -0.165746,0.11552 -0.165746,0.296333 0,0.170768 0.130588,0.286287 0.130587,0.110497 0.321445,0.110497 z"
           style="font-weight:bold;font-family:Raleway;-inkscape-font-specification:Raleway;vector-effect:none;stop-color:#000000;stop-opacity:1"
           id="path595" /><path
           d="m 63.225427,68.338185 q -0.331491,0 -0.647914,-0.105474 -0.316424,-0.105475 -0.54244,-0.301356 l 0.251129,-0.421897 q 0.241085,0.170768 0.467101,0.261175 0.231039,0.08538 0.457056,0.08538 0.200903,0 0.316423,-0.07534 0.11552,-0.07534 0.11552,-0.215972 0,-0.140632 -0.13561,-0.205926 -0.13561,-0.06529 -0.441988,-0.150678 -0.256152,-0.07032 -0.436966,-0.13561 -0.180813,-0.06529 -0.29131,-0.145655 -0.110497,-0.08538 -0.160723,-0.190858 -0.05023,-0.110497 -0.05023,-0.261175 0,-0.200903 0.07534,-0.361626 0.08036,-0.160723 0.220994,-0.27122 0.140633,-0.11552 0.326469,-0.175791 0.190858,-0.06027 0.411852,-0.06027 0.296333,0 0.552485,0.08538 0.261175,0.08538 0.477146,0.276243 l -0.27122,0.406829 q -0.200904,-0.150677 -0.391762,-0.220994 -0.185836,-0.07032 -0.371672,-0.07032 -0.170768,0 -0.286287,0.07032 -0.11552,0.07032 -0.11552,0.226017 0,0.07032 0.02511,0.11552 0.03014,0.0452 0.09041,0.08036 0.06027,0.03516 0.1557,0.07032 0.100452,0.03014 0.246107,0.06529 0.27122,0.07032 0.462078,0.140633 0.195881,0.07032 0.316423,0.160722 0.125565,0.09041 0.180814,0.210949 0.06027,0.11552 0.06027,0.281265 0,0.38674 -0.286288,0.612756 -0.286288,0.220994 -0.778501,0.220994 z"
           style="font-weight:bold;font-family:Raleway;-inkscape-font-specification:Raleway;vector-effect:none;stop-color:#000000;stop-opacity:1"
           id="path596" /><path
           d="m 66.304272,68.152349 q -0.135609,0.06027 -0.33149,0.120543 -0.195881,0.06027 -0.411853,0.06027 -0.140632,0 -0.266197,-0.03516 -0.120542,-0.03516 -0.215972,-0.110496 -0.09041,-0.08036 -0.145655,-0.200904 -0.05525,-0.125565 -0.05525,-0.301356 V 66.173447 H 64.531296 V 65.65612 h 0.346559 v -0.85384 h 0.673027 v 0.85384 h 0.552485 v 0.517327 h -0.552485 v 1.285783 q 0,0.140632 0.07032,0.200904 0.07534,0.05525 0.180813,0.05525 0.105475,0 0.205927,-0.03516 0.100451,-0.03516 0.160723,-0.06027 z"
           style="font-weight:bold;font-family:Raleway;-inkscape-font-specification:Raleway;vector-effect:none;stop-color:#000000;stop-opacity:1"
           id="path597" /><path
           d="m 67.374079,68.338185 q -0.190859,0 -0.356604,-0.06027 -0.165746,-0.06529 -0.286288,-0.175791 -0.120542,-0.115519 -0.190858,-0.266197 -0.06529,-0.150678 -0.06529,-0.331491 0,-0.185836 0.08036,-0.341536 0.08538,-0.160723 0.231039,-0.27122 0.150678,-0.110497 0.356604,-0.170768 0.205927,-0.06529 0.452033,-0.06529 0.175791,0 0.341537,0.03014 0.170768,0.03014 0.301355,0.08538 v -0.150678 q 0,-0.261174 -0.150678,-0.401807 -0.145655,-0.140632 -0.436965,-0.140632 -0.210949,0 -0.411852,0.07534 -0.200904,0.07534 -0.411853,0.220994 l -0.205926,-0.42692 q 0.507282,-0.336513 1.094925,-0.336513 0.567552,0 0.878953,0.281265 0.316423,0.276242 0.316423,0.803614 v 0.818682 q 0,0.105475 0.03516,0.150678 0.04018,0.0452 0.125565,0.05023 v 0.572575 q -0.170768,0.03516 -0.296333,0.03516 -0.190858,0 -0.296333,-0.08538 -0.100451,-0.08538 -0.125564,-0.226016 l -0.01507,-0.145655 q -0.175791,0.231039 -0.42692,0.351581 -0.25113,0.120542 -0.537417,0.120542 z m 0.190858,-0.492214 q 0.170768,0 0.321446,-0.06027 0.1557,-0.06027 0.241084,-0.160723 0.110497,-0.08538 0.110497,-0.190858 v -0.301355 q -0.120542,-0.0452 -0.261175,-0.07032 -0.140632,-0.03014 -0.27122,-0.03014 -0.261174,0 -0.42692,0.120542 -0.165745,0.11552 -0.165745,0.296333 0,0.170768 0.130587,0.286287 0.130588,0.110497 0.321446,0.110497 z"
           style="font-weight:bold;font-family:Raleway;-inkscape-font-specification:Raleway;vector-effect:none;stop-color:#000000;stop-opacity:1"
           id="path598" /><path
           d="m 70.176671,68.287959 -0.96936,-2.631837 h 0.693117 l 0.668005,2.084375 0.673027,-2.084375 h 0.632846 l -0.96936,2.631837 z"
           style="font-weight:bold;font-family:Raleway;-inkscape-font-specification:Raleway;vector-effect:none;stop-color:#000000;stop-opacity:1"
           id="path599" /><path
           d="m 73.355963,68.338185 q -0.316423,0 -0.572575,-0.105474 -0.256152,-0.110497 -0.436965,-0.296333 -0.180814,-0.185836 -0.281265,-0.431943 -0.09543,-0.246107 -0.09543,-0.517327 0,-0.281265 0.09543,-0.527372 0.09543,-0.251129 0.276242,-0.436965 0.180813,-0.190858 0.436965,-0.301355 0.261175,-0.110497 0.582621,-0.110497 0.321446,0 0.572575,0.110497 0.256152,0.110497 0.431943,0.296333 0.180813,0.185835 0.27122,0.431942 0.09543,0.246107 0.09543,0.512305 0,0.06529 -0.005,0.125564 0,0.06027 -0.01005,0.100452 h -2.034149 q 0.01507,0.1557 0.07534,0.276243 0.06027,0.120542 0.1557,0.205926 0.09543,0.08538 0.215972,0.130587 0.120542,0.0452 0.251129,0.0452 0.200904,0 0.376694,-0.09543 0.180814,-0.100452 0.246107,-0.261175 l 0.577598,0.160723 q -0.145655,0.301356 -0.467101,0.497237 -0.316423,0.190858 -0.758411,0.190858 z m 0.683073,-1.587138 q -0.02511,-0.296333 -0.220994,-0.472124 -0.190859,-0.180813 -0.467101,-0.180813 -0.13561,0 -0.256152,0.05023 -0.11552,0.0452 -0.205927,0.130587 -0.09041,0.08538 -0.150677,0.205926 -0.05525,0.120543 -0.06529,0.266198 z"
           style="font-weight:bold;font-family:Raleway;-inkscape-font-specification:Raleway;vector-effect:none;stop-color:#000000;stop-opacity:1"
           id="path600" /><path
           d="m 77.590001,68.287959 h -0.673027 v -1.476641 q 0,-0.316423 -0.110497,-0.462078 -0.110497,-0.145656 -0.306378,-0.145656 -0.100452,0 -0.205926,0.04018 -0.105475,0.04018 -0.200904,0.11552 -0.09041,0.07032 -0.165745,0.170768 -0.07534,0.100452 -0.110497,0.220994 v 1.536912 H 75.144 v -2.631837 h 0.607733 v 0.487191 q 0.145655,-0.251129 0.421898,-0.391762 0.276242,-0.140632 0.622801,-0.140632 0.246107,0 0.401807,0.09041 0.1557,0.09041 0.241084,0.236062 0.08538,0.145655 0.11552,0.331491 0.03516,0.185836 0.03516,0.376694 z"
           style="font-weight:bold;font-family:Raleway;-inkscape-font-specification:Raleway;vector-effect:none;stop-color:#000000;stop-opacity:1"
           id="path601" /><path
           d="m 78.684915,65.349744 -0.431942,-0.130587 0.27122,-0.597688 h 0.627823 z m -0.507281,2.938215 v -2.631837 h 0.673027 v 2.631837 z"
           style="font-weight:bold;font-family:Raleway;-inkscape-font-specification:Raleway;vector-effect:none;stop-color:#000000;stop-opacity:1"
           id="path602" /><path
           d="m 79.443324,68.287959 v -0.723253 h 0.552485 v 0.723253 z"
           style="font-weight:bold;font-family:Raleway;-inkscape-font-specification:Raleway;vector-effect:none;stop-color:#000000;stop-opacity:1"
           id="path603" /><path
           d="m 80.573398,68.287959 v -0.723253 h 0.552484 v 0.723253 z"
           style="font-weight:bold;font-family:Raleway;-inkscape-font-specification:Raleway;vector-effect:none;stop-color:#000000;stop-opacity:1"
           id="path604" /><path
           d="m 81.703475,68.287959 v -0.723253 h 0.552485 v 0.723253 z"
           style="font-weight:bold;font-family:Raleway;-inkscape-font-specification:Raleway;vector-effect:none;stop-color:#000000;stop-opacity:1"
           id="path605" /></g></g></g></svg>
