<?xml version="1.0" encoding="UTF-8" standalone="no"?>
<svg
   inkscape:version="1.1.1 (3bf5ae0d25, 2021-09-20, custom)"
   sodipodi:docname="tool-pages-symbolic-b.svg"
   viewBox="0 0 16 16"
   height="16"
   width="16"
   id="svg1"
   version="1.1"
   xmlns:inkscape="http://www.inkscape.org/namespaces/inkscape"
   xmlns:sodipodi="http://sodipodi.sourceforge.net/DTD/sodipodi-0.dtd"
   xmlns="http://www.w3.org/2000/svg"
   xmlns:svg="http://www.w3.org/2000/svg"
   xmlns:rdf="http://www.w3.org/1999/02/22-rdf-syntax-ns#"
   xmlns:cc="http://creativecommons.org/ns#"
   xmlns:dc="http://purl.org/dc/elements/1.1/">
     <style
     id="s0">
   .success { fill: #009909; }
   .warning { fill: #FF1990; }
   .error   { fill: #00AAFF; }
  </style>
  <style
     id="s2"> 
     @import '../../highlights.css'; 
  </style>
  <metadata
     id="metadata1213">
    <rdf:RDF>
      <cc:Work
         rdf:about="">
        <dc:format>image/svg+xml</dc:format>
        <dc:type
           rdf:resource="http://purl.org/dc/dcmitype/StillImage" />
      </cc:Work>
    </rdf:RDF>
  </metadata>
  <sodipodi:namedview
     inkscape:document-rotation="0"
     inkscape:current-layer="g0"
     inkscape:window-maximized="1"
     inkscape:window-y="533"
     inkscape:window-x="1200"
     inkscape:window-height="1163"
     inkscape:window-width="1920"
     inkscape:cy="9.0913728"
     inkscape:cx="3.0620249"
     inkscape:zoom="31.678384"
     showgrid="true"
     id="namedview"
     guidetolerance="10"
     gridtolerance="10"
     objecttolerance="10"
     inkscape:showpageshadow="true"
     inkscape:snap-global="true"
     inkscape:snap-nodes="true"
     pagecolor="#ffffff"
     bordercolor="#666666"
     borderopacity="1.0"
     inkscape:pageshadow="2"
     inkscape:pageopacity="0.0"
     inkscape:pagecheckerboard="0">
    <inkscape:grid
       id="grid"
       type="xygrid"
       spacingx="0.5"
       spacingy="0.5"
       empspacing="2" />
  </sodipodi:namedview>
  <g
     id="g0"
     inkscape:label="draw-poligon-star">
    <path
       inkscape:connector-curvature="0"
       style="opacity:0"
       d="M 0,0 H 16 V 16 H 0 Z"
       id="background" />
    <path
       class="base"
       inkscape:label="star out"
       inkscape:connector-curvature="0"
       d="M 11,6 A 1,1 0 0 0 10.707107,5.2928932 l -2.0000002,-2 A 1,1 0 0 0 8,3 H 1 A 1,1 0 0 0 0,4 v 11 a 1,1 0 0 0 1,1 h 9 a 1,1 0 0 0 1,-1 z M 1,14 2,15 V 4 L 1,5 h 7 l -0.7071068,-0.2928932 2,2 L 9,6 v 9 l 1,-1 z"
       id="polygon1138"
       sodipodi:nodetypes="cccccc"
       style=""
       inkscape:original-d="M 10,15 V 6 L 8,4 H 1 v 11 z"
       />
    <path
       style=""
       d="M 7,3.5253813 V 6.5 A 0.5,0.5 0 0 0 7.5,7 H 11 V 6 H 7.5 L 8,6.5 V 3.5253813 Z"
       id="path845"
       inkscape:original-d="M 7.5,3.5253813 V 6.5 H 11"
       sodipodi:nodetypes="ccc" />
    <path
       class="base"
       inkscape:label="star out"
       inkscape:connector-curvature="0"
       d="m 13,13 h 2 a 1,1 0 0 0 1,-1 V 3 A 1,1 0 0 0 15.707107,2.2928932 l -2,-1.99999998 A 1,1 0 0 0 13,0 H 6 a 1,1 0 1 0 0,2 h 7 l -0.707107,-0.2928932 2,2 L 14,3 v 9 l 1,-1 h -2 a 1,1 0 1 0 0,2 z"
       id="path1847"
       sodipodi:nodetypes="ccccc"
       inkscape:original-d="m 13,12 h 2 V 3 L 13,1 H 6"
        />
    <path
       style=""
       d="M 7.5,3.5253813 V 6.5 H 11"
       id="path2693"
       inkscape:original-d="M 7.5,3.5253813 V 6.5 H 11"
       sodipodi:nodetypes="ccc"
       class="base" />
    <path
       style="fill:#000000;fill-rule:nonzero;stroke:none;stroke-width:3.77953;stroke-linejoin:bevel;stop-color:#000000"
       d="M 12,1 V 3.5 A 0.5,0.5 0 0 0 12.5,4 H 15 V 3 H 12.5 L 13,3.5 V 1 Z"
       id="path3628"
       inkscape:original-d="M 12.5,1 V 3.5 H 15"
       sodipodi:nodetypes="ccc" />
    <path
       style=""
       d="m 12.5,1.5 2,2 h -2 z"
       id="path3788"
       sodipodi:nodetypes="cccc" />
  </g>
</svg>
