<?xml version="1.0" encoding="UTF-8" standalone="no"?>
<svg
   inkscape:version="1.1.1 (3bf5ae0d25, 2021-09-20)"
   sodipodi:docname="exchange-positions-clockwise-symbolic.svg"
   viewBox="0 0 16 16"
   height="16"
   width="16"
   id="svg1"
   version="1.1"
   xmlns:inkscape="http://www.inkscape.org/namespaces/inkscape"
   xmlns:sodipodi="http://sodipodi.sourceforge.net/DTD/sodipodi-0.dtd"
   xmlns="http://www.w3.org/2000/svg"
   xmlns:svg="http://www.w3.org/2000/svg"
   xmlns:rdf="http://www.w3.org/1999/02/22-rdf-syntax-ns#"
   xmlns:cc="http://creativecommons.org/ns#"
   xmlns:dc="http://purl.org/dc/elements/1.1/">
  <metadata
     id="metadata16424">
    <rdf:RDF>
      <cc:Work
         rdf:about="">
        <dc:format>image/svg+xml</dc:format>
        <dc:type
           rdf:resource="http://purl.org/dc/dcmitype/StillImage" />
      </cc:Work>
    </rdf:RDF>
  </metadata>
  <defs
     id="defs16422">
    <inkscape:path-effect
       effect="fillet_chamfer"
       id="path-effect18572"
       is_visible="true"
       lpeversion="1"
       satellites_param="F,0,0,1,0,0,0,1 @ F,0,0,1,0,0,0,1 @ F,0,0,1,0,3.0038876,0,1 @ F,0,0,1,0,0,0,1 @ F,0,0,1,0,0,0,1 @ F,0,0,1,0,0,0,1 @ F,0,0,1,0,0,0,1 @ F,0,0,1,0,0,0,1 @ F,0,0,1,0,4.5058306,0,1 | F,0,0,1,0,0,0,1 @ F,0,0,1,0,0,0,1 @ F,0,0,1,0,0,0,1 @ F,0,0,1,0,0,0,1 @ F,0,0,1,0,0,0,1"
       unit="px"
       method="auto"
       mode="F"
       radius="0"
       chamfer_steps="1"
       flexible="false"
       use_knot_distance="true"
       apply_no_radius="true"
       apply_with_radius="true"
       only_selected="false"
       hide_knots="false" />
  </defs>
  <style
     id="s0">
.success { fill:#009909; }
.warning { fill:#FF1990; }
.error { fill:#00AAFF; }
</style>
  <style
     id="s2">
@import '../../highlights.css';
</style>
  <sodipodi:namedview
     inkscape:document-rotation="0"
     inkscape:current-layer="exchange-positions-clockwise"
     inkscape:window-maximized="1"
     inkscape:window-y="-8"
     inkscape:window-x="54"
     inkscape:window-height="1177"
     inkscape:window-width="1858"
     inkscape:cy="4.6853583"
     inkscape:cx="4.768432"
     inkscape:zoom="30.09375"
     showgrid="true"
     id="namedview"
     guidetolerance="10"
     gridtolerance="10"
     objecttolerance="10"
     pagecolor="#ffffff"
     bordercolor="#666666"
     borderopacity="1.0"
     inkscape:pageshadow="2"
     inkscape:pageopacity="0.0"
     inkscape:pagecheckerboard="0">
    <inkscape:grid
       id="grid"
       type="xygrid" />
  </sodipodi:namedview>
  <g
     inkscape:label="00362"
     id="exchange-positions-clockwise"
     transform="matrix(0.665804,0,0,0.666667,0.020707,0)">
    <title
       id="title40821">exchange-positions-clockwise</title>
    <path
       style="opacity:0;fill:none"
       d="M 0,0 H 24 V 24 H 0 Z"
       id="rect40823"
       inkscape:connector-curvature="0" />
    <path
       class="error"
       style="opacity:1;stroke-width:1"
       inkscape:transform-center-y="-0.00053166671"
       inkscape:transform-center-x="0.055403353"
       inkscape:connector-curvature="0"
       d="m 8.5107716,22.684904 -1.2947595,0.0734 0.036699,-1.183834 1.0356181,-0.0367 z M 6.3269526,21.389553 5.8459608,22.462462 4.7003644,21.871136 5.3662712,20.872217 Z m 3.8855804,-0.665315 0.776951,0.924811 -1.2187577,0.701067 -0.4439378,-1.109845 z M 4.5887289,20.206666 3.7008532,20.983498 2.9243764,19.947879 3.9603497,19.355607 Z m 8.1394521,-1.073265 v 3.366588 L 9.3617116,19.133401 Z M 3.5165302,17.357413 3.6278106,18.429375 2.4809121,18.614409 2.3328144,17.320715 Z m 9.4336198,0.812939 -1.183834,-0.11128 0.0367,-1.071607 1.147017,-0.11128 z m -0.26068,-2.55353 -1.146899,0.333013 -0.442991,-0.84881 0.925285,-0.739659 z m -2.624916,-2.920519 1.071962,0.739304 -0.739897,0.887876 -0.8869281,-0.554271 z m -7.3989638,-0.258905 3.3665877,3.36647 H 2.6655902 Z M 6.5130514,13.510544 5.5138953,13.954482 4.9589138,12.918627 6.142748,12.400818 Z M 8.8426003,12.253075 8.5835774,13.43691 7.5483144,13.325629 7.437034,12.178731 Z"
       id="path40825" />
    <rect
       style="fill:#000000;fill-opacity:1;stroke:none;stroke-width:0.150097;stroke-dasharray:10.4453, 20.8905, 31.3358, 41.7811, 52.2263, 62.6716, 73.1168, 83.5621;stop-color:#1c1c1c"
       id="rect14329"
       width="7.5097179"
       height="7.4999967"
       x="2.9727862"
       y="1.4999983"
       ry="1.4999996" />
    <rect
       style="fill:#000000;fill-opacity:1;stroke:none;stroke-width:0.150097;stroke-dasharray:10.4453, 20.8905, 31.3358, 41.7811, 52.2263, 62.6716, 73.1168, 83.5621;stop-color:#1c1c1c"
       id="rect14247"
       width="7.5097179"
       height="7.4999967"
       x="14.988335"
       y="13.499992"
       ry="1.499999" />
    <path
       style="fill:#000000;fill-opacity:1;stroke:none;stroke-width:0.150097;stroke-dasharray:10.4453, 20.8905, 31.3358, 41.7811, 52.2263, 62.6716, 73.1168, 83.5621;stop-color:#1c1c1c"
       d="m 13.486391,4.499997 v 1.4999993 h 1.501943 a 3.0019437,3.0019437 44.962887 0 1 3.003888,2.9999986 H 15.588279 L 18.77893,11.999993 21.772507,8.9999949 H 19.494165 A 4.5029152,4.5029152 44.962892 0 0 14.988334,4.499997 Z m 1.501943,1.5e-6 v -2.400831 l -3.003888,3.18652 3.003888,2.989703 v -2.275394"
       id="path18153"
       sodipodi:nodetypes="ccccccccccccccc"
       inkscape:path-effect="#path-effect18572"
       inkscape:original-d="m 13.486391,4.499997 v 1.4999993 h 4.505831 V 8.9999949 H 15.588279 L 18.77893,11.999993 21.772507,8.9999949 H 19.494165 V 4.499997 Z m 1.501943,1.5e-6 v -2.400831 l -3.003888,3.18652 3.003888,2.989703 v -2.275394" />
  </g>
</svg>
