<?xml version="1.0" encoding="UTF-8" standalone="no"?>
<svg width="100" height="100" viewBox="0 0 26.458334 26.458334" version="1.1" id="svg10012" inkscape:version="1.3-alpha (9cd57a7883, 2023-05-01)" sodipodi:docname="droplet.svg" xmlns:inkscape="http://www.inkscape.org/namespaces/inkscape" xmlns:sodipodi="http://sodipodi.sourceforge.net/DTD/sodipodi-0.dtd" xmlns="http://www.w3.org/2000/svg" xmlns:svg="http://www.w3.org/2000/svg" xmlns:rdf="http://www.w3.org/1999/02/22-rdf-syntax-ns#" xmlns:cc="http://creativecommons.org/ns#" xmlns:dc="http://purl.org/dc/elements/1.1/">
  <defs id="defs10006" />
  <sodipodi:namedview id="base" pagecolor="#ffffff" bordercolor="#666666" borderopacity="1.0" inkscape:pageopacity="0.0" inkscape:pageshadow="2" inkscape:zoom="1" inkscape:cx="50" inkscape:cy="50" inkscape:document-units="px" inkscape:current-layer="layer1" inkscape:document-rotation="0" showgrid="false" units="px" inkscape:window-width="1534" inkscape:window-height="843" inkscape:window-x="66" inkscape:window-y="20" inkscape:window-maximized="1" inkscape:showpageshadow="2" inkscape:pagecheckerboard="0" inkscape:deskcolor="#d1d1d1" />
  <metadata id="metadata10009">
    <rdf:RDF>
      <cc:Work rdf:about="">
        <dc:format>image/svg+xml</dc:format>
        <dc:type rdf:resource="http://purl.org/dc/dcmitype/StillImage" />
      </cc:Work>
    </rdf:RDF>
  </metadata>
  <g inkscape:label="Layer 1" inkscape:groupmode="layer" id="layer1" transform="translate(-70.005836,-46.768833)">
    <path style="color:#000000;font-style:normal;font-variant:normal;font-weight:normal;font-stretch:normal;font-size:medium;line-height:normal;font-family:sans-serif;font-variant-ligatures:normal;font-variant-position:normal;font-variant-caps:normal;font-variant-numeric:normal;font-variant-alternates:normal;font-variant-east-asian:normal;font-feature-settings:normal;font-variation-settings:normal;text-indent:0;text-align:start;text-decoration:none;text-decoration-line:none;text-decoration-style:solid;text-decoration-color:#000000;letter-spacing:normal;word-spacing:normal;text-transform:none;writing-mode:lr-tb;direction:ltr;text-orientation:mixed;dominant-baseline:auto;baseline-shift:baseline;text-anchor:start;white-space:normal;shape-padding:0;shape-margin:0;inline-size:0;clip-rule:nonzero;display:inline;overflow:visible;visibility:visible;opacity:0.2;isolation:auto;mix-blend-mode:normal;color-interpolation:sRGB;color-interpolation-filters:linearRGB;solid-color:#000000;solid-opacity:1;vector-effect:none;fill:#000000;fill-opacity:1;fill-rule:nonzero;stroke:none;stroke-width:0.0784929px;stroke-linecap:butt;stroke-linejoin:miter;stroke-miterlimit:4;stroke-dasharray:none;stroke-dashoffset:0;stroke-opacity:1;paint-order:stroke markers fill;color-rendering:auto;image-rendering:auto;shape-rendering:auto;text-rendering:auto;enable-background:accumulate;stop-color:#000000" d="m 93.818337,50.635938 -0.747716,0.0014 v 3.370632 1.919012 14.119813 h -0.48056 -18.465535 v 0.634822 h 19.693811 z" id="path9068" />
    <path style="color:#000000;font-style:normal;font-variant:normal;font-weight:normal;font-stretch:normal;font-size:medium;line-height:normal;font-family:sans-serif;font-variant-ligatures:normal;font-variant-position:normal;font-variant-caps:normal;font-variant-numeric:normal;font-variant-alternates:normal;font-variant-east-asian:normal;font-feature-settings:normal;font-variation-settings:normal;text-indent:0;text-align:start;text-decoration:none;text-decoration-line:none;text-decoration-style:solid;text-decoration-color:#000000;letter-spacing:normal;word-spacing:normal;text-transform:none;writing-mode:lr-tb;direction:ltr;text-orientation:mixed;dominant-baseline:auto;baseline-shift:baseline;text-anchor:start;white-space:normal;shape-padding:0;shape-margin:0;inline-size:0;clip-rule:nonzero;display:inline;overflow:visible;visibility:visible;opacity:0.7;isolation:auto;mix-blend-mode:normal;color-interpolation:sRGB;color-interpolation-filters:linearRGB;solid-color:#000000;solid-opacity:1;vector-effect:none;fill:#ffffff;fill-opacity:1;fill-rule:nonzero;stroke:none;stroke-width:0.351486;stroke-linecap:butt;stroke-linejoin:miter;stroke-miterlimit:4;stroke-dasharray:none;stroke-dashoffset:0;stroke-opacity:1;paint-order:stroke markers fill;color-rendering:auto;image-rendering:auto;shape-rendering:auto;text-rendering:auto;enable-background:accumulate;stop-color:#000000" d="m 73.093393,49.756372 v 0.0073 4.329057 1.919068 13.592465 h 0.03895 19.457292 0.0387 v -13.677398 -1.919015 -4.244177 -0.0073 z" id="path9037" />
    <path id="path9035" style="color:#000000;font-style:normal;font-variant:normal;font-weight:normal;font-stretch:normal;font-size:medium;line-height:normal;font-family:sans-serif;font-variant-ligatures:normal;font-variant-position:normal;font-variant-caps:normal;font-variant-numeric:normal;font-variant-alternates:normal;font-variant-east-asian:normal;font-feature-settings:normal;font-variation-settings:normal;text-indent:0;text-align:start;text-decoration:none;text-decoration-line:none;text-decoration-style:solid;text-decoration-color:#000000;letter-spacing:normal;word-spacing:normal;text-transform:none;writing-mode:lr-tb;direction:ltr;text-orientation:mixed;dominant-baseline:auto;baseline-shift:baseline;text-anchor:start;white-space:normal;shape-padding:0;shape-margin:0;inline-size:0;clip-rule:nonzero;display:inline;overflow:visible;visibility:visible;opacity:0.4;isolation:auto;mix-blend-mode:normal;color-interpolation:sRGB;color-interpolation-filters:linearRGB;solid-color:#000000;solid-opacity:1;vector-effect:none;fill:#000000;fill-opacity:1;fill-rule:nonzero;stroke:none;stroke-width:0.351486;stroke-linecap:butt;stroke-linejoin:miter;stroke-miterlimit:4;stroke-dasharray:none;stroke-dashoffset:0;stroke-opacity:1;paint-order:stroke markers fill;color-rendering:auto;image-rendering:auto;shape-rendering:auto;text-rendering:auto;enable-background:accumulate;stop-color:#000000" d="m 72.651671,49.31439 v 0.441826 0.0073 4.32963 1.918755 14.034603 h 0.480292 19.458098 0.480562 V 55.926637 54.007674 49.763497 49.31465 Z m 0.441586,0.441826 h 19.534969 v 0.0073 4.244437 1.919015 13.677398 H 92.589526 73.13223 73.09327 V 56.011882 54.092606 49.763497 Z" />
    <g inkscape:label="Droplet" style="fill:#ffffff;stroke:#000000;stroke-width:2" class="prefab" id="g2" transform="matrix(0.02292425,0,0,0.02292425,72.525918,49.279889)">&#10;  <path d="M 853.57143,50.000001 H 53.571427 V 138.88889 H 853.57143 Z m 0,177.777779 H 53.571427 v 88.88889 H 853.57143 Z m 0,177.77778 H 53.571427 v 88.88889 H 853.57143 Z m 0,177.77777 H 53.571427 v 88.88889 H 853.57143 Z m 0,177.77778 H 53.571427 V 850 H 853.57143 Z M 53.571427,50 V 850 H 142.46032 V 50 Z M 231.34921,50 V 850 H 320.2381 V 50 Z m 177.77778,0 v 800 h 88.88888 V 50 Z m 177.77777,0 v 800 h 88.88889 V 50 Z m 177.77778,0 v 800 h 88.88889 V 50 Z" id="path1" style="vector-effect:non-scaling-stroke;fill:none;fill-opacity:1;stroke:#00349c;stroke-opacity:1;-inkscape-stroke:hairline" />
&#10;  <path d="M 450,50 A 400,400 0 0 0 50,450 400,400 0 0 0 450,850 400,400 0 0 0 850,450 400,400 0 0 0 450,50 Z m 0,88.88867 A 311.11111,311.11111 0 0 1 761.11133,450 311.11111,311.11111 0 0 1 450,761.11133 311.11111,311.11111 0 0 1 138.88867,450 311.11111,311.11111 0 0 1 450,138.88867 Z m 0,88.88867 A 222.22223,222.22223 0 0 0 227.77734,450 222.22223,222.22223 0 0 0 450,672.22266 222.22223,222.22223 0 0 0 672.22266,450 222.22223,222.22223 0 0 0 450,227.77734 Z m 0,88.88868 A 133.33333,133.33333 0 0 1 583.33398,450 133.33333,133.33333 0 0 1 450,583.33398 133.33333,133.33333 0 0 1 316.66602,450 133.33333,133.33333 0 0 1 450,316.66602 Z m 0,88.88867 A 44.444447,44.444447 0 0 0 405.55469,450 44.444447,44.444447 0 0 0 450,494.44531 44.444447,44.444447 0 0 0 494.44531,450 44.444447,44.444447 0 0 0 450,405.55469 Z" id="path2" style="vector-effect:non-scaling-stroke;fill:none;fill-opacity:1;stroke:#00349c;stroke-opacity:1;-inkscape-stroke:hairline" />
&#10;</g>
    <path d="m 82.841824,56.539214 c -0.32697,-3e-6 -0.641741,0.0516 -0.936985,0.146732 -0.90626,0.291947 -1.627453,0.995749 -1.943992,1.89098 -0.03655,0.10335 -0.0683,0.20898 -0.09371,0.317091 -0.053,0.225443 -0.0819,0.46017 -0.0819,0.701784 0,0.241617 0.02889,0.476344 0.0819,0.701787 0.02541,0.108119 0.05716,0.213745 0.09371,0.317088 0.316539,0.895234 1.037732,1.599036 1.943992,1.89098 0.295244,0.09511 0.610015,0.146733 0.936985,0.146733 0.388177,2e-6 0.759165,-0.07284 1.100719,-0.204846 0.829375,-0.320517 1.484028,-0.992083 1.781284,-1.832865 0.112704,-0.31875 0.174581,-0.661526 0.174581,-1.018874 3e-6,-0.357346 -0.06187,-0.700123 -0.174581,-1.018875 -0.297256,-0.84078 -0.951909,-1.512346 -1.781284,-1.832863 -0.341556,-0.132 -0.712542,-0.204845 -1.100719,-0.204845 z m 0,2.037704 c 0.562711,-10e-6 1.018885,0.456164 1.018875,1.018874 1e-5,0.562714 -0.456164,1.018886 -1.018875,1.018875 -0.420448,9e-6 -0.781342,-0.254694 -0.936985,-0.618192 -0.05266,-0.122988 -0.0819,-0.258417 -0.0819,-0.400683 -4e-6,-0.142269 0.02922,-0.277684 0.0819,-0.400679 0.155653,-0.363501 0.516537,-0.618201 0.936985,-0.618195 z" style="fill:#3734ad;stroke:#000000;stroke-width:0.0458485;fill-opacity:0.36121088" id="path4" />
    <path d="m 82.841824,50.426101 c -0.316605,0 -0.628791,0.01828 -0.936985,0.04983 -0.70577,0.07246 -1.3882,0.223578 -2.037703,0.446304 -0.724519,0.24845 -1.407927,0.584502 -2.037707,0.996534 -0.257393,0.168403 -0.503323,0.352359 -0.741902,0.545032 -0.473987,0.382789 -0.90705,0.813321 -1.295801,1.282011 -0.200843,0.242134 -0.390562,0.493839 -0.56648,0.755695 -0.422576,0.62901 -0.771471,1.311401 -1.029037,2.037704 -0.207914,0.586257 -0.357252,1.200123 -0.442188,1.834477 v 0.203235 2.037749 0.195882 c 0.08447,0.630001 0.233163,1.247173 0.443441,1.84182 0.253687,0.717398 0.595618,1.402297 1.020174,2.037704 0.176952,0.264846 0.369185,0.5204 0.57409,0.766933 0.178716,0.215028 0.366825,0.423375 0.566167,0.622716 0.230062,0.230062 0.471573,0.445859 0.722561,0.648057 0.241187,0.194293 0.491105,0.376078 0.748975,0.544451 0.636594,0.415646 1.321206,0.749195 2.037707,0.995008 0.656832,0.225343 1.340351,0.375541 2.037703,0.44783 0.309998,0.03214 0.622448,0.05042 0.936985,0.05042 0.369984,0 0.737155,-0.02502 1.100719,-0.069 0.698891,-0.08452 1.381964,-0.250406 2.037706,-0.48893 0.718629,-0.261399 1.4033,-0.612091 2.037704,-1.045606 0.19945,-0.136285 0.392971,-0.282093 0.582105,-0.434171 0.251815,-0.202474 0.494997,-0.417359 0.725697,-0.648057 0.262244,-0.262246 0.504044,-0.540651 0.729904,-0.829885 0.142427,-0.182371 0.279834,-0.36814 0.4078,-0.559764 0.424413,-0.635541 0.766496,-1.32012 1.019948,-2.037704 0.231834,-0.656373 0.391191,-1.33941 0.469276,-2.037705 0.03766,-0.336826 0.05883,-0.676672 0.05883,-1.018874 0,-0.342221 -0.02111,-0.682068 -0.05896,-1.018875 -0.0783,-0.697949 -0.234357,-1.381614 -0.466366,-2.037705 -0.253684,-0.717398 -0.595616,-1.402295 -1.020173,-2.037703 -0.128586,-0.192466 -0.266937,-0.378901 -0.41035,-0.561869 -0.226078,-0.288422 -0.4681,-0.565973 -0.729904,-0.827779 -0.230701,-0.230698 -0.473883,-0.445579 -0.725696,-0.648057 -0.189138,-0.152085 -0.382654,-0.297879 -0.582107,-0.434172 -0.634404,-0.433514 -1.319074,-0.784206 -2.037703,-1.045606 -0.655743,-0.238524 -1.338815,-0.404402 -2.037707,-0.488929 -0.363565,-0.04398 -0.730734,-0.06899 -1.100718,-0.06899 z m 0,2.037703 c 0.374457,0 0.741906,0.02956 1.100719,0.08525 0.720815,0.111847 1.405322,0.332615 2.037706,0.643265 0.686027,0.337005 1.310618,0.779961 1.850908,1.309191 0.0636,0.06229 0.125559,0.126173 0.186787,0.19079 0.513623,0.541991 0.942151,1.164989 1.266743,1.846925 0.301418,0.633245 0.510059,1.318449 0.613627,2.037703 0.04795,0.332966 0.0755,0.672546 0.0755,1.018875 0,0.346078 -0.02598,0.685971 -0.07361,1.018874 -0.102992,0.719768 -0.314542,1.404187 -0.615775,2.037705 -0.324382,0.682206 -0.752926,1.305301 -1.266474,1.847416 -0.06129,0.0647 -0.124131,0.127915 -0.187789,0.190291 -0.540007,0.529098 -1.164246,0.971986 -1.849922,1.308966 -0.632336,0.310765 -1.316838,0.531611 -2.037705,0.64349 -0.358797,0.05567 -0.726253,0.08525 -1.10072,0.08525 -0.317965,0 -0.630181,-0.02339 -0.936983,-0.06394 -0.718247,-0.09492 -1.403298,-0.294766 -2.037705,-0.586851 -0.750238,-0.345415 -1.430977,-0.816002 -2.013662,-1.386917 h -0.02404 v -0.02399 c -0.586108,-0.579732 -1.071473,-1.260656 -1.429762,-2.013706 -0.294263,-0.618473 -0.502344,-1.285684 -0.607941,-1.986841 -0.0026,-0.01697 -0.0059,-0.03379 -0.0083,-0.05086 -0.04765,-0.332904 -0.07361,-0.672796 -0.07361,-1.018875 0,-0.346301 0.02752,-0.685883 0.07541,-1.018874 0.0019,-0.01328 0.0046,-0.02648 0.0066,-0.03979 0.105334,-0.704599 0.310873,-1.376383 0.606417,-1.9979 0.358507,-0.753929 0.844315,-1.435641 1.431286,-2.015721 v -0.02198 h 0.02307 c 0.582965,-0.57103 1.26407,-1.041666 2.014647,-1.387096 0.634462,-0.291993 1.319503,-0.491772 2.037703,-0.586672 0.306806,-0.04053 0.619033,-0.06394 0.936984,-0.06394 z" style="fill:#3734ad;stroke:#000000;stroke-width:0.0458485;font-variation-settings:normal;opacity:1;vector-effect:none;fill-opacity:0.361211;stroke-linecap:butt;stroke-linejoin:miter;stroke-miterlimit:4;stroke-dasharray:none;stroke-dashoffset:0;stroke-opacity:1;-inkscape-stroke:none;stop-color:#000000;stop-opacity:1" id="path3" />
  </g>
</svg>
