<?xml version="1.0" encoding="UTF-8" standalone="no"?>
<svg width="100" height="100" viewBox="0 0 26.458334 26.458334" version="1.1" id="svg10012" inkscape:version="1.3-alpha (9cd57a7883, 2023-05-01)" sodipodi:docname="ktile.svg" xmlns:inkscape="http://www.inkscape.org/namespaces/inkscape" xmlns:sodipodi="http://sodipodi.sourceforge.net/DTD/sodipodi-0.dtd" xmlns="http://www.w3.org/2000/svg" xmlns:svg="http://www.w3.org/2000/svg" xmlns:rdf="http://www.w3.org/1999/02/22-rdf-syntax-ns#" xmlns:cc="http://creativecommons.org/ns#" xmlns:dc="http://purl.org/dc/elements/1.1/">
  <defs id="defs10006" />
  <sodipodi:namedview id="base" pagecolor="#ffffff" bordercolor="#666666" borderopacity="1.0" inkscape:pageopacity="0.0" inkscape:pageshadow="2" inkscape:zoom="1" inkscape:cx="66" inkscape:cy="62" inkscape:document-units="px" inkscape:current-layer="layer1" inkscape:document-rotation="0" showgrid="false" units="px" inkscape:window-width="1534" inkscape:window-height="843" inkscape:window-x="66" inkscape:window-y="20" inkscape:window-maximized="1" inkscape:showpageshadow="2" inkscape:pagecheckerboard="0" inkscape:deskcolor="#d1d1d1" />
  <metadata id="metadata10009">
    <rdf:RDF>
      <cc:Work rdf:about="">
        <dc:format>image/svg+xml</dc:format>
        <dc:type rdf:resource="http://purl.org/dc/dcmitype/StillImage" />
      </cc:Work>
    </rdf:RDF>
  </metadata>
  <g inkscape:label="Layer 1" inkscape:groupmode="layer" id="layer1" transform="translate(-70.005836,-46.768833)">
    <path style="color:#000000;font-style:normal;font-variant:normal;font-weight:normal;font-stretch:normal;font-size:medium;line-height:normal;font-family:sans-serif;font-variant-ligatures:normal;font-variant-position:normal;font-variant-caps:normal;font-variant-numeric:normal;font-variant-alternates:normal;font-variant-east-asian:normal;font-feature-settings:normal;font-variation-settings:normal;text-indent:0;text-align:start;text-decoration:none;text-decoration-line:none;text-decoration-style:solid;text-decoration-color:#000000;letter-spacing:normal;word-spacing:normal;text-transform:none;writing-mode:lr-tb;direction:ltr;text-orientation:mixed;dominant-baseline:auto;baseline-shift:baseline;text-anchor:start;white-space:normal;shape-padding:0;shape-margin:0;inline-size:0;clip-rule:nonzero;display:inline;overflow:visible;visibility:visible;opacity:0.2;isolation:auto;mix-blend-mode:normal;color-interpolation:sRGB;color-interpolation-filters:linearRGB;solid-color:#000000;solid-opacity:1;vector-effect:none;fill:#000000;fill-opacity:1;fill-rule:nonzero;stroke:none;stroke-width:0.0784929px;stroke-linecap:butt;stroke-linejoin:miter;stroke-miterlimit:4;stroke-dasharray:none;stroke-dashoffset:0;stroke-opacity:1;paint-order:stroke markers fill;color-rendering:auto;image-rendering:auto;shape-rendering:auto;text-rendering:auto;enable-background:accumulate;stop-color:#000000" d="m 93.818337,50.635938 -0.747716,0.0014 v 3.370632 1.919012 14.119813 h -0.48056 -18.465535 v 0.634822 h 19.693811 z" id="path9068" />
    <path style="color:#000000;font-style:normal;font-variant:normal;font-weight:normal;font-stretch:normal;font-size:medium;line-height:normal;font-family:sans-serif;font-variant-ligatures:normal;font-variant-position:normal;font-variant-caps:normal;font-variant-numeric:normal;font-variant-alternates:normal;font-variant-east-asian:normal;font-feature-settings:normal;font-variation-settings:normal;text-indent:0;text-align:start;text-decoration:none;text-decoration-line:none;text-decoration-style:solid;text-decoration-color:#000000;letter-spacing:normal;word-spacing:normal;text-transform:none;writing-mode:lr-tb;direction:ltr;text-orientation:mixed;dominant-baseline:auto;baseline-shift:baseline;text-anchor:start;white-space:normal;shape-padding:0;shape-margin:0;inline-size:0;clip-rule:nonzero;display:inline;overflow:visible;visibility:visible;opacity:0.7;isolation:auto;mix-blend-mode:normal;color-interpolation:sRGB;color-interpolation-filters:linearRGB;solid-color:#000000;solid-opacity:1;vector-effect:none;fill:#ffffff;fill-opacity:1;fill-rule:nonzero;stroke:none;stroke-width:0.351486;stroke-linecap:butt;stroke-linejoin:miter;stroke-miterlimit:4;stroke-dasharray:none;stroke-dashoffset:0;stroke-opacity:1;paint-order:stroke markers fill;color-rendering:auto;image-rendering:auto;shape-rendering:auto;text-rendering:auto;enable-background:accumulate;stop-color:#000000" d="m 73.093393,49.756372 v 0.0073 4.329057 1.919068 13.592465 h 0.03895 19.457292 0.0387 v -13.677398 -1.919015 -4.244177 -0.0073 z" id="path9037" />
    <path id="path9035" style="color:#000000;font-style:normal;font-variant:normal;font-weight:normal;font-stretch:normal;font-size:medium;line-height:normal;font-family:sans-serif;font-variant-ligatures:normal;font-variant-position:normal;font-variant-caps:normal;font-variant-numeric:normal;font-variant-alternates:normal;font-variant-east-asian:normal;font-feature-settings:normal;font-variation-settings:normal;text-indent:0;text-align:start;text-decoration:none;text-decoration-line:none;text-decoration-style:solid;text-decoration-color:#000000;letter-spacing:normal;word-spacing:normal;text-transform:none;writing-mode:lr-tb;direction:ltr;text-orientation:mixed;dominant-baseline:auto;baseline-shift:baseline;text-anchor:start;white-space:normal;shape-padding:0;shape-margin:0;inline-size:0;clip-rule:nonzero;display:inline;overflow:visible;visibility:visible;opacity:0.4;isolation:auto;mix-blend-mode:normal;color-interpolation:sRGB;color-interpolation-filters:linearRGB;solid-color:#000000;solid-opacity:1;vector-effect:none;fill:#000000;fill-opacity:1;fill-rule:nonzero;stroke:none;stroke-width:0.351486;stroke-linecap:butt;stroke-linejoin:miter;stroke-miterlimit:4;stroke-dasharray:none;stroke-dashoffset:0;stroke-opacity:1;paint-order:stroke markers fill;color-rendering:auto;image-rendering:auto;shape-rendering:auto;text-rendering:auto;enable-background:accumulate;stop-color:#000000" d="m 72.651671,49.31439 v 0.441826 0.0073 4.32963 1.918755 14.034603 h 0.480292 19.458098 0.480562 V 55.926637 54.007674 49.763497 49.31465 Z m 0.441586,0.441826 h 19.534969 v 0.0073 4.244437 1.919015 13.677398 H 92.589526 73.13223 73.09327 V 56.011882 54.092606 49.763497 Z" />
    <g inkscape:label="Kitchen Tile" style="fill:#ffffff;stroke:#000000;stroke-width:2" class="prefab" id="g6" transform="matrix(0.02223069,0,0,0.02223069,72.927853,49.807369)">&#10;  <path d="M 850.56495,41.294033 H 50.740591 L 850.56495,841.29403 Z m -397.84401,0 H 851.03347 V 841.29403 H 452.72094 Z M 51.209117,441.29403 H 851.03347 v 400 H 51.209117 Z m 0,-399.999997 H 851.03347 L 51.209117,841.29403 Z" id="path1" style="vector-effect:non-scaling-stroke;fill:none;fill-opacity:1;stroke:#00349c;stroke-opacity:1;-inkscape-stroke:hairline" />
&#10;  <path d="M 251.1652,41.294033 A 199.95609,200 0 0 0 51.209117,241.29403 a 199.95609,200 0 0 0 199.956083,200 199.95609,200 0 0 0 199.95609,-200 A 199.95609,200 0 0 0 251.1652,41.294033 Z m 0,66.666667 A 133.30406,133.33333 0 0 1 384.46926,241.29403 133.30406,133.33333 0 0 1 251.1652,374.62736 133.30406,133.33333 0 0 1 117.86115,241.29403 133.30406,133.33333 0 0 1 251.1652,107.9607 Z m 0,66.66666 a 66.652028,66.666666 0 0 0 -66.65203,66.66667 66.652028,66.666666 0 0 0 66.65203,66.66668 66.652028,66.666666 0 0 0 66.65204,-66.66668 66.652028,66.666666 0 0 0 -66.65204,-66.66667 z" id="path2" style="vector-effect:non-scaling-stroke;fill:none;fill-opacity:1;stroke:#00349c;stroke-opacity:1;-inkscape-stroke:hairline" />
&#10;  <path d="m 651.07738,41.294033 a 199.95609,200 0 0 0 -199.95609,199.999997 199.95609,200 0 0 0 199.95609,200 199.95609,200 0 0 0 199.95609,-200 A 199.95609,200 0 0 0 651.07738,41.294033 Z m 0,66.666667 A 133.30406,133.33333 0 0 1 784.38143,241.29403 133.30406,133.33333 0 0 1 651.07738,374.62736 133.30406,133.33333 0 0 1 517.77333,241.29403 133.30406,133.33333 0 0 1 651.07738,107.9607 Z m 0,66.66666 a 66.652028,66.666666 0 0 0 -66.65203,66.66667 66.652028,66.666666 0 0 0 66.65203,66.66668 66.652028,66.666666 0 0 0 66.65203,-66.66668 66.652028,66.666666 0 0 0 -66.65203,-66.66667 z" id="path3" style="vector-effect:non-scaling-stroke;fill:none;fill-opacity:1;stroke:#00349c;stroke-opacity:1;-inkscape-stroke:hairline" />
&#10;  <path d="m 251.1652,441.29403 a 199.95609,200 0 0 0 -199.956083,200 199.95609,200 0 0 0 199.956083,200 199.95609,200 0 0 0 199.95609,-200 199.95609,200 0 0 0 -199.95609,-200 z m 0,66.66668 A 133.30406,133.33333 0 0 1 384.46926,641.29403 133.30406,133.33333 0 0 1 251.1652,774.62736 133.30406,133.33333 0 0 1 117.86115,641.29403 133.30406,133.33333 0 0 1 251.1652,507.96071 Z m 0,66.66665 a 66.652028,66.666666 0 0 0 -66.65203,66.66667 66.652028,66.666666 0 0 0 66.65203,66.66668 66.652028,66.666666 0 0 0 66.65204,-66.66668 66.652028,66.666666 0 0 0 -66.65204,-66.66667 z" id="path4" style="vector-effect:non-scaling-stroke;fill:none;fill-opacity:1;stroke:#00349c;stroke-opacity:1;-inkscape-stroke:hairline" />
&#10;  <path d="m 651.07738,441.29403 a 199.95609,200 0 0 0 -199.95609,200 199.95609,200 0 0 0 199.95609,200 199.95609,200 0 0 0 199.95609,-200 199.95609,200 0 0 0 -199.95609,-200 z m 0,66.66668 A 133.30406,133.33333 0 0 1 784.38143,641.29403 133.30406,133.33333 0 0 1 651.07738,774.62736 133.30406,133.33333 0 0 1 517.77333,641.29403 133.30406,133.33333 0 0 1 651.07738,507.96071 Z m 0,66.66665 a 66.652028,66.666666 0 0 0 -66.65203,66.66667 66.652028,66.666666 0 0 0 66.65203,66.66668 66.652028,66.666666 0 0 0 66.65203,-66.66668 66.652028,66.666666 0 0 0 -66.65203,-66.66667 z" id="path5" style="vector-effect:non-scaling-stroke;fill:none;fill-opacity:1;stroke:#00349c;stroke-opacity:1;-inkscape-stroke:hairline" />
&#10;  <path d="m 450.88702,241.05971 a 199.95609,200 0 0 0 -199.95608,200 199.95609,200 0 0 0 199.95608,200 199.95609,200 0 0 0 199.95609,-200 199.95609,200 0 0 0 -199.95609,-200 z m 0,66.66668 A 133.30406,133.33333 0 0 1 584.19108,441.05971 133.30406,133.33333 0 0 1 450.88702,574.39304 133.30406,133.33333 0 0 1 317.58297,441.05971 133.30406,133.33333 0 0 1 450.88702,307.72639 Z m 0,66.66665 a 66.652028,66.666666 0 0 0 -66.65203,66.66667 66.652028,66.666666 0 0 0 66.65203,66.66668 66.652028,66.666666 0 0 0 66.65204,-66.66668 66.652028,66.666666 0 0 0 -66.65204,-66.66667 z" id="path6" style="vector-effect:non-scaling-stroke;fill:none;fill-opacity:1;stroke:#00349c;stroke-opacity:1;-inkscape-stroke:hairline" />
&#10;</g>
    <path d="m 84.449912,55.426004 c 0.061,0.71691 0.376299,1.361248 0.856361,1.841416 0.478486,0.478593 1.120093,0.793575 1.834032,0.856056 -0.222611,-0.626346 -0.580956,-1.188348 -1.040632,-1.649631 -0.460732,-0.462344 -1.022764,-0.823277 -1.649761,-1.047841 z" style="fill:#000000;stroke:#000000;stroke-width:0.0444615;fill-opacity:0.24216574" id="path23" />
    <path d="m 83.213677,56.660548 c 0.223019,0.628746 0.582791,1.192644 1.044886,1.65484 0.459796,0.459897 1.020003,0.819199 1.644724,1.04289 -0.06075,-0.714419 -0.374157,-1.356743 -0.851366,-1.83642 -0.478856,-0.481336 -1.12205,-0.798432 -1.838244,-0.86131 z" style="fill:#000000;stroke:#000000;stroke-width:0.0444615;fill-opacity:0.24216574" id="path22" />
    <path d="m 82.985882,58.155026 c -0.411816,0 -0.784289,0.168181 -1.052831,0.439447 -0.265083,0.267782 -0.428899,0.636025 -0.428895,1.042629 -2e-6,0.0017 1.32e-4,0.0034 1.32e-4,0.0053 0.0014,0.409828 0.169128,0.780384 0.439189,1.047838 0.267717,0.265138 0.635896,0.428984 1.042411,0.428984 0.01368,0 0.02719,-6.72e-4 0.04078,-0.001 0.390276,-0.01052 0.742931,-0.171736 1.00164,-0.427942 0.27007,-0.26746 0.437768,-0.638002 0.439187,-1.047838 6e-6,-0.0017 1.68e-4,-0.0034 1.68e-4,-0.0053 0,-0.406604 -0.163804,-0.774847 -0.428895,-1.042629 -0.259625,-0.262265 -0.616509,-0.427683 -1.012062,-0.438405 -0.01368,-3.68e-4 -0.0271,-10e-4 -0.04078,-10e-4 z" style="fill:#000000;stroke:#000000;stroke-width:0.0444615;font-variation-settings:normal;opacity:1;vector-effect:none;fill-opacity:0.242166;stroke-linecap:butt;stroke-linejoin:miter;stroke-miterlimit:4;stroke-dasharray:none;stroke-dashoffset:0;stroke-opacity:1;-inkscape-stroke:none;stop-color:#000000;stop-opacity:1" id="path21" />
    <path d="m 82.701068,56.659637 c -0.720992,0.06037 -1.368709,0.378209 -1.850227,0.862221 -0.478068,0.48054 -0.791688,1.12432 -0.851627,1.840283 0.6266,-0.222639 1.188628,-0.581652 1.650065,-1.041673 0.464908,-0.46348 0.827526,-1.029381 1.051789,-1.660831 z" style="fill:#000000;stroke:#000000;stroke-width:0.0444615;fill-opacity:0.24216574" id="path20" />
    <path d="m 81.463531,55.422402 c -0.631261,0.224276 -1.197122,0.586494 -1.660442,1.051443 -0.459859,0.461472 -0.818271,1.023755 -1.040848,1.650411 0.715595,-0.06005 1.359013,-0.373704 1.83933,-0.851757 0.483786,-0.481508 0.801473,-1.129178 0.86196,-1.850097 z" style="fill:#000000;stroke:#000000;stroke-width:0.0444615;fill-opacity:0.24216574" id="path19" />
    <path d="m 78.765845,61.111289 c 0.224513,0.627158 0.585406,1.18931 1.047664,1.650153 0.46118,0.459764 1.023043,0.818149 1.649239,1.040805 -0.06247,-0.714087 -0.377353,-1.35579 -0.855837,-1.83438 -0.480065,-0.480169 -1.124305,-0.795565 -1.841066,-0.856578 z" style="fill:#000000;stroke:#000000;stroke-width:0.0444615;fill-opacity:0.24216574" id="path18" />
    <path d="m 87.136614,61.112158 c -0.715041,0.06348 -1.357199,0.380352 -1.835422,0.86105 -0.474765,0.477219 -0.78745,1.115409 -0.850455,1.825434 0.62192,-0.222931 1.179948,-0.580047 1.638517,-1.0372 0.462049,-0.460624 0.822815,-1.022481 1.04736,-1.649284 z" style="fill:#000000;stroke:#000000;stroke-width:0.0444615;fill-opacity:0.24216574" id="path17" />
    <path d="m 85.90242,59.877399 c -0.62668,0.224582 -1.188387,0.585669 -1.648936,1.04784 -0.456941,0.458548 -0.813223,1.016788 -1.035725,1.638776 0.709365,-0.06329 1.346906,-0.375996 1.823743,-0.850586 0.480643,-0.478381 0.797514,-1.12072 0.860918,-1.83603 z" style="fill:#000000;stroke:#000000;stroke-width:0.0444615;fill-opacity:0.24216574" id="path16" />
    <path d="m 79.999995,59.873405 c 0.06258,0.716918 0.37972,1.360755 0.861266,1.840024 0.479582,0.477313 1.121755,0.790792 1.83603,0.851541 -0.223638,-0.62486 -0.582877,-1.185177 -1.042672,-1.645073 -0.46223,-0.462332 -1.025929,-0.823041 -1.654624,-1.046492 z" style="fill:#000000;stroke:#000000;stroke-width:0.0444615;fill-opacity:0.24216574" id="path15" />
    <path d="m 78.50637,59.617795 c -2.452647,0.0027 -4.440104,1.992178 -4.440104,4.44601 0,1.227768 0.497556,2.33927 1.301971,3.143864 0.804418,0.804592 1.915716,1.302276 3.143212,1.302276 2.454997,0 4.445143,-1.990604 4.445143,-4.44614 0,-0.0018 -1.35e-4,-0.0036 -1.35e-4,-0.0053 -0.0017,2.1e-5 -0.0034,1.68e-4 -0.005,1.68e-4 -0.522262,0 -1.023148,-0.09083 -1.488631,-0.256347 0.0076,0.08625 0.0122,0.173357 0.0122,0.261557 0,1.637025 -1.326749,2.964064 -2.963414,2.964064 -0.818332,0 -1.559227,-0.331774 -2.095504,-0.868169 -0.536278,-0.536395 -0.867951,-1.277383 -0.867951,-2.095895 0,-1.637024 1.326791,-2.964107 2.963455,-2.964107 0.08578,0 0.170474,0.0044 0.254396,0.01157 -0.167108,-0.46677 -0.258853,-0.969395 -0.259475,-1.493494 z" style="fill:#000000;stroke:#000000;stroke-width:0.0444615;fill-opacity:0.24216574" id="path14" />
    <path d="m 87.401775,59.617665 c -0.0018,0 -0.0036,1.34e-4 -0.0053,1.34e-4 -5.9e-4,0.524438 -0.09252,1.027338 -0.259823,1.494364 0.0874,-0.0078 0.175734,-0.01242 0.265163,-0.01242 1.636663,0 2.963412,1.327086 2.963412,2.964109 0,0.821175 -0.333937,1.564216 -0.873293,2.101017 -0.535856,0.533323 -1.274449,0.863048 -2.090119,0.863048 -1.636664,0 -2.963457,-1.327041 -2.963457,-2.964065 0,-0.08944 0.0046,-0.177754 0.01241,-0.265162 -0.456317,0.163572 -0.947111,0.254396 -1.458585,0.259039 v 0.55985 c 0.27271,2.194022 2.14224,3.892414 4.409623,3.892414 1.224848,0 2.333829,-0.495665 3.137828,-1.297197 0.743478,-0.741194 1.225066,-1.744248 1.296892,-2.858989 V 63.773851 C 91.68703,61.453619 89.7593,59.617708 87.401809,59.617708 Z" style="fill:#000000;stroke:#000000;stroke-width:0.0444615;fill-opacity:0.24216574" id="path13" />
    <path d="m 87.401775,50.725384 c -2.267382,0 -4.136916,1.698392 -4.409624,3.892414 v 0.549428 c 0.511167,0.0046 1.001656,0.09542 1.457761,0.258778 -0.0072,-0.08395 -0.01157,-0.168685 -0.01157,-0.25448 0,-1.637023 1.326793,-2.964106 2.963455,-2.964106 0.818334,0 1.559184,0.331774 2.095462,0.868169 0.536277,0.536395 0.867952,1.277427 0.867952,2.095937 0,1.637024 -1.326749,2.964065 -2.963414,2.964065 -0.08818,0 -0.175251,-0.0046 -0.26147,-0.0122 0.165487,0.465593 0.25626,0.966595 0.25626,1.488979 0,0.0017 -8.4e-5,0.0034 -1.68e-4,0.0051 0.0018,2e-6 0.0036,1.35e-4 0.0053,1.35e-4 2.357552,0 4.285313,-1.836039 4.434721,-4.15636 v -0.579565 c -0.07162,-1.112209 -0.550989,-2.113406 -1.291549,-2.854126 -0.804416,-0.804594 -1.915671,-1.302234 -3.14317,-1.302234 z" style="fill:#000000;stroke:#000000;stroke-width:0.0444615;font-variation-settings:normal;opacity:1;vector-effect:none;fill-opacity:0.242166;stroke-linecap:butt;stroke-linejoin:miter;stroke-miterlimit:4;stroke-dasharray:none;stroke-dashoffset:0;stroke-opacity:1;-inkscape-stroke:none;stop-color:#000000;stop-opacity:1" id="path12" />
    <path d="m 78.511449,50.725384 c -1.230148,0 -2.343467,0.499915 -3.148291,1.307575 -0.801356,0.804177 -1.296892,1.913449 -1.296892,3.138565 0,2.453832 1.987457,4.44325 4.440104,4.44601 -1.3e-5,-0.0017 -1.35e-4,-0.0034 -1.35e-4,-0.005 0,-0.522096 0.09071,-1.022822 0.256001,-1.488198 -0.08275,0.0069 -0.166244,0.01136 -0.250791,0.01136 -1.636664,0 -2.963455,-1.327041 -2.963455,-2.964065 0,-0.815859 0.329653,-1.554618 0.862872,-2.090597 0.536683,-0.539461 1.279602,-0.873509 2.100583,-0.873509 1.636665,0 2.963414,1.327083 2.963414,2.964106 0,0.08459 -0.0044,0.168097 -0.01136,0.250878 0.465281,-0.165319 0.965882,-0.256087 1.487849,-0.256087 0.0017,0 0.0034,1.11e-4 0.005,1.32e-4 -0.0027,-2.453188 -1.991715,-4.441063 -4.445008,-4.441063 z" style="fill:#000000;stroke:#000000;stroke-width:0.0444615;font-variation-settings:normal;opacity:1;vector-effect:none;fill-opacity:0.242166;stroke-linecap:butt;stroke-linejoin:miter;stroke-miterlimit:4;stroke-dasharray:none;stroke-dashoffset:0;stroke-opacity:1;-inkscape-stroke:none;stop-color:#000000;stop-opacity:1" id="path11" />
    <path d="m 78.511449,53.689449 c -0.411816,0 -0.784292,0.16818 -1.052831,0.439447 -0.265083,0.267776 -0.428897,0.636024 -0.428897,1.042628 0,0.818513 0.663396,1.482034 1.481728,1.482034 0.406518,0 0.774653,-0.163888 1.04237,-0.429028 0.271205,-0.268598 0.439316,-0.641099 0.439316,-1.053006 0,-0.818512 -0.663352,-1.482075 -1.481686,-1.482075 z" style="fill:#000000;stroke:#000000;stroke-width:0.0444615;font-variation-settings:normal;opacity:1;vector-effect:none;fill-opacity:0.242166;stroke-linecap:butt;stroke-linejoin:miter;stroke-miterlimit:4;stroke-dasharray:none;stroke-dashoffset:0;stroke-opacity:1;-inkscape-stroke:none;stop-color:#000000;stop-opacity:1" id="path10" />
    <path d="m 78.511449,62.581729 c -0.818332,0 -1.481728,0.663563 -1.481728,1.482076 0,0.409255 0.165845,0.779728 0.433976,1.047924 0.26814,0.268199 0.638587,0.434109 1.047752,0.434109 0.818334,0 1.481686,-0.663521 1.481686,-1.482033 0,-0.409256 -0.165845,-0.779772 -0.433976,-1.047969 -0.26814,-0.268199 -0.638543,-0.434107 -1.04771,-0.434107 z" style="fill:#000000;stroke:#000000;stroke-width:0.0444615;fill-opacity:0.24216574" id="path9" />
    <path d="m 87.401775,62.581729 c -0.411816,0 -0.784292,0.168181 -1.052832,0.439447 -0.26508,0.267774 -0.428894,0.636025 -0.428894,1.042629 -3e-6,0.818512 0.663396,1.482033 1.481726,1.482033 0.406505,0 0.774655,-0.163846 1.042369,-0.428985 0.271219,-0.268599 0.439317,-0.641131 0.439317,-1.053048 0,-0.818513 -0.663352,-1.482076 -1.481686,-1.482076 z" style="fill:#000000;stroke:#000000;stroke-width:0.0444615;fill-opacity:0.24216574" id="path8" />
    <path d="m 87.401775,53.689449 c -0.818332,0 -1.481726,0.663565 -1.481726,1.482075 0,0.409256 0.165844,0.779728 0.433976,1.047927 0.268138,0.268197 0.638585,0.434107 1.04775,0.434107 0.818334,0 1.481686,-0.663521 1.481686,-1.482034 0,-0.409255 -0.165845,-0.779772 -0.433976,-1.047968 -0.26814,-0.268199 -0.638543,-0.434107 -1.04771,-0.434107 z" style="fill:#000000;stroke:#000000;stroke-width:0.0444615;font-variation-settings:normal;opacity:1;vector-effect:none;fill-opacity:0.242166;stroke-linecap:butt;stroke-linejoin:miter;stroke-miterlimit:4;stroke-dasharray:none;stroke-dashoffset:0;stroke-opacity:1;-inkscape-stroke:none;stop-color:#000000;stop-opacity:1" id="path7" />
  </g>
</svg>
