<?xml version="1.0" encoding="UTF-8" standalone="no"?>
<svg width="100" height="100" viewBox="0 0 26.458334 26.458334" version="1.1" id="svg10012" inkscape:version="1.3-alpha (9cd57a7883, 2023-05-01)" sodipodi:docname="lily.svg" xmlns:inkscape="http://www.inkscape.org/namespaces/inkscape" xmlns:sodipodi="http://sodipodi.sourceforge.net/DTD/sodipodi-0.dtd" xmlns="http://www.w3.org/2000/svg" xmlns:svg="http://www.w3.org/2000/svg" xmlns:rdf="http://www.w3.org/1999/02/22-rdf-syntax-ns#" xmlns:cc="http://creativecommons.org/ns#" xmlns:dc="http://purl.org/dc/elements/1.1/">
  <defs id="defs10006" />
  <sodipodi:namedview id="base" pagecolor="#ffffff" bordercolor="#666666" borderopacity="1.0" inkscape:pageopacity="0.0" inkscape:pageshadow="2" inkscape:zoom="5.6568542" inkscape:cx="57.452426" inkscape:cy="47.729708" inkscape:document-units="px" inkscape:current-layer="layer1" inkscape:document-rotation="0" showgrid="false" units="px" inkscape:window-width="1534" inkscape:window-height="843" inkscape:window-x="66" inkscape:window-y="20" inkscape:window-maximized="1" inkscape:showpageshadow="2" inkscape:pagecheckerboard="0" inkscape:deskcolor="#d1d1d1" />
  <metadata id="metadata10009">
    <rdf:RDF>
      <cc:Work rdf:about="">
        <dc:format>image/svg+xml</dc:format>
        <dc:type rdf:resource="http://purl.org/dc/dcmitype/StillImage" />
      </cc:Work>
    </rdf:RDF>
  </metadata>
  <g inkscape:label="Layer 1" inkscape:groupmode="layer" id="layer1" transform="translate(-70.005836,-46.768833)">
    <path style="color:#000000;font-style:normal;font-variant:normal;font-weight:normal;font-stretch:normal;font-size:medium;line-height:normal;font-family:sans-serif;font-variant-ligatures:normal;font-variant-position:normal;font-variant-caps:normal;font-variant-numeric:normal;font-variant-alternates:normal;font-variant-east-asian:normal;font-feature-settings:normal;font-variation-settings:normal;text-indent:0;text-align:start;text-decoration:none;text-decoration-line:none;text-decoration-style:solid;text-decoration-color:#000000;letter-spacing:normal;word-spacing:normal;text-transform:none;writing-mode:lr-tb;direction:ltr;text-orientation:mixed;dominant-baseline:auto;baseline-shift:baseline;text-anchor:start;white-space:normal;shape-padding:0;shape-margin:0;inline-size:0;clip-rule:nonzero;display:inline;overflow:visible;visibility:visible;opacity:0.2;isolation:auto;mix-blend-mode:normal;color-interpolation:sRGB;color-interpolation-filters:linearRGB;solid-color:#000000;solid-opacity:1;vector-effect:none;fill:#000000;fill-opacity:1;fill-rule:nonzero;stroke:none;stroke-width:0.0784929px;stroke-linecap:butt;stroke-linejoin:miter;stroke-miterlimit:4;stroke-dasharray:none;stroke-dashoffset:0;stroke-opacity:1;paint-order:stroke markers fill;color-rendering:auto;image-rendering:auto;shape-rendering:auto;text-rendering:auto;enable-background:accumulate;stop-color:#000000" d="m 93.818337,50.635938 -0.747716,0.0014 v 3.370632 1.919012 14.119813 h -0.48056 -18.465535 v 0.634822 h 19.693811 z" id="path9068" />
    <path style="color:#000000;font-style:normal;font-variant:normal;font-weight:normal;font-stretch:normal;font-size:medium;line-height:normal;font-family:sans-serif;font-variant-ligatures:normal;font-variant-position:normal;font-variant-caps:normal;font-variant-numeric:normal;font-variant-alternates:normal;font-variant-east-asian:normal;font-feature-settings:normal;font-variation-settings:normal;text-indent:0;text-align:start;text-decoration:none;text-decoration-line:none;text-decoration-style:solid;text-decoration-color:#000000;letter-spacing:normal;word-spacing:normal;text-transform:none;writing-mode:lr-tb;direction:ltr;text-orientation:mixed;dominant-baseline:auto;baseline-shift:baseline;text-anchor:start;white-space:normal;shape-padding:0;shape-margin:0;inline-size:0;clip-rule:nonzero;display:inline;overflow:visible;visibility:visible;opacity:0.7;isolation:auto;mix-blend-mode:normal;color-interpolation:sRGB;color-interpolation-filters:linearRGB;solid-color:#000000;solid-opacity:1;vector-effect:none;fill:#ffffff;fill-opacity:1;fill-rule:nonzero;stroke:none;stroke-width:0.351486;stroke-linecap:butt;stroke-linejoin:miter;stroke-miterlimit:4;stroke-dasharray:none;stroke-dashoffset:0;stroke-opacity:1;paint-order:stroke markers fill;color-rendering:auto;image-rendering:auto;shape-rendering:auto;text-rendering:auto;enable-background:accumulate;stop-color:#000000" d="m 73.093393,49.756372 v 0.0073 4.329057 1.919068 13.592465 h 0.03895 19.457292 0.0387 v -13.677398 -1.919015 -4.244177 -0.0073 z" id="path9037" />
    <path id="path9035" style="color:#000000;font-style:normal;font-variant:normal;font-weight:normal;font-stretch:normal;font-size:medium;line-height:normal;font-family:sans-serif;font-variant-ligatures:normal;font-variant-position:normal;font-variant-caps:normal;font-variant-numeric:normal;font-variant-alternates:normal;font-variant-east-asian:normal;font-feature-settings:normal;font-variation-settings:normal;text-indent:0;text-align:start;text-decoration:none;text-decoration-line:none;text-decoration-style:solid;text-decoration-color:#000000;letter-spacing:normal;word-spacing:normal;text-transform:none;writing-mode:lr-tb;direction:ltr;text-orientation:mixed;dominant-baseline:auto;baseline-shift:baseline;text-anchor:start;white-space:normal;shape-padding:0;shape-margin:0;inline-size:0;clip-rule:nonzero;display:inline;overflow:visible;visibility:visible;opacity:0.4;isolation:auto;mix-blend-mode:normal;color-interpolation:sRGB;color-interpolation-filters:linearRGB;solid-color:#000000;solid-opacity:1;vector-effect:none;fill:#000000;fill-opacity:1;fill-rule:nonzero;stroke:none;stroke-width:0.351486;stroke-linecap:butt;stroke-linejoin:miter;stroke-miterlimit:4;stroke-dasharray:none;stroke-dashoffset:0;stroke-opacity:1;paint-order:stroke markers fill;color-rendering:auto;image-rendering:auto;shape-rendering:auto;text-rendering:auto;enable-background:accumulate;stop-color:#000000" d="m 72.651671,49.31439 v 0.441826 0.0073 4.32963 1.918755 14.034603 h 0.480292 19.458098 0.480562 V 55.926637 54.007674 49.763497 49.31465 Z m 0.441586,0.441826 h 19.534969 v 0.0073 4.244437 1.919015 13.677398 H 92.589526 73.13223 73.09327 V 56.011882 54.092606 49.763497 Z" />
    <g inkscape:label="Lily" style="fill:#ffffff;stroke:#000000;stroke-width:2" class="prefab" id="g9" transform="matrix(0.02388655,0,0,0.02388655,72.154951,48.995411)">&#10;  <path d="m 104.40403,102.19398 699.99997,3e-5 10e-6,699.99995 -700.00002,-10e-6 z m 2e-5,1e-5 -1e-5,699.99993 116.66664,4e-5 4e-5,-699.99997 z m 233.33335,-1e-5 -5e-5,699.99996 116.66668,10e-6 4e-5,-699.99997 z m 233.33331,3e-5 1e-5,699.99994 116.66664,4e-5 3e-5,-699.99998 z m -466.66672,699.99994 4e-5,-699.99997 699.99997,3e-5 10e-6,699.99995 z m 5e-5,-3e-5 699.99997,4e-5 4e-5,-116.66664 -700.00004,-3e-5 z m -10e-6,-233.3333 700.00003,2e-5 V 452.19397 l -700.00002,-10e-6 z m 3e-5,-233.33333 699.99997,4e-5 2e-5,-116.66666 -700.00002,-1e-5 z M 454.40401,452.19395 804.40407,102.194 l -6e-5,699.99996 z m -349.99997,349.99997 1e-5,-699.99993 349.99998,349.99999 z" id="path1" style="vector-effect:non-scaling-stroke;fill:none;fill-opacity:1;stroke:#00349c;stroke-opacity:1;-inkscape-stroke:hairline" />
&#10;  <path d="m 571.07073,539.69395 c 0,48.32489 -4e-5,87.49998 -116.6667,262.5 -129.60437,-177.894 -116.66665,-214.1751 -116.66666,-262.5 3e-5,-48.32494 52.23341,-87.49998 116.66664,-87.5 64.43318,3e-5 116.66668,39.17507 116.66672,87.5 z" id="path2" style="vector-effect:non-scaling-stroke;fill:none;fill-opacity:1;stroke:#00349c;stroke-opacity:1;-inkscape-stroke:hairline" />
&#10;  <path d="m 571.07072,366.43977 c 0,-48.32489 -3e-5,-87.49999 -116.66669,-262.50003 -129.60437,177.894 -116.66665,214.17508 -116.66665,262.49997 1e-5,48.32498 52.23339,85.75424 116.66663,85.75424 64.43316,1e-5 116.66671,-37.42929 116.66671,-85.75418 z" id="path3" style="vector-effect:non-scaling-stroke;fill:none;fill-opacity:1;stroke:#00349c;stroke-opacity:1;-inkscape-stroke:hairline" />
&#10;  <path d="m 367.60016,569.91031 c -48.32489,-10e-6 -87.49999,-4e-5 -262.50002,-116.66669 177.894,-129.60436 214.17509,-116.66663 262.50002,-116.66667 48.32493,4e-5 86.80381,51.18381 86.80385,115.617 -4e-5,64.43321 -38.47892,117.71632 -86.80385,117.71636 z" id="path4" style="vector-effect:non-scaling-stroke;fill:none;fill-opacity:1;stroke:#00349c;stroke-opacity:1;-inkscape-stroke:hairline" />
&#10;  <path d="m 540.85435,569.91032 c 48.32489,0 87.49999,-3e-5 262.49999,-116.6667 C 625.46036,323.63926 589.17927,336.57699 540.85438,336.57699 c -48.32497,0 -86.45037,51.18373 -86.45037,115.61696 0,64.43317 38.12543,117.71636 86.45034,117.71637 z" id="path5" style="vector-effect:non-scaling-stroke;fill:none;fill-opacity:1;stroke:#00349c;stroke-opacity:1;-inkscape-stroke:hairline" />
&#10;  <path d="m 475.59344,595.19648 c -34.17086,34.17086 -61.87186,61.87177 -268.11132,103.1197 34.1459,-217.43414 68.94888,-233.94042 103.11973,-268.11129 34.17091,-34.17087 98.24099,-23.5721 143.80216,21.98906 45.56114,45.56115 55.36032,108.83164 21.18943,143.00253 z" id="path6" style="vector-effect:non-scaling-stroke;fill:none;fill-opacity:1;stroke:#00349c;stroke-opacity:1;-inkscape-stroke:hairline" />
&#10;  <path d="m 598.10267,472.68727 c 34.17086,-34.17085 61.87181,-61.87188 103.11973,-268.11136 -217.43419,34.14594 -233.94043,68.94888 -268.11128,103.11974 -34.17094,34.17093 -24.2683,98.93712 21.29289,144.4983 45.56113,45.56113 109.5278,54.66418 143.69866,20.49332 z" id="path7" style="vector-effect:non-scaling-stroke;fill:none;fill-opacity:1;stroke:#00349c;stroke-opacity:1;-inkscape-stroke:hairline" />
&#10;  <path d="M 310.35185,472.68725 C 276.18099,438.5164 248.48005,410.81538 207.2321,204.57593 c 217.4342,34.1459 233.94044,68.94887 268.11136,103.11971 34.17085,34.17093 24.62167,98.93713 -20.93945,144.49831 -45.56119,45.56113 -109.88123,54.66415 -144.05216,20.4933 z" id="path8" style="vector-effect:non-scaling-stroke;fill:none;fill-opacity:1;stroke:#00349c;stroke-opacity:1;-inkscape-stroke:hairline" />
&#10;  <path d="M 432.86105,595.19646 C 467.0319,629.3673 494.73289,657.06829 700.97242,698.31617 666.82648,480.882 632.02352,464.37578 597.85265,430.20491 563.68174,396.034 499.96516,406.6328 454.40401,452.19395 408.84285,497.75511 398.69019,561.0256 432.86105,595.19646 Z" id="path9" style="vector-effect:non-scaling-stroke;fill:none;fill-opacity:1;stroke:#00349c;stroke-opacity:1;-inkscape-stroke:hairline" />
&#10;</g>
  </g>
</svg>
