<?xml version="1.0" encoding="UTF-8" standalone="no"?>
<svg width="100" height="100" viewBox="0 0 26.458334 26.458334" version="1.1" id="svg10012" inkscape:version="1.3-alpha (9cd57a7883, 2023-05-01)" sodipodi:docname="target.svg" xmlns:inkscape="http://www.inkscape.org/namespaces/inkscape" xmlns:sodipodi="http://sodipodi.sourceforge.net/DTD/sodipodi-0.dtd" xmlns="http://www.w3.org/2000/svg" xmlns:svg="http://www.w3.org/2000/svg" xmlns:rdf="http://www.w3.org/1999/02/22-rdf-syntax-ns#" xmlns:cc="http://creativecommons.org/ns#" xmlns:dc="http://purl.org/dc/elements/1.1/">
  <defs id="defs10006" />
  <sodipodi:namedview id="base" pagecolor="#ffffff" bordercolor="#666666" borderopacity="1.0" inkscape:pageopacity="0.0" inkscape:pageshadow="2" inkscape:zoom="4.7387531" inkscape:cx="92.218352" inkscape:cy="79.134741" inkscape:document-units="px" inkscape:current-layer="layer1" inkscape:document-rotation="0" showgrid="false" units="px" inkscape:window-width="1534" inkscape:window-height="843" inkscape:window-x="66" inkscape:window-y="20" inkscape:window-maximized="1" inkscape:showpageshadow="2" inkscape:pagecheckerboard="0" inkscape:deskcolor="#d1d1d1" />
  <metadata id="metadata10009">
    <rdf:RDF>
      <cc:Work rdf:about="">
        <dc:format>image/svg+xml</dc:format>
        <dc:type rdf:resource="http://purl.org/dc/dcmitype/StillImage" />
      </cc:Work>
    </rdf:RDF>
  </metadata>
  <g inkscape:label="Layer 1" inkscape:groupmode="layer" id="layer1" transform="translate(-70.005836,-46.768833)">
    <path style="color:#000000;font-style:normal;font-variant:normal;font-weight:normal;font-stretch:normal;font-size:medium;line-height:normal;font-family:sans-serif;font-variant-ligatures:normal;font-variant-position:normal;font-variant-caps:normal;font-variant-numeric:normal;font-variant-alternates:normal;font-variant-east-asian:normal;font-feature-settings:normal;font-variation-settings:normal;text-indent:0;text-align:start;text-decoration:none;text-decoration-line:none;text-decoration-style:solid;text-decoration-color:#000000;letter-spacing:normal;word-spacing:normal;text-transform:none;writing-mode:lr-tb;direction:ltr;text-orientation:mixed;dominant-baseline:auto;baseline-shift:baseline;text-anchor:start;white-space:normal;shape-padding:0;shape-margin:0;inline-size:0;clip-rule:nonzero;display:inline;overflow:visible;visibility:visible;opacity:0.2;isolation:auto;mix-blend-mode:normal;color-interpolation:sRGB;color-interpolation-filters:linearRGB;solid-color:#000000;solid-opacity:1;vector-effect:none;fill:#000000;fill-opacity:1;fill-rule:nonzero;stroke:none;stroke-width:0.0784929px;stroke-linecap:butt;stroke-linejoin:miter;stroke-miterlimit:4;stroke-dasharray:none;stroke-dashoffset:0;stroke-opacity:1;paint-order:stroke markers fill;color-rendering:auto;image-rendering:auto;shape-rendering:auto;text-rendering:auto;enable-background:accumulate;stop-color:#000000" d="m 93.818337,50.635938 -0.747716,0.0014 v 3.370632 1.919012 14.119813 h -0.48056 -18.465535 v 0.634822 h 19.693811 z" id="path9068" />
    <path style="color:#000000;font-style:normal;font-variant:normal;font-weight:normal;font-stretch:normal;font-size:medium;line-height:normal;font-family:sans-serif;font-variant-ligatures:normal;font-variant-position:normal;font-variant-caps:normal;font-variant-numeric:normal;font-variant-alternates:normal;font-variant-east-asian:normal;font-feature-settings:normal;font-variation-settings:normal;text-indent:0;text-align:start;text-decoration:none;text-decoration-line:none;text-decoration-style:solid;text-decoration-color:#000000;letter-spacing:normal;word-spacing:normal;text-transform:none;writing-mode:lr-tb;direction:ltr;text-orientation:mixed;dominant-baseline:auto;baseline-shift:baseline;text-anchor:start;white-space:normal;shape-padding:0;shape-margin:0;inline-size:0;clip-rule:nonzero;display:inline;overflow:visible;visibility:visible;opacity:0.7;isolation:auto;mix-blend-mode:normal;color-interpolation:sRGB;color-interpolation-filters:linearRGB;solid-color:#000000;solid-opacity:1;vector-effect:none;fill:#ffffff;fill-opacity:1;fill-rule:nonzero;stroke:none;stroke-width:0.351486;stroke-linecap:butt;stroke-linejoin:miter;stroke-miterlimit:4;stroke-dasharray:none;stroke-dashoffset:0;stroke-opacity:1;paint-order:stroke markers fill;color-rendering:auto;image-rendering:auto;shape-rendering:auto;text-rendering:auto;enable-background:accumulate;stop-color:#000000" d="m 73.093393,49.756372 v 0.0073 4.329057 1.919068 13.592465 h 0.03895 19.457292 0.0387 v -13.677398 -1.919015 -4.244177 -0.0073 z" id="path9037" />
    <path id="path9035" style="color:#000000;font-style:normal;font-variant:normal;font-weight:normal;font-stretch:normal;font-size:medium;line-height:normal;font-family:sans-serif;font-variant-ligatures:normal;font-variant-position:normal;font-variant-caps:normal;font-variant-numeric:normal;font-variant-alternates:normal;font-variant-east-asian:normal;font-feature-settings:normal;font-variation-settings:normal;text-indent:0;text-align:start;text-decoration:none;text-decoration-line:none;text-decoration-style:solid;text-decoration-color:#000000;letter-spacing:normal;word-spacing:normal;text-transform:none;writing-mode:lr-tb;direction:ltr;text-orientation:mixed;dominant-baseline:auto;baseline-shift:baseline;text-anchor:start;white-space:normal;shape-padding:0;shape-margin:0;inline-size:0;clip-rule:nonzero;display:inline;overflow:visible;visibility:visible;opacity:0.4;isolation:auto;mix-blend-mode:normal;color-interpolation:sRGB;color-interpolation-filters:linearRGB;solid-color:#000000;solid-opacity:1;vector-effect:none;fill:#000000;fill-opacity:1;fill-rule:nonzero;stroke:none;stroke-width:0.351486;stroke-linecap:butt;stroke-linejoin:miter;stroke-miterlimit:4;stroke-dasharray:none;stroke-dashoffset:0;stroke-opacity:1;paint-order:stroke markers fill;color-rendering:auto;image-rendering:auto;shape-rendering:auto;text-rendering:auto;enable-background:accumulate;stop-color:#000000" d="m 72.651671,49.31439 v 0.441826 0.0073 4.32963 1.918755 14.034603 h 0.480292 19.458098 0.480562 V 55.926637 54.007674 49.763497 49.31465 Z m 0.441586,0.441826 h 19.534969 v 0.0073 4.244437 1.919015 13.677398 H 92.589526 73.13223 73.09327 V 56.011882 54.092606 49.763497 Z" />
    <g inkscape:label="Target" style="fill:#ffffff;stroke:#000000;stroke-width:2" class="prefab" id="g2" transform="matrix(0.02237536,0,0,0.02237536,72.808879,49.777428)">&#10;  <path d="M 849.53146,50.000002 H 49.707105 L 849.53146,850.00003 Z M 451.68747,50 H 850 V 850 H 451.68747 Z M 50.175632,450 H 849.99997 V 850 H 50.175632 Z m -10e-7,-399.999998 H 849.99998 L 50.175631,850.00003 Z" id="path1" style="vector-effect:non-scaling-stroke;fill:none;fill-opacity:1;stroke:#00349c;stroke-opacity:1;-inkscape-stroke:hairline" />
&#10;  <path d="M 450,50 A 400,400 0 0 0 50,450 400,400 0 0 0 450,850 400,400 0 0 0 850,450 400,400 0 0 0 450,50 Z m 0,100 A 300,300 0 0 1 750,450 300,300 0 0 1 450,750 300,300 0 0 1 150,450 300,300 0 0 1 450,150 Z m 0,100 A 200,200 0 0 0 250,450 200,200 0 0 0 450,650 200,200 0 0 0 650,450 200,200 0 0 0 450,250 Z m 0,100 A 100,100 0 0 1 550,450 100,100 0 0 1 450,550 100,100 0 0 1 350,450 100,100 0 0 1 450,350 Z" id="path2" style="vector-effect:non-scaling-stroke;fill:none;fill-opacity:1;stroke:#00349c;stroke-opacity:1;-inkscape-stroke:hairline" />
&#10;</g>
    <path d="m 82.877792,57.608805 c -0.619969,0 -1.180969,0.252218 -1.586204,0.659549 -0.4025,0.404586 -0.651332,0.9622 -0.651332,1.577988 0,0.618467 0.250939,1.178313 0.656533,1.583319 0.404822,0.404235 0.963715,0.654217 1.581003,0.654217 0.01269,0 0.02514,-7.53e-4 0.03775,-9.62e-4 0.600575,-0.0099 1.143643,-0.256031 1.53988,-0.650066 0.407526,-0.405259 0.659898,-0.966373 0.659898,-1.586508 0,-0.617467 -0.250128,-1.176503 -0.654568,-1.581353 -0.396684,-0.397088 -0.941972,-0.6452 -1.54521,-0.655221 -0.01269,-2.12e-4 -0.02511,-9.63e-4 -0.03775,-9.63e-4 z m 0.03775,2.201745 v 0.03578 0.04627 l -0.04103,-0.04103 -0.0053,-0.0053 h 0.01057 z" style="opacity:0.339243;fill:#cc0000;stroke:#000000;stroke-width:0.0447506" id="path5" />
    <path d="m 82.877792,55.371269 c -1.237759,0 -2.358073,0.502585 -3.168212,1.314727 -0.807517,0.809516 -1.306861,1.92659 -1.306861,3.160346 0,1.236424 0.501463,2.3557 1.312061,3.165634 0.809725,0.809057 1.927923,1.309438 3.163012,1.309438 0.01269,0 0.02513,-8.54e-4 0.03775,-9.64e-4 1.218358,-0.01016 2.320736,-0.506409 3.121887,-1.305244 0.812542,-0.810188 1.315427,-1.930763 1.315427,-3.168866 0,-1.235435 -0.50064,-2.353931 -1.310096,-3.163711 -0.80158,-0.801899 -1.906197,-1.300256 -3.127218,-1.3104 -0.01269,-1.02e-4 -0.02511,-9.62e-4 -0.03775,-9.62e-4 z m 0,2.237536 c 0.01269,0 0.02514,7.53e-4 0.03775,9.63e-4 0.603238,0.0099 1.148526,0.258135 1.54521,0.655223 0.40444,0.40485 0.654568,0.963884 0.654568,1.581351 0,0.620135 -0.252372,1.18125 -0.659898,1.586508 -0.396237,0.394035 -0.939305,0.640085 -1.53988,0.650067 -0.01269,2.13e-4 -0.02511,9.61e-4 -0.03775,9.61e-4 -0.617288,0 -1.176181,-0.249982 -1.581003,-0.654217 -0.405594,-0.405006 -0.656533,-0.96485 -0.656533,-1.583319 0,-0.615788 0.24883,-1.173402 0.651332,-1.577988 0.405235,-0.407331 0.966235,-0.659549 1.586204,-0.659549 z" style="opacity:0.339243;fill:#ffffff;stroke:#000000;stroke-width:0.0447506" id="path4" />
    <path d="m 82.877792,53.133732 c -1.855547,0 -3.535181,0.752953 -4.750219,1.969908 -1.212535,1.214442 -1.96239,2.890978 -1.96239,4.742702 0,1.854392 0.751974,3.533129 1.967591,4.747992 1.214626,1.213868 2.892138,1.964617 4.745018,1.964617 0.01269,0 0.0251,-8.88e-4 0.03775,-9.65e-4 1.836144,-0.01015 3.497839,-0.75678 4.703895,-1.96042 1.217557,-1.215119 1.970956,-2.895154 1.970956,-4.751226 0,-1.853402 -0.751151,-3.531362 -1.965624,-4.746068 -1.206481,-1.206713 -2.870418,-1.955396 -4.709227,-1.965579 -0.01269,-7e-5 -0.02511,-9.63e-4 -0.03775,-9.61e-4 z m 0,2.237537 c 0.01269,0 0.02513,8.56e-4 0.03775,9.62e-4 1.221021,0.01016 2.325638,0.508501 3.127218,1.3104 0.809456,0.809778 1.310096,1.928276 1.310096,3.163711 0,1.238104 -0.502885,2.358678 -1.315427,3.168868 -0.801151,0.798833 -1.903529,1.295122 -3.121887,1.305244 -0.01269,8.5e-5 -0.02511,9.62e-4 -0.03775,9.62e-4 -1.235089,0 -2.353287,-0.500381 -3.163012,-1.309438 -0.810598,-0.809931 -1.312061,-1.929209 -1.312061,-3.165634 0,-1.233756 0.499344,-2.350828 1.306861,-3.160346 0.810139,-0.81214 1.930453,-1.314727 3.168212,-1.314727 z" style="opacity:0.339243;fill:#003399;stroke:#000000;stroke-width:0.0447506" id="path3" />
  </g>
</svg>
