<?xml version="1.0" encoding="UTF-8" standalone="no"?>
<svg
   id="svg8"
   version="1.1"
   viewBox="0 0 24 24"
   height="24"
   width="24"
   xmlns="http://www.w3.org/2000/svg"
   xmlns:svg="http://www.w3.org/2000/svg"
   xmlns:rdf="http://www.w3.org/1999/02/22-rdf-syntax-ns#"
   xmlns:cc="http://creativecommons.org/ns#"
   xmlns:dc="http://purl.org/dc/elements/1.1/">
  <defs
     id="defs2" />
  <metadata
     id="metadata5">
    <rdf:RDF>
      <cc:Work
         rdf:about="">
        <dc:format>image/svg+xml</dc:format>
        <dc:type
           rdf:resource="http://purl.org/dc/dcmitype/StillImage" />
      </cc:Work>
    </rdf:RDF>
  </metadata>
  <path
     style="stroke:none"
     d="M 3.69141,3 C 2.76585,3 2,3.76585 2,4.69141 v 5.61718 C 2,11.23415 2.76585,12 3.69141,12 H 18.30859 C 19.23415,12 20,11.23415 20,10.30859 V 4.69141 C 20,3.76585 19.23415,3 18.30859,3 Z m 0,1.38477 h 14.61718 c 0.18244,0 0.30664,0.1242 0.30664,0.30664 v 5.61718 c 0,0.18244 -0.1242,0.30664 -0.30664,0.30664 H 3.69141 c -0.18244,0 -0.30664,-0.1242 -0.30664,-0.30664 V 4.69141 c 0,-0.18244 0.1242,-0.30664 0.30664,-0.30664 z"
     id="rect33783" />
  <path
     id="path2338"
     style="color:#000000;fill:#000000;stroke-dashoffset:15;-inkscape-stroke:none"
     d="m 8.17977,2.98437 h -0.004 m 0,0 c -10e-6,0.002 10e-6,0.004 0,0.006 m -1.29492,0 c -10e-6,-0.002 1e-5,-0.004 0,-0.006 m 0,0 h -0.004 m 1.30292,0 C 8.17777,2.43757 8.33331,2.04766 8.61336,1.77344 8.89341,1.49921 9.33894,1.30378 10.05867,1.30078 l -0.004,-1.29883 h 2e-5 C 9.08762,0.00495 8.26591,0.29463 7.70312,0.8457 7.64102,0.9065 7.5841,0.97111 7.5293,1.03711 7.4742,0.97071 7.41592,0.9068 7.35352,0.8457 6.79073,0.29463 5.96902,0.00495 5.00195,0.00195 l -0.004,1.29883 c 0.71973,0.003 1.16526,0.19843 1.44531,0.47266 0.28005,0.27422 0.43559,0.66413 0.43359,1.21093 v 9.02358 c 0.002,0.5468 -0.15354,0.93671 -0.43359,1.21093 -0.28005,0.27423 -0.72558,0.46966 -1.44531,0.47266 l 0.004,1.29883 c 0.96707,-0.003 1.78878,-0.29268 2.35157,-0.84375 0.0624,-0.0611 0.12071,-0.12504 0.17578,-0.19141 0.0548,0.066 0.11175,0.13062 0.17382,0.19141 0.56279,0.55107 1.3845,0.84032 2.35157,0.84375 h -2e-5 l 0.004,-1.29883 C 9.33894,13.68854 8.89341,13.49311 8.61336,13.21888 8.33331,12.94466 8.17736,12.55475 8.17977,12.00795 Z" />
  <path
     id="path1910"
     style="color:#000000;fill:#000000;fill-rule:evenodd;stroke-dashoffset:15;-inkscape-stroke:none"
     d="m 17,14 c -2.755499,0 -5,2.244502 -5,5 0,2.755498 2.244501,5 5,5 2.755499,0 5,-2.244502 5,-5 0,-2.755498 -2.244501,-5 -5,-5 z m -1,2 h 2 v 2 h 2 v 2 h -2 v 2 h -2 v -2 h -2 v -2 h 2 z" />
</svg>
