<?xml version="1.0" encoding="UTF-8" standalone="no"?>
<svg
   width="700.00061"
   height="220"
   viewBox="0 0 185.20849 58.208335"
   version="1.1"
   id="svg243962"
   xml:space="preserve"
   xmlns="http://www.w3.org/2000/svg"
   xmlns:svg="http://www.w3.org/2000/svg"><defs
     id="defs243959" /><g
     id="layer2"
     style="font-variation-settings:normal;opacity:1;vector-effect:none;fill:#cbe1fb;fill-opacity:1;stroke-width:0.125564;stroke-linecap:butt;stroke-linejoin:miter;stroke-miterlimit:4;stroke-dasharray:none;stroke-dashoffset:0;stroke-opacity:1;-inkscape-stroke:none;stop-color:#000000;stop-opacity:1"
     transform="translate(-2342.5015)"><g
       id="layer3-34"
       style="font-variation-settings:normal;display:inline;vector-effect:none;fill:#cbe1fb;fill-opacity:1;stroke-width:0.125564;stroke-linecap:butt;stroke-linejoin:miter;stroke-miterlimit:4;stroke-dasharray:none;stroke-dashoffset:0;stroke-opacity:1;-inkscape-stroke:none;stop-color:#000000;stop-opacity:1"
       transform="translate(2328.2555,-29.153575)"><g
         aria-label="Вітаємо!"
         id="text118971-62"
         style="font-size:15.0345px;line-height:1.25;font-family:'Roboto Condensed';-inkscape-font-specification:'Roboto Condensed, ';vector-effect:none;stroke-width:0.125565;stop-color:#000000;stop-opacity:1"><path
           d="m 30.698323,46.107436 q 0,0.676552 -0.270621,1.187725 -0.270621,0.511173 -0.751725,0.856967 -0.46607,0.345793 -1.097519,0.526207 -0.616414,0.180414 -1.323036,0.180414 H 22.098589 V 38.184254 h 5.71311 q 0.556276,0 1.007311,0.240552 0.451035,0.240552 0.76676,0.631449 0.315724,0.375863 0.481104,0.872001 0.180414,0.481104 0.180414,0.977243 0,0.781794 -0.390897,1.473381 -0.390897,0.676552 -1.142622,1.007311 0.917104,0.270621 1.443312,0.977243 0.541242,0.691587 0.541242,1.744002 z m -2.089796,-0.390897 q 0,-0.285656 -0.105241,-0.541242 -0.09021,-0.270621 -0.255587,-0.46607 -0.165379,-0.195448 -0.390897,-0.30069 -0.225517,-0.120276 -0.496138,-0.120276 H 24.17335 v 2.811452 h 3.082072 q 0.285656,0 0.526208,-0.105242 0.255586,-0.105241 0.436,-0.285655 0.180414,-0.195449 0.285656,-0.451035 0.105241,-0.255587 0.105241,-0.541242 z M 24.17335,39.958325 v 2.691176 h 2.766348 q 0.526207,0 0.887035,-0.360828 0.375863,-0.360828 0.375863,-0.992277 0,-0.616415 -0.345794,-0.977243 -0.330759,-0.360828 -0.826897,-0.360828 z"
           style="font-weight:bold;font-family:Raleway;-inkscape-font-specification:Raleway;vector-effect:none;stop-color:#000000;stop-opacity:1"
           id="path156" /><path
           d="m 32.307002,48.858749 v -7.878078 h 2.014623 v 7.878078 z m 0,-8.975596 v -1.999589 h 2.014623 v 1.999589 z"
           style="font-weight:bold;font-family:Raleway;-inkscape-font-specification:Raleway;vector-effect:none;stop-color:#000000;stop-opacity:1"
           id="path157" /><path
           d="m 39.974581,48.858749 h -1.999589 v -6.134076 h -2.465658 v -1.744002 h 6.91587 v 1.744002 h -2.450623 z"
           style="font-weight:bold;font-family:Raleway;-inkscape-font-specification:Raleway;vector-effect:none;stop-color:#000000;stop-opacity:1"
           id="path158" /><path
           d="m 45.597472,49.009094 q -0.571311,0 -1.06745,-0.180414 -0.496138,-0.195448 -0.856966,-0.526207 -0.360828,-0.345794 -0.571311,-0.796829 -0.195449,-0.451035 -0.195449,-0.992277 0,-0.556276 0.240552,-1.022346 0.255587,-0.481104 0.691587,-0.811863 0.451035,-0.330759 1.06745,-0.511173 0.616414,-0.195448 1.353105,-0.195448 0.526207,0 1.022346,0.09021 0.511173,0.09021 0.90207,0.255586 v -0.451035 q 0,-0.781794 -0.451035,-1.20276 -0.436001,-0.420966 -1.308002,-0.420966 -0.631449,0 -1.232829,0.225518 -0.60138,0.225517 -1.232829,0.661518 l -0.616414,-1.277933 q 1.518484,-1.007311 3.277521,-1.007311 1.698898,0 2.631037,0.841932 0.947174,0.826897 0.947174,2.40552 v 2.450623 q 0,0.315725 0.105241,0.451035 0.120276,0.135311 0.375863,0.150345 v 1.713933 q -0.511173,0.105242 -0.887036,0.105242 -0.571311,0 -0.887035,-0.255587 -0.30069,-0.255586 -0.375863,-0.676552 l -0.0451,-0.436001 q -0.526208,0.691587 -1.277933,1.052415 -0.751725,0.360828 -1.608691,0.360828 z m 0.571311,-1.473381 q 0.511173,0 0.962208,-0.180414 0.466069,-0.180414 0.721656,-0.481104 0.330759,-0.255586 0.330759,-0.571311 v -0.90207 q -0.360828,-0.13531 -0.781794,-0.210483 -0.420966,-0.09021 -0.811863,-0.09021 -0.781794,0 -1.277933,0.360828 -0.496138,0.345794 -0.496138,0.887036 0,0.511173 0.390897,0.856966 0.390897,0.330759 0.962208,0.330759 z"
           style="font-weight:bold;font-family:Raleway;-inkscape-font-specification:Raleway;vector-effect:none;stop-color:#000000;stop-opacity:1"
           id="path159" /><path
           d="m 55.745734,48.99406 q -0.932139,0 -1.698898,-0.315725 -0.76676,-0.330759 -1.308002,-0.887035 -0.541242,-0.571311 -0.841932,-1.308002 -0.285655,-0.73669 -0.285655,-1.578622 0,-0.811863 0.285655,-1.548554 0.285656,-0.73669 0.826898,-1.292967 0.541242,-0.571311 1.308001,-0.90207 0.781794,-0.330759 1.759037,-0.330759 1.172691,0 2.029657,0.496139 0.872001,0.496138 1.292967,1.262898 l -1.458346,0.992277 q -0.150345,-0.285656 -0.375863,-0.496139 -0.210483,-0.210483 -0.466069,-0.345793 -0.255587,-0.135311 -0.526208,-0.195449 -0.270621,-0.07517 -0.511173,-0.07517 -0.420966,0 -0.766759,0.150345 -0.330759,0.13531 -0.60138,0.390897 -0.255587,0.240552 -0.436001,0.556276 -0.180414,0.315725 -0.270621,0.676553 h 3.0069 v 1.323036 h -2.991865 q 0.165379,0.796828 0.706621,1.308001 0.556277,0.496139 1.323036,0.496139 0.270621,0 0.541242,-0.07517 0.285656,-0.07517 0.541242,-0.210483 0.255587,-0.150345 0.451035,-0.360828 0.210483,-0.225517 0.330759,-0.496138 l 1.608692,0.90207 q -0.180414,0.451035 -0.541242,0.796828 -0.360828,0.345794 -0.841932,0.586346 -0.46607,0.225517 -1.007312,0.345793 -0.541242,0.135311 -1.082484,0.135311 z"
           style="font-weight:bold;font-family:Raleway;-inkscape-font-specification:Raleway;vector-effect:none;stop-color:#000000;stop-opacity:1"
           id="path160" /><path
           d="m 64.841578,45.175297 2.330348,-4.194626 h 2.059726 v 7.878078 h -1.924416 v -4.735867 l -1.999588,3.548142 h -0.947174 l -1.999589,-3.548142 v 4.735867 h -1.924416 v -7.878078 h 2.074761 z"
           style="font-weight:bold;font-family:Raleway;-inkscape-font-specification:Raleway;vector-effect:none;stop-color:#000000;stop-opacity:1"
           id="path161" /><path
           d="m 74.734256,49.009094 q -0.962208,0 -1.728967,-0.330759 -0.76676,-0.330759 -1.308002,-0.887035 -0.526208,-0.571311 -0.811863,-1.308002 -0.285656,-0.73669 -0.285656,-1.548553 0,-0.826898 0.285656,-1.563588 0.285655,-0.736691 0.811863,-1.292967 0.541242,-0.571311 1.308002,-0.90207 0.766759,-0.330759 1.728967,-0.330759 0.962208,0 1.713933,0.330759 0.76676,0.330759 1.292967,0.90207 0.541242,0.556276 0.826898,1.292967 0.285655,0.73669 0.285655,1.563588 0,0.811863 -0.285655,1.548553 -0.285656,0.736691 -0.811863,1.308002 -0.526208,0.556276 -1.292967,0.887035 -0.76676,0.330759 -1.728968,0.330759 z M 72.67453,44.934745 q 0,0.526207 0.150345,0.962208 0.165379,0.420966 0.436,0.73669 0.285656,0.315725 0.661518,0.496139 0.375863,0.165379 0.811863,0.165379 0.436001,0 0.811863,-0.165379 0.375863,-0.180414 0.646484,-0.496139 0.285655,-0.315724 0.436,-0.751725 0.16538,-0.436 0.16538,-0.962208 0,-0.511173 -0.16538,-0.947173 -0.150345,-0.436001 -0.436,-0.751725 -0.270621,-0.315725 -0.646484,-0.481104 -0.375862,-0.180414 -0.811863,-0.180414 -0.436,0 -0.811863,0.180414 -0.375862,0.180414 -0.661518,0.496138 -0.270621,0.315725 -0.436,0.751725 -0.150345,0.436001 -0.150345,0.947174 z"
           style="font-weight:bold;font-family:Raleway;-inkscape-font-specification:Raleway;vector-effect:none;stop-color:#000000;stop-opacity:1"
           id="path162" /><path
           d="m 80.597697,44.844538 v -6.765525 h 2.014623 v 6.765525 z m 0,4.014211 V 46.58854 h 2.014623 v 2.270209 z"
           style="font-weight:bold;font-family:Raleway;-inkscape-font-specification:Raleway;vector-effect:none;stop-color:#000000;stop-opacity:1"
           id="path163" /></g><g
         aria-label="Давайте налаштуємо
        декілька речей…"
         id="text115541-20"
         style="font-size:5.02259px;line-height:1.25;font-family:'Roboto Condensed';-inkscape-font-specification:'Roboto Condensed, ';vector-effect:none;stroke-width:0.125564;stop-color:#000000;stop-opacity:1"><path
           d="m 34.555473,58.33228 h 0.125565 q 0.145655,-0.005 0.256152,-0.08538 0.110497,-0.08036 0.195881,-0.296332 0.08538,-0.215972 0.150678,-0.592666 0.06529,-0.381717 0.120542,-0.979405 l 0.09041,-1.004518 h 2.159714 v 2.958305 h 0.527372 v 1.496732 H 37.533869 V 58.940014 H 35.20841 v 0.888998 h -0.652937 z m 2.405821,0 v -2.350572 h -0.838773 l -0.05023,0.54244 q -0.06027,0.69814 -0.170768,1.135105 -0.105474,0.436966 -0.276242,0.673027 z"
           style="font-weight:bold;font-family:Raleway;-inkscape-font-specification:Raleway;vector-effect:none;stop-color:#000000;stop-opacity:1"
           id="path125" /><path
           d="m 39.296798,58.99024 q -0.190858,0 -0.356604,-0.06027 -0.165745,-0.06529 -0.286288,-0.175791 -0.120542,-0.11552 -0.190858,-0.266197 -0.06529,-0.150678 -0.06529,-0.331491 0,-0.185836 0.08036,-0.341536 0.08538,-0.160723 0.231039,-0.27122 0.150678,-0.110497 0.356604,-0.170768 0.205926,-0.06529 0.452033,-0.06529 0.175791,0 0.341536,0.03014 0.170768,0.03013 0.301356,0.08538 v -0.150678 q 0,-0.261175 -0.150678,-0.401807 -0.145655,-0.140633 -0.436966,-0.140633 -0.210948,0 -0.411852,0.07534 -0.200904,0.07534 -0.411852,0.220994 l -0.205927,-0.42692 q 0.507282,-0.336514 1.094925,-0.336514 0.567553,0 0.878953,0.281265 0.316424,0.276243 0.316424,0.803615 v 0.818682 q 0,0.105474 0.03516,0.150678 0.04018,0.0452 0.125564,0.05023 v 0.572575 q -0.170768,0.03516 -0.296332,0.03516 -0.190859,0 -0.296333,-0.08538 -0.100452,-0.08538 -0.125565,-0.226017 l -0.01507,-0.145655 q -0.17579,0.231039 -0.42692,0.351582 -0.251129,0.120542 -0.537417,0.120542 z m 0.190858,-0.492214 q 0.170769,0 0.321446,-0.06027 0.155701,-0.06027 0.241085,-0.160723 0.110497,-0.08538 0.110497,-0.190858 v -0.301356 q -0.120543,-0.0452 -0.261175,-0.07032 -0.140633,-0.03014 -0.27122,-0.03014 -0.261175,0 -0.42692,0.120543 -0.165746,0.115519 -0.165746,0.296332 0,0.170768 0.130588,0.286288 0.130587,0.110497 0.321445,0.110497 z"
           style="font-weight:bold;font-family:Raleway;-inkscape-font-specification:Raleway;vector-effect:none;stop-color:#000000;stop-opacity:1"
           id="path126" /><path
           d="m 43.043642,56.308177 q 0.145655,0 0.266197,0.05525 0.120542,0.05023 0.205926,0.140633 0.09041,0.09041 0.13561,0.210948 0.05023,0.120543 0.05023,0.256153 0,0.170768 -0.09041,0.346558 -0.09041,0.170768 -0.296332,0.256152 0.231039,0.06529 0.361626,0.226017 0.13561,0.1557 0.13561,0.42692 0,0.361627 -0.251129,0.537417 -0.25113,0.175791 -0.693118,0.175791 H 41.48664 v -2.631837 z m -0.316423,1.099947 q 0.140632,0 0.226016,-0.08036 0.08538,-0.08036 0.08538,-0.231039 0,-0.125564 -0.07534,-0.210948 -0.07032,-0.09041 -0.215971,-0.09041 h -0.592666 v 0.612756 z m 0.09041,1.044699 q 0.145655,0 0.231039,-0.09543 0.09041,-0.09543 0.09041,-0.231039 0,-0.140632 -0.08538,-0.231039 -0.08538,-0.09543 -0.231039,-0.09543 h -0.668005 v 0.652937 z"
           style="font-weight:bold;font-family:Raleway;-inkscape-font-specification:Raleway;vector-effect:none;stop-color:#000000;stop-opacity:1"
           id="path127" /><path
           d="m 44.987381,58.99024 q -0.190859,0 -0.356604,-0.06027 -0.165746,-0.06529 -0.286288,-0.175791 -0.120542,-0.11552 -0.190858,-0.266197 -0.06529,-0.150678 -0.06529,-0.331491 0,-0.185836 0.08036,-0.341536 0.08538,-0.160723 0.231039,-0.27122 0.150677,-0.110497 0.356604,-0.170768 0.205926,-0.06529 0.452033,-0.06529 0.17579,0 0.341536,0.03014 0.170768,0.03013 0.301355,0.08538 v -0.150678 q 0,-0.261175 -0.150677,-0.401807 -0.145656,-0.140633 -0.436966,-0.140633 -0.210949,0 -0.411852,0.07534 -0.200904,0.07534 -0.411853,0.220994 l -0.205926,-0.42692 q 0.507282,-0.336514 1.094925,-0.336514 0.567553,0 0.878953,0.281265 0.316423,0.276243 0.316423,0.803615 v 0.818682 q 0,0.105474 0.03516,0.150678 0.04018,0.0452 0.125565,0.05023 v 0.572575 q -0.170768,0.03516 -0.296333,0.03516 -0.190858,0 -0.296332,-0.08538 -0.100452,-0.08538 -0.125565,-0.226017 l -0.01507,-0.145655 q -0.175791,0.231039 -0.42692,0.351582 -0.25113,0.120542 -0.537417,0.120542 z m 0.190858,-0.492214 q 0.170768,0 0.321446,-0.06027 0.1557,-0.06027 0.241084,-0.160723 0.110497,-0.08538 0.110497,-0.190858 v -0.301356 q -0.120542,-0.0452 -0.261174,-0.07032 -0.140633,-0.03014 -0.27122,-0.03014 -0.261175,0 -0.42692,0.120543 -0.165746,0.115519 -0.165746,0.296332 0,0.170768 0.130587,0.286288 0.130588,0.110497 0.321446,0.110497 z"
           style="font-weight:bold;font-family:Raleway;-inkscape-font-specification:Raleway;vector-effect:none;stop-color:#000000;stop-opacity:1"
           id="path128" /><path
           d="m 49.256574,55.273523 q -0.01004,0.316423 -0.236062,0.497236 -0.226016,0.175791 -0.592665,0.175791 -0.36665,0 -0.592666,-0.175791 -0.226017,-0.180813 -0.236062,-0.497236 h 0.371672 q 0.005,0.190858 0.120542,0.281265 0.120542,0.09041 0.336514,0.09041 0.431942,0 0.462078,-0.371672 z m -1.41637,2.707176 1.245602,-1.672522 h 0.497236 v 2.631837 h -0.668004 v -1.627319 l -1.230535,1.627319 h -0.512304 v -2.631837 h 0.668005 z"
           style="font-weight:bold;font-family:Raleway;-inkscape-font-specification:Raleway;vector-effect:none;stop-color:#000000;stop-opacity:1"
           id="path129" /><path
           d="m 51.476553,58.940014 h -0.668004 v -2.049217 h -0.823705 v -0.58262 h 2.310391 v 0.58262 h -0.818682 z"
           style="font-weight:bold;font-family:Raleway;-inkscape-font-specification:Raleway;vector-effect:none;stop-color:#000000;stop-opacity:1"
           id="path130" /><path
           d="m 53.781912,58.99024 q -0.316423,0 -0.572575,-0.105475 -0.256152,-0.110497 -0.436965,-0.296332 -0.180814,-0.185836 -0.281265,-0.431943 -0.09543,-0.246107 -0.09543,-0.517327 0,-0.281265 0.09543,-0.527372 0.09543,-0.251129 0.276242,-0.436965 0.180813,-0.190859 0.436965,-0.301356 0.261175,-0.110497 0.582621,-0.110497 0.321446,0 0.572575,0.110497 0.256152,0.110497 0.431943,0.296333 0.180813,0.185836 0.27122,0.431943 0.09543,0.246107 0.09543,0.512304 0,0.06529 -0.005,0.125565 0,0.06027 -0.01004,0.100452 h -2.034149 q 0.01507,0.1557 0.07534,0.276242 0.06027,0.120542 0.1557,0.205926 0.09543,0.08538 0.215972,0.130588 0.120542,0.0452 0.251129,0.0452 0.200904,0 0.376695,-0.09543 0.180813,-0.100452 0.246106,-0.261175 l 0.577598,0.160723 Q 54.861769,58.6035 54.540323,58.799381 54.2239,58.99024 53.781912,58.99024 Z m 0.683073,-1.587139 q -0.02511,-0.296333 -0.220994,-0.472123 -0.190859,-0.180813 -0.467101,-0.180813 -0.13561,0 -0.256152,0.05022 -0.11552,0.0452 -0.205927,0.130588 -0.09041,0.08538 -0.150677,0.205926 -0.05525,0.120542 -0.06529,0.266197 z"
           style="font-weight:bold;font-family:Raleway;-inkscape-font-specification:Raleway;vector-effect:none;stop-color:#000000;stop-opacity:1"
           id="path131" /><path
           d="m 57.45342,57.302649 h 1.044699 v -0.994472 h 0.668004 v 2.631837 H 58.498119 V 57.875225 H 57.45342 v 1.064789 h -0.668005 v -2.631837 h 0.668005 z"
           style="font-weight:bold;font-family:Raleway;-inkscape-font-specification:Raleway;vector-effect:none;stop-color:#000000;stop-opacity:1"
           id="path132" /><path
           d="m 60.502126,58.99024 q -0.190858,0 -0.356603,-0.06027 -0.165746,-0.06529 -0.286288,-0.175791 -0.120542,-0.11552 -0.190858,-0.266197 -0.06529,-0.150678 -0.06529,-0.331491 0,-0.185836 0.08036,-0.341536 0.08538,-0.160723 0.231039,-0.27122 0.150678,-0.110497 0.356604,-0.170768 0.205927,-0.06529 0.452033,-0.06529 0.175791,0 0.341537,0.03014 0.170768,0.03013 0.301355,0.08538 v -0.150678 q 0,-0.261175 -0.150678,-0.401807 -0.145655,-0.140633 -0.436965,-0.140633 -0.210949,0 -0.411852,0.07534 -0.200904,0.07534 -0.411853,0.220994 l -0.205926,-0.42692 q 0.507282,-0.336514 1.094925,-0.336514 0.567552,0 0.878953,0.281265 0.316423,0.276243 0.316423,0.803615 v 0.818682 q 0,0.105474 0.03516,0.150678 0.04018,0.0452 0.125565,0.05023 v 0.572575 q -0.170768,0.03516 -0.296333,0.03516 -0.190858,0 -0.296333,-0.08538 -0.100451,-0.08538 -0.125564,-0.226017 l -0.01507,-0.145655 q -0.175791,0.231039 -0.42692,0.351582 -0.25113,0.120542 -0.537418,0.120542 z m 0.190859,-0.492214 q 0.170768,0 0.321446,-0.06027 0.1557,-0.06027 0.241084,-0.160723 0.110497,-0.08538 0.110497,-0.190858 v -0.301356 q -0.120542,-0.0452 -0.261175,-0.07032 -0.140632,-0.03014 -0.27122,-0.03014 -0.261174,0 -0.42692,0.120543 -0.165745,0.115519 -0.165745,0.296332 0,0.170768 0.130587,0.286288 0.130587,0.110497 0.321446,0.110497 z"
           style="font-weight:bold;font-family:Raleway;-inkscape-font-specification:Raleway;vector-effect:none;stop-color:#000000;stop-opacity:1"
           id="path133" /><path
           d="m 62.410702,58.367439 q 0.145655,-0.01005 0.236062,-0.06027 0.09543,-0.05023 0.1557,-0.185836 0.06529,-0.13561 0.105475,-0.371672 0.0452,-0.241084 0.09041,-0.627824 l 0.09041,-0.813659 h 1.843291 v 2.631837 h -0.668005 v -2.069307 h -0.587643 l -0.05023,0.396784 q -0.06027,0.497237 -0.145655,0.823705 -0.08538,0.321446 -0.220994,0.512304 -0.130587,0.190859 -0.326468,0.27122 -0.195881,0.07534 -0.482169,0.08538 z"
           style="font-weight:bold;font-family:Raleway;-inkscape-font-specification:Raleway;vector-effect:none;stop-color:#000000;stop-opacity:1"
           id="path134" /><path
           d="m 66.273075,58.99024 q -0.190859,0 -0.356604,-0.06027 -0.165745,-0.06529 -0.286288,-0.175791 -0.120542,-0.11552 -0.190858,-0.266197 -0.06529,-0.150678 -0.06529,-0.331491 0,-0.185836 0.08036,-0.341536 0.08538,-0.160723 0.231039,-0.27122 0.150678,-0.110497 0.356604,-0.170768 0.205926,-0.06529 0.452033,-0.06529 0.175791,0 0.341536,0.03014 0.170768,0.03013 0.301355,0.08538 v -0.150678 q 0,-0.261175 -0.150677,-0.401807 -0.145655,-0.140633 -0.436966,-0.140633 -0.210948,0 -0.411852,0.07534 -0.200904,0.07534 -0.411852,0.220994 l -0.205927,-0.42692 q 0.507282,-0.336514 1.094925,-0.336514 0.567553,0 0.878953,0.281265 0.316423,0.276243 0.316423,0.803615 v 0.818682 q 0,0.105474 0.03516,0.150678 0.04018,0.0452 0.125564,0.05023 v 0.572575 q -0.170768,0.03516 -0.296332,0.03516 -0.190859,0 -0.296333,-0.08538 -0.100452,-0.08538 -0.125565,-0.226017 l -0.01507,-0.145655 q -0.17579,0.231039 -0.42692,0.351582 -0.251129,0.120542 -0.537417,0.120542 z m 0.190858,-0.492214 q 0.170768,0 0.321446,-0.06027 0.1557,-0.06027 0.241084,-0.160723 0.110497,-0.08538 0.110497,-0.190858 v -0.301356 q -0.120542,-0.0452 -0.261174,-0.07032 -0.140633,-0.03014 -0.27122,-0.03014 -0.261175,0 -0.42692,0.120543 -0.165746,0.115519 -0.165746,0.296332 0,0.170768 0.130588,0.286288 0.130587,0.110497 0.321445,0.110497 z"
           style="font-weight:bold;font-family:Raleway;-inkscape-font-specification:Raleway;vector-effect:none;stop-color:#000000;stop-opacity:1"
           id="path135" /><path
           d="m 68.457891,58.940014 v -2.631837 h 0.668005 v 2.049216 h 0.733298 v -2.049216 h 0.668004 v 2.049216 h 0.733299 v -2.049216 h 0.668004 v 2.631837 z"
           style="font-weight:bold;font-family:Raleway;-inkscape-font-specification:Raleway;vector-effect:none;stop-color:#000000;stop-opacity:1"
           id="path136" /><path
           d="m 73.822016,58.940014 h -0.668005 v -2.049217 h -0.823704 v -0.58262 h 2.310391 v 0.58262 h -0.818682 z"
           style="font-weight:bold;font-family:Raleway;-inkscape-font-specification:Raleway;vector-effect:none;stop-color:#000000;stop-opacity:1"
           id="path137" /><path
           d="m 75.107795,59.412137 q 0.08538,0.05023 0.160723,0.07032 0.08036,0.02009 0.150677,0.02009 0.125565,0 0.215972,-0.125565 0.09041,-0.120542 0.160723,-0.436965 L 74.756214,56.30818 h 0.693117 l 0.713208,2.049216 0.632846,-2.049216 h 0.632847 l -1.034654,2.973373 q -0.150678,0.431943 -0.371672,0.617779 -0.215971,0.185835 -0.532394,0.185835 -0.11552,0 -0.205926,-0.02009 -0.09041,-0.02009 -0.175791,-0.07534 z"
           style="font-weight:bold;font-family:Raleway;-inkscape-font-specification:Raleway;vector-effect:none;stop-color:#000000;stop-opacity:1"
           id="path138" /><path
           d="m 78.919931,58.985217 q -0.3114,0 -0.567552,-0.105474 -0.256152,-0.110497 -0.436966,-0.296333 -0.180813,-0.190858 -0.281265,-0.436965 -0.09543,-0.246107 -0.09543,-0.527372 0,-0.27122 0.09543,-0.517327 0.09543,-0.246107 0.276243,-0.431943 0.180813,-0.190858 0.436965,-0.301355 0.261175,-0.110497 0.587643,-0.110497 0.391762,0 0.67805,0.165745 0.29131,0.165746 0.431943,0.421898 L 79.5578,57.177085 q -0.05023,-0.09543 -0.125564,-0.165746 -0.07032,-0.07032 -0.155701,-0.115519 -0.08538,-0.0452 -0.17579,-0.06529 -0.09041,-0.02511 -0.170768,-0.02511 -0.140633,0 -0.256153,0.05023 -0.110497,0.0452 -0.200903,0.130587 -0.08538,0.08036 -0.145655,0.185836 -0.06027,0.105475 -0.09041,0.226017 h 1.004518 v 0.441988 h -0.999495 q 0.05525,0.266197 0.236061,0.436965 0.185836,0.165745 0.441988,0.165745 0.09041,0 0.180814,-0.02511 0.09543,-0.02511 0.180813,-0.07032 0.08538,-0.05023 0.150678,-0.120542 0.07032,-0.07534 0.110497,-0.165745 l 0.537417,0.301355 q -0.06027,0.150678 -0.180814,0.266197 -0.120542,0.11552 -0.281265,0.195881 -0.1557,0.07534 -0.336513,0.11552 -0.180813,0.0452 -0.361627,0.0452 z"
           style="font-weight:bold;font-family:Raleway;-inkscape-font-specification:Raleway;vector-effect:none;stop-color:#000000;stop-opacity:1"
           id="path139" /><path
           d="m 81.95859,57.709479 0.778501,-1.401302 h 0.688095 v 2.631837 h -0.642892 v -1.582116 l -0.668004,1.185331 h -0.316423 l -0.668005,-1.185331 v 1.582116 h -0.642891 v -2.631837 h 0.693117 z"
           style="font-weight:bold;font-family:Raleway;-inkscape-font-specification:Raleway;vector-effect:none;stop-color:#000000;stop-opacity:1"
           id="path140" /><path
           d="m 85.263445,58.99024 q -0.321446,0 -0.577598,-0.110497 -0.256152,-0.110497 -0.436965,-0.296333 -0.175791,-0.190858 -0.27122,-0.436965 -0.09543,-0.246107 -0.09543,-0.517327 0,-0.276243 0.09543,-0.52235 0.09543,-0.246106 0.27122,-0.431942 0.180813,-0.190859 0.436965,-0.301356 0.256152,-0.110497 0.577598,-0.110497 0.321446,0 0.572575,0.110497 0.256152,0.110497 0.431943,0.301356 0.180813,0.185836 0.276242,0.431942 0.09543,0.246107 0.09543,0.52235 0,0.27122 -0.09543,0.517327 -0.09543,0.246107 -0.27122,0.436965 -0.17579,0.185836 -0.431942,0.296333 -0.256152,0.110497 -0.577598,0.110497 z M 84.57535,57.629118 q 0,0.175791 0.05023,0.321446 0.05525,0.140632 0.145655,0.246107 0.09543,0.105474 0.220994,0.165745 0.125565,0.05525 0.27122,0.05525 0.145655,0 0.27122,-0.05525 0.125564,-0.06027 0.215971,-0.165745 0.09543,-0.105475 0.145655,-0.25113 0.05525,-0.145655 0.05525,-0.321446 0,-0.170768 -0.05525,-0.316423 -0.05023,-0.145655 -0.145655,-0.251129 -0.09041,-0.105475 -0.215971,-0.160723 -0.125565,-0.06027 -0.27122,-0.06027 -0.145655,0 -0.27122,0.06027 -0.125565,0.06027 -0.220994,0.165745 -0.09041,0.105475 -0.145655,0.25113 -0.05023,0.145655 -0.05023,0.316423 z"
           style="font-weight:bold;font-family:Raleway;-inkscape-font-specification:Raleway;vector-effect:none;stop-color:#000000;stop-opacity:1"
           id="path141" /><path
           d="m 44.188792,64.841134 h 0.140632 q 0.120542,-0.01507 0.195881,-0.07534 0.08036,-0.06529 0.13561,-0.200904 0.06027,-0.140633 0.09543,-0.371672 0.04018,-0.231039 0.08036,-0.587643 l 0.09041,-0.813659 h 1.84329 v 2.049216 h 0.351581 v 1.336009 h -0.59769 V 65.423755 H 44.76639 v 0.753388 h -0.577598 z m 1.913607,0 v -1.486686 h -0.587643 l -0.05023,0.396784 q -0.05023,0.40683 -0.125565,0.662982 -0.07032,0.256152 -0.180813,0.42692 z"
           style="font-weight:bold;font-family:Raleway;-inkscape-font-specification:Raleway;vector-effect:none;stop-color:#000000;stop-opacity:1"
           id="path142" /><path
           d="m 48.76939,65.473981 q -0.316424,0 -0.572576,-0.105475 -0.256152,-0.110497 -0.436965,-0.296332 -0.180813,-0.185836 -0.281265,-0.431943 -0.09543,-0.246107 -0.09543,-0.517327 0,-0.281265 0.09543,-0.527372 0.09543,-0.251129 0.276242,-0.436965 0.180814,-0.190859 0.436966,-0.301356 0.261174,-0.110497 0.58262,-0.110497 0.321446,0 0.572576,0.110497 0.256152,0.110497 0.431942,0.296333 0.180814,0.185836 0.27122,0.431943 0.09543,0.246107 0.09543,0.512304 0,0.06529 -0.005,0.125565 0,0.06027 -0.01004,0.100452 h -2.034149 q 0.01507,0.1557 0.07534,0.276242 0.06027,0.120542 0.155701,0.205926 0.09543,0.08538 0.215971,0.130588 0.120542,0.0452 0.25113,0.0452 0.200903,0 0.376694,-0.09543 0.180813,-0.100452 0.246107,-0.261175 l 0.577598,0.160723 q -0.145655,0.301355 -0.467101,0.497236 -0.316423,0.190859 -0.758411,0.190859 z m 0.683072,-1.587139 q -0.02511,-0.296332 -0.220994,-0.472123 -0.190858,-0.180813 -0.467101,-0.180813 -0.13561,0 -0.256152,0.05023 -0.11552,0.0452 -0.205926,0.130587 -0.09041,0.08538 -0.150678,0.205926 -0.05525,0.120542 -0.06529,0.266197 z"
           style="font-weight:bold;font-family:Raleway;-inkscape-font-specification:Raleway;vector-effect:none;stop-color:#000000;stop-opacity:1"
           id="path143" /><path
           d="m 52.179724,62.791918 h 0.723253 l -1.024609,1.275738 1.10497,1.356099 h -0.763434 l -0.813659,-1.014563 h -0.175791 v 1.014563 h -0.662982 v -2.631837 h 0.662982 v 1.044698 h 0.150678 z"
           style="font-weight:bold;font-family:Raleway;-inkscape-font-specification:Raleway;vector-effect:none;stop-color:#000000;stop-opacity:1"
           id="path144" /><path
           d="m 53.274647,65.423755 v -2.631837 h 0.673027 v 2.631837 z m 0,-2.998486 v -0.668005 h 0.673027 v 0.668005 z"
           style="font-weight:bold;font-family:Raleway;-inkscape-font-specification:Raleway;vector-effect:none;stop-color:#000000;stop-opacity:1"
           id="path145" /><path
           d="m 54.299248,64.85118 q 0.145655,-0.01005 0.236062,-0.06027 0.09543,-0.05023 0.1557,-0.185836 0.06529,-0.13561 0.105475,-0.371672 0.0452,-0.241084 0.09041,-0.627824 l 0.09041,-0.813659 h 1.843291 v 2.631837 h -0.668005 v -2.069307 h -0.587643 l -0.05023,0.396784 q -0.06027,0.497237 -0.145655,0.823705 -0.08538,0.321446 -0.220994,0.512304 -0.130587,0.190859 -0.326468,0.27122 -0.195881,0.07534 -0.482169,0.08538 z"
           style="font-weight:bold;font-family:Raleway;-inkscape-font-specification:Raleway;vector-effect:none;stop-color:#000000;stop-opacity:1"
           id="path146" /><path
           d="m 57.453436,62.791918 h 0.668004 v 0.83375 h 0.512304 q 0.210949,0 0.391762,0.06027 0.185836,0.05525 0.321446,0.170768 0.13561,0.110497 0.210949,0.281265 0.08036,0.165745 0.08036,0.381717 0,0.220994 -0.07534,0.391762 -0.07534,0.165745 -0.205927,0.281265 -0.130587,0.115519 -0.3114,0.17579 -0.175791,0.05525 -0.38674,0.05525 h -1.205421 z m 1.130082,2.104465 q 0.175791,0 0.276243,-0.09041 0.100452,-0.09543 0.100452,-0.276242 0,-0.180813 -0.105475,-0.276243 Q 58.749264,64.15304 58.588541,64.15304 H 58.12144 v 0.743343 z"
           style="font-weight:bold;font-family:Raleway;-inkscape-font-specification:Raleway;vector-effect:none;stop-color:#000000;stop-opacity:1"
           id="path147" /><path
           d="m 61.667387,62.791918 h 0.723253 l -1.024608,1.275738 1.104969,1.356099 h -0.763433 l -0.81366,-1.014563 h -0.175791 v 1.014563 h -0.662982 v -2.631837 h 0.662982 v 1.044698 h 0.150678 z"
           style="font-weight:bold;font-family:Raleway;-inkscape-font-specification:Raleway;vector-effect:none;stop-color:#000000;stop-opacity:1"
           id="path148" /><path
           d="m 63.445375,65.473981 q -0.190858,0 -0.356604,-0.06027 -0.165745,-0.06529 -0.286287,-0.175791 -0.120542,-0.115519 -0.190859,-0.266197 -0.06529,-0.150678 -0.06529,-0.331491 0,-0.185836 0.08036,-0.341536 0.08538,-0.160723 0.231039,-0.27122 0.150678,-0.110497 0.356604,-0.170768 0.205926,-0.06529 0.452033,-0.06529 0.175791,0 0.341536,0.03014 0.170768,0.03014 0.301356,0.08538 V 63.75626 q 0,-0.261175 -0.150678,-0.401807 -0.145655,-0.140633 -0.436965,-0.140633 -0.210949,0 -0.411853,0.07534 -0.200903,0.07534 -0.411852,0.220994 l -0.205926,-0.42692 q 0.507281,-0.336514 1.094924,-0.336514 0.567553,0 0.878954,0.281265 0.316423,0.276243 0.316423,0.803615 v 0.818682 q 0,0.105474 0.03516,0.150678 0.04018,0.0452 0.125565,0.05023 v 0.572575 q -0.170768,0.03516 -0.296333,0.03516 -0.190859,0 -0.296333,-0.08538 -0.100452,-0.08538 -0.125565,-0.226017 l -0.01507,-0.145655 q -0.175791,0.231039 -0.426921,0.351582 -0.251129,0.120542 -0.537417,0.120542 z m 0.190859,-0.492214 q 0.170768,0 0.321445,-0.06027 0.155701,-0.06027 0.241085,-0.160723 0.110497,-0.08538 0.110497,-0.190858 V 64.26856 q -0.120542,-0.0452 -0.261175,-0.07032 -0.140632,-0.03014 -0.27122,-0.03014 -0.261175,0 -0.42692,0.120543 -0.165745,0.115519 -0.165745,0.296332 0,0.170768 0.130587,0.286288 0.130587,0.110497 0.321446,0.110497 z"
           style="font-weight:bold;font-family:Raleway;-inkscape-font-specification:Raleway;vector-effect:none;stop-color:#000000;stop-opacity:1"
           id="path149" /><path
           d="m 68.412708,65.473981 q -0.3114,0 -0.54244,-0.13561 -0.231039,-0.140633 -0.361626,-0.376694 v 1.53189 h -0.673027 v -3.701649 h 0.587643 v 0.452033 q 0.145655,-0.231039 0.376694,-0.361627 0.231039,-0.13561 0.532395,-0.13561 0.266197,0 0.492214,0.110497 0.226016,0.105475 0.386739,0.291311 0.165746,0.180813 0.256152,0.431942 0.09543,0.246107 0.09543,0.52235 0,0.286287 -0.08538,0.537417 -0.08538,0.251129 -0.241084,0.436965 -0.150678,0.185836 -0.361626,0.29131 -0.210949,0.105475 -0.462079,0.105475 z m -0.226016,-0.572575 q 0.150677,0 0.276242,-0.06529 0.130587,-0.06529 0.220994,-0.175791 0.09041,-0.110497 0.140633,-0.256152 0.05023,-0.145655 0.05023,-0.301355 0,-0.165746 -0.05525,-0.306378 -0.05525,-0.145655 -0.1557,-0.25113 -0.09543,-0.105474 -0.231039,-0.165745 -0.130588,-0.06027 -0.286288,-0.06027 -0.09543,0 -0.195881,0.03516 -0.100452,0.03014 -0.185836,0.09041 -0.08538,0.06027 -0.1557,0.140633 -0.06529,0.08036 -0.100452,0.175791 v 0.617778 q 0.09041,0.226017 0.276242,0.376694 0.185836,0.145656 0.401808,0.145656 z"
           style="font-weight:bold;font-family:Raleway;-inkscape-font-specification:Raleway;vector-effect:none;stop-color:#000000;stop-opacity:1"
           id="path150" /><path
           d="m 71.235394,65.473981 q -0.316423,0 -0.572575,-0.105475 -0.256152,-0.110497 -0.436966,-0.296332 -0.180813,-0.185836 -0.281265,-0.431943 -0.09543,-0.246107 -0.09543,-0.517327 0,-0.281265 0.09543,-0.527372 0.09543,-0.251129 0.276243,-0.436965 0.180813,-0.190859 0.436965,-0.301356 0.261175,-0.110497 0.582621,-0.110497 0.321445,0 0.572575,0.110497 0.256152,0.110497 0.431943,0.296333 0.180813,0.185836 0.27122,0.431943 0.09543,0.246107 0.09543,0.512304 0,0.06529 -0.005,0.125565 0,0.06027 -0.01005,0.100452 h -2.034149 q 0.01507,0.1557 0.07534,0.276242 0.06027,0.120542 0.1557,0.205926 0.09543,0.08538 0.215971,0.130588 0.120543,0.0452 0.25113,0.0452 0.200904,0 0.376694,-0.09543 0.180813,-0.100452 0.246107,-0.261175 l 0.577598,0.160723 q -0.145655,0.301355 -0.467101,0.497236 -0.316423,0.190859 -0.758411,0.190859 z m 0.683072,-1.587139 q -0.02511,-0.296332 -0.220994,-0.472123 -0.190858,-0.180813 -0.467101,-0.180813 -0.13561,0 -0.256152,0.05023 -0.115519,0.0452 -0.205926,0.130587 -0.09041,0.08538 -0.150678,0.205926 -0.05525,0.120542 -0.06529,0.266197 z"
           style="font-weight:bold;font-family:Raleway;-inkscape-font-specification:Raleway;vector-effect:none;stop-color:#000000;stop-opacity:1"
           id="path151" /><path
           d="m 74.977218,65.423755 h -0.657959 v -0.939224 q -0.11552,0.04018 -0.241085,0.06027 -0.120542,0.02009 -0.306378,0.02009 -0.226016,0 -0.391762,-0.07032 -0.165745,-0.07534 -0.276242,-0.195881 -0.110497,-0.125565 -0.165746,-0.291311 -0.05525,-0.165745 -0.05525,-0.356603 v -0.858863 h 0.647914 v 0.758411 q 0,0.261174 0.105474,0.371671 0.105475,0.110497 0.296333,0.110497 0.140633,0 0.231039,-0.02511 0.09543,-0.03014 0.155701,-0.07534 v -1.140128 h 0.657959 z"
           style="font-weight:bold;font-family:Raleway;-inkscape-font-specification:Raleway;vector-effect:none;stop-color:#000000;stop-opacity:1"
           id="path152" /><path
           d="m 76.820504,65.473981 q -0.316423,0 -0.572576,-0.105475 -0.256152,-0.110497 -0.436965,-0.296332 -0.180813,-0.185836 -0.281265,-0.431943 -0.09543,-0.246107 -0.09543,-0.517327 0,-0.281265 0.09543,-0.527372 0.09543,-0.251129 0.276243,-0.436965 0.180813,-0.190859 0.436965,-0.301356 0.261175,-0.110497 0.58262,-0.110497 0.321446,0 0.572576,0.110497 0.256152,0.110497 0.431942,0.296333 0.180814,0.185836 0.27122,0.431943 0.09543,0.246107 0.09543,0.512304 0,0.06529 -0.005,0.125565 0,0.06027 -0.01005,0.100452 h -2.034149 q 0.01507,0.1557 0.07534,0.276242 0.06027,0.120542 0.1557,0.205926 0.09543,0.08538 0.215971,0.130588 0.120542,0.0452 0.25113,0.0452 0.200903,0 0.376694,-0.09543 0.180813,-0.100452 0.246107,-0.261175 l 0.577598,0.160723 q -0.145655,0.301355 -0.467101,0.497236 -0.316423,0.190859 -0.758411,0.190859 z m 0.683072,-1.587139 q -0.02511,-0.296332 -0.220994,-0.472123 -0.190858,-0.180813 -0.467101,-0.180813 -0.13561,0 -0.256152,0.05023 -0.11552,0.0452 -0.205926,0.130587 -0.09041,0.08538 -0.150678,0.205926 -0.05525,0.120542 -0.06529,0.266197 z"
           style="font-weight:bold;font-family:Raleway;-inkscape-font-specification:Raleway;vector-effect:none;stop-color:#000000;stop-opacity:1"
           id="path153" /><path
           d="m 80.70296,61.757264 q -0.01005,0.316423 -0.236061,0.497237 -0.226017,0.17579 -0.592666,0.17579 -0.366649,0 -0.592666,-0.17579 -0.226016,-0.180814 -0.236061,-0.497237 h 0.371671 q 0.005,0.190859 0.120542,0.281265 0.120543,0.09041 0.336514,0.09041 0.431943,0 0.462078,-0.371672 z m -1.41637,2.707176 1.245602,-1.672522 h 0.497237 v 2.631837 h -0.668005 v -1.627319 l -1.230534,1.627319 h -0.512305 v -2.631837 h 0.668005 z"
           style="font-weight:bold;font-family:Raleway;-inkscape-font-specification:Raleway;vector-effect:none;stop-color:#000000;stop-opacity:1"
           id="path154" /><path
           d="m 81.637158,65.423755 v -0.723253 h 0.552485 v 0.723253 z m 0.944247,0 v -0.723253 h 0.552485 v 0.723253 z m 0.944247,0 v -0.723253 h 0.552485 v 0.723253 z"
           style="font-weight:bold;font-family:Raleway;-inkscape-font-specification:Raleway;vector-effect:none;stop-color:#000000;stop-opacity:1"
           id="path155" /></g></g></g></svg>
