<?xml version="1.0" encoding="UTF-8" standalone="no"?>
<svg
   width="700.00061"
   height="220"
   viewBox="0 0 185.20849 58.208335"
   version="1.1"
   id="svg243962"
   xml:space="preserve"
   xmlns="http://www.w3.org/2000/svg"
   xmlns:svg="http://www.w3.org/2000/svg"><defs
     id="defs243959" /><g
     id="layer2"
     style="font-variation-settings:normal;opacity:1;vector-effect:none;fill:#cbe1fb;fill-opacity:1;stroke-width:0.125564;stroke-linecap:butt;stroke-linejoin:miter;stroke-miterlimit:4;stroke-dasharray:none;stroke-dashoffset:0;stroke-opacity:1;-inkscape-stroke:none;stop-color:#000000;stop-opacity:1"
     transform="translate(-3318.544)"><g
       id="layer3-8"
       style="font-variation-settings:normal;display:inline;vector-effect:none;fill:#cbe1fb;fill-opacity:1;stroke-width:0.125564;stroke-linecap:butt;stroke-linejoin:miter;stroke-miterlimit:4;stroke-dasharray:none;stroke-dashoffset:0;stroke-opacity:1;-inkscape-stroke:none;stop-color:#000000"
       transform="translate(3306.4893,-30.444607)"><g
         aria-label="Dobrodošli!"
         id="text118971-95"
         style="font-size:15.457px;line-height:1.25;font-family:'Roboto Condensed';-inkscape-font-specification:'Roboto Condensed, ';vector-effect:none;stop-color:#000000;stop-opacity:1"><path
           d="m 20.331843,49.933647 v -10.97447 h 3.987905 q 1.344759,0 2.349464,0.432796 1.020162,0.432796 1.70027,1.174732 0.680108,0.741936 1.020162,1.746641 0.340054,0.989248 0.340054,2.117609 0,1.252017 -0.386425,2.272179 -0.370968,1.004705 -1.08199,1.731184 -0.711022,0.711022 -1.715727,1.112904 -0.989248,0.386425 -2.225808,0.386425 z m 7.249332,-5.502692 q 0,-0.788307 -0.216398,-1.452958 -0.216398,-0.664651 -0.633737,-1.143818 -0.417339,-0.479167 -1.035619,-0.741936 -0.602823,-0.262769 -1.375673,-0.262769 h -1.85484 v 7.233876 h 1.85484 q 0.788307,0 1.39113,-0.278226 0.61828,-0.278226 1.020162,-0.757393 0.417339,-0.494624 0.633737,-1.159275 0.216398,-0.664651 0.216398,-1.437501 z"
           style="font-weight:bold;font-family:Raleway;-inkscape-font-specification:Raleway;vector-effect:none;stop-color:#000000;stop-opacity:1"
           id="path21" /><path
           d="m 34.938701,50.088217 q -0.989248,0 -1.777555,-0.340054 -0.788307,-0.340054 -1.344759,-0.911963 -0.540995,-0.587366 -0.834678,-1.344759 -0.293683,-0.757393 -0.293683,-1.592071 0,-0.850135 0.293683,-1.607528 0.293683,-0.757393 0.834678,-1.329302 0.556452,-0.587366 1.344759,-0.92742 0.788307,-0.340054 1.777555,-0.340054 0.989248,0 1.762098,0.340054 0.788307,0.340054 1.329302,0.92742 0.556452,0.571909 0.850135,1.329302 0.293683,0.757393 0.293683,1.607528 0,0.834678 -0.293683,1.592071 -0.293683,0.757393 -0.834678,1.344759 -0.540995,0.571909 -1.329302,0.911963 -0.788307,0.340054 -1.777555,0.340054 z M 32.821092,45.89937 q 0,0.540995 0.15457,0.989248 0.170027,0.432796 0.448253,0.757393 0.293683,0.324597 0.680108,0.510081 0.386425,0.170027 0.834678,0.170027 0.448253,0 0.834678,-0.170027 0.386425,-0.185484 0.664651,-0.510081 0.293683,-0.324597 0.448253,-0.77285 0.170027,-0.448253 0.170027,-0.989248 0,-0.525538 -0.170027,-0.973791 -0.15457,-0.448253 -0.448253,-0.77285 -0.278226,-0.324597 -0.664651,-0.494624 -0.386425,-0.185484 -0.834678,-0.185484 -0.448253,0 -0.834678,0.185484 -0.386425,0.185484 -0.680108,0.510081 -0.278226,0.324597 -0.448253,0.77285 -0.15457,0.448253 -0.15457,0.973791 z"
           style="font-weight:bold;font-family:Raleway;-inkscape-font-specification:Raleway;vector-effect:none;stop-color:#000000;stop-opacity:1"
           id="path22" /><path
           d="m 45.171219,50.088217 q -0.92742,0 -1.653899,-0.417339 -0.726479,-0.417339 -1.143818,-1.143818 v 1.406587 h -1.808469 v -11.28361 h 2.071238 v 4.606186 q 0.432796,-0.741936 1.128361,-1.143818 0.711022,-0.417339 1.653899,-0.417339 0.788307,0 1.437501,0.340054 0.649194,0.340054 1.112904,0.911963 0.479167,0.571909 0.726479,1.344759 0.262769,0.77285 0.262769,1.622985 0,0.881049 -0.293683,1.638442 -0.278226,0.757393 -0.788307,1.329302 -0.510081,0.556452 -1.205646,0.881049 -0.695565,0.324597 -1.499329,0.324597 z M 44.59931,48.326119 q 0.494624,0 0.911963,-0.185484 0.417339,-0.200941 0.711022,-0.525538 0.293683,-0.324597 0.448253,-0.757393 0.170027,-0.432796 0.170027,-0.92742 0,-0.494624 -0.15457,-0.942877 -0.15457,-0.448253 -0.448253,-0.788307 -0.278226,-0.340054 -0.664651,-0.540995 -0.386425,-0.200941 -0.850135,-0.200941 -0.695565,0 -1.252017,0.46371 -0.540995,0.448253 -0.834678,1.112904 v 1.932125 q 0.108199,0.30914 0.30914,0.556452 0.216398,0.247312 0.479167,0.432796 0.262769,0.170027 0.571909,0.278226 0.30914,0.09274 0.602823,0.09274 z"
           style="font-weight:bold;font-family:Raleway;-inkscape-font-specification:Raleway;vector-effect:none;stop-color:#000000;stop-opacity:1"
           id="path23" /><path
           d="m 55.187338,43.627191 q -0.942877,0.01546 -1.684813,0.370968 -0.741936,0.340054 -1.066533,1.035619 v 4.899869 h -2.071238 v -8.099468 h 1.901211 v 1.731184 q 0.216398,-0.417339 0.510081,-0.741936 0.293683,-0.340054 0.633737,-0.587366 0.340054,-0.247312 0.680108,-0.370968 0.355511,-0.139113 0.680108,-0.139113 0.170027,0 0.247312,0 0.09274,0 0.170027,0.01546 z"
           style="font-weight:bold;font-family:Raleway;-inkscape-font-specification:Raleway;vector-effect:none;stop-color:#000000;stop-opacity:1"
           id="path24" /><path
           d="m 59.685296,50.088217 q -0.989248,0 -1.777555,-0.340054 -0.788307,-0.340054 -1.344759,-0.911963 -0.540995,-0.587366 -0.834678,-1.344759 -0.293683,-0.757393 -0.293683,-1.592071 0,-0.850135 0.293683,-1.607528 0.293683,-0.757393 0.834678,-1.329302 0.556452,-0.587366 1.344759,-0.92742 0.788307,-0.340054 1.777555,-0.340054 0.989248,0 1.762098,0.340054 0.788307,0.340054 1.329302,0.92742 0.556452,0.571909 0.850135,1.329302 0.293683,0.757393 0.293683,1.607528 0,0.834678 -0.293683,1.592071 -0.293683,0.757393 -0.834678,1.344759 -0.540995,0.571909 -1.329302,0.911963 -0.788307,0.340054 -1.777555,0.340054 z M 57.567687,45.89937 q 0,0.540995 0.15457,0.989248 0.170027,0.432796 0.448253,0.757393 0.293683,0.324597 0.680108,0.510081 0.386425,0.170027 0.834678,0.170027 0.448253,0 0.834678,-0.170027 0.386425,-0.185484 0.664651,-0.510081 0.293683,-0.324597 0.448253,-0.77285 0.170027,-0.448253 0.170027,-0.989248 0,-0.525538 -0.170027,-0.973791 -0.15457,-0.448253 -0.448253,-0.77285 -0.278226,-0.324597 -0.664651,-0.494624 -0.386425,-0.185484 -0.834678,-0.185484 -0.448253,0 -0.834678,0.185484 -0.386425,0.185484 -0.680108,0.510081 -0.278226,0.324597 -0.448253,0.77285 -0.15457,0.448253 -0.15457,0.973791 z"
           style="font-weight:bold;font-family:Raleway;-inkscape-font-specification:Raleway;vector-effect:none;stop-color:#000000;stop-opacity:1"
           id="path25" /><path
           d="m 68.665796,50.088217 q -0.834678,0 -1.5457,-0.324597 -0.711022,-0.324597 -1.221103,-0.896506 -0.510081,-0.571909 -0.803764,-1.329302 -0.278226,-0.77285 -0.278226,-1.653899 0,-0.881049 0.262769,-1.638442 0.278226,-0.757393 0.757393,-1.329302 0.479167,-0.571909 1.143818,-0.896506 0.664651,-0.324597 1.452958,-0.324597 0.896506,0 1.607528,0.432796 0.726479,0.432796 1.128361,1.128361 v -4.606186 h 2.071237 v 8.903232 q 0,0.324597 0.108199,0.46371 0.108199,0.139113 0.370968,0.15457 v 1.762098 q -0.540995,0.108199 -0.881049,0.108199 -0.556451,0 -0.911962,-0.278226 -0.355511,-0.278226 -0.401882,-0.726479 L 71.47897,48.52706 q -0.448253,0.77285 -1.221103,1.174732 -0.757393,0.386425 -1.592071,0.386425 z m 0.540995,-1.762098 q 0.293683,0 0.602823,-0.09274 0.30914,-0.108199 0.571909,-0.293683 0.262769,-0.185484 0.46371,-0.432796 0.216398,-0.247312 0.324597,-0.540995 V 45.03378 q -0.123656,-0.340054 -0.355511,-0.61828 -0.216398,-0.293683 -0.510081,-0.494624 -0.278226,-0.216398 -0.602823,-0.340054 -0.30914,-0.123656 -0.61828,-0.123656 -0.46371,0 -0.865592,0.200941 -0.386425,0.200941 -0.664651,0.556452 -0.278226,0.340054 -0.432796,0.788307 -0.15457,0.448253 -0.15457,0.92742 0,0.510081 0.170027,0.942877 0.170027,0.432796 0.46371,0.757393 0.293683,0.324597 0.695565,0.510081 0.417339,0.185484 0.911963,0.185484 z"
           style="font-weight:bold;font-family:Raleway;-inkscape-font-specification:Raleway;vector-effect:none;stop-color:#000000;stop-opacity:1"
           id="path26" /><path
           d="m 79.021966,50.088217 q -0.989248,0 -1.777555,-0.340054 -0.788307,-0.340054 -1.344759,-0.911963 -0.540995,-0.587366 -0.834678,-1.344759 -0.293683,-0.757393 -0.293683,-1.592071 0,-0.850135 0.293683,-1.607528 0.293683,-0.757393 0.834678,-1.329302 0.556452,-0.587366 1.344759,-0.92742 0.788307,-0.340054 1.777555,-0.340054 0.989248,0 1.762098,0.340054 0.788307,0.340054 1.329302,0.92742 0.556452,0.571909 0.850135,1.329302 0.293683,0.757393 0.293683,1.607528 0,0.834678 -0.293683,1.592071 -0.293683,0.757393 -0.834678,1.344759 -0.540995,0.571909 -1.329302,0.911963 -0.788307,0.340054 -1.777555,0.340054 z M 76.904357,45.89937 q 0,0.540995 0.15457,0.989248 0.170027,0.432796 0.448253,0.757393 0.293683,0.324597 0.680108,0.510081 0.386425,0.170027 0.834678,0.170027 0.448253,0 0.834678,-0.170027 0.386425,-0.185484 0.664651,-0.510081 0.293683,-0.324597 0.448253,-0.77285 0.170027,-0.448253 0.170027,-0.989248 0,-0.525538 -0.170027,-0.973791 -0.15457,-0.448253 -0.448253,-0.77285 -0.278226,-0.324597 -0.664651,-0.494624 -0.386425,-0.185484 -0.834678,-0.185484 -0.448253,0 -0.834678,0.185484 -0.386425,0.185484 -0.680108,0.510081 -0.278226,0.324597 -0.448253,0.77285 -0.15457,0.448253 -0.15457,0.973791 z"
           style="font-weight:bold;font-family:Raleway;-inkscape-font-specification:Raleway;vector-effect:none;stop-color:#000000;stop-opacity:1"
           id="path27" /><path
           d="m 86.193997,38.650037 1.313844,0.973791 1.313845,-0.973791 1.066533,0.494624 -1.638442,1.561157 h -1.499329 l -1.638441,-1.561157 z m 1.514785,11.43818 q -1.020162,0 -1.993952,-0.324597 -0.973791,-0.324597 -1.669356,-0.92742 l 0.77285,-1.298388 q 0.741936,0.525538 1.437501,0.803764 0.711021,0.262769 1.406586,0.262769 0.61828,0 0.973791,-0.231855 0.355511,-0.231855 0.355511,-0.664651 0,-0.432796 -0.417339,-0.633737 -0.417339,-0.200941 -1.360216,-0.46371 Q 86.425852,46.393994 85.8694,46.193053 85.312948,45.992112 84.972894,45.7448 84.63284,45.482031 84.47827,45.157434 84.3237,44.81738 84.3237,44.35367 q 0,-0.61828 0.231855,-1.112904 0.247312,-0.494624 0.680108,-0.834678 0.432796,-0.355511 1.004705,-0.540995 0.587365,-0.185484 1.267473,-0.185484 0.911963,0 1.70027,0.262769 0.803764,0.262769 1.468415,0.850135 l -0.834678,1.252017 q -0.61828,-0.46371 -1.205646,-0.680108 -0.571909,-0.216398 -1.143818,-0.216398 -0.525538,0 -0.881049,0.216398 -0.35551,0.216398 -0.35551,0.695565 0,0.216398 0.07729,0.355511 0.09274,0.139113 0.278225,0.247312 0.185484,0.108199 0.479167,0.216398 0.30914,0.09274 0.757393,0.200941 0.834678,0.216398 1.422044,0.432796 0.602823,0.216398 0.973791,0.494624 0.386425,0.278226 0.556452,0.649194 0.185484,0.355511 0.185484,0.865592 0,1.190189 -0.881049,1.885754 -0.881049,0.680108 -2.395835,0.680108 z"
           style="font-weight:bold;font-family:Raleway;-inkscape-font-specification:Raleway;vector-effect:none;stop-color:#000000;stop-opacity:1"
           id="path28" /><path
           d="m 92.314968,38.650037 h 2.071238 v 8.686834 q 0,0.448253 0.216398,0.695565 0.216398,0.247312 0.61828,0.247312 0.185484,0 0.401882,-0.06183 0.231855,-0.06183 0.432796,-0.15457 l 0.278226,1.576614 q -0.417339,0.200941 -0.973791,0.30914 -0.556452,0.108199 -1.004705,0.108199 -0.973791,0 -1.514786,-0.510081 -0.525538,-0.525538 -0.525538,-1.483872 z"
           style="font-weight:bold;font-family:Raleway;-inkscape-font-specification:Raleway;vector-effect:none;stop-color:#000000;stop-opacity:1"
           id="path29" /><path
           d="m 97.230282,49.933647 v -8.099468 h 2.071238 v 8.099468 z m 0,-9.227829 v -2.055781 h 2.071238 v 2.055781 z"
           style="font-weight:bold;font-family:Raleway;-inkscape-font-specification:Raleway;vector-effect:none;stop-color:#000000;stop-opacity:1"
           id="path30" /><path
           d="m 101.57368,45.806628 v -6.95565 h 2.07124 v 6.95565 z m 0,4.127019 V 47.59964 h 2.07124 v 2.334007 z"
           style="font-weight:bold;font-family:Raleway;-inkscape-font-specification:Raleway;vector-effect:none;stop-color:#000000;stop-opacity:1"
           id="path31" /></g><g
         aria-label="Nastavimo nekaj zadev …"
         id="text115541-71"
         style="font-size:5.02259px;line-height:1.25;font-family:'Roboto Condensed';-inkscape-font-specification:'Roboto Condensed, ';vector-effect:none;stop-color:#000000;stop-opacity:1"><path
           d="m 35.311726,59.504494 v 2.285278 h -0.693118 v -3.566039 h 0.537418 l 1.858358,2.340527 v -2.335504 h 0.693117 v 3.561016 h -0.56253 z"
           style="font-weight:bold;font-family:Raleway;-inkscape-font-specification:Raleway;vector-effect:none;stop-color:#000000;stop-opacity:1"
           id="path1" /><path
           d="m 39.078656,61.839998 q -0.190858,0 -0.356604,-0.06027 -0.165745,-0.06529 -0.286288,-0.175791 -0.120542,-0.115519 -0.190858,-0.266197 -0.06529,-0.150678 -0.06529,-0.331491 0,-0.185836 0.08036,-0.341536 0.08538,-0.160723 0.231039,-0.27122 0.150678,-0.110497 0.356604,-0.170768 0.205926,-0.06529 0.452033,-0.06529 0.175791,0 0.341536,0.03014 0.170768,0.03014 0.301355,0.08538 v -0.150678 q 0,-0.261175 -0.150677,-0.401807 -0.145655,-0.140633 -0.436966,-0.140633 -0.210948,0 -0.411852,0.07534 -0.200904,0.07534 -0.411852,0.220994 l -0.205927,-0.42692 q 0.507282,-0.336514 1.094925,-0.336514 0.567553,0 0.878953,0.281266 0.316424,0.276242 0.316424,0.803614 v 0.818682 q 0,0.105475 0.03516,0.150678 0.04018,0.0452 0.125564,0.05023 v 0.572575 q -0.170768,0.03516 -0.296332,0.03516 -0.190859,0 -0.296333,-0.08538 -0.100452,-0.08538 -0.125565,-0.226016 l -0.01507,-0.145656 q -0.17579,0.23104 -0.42692,0.351582 -0.251129,0.120542 -0.537417,0.120542 z m 0.190858,-0.492214 q 0.170768,0 0.321446,-0.06027 0.1557,-0.06027 0.241085,-0.160723 0.110496,-0.08538 0.110496,-0.190858 v -0.301356 q -0.120542,-0.0452 -0.261174,-0.07032 -0.140633,-0.03014 -0.27122,-0.03014 -0.261175,0 -0.42692,0.120543 -0.165746,0.115519 -0.165746,0.296332 0,0.170769 0.130588,0.286288 0.130587,0.110497 0.321445,0.110497 z"
           style="font-weight:bold;font-family:Raleway;-inkscape-font-specification:Raleway;vector-effect:none;stop-color:#000000;stop-opacity:1"
           id="path2" /><path
           d="m 42.237862,61.839998 q -0.331491,0 -0.647914,-0.105474 -0.316423,-0.105475 -0.54244,-0.301356 l 0.25113,-0.421897 q 0.241084,0.170768 0.467101,0.261174 0.231039,0.08538 0.457055,0.08538 0.200904,0 0.316424,-0.07534 0.115519,-0.07534 0.115519,-0.215971 0,-0.140632 -0.13561,-0.205926 -0.13561,-0.06529 -0.441988,-0.150678 -0.256152,-0.07032 -0.436965,-0.13561 -0.180813,-0.06529 -0.29131,-0.145655 -0.110497,-0.08538 -0.160723,-0.190858 -0.05023,-0.110497 -0.05023,-0.261175 0,-0.200904 0.07534,-0.361627 0.08036,-0.160722 0.220994,-0.271219 0.140632,-0.11552 0.326468,-0.175791 0.190858,-0.06027 0.411852,-0.06027 0.296333,0 0.552485,0.08538 0.261175,0.08538 0.477146,0.276242 l -0.271219,0.40683 q -0.200904,-0.150678 -0.391762,-0.220994 -0.185836,-0.07032 -0.371672,-0.07032 -0.170768,0 -0.286288,0.07032 -0.115519,0.07032 -0.115519,0.226017 0,0.07032 0.02511,0.115519 0.03014,0.0452 0.09041,0.08036 0.06027,0.03516 0.1557,0.07032 0.100452,0.03014 0.246107,0.06529 0.27122,0.07032 0.462079,0.140632 0.195881,0.07032 0.316423,0.160723 0.125565,0.09041 0.180813,0.210949 0.06027,0.115519 0.06027,0.281265 0,0.386739 -0.286287,0.612756 -0.286288,0.220994 -0.778502,0.220994 z"
           style="font-weight:bold;font-family:Raleway;-inkscape-font-specification:Raleway;vector-effect:none;stop-color:#000000;stop-opacity:1"
           id="path3" /><path
           d="m 45.316708,61.654162 q -0.13561,0.06027 -0.331491,0.120542 -0.195881,0.06027 -0.411852,0.06027 -0.140632,0 -0.266197,-0.03516 -0.120542,-0.03516 -0.215972,-0.110497 -0.09041,-0.08036 -0.145655,-0.200903 -0.05525,-0.125565 -0.05525,-0.301356 v -1.511799 h -0.346559 v -0.517327 h 0.346559 v -0.853841 h 0.673027 v 0.853841 h 0.552485 v 0.517327 H 44.56332 v 1.285783 q 0,0.140632 0.07032,0.200903 0.07534,0.05525 0.180813,0.05525 0.105475,0 0.205927,-0.03516 0.100451,-0.03516 0.160722,-0.06027 z"
           style="font-weight:bold;font-family:Raleway;-inkscape-font-specification:Raleway;vector-effect:none;stop-color:#000000;stop-opacity:1"
           id="path4" /><path
           d="m 46.386514,61.839998 q -0.190858,0 -0.356603,-0.06027 -0.165746,-0.06529 -0.286288,-0.175791 -0.120542,-0.115519 -0.190859,-0.266197 -0.06529,-0.150678 -0.06529,-0.331491 0,-0.185836 0.08036,-0.341536 0.08538,-0.160723 0.231039,-0.27122 0.150678,-0.110497 0.356604,-0.170768 0.205926,-0.06529 0.452033,-0.06529 0.175791,0 0.341537,0.03014 0.170768,0.03014 0.301355,0.08538 v -0.150678 q 0,-0.261175 -0.150678,-0.401807 -0.145655,-0.140633 -0.436965,-0.140633 -0.210949,0 -0.411852,0.07534 -0.200904,0.07534 -0.411853,0.220994 l -0.205926,-0.42692 q 0.507282,-0.336514 1.094925,-0.336514 0.567552,0 0.878953,0.281266 0.316423,0.276242 0.316423,0.803614 v 0.818682 q 0,0.105475 0.03516,0.150678 0.04018,0.0452 0.125565,0.05023 v 0.572575 q -0.170768,0.03516 -0.296333,0.03516 -0.190858,0 -0.296333,-0.08538 -0.100452,-0.08538 -0.125564,-0.226016 l -0.01507,-0.145656 q -0.175791,0.23104 -0.42692,0.351582 -0.25113,0.120542 -0.537418,0.120542 z m 0.190859,-0.492214 q 0.170768,0 0.321446,-0.06027 0.1557,-0.06027 0.241084,-0.160723 0.110497,-0.08538 0.110497,-0.190858 v -0.301356 q -0.120542,-0.0452 -0.261175,-0.07032 -0.140632,-0.03014 -0.27122,-0.03014 -0.261174,0 -0.42692,0.120543 -0.165745,0.115519 -0.165745,0.296332 0,0.170769 0.130587,0.286288 0.130587,0.110497 0.321446,0.110497 z"
           style="font-weight:bold;font-family:Raleway;-inkscape-font-specification:Raleway;vector-effect:none;stop-color:#000000;stop-opacity:1"
           id="path5" /><path
           d="m 49.189108,61.789772 -0.96936,-2.631837 h 0.693117 l 0.668005,2.084375 0.673027,-2.084375 h 0.632846 l -0.96936,2.631837 z"
           style="font-weight:bold;font-family:Raleway;-inkscape-font-specification:Raleway;vector-effect:none;stop-color:#000000;stop-opacity:1"
           id="path6" /><path
           d="m 51.238324,61.789772 v -2.631837 h 0.673027 v 2.631837 z m 0,-2.998486 v -0.668005 h 0.673027 v 0.668005 z"
           style="font-weight:bold;font-family:Raleway;-inkscape-font-specification:Raleway;vector-effect:none;stop-color:#000000;stop-opacity:1"
           id="path7" /><path
           d="m 56.607468,61.789772 h -0.673027 v -1.476641 q 0,-0.316424 -0.110497,-0.462079 -0.105474,-0.145655 -0.296333,-0.145655 -0.200903,0 -0.376694,0.1557 -0.175791,0.150678 -0.251129,0.396785 v 1.53189 H 54.22676 v -1.476641 q 0,-0.316424 -0.110497,-0.462079 -0.105474,-0.145655 -0.296332,-0.145655 -0.195881,0 -0.376695,0.150678 -0.17579,0.150678 -0.251129,0.396784 v 1.536913 H 52.51908 v -2.631837 h 0.607733 v 0.487191 q 0.145655,-0.256152 0.396785,-0.391762 0.256152,-0.140633 0.58262,-0.140633 0.331491,0 0.512304,0.160723 0.180814,0.160723 0.23104,0.396785 0.160723,-0.27122 0.406829,-0.411852 0.246107,-0.145656 0.562531,-0.145656 0.241084,0 0.396784,0.09041 0.1557,0.09041 0.241084,0.236062 0.08539,0.145655 0.11552,0.331491 0.03516,0.185836 0.03516,0.376694 z"
           style="font-weight:bold;font-family:Raleway;-inkscape-font-specification:Raleway;vector-effect:none;stop-color:#000000;stop-opacity:1"
           id="path8" /><path
           d="m 58.410578,61.839998 q -0.321446,0 -0.577598,-0.110497 -0.256152,-0.110497 -0.436965,-0.296333 -0.175791,-0.190858 -0.27122,-0.436965 -0.09543,-0.246107 -0.09543,-0.517327 0,-0.276242 0.09543,-0.522349 0.09543,-0.246107 0.27122,-0.431943 0.180813,-0.190859 0.436965,-0.301356 0.256152,-0.110497 0.577598,-0.110497 0.321445,0 0.572575,0.110497 0.256152,0.110497 0.431943,0.301356 0.180813,0.185836 0.276242,0.431943 0.09543,0.246107 0.09543,0.522349 0,0.27122 -0.09543,0.517327 -0.09543,0.246107 -0.27122,0.436965 -0.17579,0.185836 -0.431942,0.296333 -0.256153,0.110497 -0.577598,0.110497 z m -0.688095,-1.361122 q 0,0.175791 0.05023,0.321446 0.05525,0.140632 0.145655,0.246107 0.09543,0.105474 0.220994,0.165745 0.125565,0.05525 0.27122,0.05525 0.145655,0 0.27122,-0.05525 0.125564,-0.06027 0.215971,-0.165745 0.09543,-0.105475 0.145655,-0.25113 0.05525,-0.145655 0.05525,-0.321446 0,-0.170768 -0.05525,-0.316423 -0.05023,-0.145655 -0.145655,-0.251129 -0.09041,-0.105475 -0.215971,-0.160723 -0.125565,-0.06027 -0.27122,-0.06027 -0.145655,0 -0.27122,0.06027 -0.125565,0.06027 -0.220994,0.165745 -0.09041,0.105475 -0.145655,0.25113 -0.05023,0.145655 -0.05023,0.316423 z"
           style="font-weight:bold;font-family:Raleway;-inkscape-font-specification:Raleway;vector-effect:none;stop-color:#000000;stop-opacity:1"
           id="path9" /><path
           d="m 63.890216,61.789772 h -0.673027 v -1.476641 q 0,-0.316424 -0.110497,-0.462079 -0.110497,-0.145655 -0.306378,-0.145655 -0.100452,0 -0.205926,0.04018 -0.105475,0.04018 -0.200904,0.115519 -0.09041,0.07032 -0.165745,0.170768 -0.07534,0.100452 -0.110497,0.220994 v 1.536913 h -0.673028 v -2.631837 h 0.607734 v 0.487191 q 0.145655,-0.251129 0.421897,-0.391762 0.276243,-0.140633 0.622802,-0.140633 0.246107,0 0.401807,0.09041 0.1557,0.09041 0.241084,0.236062 0.08538,0.145655 0.11552,0.331491 0.03516,0.185836 0.03516,0.376694 z"
           style="font-weight:bold;font-family:Raleway;-inkscape-font-specification:Raleway;vector-effect:none;stop-color:#000000;stop-opacity:1"
           id="path10" /><path
           d="m 65.69834,61.839998 q -0.316423,0 -0.572575,-0.105474 -0.256152,-0.110497 -0.436966,-0.296333 -0.180813,-0.185836 -0.281265,-0.431943 -0.09543,-0.246107 -0.09543,-0.517327 0,-0.281265 0.09543,-0.527372 0.09543,-0.251129 0.276243,-0.436965 0.180813,-0.190859 0.436965,-0.301356 0.261175,-0.110497 0.582621,-0.110497 0.321445,0 0.572575,0.110497 0.256152,0.110497 0.431943,0.296333 0.180813,0.185836 0.271219,0.431943 0.09543,0.246107 0.09543,0.512304 0,0.06529 -0.005,0.125565 0,0.06027 -0.01005,0.100452 h -2.034149 q 0.01507,0.1557 0.07534,0.276242 0.06027,0.120542 0.1557,0.205926 0.09543,0.08538 0.215971,0.130588 0.120543,0.0452 0.25113,0.0452 0.200904,0 0.376694,-0.09543 0.180813,-0.100452 0.246107,-0.261175 l 0.577598,0.160723 q -0.145655,0.301355 -0.467101,0.497237 -0.316423,0.190858 -0.758411,0.190858 z m 0.683072,-1.587139 q -0.02511,-0.296332 -0.220994,-0.472123 -0.190858,-0.180813 -0.467101,-0.180813 -0.13561,0 -0.256152,0.05023 -0.115519,0.0452 -0.205926,0.130587 -0.09041,0.08538 -0.150678,0.205926 -0.05525,0.120542 -0.06529,0.266197 z"
           style="font-weight:bold;font-family:Raleway;-inkscape-font-specification:Raleway;vector-effect:none;stop-color:#000000;stop-opacity:1"
           id="path11" /><path
           d="m 69.284466,61.789772 -0.763434,-1.140128 -0.361627,0.356604 v 0.783524 h -0.673027 v -3.666491 h 0.673027 v 2.225008 l 1.054744,-1.185332 h 0.718231 l -0.979405,1.115015 1.049721,1.5118 z"
           style="font-weight:bold;font-family:Raleway;-inkscape-font-specification:Raleway;vector-effect:none;stop-color:#000000;stop-opacity:1"
           id="path12" /><path
           d="m 70.972038,61.839998 q -0.190858,0 -0.356604,-0.06027 -0.165745,-0.06529 -0.286287,-0.175791 -0.120543,-0.115519 -0.190859,-0.266197 -0.06529,-0.150678 -0.06529,-0.331491 0,-0.185836 0.08036,-0.341536 0.08538,-0.160723 0.231039,-0.27122 0.150678,-0.110497 0.356604,-0.170768 0.205926,-0.06529 0.452033,-0.06529 0.175791,0 0.341536,0.03014 0.170768,0.03014 0.301356,0.08538 v -0.150678 q 0,-0.261175 -0.150678,-0.401807 -0.145655,-0.140633 -0.436965,-0.140633 -0.210949,0 -0.411853,0.07534 -0.200903,0.07534 -0.411852,0.220994 l -0.205926,-0.42692 q 0.507281,-0.336514 1.094924,-0.336514 0.567553,0 0.878953,0.281266 0.316424,0.276242 0.316424,0.803614 v 0.818682 q 0,0.105475 0.03516,0.150678 0.04018,0.0452 0.125565,0.05023 v 0.572575 q -0.170769,0.03516 -0.296333,0.03516 -0.190859,0 -0.296333,-0.08538 -0.100452,-0.08538 -0.125565,-0.226016 l -0.01507,-0.145656 q -0.17579,0.23104 -0.42692,0.351582 -0.251129,0.120542 -0.537417,0.120542 z m 0.190858,-0.492214 q 0.170769,0 0.321446,-0.06027 0.155701,-0.06027 0.241085,-0.160723 0.110497,-0.08538 0.110497,-0.190858 v -0.301356 q -0.120543,-0.0452 -0.261175,-0.07032 -0.140633,-0.03014 -0.27122,-0.03014 -0.261175,0 -0.42692,0.120543 -0.165746,0.115519 -0.165746,0.296332 0,0.170769 0.130588,0.286288 0.130587,0.110497 0.321445,0.110497 z"
           style="font-weight:bold;font-family:Raleway;-inkscape-font-specification:Raleway;vector-effect:none;stop-color:#000000;stop-opacity:1"
           id="path13" /><path
           d="m 72.920801,62.7742 q -0.190858,0 -0.361626,-0.06027 -0.170768,-0.05525 -0.306378,-0.175791 l 0.29131,-0.457056 q 0.05525,0.05525 0.13561,0.08036 0.08036,0.03013 0.160723,0.03013 0.130587,0 0.226016,-0.09543 0.09543,-0.09041 0.09543,-0.236062 v -2.702153 h 0.673027 v 2.651927 q 0,0.210949 -0.07032,0.38674 -0.07032,0.180813 -0.195882,0.306378 -0.120542,0.130587 -0.29131,0.200903 -0.165745,0.07032 -0.356604,0.07032 z m 0.241085,-3.982914 v -0.668005 h 0.673027 v 0.668005 z"
           style="font-weight:bold;font-family:Raleway;-inkscape-font-specification:Raleway;vector-effect:none;stop-color:#000000;stop-opacity:1"
           id="path14" /><path
           d="m 75.477298,61.37792 1.466596,-1.747862 h -1.406325 v -0.472123 h 2.11451 v 0.411852 l -1.456551,1.747862 h 1.481664 v 0.472123 h -2.199894 z"
           style="font-weight:bold;font-family:Raleway;-inkscape-font-specification:Raleway;vector-effect:none;stop-color:#000000;stop-opacity:1"
           id="path15" /><path
           d="m 78.847446,61.839998 q -0.190858,0 -0.356604,-0.06027 -0.165745,-0.06529 -0.286287,-0.175791 -0.120542,-0.115519 -0.190859,-0.266197 -0.06529,-0.150678 -0.06529,-0.331491 0,-0.185836 0.08036,-0.341536 0.08538,-0.160723 0.231039,-0.27122 0.150678,-0.110497 0.356604,-0.170768 0.205926,-0.06529 0.452033,-0.06529 0.175791,0 0.341536,0.03014 0.170768,0.03014 0.301356,0.08538 v -0.150678 q 0,-0.261175 -0.150678,-0.401807 -0.145655,-0.140633 -0.436965,-0.140633 -0.210949,0 -0.411853,0.07534 -0.200903,0.07534 -0.411852,0.220994 l -0.205926,-0.42692 q 0.507281,-0.336514 1.094924,-0.336514 0.567553,0 0.878954,0.281266 0.316423,0.276242 0.316423,0.803614 v 0.818682 q 0,0.105475 0.03516,0.150678 0.04018,0.0452 0.125565,0.05023 v 0.572575 q -0.170768,0.03516 -0.296333,0.03516 -0.190859,0 -0.296333,-0.08538 -0.100452,-0.08538 -0.125565,-0.226016 l -0.01507,-0.145656 q -0.175791,0.23104 -0.426921,0.351582 -0.251129,0.120542 -0.537417,0.120542 z m 0.190859,-0.492214 q 0.170768,0 0.321445,-0.06027 0.155701,-0.06027 0.241085,-0.160723 0.110497,-0.08538 0.110497,-0.190858 v -0.301356 q -0.120542,-0.0452 -0.261175,-0.07032 -0.140632,-0.03014 -0.27122,-0.03014 -0.261175,0 -0.42692,0.120543 -0.165745,0.115519 -0.165745,0.296332 0,0.170769 0.130587,0.286288 0.130587,0.110497 0.321446,0.110497 z"
           style="font-weight:bold;font-family:Raleway;-inkscape-font-specification:Raleway;vector-effect:none;stop-color:#000000;stop-opacity:1"
           id="path16" /><path
           d="m 82.102079,61.839998 q -0.27122,0 -0.502259,-0.105474 -0.231039,-0.105475 -0.396784,-0.291311 -0.165746,-0.185836 -0.261175,-0.431942 -0.09041,-0.25113 -0.09041,-0.537418 0,-0.286287 0.08538,-0.532394 0.09041,-0.246107 0.246107,-0.431943 0.1557,-0.185836 0.371672,-0.29131 0.215971,-0.105475 0.472123,-0.105475 0.291311,0 0.52235,0.140633 0.236061,0.140633 0.366649,0.366649 v -1.496732 h 0.673027 v 2.893012 q 0,0.105475 0.03516,0.150678 0.03516,0.0452 0.120542,0.05023 v 0.572575 q -0.175791,0.03516 -0.286287,0.03516 -0.180814,0 -0.296333,-0.09041 -0.11552,-0.09041 -0.130588,-0.236062 l -0.01507,-0.165746 q -0.145656,0.25113 -0.396785,0.381717 Q 82.373291,61.84 82.102071,61.84 Z m 0.175791,-0.572575 q 0.09543,0 0.195881,-0.03014 0.100452,-0.03516 0.185836,-0.09543 0.08538,-0.06027 0.150677,-0.140633 0.07032,-0.08036 0.105475,-0.17579 v -0.627824 q -0.04018,-0.110497 -0.11552,-0.200904 -0.07032,-0.09543 -0.165745,-0.160723 -0.09041,-0.07032 -0.195881,-0.110497 -0.100452,-0.04018 -0.200904,-0.04018 -0.150678,0 -0.281265,0.06529 -0.125565,0.06529 -0.215971,0.180814 -0.09041,0.110497 -0.140633,0.256152 -0.05023,0.145655 -0.05023,0.301355 0,0.165746 0.05525,0.306378 0.05525,0.140633 0.150677,0.246107 0.09543,0.105474 0.226017,0.165746 0.13561,0.06027 0.296333,0.06027 z"
           style="font-weight:bold;font-family:Raleway;-inkscape-font-specification:Raleway;vector-effect:none;stop-color:#000000;stop-opacity:1"
           id="path17" /><path
           d="m 85.472229,61.839998 q -0.316423,0 -0.572575,-0.105474 -0.256152,-0.110497 -0.436965,-0.296333 -0.180813,-0.185836 -0.281265,-0.431943 -0.09543,-0.246107 -0.09543,-0.517327 0,-0.281265 0.09543,-0.527372 0.09543,-0.251129 0.276242,-0.436965 0.180814,-0.190859 0.436966,-0.301356 0.261174,-0.110497 0.58262,-0.110497 0.321446,0 0.572575,0.110497 0.256152,0.110497 0.431943,0.296333 0.180813,0.185836 0.27122,0.431943 0.09543,0.246107 0.09543,0.512304 0,0.06529 -0.005,0.125565 0,0.06027 -0.01005,0.100452 h -2.034149 q 0.01507,0.1557 0.07534,0.276242 0.06027,0.120542 0.155701,0.205926 0.09543,0.08538 0.215971,0.130588 0.120542,0.0452 0.251129,0.0452 0.200904,0 0.376695,-0.09543 0.180813,-0.100452 0.246107,-0.261175 l 0.577597,0.160723 q -0.145655,0.301355 -0.4671,0.497237 -0.316424,0.190858 -0.758412,0.190858 z m 0.683073,-1.587139 q -0.02511,-0.296332 -0.220994,-0.472123 -0.190859,-0.180813 -0.467101,-0.180813 -0.13561,0 -0.256152,0.05023 -0.11552,0.0452 -0.205926,0.130587 -0.09041,0.08538 -0.150678,0.205926 -0.05525,0.120542 -0.06529,0.266197 z"
           style="font-weight:bold;font-family:Raleway;-inkscape-font-specification:Raleway;vector-effect:none;stop-color:#000000;stop-opacity:1"
           id="path18" /><path
           d="m 87.898127,61.789772 -0.96936,-2.631837 h 0.693118 l 0.668004,2.084375 0.673027,-2.084375 h 0.632847 l -0.96936,2.631837 z"
           style="font-weight:bold;font-family:Raleway;-inkscape-font-specification:Raleway;vector-effect:none;stop-color:#000000;stop-opacity:1"
           id="path19" /><path
           d="m 91.002084,61.789772 v -0.723253 h 0.552485 v 0.723253 z m 0.944247,0 v -0.723253 h 0.552485 v 0.723253 z m 0.944247,0 v -0.723253 h 0.552485 v 0.723253 z"
           style="font-weight:bold;font-family:Raleway;-inkscape-font-specification:Raleway;vector-effect:none;stop-color:#000000;stop-opacity:1"
           id="path20" /></g></g></g></svg>
