<?xml version="1.0" encoding="UTF-8" standalone="no"?>
<svg
   width="700.00018"
   height="220"
   viewBox="0 0 185.20838 58.208335"
   version="1.1"
   id="svg243962"
   xml:space="preserve"
   sodipodi:docname="it.svg"
   inkscape:version="1.3-dev (77c38b38a8, 2022-05-06, custom)"
   xmlns:inkscape="http://www.inkscape.org/namespaces/inkscape"
   xmlns:sodipodi="http://sodipodi.sourceforge.net/DTD/sodipodi-0.dtd"
   xmlns="http://www.w3.org/2000/svg"
   xmlns:svg="http://www.w3.org/2000/svg"><sodipodi:namedview
     id="namedview1"
     pagecolor="#ffffff"
     bordercolor="#000000"
     borderopacity="0.25"
     inkscape:showpageshadow="2"
     inkscape:pageopacity="0.0"
     inkscape:pagecheckerboard="0"
     inkscape:deskcolor="#d1d1d1"
     showgrid="false"
     inkscape:zoom="1.0727273"
     inkscape:cx="316.94915"
     inkscape:cy="110.4661"
     inkscape:current-layer="svg243962" /><defs
     id="defs243959" /><path
     id="path22"
     style="font-weight:bold;font-size:13.9208px;line-height:1.25;font-family:Raleway;-inkscape-font-specification:Raleway;vector-effect:none;fill:#cbe1fb;stroke-width:0.125564;stop-color:#000000"
     d="M 80.589397 8.7369345 L 80.589397 15.001668 L 82.454916 15.001668 L 82.454916 8.7369345 L 80.589397 8.7369345 z M 8.0206991 8.8346029 L 8.0206991 18.718237 L 12.795085 18.718237 C 13.231269 18.718237 13.639831 18.662688 14.020333 18.551323 C 14.410115 18.439956 14.749113 18.277466 15.036808 18.064014 C 15.333785 17.850561 15.565324 17.586318 15.732373 17.270781 C 15.899423 16.955243 15.983004 16.58873 15.983004 16.171106 C 15.983004 15.521469 15.816358 14.983122 15.482259 14.556218 C 15.157441 14.120033 14.711502 13.818412 14.14539 13.651363 C 14.609416 13.447191 14.96243 13.136227 15.203723 12.718604 C 15.445017 12.2917 15.565458 11.836933 15.565458 11.354346 C 15.565458 11.048089 15.50991 10.746469 15.398543 10.449491 C 15.296458 10.143234 15.147983 9.8738019 14.953093 9.6417888 C 14.758201 9.4004952 14.521474 9.2058168 14.243058 9.0573284 C 13.964643 8.90884 13.653678 8.8346029 13.310299 8.8346029 L 8.0206991 8.8346029 z M 67.044487 9.0573284 L 67.044487 11.424109 L 66.083822 11.424109 L 66.083822 12.857613 L 67.044487 12.857613 L 67.044487 17.048055 C 67.044487 17.372874 67.095363 17.651133 67.197449 17.883146 C 67.299535 18.105879 67.43451 18.29173 67.601559 18.440218 C 67.77789 18.579423 67.97724 18.681176 68.199972 18.746143 C 68.431985 18.811109 68.678057 18.843811 68.937912 18.843811 C 69.336975 18.843811 69.717504 18.787745 70.079444 18.67638 C 70.441384 18.565013 70.747677 18.453916 70.998251 18.34255 L 70.622047 16.866671 C 70.51068 16.91307 70.362206 16.969136 70.176596 17.034103 C 69.990985 17.099069 69.800978 17.131254 69.606088 17.131254 C 69.411197 17.131254 69.244034 17.080378 69.104827 16.978292 C 68.974899 16.866926 68.910006 16.681075 68.910006 16.42122 L 68.910006 12.857613 L 70.441179 12.857613 L 70.441179 11.424109 L 68.910006 11.424109 L 68.910006 9.0573284 L 67.044487 9.0573284 z M 9.9415121 10.477397 L 12.586312 10.477397 C 12.892569 10.477397 13.147985 10.588494 13.352157 10.811227 C 13.565608 11.033959 13.672551 11.335579 13.672551 11.716081 C 13.672551 12.105862 13.556265 12.412155 13.324251 12.634888 C 13.101519 12.85762 12.827931 12.969234 12.503113 12.969234 L 9.9415121 12.969234 L 9.9415121 10.477397 z M 20.702096 11.298535 C 20.108142 11.298535 19.570311 11.400805 19.087724 11.604977 C 18.614417 11.809148 18.210527 12.087408 17.876428 12.440068 C 17.542329 12.783447 17.286913 13.187337 17.110584 13.651363 C 16.934254 14.106109 16.846 14.593063 16.846 15.112773 C 16.846 15.613921 16.934254 16.092048 17.110584 16.546794 C 17.296194 17.00154 17.556282 17.400758 17.890381 17.744137 C 18.22448 18.087516 18.62837 18.361104 19.101677 18.565275 C 19.574983 18.760166 20.10347 18.857764 20.688143 18.857764 C 21.504829 18.857764 22.205667 18.681257 22.79034 18.328597 C 23.384294 17.966657 23.8157 17.507218 24.084835 16.950387 L 22.484416 16.504936 C 22.363769 16.801913 22.136386 17.043312 21.802287 17.228923 C 21.477469 17.405253 21.129127 17.493506 20.757906 17.493506 C 20.516613 17.493506 20.284557 17.451457 20.061825 17.367932 C 19.839092 17.284407 19.639742 17.163966 19.463412 17.006197 C 19.287082 16.848428 19.143279 16.657905 19.031913 16.435173 C 18.920546 16.21244 18.850981 15.957541 18.823141 15.669845 L 24.461039 15.669845 C 24.479599 15.595601 24.488945 15.502675 24.488945 15.391309 C 24.498225 15.279942 24.502897 15.164173 24.502897 15.043526 C 24.502897 14.551659 24.414644 14.078204 24.238314 13.623458 C 24.071264 13.168712 23.82052 12.769494 23.486422 12.426115 C 23.161604 12.082735 22.762386 11.809148 22.289079 11.604977 C 21.825053 11.400805 21.296049 11.298535 20.702096 11.298535 z M 30.223995 11.298535 C 29.583639 11.298535 29.008431 11.428321 28.498002 11.688176 C 27.987574 11.948031 27.5977 12.310388 27.328565 12.774414 L 27.328565 11.424109 L 25.64443 11.424109 L 25.64443 18.718237 L 27.509432 18.718237 L 27.509432 14.458549 C 27.574396 14.235817 27.676666 14.031794 27.815873 13.846183 C 27.955081 13.660573 28.108228 13.502754 28.275277 13.372827 C 28.451607 13.233619 28.636942 13.126677 28.831832 13.052433 C 29.026723 12.978189 29.217246 12.941329 29.402857 12.941329 C 29.764797 12.941329 30.047729 13.075787 30.251901 13.344922 C 30.456072 13.614058 30.558342 14.040791 30.558342 14.625464 L 30.558342 18.718237 L 32.423861 18.718237 L 32.423861 14.166061 C 32.423861 13.8134 32.391159 13.465576 32.326193 13.122197 C 32.270509 12.778817 32.163567 12.472525 32.005799 12.20339 C 31.848029 11.934255 31.625319 11.716216 31.337622 11.549166 C 31.049927 11.382117 30.678741 11.298535 30.223995 11.298535 z M 44.673759 11.298535 C 44.079806 11.298535 43.541458 11.400805 43.058871 11.604977 C 42.585565 11.809148 42.182191 12.087408 41.848092 12.440068 C 41.513993 12.783447 41.258577 13.187337 41.082247 13.651363 C 40.905917 14.106109 40.817664 14.593063 40.817664 15.112773 C 40.817664 15.613921 40.905917 16.092048 41.082247 16.546794 C 41.267858 17.00154 41.527946 17.400758 41.862045 17.744137 C 42.196143 18.087516 42.599517 18.361104 43.072823 18.565275 C 43.54613 18.760166 44.075134 18.857764 44.659807 18.857764 C 45.476493 18.857764 46.177331 18.681257 46.762004 18.328597 C 47.355957 17.966657 47.787363 17.507218 48.056499 16.950387 L 46.455563 16.504936 C 46.334916 16.801913 46.107533 17.043312 45.773434 17.228923 C 45.448616 17.405253 45.100791 17.493506 44.72957 17.493506 C 44.488277 17.493506 44.256221 17.451457 44.033488 17.367932 C 43.810756 17.284407 43.611405 17.163966 43.435075 17.006197 C 43.258745 16.848428 43.114944 16.657905 43.003577 16.435173 C 42.892209 16.21244 42.822644 15.957541 42.794804 15.669845 L 48.432703 15.669845 C 48.451263 15.595601 48.460092 15.502675 48.460092 15.391309 C 48.469372 15.279942 48.474044 15.164173 48.474044 15.043526 C 48.474044 14.551659 48.386308 14.078204 48.209978 13.623458 C 48.042929 13.168712 47.792185 12.769494 47.458086 12.426115 C 47.133267 12.082735 46.734049 11.809148 46.260743 11.604977 C 45.796716 11.400805 45.267713 11.298535 44.673759 11.298535 z M 54.195659 11.298535 C 53.555303 11.298535 52.980095 11.428321 52.469666 11.688176 C 51.959237 11.948031 51.569363 12.310388 51.300228 12.774414 L 51.300228 11.424109 L 49.615577 11.424109 L 49.615577 18.718237 L 51.481096 18.718237 L 51.481096 14.458549 C 51.54606 14.235817 51.648329 14.031794 51.787537 13.846183 C 51.926745 13.660573 52.079891 13.502754 52.246941 13.372827 C 52.42327 13.233619 52.608605 13.126677 52.803496 13.052433 C 52.998387 12.978189 53.18891 12.941329 53.37452 12.941329 C 53.736461 12.941329 54.019392 13.075787 54.223564 13.344922 C 54.427735 13.614058 54.530005 14.040791 54.530005 14.625464 L 54.530005 18.718237 L 56.395008 18.718237 L 56.395008 14.166061 C 56.395008 13.8134 56.362823 13.465576 56.297856 13.122197 C 56.242173 12.778817 56.135231 12.472525 55.977462 12.20339 C 55.819694 11.934255 55.596982 11.716216 55.309286 11.549166 C 55.02159 11.382117 54.650404 11.298535 54.195659 11.298535 z M 75.160271 11.298535 C 74.566317 11.298535 74.032642 11.400805 73.559335 11.604977 C 73.086029 11.809148 72.682655 12.087408 72.348556 12.440068 C 72.023738 12.783447 71.772994 13.182665 71.596664 13.637411 C 71.420334 14.092156 71.332081 14.574439 71.332081 15.084867 C 71.332081 15.586016 71.420334 16.064143 71.596664 16.518889 C 71.772994 16.973634 72.023738 17.377524 72.348556 17.730184 C 72.682655 18.073564 73.086029 18.347151 73.559335 18.551323 C 74.032642 18.755494 74.566317 18.857764 75.160271 18.857764 C 75.754224 18.857764 76.2879 18.755494 76.761207 18.551323 C 77.234513 18.347151 77.633731 18.073564 77.95855 17.730184 C 78.283368 17.377524 78.533595 16.973634 78.709925 16.518889 C 78.886255 16.064143 78.974508 15.586016 78.974508 15.084867 C 78.974508 14.574439 78.886255 14.092156 78.709925 13.637411 C 78.533595 13.182665 78.278695 12.783447 77.944597 12.440068 C 77.619779 12.087408 77.220561 11.809148 76.747254 11.604977 C 76.283228 11.400805 75.754224 11.298535 75.160271 11.298535 z M 33.161284 11.424109 L 35.847941 18.718237 L 37.866423 18.718237 L 40.553081 11.424109 L 38.799182 11.424109 L 36.933663 17.201017 L 35.082613 11.424109 L 33.161284 11.424109 z M 57.954086 11.424109 L 57.954086 15.989722 C 57.954086 16.936336 58.149281 17.65119 58.539063 18.133777 C 58.928845 18.616364 59.499381 18.857764 60.251103 18.857764 C 60.863618 18.857764 61.425326 18.732133 61.935755 18.481559 C 62.446184 18.230985 62.863573 17.855128 63.188392 17.35398 L 63.23025 17.938957 C 63.267372 18.208093 63.387813 18.421459 63.591985 18.579228 C 63.805436 18.727716 64.079541 18.801953 64.41364 18.801953 C 64.515726 18.801953 64.626823 18.797281 64.74747 18.788001 C 64.877398 18.778721 65.035215 18.755357 65.220826 18.718237 L 65.220826 17.131254 C 65.063057 17.121974 64.947287 17.075769 64.873043 16.992245 C 64.808077 16.90872 64.775375 16.76959 64.775375 16.574699 L 64.775375 11.424109 L 62.909856 11.424109 L 62.909856 15.948381 C 62.696403 16.393846 62.418144 16.727654 62.074765 16.950387 C 61.740666 17.163839 61.392841 17.270781 61.030901 17.270781 C 60.223495 17.270781 59.819605 16.709072 59.819605 15.586129 L 59.819605 11.424109 L 57.954086 11.424109 z M 20.674707 12.64884 C 21.185136 12.64884 21.616542 12.816003 21.969202 13.150102 C 22.331146 13.47492 22.535168 13.910998 22.581568 14.458549 L 18.795235 14.458549 C 18.813797 14.189414 18.874018 13.943342 18.976103 13.72061 C 19.087469 13.497877 19.226599 13.307871 19.393648 13.150102 C 19.560698 12.992333 19.751221 12.871892 19.964673 12.788367 C 20.187405 12.695562 20.424133 12.64884 20.674707 12.64884 z M 44.645854 12.64884 C 45.156283 12.64884 45.588206 12.816003 45.940866 13.150102 C 46.302808 13.47492 46.506831 13.910998 46.553231 14.458549 L 42.766899 14.458549 C 42.78546 14.189414 42.845681 13.943342 42.947767 13.72061 C 43.059133 13.497877 43.198263 13.307871 43.365312 13.150102 C 43.532361 12.992333 43.722367 12.871892 43.93582 12.788367 C 44.158552 12.695562 44.39528 12.64884 44.645854 12.64884 z M 75.160271 12.885519 C 75.429406 12.885519 75.68015 12.941067 75.912163 13.052433 C 76.144176 13.154519 76.343527 13.302993 76.510576 13.497884 C 76.686906 13.692775 76.821364 13.924831 76.914169 14.193966 C 77.016255 14.463101 77.067648 14.755377 77.067648 15.070915 C 77.067648 15.395733 77.016255 15.693198 76.914169 15.962333 C 76.821364 16.231468 76.686906 16.463007 76.510576 16.657898 C 76.343527 16.852789 76.144176 17.005936 75.912163 17.117302 C 75.68015 17.219387 75.429406 17.270781 75.160271 17.270781 C 74.891135 17.270781 74.640392 17.219387 74.408379 17.117302 C 74.176366 17.005936 73.972343 16.852789 73.796013 16.657898 C 73.628964 16.463007 73.494506 16.235624 73.39242 15.975769 C 73.299615 15.706633 73.253411 15.409686 73.253411 15.084867 C 73.253411 14.76933 73.299615 14.477053 73.39242 14.207918 C 73.494506 13.938783 73.628964 13.706728 73.796013 13.511837 C 73.972343 13.316946 74.176366 13.163799 74.408379 13.052433 C 74.640392 12.941067 74.891135 12.885519 75.160271 12.885519 z M 9.9415121 14.486454 L 12.892753 14.486454 C 13.059803 14.486454 13.212949 14.523832 13.352157 14.598075 C 13.491365 14.663039 13.611807 14.755448 13.713892 14.876095 C 13.815981 14.996742 13.89489 15.140544 13.95057 15.307593 C 14.015536 15.465362 14.048238 15.632524 14.048238 15.808854 C 14.048238 15.985184 14.015536 16.152347 13.95057 16.310116 C 13.885606 16.467884 13.797869 16.607014 13.686503 16.727661 C 13.575137 16.839025 13.440162 16.927278 13.282394 16.992245 C 13.133905 17.057211 12.971415 17.089913 12.795085 17.089913 L 9.9415121 17.089913 L 9.9415121 14.486454 z M 80.589397 16.616557 L 80.589397 18.718237 L 82.454916 18.718237 L 82.454916 16.616557 L 80.589397 16.616557 z M 23.931356 26.926005 L 23.931356 27.594182 L 24.604183 27.594182 L 24.604183 26.926005 L 23.931356 26.926005 z M 37.256124 26.926005 L 37.256124 27.594182 L 37.929468 27.594182 L 37.929468 26.926005 L 37.256124 26.926005 z M 53.223108 26.926005 L 53.223108 29.984733 C 53.223108 30.192333 53.279795 30.353029 53.393641 30.466874 C 53.510835 30.577372 53.675169 30.632756 53.886117 30.632756 C 53.98322 30.632756 54.09217 30.621056 54.212712 30.597616 C 54.333254 30.574175 54.438565 30.54089 54.528972 30.497364 L 54.438538 29.984733 C 54.395009 30.004827 54.348205 30.021466 54.297978 30.034859 C 54.2511 30.048253 54.207417 30.055013 54.167237 30.055013 C 54.080181 30.055013 54.013095 30.028488 53.966216 29.974915 C 53.919336 29.92134 53.895936 29.845675 53.895936 29.748572 L 53.895936 26.926005 L 53.223108 26.926005 z M 22.103044 27.001453 C 21.922231 27.001453 21.752955 27.026674 21.595581 27.0769 C 21.438207 27.123778 21.299611 27.193985 21.179069 27.28774 C 21.061875 27.381495 20.969568 27.498508 20.9026 27.63914 C 20.835632 27.779773 20.802348 27.940468 20.802348 28.121281 C 20.802348 28.258565 20.822113 28.377397 20.862293 28.477849 C 20.905821 28.574952 20.969786 28.662319 21.053495 28.739331 C 21.137205 28.812999 21.240697 28.878265 21.364588 28.935185 C 21.491826 28.988757 21.640821 29.038683 21.811589 29.085563 C 21.952221 29.125741 22.079632 29.162664 22.193478 29.196151 C 22.307323 29.229636 22.404571 29.266559 22.484933 29.306739 C 22.565297 29.346921 22.626924 29.393725 22.670451 29.447298 C 22.713978 29.500872 22.73608 29.566139 22.73608 29.643152 C 22.73608 29.887585 22.545222 30.010055 22.163505 30.010055 C 22.026221 30.010055 21.89205 29.993415 21.761463 29.959929 C 21.630875 29.926447 21.512044 29.885886 21.404895 29.839006 C 21.297747 29.788783 21.204137 29.740158 21.123775 29.693278 C 21.04676 29.64305 20.993195 29.603005 20.963062 29.572872 L 20.65662 30.170769 C 20.864221 30.318098 21.098762 30.431988 21.359937 30.51235 C 21.621111 30.592711 21.885299 30.632756 22.15317 30.632756 C 22.327286 30.632756 22.49344 30.614295 22.650814 30.577462 C 22.811537 30.537281 22.951952 30.475136 23.072494 30.391427 C 23.196384 30.307717 23.293633 30.199284 23.363949 30.065349 C 23.437613 29.928065 23.474536 29.763731 23.474536 29.572872 C 23.474536 29.408801 23.447494 29.271508 23.393921 29.161011 C 23.340347 29.047166 23.263379 28.949917 23.162927 28.869556 C 23.065824 28.789193 22.945174 28.722625 22.801192 28.669051 C 22.660561 28.615479 22.503503 28.565036 22.329387 28.518156 C 22.195451 28.48467 22.076102 28.452688 21.972302 28.422555 C 21.871851 28.39242 21.788123 28.359136 21.721155 28.322303 C 21.654188 28.285473 21.602442 28.243609 21.565609 28.196729 C 21.532122 28.146503 21.515483 28.084358 21.515483 28.010694 C 21.515483 27.883454 21.562287 27.784904 21.656043 27.714588 C 21.749797 27.644272 21.892032 27.609168 22.08289 27.609168 C 22.190039 27.609168 22.295867 27.622689 22.399667 27.649475 C 22.503466 27.676263 22.598895 27.709548 22.685954 27.749728 C 22.776358 27.786561 22.851507 27.825303 22.91178 27.865483 C 22.975399 27.905663 23.019081 27.937128 23.042521 27.960567 L 23.348963 27.398328 C 23.191588 27.291179 23.006973 27.198872 22.796025 27.121859 C 22.585076 27.041498 22.354174 27.001453 22.103044 27.001453 z M 27.858765 27.106873 L 27.858765 27.960567 L 27.512533 27.960567 L 27.512533 28.477849 L 27.858765 28.477849 L 27.858765 29.989901 C 27.858765 30.107095 27.877225 30.207465 27.914059 30.291175 C 27.950889 30.371537 27.999513 30.438623 28.059786 30.492196 C 28.123406 30.542421 28.195432 30.579344 28.275794 30.602783 C 28.359504 30.626223 28.448173 30.637923 28.541927 30.637923 C 28.685909 30.637923 28.823201 30.617642 28.953789 30.577462 C 29.084376 30.537281 29.195145 30.497236 29.285551 30.457056 L 29.149642 29.924789 C 29.109462 29.941529 29.055896 29.961293 28.988928 29.984733 C 28.921961 30.008173 28.853572 30.019873 28.783256 30.019873 C 28.71294 30.019873 28.652615 30.001413 28.602389 29.96458 C 28.555509 29.924399 28.532109 29.85783 28.532109 29.764075 L 28.532109 28.477849 L 29.08453 28.477849 L 29.08453 27.960567 L 28.532109 27.960567 L 28.532109 27.106873 L 27.858765 27.106873 z M 26.14104 27.910441 C 25.993711 27.910441 25.856418 27.930723 25.729179 27.970903 C 25.605289 28.011083 25.496855 28.069589 25.403101 28.146603 C 25.309345 28.220267 25.235499 28.310755 25.181926 28.417904 C 25.131699 28.525052 25.106478 28.645704 25.106478 28.779639 C 25.106478 28.880091 25.123118 28.96694 25.156604 29.040605 C 25.190088 29.110924 25.243653 29.174371 25.317318 29.231291 C 25.390983 29.284868 25.488231 29.333492 25.608773 29.377019 C 25.729315 29.420545 25.875188 29.466048 26.045956 29.512928 C 26.250207 29.569853 26.397383 29.619779 26.487789 29.663306 C 26.578196 29.706835 26.623181 29.77574 26.623181 29.869495 C 26.623181 29.963249 26.584956 30.035276 26.507943 30.085502 C 26.43093 30.135729 26.325618 30.160433 26.191683 30.160433 C 26.041005 30.160433 25.888373 30.132087 25.734347 30.075167 C 25.583669 30.014897 25.427914 29.928046 25.267192 29.814201 L 25.016044 30.235881 C 25.166722 30.366468 25.347698 30.466838 25.558647 30.537154 C 25.769595 30.60747 25.985676 30.642574 26.206669 30.642574 C 26.534812 30.642574 26.794058 30.569245 26.984916 30.421916 C 27.175774 30.271239 27.271204 30.06686 27.271204 29.809033 C 27.271204 29.698537 27.251439 29.604927 27.211259 29.527914 C 27.174427 29.447554 27.114102 29.37683 27.030392 29.316557 C 26.95003 29.256288 26.844202 29.202723 26.713615 29.155843 C 26.586376 29.108969 26.43244 29.062163 26.251628 29.015283 C 26.154525 28.99185 26.072616 28.970264 26.005648 28.950171 C 25.942027 28.926731 25.890282 28.903331 25.850102 28.879891 C 25.809922 28.856451 25.779762 28.829409 25.759668 28.799276 C 25.742928 28.769143 25.734347 28.730917 25.734347 28.684038 C 25.734347 28.58024 25.773089 28.504575 25.850102 28.457695 C 25.927115 28.410815 26.022544 28.387415 26.136389 28.387415 C 26.26028 28.387415 26.384052 28.410815 26.507943 28.457695 C 26.635181 28.504573 26.765714 28.578419 26.89965 28.67887 L 27.170952 28.272176 C 27.02697 28.144935 26.868094 28.052627 26.693978 27.995707 C 26.52321 27.938788 26.338595 27.910441 26.14104 27.910441 z M 74.7851 27.910441 C 74.637771 27.910441 74.500477 27.930723 74.373239 27.970903 C 74.249348 28.011083 74.140399 28.069589 74.046644 28.146603 C 73.952888 28.220267 73.879042 28.310755 73.825469 28.417904 C 73.775242 28.525052 73.750538 28.645704 73.750538 28.779639 C 73.750538 28.880091 73.767177 28.96694 73.800664 29.040605 C 73.834148 29.110924 73.887713 29.174371 73.961378 29.231291 C 74.035042 29.284868 74.131774 29.333492 74.252316 29.377019 C 74.372859 29.420545 74.518731 29.466048 74.689499 29.512928 C 74.89375 29.569853 75.040926 29.619779 75.131332 29.663306 C 75.221739 29.706835 75.267241 29.77574 75.267241 29.869495 C 75.267241 29.963249 75.228499 30.035276 75.151486 30.085502 C 75.074473 30.135729 74.969162 30.160433 74.835226 30.160433 C 74.684548 30.160433 74.531916 30.132087 74.37789 30.075167 C 74.227213 30.014897 74.071975 29.928046 73.911252 29.814201 L 73.660104 30.235881 C 73.810781 30.366468 73.991241 30.466838 74.20219 30.537154 C 74.413138 30.60747 74.629219 30.642574 74.850212 30.642574 C 75.178355 30.642574 75.438118 30.569245 75.628976 30.421916 C 75.819835 30.271239 75.915264 30.06686 75.915264 29.809033 C 75.915264 29.698537 75.894982 29.604927 75.854802 29.527914 C 75.81797 29.447554 75.757644 29.37683 75.673935 29.316557 C 75.593573 29.256288 75.488262 29.202723 75.357675 29.155843 C 75.230436 29.108969 75.076501 29.062163 74.895688 29.015283 C 74.798584 28.99185 74.716159 28.970264 74.649191 28.950171 C 74.585571 28.926731 74.533825 28.903331 74.493645 28.879891 C 74.453465 28.856451 74.423304 28.829409 74.403211 28.799276 C 74.386471 28.769143 74.37789 28.730917 74.37789 28.684038 C 74.37789 28.58024 74.416632 28.504575 74.493645 28.457695 C 74.570658 28.410815 74.666087 28.387415 74.779932 28.387415 C 74.903823 28.387415 75.027595 28.410815 75.151486 28.457695 C 75.278725 28.504573 75.409258 28.578419 75.543193 28.67887 L 75.814495 28.272176 C 75.670514 28.144935 75.511638 28.052627 75.337521 27.995707 C 75.166753 27.938788 74.982655 27.910441 74.7851 27.910441 z M 30.797087 27.915609 C 30.58279 27.915609 30.38881 27.952532 30.214693 28.026197 C 30.043926 28.099861 29.898053 28.200232 29.777511 28.32747 C 29.656969 28.451361 29.565179 28.596717 29.501559 28.764136 C 29.437939 28.928207 29.405957 29.104243 29.405957 29.291752 C 29.405957 29.472566 29.437939 29.644962 29.501559 29.809033 C 29.568527 29.973105 29.662137 30.117158 29.782679 30.241048 C 29.903221 30.364939 30.048577 30.46349 30.219344 30.537154 C 30.390112 30.60747 30.580971 30.642574 30.791919 30.642574 L 30.792436 30.642574 C 31.087094 30.642574 31.339581 30.579127 31.550529 30.451888 C 31.764826 30.321301 31.920581 30.155665 32.017684 29.954761 L 31.439942 29.794047 C 31.396412 29.901196 31.314504 29.988045 31.193962 30.055013 C 31.076769 30.118633 30.951177 30.150615 30.817241 30.150615 C 30.730183 30.150615 30.646455 30.135273 30.566093 30.105139 C 30.485733 30.075001 30.413706 30.031835 30.350086 29.974915 C 30.286466 29.917992 30.23472 29.849088 30.19454 29.768726 C 30.15436 29.688365 30.129139 29.596574 30.119092 29.492774 L 32.153076 29.492774 C 32.15977 29.465986 32.163412 29.432185 32.163412 29.392005 C 32.166745 29.351821 32.168579 29.309958 32.168579 29.266431 C 32.168579 29.088966 32.136598 28.918389 32.072978 28.754317 C 32.012707 28.590246 31.922219 28.446193 31.801677 28.322303 C 31.684483 28.198413 31.54043 28.099861 31.369662 28.026197 C 31.202242 27.952532 31.011383 27.915609 30.797087 27.915609 z M 34.167424 27.915609 C 33.949779 27.915609 33.755282 27.962414 33.584514 28.056169 C 33.417094 28.146575 33.285259 28.277108 33.188155 28.447876 L 33.188155 27.960567 L 32.580441 27.960567 L 32.580441 30.592448 L 33.253268 30.592448 L 33.253268 29.055591 C 33.303494 28.89152 33.387221 28.759168 33.504415 28.658716 C 33.624957 28.558264 33.750549 28.508338 33.881136 28.508338 C 34.008376 28.508338 34.106926 28.556962 34.177242 28.654065 C 34.250907 28.751168 34.28783 28.905103 34.28783 29.116053 L 34.28783 30.592448 L 34.961174 30.592448 L 34.961174 29.060759 C 35.0114 28.896688 35.094611 28.764335 35.211805 28.663884 C 35.328998 28.560083 35.45459 28.508338 35.588526 28.508338 C 35.715764 28.508338 35.814832 28.556962 35.885148 28.654065 C 35.958813 28.751168 35.995736 28.905103 35.995736 29.116053 L 35.995736 30.592448 L 36.668563 30.592448 L 36.668563 28.950171 C 36.668563 28.822933 36.656863 28.697341 36.633423 28.57345 C 36.61333 28.449559 36.574588 28.339307 36.517668 28.242204 C 36.460745 28.145103 36.380656 28.066316 36.276856 28.006043 C 36.173055 27.945769 36.040703 27.915609 35.879981 27.915609 C 35.669032 27.915609 35.481812 27.964233 35.317741 28.061337 C 35.15367 28.155091 35.017679 28.292385 34.910531 28.473198 C 34.877047 28.315823 34.800079 28.183471 34.679537 28.076323 C 34.558995 27.969174 34.388418 27.915609 34.167424 27.915609 z M 39.55986 27.915609 C 39.181962 27.922401 38.829662 28.034691 38.502043 28.252023 L 38.707715 28.67887 C 38.848347 28.581767 38.985641 28.508438 39.119576 28.458212 C 39.253512 28.407985 39.390806 28.382764 39.531438 28.382764 C 39.725645 28.382764 39.871517 28.429569 39.96862 28.523324 C 40.069071 28.617079 40.118999 28.750734 40.118999 28.92485 L 40.118999 29.075745 C 40.031941 29.038918 39.93157 29.010572 39.817725 28.990479 C 39.707228 28.970385 39.593338 28.95999 39.476144 28.95999 C 39.312073 28.95999 39.161259 28.982092 39.023975 29.025619 C 38.886691 29.065799 38.767859 29.122486 38.667408 29.196151 C 38.570302 29.269816 38.493334 29.360304 38.436414 29.467452 C 38.382841 29.571252 38.356315 29.685143 38.356315 29.809033 C 38.356315 29.929575 38.377901 30.039828 38.421428 30.140279 C 38.468305 30.240731 38.531753 30.329917 38.612114 30.40693 C 38.692476 30.480597 38.787905 30.539103 38.898401 30.58263 C 39.008898 30.62281 39.127729 30.642574 39.254969 30.642574 L 39.255485 30.642574 C 39.446344 30.642574 39.624984 30.60253 39.792404 30.522168 C 39.959823 30.441807 40.102574 30.324794 40.219768 30.170769 L 40.234754 30.316496 C 40.251496 30.410253 40.29336 30.485402 40.360328 30.542322 C 40.430643 30.599242 40.529194 30.627588 40.656433 30.627588 C 40.740143 30.627588 40.839211 30.615888 40.953056 30.592448 L 40.953056 30.019873 C 40.896134 30.01652 40.854269 29.99988 40.827482 29.969747 C 40.804043 29.939612 40.792343 29.889169 40.792343 29.818852 L 40.792343 29.000297 C 40.792343 28.648716 40.686515 28.38089 40.475566 28.196729 C 40.267966 28.009219 39.974918 27.915609 39.59655 27.915609 C 39.584307 27.915609 39.57205 27.91539 39.55986 27.915609 z M 43.007194 27.915609 C 42.789549 27.915609 42.595052 27.962414 42.424284 28.056169 C 42.256864 28.146575 42.125029 28.277108 42.027926 28.447876 L 42.027926 27.960567 L 41.420211 27.960567 L 41.420211 30.592448 L 42.093038 30.592448 L 42.093038 29.055591 C 42.143264 28.89152 42.226993 28.759168 42.344186 28.658716 C 42.464728 28.558264 42.59032 28.508338 42.720907 28.508338 C 42.848146 28.508338 42.946697 28.556962 43.017013 28.654065 C 43.090678 28.751168 43.127601 28.905103 43.127601 29.116053 L 43.127601 30.592448 L 43.800428 30.592448 L 43.800428 29.060759 C 43.850654 28.896688 43.934381 28.764335 44.051575 28.663884 C 44.168769 28.560083 44.294361 28.508338 44.428296 28.508338 C 44.555536 28.508338 44.654603 28.556962 44.724919 28.654065 C 44.798584 28.751168 44.835507 28.905103 44.835507 29.116053 L 44.835507 30.592448 L 45.508334 30.592448 L 45.508334 28.950171 C 45.508334 28.822933 45.496634 28.697341 45.473194 28.57345 C 45.4531 28.449559 45.414359 28.339307 45.357439 28.242204 C 45.300516 28.145103 45.220426 28.066316 45.116626 28.006043 C 45.012827 27.945769 44.880475 27.915609 44.719751 27.915609 C 44.508803 27.915609 44.321583 27.964233 44.157512 28.061337 C 43.993441 28.155091 43.857449 28.292385 43.750302 28.473198 C 43.716818 28.315823 43.63985 28.183471 43.519308 28.076323 C 43.398766 27.969174 43.228188 27.915609 43.007194 27.915609 z M 47.311325 27.915609 C 47.097027 27.915609 46.904867 27.952532 46.734099 28.026197 C 46.563331 28.099861 46.417458 28.200232 46.296916 28.32747 C 46.179723 28.451361 46.089235 28.595414 46.025615 28.759485 C 45.961995 28.923556 45.930013 29.097256 45.930013 29.281417 C 45.930013 29.46223 45.961995 29.635144 46.025615 29.799215 C 46.089234 29.963286 46.179722 30.108642 46.296916 30.235881 C 46.417458 30.359771 46.563331 30.458839 46.734099 30.532504 C 46.904867 30.606168 47.097027 30.642574 47.311325 30.642574 C 47.525621 30.642574 47.718299 30.606168 47.889067 30.532504 C 48.059835 30.458839 48.203889 30.359771 48.321082 30.235881 C 48.438275 30.108642 48.528763 29.963286 48.592383 29.799215 C 48.656003 29.635144 48.687468 29.46223 48.687468 29.281417 C 48.687468 29.097256 48.656003 28.923556 48.592383 28.759485 C 48.528764 28.595414 48.436456 28.451361 48.315914 28.32747 C 48.19872 28.200232 48.054667 28.099861 47.883899 28.026197 C 47.71648 27.952532 47.525621 27.915609 47.311325 27.915609 z M 51.368441 27.915609 C 50.990544 27.922401 50.637727 28.034691 50.310108 28.252023 L 50.51578 28.67887 C 50.656413 28.581767 50.793705 28.508438 50.927641 28.458212 C 51.061576 28.407985 51.19887 28.382764 51.339502 28.382764 C 51.533709 28.382764 51.679581 28.429569 51.776685 28.523324 C 51.877136 28.617079 51.927063 28.750734 51.927063 28.92485 L 51.927063 29.075745 C 51.840006 29.038918 51.739635 29.010572 51.62579 28.990479 C 51.515293 28.970385 51.401402 28.95999 51.284209 28.95999 C 51.120137 28.95999 50.969324 28.982092 50.83204 29.025619 C 50.694755 29.065799 50.575924 29.122486 50.475472 29.196151 C 50.378367 29.269816 50.301399 29.360304 50.244479 29.467452 C 50.190906 29.571252 50.16438 29.685143 50.16438 29.809033 C 50.16438 29.929575 50.185966 30.039828 50.229493 30.140279 C 50.27637 30.240731 50.339817 30.329917 50.420179 30.40693 C 50.50054 30.480597 50.595969 30.539103 50.706466 30.58263 C 50.816963 30.62281 50.936311 30.642574 51.06355 30.642574 C 51.254408 30.642574 51.433565 30.60253 51.600985 30.522168 C 51.768404 30.441807 51.910639 30.324794 52.027833 30.170769 L 52.042819 30.316496 C 52.059561 30.410253 52.101424 30.485402 52.168392 30.542322 C 52.238708 30.599242 52.33726 30.627588 52.464498 30.627588 C 52.548208 30.627588 52.647276 30.615888 52.761121 30.592448 L 52.761121 30.019873 C 52.704198 30.01652 52.662334 29.99988 52.635547 29.969747 C 52.612107 29.939612 52.600407 29.889169 52.600407 29.818852 L 52.600407 29.000297 C 52.600407 28.648716 52.494579 28.38089 52.283631 28.196729 C 52.076031 28.009219 51.782983 27.915609 51.404615 27.915609 C 51.392372 27.915609 51.380631 27.91539 51.368441 27.915609 z M 56.040508 27.915609 C 55.82621 27.915609 55.63405 27.952532 55.463282 28.026197 C 55.292514 28.099861 55.146641 28.198413 55.026099 28.322303 C 54.905558 28.446193 54.813767 28.590246 54.750147 28.754317 C 54.686527 28.918389 54.654546 29.092604 54.654546 29.276766 C 54.654546 29.457579 54.686527 29.631795 54.750147 29.799215 C 54.817114 29.963286 54.910724 30.108642 55.031267 30.235881 C 55.151809 30.359771 55.297165 30.458839 55.467933 30.532504 C 55.6387 30.606168 55.831378 30.642574 56.045675 30.642574 C 56.336985 30.642574 56.586349 30.579127 56.79395 30.451888 C 57.00155 30.324649 57.150544 30.160832 57.240951 29.959929 L 56.58311 29.758907 C 56.542929 29.845963 56.470902 29.919292 56.367103 29.979566 C 56.266651 30.039839 56.156399 30.069999 56.035857 30.069999 C 55.942101 30.069999 55.853433 30.051539 55.769723 30.014706 C 55.686014 29.974525 55.612168 29.919657 55.548548 29.849341 C 55.488278 29.779025 55.439654 29.695297 55.40282 29.598194 C 55.365987 29.50109 55.347527 29.393959 55.347527 29.276766 C 55.347527 29.159572 55.364166 29.052442 55.397653 28.955339 C 55.434483 28.858236 55.483107 28.77581 55.54338 28.708842 C 55.607 28.638527 55.680845 28.584962 55.764555 28.548129 C 55.848265 28.507949 55.938753 28.488184 56.035857 28.488184 C 56.149702 28.488184 56.253194 28.514709 56.346949 28.568282 C 56.440707 28.618508 56.516372 28.692354 56.573292 28.789457 L 57.231133 28.588436 C 57.130681 28.387532 56.978048 28.225018 56.773796 28.101127 C 56.572893 27.977238 56.328469 27.915609 56.040508 27.915609 z M 62.409111 27.915609 C 62.178073 27.915609 61.970572 27.962414 61.78641 28.056169 C 61.602249 28.149924 61.461834 28.280457 61.36473 28.447876 L 61.36473 27.960567 L 60.757016 27.960567 L 60.757016 30.592448 L 61.429843 30.592448 L 61.429843 29.055591 C 61.453281 28.975229 61.490204 28.901383 61.54043 28.834416 C 61.590654 28.767451 61.646038 28.710764 61.706312 28.663884 C 61.769931 28.613657 61.837017 28.574915 61.907333 28.548129 C 61.97765 28.521342 62.046037 28.508338 62.113005 28.508338 C 62.243592 28.508338 62.345782 28.556962 62.419446 28.654065 C 62.493111 28.751168 62.530034 28.905103 62.530034 29.116053 L 62.530034 30.592448 L 63.202861 30.592448 L 63.202861 28.950171 C 63.202861 28.822933 63.191161 28.697341 63.167721 28.57345 C 63.147628 28.449559 63.109403 28.339307 63.052483 28.242204 C 62.99556 28.145103 62.914954 28.066316 62.811154 28.006043 C 62.707353 27.945769 62.573182 27.915609 62.409111 27.915609 z M 65.016187 27.915609 C 64.801891 27.915609 64.607393 27.952532 64.433277 28.026197 C 64.262509 28.099861 64.117153 28.200232 63.996611 28.32747 C 63.876069 28.451361 63.783762 28.596717 63.720142 28.764136 C 63.656522 28.928207 63.624541 29.104243 63.624541 29.291752 C 63.624541 29.472566 63.656522 29.644962 63.720142 29.809033 C 63.78711 29.973105 63.88072 30.117158 64.001262 30.241048 C 64.121805 30.364939 64.267677 30.46349 64.438445 30.537154 C 64.609212 30.60747 64.800071 30.642574 65.011019 30.642574 C 65.305678 30.642574 65.558681 30.579127 65.76963 30.451888 C 65.983927 30.321301 66.139681 30.155665 66.236784 29.954761 L 65.659042 29.794047 C 65.615513 29.901196 65.533604 29.988045 65.413062 30.055013 C 65.295868 30.118633 65.170276 30.150615 65.036341 30.150615 C 64.949282 30.150615 64.865555 30.135273 64.785193 30.105139 C 64.704833 30.075001 64.632806 30.031835 64.569186 29.974915 C 64.505566 29.917992 64.453303 29.849088 64.413123 29.768726 C 64.372943 29.688365 64.348239 29.596574 64.338192 29.492774 L 66.372177 29.492774 C 66.378877 29.465986 66.381995 29.432185 66.381995 29.392005 C 66.385329 29.351821 66.387163 29.309958 66.387163 29.266431 C 66.387163 29.088966 66.355181 28.918389 66.291562 28.754317 C 66.231291 28.590246 66.141319 28.446193 66.020777 28.322303 C 65.903583 28.198413 65.75953 28.099861 65.588762 28.026197 C 65.421342 27.952532 65.230484 27.915609 65.016187 27.915609 z M 69.224716 27.915609 C 69.010419 27.915609 68.818258 27.952532 68.64749 28.026197 C 68.476722 28.099861 68.330849 28.198413 68.210307 28.322303 C 68.089766 28.446193 67.997975 28.590246 67.934355 28.754317 C 67.870735 28.918389 67.838754 29.092604 67.838754 29.276766 C 67.838754 29.457579 67.870735 29.631795 67.934355 29.799215 C 68.001323 29.963286 68.094933 30.108642 68.215475 30.235881 C 68.336017 30.359771 68.481373 30.458839 68.652141 30.532504 C 68.822909 30.606168 69.015586 30.642574 69.229883 30.642574 C 69.521193 30.642574 69.770558 30.579127 69.978158 30.451888 C 70.185758 30.324649 70.334753 30.160832 70.425159 29.959929 L 69.767318 29.758907 C 69.727138 29.845963 69.655111 29.919292 69.551311 29.979566 C 69.450859 30.039839 69.340607 30.069999 69.220065 30.069999 C 69.12631 30.069999 69.037641 30.051539 68.953931 30.014706 C 68.870222 29.974525 68.796376 29.919657 68.732756 29.849341 C 68.672486 29.779025 68.623862 29.695297 68.587029 29.598194 C 68.550195 29.50109 68.531735 29.393959 68.531735 29.276766 C 68.531735 29.159572 68.548374 29.052442 68.581861 28.955339 C 68.618691 28.858236 68.667315 28.77581 68.727589 28.708842 C 68.791208 28.638527 68.865054 28.584962 68.948764 28.548129 C 69.032473 28.507949 69.122961 28.488184 69.220065 28.488184 C 69.33391 28.488184 69.437403 28.514709 69.531157 28.568282 C 69.624915 28.618508 69.70058 28.692354 69.7575 28.789457 L 70.415341 28.588436 C 70.314889 28.387532 70.162773 28.225018 69.958521 28.101127 C 69.757618 27.977238 69.512678 27.915609 69.224716 27.915609 z M 72.027646 27.915609 C 71.813348 27.915609 71.620671 27.952532 71.449903 28.026197 C 71.279135 28.099861 71.13378 28.200232 71.013237 28.32747 C 70.896045 28.451361 70.805556 28.595414 70.741936 28.759485 C 70.678316 28.923556 70.646334 29.097256 70.646334 29.281417 C 70.646334 29.46223 70.678316 29.635144 70.741936 29.799215 C 70.805555 29.963286 70.896044 30.108642 71.013237 30.235881 C 71.13378 30.359771 71.279135 30.458839 71.449903 30.532504 C 71.620671 30.606168 71.813348 30.642574 72.027646 30.642574 C 72.241942 30.642574 72.43462 30.606168 72.605388 30.532504 C 72.776157 30.458839 72.919693 30.359771 73.036886 30.235881 C 73.154079 30.108642 73.244568 29.963286 73.308188 29.799215 C 73.371807 29.635144 73.403789 29.46223 73.403789 29.281417 C 73.403789 29.097256 73.371807 28.923556 73.308188 28.759485 C 73.244568 28.595414 73.152777 28.451361 73.032235 28.32747 C 72.915042 28.200232 72.770988 28.099861 72.60022 28.026197 C 72.432801 27.952532 72.241942 27.915609 72.027646 27.915609 z M 77.577694 27.915609 C 77.363397 27.915609 77.1689 27.952532 76.994784 28.026197 C 76.824016 28.099861 76.678661 28.200232 76.558118 28.32747 C 76.437577 28.451361 76.345269 28.596717 76.281649 28.764136 C 76.21803 28.928207 76.186048 29.104243 76.186048 29.291752 C 76.186048 29.472566 76.21803 29.644962 76.281649 29.809033 C 76.348617 29.973105 76.442227 30.117158 76.562769 30.241048 C 76.683311 30.364939 76.829184 30.46349 76.999952 30.537154 C 77.17072 30.60747 77.361578 30.642574 77.572527 30.642574 C 77.867184 30.642574 78.120188 30.579127 78.331137 30.451888 C 78.545433 30.321301 78.701188 30.155665 78.798292 29.954761 L 78.220549 29.794047 C 78.17702 29.901196 78.095111 29.988045 77.974569 30.055013 C 77.857376 30.118633 77.731784 30.150615 77.597848 30.150615 C 77.51079 30.150615 77.427062 30.135273 77.346701 30.105139 C 77.26634 30.075001 77.194313 30.031835 77.130693 29.974915 C 77.067073 29.917992 77.01481 29.849088 76.97463 29.768726 C 76.93445 29.688365 76.909746 29.596574 76.8997 29.492774 L 78.933684 29.492774 C 78.940384 29.465986 78.943503 29.432185 78.943503 29.392005 C 78.946836 29.351821 78.94867 29.309958 78.94867 29.266431 C 78.94867 29.088966 78.916689 28.918389 78.853069 28.754317 C 78.792798 28.590246 78.702826 28.446193 78.582284 28.322303 C 78.465091 28.198413 78.321038 28.099861 78.150269 28.026197 C 77.98285 27.952532 77.791992 27.915609 77.577694 27.915609 z M 23.931356 27.960567 L 23.931356 30.592448 L 24.604183 30.592448 L 24.604183 27.960567 L 23.931356 27.960567 z M 37.256124 27.960567 L 37.256124 30.592448 L 37.929468 30.592448 L 37.929468 27.960567 L 37.256124 27.960567 z M 57.628008 27.960567 L 57.628008 29.608012 C 57.628008 29.949548 57.698215 30.207493 57.838847 30.381608 C 57.979479 30.555725 58.185161 30.642574 58.456381 30.642574 C 58.677375 30.642574 58.879934 30.597589 59.064096 30.507182 C 59.248257 30.416776 59.399071 30.281302 59.516264 30.100489 L 59.531251 30.311328 C 59.544644 30.408434 59.588327 30.485402 59.661992 30.542322 C 59.739005 30.595895 59.837555 30.622421 59.958098 30.622421 C 59.994933 30.622421 60.035494 30.621103 60.079021 30.61777 C 60.125898 30.614423 60.182585 30.605842 60.249553 30.592448 L 60.249553 30.019873 C 60.19263 30.01652 60.150766 29.99988 60.123979 29.969747 C 60.100539 29.939612 60.088839 29.889169 60.088839 29.818852 L 60.088839 27.960567 L 59.416012 27.960567 L 59.416012 29.593026 C 59.338999 29.753749 59.238628 29.8744 59.114739 29.954761 C 58.994196 30.031774 58.868605 30.069999 58.738017 30.069999 C 58.446708 30.069999 58.300835 29.86744 58.300835 29.462285 L 58.300835 27.960567 L 57.628008 27.960567 z M 30.787268 28.402918 C 30.97143 28.402918 31.127185 28.462727 31.254423 28.583269 C 31.385013 28.700462 31.458342 28.858036 31.475082 29.055591 L 30.109274 29.055591 C 30.115967 28.958487 30.137553 28.869819 30.174386 28.789457 C 30.214564 28.709094 30.265008 28.640188 30.325281 28.583269 C 30.385552 28.526344 30.453941 28.483177 30.530953 28.453044 C 30.611315 28.419557 30.696862 28.402918 30.787268 28.402918 z M 65.005852 28.402918 C 65.190014 28.402918 65.345768 28.462727 65.473007 28.583269 C 65.603596 28.700462 65.677442 28.858036 65.694182 29.055591 L 64.327857 29.055591 C 64.33455 28.958487 64.356653 28.869819 64.393486 28.789457 C 64.433665 28.709094 64.483591 28.640188 64.543865 28.583269 C 64.604136 28.526344 64.673041 28.483177 64.750054 28.453044 C 64.830415 28.419557 64.915445 28.402918 65.005852 28.402918 z M 77.567359 28.402918 C 77.75152 28.402918 77.907275 28.462727 78.034514 28.583269 C 78.165103 28.700462 78.238949 28.858036 78.255689 29.055591 L 76.889364 29.055591 C 76.896058 28.958487 76.917643 28.869819 76.954477 28.789457 C 76.994655 28.709094 77.045099 28.640188 77.105372 28.583269 C 77.165642 28.526344 77.234548 28.483177 77.311561 28.453044 C 77.391922 28.419557 77.476953 28.402918 77.567359 28.402918 z M 47.311325 28.488184 C 47.408428 28.488184 47.498916 28.507949 47.582626 28.548129 C 47.666333 28.58496 47.73836 28.638526 47.798633 28.708842 C 47.86225 28.779158 47.910874 28.862886 47.944361 28.95999 C 47.981194 29.057093 47.999655 29.16292 47.999655 29.276766 C 47.999655 29.393959 47.981194 29.50109 47.944361 29.598194 C 47.910878 29.695297 47.862253 29.779025 47.798633 29.849341 C 47.738362 29.919658 47.666335 29.974526 47.582626 30.014706 C 47.498916 30.051539 47.408428 30.069999 47.311325 30.069999 C 47.214221 30.069999 47.123733 30.051539 47.040023 30.014706 C 46.956314 29.974525 46.882985 29.919657 46.819365 29.849341 C 46.759095 29.779025 46.710471 29.696599 46.673637 29.602845 C 46.640151 29.505741 46.623511 29.398611 46.623511 29.281417 C 46.623511 29.167572 46.640151 29.062261 46.673637 28.965157 C 46.710467 28.868054 46.759092 28.784326 46.819365 28.71401 C 46.882984 28.643693 46.956313 28.588308 47.040023 28.548129 C 47.123733 28.507949 47.214221 28.488184 47.311325 28.488184 z M 72.027646 28.488184 C 72.124749 28.488184 72.215238 28.507949 72.298947 28.548129 C 72.382655 28.58496 72.454681 28.638526 72.514954 28.708842 C 72.578571 28.779158 72.626678 28.862886 72.660165 28.95999 C 72.696998 29.057093 72.715459 29.16292 72.715459 29.276766 C 72.715459 29.393959 72.696998 29.50109 72.660165 29.598194 C 72.626682 29.695297 72.578574 29.779025 72.514954 29.849341 C 72.454683 29.919658 72.382657 29.974526 72.298947 30.014706 C 72.215238 30.051539 72.124749 30.069999 72.027646 30.069999 C 71.930542 30.069999 71.840054 30.051539 71.756344 30.014706 C 71.672635 29.974525 71.598789 29.919657 71.535169 29.849341 C 71.474899 29.779025 71.426792 29.696599 71.389958 29.602845 C 71.356472 29.505741 71.339315 29.398611 71.339315 29.281417 C 71.339315 29.167572 71.356472 29.062261 71.389958 28.965157 C 71.426788 28.868054 71.474896 28.784326 71.535169 28.71401 C 71.598788 28.643693 71.672634 28.588308 71.756344 28.548129 C 71.840054 28.507949 71.930542 28.488184 72.027646 28.488184 z M 39.586731 29.336711 C 39.673789 29.336711 39.764277 29.347113 39.858033 29.3672 C 39.951787 29.383947 40.038637 29.407347 40.118999 29.43748 L 40.118999 29.738754 C 40.118999 29.809072 40.082076 29.87252 40.008411 29.92944 C 39.951488 29.996408 39.871399 30.049973 39.767599 30.090153 C 39.667147 30.130333 39.560017 30.150615 39.446171 30.150615 C 39.318933 30.150615 39.211802 30.113692 39.124744 30.040027 C 39.037685 29.963015 38.994003 29.867585 38.994003 29.75374 C 38.994003 29.633197 39.049387 29.534646 39.159884 29.457634 C 39.270381 29.377272 39.412615 29.336711 39.586731 29.336711 z M 51.394796 29.336711 C 51.481854 29.336711 51.572342 29.347113 51.666097 29.3672 C 51.759852 29.383947 51.846702 29.407347 51.927063 29.43748 L 51.927063 29.738754 C 51.927063 29.809072 51.890141 29.87252 51.816476 29.92944 C 51.759553 29.996408 51.679464 30.049973 51.575664 30.090153 C 51.475212 30.130333 51.368082 30.150615 51.254236 30.150615 C 51.126998 30.150615 51.019867 30.113692 50.932809 30.040027 C 50.845751 29.963015 50.802068 29.867585 50.802068 29.75374 C 50.802068 29.633197 50.857452 29.534646 50.967949 29.457634 C 51.078445 29.377272 51.22068 29.336711 51.394796 29.336711 z M 79.345545 29.869495 L 79.345545 30.592448 L 79.897966 30.592448 L 79.897966 29.869495 L 79.345545 29.869495 z M 80.289674 29.869495 L 80.289674 30.592448 L 80.842095 30.592448 L 80.842095 29.869495 L 80.289674 29.869495 z M 81.233802 29.869495 L 81.233802 30.592448 L 81.786223 30.592448 L 81.786223 29.869495 L 81.233802 29.869495 z " /></svg>
