<?xml version="1.0" encoding="UTF-8" standalone="no"?>
<svg
   width="700.00061"
   height="220"
   viewBox="0 0 185.20849 58.208335"
   version="1.1"
   id="svg243962"
   xml:space="preserve"
   xmlns="http://www.w3.org/2000/svg"
   xmlns:svg="http://www.w3.org/2000/svg"><defs
     id="defs243959" /><g
     id="layer2"
     style="font-variation-settings:normal;opacity:1;vector-effect:none;fill:#cbe1fb;fill-opacity:1;stroke-width:0.125564;stroke-linecap:butt;stroke-linejoin:miter;stroke-miterlimit:4;stroke-dasharray:none;stroke-dashoffset:0;stroke-opacity:1;-inkscape-stroke:none;stop-color:#000000;stop-opacity:1"
     transform="translate(-2537.71)"><g
       id="layer3-0"
       transform="translate(2531.3421,-24.606481)"
       style="font-variation-settings:normal;vector-effect:none;fill:#cbe1fb;fill-opacity:1;stroke-width:0.125564;stroke-linecap:butt;stroke-linejoin:miter;stroke-miterlimit:4;stroke-dasharray:none;stroke-dashoffset:0;stroke-opacity:1;-inkscape-stroke:none;stop-color:#000000;stop-opacity:1"><g
         aria-label="欢迎"
         id="text118971-9"
         style="font-size:16.706px;line-height:1.25;font-family:'Roboto Condensed';-inkscape-font-specification:'Roboto Condensed, ';vector-effect:none;stroke-width:0.125564;stop-color:#000000;stop-opacity:1"><path
           d="m 14.380021,37.466562 c 0.868712,1.16942 1.820954,2.539312 2.689666,3.859086 -0.8353,1.58707 -1.871072,2.873432 -3.057198,3.725438 0.451062,0.33412 1.035772,1.035772 1.353186,1.50354 1.08589,-0.885418 2.054838,-2.00472 2.856726,-3.3412 0.451062,0.75177 0.8353,1.470128 1.102596,2.071544 l 1.570364,-1.33648 c -0.367532,-0.785182 -0.952242,-1.737424 -1.620482,-2.75649 0.852006,-1.988014 1.470128,-4.326854 1.804248,-6.999814 l -1.219538,-0.41765 -0.317414,0.08353 h -5.09533 v 1.75413 h 4.544032 c -0.233884,1.303068 -0.58471,2.556018 -1.019066,3.708732 -0.735064,-1.035772 -1.50354,-2.071544 -2.188486,-2.973668 z m 8.085704,-5.379332 c -0.25059,2.522606 -0.801888,4.911564 -1.92119,6.364986 0.434356,0.25059 1.25295,0.8353 1.58707,1.136008 0.618122,-0.902124 1.119302,-2.054838 1.486834,-3.374612 h 3.976028 c -0.200472,0.852006 -0.434356,1.687306 -0.66824,2.288722 l 1.570364,0.534592 c 0.50118,-1.102596 1.019066,-2.789902 1.353186,-4.326854 l -1.353186,-0.367532 -0.300708,0.06682 h -4.143088 c 0.116942,-0.66824 0.233884,-1.369892 0.317414,-2.08825 z m 1.520246,4.911564 v 1.269656 c 0,2.25531 -0.350826,5.730158 -4.34356,8.085704 0.467768,0.317414 1.136008,0.985654 1.42001,1.403304 2.188486,-1.353186 3.391318,-3.040492 4.042852,-4.711092 0.785182,2.08825 1.954602,3.708732 3.792262,4.711092 0.284002,-0.534592 0.852006,-1.319774 1.286362,-1.704012 -2.472488,-1.119302 -3.692026,-3.608496 -4.326854,-6.699106 l 0.03341,-1.052478 v -1.303068 z"
           style="font-weight:bold;font-family:Raleway;-inkscape-font-specification:Raleway;vector-effect:none;stop-color:#000000;stop-opacity:1"
           id="path123" /><path
           d="m 30.985752,33.42371 c 0.868712,0.852006 1.854366,2.071544 2.238604,2.873432 L 34.928368,35.17784 C 34.494012,34.359246 33.45824,33.223238 32.572822,32.42135 Z m 3.725438,5.145448 h -3.608496 v 1.854366 h 1.737424 v 3.692026 c -0.634828,0.568004 -1.369892,1.136008 -1.988014,1.570364 l 0.952242,1.904484 c 0.801888,-0.735064 1.470128,-1.386598 2.08825,-2.054838 1.019066,1.303068 2.372252,1.804248 4.410384,1.887778 2.104956,0.100236 5.813688,0.06682 7.93535,-0.03341 0.100236,-0.568004 0.384238,-1.436716 0.601416,-1.887778 -2.355546,0.200472 -6.465222,0.25059 -8.536766,0.150354 -1.737424,-0.06682 -2.956962,-0.568004 -3.59179,-1.704012 z m 0.400944,3.25767 0.517886,1.770836 c 1.33648,-0.350826 3.040492,-0.801888 4.610856,-1.236244 l -0.217178,-1.704012 -2.104956,0.517886 V 34.84372 c 0.902124,-0.350826 1.854366,-0.768476 2.67296,-1.25295 v 11.560552 h 1.820954 V 34.776896 h 1.787542 v 6.782636 c 0,0.200472 -0.06682,0.267296 -0.25059,0.267296 -0.183766,0 -0.768476,0 -1.319774,-0.01671 0.233884,0.451062 0.484474,1.202832 0.551298,1.687306 0.985654,0 1.687306,-0.03341 2.188486,-0.317414 0.534592,-0.284002 0.66824,-0.75177 0.66824,-1.570364 v -8.52006 h -5.446156 v 0.41765 l -1.33648,-1.453422 c -0.551298,0.484474 -1.386598,1.019066 -2.205192,1.436716 l -0.968948,-0.25059 v 8.369706 z"
           style="font-weight:bold;font-family:Raleway;-inkscape-font-specification:Raleway;vector-effect:none;stop-color:#000000;stop-opacity:1"
           id="path124" /></g><g
         aria-label="Let's set up a few things..."
         id="text115541-67"
         style="font-size:5.02259px;line-height:1.25;font-family:'Roboto Condensed';-inkscape-font-specification:'Roboto Condensed, ';vector-effect:none;stroke-width:0.125564;stop-color:#000000;stop-opacity:1"><path
           d="m 28.099503,57.49229 v -3.566039 h 0.693117 v 2.958306 h 1.818178 v 0.607733 z"
           style="font-weight:bold;font-family:Raleway;-inkscape-font-specification:Raleway;vector-effect:none;stop-color:#000000;stop-opacity:1"
           id="path100" /><path
           d="m 32.082406,57.542516 q -0.316424,0 -0.572576,-0.105474 -0.256152,-0.110497 -0.436965,-0.296333 -0.180813,-0.185836 -0.281265,-0.431943 -0.09543,-0.246106 -0.09543,-0.517326 0,-0.281265 0.09543,-0.527372 0.09543,-0.25113 0.276242,-0.436966 0.180814,-0.190858 0.436966,-0.301355 0.261174,-0.110497 0.58262,-0.110497 0.321446,0 0.572575,0.110497 0.256153,0.110497 0.431943,0.296333 0.180813,0.185836 0.27122,0.431942 0.09543,0.246107 0.09543,0.512305 0,0.06529 -0.005,0.125564 0,0.06027 -0.01004,0.100452 h -2.034149 q 0.01507,0.155701 0.07534,0.276243 0.06027,0.120542 0.155701,0.205926 0.09543,0.08538 0.215971,0.130587 0.120542,0.0452 0.25113,0.0452 0.200903,0 0.376694,-0.09543 0.180813,-0.100451 0.246107,-0.261174 l 0.577598,0.160723 q -0.145656,0.301355 -0.467101,0.497236 -0.316423,0.190858 -0.758411,0.190858 z m 0.683072,-1.587138 q -0.02511,-0.296333 -0.220994,-0.472124 -0.190859,-0.180813 -0.467101,-0.180813 -0.13561,0 -0.256152,0.05023 -0.11552,0.0452 -0.205926,0.130587 -0.09041,0.08538 -0.150678,0.205927 -0.05525,0.120542 -0.06529,0.266197 z"
           style="font-weight:bold;font-family:Raleway;-inkscape-font-specification:Raleway;vector-effect:none;stop-color:#000000;stop-opacity:1"
           id="path101" /><path
           d="m 35.427438,57.356681 q -0.13561,0.06027 -0.331491,0.120542 -0.195881,0.06027 -0.411853,0.06027 -0.140632,0 -0.266197,-0.03516 -0.120542,-0.03516 -0.215971,-0.110497 -0.09041,-0.08036 -0.145656,-0.200904 -0.05525,-0.125565 -0.05525,-0.301355 v -1.5118 H 33.654461 V 54.86045 h 0.346559 v -0.85384 h 0.673027 v 0.85384 h 0.552485 v 0.517327 h -0.552485 v 1.285783 q 0,0.140633 0.07032,0.200904 0.07534,0.05525 0.180814,0.05525 0.105474,0 0.205926,-0.03516 0.100452,-0.03516 0.160723,-0.06027 z"
           style="font-weight:bold;font-family:Raleway;-inkscape-font-specification:Raleway;vector-effect:none;stop-color:#000000;stop-opacity:1"
           id="path102" /><path
           d="m 35.779013,54.986018 v -1.12506 h 0.572576 v 1.12506 z"
           style="font-weight:bold;font-family:Raleway;-inkscape-font-specification:Raleway;vector-effect:none;stop-color:#000000;stop-opacity:1"
           id="path103" /><path
           d="m 37.898532,57.542516 q -0.331491,0 -0.647914,-0.105474 -0.316423,-0.105474 -0.54244,-0.301355 l 0.25113,-0.421898 q 0.241084,0.170768 0.4671,0.261175 0.23104,0.08538 0.457056,0.08538 0.200904,0 0.316423,-0.07534 0.11552,-0.07534 0.11552,-0.215971 0,-0.140633 -0.13561,-0.205927 -0.13561,-0.06529 -0.441988,-0.150677 -0.256152,-0.07032 -0.436965,-0.13561 -0.180814,-0.06529 -0.291311,-0.145655 -0.110497,-0.08538 -0.160722,-0.190859 -0.05023,-0.110497 -0.05023,-0.261175 0,-0.200903 0.07534,-0.361626 0.08036,-0.160723 0.220993,-0.27122 0.140633,-0.115519 0.326469,-0.175791 0.190858,-0.06027 0.411852,-0.06027 0.296333,0 0.552485,0.08538 0.261175,0.08538 0.477146,0.276243 l -0.27122,0.40683 q -0.200903,-0.150678 -0.391762,-0.220994 -0.185836,-0.07032 -0.371671,-0.07032 -0.170768,0 -0.286288,0.07032 -0.11552,0.07032 -0.11552,0.226016 0,0.07032 0.02511,0.11552 0.03014,0.0452 0.09041,0.08036 0.06027,0.03516 0.1557,0.07032 0.100452,0.03013 0.246107,0.06529 0.27122,0.07032 0.462079,0.140633 0.195881,0.07032 0.316423,0.160723 0.125564,0.09041 0.180813,0.210948 0.06027,0.11552 0.06027,0.281265 0,0.38674 -0.286288,0.612756 -0.286287,0.220994 -0.778501,0.220994 z"
           style="font-weight:bold;font-family:Raleway;-inkscape-font-specification:Raleway;vector-effect:none;stop-color:#000000;stop-opacity:1"
           id="path104" /><path
           d="m 41.600179,57.542516 q -0.331491,0 -0.647914,-0.105474 -0.316424,-0.105474 -0.54244,-0.301355 l 0.251129,-0.421898 q 0.241085,0.170768 0.467101,0.261175 0.231039,0.08538 0.457056,0.08538 0.200904,0 0.316423,-0.07534 0.11552,-0.07534 0.11552,-0.215971 0,-0.140633 -0.13561,-0.205927 -0.13561,-0.06529 -0.441988,-0.150677 -0.256152,-0.07032 -0.436966,-0.13561 -0.180813,-0.06529 -0.29131,-0.145655 -0.110497,-0.08538 -0.160723,-0.190859 -0.05023,-0.110497 -0.05023,-0.261175 0,-0.200903 0.07534,-0.361626 0.08036,-0.160723 0.220994,-0.27122 0.140633,-0.115519 0.326469,-0.175791 0.190858,-0.06027 0.411852,-0.06027 0.296333,0 0.552485,0.08538 0.261175,0.08538 0.477146,0.276243 l -0.27122,0.40683 q -0.200903,-0.150678 -0.391762,-0.220994 -0.185836,-0.07032 -0.371672,-0.07032 -0.170768,0 -0.286287,0.07032 -0.11552,0.07032 -0.11552,0.226016 0,0.07032 0.02511,0.11552 0.03014,0.0452 0.09041,0.08036 0.06027,0.03516 0.1557,0.07032 0.100452,0.03013 0.246107,0.06529 0.27122,0.07032 0.462078,0.140633 0.195881,0.07032 0.316423,0.160723 0.125565,0.09041 0.180814,0.210948 0.06027,0.11552 0.06027,0.281265 0,0.38674 -0.286288,0.612756 -0.286287,0.220994 -0.778501,0.220994 z"
           style="font-weight:bold;font-family:Raleway;-inkscape-font-specification:Raleway;vector-effect:none;stop-color:#000000;stop-opacity:1"
           id="path105" /><path
           d="m 44.322421,57.542516 q -0.316424,0 -0.572576,-0.105474 -0.256152,-0.110497 -0.436965,-0.296333 -0.180813,-0.185836 -0.281265,-0.431943 -0.09543,-0.246106 -0.09543,-0.517326 0,-0.281265 0.09543,-0.527372 0.09543,-0.25113 0.276242,-0.436966 0.180814,-0.190858 0.436966,-0.301355 0.261174,-0.110497 0.58262,-0.110497 0.321446,0 0.572575,0.110497 0.256153,0.110497 0.431943,0.296333 0.180813,0.185836 0.27122,0.431942 0.09543,0.246107 0.09543,0.512305 0,0.06529 -0.005,0.125564 0,0.06027 -0.01004,0.100452 h -2.034149 q 0.01507,0.155701 0.07534,0.276243 0.06027,0.120542 0.155701,0.205926 0.09543,0.08538 0.215971,0.130587 0.120542,0.0452 0.25113,0.0452 0.200903,0 0.376694,-0.09543 0.180813,-0.100451 0.246107,-0.261174 l 0.577598,0.160723 q -0.145655,0.301355 -0.467101,0.497236 -0.316423,0.190858 -0.758411,0.190858 z m 0.683072,-1.587138 q -0.02511,-0.296333 -0.220994,-0.472124 -0.190859,-0.180813 -0.467101,-0.180813 -0.13561,0 -0.256152,0.05023 -0.11552,0.0452 -0.205926,0.130587 -0.09041,0.08538 -0.150678,0.205927 -0.05525,0.120542 -0.06529,0.266197 z"
           style="font-weight:bold;font-family:Raleway;-inkscape-font-specification:Raleway;vector-effect:none;stop-color:#000000;stop-opacity:1"
           id="path106" /><path
           d="m 47.667453,57.356681 q -0.13561,0.06027 -0.331491,0.120542 -0.195881,0.06027 -0.411853,0.06027 -0.140632,0 -0.266197,-0.03516 -0.120542,-0.03516 -0.215971,-0.110497 -0.09041,-0.08036 -0.145655,-0.200904 -0.05525,-0.125565 -0.05525,-0.301355 v -1.5118 H 45.894477 V 54.86045 h 0.346559 v -0.85384 h 0.673027 v 0.85384 h 0.552485 v 0.517327 h -0.552485 v 1.285783 q 0,0.140633 0.07032,0.200904 0.07534,0.05525 0.180814,0.05525 0.105474,0 0.205926,-0.03516 0.100452,-0.03516 0.160723,-0.06027 z"
           style="font-weight:bold;font-family:Raleway;-inkscape-font-specification:Raleway;vector-effect:none;stop-color:#000000;stop-opacity:1"
           id="path107" /><path
           d="m 50.028064,57.542516 q -0.40683,0 -0.617778,-0.261174 -0.210949,-0.261175 -0.210949,-0.773479 v -1.64741 h 0.673027 v 1.501755 q 0,0.607733 0.436965,0.607733 0.195881,0 0.376694,-0.115519 0.185836,-0.120543 0.301356,-0.361627 v -1.632342 h 0.673027 v 1.858359 q 0,0.105474 0.03516,0.150677 0.04018,0.0452 0.125565,0.05023 v 0.572575 q -0.100452,0.02009 -0.170768,0.02511 -0.06529,0.005 -0.120542,0.005 -0.180814,0 -0.296333,-0.08036 -0.110497,-0.08538 -0.130588,-0.23104 l -0.01507,-0.210948 q -0.175791,0.27122 -0.452033,0.406829 -0.276243,0.13561 -0.607734,0.13561 z"
           style="font-weight:bold;font-family:Raleway;-inkscape-font-specification:Raleway;vector-effect:none;stop-color:#000000;stop-opacity:1"
           id="path108" /><path
           d="m 53.905494,57.542516 q -0.311401,0 -0.54244,-0.13561 -0.231039,-0.140632 -0.361627,-0.376694 v 1.53189 H 52.3284 v -3.701649 h 0.587643 v 0.452033 q 0.145655,-0.231039 0.376695,-0.361626 0.231039,-0.13561 0.532394,-0.13561 0.266197,0 0.492214,0.110497 0.226017,0.105474 0.386739,0.29131 0.165746,0.180813 0.256152,0.431943 0.09543,0.246107 0.09543,0.522349 0,0.286288 -0.08538,0.537417 -0.08538,0.25113 -0.241085,0.436966 -0.150677,0.185836 -0.361626,0.29131 -0.210949,0.105474 -0.462078,0.105474 z m -0.226017,-0.572575 q 0.150678,0 0.276242,-0.06529 0.130588,-0.06529 0.220994,-0.17579 0.09041,-0.110497 0.140633,-0.256152 0.05023,-0.145655 0.05023,-0.301356 0,-0.165745 -0.05525,-0.306378 -0.05525,-0.145655 -0.1557,-0.251129 -0.09543,-0.105475 -0.231039,-0.165746 -0.130587,-0.06027 -0.286288,-0.06027 -0.09543,0 -0.195881,0.03516 -0.100452,0.03014 -0.185836,0.09041 -0.08538,0.06027 -0.1557,0.140632 -0.06529,0.08036 -0.100452,0.175791 v 0.617779 q 0.09041,0.226016 0.276243,0.376694 0.185836,0.145655 0.401807,0.145655 z"
           style="font-weight:bold;font-family:Raleway;-inkscape-font-specification:Raleway;vector-effect:none;stop-color:#000000;stop-opacity:1"
           id="path109" /><path
           d="m 57.436367,57.542516 q -0.190859,0 -0.356604,-0.06027 -0.165746,-0.06529 -0.286288,-0.17579 -0.120542,-0.11552 -0.190858,-0.266198 -0.06529,-0.150677 -0.06529,-0.331491 0,-0.185835 0.08036,-0.341536 0.08538,-0.160723 0.231039,-0.27122 0.150677,-0.110497 0.356604,-0.170768 0.205926,-0.06529 0.452033,-0.06529 0.17579,0 0.341536,0.03014 0.170768,0.03014 0.301355,0.08538 v -0.150677 q 0,-0.261175 -0.150677,-0.401808 -0.145655,-0.140632 -0.436966,-0.140632 -0.210949,0 -0.411852,0.07534 -0.200904,0.07534 -0.411853,0.220994 L 56.68298,55.151769 q 0.507282,-0.336513 1.094925,-0.336513 0.567553,0 0.878953,0.281265 0.316423,0.276242 0.316423,0.803614 v 0.818683 q 0,0.105474 0.03516,0.150677 0.04018,0.0452 0.125564,0.05023 V 57.4923 q -0.170768,0.03516 -0.296333,0.03516 -0.190858,0 -0.296332,-0.08538 -0.100452,-0.08538 -0.125565,-0.226017 l -0.01507,-0.145655 q -0.175791,0.231039 -0.42692,0.351581 -0.25113,0.120542 -0.537417,0.120542 z m 0.190858,-0.492213 q 0.170768,0 0.321446,-0.06027 0.1557,-0.06027 0.241084,-0.160722 0.110497,-0.08538 0.110497,-0.190859 v -0.301355 q -0.120542,-0.0452 -0.261174,-0.07032 -0.140633,-0.03014 -0.27122,-0.03014 -0.261175,0 -0.42692,0.120542 -0.165746,0.11552 -0.165746,0.296333 0,0.170768 0.130587,0.286288 0.130588,0.110497 0.321446,0.110497 z"
           style="font-weight:bold;font-family:Raleway;-inkscape-font-specification:Raleway;vector-effect:none;stop-color:#000000;stop-opacity:1"
           id="path110" /><path
           d="m 60.967244,57.49229 v -1.9789 h -0.346559 v -0.512304 h 0.346559 v -0.160723 q 0,-0.492214 0.236062,-0.778502 0.236061,-0.286287 0.642891,-0.286287 0.321446,0 0.647914,0.1557 l -0.13561,0.507282 q -0.07534,-0.04018 -0.180813,-0.06529 -0.100452,-0.03014 -0.185836,-0.03014 -0.351581,0 -0.351581,0.472124 v 0.185836 h 0.642892 v 0.512304 h -0.642892 v 1.9789 z"
           style="font-weight:bold;font-family:Raleway;-inkscape-font-specification:Raleway;vector-effect:none;stop-color:#000000;stop-opacity:1"
           id="path111" /><path
           d="m 63.754771,57.542516 q -0.316423,0 -0.572576,-0.105474 -0.256152,-0.110497 -0.436965,-0.296333 -0.180813,-0.185836 -0.281265,-0.431943 -0.09543,-0.246106 -0.09543,-0.517326 0,-0.281265 0.09543,-0.527372 0.09543,-0.25113 0.276243,-0.436966 0.180813,-0.190858 0.436965,-0.301355 0.261175,-0.110497 0.58262,-0.110497 0.321446,0 0.572576,0.110497 0.256152,0.110497 0.431942,0.296333 0.180814,0.185836 0.27122,0.431942 0.09543,0.246107 0.09543,0.512305 0,0.06529 -0.005,0.125564 0,0.06027 -0.01005,0.100452 h -2.034149 q 0.01507,0.155701 0.07534,0.276243 0.06027,0.120542 0.1557,0.205926 0.09543,0.08538 0.215971,0.130587 0.120542,0.0452 0.25113,0.0452 0.200903,0 0.376694,-0.09543 0.180813,-0.100451 0.246107,-0.261174 l 0.577598,0.160723 q -0.145655,0.301355 -0.467101,0.497236 -0.316423,0.190858 -0.758411,0.190858 z m 0.683072,-1.587138 q -0.02511,-0.296333 -0.220994,-0.472124 -0.190858,-0.180813 -0.467101,-0.180813 -0.13561,0 -0.256152,0.05023 -0.115519,0.0452 -0.205926,0.130587 -0.09041,0.08538 -0.150678,0.205927 -0.05525,0.120542 -0.06529,0.266197 z"
           style="font-weight:bold;font-family:Raleway;-inkscape-font-specification:Raleway;vector-effect:none;stop-color:#000000;stop-opacity:1"
           id="path112" /><path
           d="m 68.737167,54.860453 h 0.637869 L 68.275089,57.49229 H 67.722604 L 67.270571,56.337095 66.82356,57.49229 H 66.271075 L 65.17615,54.860453 h 0.632847 l 0.783524,1.998991 0.321446,-0.85384 -0.462079,-1.140128 h 0.54244 l 0.276243,0.808637 0.281265,-0.808637 h 0.542439 l -0.457055,1.140128 0.316423,0.85384 z"
           style="font-weight:bold;font-family:Raleway;-inkscape-font-specification:Raleway;vector-effect:none;stop-color:#000000;stop-opacity:1"
           id="path113" /><path
           d="m 72.333333,57.356681 q -0.13561,0.06027 -0.331491,0.120542 -0.195881,0.06027 -0.411853,0.06027 -0.140632,0 -0.266197,-0.03516 -0.120542,-0.03516 -0.215971,-0.110497 -0.09041,-0.08036 -0.145655,-0.200904 -0.05525,-0.125565 -0.05525,-0.301355 v -1.5118 H 70.560358 V 54.86045 h 0.346558 v -0.85384 h 0.673027 v 0.85384 h 0.552485 v 0.517327 h -0.552485 v 1.285783 q 0,0.140633 0.07032,0.200904 0.07534,0.05525 0.180813,0.05525 0.105474,0 0.205926,-0.03516 0.100452,-0.03516 0.160723,-0.06027 z"
           style="font-weight:bold;font-family:Raleway;-inkscape-font-specification:Raleway;vector-effect:none;stop-color:#000000;stop-opacity:1"
           id="path114" /><path
           d="m 75.13091,57.49229 h -0.673027 v -1.476641 q 0,-0.311401 -0.11552,-0.457056 -0.115519,-0.150677 -0.326468,-0.150677 -0.09041,0 -0.190859,0.04018 -0.100451,0.04018 -0.190858,0.11552 -0.09041,0.07032 -0.165745,0.170768 -0.07534,0.100452 -0.110497,0.220994 V 57.49229 H 72.684909 V 53.8258 h 0.673027 v 1.521844 q 0.145655,-0.256152 0.391762,-0.391762 0.251129,-0.140632 0.552485,-0.140632 0.256152,0 0.416875,0.09041 0.160722,0.08538 0.251129,0.231039 0.09041,0.145655 0.125565,0.331491 0.03516,0.185835 0.03516,0.381717 z"
           style="font-weight:bold;font-family:Raleway;-inkscape-font-specification:Raleway;vector-effect:none;stop-color:#000000;stop-opacity:1"
           id="path115" /><path
           d="m 75.718543,57.49229 v -2.631837 h 0.673027 v 2.631837 z m 0,-2.998486 V 53.8258 h 0.673027 v 0.668004 z"
           style="font-weight:bold;font-family:Raleway;-inkscape-font-specification:Raleway;vector-effect:none;stop-color:#000000;stop-opacity:1"
           id="path116" /><path
           d="m 79.445302,57.49229 h -0.673027 v -1.476641 q 0,-0.316423 -0.110497,-0.462078 -0.110497,-0.145655 -0.306378,-0.145655 -0.100452,0 -0.205926,0.04018 -0.105475,0.04018 -0.200904,0.11552 -0.09041,0.07032 -0.165745,0.170768 -0.07534,0.100452 -0.110497,0.220994 v 1.536912 h -0.673027 v -2.631837 h 0.607733 v 0.487191 q 0.145655,-0.251129 0.421898,-0.391762 0.276242,-0.140632 0.622801,-0.140632 0.246107,0 0.401807,0.09041 0.1557,0.09041 0.241084,0.236061 0.08538,0.145655 0.11552,0.331491 0.03516,0.185836 0.03516,0.376695 z"
           style="font-weight:bold;font-family:Raleway;-inkscape-font-specification:Raleway;vector-effect:none;stop-color:#000000;stop-opacity:1"
           id="path117" /><path
           d="m 81.062566,57.507358 q -0.266198,0 -0.482169,-0.105474 -0.215971,-0.105475 -0.376694,-0.286288 -0.1557,-0.185836 -0.241084,-0.42692 -0.08539,-0.241084 -0.08539,-0.512304 0,-0.286288 0.09041,-0.532395 0.09041,-0.246107 0.25113,-0.431942 0.160722,-0.185836 0.386739,-0.291311 0.226017,-0.105474 0.497236,-0.105474 0.306378,0 0.537418,0.140632 0.231039,0.13561 0.381716,0.36665 v -0.462079 h 0.587644 v 2.506273 q 0,0.29131 -0.110497,0.522349 -0.110497,0.231039 -0.306378,0.391762 -0.190859,0.160723 -0.462079,0.246107 -0.266197,0.08538 -0.58262,0.08538 -0.431943,0 -0.728276,-0.145655 -0.29131,-0.140633 -0.502259,-0.401807 l 0.366649,-0.356604 q 0.150678,0.185836 0.376695,0.29131 0.231039,0.105474 0.487191,0.105474 0.1557,0 0.296333,-0.0452 0.145655,-0.04018 0.256152,-0.130587 0.110497,-0.09041 0.170768,-0.231039 0.06529,-0.140633 0.06529,-0.331491 v -0.331491 q -0.130587,0.226016 -0.366649,0.351581 -0.236061,0.120542 -0.507281,0.120542 z m 0.226016,-0.537417 q 0.110497,0 0.210949,-0.03516 0.100452,-0.03516 0.185836,-0.09543 0.08538,-0.06027 0.150678,-0.140633 0.06529,-0.08036 0.100451,-0.170768 v -0.627824 q -0.09041,-0.231039 -0.286287,-0.371671 -0.190859,-0.140633 -0.401807,-0.140633 -0.155701,0 -0.281265,0.07032 -0.125565,0.06529 -0.215972,0.180814 -0.09041,0.110497 -0.140632,0.256152 -0.0452,0.145655 -0.0452,0.301355 0,0.160723 0.05525,0.301356 0.05525,0.140632 0.150678,0.246107 0.100451,0.105474 0.231039,0.165745 0.130587,0.06027 0.286287,0.06027 z"
           style="font-weight:bold;font-family:Raleway;-inkscape-font-specification:Raleway;vector-effect:none;stop-color:#000000;stop-opacity:1"
           id="path118" /><path
           d="m 84.211722,57.542516 q -0.331491,0 -0.647914,-0.105474 -0.316423,-0.105474 -0.54244,-0.301355 l 0.25113,-0.421898 q 0.241084,0.170768 0.467101,0.261175 0.231039,0.08538 0.457056,0.08538 0.200903,0 0.316423,-0.07534 0.115519,-0.07534 0.115519,-0.215971 0,-0.140633 -0.13561,-0.205927 -0.13561,-0.06529 -0.441988,-0.150677 -0.256152,-0.07032 -0.436965,-0.13561 -0.180813,-0.06529 -0.29131,-0.145655 -0.110497,-0.08538 -0.160723,-0.190859 -0.05023,-0.110497 -0.05023,-0.261175 0,-0.200903 0.07534,-0.361626 0.08036,-0.160723 0.220994,-0.27122 0.140632,-0.115519 0.326468,-0.175791 0.190859,-0.06027 0.411853,-0.06027 0.296333,0 0.552485,0.08538 0.261174,0.08538 0.477146,0.276243 l -0.27122,0.40683 q -0.200904,-0.150678 -0.391762,-0.220994 -0.185836,-0.07032 -0.371672,-0.07032 -0.170768,0 -0.286288,0.07032 -0.115519,0.07032 -0.115519,0.226016 0,0.07032 0.02511,0.11552 0.03014,0.0452 0.09041,0.08036 0.06027,0.03516 0.155701,0.07032 0.100452,0.03013 0.246107,0.06529 0.27122,0.07032 0.462078,0.140633 0.195881,0.07032 0.316423,0.160723 0.125565,0.09041 0.180813,0.210948 0.06027,0.11552 0.06027,0.281265 0,0.38674 -0.286287,0.612756 -0.286288,0.220994 -0.778502,0.220994 z"
           style="font-weight:bold;font-family:Raleway;-inkscape-font-specification:Raleway;vector-effect:none;stop-color:#000000;stop-opacity:1"
           id="path119" /><path
           d="m 85.698409,57.49229 v -0.723252 h 0.552485 v 0.723252 z"
           style="font-weight:bold;font-family:Raleway;-inkscape-font-specification:Raleway;vector-effect:none;stop-color:#000000;stop-opacity:1"
           id="path120" /><path
           d="m 86.828483,57.49229 v -0.723252 h 0.552484 v 0.723252 z"
           style="font-weight:bold;font-family:Raleway;-inkscape-font-specification:Raleway;vector-effect:none;stop-color:#000000;stop-opacity:1"
           id="path121" /><path
           d="m 87.95856,57.49229 v -0.723252 h 0.552485 v 0.723252 z"
           style="font-weight:bold;font-family:Raleway;-inkscape-font-specification:Raleway;vector-effect:none;stop-color:#000000;stop-opacity:1"
           id="path122" /></g></g></g></svg>
