<?xml version="1.0" encoding="UTF-8" standalone="no"?>
<svg
   version="1.1"
   id="svg1"
   width="16"
   height="16"
   viewBox="0 0 16 16"
   sodipodi:docname="document-import-web-symbolic.svg"
   inkscape:version="1.2-alpha1 (ae5399be7c, 2022-03-29, custom)"
   xmlns:inkscape="http://www.inkscape.org/namespaces/inkscape"
   xmlns:sodipodi="http://sodipodi.sourceforge.net/DTD/sodipodi-0.dtd"
   xmlns="http://www.w3.org/2000/svg"
   xmlns:svg="http://www.w3.org/2000/svg"
   xmlns:rdf="http://www.w3.org/1999/02/22-rdf-syntax-ns#"
   xmlns:cc="http://creativecommons.org/ns#"
   xmlns:dc="http://purl.org/dc/elements/1.1/">
  <style
     id="s0">
.success { fill:#009909; }
.warning { fill:#FF1990; }
.error { fill:#00AAFF; }
</style>
  <style
     id="s2">
@import '../../highlights.css';
</style>
  <metadata
     id="metadata1675">
    <rdf:RDF>
      <cc:Work
         rdf:about="">
        <dc:format>image/svg+xml</dc:format>
        <dc:type
           rdf:resource="http://purl.org/dc/dcmitype/StillImage" />
      </cc:Work>
    </rdf:RDF>
  </metadata>
  <defs
     id="defs1673" />
  <sodipodi:namedview
     objecttolerance="10"
     gridtolerance="10"
     guidetolerance="10"
     id="namedview"
     showgrid="true"
     inkscape:zoom="31.5625"
     inkscape:cx="7.9841584"
     inkscape:cy="8.4594059"
     inkscape:window-width="2560"
     inkscape:window-height="1295"
     inkscape:window-x="0"
     inkscape:window-y="32"
     inkscape:window-maximized="1"
     inkscape:current-layer="document-import"
     inkscape:document-rotation="0"
     pagecolor="#ffffff"
     bordercolor="#000000"
     borderopacity="0.25"
     inkscape:pageshadow="2"
     inkscape:pageopacity="0.0"
     inkscape:pagecheckerboard="0"
     inkscape:deskcolor="#d1d1d1">
    <inkscape:grid
       type="xygrid"
       id="grid" />
  </sodipodi:namedview>
  <g
     transform="matrix(1,0,0,0.999954,-15,-547.33648)"
     inkscape:label="00002"
     id="document-import">
    <path
       inkscape:connector-curvature="0"
       id="rect29018"
       d="m 15,547.36218 h 16 v 16 H 15 Z"
       style="opacity:0;fill:none" />
    <path
       sodipodi:nodetypes="ccccccccccccccccccccccccc"
       inkscape:connector-curvature="0"
       transform="matrix(1,0,0,1.000046,15,547.36166)"
       d="M 3.8125,0 C 3.3541,0.086996 2.99178,0.53342146 3,1 V 2 5.9999986 H 5 V 2 h 5 v 3 h 3 v 8 H 5 V 10 H 3 v 3 1 c 5e-5,0.523576 0.47642,0.9999 1,1 h 10 c 0.52358,-10e-5 0.99995,-0.476424 1,-1 V 4.5625 C 15.006,4.2984121 14.9025,4.0335413 14.71875,3.84375 l -3.5625,-3.5625 C 10.96647,0.09755845 10.70156,-0.00609972 10.4375,0 H 4 C 3.9688,-9.99954e-4 3.93745,-9.99954e-4 3.90625,0 3.87505,-9.99954e-4 3.8437,-9.99954e-4 3.8125,0 Z"
       style="opacity:1;stroke-width:0.999977"
       id="path29020" />
    <g
       id="circle2345"
       class="warning">
      <path
         style="color:#000000;fill:#ffffff;fill-rule:evenodd;stroke-width:2.00004;-inkscape-stroke:none"
         d="M 23.99998,554.862 A 3.49998,3.5001838 0 0 1 20.5,558.36218 3.49998,3.5001838 0 0 1 17.00002,554.862 3.49998,3.5001838 0 0 1 20.5,551.36182 3.49998,3.5001838 0 0 1 23.99998,554.862 Z"
         id="path7062" />
      <path
         style="color:#000000;fill:#000000;fill-rule:evenodd;-inkscape-stroke:none"
         d="m 20.5,550.36133 c -2.473466,0 -4.5,2.02648 -4.5,4.5 0,2.47351 2.026534,4.5 4.5,4.5 2.473466,0 4.5,-2.02649 4.5,-4.5 0,-2.47352 -2.026534,-4.5 -4.5,-4.5 z m 0,2 c 1.392502,0 2.5,1.10732 2.5,2.5 0,1.39268 -1.107498,2.5 -2.5,2.5 -1.392502,0 -2.5,-1.10732 -2.5,-2.5 0,-1.39268 1.107498,-2.5 2.5,-2.5 z"
         id="path7064" />
    </g>
  </g>
</svg>
