<?xml version="1.0" encoding="UTF-8" standalone="no"?>
<!-- Created with Inkscape (http://www.inkscape.org/) and export_objects.py -->

<svg
   version="1.1"
   id="svg1"
   width="16"
   height="16"
   viewBox="0 0 16 16"
   sodipodi:docname="pages-remove-symbolic.svg"
   inkscape:version="1.1.1 (3bf5ae0d25, 2021-09-20, custom)"
   xmlns:inkscape="http://www.inkscape.org/namespaces/inkscape"
   xmlns:sodipodi="http://sodipodi.sourceforge.net/DTD/sodipodi-0.dtd"
   xmlns="http://www.w3.org/2000/svg"
   xmlns:svg="http://www.w3.org/2000/svg">
  <defs
     id="defs8">
    <inkscape:path-effect
       effect="join_type"
       id="path-effect848-3"
       is_visible="true"
       lpeversion="1"
       linecap_type="butt"
       line_width="2"
       linejoin_type="round"
       miter_limit="100"
       attempt_force_join="true" />
    <inkscape:path-effect
       effect="join_type"
       id="path-effect2697"
       is_visible="false"
       lpeversion="1"
       linecap_type="butt"
       line_width="1"
       linejoin_type="round"
       miter_limit="100"
       attempt_force_join="true" />
  </defs>
  <sodipodi:namedview
     objecttolerance="10"
     gridtolerance="10"
     guidetolerance="10"
     id="namedview"
     showgrid="true"
     inkscape:zoom="38.653996"
     inkscape:cx="8.899468"
     inkscape:cy="5.018886"
     inkscape:window-width="1920"
     inkscape:window-height="1163"
     inkscape:window-x="1200"
     inkscape:window-y="533"
     inkscape:window-maximized="1"
     inkscape:current-layer="snap-page-7"
     pagecolor="#ffffff"
     bordercolor="#666666"
     borderopacity="1.0"
     inkscape:pageshadow="2"
     inkscape:pageopacity="0.0"
     inkscape:pagecheckerboard="0"
     inkscape:snap-grids="true"
     inkscape:snap-to-guides="false">
    <inkscape:grid
       type="xygrid"
       id="grid"
       spacingx="0.5"
       spacingy="0.5"
       empspacing="2" />
  </sodipodi:namedview>
  <g
     transform="translate(-979,-527.3622)"
     inkscape:label="00334"
     id="snap-page">
    <g
       id="snap-page-7"
       inkscape:label="00334">
      <path
         class="base"
         inkscape:label="star out"
         inkscape:connector-curvature="0"
         d="m 989,542.3622 h 4 a 1,1 0 0 0 1,-1 v -9.00398 a 1,1 0 0 0 -0.31333,-0.72697 l -3.1775,-3.00132 a 1,1 0 0 0 -0.68667,-0.27303 h -6.81634 a 1,1 0 0 0 -1,0.99863 l -0.006,4.5053 a 1,1 0 1 0 2,0.003 l 0.006,-4.5053 -1,0.99863 h 6.81634 l -0.68667,-0.27303 3.1775,3.00132 L 992,532.35822 v 9.00398 l 1,-1 h -4 a 1,1 0 1 0 0,2 z"
         id="polygon1138"
         sodipodi:nodetypes="cccccc"
         style=""
         inkscape:original-d="m 989,541.3622 h 4 v -9.00398 l -3.1775,-3.00132 h -6.81634 L 983,533.8622"
         inkscape:path-effect="#path-effect1916" />
      <path
         d="m 985.29289,535.65509 -5,5 a 1,1 0 1 0 1.41422,1.41422 l 5,-5 a 1,1 0 1 0 -1.41422,-1.41422 z"
         id="path1495"
         inkscape:path-effect="#path-effect1497"
         inkscape:original-d="m 986,536.3622 -5,5"
         sodipodi:nodetypes="cc"
         class="warning " />
      <path
         style=""
         d="m 986.70711,540.65509 -5,-5 a 1,1 0 1 0 -1.41422,1.41422 l 5,5 a 1,1 0 1 0 1.41422,-1.41422 z"
         id="path1716"
         inkscape:path-effect="#path-effect1720"
         inkscape:original-d="m 986,541.3622 -5,-5"
         sodipodi:nodetypes="cc"
         class="warning" />
      <g
         id="g1381"
         transform="translate(1)">
        <path
           d="m 988,529.3622 v 3 a 1,1 0 0 0 1,1 h 3 v -2 h -3 l 1,1 v -3 z"
           id="path845"
           inkscape:path-effect="#path-effect848-3"
           inkscape:original-d="m 989,529.3622 v 3 h 3"
           sodipodi:nodetypes="ccc" />
      </g>
    </g>
  </g>
  <style
     id="s2"> 
     @import '../../highlights.css'; 
  </style>
  <style
     id="s0-6">
   .success { fill: #009909; }
   .warning { fill: #FF1990; }
   .error   { fill: #00AAFF; }
  </style>
</svg>
