<?xml version="1.0" encoding="UTF-8" standalone="no"?>
<svg
   inkscape:version="1.3-dev (132e1ceb82, 2022-11-12, custom)"
   sodipodi:docname="tool-symbol-symbolic.svg"
   viewBox="0 0 16 16"
   height="16"
   width="16"
   id="svg1"
   version="1.1"
   xmlns:inkscape="http://www.inkscape.org/namespaces/inkscape"
   xmlns:sodipodi="http://sodipodi.sourceforge.net/DTD/sodipodi-0.dtd"
   xmlns="http://www.w3.org/2000/svg"
   xmlns:svg="http://www.w3.org/2000/svg"
   xmlns:rdf="http://www.w3.org/1999/02/22-rdf-syntax-ns#"
   xmlns:cc="http://creativecommons.org/ns#"
   xmlns:dc="http://purl.org/dc/elements/1.1/">
  <style
     id="s0">.success { fill: #009909; }
.warning { fill: #FF1990; }
.error { fill: #00AAFF; }
</style>
  <style
     id="s2"> 
     @import '../../highlights.css'; 
  </style>
  <metadata
     id="metadata199">
    <rdf:RDF>
      <cc:Work
         rdf:about="">
        <dc:format>image/svg+xml</dc:format>
        <dc:type
           rdf:resource="http://purl.org/dc/dcmitype/StillImage" />
      </cc:Work>
    </rdf:RDF>
  </metadata>
  <defs
     id="defs197">
    <inkscape:path-effect
       effect="offset"
       id="path-effect3"
       is_visible="true"
       lpeversion="1.2"
       linejoin_type="extrp_arc"
       unit="mm"
       offset="0.43344735"
       miter_limit="4"
       attempt_force_join="false"
       update_on_knot_move="true" />
    <inkscape:path-effect
       effect="mirror_symmetry"
       start_point="1133.2329,598.7693"
       end_point="1133.2329,617.52524"
       center_point="1133.2329,608.14727"
       id="path-effect2"
       is_visible="true"
       lpeversion="1.2"
       lpesatellites=""
       mode="free"
       discard_orig_path="false"
       fuse_paths="true"
       oposite_fuse="false"
       split_items="false"
       split_open="false"
       link_styles="false" />
    <inkscape:path-effect
       effect="bspline"
       id="path-effect1"
       is_visible="true"
       lpeversion="1"
       weight="33.333333"
       steps="2"
       helper_size="0"
       apply_no_weight="true"
       apply_with_weight="true"
       only_selected="false" />
    <inkscape:path-effect
       effect="mirror_symmetry"
       start_point="8.0000297,12"
       end_point="8.0000297,16"
       center_point="8.0000297,14"
       id="path-effect1306"
       is_visible="true"
       lpeversion="1.1"
       mode="free"
       discard_orig_path="false"
       fuse_paths="false"
       oposite_fuse="false"
       split_items="false"
       split_open="false" />
    <inkscape:path-effect
       effect="mirror_symmetry"
       start_point="1132.7494,587.1121"
       end_point="1132.7494,603.61226"
       center_point="1132.7494,595.36218"
       id="path-effect1114"
       is_visible="true"
       lpeversion="1.1"
       mode="free"
       discard_orig_path="false"
       fuse_paths="false"
       oposite_fuse="false"
       split_items="false"
       split_open="false" />
  </defs>
  <sodipodi:namedview
     inkscape:snap-global="true"
     inkscape:document-rotation="0"
     inkscape:current-layer="align-horizontal-center"
     inkscape:window-maximized="1"
     inkscape:window-y="32"
     inkscape:window-x="0"
     inkscape:window-height="1011"
     inkscape:window-width="1920"
     inkscape:cy="8.9808874"
     inkscape:cx="6.7080442"
     inkscape:zoom="31.678384"
     showgrid="true"
     id="namedview"
     guidetolerance="10"
     gridtolerance="10"
     objecttolerance="10"
     pagecolor="#ffffff"
     bordercolor="#666666"
     borderopacity="1.0"
     inkscape:pageshadow="2"
     inkscape:pageopacity="1"
     inkscape:pagecheckerboard="0"
     inkscape:snap-intersection-paths="true"
     inkscape:object-paths="true"
     inkscape:snap-smooth-nodes="true"
     inkscape:snap-midpoints="true"
     inkscape:showpageshadow="2"
     inkscape:deskcolor="#d1d1d1">
    <inkscape:grid
       spacingy="1"
       spacingx="1"
       id="grid"
       type="xygrid"
       visible="true" />
  </sodipodi:namedview>
  <g
     id="align-horizontal-center"
     inkscape:label="00271"
     transform="matrix(0.666667,0,0,0.666666,-746.66667,-396.90779)">
    <path
       style="opacity:1;"
       d="m 1128.3398,597.74609 c -2.6827,0.20092 -5.3001,2.2716 -6.082,4.99414 -0.7817,2.72142 0.2273,5.88873 2.1211,8.15235 a 10.378929,10.378929 0 0 0 0.025,0.0312 11.935026,11.935026 0 0 0 0.027,0.0293 c 1.8558,2.07617 4.2539,3.29713 5.918,4.80665 a 10.705855,10.705855 0 0 1 1.7305,2.01367 8.9248637,8.9248637 0 0 1 1.6094,-2.05078 c 1.6204,-1.53482 4.2044,-2.82695 5.9062,-4.80078 a 9.16347,9.16347 0 0 0 0.012,-0.0156 10.394317,10.394317 0 0 0 0.012,-0.0137 c 1.8933,-2.26295 2.9052,-5.42983 2.1231,-8.15235 -0.7819,-2.72282 -3.3993,-4.79322 -6.082,-4.99414 -1.35,-0.10109 -2.5691,0.30547 -3.6602,0.80274 -1.0911,-0.4973 -2.3102,-0.90383 -3.6602,-0.80274 z"
       id="path2"
       sodipodi:nodetypes="ccccccccc"
       inkscape:path-effect="#path-effect3"
       inkscape:original-d="m 1128.5233,600.19634 c -1.7084,0.12795 -3.3887,1.42492 -3.9045,3.22086 -0.5159,1.79594 0.1322,4.08972 1.6456,5.89866 1.649,1.84482 3.9021,2.96014 5.735,4.62273 1.8132,-1.71742 4.2931,-2.95019 5.7351,-4.62273 1.5134,-1.80894 2.1614,-4.10272 1.6455,-5.89866 -0.5157,-1.79594 -2.1944,-3.09291 -3.9028,-3.22086 -1.2071,-0.0904 -2.4289,0.40204 -3.4778,1.0469 -1.0488,-0.64486 -2.269,-1.1373 -3.4761,-1.0469 z" />
    <path
       style="opacity:0;fill:none"
       d="m 1143.9994,595.36229 h -24 v 24 h 24 z"
       id="rect22217"
       inkscape:connector-curvature="0" />
    <path
       style="opacity:1"
       d="m 1128.5233,600.19634 c -1.7084,0.12795 -3.3887,1.42492 -3.9045,3.22086 -0.5159,1.79594 0.1322,4.08972 1.6456,5.89866 1.649,1.84482 3.8434,2.79407 5.735,4.62273 1.8132,-1.71742 4.2931,-2.95019 5.7351,-4.62273 1.5134,-1.80894 2.1614,-4.10272 1.6455,-5.89866 -0.5157,-1.79594 -2.1944,-3.09291 -3.9028,-3.22086 -1.2071,-0.0904 -2.4289,0.40204 -3.4778,1.0469 -1.0488,-0.64486 -2.269,-1.1373 -3.4761,-1.0469 z"
       id="path1"
       sodipodi:nodetypes="ccccccccc"
       class="warning" />
  </g>
</svg>
