<?xml version="1.0" encoding="UTF-8" standalone="no"?>
<!-- Wikimedia Commons, User:Sven. Hand edited. :)-->

<svg
   xmlns:dc="http://purl.org/dc/elements/1.1/"
   xmlns:cc="http://creativecommons.org/ns#"
   xmlns:rdf="http://www.w3.org/1999/02/22-rdf-syntax-ns#"
   xmlns:svg="http://www.w3.org/2000/svg"
   xmlns="http://www.w3.org/2000/svg"
   xmlns:xlink="http://www.w3.org/1999/xlink"
   xmlns:sodipodi="http://sodipodi.sourceforge.net/DTD/sodipodi-0.dtd"
   xmlns:inkscape="http://www.inkscape.org/namespaces/inkscape"
   width="128"
   height="128"
   viewBox="0 0 96.000001 96.000003"
   id="svg2"
   version="1.1"
   inkscape:version="0.92.2 (unknown)"
   sodipodi:docname="addons2.svg"
   inkscape:export-filename="/home/doctormo/Desktop/addons.png"
   inkscape:export-xdpi="152"
   inkscape:export-ydpi="152">
  <metadata
     id="metadata57">
    <rdf:RDF>
      <cc:Work
         rdf:about="">
        <dc:format>image/svg+xml</dc:format>
        <dc:type
           rdf:resource="http://purl.org/dc/dcmitype/StillImage" />
        <dc:title></dc:title>
      </cc:Work>
    </rdf:RDF>
  </metadata>
  <defs
     id="defs55">
    <clipPath
       id="clipPath712">
      <path
         id="path714"
         inkscape:connector-curvature="0"
         d="m 3711.8,1621 c 1.65,2.4 3.19,5 4.64,7.76 l 0.61,0 c 1.34,0 2.67,0.06 3.99,0.19 -2.82,-3.21 -5.89,-5.89 -9.24,-7.95 m -582.76,582.77 c 2.06,3.35 4.74,6.42 7.95,9.24 -0.15,-1.52 -0.21,-3.05 -0.19,-4.6 -2.76,-1.45 -5.36,-2.99 -7.76,-4.64" />
    </clipPath>
    <linearGradient
       id="linearGradient11554"
       gradientUnits="userSpaceOnUse"
       inkscape:collect="always"
       gradientTransform="matrix(152.32,152.32,152.32,-152.32,223.42,72.625)">
      <stop
         id="stop718"
         style="stop-color:#c14d9d"
         offset="0" />
      <stop
         id="stop720"
         style="stop-color:#da45a4"
         offset="1" />
    </linearGradient>
    <clipPath
       id="clipPath680">
      <path
         id="path682"
         inkscape:connector-curvature="0"
         d="m 3752.3,753.38 -13.46,0 0,12.73 13.46,-0.007 0,-12.72" />
    </clipPath>
    <clipPath
       id="clipPath114">
      <path
         id="path116"
         inkscape:connector-curvature="0"
         d="m 3217.1,1932.8 c 19.99,128.64 -54.89,140.42 -95.98,231.75 -5.9,13.11 -7.38,25.56 -3.18,36.77 -1.62,-4.35 -2.39,-8.88 -2.39,-13.56 0.01,-7.4 1.97,-15.18 5.58,-23.21 36.39,-80.89 99.29,-99.38 99.3,-191.94 0,-11.94 -1.05,-25.11 -3.33,-39.81" />
    </clipPath>
    <clipPath
       id="clipPath98">
      <path
         id="path100"
         inkscape:connector-curvature="0"
         d="m 3175.4,1839.8 c 20.92,24.68 35.84,55.66 41.66,92.98 -5.8,-37.25 -20.66,-68.2 -41.53,-92.87 -0.04,-0.03 -0.09,-0.08 -0.13,-0.11" />
    </clipPath>
    <linearGradient
       inkscape:collect="always"
       xlink:href="#linearGradient11554"
       id="linearGradient16646"
       gradientUnits="userSpaceOnUse"
       gradientTransform="matrix(152.32,152.32,152.32,-152.32,223.42,72.625)" />
  </defs>
  <sodipodi:namedview
     pagecolor="#525252"
     bordercolor="#666666"
     borderopacity="1"
     objecttolerance="10"
     gridtolerance="10"
     guidetolerance="10"
     inkscape:pageopacity="0"
     inkscape:pageshadow="2"
     inkscape:window-width="3102"
     inkscape:window-height="1764"
     id="namedview53"
     showgrid="false"
     units="px"
     inkscape:zoom="5.6568542"
     inkscape:cx="107.83079"
     inkscape:cy="42.285295"
     inkscape:window-x="98"
     inkscape:window-y="36"
     inkscape:window-maximized="1"
     inkscape:current-layer="svg2" />
  <style
     type="text/css"
     id="style26">
	.specularity {opacity:0.5;}
	.low-specularity {opacity:0.25;}
	.full-specularity {opacity:1;}
	.black {fill:#000000;}
	.white {fill:#ffffff;}
	.outline-big {stroke-width:16;stroke:none;opacity:0.1;fill:none;}
	.outline-small {stroke-width:8;stroke:none;opacity:0.2;fill:none;}
	.stroke-highlight {fill:none;stroke:none;opacity:0.2;}
       	.base-shadow 	{fill:black;opacity:75;}
	</style>
  <style
     type="text/css"
     id="style26-3" />
  <path
     style="color:#000000;font-style:normal;font-variant:normal;font-weight:normal;font-stretch:normal;font-size:medium;line-height:normal;font-family:sans-serif;text-indent:0;text-align:start;text-decoration:none;text-decoration-line:none;text-decoration-style:solid;text-decoration-color:#000000;letter-spacing:normal;word-spacing:normal;text-transform:none;writing-mode:lr-tb;direction:ltr;baseline-shift:baseline;text-anchor:start;white-space:normal;clip-rule:nonzero;display:inline;overflow:visible;visibility:visible;opacity:1;isolation:auto;mix-blend-mode:normal;color-interpolation:sRGB;color-interpolation-filters:linearRGB;solid-color:#000000;solid-opacity:1;fill:#ffffff;fill-opacity:1;fill-rule:nonzero;stroke:none;stroke-width:7.83048964;stroke-linecap:butt;stroke-linejoin:miter;stroke-miterlimit:4;stroke-dasharray:none;stroke-dashoffset:0;stroke-opacity:1;color-rendering:auto;image-rendering:auto;shape-rendering:auto;text-rendering:auto;enable-background:accumulate"
     d="M 47.201278,1.6086632 C 38.155881,2.2472546 33.855378,11.539389 27.481957,16.657572 l -16.27509,17.474845 v 41.968521 c 10.12207,0.397232 20.672388,-0.577111 30.467787,0.424582 -5.029107,4.330492 -4.440529,12.84409 1.28608,16.255711 6.716085,4.753575 16.536402,-2.005393 15.059479,-9.927488 0.09942,-2.605925 -2.695467,-4.57784 -3.104211,-6.50616 10.06717,-0.512782 20.245151,-0.03693 30.367366,-0.229028 -1.393736,-6.037406 2.214441,-14.227738 -3.349096,-18.81554 -4.960489,-2.761657 -8.671847,6.601935 -13.214923,1.825178 -3.647705,-3.40543 -0.09748,-11.096685 4.848349,-8.771777 2.616769,2.997298 8.350914,5.459767 10.62162,0.74346 1.89667,-5.283411 0.582542,-12.534013 0.796312,-18.035083 L 74.392318,22.441176 C 67.217974,15.923169 60.990968,8.0254646 52.905839,2.6604307 51.114328,1.8912029 49.149259,1.5293175 47.201278,1.6086632 Z"
     id="path18660"
     inkscape:connector-curvature="0"
     sodipodi:nodetypes="ccccccccccccccccc" />
  <path
     style="color:#000000;font-style:normal;font-variant:normal;font-weight:normal;font-stretch:normal;font-size:medium;line-height:normal;font-family:sans-serif;text-indent:0;text-align:start;text-decoration:none;text-decoration-line:none;text-decoration-style:solid;text-decoration-color:#000000;letter-spacing:normal;word-spacing:normal;text-transform:none;writing-mode:lr-tb;direction:ltr;baseline-shift:baseline;text-anchor:start;white-space:normal;clip-rule:nonzero;display:inline;overflow:visible;visibility:visible;opacity:1;isolation:auto;mix-blend-mode:normal;color-interpolation:sRGB;color-interpolation-filters:linearRGB;solid-color:#000000;solid-opacity:1;fill:#292929;fill-opacity:1;fill-rule:nonzero;stroke:none;stroke-width:7.83048916;stroke-linecap:butt;stroke-linejoin:miter;stroke-miterlimit:4;stroke-dasharray:none;stroke-dashoffset:0;stroke-opacity:1;color-rendering:auto;image-rendering:auto;shape-rendering:auto;text-rendering:auto;enable-background:accumulate"
     d="m 47.737292,4.7551571 c -2.455633,-0.00335 -4.890607,0.9015902 -6.685859,2.7390881 L 14.363492,34.131977 V 72.97867 h 26.649623 c 3.830026,0.596821 5.287844,2.802384 2.667737,6.376671 -1.384296,1.217014 -2.326482,2.940582 -2.330801,4.910008 -0.0077,3.759915 3.034292,6.816344 6.794206,6.824597 3.75966,0.0089 6.816358,-3.035612 6.824598,-6.795527 0.0039,-1.581777 -0.649992,-2.985692 -1.565759,-4.15554 -3.943754,-4.99205 -1.382209,-6.718824 2.908216,-7.160209 h 25.599175 v -8.470958 c -0.460943,-4.472918 -1.230254,-6.207509 -4.989289,-2.787977 -1.421701,1.112885 -3.126766,1.899007 -5.048747,1.894767 -4.568836,-0.01028 -7.804473,-3.933832 -7.794443,-8.502669 0.01028,-4.568836 3.388373,-8.266925 7.956966,-8.256904 2.393412,0.0054 4.551613,1.28276 6.030486,2.965033 2.349214,1.948259 3.183464,0.616466 3.845027,-1.671464 V 34.131977 L 54.553962,7.4797108 54.539427,7.463855 C 52.66928,5.6683854 50.194248,4.7585896 47.738614,4.7551571 Z"
     id="path5071"
     inkscape:connector-curvature="0" />
  <g
     id="g676"
     transform="matrix(0.01478013,0,0,-0.01478013,-8.9217291,58.409986)"
     style="stroke-width:1.10862482">
    <g
       id="g678"
       clip-path="url(#clipPath680)"
       style="stroke-width:1.10862482">
      <path
         id="path690"
         style="fill:url(#linearGradient16646);stroke-width:1.10862482"
         inkscape:connector-curvature="0"
         d="m 3752.3,753.38 h -13.46 v 12.73 l 13.46,-0.007 v -12.72" />
    </g>
  </g>
  <path
     inkscape:connector-curvature="0"
     style="color:#000000;fill:#292929;fill-opacity:1;stroke-width:0.74702454"
     d="m 47.740569,6.0208323 c -2.140885,-0.00428 -4.26097,0.7727567 -5.797302,2.3452439 L 16.383791,34.521732 c -0.184691,0.228716 -0.344181,0.444029 -0.508005,0.661985 h 26.172767 c 1.596627,-0.04836 3.106093,0.205077 4.141681,1.181834 0.521808,0.49225 0.870407,1.302601 0.743586,2.095189 -0.123203,0.769765 -0.578894,1.442472 -1.260804,2.099138 -0.002,0.0025 -6.74e-4,0.006 -0.0027,0.0079 -1.768925,1.953228 -1.021573,5.549029 1.499009,6.451394 l 0.06711,0.02237 0.0632,0.03291 c 2.745641,1.422255 6.626147,-1.569717 5.752553,-4.564145 -0.06658,-0.213566 -0.353228,-0.693745 -0.738315,-1.214735 -0.387985,-0.524971 -0.853945,-1.106784 -1.234477,-1.747747 -0.380525,-0.640928 -0.742991,-1.39634 -0.561961,-2.301814 0.181045,-0.905578 0.966091,-1.607911 2.003061,-2.007012 l 0.08818,-0.03291 0.09213,-0.01842 c 3.015225,-0.58108 16.224885,-0.350826 27.075602,-0.13165 L 53.6629,8.3660762 C 52.042852,6.8107123 49.881454,6.0251131 47.740569,6.0208323 Z"
     id="path12081" />
  <path
     inkscape:connector-curvature="0"
     style="fill:#ffffff;stroke-width:5.34909868"
     id="path2317"
     d="m 52.118338,10.200681 10.112246,10.270157 c 0.958896,0.979832 0.945582,2.878613 0.409051,3.424655 l -5.020922,-4.016359 -0.98744,5.947484 -4.195201,-2.21461 -6.718031,4.244668 -2.224124,-8.94786 -3.609207,6.244286 h -5.517499 c -2.248856,0 -2.513315,-2.853878 -0.469938,-4.897255 3.569251,-3.852737 7.665518,-7.779674 9.89154,-10.055166 2.237447,-2.2869087 6.135841,-2.2222207 8.329525,0 z" />
</svg>
