<?xml version="1.0" encoding="UTF-8" standalone="no"?>
<svg
   id="svg8"
   version="1.1"
   viewBox="0 0 24 24"
   height="24"
   width="24"
   xmlns="http://www.w3.org/2000/svg"
   xmlns:svg="http://www.w3.org/2000/svg"
   xmlns:rdf="http://www.w3.org/1999/02/22-rdf-syntax-ns#"
   xmlns:cc="http://creativecommons.org/ns#"
   xmlns:dc="http://purl.org/dc/elements/1.1/">
  <defs
     id="defs2" />
  <metadata
     id="metadata5">
    <rdf:RDF>
      <cc:Work
         rdf:about="">
        <dc:format>image/svg+xml</dc:format>
        <dc:type
           rdf:resource="http://purl.org/dc/dcmitype/StillImage" />
      </cc:Work>
    </rdf:RDF>
  </metadata>
  <g
     id="layer1"
     transform="translate(-910,-749.99358)">
    <g
       id="g36648"
       transform="matrix(0.05714284,0,0,0.05671825,922.07286,729.37901)"
       style="stroke-width:17.5655" />
    <g
       id="rect39966" />
    <path
       id="rect5933"
       style="color:#000000;fill:#000000;stroke-dashoffset:15;-inkscape-stroke:none"
       d="m 920.15039,757.99414 c -1.17985,0 -2.15039,0.97054 -2.15039,2.15039 v 8.69922 c 0,1.17986 0.97054,2.15039 2.15039,2.15039 h 8.69922 c 1.17985,0 2.15039,-0.97053 2.15039,-2.15039 v -8.69922 c 0,-1.17985 -0.97054,-2.15039 -2.15039,-2.15039 z m 0,1.29883 h 8.69922 c 0.48214,0 0.84961,0.36942 0.84961,0.85156 v 8.69922 c 0,0.48214 -0.36747,0.84961 -0.84961,0.84961 h -8.69922 c -0.48214,0 -0.84961,-0.36747 -0.84961,-0.84961 v -8.69922 c 0,-0.48214 0.36747,-0.85156 0.84961,-0.85156 z m 3.59961,1.70061 v 2.75 H 921 v 1.5 h 2.75 v 2.75 h 1.5 v -2.75 H 928 v -1.5 h -2.75 v -2.75 z m -9.59961,-9 c -1.17985,0 -2.15039,0.97054 -2.15039,2.15039 v 8.69922 c 0,1.17986 0.97054,2.15039 2.15039,2.15039 H 916 v -1.30078 h -1.84961 c -0.48214,0 -0.84961,-0.36747 -0.84961,-0.84961 v -8.69922 c 0,-0.48214 0.36747,-0.85156 0.84961,-0.85156 h 8.69922 c 0.48214,0 0.84961,0.36942 0.84961,0.85156 v 1.84961 H 925 v -1.84961 c 0,-1.17985 -0.97054,-2.15039 -2.15039,-2.15039 z" />
  </g>
</svg>
