<?xml version="1.0" encoding="UTF-8" standalone="no"?>
<svg
   width="700.00037"
   height="220"
   viewBox="0 0 185.20843 58.208335"
   version="1.1"
   id="svg243962"
   xml:space="preserve"
   xmlns="http://www.w3.org/2000/svg"
   xmlns:svg="http://www.w3.org/2000/svg"><defs
     id="defs243959" /><g
     id="layer2"
     style="font-variation-settings:normal;opacity:1;vector-effect:none;fill:#cbe1fb;fill-opacity:1;stroke-width:0.125564;stroke-linecap:butt;stroke-linejoin:miter;stroke-miterlimit:4;stroke-dasharray:none;stroke-dashoffset:0;stroke-opacity:1;-inkscape-stroke:none;stop-color:#000000;stop-opacity:1"
     transform="translate(-780.83375)"><g
       id="layer3-3-3"
       transform="translate(772.07136,-28.753954)"
       style="font-variation-settings:normal;display:inline;vector-effect:none;fill:#cbe1fb;fill-opacity:1;stroke-width:0.125564;stroke-linecap:butt;stroke-linejoin:miter;stroke-miterlimit:4;stroke-dasharray:none;stroke-dashoffset:0;stroke-opacity:1;-inkscape-stroke:none;stop-color:#000000;stop-opacity:1"><g
         aria-label="Bienvenue!"
         id="text118971-4-0"
         style="font-size:14.1232px;line-height:1.25;font-family:'Roboto Condensed';-inkscape-font-specification:'Roboto Condensed, ';vector-effect:none;stroke-width:0.125564;stop-color:#000000;stop-opacity:1"><path
           d="m 24.359313,45.391071 q 0,0.635544 -0.254218,1.115733 -0.254217,0.480188 -0.70616,0.805022 -0.437819,0.324834 -1.030993,0.494312 -0.579052,0.169478 -1.242842,0.169478 H 16.280842 V 37.948144 h 5.366816 q 0.522559,0 0.946255,0.225971 0.423696,0.225972 0.720283,0.593175 0.296587,0.35308 0.451942,0.819145 0.169479,0.451943 0.169479,0.918008 0,0.734407 -0.367203,1.384074 -0.367204,0.635544 -1.073364,0.946255 0.861516,0.254217 1.355828,0.918008 0.508435,0.649667 0.508435,1.638291 z m -1.963125,-0.367203 q 0,-0.268341 -0.09886,-0.508436 -0.08474,-0.254217 -0.240095,-0.437819 -0.155355,-0.183601 -0.367203,-0.282464 -0.211848,-0.112985 -0.466066,-0.112985 h -2.994118 v 2.641038 H 21.1251 q 0.268341,0 0.494312,-0.09886 0.240094,-0.09886 0.409573,-0.268341 0.169478,-0.183602 0.268341,-0.423696 0.09886,-0.240095 0.09886,-0.508435 z m -4.166344,-5.409186 v 2.528053 h 2.598669 q 0.494312,0 0.833269,-0.338957 0.35308,-0.338957 0.35308,-0.932131 0,-0.579052 -0.324834,-0.918008 -0.31071,-0.338957 -0.776776,-0.338957 z"
           style="font-weight:bold;font-family:Raleway;-inkscape-font-specification:Raleway;vector-effect:none;stop-color:#000000;stop-opacity:1"
           id="path482" /><path
           d="m 25.700995,47.975616 v -7.400557 h 1.892509 v 7.400557 z m 0,-8.43155 V 37.66568 h 1.892509 v 1.878386 z"
           style="font-weight:bold;font-family:Raleway;-inkscape-font-specification:Raleway;vector-effect:none;stop-color:#000000;stop-opacity:1"
           id="path483" /><path
           d="m 32.734337,48.116848 q -0.889762,0 -1.610045,-0.296587 -0.720284,-0.31071 -1.228719,-0.833269 -0.508435,-0.522558 -0.790899,-1.214595 -0.268341,-0.692037 -0.268341,-1.454689 0,-0.7909 0.268341,-1.482936 0.268341,-0.706161 0.776776,-1.228719 0.508435,-0.536682 1.228719,-0.847392 0.734406,-0.31071 1.638291,-0.31071 0.903885,0 1.610045,0.31071 0.720283,0.31071 1.214595,0.833269 0.508435,0.522558 0.762653,1.214595 0.26834,0.692037 0.26834,1.440567 0,0.183601 -0.01412,0.35308 0,0.169478 -0.02825,0.282464 h -5.719896 q 0.04237,0.437819 0.211848,0.776776 0.169478,0.338956 0.437819,0.579051 0.268341,0.240094 0.607298,0.367203 0.338956,0.127109 0.70616,0.127109 0.564928,0 1.05924,-0.268341 0.508435,-0.282464 0.692036,-0.734406 l 1.624168,0.451942 q -0.409572,0.847392 -1.313457,1.398197 -0.889762,0.536681 -2.132602,0.536681 z m 1.920755,-4.462931 q -0.07062,-0.833269 -0.621421,-1.327581 -0.536682,-0.508435 -1.313458,-0.508435 -0.381326,0 -0.720283,0.141232 -0.324833,0.127109 -0.579051,0.367203 -0.254218,0.240095 -0.423696,0.579052 -0.155355,0.338956 -0.183602,0.748529 z"
           style="font-weight:bold;font-family:Raleway;-inkscape-font-specification:Raleway;vector-effect:none;stop-color:#000000;stop-opacity:1"
           id="path484" /><path
           d="m 44.640181,47.975616 h -1.892509 v -4.15222 q 0,-0.889762 -0.31071,-1.299335 -0.310711,-0.409573 -0.861515,-0.409573 -0.282464,0 -0.579052,0.112986 -0.296587,0.112985 -0.564928,0.324833 -0.254217,0.197725 -0.466065,0.480189 -0.211848,0.282464 -0.310711,0.621421 v 4.321699 h -1.892509 v -7.400557 h 1.708908 v 1.369951 q 0.409572,-0.70616 1.186349,-1.10161 0.776776,-0.395449 1.751276,-0.395449 0.692037,0 1.129856,0.254217 0.43782,0.254218 0.677914,0.663791 0.240094,0.409572 0.324834,0.932131 0.09886,0.522558 0.09886,1.05924 z"
           style="font-weight:bold;font-family:Raleway;-inkscape-font-specification:Raleway;vector-effect:none;stop-color:#000000;stop-opacity:1"
           id="path485" /><path
           d="m 48.114449,47.975616 -2.725778,-7.400557 h 1.949002 l 1.878385,5.861129 1.892509,-5.861129 h 1.779524 l -2.725778,7.400557 z"
           style="font-weight:bold;font-family:Raleway;-inkscape-font-specification:Raleway;vector-effect:none;stop-color:#000000;stop-opacity:1"
           id="path486" /><path
           d="m 57.054409,48.116848 q -0.889762,0 -1.610045,-0.296587 -0.720283,-0.31071 -1.228719,-0.833269 -0.508435,-0.522558 -0.790899,-1.214595 -0.268341,-0.692037 -0.268341,-1.454689 0,-0.7909 0.268341,-1.482936 0.268341,-0.706161 0.776776,-1.228719 0.508435,-0.536682 1.228719,-0.847392 0.734406,-0.31071 1.638291,-0.31071 0.903885,0 1.610045,0.31071 0.720283,0.31071 1.214595,0.833269 0.508435,0.522558 0.762653,1.214595 0.268341,0.692037 0.268341,1.440567 0,0.183601 -0.01412,0.35308 0,0.169478 -0.02825,0.282464 H 55.1619 q 0.04237,0.437819 0.211848,0.776776 0.169478,0.338956 0.437819,0.579051 0.268341,0.240094 0.607298,0.367203 0.338957,0.127109 0.70616,0.127109 0.564928,0 1.05924,-0.268341 0.508435,-0.282464 0.692037,-0.734406 l 1.624168,0.451942 q -0.409573,0.847392 -1.313458,1.398197 -0.889762,0.536681 -2.132603,0.536681 z m 1.920755,-4.462931 q -0.07062,-0.833269 -0.621421,-1.327581 -0.536681,-0.508435 -1.313457,-0.508435 -0.381327,0 -0.720284,0.141232 -0.324833,0.127109 -0.579051,0.367203 -0.254218,0.240095 -0.423696,0.579052 -0.155355,0.338956 -0.183602,0.748529 z"
           style="font-weight:bold;font-family:Raleway;-inkscape-font-specification:Raleway;vector-effect:none;stop-color:#000000;stop-opacity:1"
           id="path487" /><path
           d="m 68.960255,47.975616 h -1.892509 v -4.15222 q 0,-0.889762 -0.31071,-1.299335 -0.310711,-0.409573 -0.861515,-0.409573 -0.282464,0 -0.579052,0.112986 -0.296587,0.112985 -0.564928,0.324833 -0.254217,0.197725 -0.466065,0.480189 -0.211848,0.282464 -0.310711,0.621421 v 4.321699 h -1.892509 v -7.400557 h 1.708908 v 1.369951 q 0.409573,-0.70616 1.186349,-1.10161 0.776776,-0.395449 1.751276,-0.395449 0.692037,0 1.129856,0.254217 0.43782,0.254218 0.677914,0.663791 0.240094,0.409572 0.324834,0.932131 0.09886,0.522558 0.09886,1.05924 z"
           style="font-weight:bold;font-family:Raleway;-inkscape-font-specification:Raleway;vector-effect:none;stop-color:#000000;stop-opacity:1"
           id="path488" /><path
           d="m 72.872356,48.116848 q -1.143979,0 -1.737153,-0.734406 -0.593175,-0.734406 -0.593175,-2.174973 v -4.63241 h 1.892509 v 4.222837 q 0,1.708908 1.228719,1.708908 0.550804,0 1.05924,-0.324834 0.522558,-0.338957 0.847392,-1.01687 v -4.590041 h 1.892509 v 5.225585 q 0,0.296587 0.09886,0.423696 0.112986,0.127108 0.35308,0.141232 v 1.610044 q -0.282464,0.05649 -0.480189,0.07062 -0.183601,0.01412 -0.338957,0.01412 -0.508435,0 -0.833268,-0.225972 -0.310711,-0.240094 -0.367204,-0.649667 l -0.04237,-0.593174 q -0.494312,0.762653 -1.271088,1.143979 -0.776776,0.381326 -1.708908,0.381326 z"
           style="font-weight:bold;font-family:Raleway;-inkscape-font-specification:Raleway;vector-effect:none;stop-color:#000000;stop-opacity:1"
           id="path489" /><path
           d="m 82.772693,48.116848 q -0.889761,0 -1.610045,-0.296587 -0.720283,-0.31071 -1.228718,-0.833269 -0.508435,-0.522558 -0.790899,-1.214595 -0.268341,-0.692037 -0.268341,-1.454689 0,-0.7909 0.268341,-1.482936 0.268341,-0.706161 0.776776,-1.228719 0.508435,-0.536682 1.228718,-0.847392 0.734407,-0.31071 1.638292,-0.31071 0.903884,0 1.610044,0.31071 0.720284,0.31071 1.214596,0.833269 0.508435,0.522558 0.762652,1.214595 0.268341,0.692037 0.268341,1.440567 0,0.183601 -0.01412,0.35308 0,0.169478 -0.02825,0.282464 h -5.719897 q 0.04237,0.437819 0.211848,0.776776 0.169479,0.338956 0.43782,0.579051 0.268341,0.240094 0.607297,0.367203 0.338957,0.127109 0.70616,0.127109 0.564928,0 1.05924,-0.268341 0.508436,-0.282464 0.692037,-0.734406 l 1.624168,0.451942 q -0.409573,0.847392 -1.313457,1.398197 -0.889762,0.536681 -2.132603,0.536681 z m 1.920756,-4.462931 q -0.07062,-0.833269 -0.621421,-1.327581 -0.536682,-0.508435 -1.313458,-0.508435 -0.381326,0 -0.720283,0.141232 -0.324834,0.127109 -0.579051,0.367203 -0.254218,0.240095 -0.423696,0.579052 -0.155356,0.338956 -0.183602,0.748529 z"
           style="font-weight:bold;font-family:Raleway;-inkscape-font-specification:Raleway;vector-effect:none;stop-color:#000000;stop-opacity:1"
           id="path490" /><path
           d="m 88.167737,44.204722 v -6.35544 h 1.892509 v 6.35544 z m 0,3.770894 v -2.132603 h 1.892509 v 2.132603 z"
           style="font-weight:bold;font-family:Raleway;-inkscape-font-specification:Raleway;vector-effect:none;stop-color:#000000;stop-opacity:1"
           id="path491" /></g><g
         aria-label="Installons-nous
    confortablement…"
         id="text115541-7-2"
         style="font-size:5.02259px;line-height:1.25;font-family:'Roboto Condensed';-inkscape-font-specification:'Roboto Condensed, ';vector-effect:none;stroke-width:0.125564;stop-color:#000000;stop-opacity:1"><path
           d="m 30.108564,58.711414 v -3.566039 h 0.693118 v 3.566039 z"
           style="font-weight:bold;font-family:Raleway;-inkscape-font-specification:Raleway;vector-effect:none;stop-color:#000000;stop-opacity:1"
           id="path451" /><path
           d="m 33.925729,58.711414 h -0.673027 v -1.476641 q 0,-0.316423 -0.110497,-0.462078 -0.110497,-0.145656 -0.306378,-0.145656 -0.100451,0 -0.205926,0.04018 -0.105474,0.04018 -0.200903,0.11552 -0.09041,0.07032 -0.165746,0.170768 -0.07534,0.100452 -0.110497,0.220994 v 1.536912 h -0.673027 v -2.631837 h 0.607733 v 0.487191 q 0.145656,-0.251129 0.421898,-0.391762 0.276242,-0.140632 0.622801,-0.140632 0.246107,0 0.401807,0.09041 0.155701,0.09041 0.241085,0.236062 0.08538,0.145655 0.115519,0.331491 0.03516,0.185836 0.03516,0.376694 z"
           style="font-weight:bold;font-family:Raleway;-inkscape-font-specification:Raleway;vector-effect:none;stop-color:#000000;stop-opacity:1"
           id="path452" /><path
           d="m 35.507836,58.76164 q -0.331491,0 -0.647914,-0.105474 -0.316423,-0.105475 -0.54244,-0.301356 l 0.25113,-0.421897 q 0.241084,0.170768 0.467101,0.261175 0.231039,0.08538 0.457056,0.08538 0.200903,0 0.316423,-0.07534 0.115519,-0.07534 0.115519,-0.215972 0,-0.140632 -0.13561,-0.205926 -0.13561,-0.06529 -0.441988,-0.150678 -0.256152,-0.07032 -0.436965,-0.135609 -0.180813,-0.06529 -0.29131,-0.145656 -0.110497,-0.08538 -0.160723,-0.190858 -0.05023,-0.110497 -0.05023,-0.261175 0,-0.200903 0.07534,-0.361626 0.08036,-0.160723 0.220994,-0.27122 0.140632,-0.11552 0.326468,-0.175791 0.190859,-0.06027 0.411853,-0.06027 0.296332,0 0.552485,0.08538 0.261174,0.08538 0.477146,0.276243 l -0.27122,0.406829 q -0.200904,-0.150677 -0.391762,-0.220993 -0.185836,-0.07032 -0.371672,-0.07032 -0.170768,0 -0.286288,0.07032 -0.115519,0.07032 -0.115519,0.226016 0,0.07032 0.02511,0.11552 0.03014,0.0452 0.09041,0.08036 0.06027,0.03516 0.155701,0.07032 0.100452,0.03014 0.246107,0.06529 0.27122,0.07032 0.462078,0.140633 0.195881,0.07032 0.316423,0.160722 0.125565,0.09041 0.180813,0.210949 0.06027,0.11552 0.06027,0.281265 0,0.38674 -0.286287,0.612756 -0.286288,0.220994 -0.778502,0.220994 z"
           style="font-weight:bold;font-family:Raleway;-inkscape-font-specification:Raleway;vector-effect:none;stop-color:#000000;stop-opacity:1"
           id="path453" /><path
           d="m 38.586683,58.575804 q -0.13561,0.06027 -0.331491,0.120543 -0.195881,0.06027 -0.411853,0.06027 -0.140632,0 -0.266197,-0.03516 -0.120542,-0.03516 -0.215971,-0.110497 -0.09041,-0.08036 -0.145655,-0.200904 -0.05525,-0.125565 -0.05525,-0.301355 v -1.5118 h -0.346559 v -0.517327 h 0.346559 v -0.85384 h 0.673027 v 0.85384 h 0.552485 v 0.517327 h -0.552485 v 1.285783 q 0,0.140632 0.07032,0.200904 0.07534,0.05525 0.180814,0.05525 0.105474,0 0.205926,-0.03516 0.100452,-0.03516 0.160723,-0.06027 z"
           style="font-weight:bold;font-family:Raleway;-inkscape-font-specification:Raleway;vector-effect:none;stop-color:#000000;stop-opacity:1"
           id="path454" /><path
           d="m 39.656489,58.76164 q -0.190858,0 -0.356604,-0.06027 -0.165745,-0.06529 -0.286287,-0.17579 -0.120543,-0.11552 -0.190859,-0.266198 -0.06529,-0.150677 -0.06529,-0.331491 0,-0.185836 0.08036,-0.341536 0.08538,-0.160723 0.231039,-0.27122 0.150678,-0.110497 0.356604,-0.170768 0.205926,-0.06529 0.452033,-0.06529 0.175791,0 0.341536,0.03014 0.170768,0.03014 0.301356,0.08538 v -0.150678 q 0,-0.261174 -0.150678,-0.401807 -0.145655,-0.140632 -0.436965,-0.140632 -0.210949,0 -0.411853,0.07534 -0.200903,0.07534 -0.411852,0.220993 l -0.205926,-0.42692 q 0.507281,-0.336513 1.094924,-0.336513 0.567553,0 0.878954,0.281265 0.316423,0.276242 0.316423,0.803614 v 0.818682 q 0,0.105475 0.03516,0.150678 0.04018,0.0452 0.125565,0.05023 v 0.572575 q -0.170768,0.03516 -0.296333,0.03516 -0.190859,0 -0.296333,-0.08538 -0.100452,-0.08538 -0.125565,-0.226016 l -0.01507,-0.145655 q -0.17579,0.231039 -0.42692,0.351581 -0.251129,0.120542 -0.537417,0.120542 z m 0.190859,-0.492214 q 0.170768,0 0.321445,-0.06027 0.155701,-0.06027 0.241085,-0.160723 0.110497,-0.08538 0.110497,-0.190858 V 57.55622 q -0.120543,-0.0452 -0.261175,-0.07032 -0.140633,-0.03014 -0.27122,-0.03014 -0.261175,0 -0.42692,0.120542 -0.165746,0.11552 -0.165746,0.296333 0,0.170768 0.130588,0.286287 0.130587,0.110497 0.321446,0.110497 z"
           style="font-weight:bold;font-family:Raleway;-inkscape-font-specification:Raleway;vector-effect:none;stop-color:#000000;stop-opacity:1"
           id="path455" /><path
           d="m 41.816199,55.044924 h 0.673027 v 2.822695 q 0,0.145655 0.07032,0.226017 0.07032,0.08036 0.200903,0.08036 0.06027,0 0.130588,-0.02009 0.07534,-0.02009 0.140632,-0.05023 l 0.09041,0.512304 q -0.13561,0.06529 -0.316423,0.100452 -0.180814,0.03516 -0.326469,0.03516 -0.316423,0 -0.492214,-0.165745 -0.170768,-0.170768 -0.170768,-0.482169 z"
           style="font-weight:bold;font-family:Raleway;-inkscape-font-specification:Raleway;vector-effect:none;stop-color:#000000;stop-opacity:1"
           id="path456" /><path
           d="m 43.408358,55.044924 h 0.673027 v 2.822695 q 0,0.145655 0.07032,0.226017 0.07032,0.08036 0.200904,0.08036 0.06027,0 0.130587,-0.02009 0.07534,-0.02009 0.140632,-0.05023 l 0.09041,0.512304 q -0.13561,0.06529 -0.316423,0.100452 -0.180813,0.03516 -0.326468,0.03516 -0.316424,0 -0.492214,-0.165745 -0.170768,-0.170768 -0.170768,-0.482169 z"
           style="font-weight:bold;font-family:Raleway;-inkscape-font-specification:Raleway;vector-effect:none;stop-color:#000000;stop-opacity:1"
           id="path457" /><path
           d="m 46.221005,58.76164 q -0.321445,0 -0.577597,-0.110497 -0.256153,-0.110497 -0.436966,-0.296333 -0.17579,-0.190858 -0.27122,-0.436965 -0.09543,-0.246107 -0.09543,-0.517327 0,-0.276242 0.09543,-0.522349 0.09543,-0.246107 0.27122,-0.431943 0.180813,-0.190858 0.436966,-0.301355 0.256152,-0.110497 0.577597,-0.110497 0.321446,0 0.572576,0.110497 0.256152,0.110497 0.431942,0.301355 0.180814,0.185836 0.276243,0.431943 0.09543,0.246107 0.09543,0.522349 0,0.27122 -0.09543,0.517327 -0.09543,0.246107 -0.27122,0.436965 -0.175791,0.185836 -0.431943,0.296333 -0.256152,0.110497 -0.577598,0.110497 z m -0.688094,-1.361122 q 0,0.175791 0.05023,0.321446 0.05525,0.140633 0.145656,0.246107 0.09543,0.105474 0.220994,0.165745 0.125564,0.05525 0.271219,0.05525 0.145656,0 0.27122,-0.05525 0.125565,-0.06027 0.215972,-0.165745 0.09543,-0.105474 0.145655,-0.25113 0.05525,-0.145655 0.05525,-0.321445 0,-0.170768 -0.05525,-0.316423 -0.05023,-0.145656 -0.145655,-0.25113 -0.09041,-0.105474 -0.215972,-0.160723 -0.125564,-0.06027 -0.27122,-0.06027 -0.145655,0 -0.271219,0.06027 -0.125565,0.06027 -0.220994,0.165746 -0.09041,0.105474 -0.145656,0.251129 -0.05023,0.145655 -0.05023,0.316423 z"
           style="font-weight:bold;font-family:Raleway;-inkscape-font-specification:Raleway;vector-effect:none;stop-color:#000000;stop-opacity:1"
           id="path458" /><path
           d="m 50.495225,58.711414 h -0.673027 v -1.476641 q 0,-0.316423 -0.110497,-0.462078 -0.110497,-0.145656 -0.306378,-0.145656 -0.100452,0 -0.205926,0.04018 -0.105475,0.04018 -0.200904,0.11552 -0.09041,0.07032 -0.165745,0.170768 -0.07534,0.100452 -0.110497,0.220994 v 1.536912 h -0.673027 v -2.631837 h 0.607733 v 0.487191 q 0.145655,-0.251129 0.421898,-0.391762 0.276242,-0.140632 0.622801,-0.140632 0.246107,0 0.401807,0.09041 0.1557,0.09041 0.241084,0.236062 0.08538,0.145655 0.11552,0.331491 0.03516,0.185836 0.03516,0.376694 z"
           style="font-weight:bold;font-family:Raleway;-inkscape-font-specification:Raleway;vector-effect:none;stop-color:#000000;stop-opacity:1"
           id="path459" /><path
           d="m 52.077331,58.76164 q -0.331491,0 -0.647915,-0.105474 -0.316423,-0.105475 -0.542439,-0.301356 l 0.251129,-0.421897 q 0.241085,0.170768 0.467101,0.261175 0.231039,0.08538 0.457056,0.08538 0.200903,0 0.316423,-0.07534 0.11552,-0.07534 0.11552,-0.215972 0,-0.140632 -0.13561,-0.205926 -0.13561,-0.06529 -0.441988,-0.150678 -0.256152,-0.07032 -0.436966,-0.135609 -0.180813,-0.06529 -0.29131,-0.145656 -0.110497,-0.08538 -0.160723,-0.190858 -0.05023,-0.110497 -0.05023,-0.261175 0,-0.200903 0.07534,-0.361626 0.08036,-0.160723 0.220994,-0.27122 0.140633,-0.11552 0.326469,-0.175791 0.190858,-0.06027 0.411852,-0.06027 0.296333,0 0.552485,0.08538 0.261175,0.08538 0.477146,0.276243 l -0.27122,0.406829 q -0.200904,-0.150677 -0.391762,-0.220993 -0.185836,-0.07032 -0.371672,-0.07032 -0.170768,0 -0.286287,0.07032 -0.11552,0.07032 -0.11552,0.226016 0,0.07032 0.02511,0.11552 0.03014,0.0452 0.09041,0.08036 0.06027,0.03516 0.1557,0.07032 0.100452,0.03014 0.246107,0.06529 0.27122,0.07032 0.462078,0.140633 0.195881,0.07032 0.316423,0.160722 0.125565,0.09041 0.180814,0.210949 0.06027,0.11552 0.06027,0.281265 0,0.38674 -0.286288,0.612756 -0.286288,0.220994 -0.778501,0.220994 z"
           style="font-weight:bold;font-family:Raleway;-inkscape-font-specification:Raleway;vector-effect:none;stop-color:#000000;stop-opacity:1"
           id="path460" /><path
           d="m 53.564017,57.63658 v -0.607733 h 1.521845 v 0.607733 z"
           style="font-weight:bold;font-family:Raleway;-inkscape-font-specification:Raleway;vector-effect:none;stop-color:#000000;stop-opacity:1"
           id="path461" /><path
           d="m 58.124524,58.711414 h -0.673027 v -1.476641 q 0,-0.316423 -0.110497,-0.462078 -0.110497,-0.145656 -0.306378,-0.145656 -0.100452,0 -0.205926,0.04018 -0.105475,0.04018 -0.200904,0.11552 -0.09041,0.07032 -0.165745,0.170768 -0.07534,0.100452 -0.110497,0.220994 v 1.536912 h -0.673027 v -2.631837 h 0.607733 v 0.487191 q 0.145655,-0.251129 0.421898,-0.391762 0.276242,-0.140632 0.622801,-0.140632 0.246107,0 0.401807,0.09041 0.1557,0.09041 0.241084,0.236062 0.08538,0.145655 0.11552,0.331491 0.03516,0.185836 0.03516,0.376694 z"
           style="font-weight:bold;font-family:Raleway;-inkscape-font-specification:Raleway;vector-effect:none;stop-color:#000000;stop-opacity:1"
           id="path462" /><path
           d="m 59.927626,58.76164 q -0.321446,0 -0.577598,-0.110497 -0.256152,-0.110497 -0.436966,-0.296333 -0.17579,-0.190858 -0.271219,-0.436965 -0.09543,-0.246107 -0.09543,-0.517327 0,-0.276242 0.09543,-0.522349 0.09543,-0.246107 0.271219,-0.431943 0.180814,-0.190858 0.436966,-0.301355 0.256152,-0.110497 0.577598,-0.110497 0.321445,0 0.572575,0.110497 0.256152,0.110497 0.431943,0.301355 0.180813,0.185836 0.276242,0.431943 0.09543,0.246107 0.09543,0.522349 0,0.27122 -0.09543,0.517327 -0.09543,0.246107 -0.27122,0.436965 -0.17579,0.185836 -0.431943,0.296333 -0.256152,0.110497 -0.577597,0.110497 z m -0.688095,-1.361122 q 0,0.175791 0.05023,0.321446 0.05525,0.140633 0.145655,0.246107 0.09543,0.105474 0.220994,0.165745 0.125564,0.05525 0.27122,0.05525 0.145655,0 0.271219,-0.05525 0.125565,-0.06027 0.215972,-0.165745 0.09543,-0.105474 0.145655,-0.25113 0.05525,-0.145655 0.05525,-0.321445 0,-0.170768 -0.05525,-0.316423 -0.05023,-0.145656 -0.145655,-0.25113 -0.09041,-0.105474 -0.215972,-0.160723 -0.125564,-0.06027 -0.271219,-0.06027 -0.145656,0 -0.27122,0.06027 -0.125565,0.06027 -0.220994,0.165746 -0.09041,0.105474 -0.145655,0.251129 -0.05023,0.145655 -0.05023,0.316423 z"
           style="font-weight:bold;font-family:Raleway;-inkscape-font-specification:Raleway;vector-effect:none;stop-color:#000000;stop-opacity:1"
           id="path463" /><path
           d="m 62.559457,58.76164 q -0.40683,0 -0.617778,-0.261174 -0.210949,-0.261175 -0.210949,-0.773479 v -1.64741 h 0.673027 v 1.501755 q 0,0.607733 0.436965,0.607733 0.195881,0 0.376695,-0.11552 0.185835,-0.120542 0.301355,-0.361626 v -1.632342 h 0.673027 v 1.858358 q 0,0.105475 0.03516,0.150678 0.04018,0.0452 0.125565,0.05023 v 0.572575 q -0.100452,0.02009 -0.170768,0.02511 -0.06529,0.005 -0.120542,0.005 -0.180814,0 -0.296333,-0.08036 -0.110497,-0.08538 -0.130587,-0.231039 l -0.01507,-0.210948 q -0.175791,0.271219 -0.452033,0.406829 -0.276243,0.13561 -0.607734,0.13561 z"
           style="font-weight:bold;font-family:Raleway;-inkscape-font-specification:Raleway;vector-effect:none;stop-color:#000000;stop-opacity:1"
           id="path464" /><path
           d="m 65.854268,58.76164 q -0.331491,0 -0.647914,-0.105474 -0.316423,-0.105475 -0.54244,-0.301356 l 0.25113,-0.421897 q 0.241084,0.170768 0.467101,0.261175 0.231039,0.08538 0.457055,0.08538 0.200904,0 0.316423,-0.07534 0.11552,-0.07534 0.11552,-0.215972 0,-0.140632 -0.13561,-0.205926 -0.13561,-0.06529 -0.441988,-0.150678 -0.256152,-0.07032 -0.436965,-0.135609 -0.180813,-0.06529 -0.29131,-0.145656 -0.110497,-0.08538 -0.160723,-0.190858 -0.05023,-0.110497 -0.05023,-0.261175 0,-0.200903 0.07534,-0.361626 0.08036,-0.160723 0.220994,-0.27122 0.140632,-0.11552 0.326468,-0.175791 0.190858,-0.06027 0.411852,-0.06027 0.296333,0 0.552485,0.08538 0.261175,0.08538 0.477146,0.276243 l -0.27122,0.406829 q -0.200903,-0.150677 -0.391762,-0.220993 -0.185835,-0.07032 -0.371671,-0.07032 -0.170768,0 -0.286288,0.07032 -0.115519,0.07032 -0.115519,0.226016 0,0.07032 0.02511,0.11552 0.03014,0.0452 0.09041,0.08036 0.06027,0.03516 0.1557,0.07032 0.100452,0.03014 0.246107,0.06529 0.27122,0.07032 0.462079,0.140633 0.195881,0.07032 0.316423,0.160722 0.125565,0.09041 0.180813,0.210949 0.06027,0.11552 0.06027,0.281265 0,0.38674 -0.286287,0.612756 -0.286288,0.220994 -0.778502,0.220994 z"
           style="font-weight:bold;font-family:Raleway;-inkscape-font-specification:Raleway;vector-effect:none;stop-color:#000000;stop-opacity:1"
           id="path465" /><path
           d="m 34.699207,63.879237 q 0,-0.276243 0.09543,-0.52235 0.09543,-0.246107 0.276243,-0.431942 0.180813,-0.185836 0.436965,-0.296333 0.256152,-0.110497 0.577598,-0.110497 0.431943,0 0.733298,0.185836 0.306378,0.185835 0.457056,0.487191 l -0.657959,0.200903 q -0.08538,-0.145655 -0.226017,-0.220993 -0.140632,-0.08036 -0.311401,-0.08036 -0.145655,0 -0.271219,0.06027 -0.125565,0.05525 -0.220994,0.160723 -0.09041,0.100452 -0.145655,0.246107 -0.05023,0.145655 -0.05023,0.321446 0,0.17579 0.05525,0.321446 0.05525,0.145655 0.145655,0.251129 0.09543,0.105474 0.220994,0.165745 0.125565,0.05525 0.266197,0.05525 0.180814,0 0.331491,-0.09041 0.155701,-0.09041 0.215972,-0.220994 l 0.657959,0.200904 q -0.13561,0.301355 -0.44701,0.492214 -0.311401,0.190858 -0.748366,0.190858 -0.321446,0 -0.577598,-0.110497 -0.256152,-0.110497 -0.436966,-0.296333 -0.180813,-0.190858 -0.281265,-0.436965 -0.09543,-0.251129 -0.09543,-0.522349 z"
           style="font-weight:bold;font-family:Raleway;-inkscape-font-specification:Raleway;vector-effect:none;stop-color:#000000;stop-opacity:1"
           id="path466" /><path
           d="m 38.888038,65.245381 q -0.321446,0 -0.577598,-0.110497 -0.256152,-0.110497 -0.436966,-0.296333 -0.17579,-0.190858 -0.271219,-0.436965 -0.09543,-0.246107 -0.09543,-0.517327 0,-0.276242 0.09543,-0.522349 0.09543,-0.246107 0.271219,-0.431943 0.180814,-0.190858 0.436966,-0.301355 0.256152,-0.110497 0.577598,-0.110497 0.321445,0 0.572575,0.110497 0.256152,0.110497 0.431943,0.301355 0.180813,0.185836 0.276242,0.431943 0.09543,0.246107 0.09543,0.522349 0,0.27122 -0.09543,0.517327 -0.09543,0.246107 -0.27122,0.436965 -0.17579,0.185836 -0.431942,0.296333 -0.256153,0.110497 -0.577598,0.110497 z m -0.688095,-1.361122 q 0,0.175791 0.05023,0.321446 0.05525,0.140633 0.145655,0.246107 0.09543,0.105474 0.220994,0.165745 0.125565,0.05525 0.27122,0.05525 0.145655,0 0.27122,-0.05525 0.125564,-0.06027 0.215971,-0.165745 0.09543,-0.105474 0.145655,-0.251129 0.05525,-0.145656 0.05525,-0.321446 0,-0.170768 -0.05525,-0.316423 -0.05023,-0.145656 -0.145655,-0.25113 -0.09041,-0.105474 -0.215971,-0.160723 -0.125565,-0.06027 -0.27122,-0.06027 -0.145655,0 -0.27122,0.06027 -0.125565,0.06027 -0.220994,0.165746 -0.09041,0.105474 -0.145655,0.251129 -0.05023,0.145655 -0.05023,0.316423 z"
           style="font-weight:bold;font-family:Raleway;-inkscape-font-specification:Raleway;vector-effect:none;stop-color:#000000;stop-opacity:1"
           id="path467" /><path
           d="M 43.162257,65.195155 H 42.48923 v -1.476641 q 0,-0.316423 -0.110497,-0.462078 -0.110497,-0.145656 -0.306378,-0.145656 -0.100452,0 -0.205926,0.04018 -0.105474,0.04018 -0.200904,0.11552 -0.09041,0.07032 -0.165745,0.170768 -0.07534,0.100452 -0.110497,0.220994 v 1.536912 h -0.673027 v -2.631837 h 0.607733 v 0.487191 q 0.145655,-0.251129 0.421898,-0.391762 0.276242,-0.140632 0.622801,-0.140632 0.246107,0 0.401807,0.09041 0.1557,0.09041 0.241084,0.236062 0.08539,0.145655 0.11552,0.331491 0.03516,0.185836 0.03516,0.376694 z"
           style="font-weight:bold;font-family:Raleway;-inkscape-font-specification:Raleway;vector-effect:none;stop-color:#000000;stop-opacity:1"
           id="path468" /><path
           d="m 43.885495,65.195155 v -1.9789 h -0.346559 v -0.512304 h 0.346559 v -0.160723 q 0,-0.492214 0.236062,-0.778502 0.236061,-0.286287 0.642891,-0.286287 0.321446,0 0.647914,0.1557 l -0.13561,0.507282 q -0.07534,-0.04018 -0.180813,-0.06529 -0.100452,-0.03014 -0.185836,-0.03014 -0.351581,0 -0.351581,0.472124 v 0.185836 h 0.642892 v 0.512304 h -0.642892 v 1.9789 z"
           style="font-weight:bold;font-family:Raleway;-inkscape-font-specification:Raleway;vector-effect:none;stop-color:#000000;stop-opacity:1"
           id="path469" /><path
           d="m 46.668,65.245381 q -0.321446,0 -0.577598,-0.110497 -0.256152,-0.110497 -0.436965,-0.296333 -0.175791,-0.190858 -0.27122,-0.436965 -0.09543,-0.246107 -0.09543,-0.517327 0,-0.276242 0.09543,-0.522349 0.09543,-0.246107 0.27122,-0.431943 0.180813,-0.190858 0.436965,-0.301355 0.256152,-0.110497 0.577598,-0.110497 0.321446,0 0.572575,0.110497 0.256153,0.110497 0.431943,0.301355 0.180813,0.185836 0.276243,0.431943 0.09543,0.246107 0.09543,0.522349 0,0.27122 -0.09543,0.517327 -0.09543,0.246107 -0.27122,0.436965 -0.175791,0.185836 -0.431943,0.296333 -0.256152,0.110497 -0.577598,0.110497 z m -0.688095,-1.361122 q 0,0.175791 0.05023,0.321446 0.05525,0.140633 0.145655,0.246107 0.09543,0.105474 0.220994,0.165745 0.125565,0.05525 0.27122,0.05525 0.145655,0 0.27122,-0.05525 0.125565,-0.06027 0.215971,-0.165745 0.09543,-0.105474 0.145656,-0.251129 0.05525,-0.145656 0.05525,-0.321446 0,-0.170768 -0.05525,-0.316423 -0.05023,-0.145656 -0.145656,-0.25113 -0.09041,-0.105474 -0.215971,-0.160723 -0.125565,-0.06027 -0.27122,-0.06027 -0.145655,0 -0.27122,0.06027 -0.125564,0.06027 -0.220994,0.165746 -0.09041,0.105474 -0.145655,0.251129 -0.05023,0.145655 -0.05023,0.316423 z"
           style="font-weight:bold;font-family:Raleway;-inkscape-font-specification:Raleway;vector-effect:none;stop-color:#000000;stop-opacity:1"
           id="path470" /><path
           d="m 50.063266,63.145939 q -0.306378,0.005 -0.547462,0.120542 -0.241084,0.110497 -0.346559,0.336513 v 1.592161 h -0.673027 v -2.631837 h 0.617779 v 0.56253 q 0.07032,-0.13561 0.165745,-0.241084 0.09543,-0.110497 0.205927,-0.190859 0.110497,-0.08036 0.220994,-0.120542 0.115519,-0.0452 0.220994,-0.0452 0.05525,0 0.08036,0 0.03014,0 0.05525,0.005 z"
           style="font-weight:bold;font-family:Raleway;-inkscape-font-specification:Raleway;vector-effect:none;stop-color:#000000;stop-opacity:1"
           id="path471" /><path
           d="m 52.017049,65.059545 q -0.13561,0.06027 -0.331491,0.120543 -0.195881,0.06027 -0.411853,0.06027 -0.140632,0 -0.266197,-0.03516 -0.120542,-0.03516 -0.215971,-0.110497 -0.09041,-0.08036 -0.145655,-0.200904 -0.05525,-0.125565 -0.05525,-0.301355 v -1.5118 h -0.346559 v -0.517327 h 0.346559 v -0.85384 h 0.673027 v 0.85384 h 0.552485 v 0.517327 H 51.26366 v 1.285783 q 0,0.140633 0.07032,0.200904 0.07534,0.05525 0.180814,0.05525 0.105474,0 0.205926,-0.03516 0.100452,-0.03516 0.160723,-0.06027 z"
           style="font-weight:bold;font-family:Raleway;-inkscape-font-specification:Raleway;vector-effect:none;stop-color:#000000;stop-opacity:1"
           id="path472" /><path
           d="m 53.086855,65.245381 q -0.190859,0 -0.356604,-0.06027 -0.165746,-0.06529 -0.286288,-0.17579 -0.120542,-0.11552 -0.190858,-0.266198 -0.06529,-0.150677 -0.06529,-0.331491 0,-0.185836 0.08036,-0.341536 0.08538,-0.160723 0.231039,-0.27122 0.150677,-0.110497 0.356604,-0.170768 0.205926,-0.06529 0.452033,-0.06529 0.17579,0 0.341536,0.03013 0.170768,0.03014 0.301355,0.08538 V 63.52765 q 0,-0.261174 -0.150677,-0.401807 -0.145656,-0.140632 -0.436966,-0.140632 -0.210949,0 -0.411852,0.07534 -0.200904,0.07534 -0.411853,0.220994 l -0.205926,-0.426921 q 0.507282,-0.336513 1.094925,-0.336513 0.567553,0 0.878953,0.281265 0.316423,0.276242 0.316423,0.803614 v 0.818682 q 0,0.105475 0.03516,0.150678 0.04018,0.0452 0.125565,0.05023 v 0.572575 q -0.170768,0.03516 -0.296333,0.03516 -0.190858,0 -0.296332,-0.08538 -0.100452,-0.08538 -0.125565,-0.226016 l -0.01507,-0.145655 q -0.175791,0.231039 -0.42692,0.351581 -0.25113,0.120542 -0.537417,0.120542 z m 0.190858,-0.492214 q 0.170768,0 0.321446,-0.06027 0.1557,-0.06027 0.241084,-0.160723 0.110497,-0.08538 0.110497,-0.190858 V 64.03996 q -0.120542,-0.0452 -0.261174,-0.07032 -0.140633,-0.03014 -0.27122,-0.03014 -0.261175,0 -0.42692,0.120542 -0.165746,0.11552 -0.165746,0.296333 0,0.170768 0.130587,0.286287 0.130588,0.110497 0.321446,0.110497 z"
           style="font-weight:bold;font-family:Raleway;-inkscape-font-specification:Raleway;vector-effect:none;stop-color:#000000;stop-opacity:1"
           id="path473" /><path
           d="m 56.748319,65.245381 q -0.301355,0 -0.537417,-0.13561 -0.236062,-0.13561 -0.371671,-0.371671 v 0.457055 h -0.587643 v -3.66649 h 0.673027 v 1.496731 q 0.140632,-0.241084 0.366649,-0.371671 0.231039,-0.13561 0.537417,-0.13561 0.256152,0 0.467101,0.110497 0.210948,0.110497 0.361626,0.296333 0.1557,0.185835 0.236062,0.436965 0.08538,0.251129 0.08538,0.527372 0,0.286288 -0.09543,0.532394 -0.09041,0.246107 -0.256152,0.431943 -0.165746,0.180813 -0.391762,0.286288 -0.226017,0.105474 -0.487192,0.105474 z m -0.185835,-0.572575 q 0.160722,0 0.296332,-0.06027 0.13561,-0.06529 0.23104,-0.170768 0.09543,-0.105475 0.145655,-0.246107 0.05525,-0.140633 0.05525,-0.301355 0,-0.160723 -0.05023,-0.306378 -0.05023,-0.145656 -0.145655,-0.256153 -0.09041,-0.110497 -0.215971,-0.17579 -0.125565,-0.06529 -0.276243,-0.06529 -0.226016,0 -0.40683,0.150678 -0.17579,0.145655 -0.271219,0.361626 v 0.627824 q 0.03516,0.100452 0.100451,0.180813 0.07032,0.08036 0.155701,0.140633 0.08538,0.05525 0.185836,0.09041 0.100451,0.03014 0.195881,0.03014 z"
           style="font-weight:bold;font-family:Raleway;-inkscape-font-specification:Raleway;vector-effect:none;stop-color:#000000;stop-opacity:1"
           id="path474" /><path
           d="m 58.430882,61.528665 h 0.673027 v 2.822695 q 0,0.145655 0.07032,0.226017 0.07032,0.08036 0.200903,0.08036 0.06027,0 0.130588,-0.02009 0.07534,-0.02009 0.140632,-0.05023 l 0.09041,0.512304 q -0.13561,0.06529 -0.316423,0.100452 -0.180813,0.03516 -0.326469,0.03516 -0.316423,0 -0.492213,-0.165745 -0.170768,-0.170768 -0.170768,-0.482169 z"
           style="font-weight:bold;font-family:Raleway;-inkscape-font-specification:Raleway;vector-effect:none;stop-color:#000000;stop-opacity:1"
           id="path475" /><path
           d="m 61.248553,65.245381 q -0.316423,0 -0.572575,-0.105474 -0.256153,-0.110497 -0.436966,-0.296333 -0.180813,-0.185836 -0.281265,-0.431943 -0.09543,-0.246107 -0.09543,-0.517326 0,-0.281266 0.09543,-0.527372 0.09543,-0.25113 0.276243,-0.436966 0.180813,-0.190858 0.436965,-0.301355 0.261175,-0.110497 0.58262,-0.110497 0.321446,0 0.572576,0.110497 0.256152,0.110497 0.431942,0.296333 0.180814,0.185835 0.27122,0.431942 0.09543,0.246107 0.09543,0.512305 0,0.06529 -0.005,0.125564 0,0.06027 -0.01004,0.100452 h -2.034149 q 0.01507,0.1557 0.07534,0.276243 0.06027,0.120542 0.1557,0.205926 0.09543,0.08538 0.215971,0.130587 0.120542,0.0452 0.25113,0.0452 0.200903,0 0.376694,-0.09543 0.180813,-0.100452 0.246107,-0.261174 l 0.577598,0.160722 q -0.145655,0.301356 -0.467101,0.497237 -0.316423,0.190858 -0.758411,0.190858 z m 0.683072,-1.587138 q -0.02511,-0.296333 -0.220994,-0.472124 -0.190858,-0.180813 -0.467101,-0.180813 -0.13561,0 -0.256152,0.05023 -0.115519,0.0452 -0.205926,0.130587 -0.09041,0.08538 -0.150678,0.205926 -0.05525,0.120543 -0.06529,0.266198 z"
           style="font-weight:bold;font-family:Raleway;-inkscape-font-specification:Raleway;vector-effect:none;stop-color:#000000;stop-opacity:1"
           id="path476" /><path
           d="m 67.12498,65.195155 h -0.673028 v -1.476641 q 0,-0.316423 -0.110497,-0.462078 -0.105474,-0.145656 -0.296332,-0.145656 -0.200904,0 -0.376695,0.155701 -0.17579,0.150677 -0.251129,0.396784 v 1.53189 h -0.673027 v -1.476641 q 0,-0.316423 -0.110497,-0.462078 -0.105475,-0.145656 -0.296333,-0.145656 -0.195881,0 -0.376694,0.150678 -0.175791,0.150678 -0.25113,0.396785 v 1.536912 h -0.673027 v -2.631837 h 0.607734 v 0.487191 q 0.145655,-0.256152 0.396784,-0.391762 0.256152,-0.140632 0.582621,-0.140632 0.331491,0 0.512304,0.160723 0.180813,0.160723 0.231039,0.396784 0.160723,-0.27122 0.40683,-0.411852 0.246107,-0.145655 0.56253,-0.145655 0.241084,0 0.396785,0.09041 0.1557,0.09041 0.241084,0.236062 0.08538,0.145655 0.115519,0.331491 0.03516,0.185836 0.03516,0.376694 z"
           style="font-weight:bold;font-family:Raleway;-inkscape-font-specification:Raleway;vector-effect:none;stop-color:#000000;stop-opacity:1"
           id="path477" /><path
           d="m 68.93311,65.245381 q -0.316423,0 -0.572575,-0.105474 -0.256153,-0.110497 -0.436966,-0.296333 -0.180813,-0.185836 -0.281265,-0.431943 -0.09543,-0.246107 -0.09543,-0.517326 0,-0.281266 0.09543,-0.527372 0.09543,-0.25113 0.276243,-0.436966 0.180813,-0.190858 0.436965,-0.301355 0.261175,-0.110497 0.58262,-0.110497 0.321446,0 0.572576,0.110497 0.256152,0.110497 0.431942,0.296333 0.180814,0.185835 0.27122,0.431942 0.09543,0.246107 0.09543,0.512305 0,0.06529 -0.005,0.125564 0,0.06027 -0.01005,0.100452 h -2.034149 q 0.01507,0.1557 0.07534,0.276243 0.06027,0.120542 0.1557,0.205926 0.09543,0.08538 0.215971,0.130587 0.120542,0.0452 0.25113,0.0452 0.200903,0 0.376694,-0.09543 0.180813,-0.100452 0.246107,-0.261174 l 0.577598,0.160722 q -0.145655,0.301356 -0.467101,0.497237 -0.316423,0.190858 -0.758411,0.190858 z m 0.683072,-1.587138 q -0.02511,-0.296333 -0.220994,-0.472124 -0.190858,-0.180813 -0.467101,-0.180813 -0.13561,0 -0.256152,0.05023 -0.115519,0.0452 -0.205926,0.130587 -0.09041,0.08538 -0.150678,0.205926 -0.05525,0.120543 -0.06529,0.266198 z"
           style="font-weight:bold;font-family:Raleway;-inkscape-font-specification:Raleway;vector-effect:none;stop-color:#000000;stop-opacity:1"
           id="path478" /><path
           d="m 73.167148,65.195155 h -0.673027 v -1.476641 q 0,-0.316423 -0.110497,-0.462078 -0.110497,-0.145656 -0.306378,-0.145656 -0.100452,0 -0.205927,0.04018 -0.105474,0.04018 -0.200903,0.11552 -0.09041,0.07032 -0.165746,0.170768 -0.07534,0.100452 -0.110497,0.220994 v 1.536912 h -0.673027 v -2.631837 h 0.607734 v 0.487191 q 0.145655,-0.251129 0.421897,-0.391762 0.276243,-0.140632 0.622801,-0.140632 0.246107,0 0.401808,0.09041 0.1557,0.09041 0.241084,0.236062 0.08538,0.145655 0.115519,0.331491 0.03516,0.185836 0.03516,0.376694 z"
           style="font-weight:bold;font-family:Raleway;-inkscape-font-specification:Raleway;vector-effect:none;stop-color:#000000;stop-opacity:1"
           id="path479" /><path
           d="m 75.306758,65.059545 q -0.13561,0.06027 -0.331491,0.120543 -0.195881,0.06027 -0.411853,0.06027 -0.140632,0 -0.266197,-0.03516 -0.120542,-0.03516 -0.215971,-0.110497 -0.09041,-0.08036 -0.145655,-0.200904 -0.05525,-0.125565 -0.05525,-0.301355 v -1.5118 h -0.346559 v -0.517327 h 0.346559 v -0.85384 h 0.673027 v 0.85384 h 0.552485 v 0.517327 h -0.552485 v 1.285783 q 0,0.140633 0.07032,0.200904 0.07534,0.05525 0.180814,0.05525 0.105474,0 0.205926,-0.03516 0.100452,-0.03516 0.160723,-0.06027 z"
           style="font-weight:bold;font-family:Raleway;-inkscape-font-specification:Raleway;vector-effect:none;stop-color:#000000;stop-opacity:1"
           id="path480" /><path
           d="m 75.643266,65.195155 v -0.723253 h 0.552485 v 0.723253 z m 0.944247,0 v -0.723253 h 0.552485 v 0.723253 z m 0.944247,0 v -0.723253 h 0.552484 v 0.723253 z"
           style="font-weight:bold;font-family:Raleway;-inkscape-font-specification:Raleway;vector-effect:none;stop-color:#000000;stop-opacity:1"
           id="path481" /></g></g></g></svg>
