<?xml version="1.0" encoding="UTF-8" standalone="no"?>
<svg
   width="700.00061"
   height="220"
   viewBox="0 0 185.20849 58.208335"
   version="1.1"
   id="svg243962"
   xml:space="preserve"
   sodipodi:docname="start-welcome-text_ca.svg"
   inkscape:version="1.3-dev (77c38b38a8, 2022-05-06, custom)"
   xmlns:inkscape="http://www.inkscape.org/namespaces/inkscape"
   xmlns:sodipodi="http://sodipodi.sourceforge.net/DTD/sodipodi-0.dtd"
   xmlns="http://www.w3.org/2000/svg"
   xmlns:svg="http://www.w3.org/2000/svg"><sodipodi:namedview
     id="namedview1"
     pagecolor="#ffffff"
     bordercolor="#000000"
     borderopacity="0.25"
     inkscape:showpageshadow="2"
     inkscape:pageopacity="0.0"
     inkscape:pagecheckerboard="0"
     inkscape:deskcolor="#d1d1d1"
     showgrid="false"
     inkscape:zoom="1.0727273"
     inkscape:cx="316.94915"
     inkscape:cy="110.4661"
     inkscape:current-layer="svg243962" /><defs
     id="defs243959" /><path
     id="path65"
     style="font-weight:bold;font-size:12.4857px;line-height:1.25;font-family:Raleway;-inkscape-font-specification:Raleway;font-variation-settings:normal;vector-effect:none;fill:#cbe1fb;fill-opacity:1;stroke-width:0.125564;stroke-linecap:butt;stroke-linejoin:miter;stroke-miterlimit:4;stroke-dasharray:none;stroke-dashoffset:0;stroke-opacity:1;stop-color:#000000"
     d="M 37.053036 7.8641195 L 37.053036 9.5244832 L 38.726318 9.5244832 L 38.726318 7.8641195 L 37.053036 7.8641195 z M 68.142611 7.8641195 L 68.142611 11.584823 C 67.926192 11.210252 67.622257 10.906317 67.231038 10.67325 C 66.848144 10.440185 66.415189 10.323401 65.93241 10.323401 C 65.507896 10.323401 65.116761 10.411117 64.758838 10.585917 C 64.400915 10.760716 64.092901 11.001924 63.834863 11.309904 C 63.576826 11.617884 63.372842 11.975875 63.223014 12.38374 C 63.08151 12.791607 63.010624 13.232718 63.010624 13.707174 C 63.010624 14.18163 63.085589 14.62682 63.235417 15.043009 C 63.393569 15.450876 63.610304 15.808866 63.88499 16.116846 C 64.159675 16.424826 64.488082 16.666033 64.870976 16.840833 C 65.25387 17.015632 65.669994 17.103349 66.119478 17.103349 C 66.568963 17.103349 66.997839 16.999318 67.405705 16.791223 C 67.821894 16.574805 68.150818 16.258633 68.392208 15.842444 L 68.429415 16.254305 C 68.454386 16.495695 68.563013 16.691004 68.75446 16.840833 C 68.945907 16.990661 69.191193 17.065625 69.490849 17.065625 C 69.673972 17.065625 69.9111 17.036558 70.202433 16.978292 L 70.202433 15.555123 C 70.060929 15.546799 69.960977 15.50498 69.90271 15.430066 C 69.844443 15.355152 69.815377 15.230212 69.815377 15.055412 L 69.815377 7.8641195 L 68.142611 7.8641195 z M 7.0000895 8.1137166 L 7.0000895 16.978292 L 11.282515 16.978292 C 11.673734 16.978292 12.040398 16.928316 12.381673 16.82843 C 12.731272 16.728545 13.034691 16.583211 13.292729 16.391764 C 13.55909 16.200317 13.767151 15.962672 13.91698 15.679663 C 14.066808 15.396654 14.141772 15.068247 14.141772 14.693677 C 14.141772 14.111011 13.991844 13.628081 13.692188 13.245186 C 13.400855 12.853968 13.001563 12.583695 12.493811 12.433866 C 12.910001 12.250743 13.226172 11.971796 13.44259 11.597225 C 13.659009 11.214331 13.767118 10.806364 13.767118 10.373527 C 13.767118 10.098842 13.717142 9.828052 13.617257 9.5616903 C 13.525695 9.2870052 13.392597 9.0457979 13.217798 8.8377035 C 13.042998 8.6212843 12.830858 8.4463682 12.581144 8.3131877 C 12.33143 8.1800071 12.052483 8.1137166 11.744503 8.1137166 L 7.0000895 8.1137166 z M 8.7229818 9.5870117 L 11.095447 9.5870117 C 11.370132 9.5870117 11.599103 9.6869646 11.782227 9.886735 C 11.973674 10.086506 12.069031 10.356779 12.069031 10.698055 C 12.069031 11.047654 11.965 11.322523 11.756905 11.522294 C 11.557134 11.722065 11.311849 11.822017 11.020516 11.822017 L 8.7229818 11.822017 L 8.7229818 9.5870117 z M 18.374589 10.323401 C 17.841866 10.323401 17.358936 10.415196 16.926099 10.59832 C 16.501585 10.781443 16.139516 11.031324 15.83986 11.347628 C 15.540204 11.655608 15.311232 12.017677 15.15308 12.433866 C 14.994928 12.841732 14.915885 13.278248 14.915885 13.744381 C 14.915885 14.193865 14.994928 14.622741 15.15308 15.030607 C 15.319556 15.438473 15.552606 15.796463 15.852262 16.104443 C 16.151919 16.412424 16.513987 16.657709 16.938501 16.840833 C 17.363014 17.015632 17.837788 17.103349 18.362187 17.103349 C 19.094681 17.103349 19.722944 16.945264 20.247343 16.628959 C 20.780066 16.304331 21.167123 15.892286 21.408512 15.392859 L 19.972941 14.9934 C 19.864732 15.259761 19.660749 15.47598 19.361092 15.642456 C 19.06976 15.800608 18.757667 15.879651 18.424715 15.879651 C 18.208297 15.879651 17.999718 15.842427 17.799947 15.767513 C 17.600176 15.692599 17.421698 15.583973 17.263546 15.442468 C 17.105394 15.300964 16.976375 15.130643 16.876489 14.930872 C 16.776606 14.7311 16.713877 14.502129 16.688904 14.244092 L 21.745443 14.244092 C 21.762089 14.177501 21.770764 14.09438 21.770764 13.994495 C 21.779091 13.894609 21.783167 13.790578 21.783167 13.682369 C 21.783167 13.241208 21.704124 12.816411 21.545972 12.408545 C 21.396143 12.000679 21.171251 11.642688 20.871594 11.334709 C 20.580262 11.026728 20.222272 10.781443 19.797758 10.59832 C 19.381568 10.415196 18.907312 10.323401 18.374589 10.323401 z M 26.914636 10.323401 C 26.340294 10.323401 25.824219 10.440185 25.36641 10.67325 C 24.908601 10.906317 24.559285 11.230645 24.317896 11.646834 L 24.317896 10.436056 L 22.806877 10.436056 L 22.806877 16.978292 L 24.48016 16.978292 L 24.48016 13.157853 C 24.538426 12.958082 24.629705 12.775009 24.754561 12.608533 C 24.879419 12.442057 25.017111 12.300286 25.166939 12.183752 C 25.325091 12.058899 25.491334 11.963542 25.666134 11.896948 C 25.840933 11.830355 26.011771 11.796696 26.178247 11.796696 C 26.502875 11.796696 26.756835 11.917557 26.939958 12.158948 C 27.123081 12.400338 27.21436 12.783316 27.21436 13.307715 L 27.21436 16.978292 L 28.887642 16.978292 L 28.887642 12.895854 C 28.887642 12.579549 28.858576 12.26694 28.800309 11.95896 C 28.750367 11.65098 28.654493 11.376628 28.512988 11.135238 C 28.371484 10.893848 28.171579 10.698022 27.913542 10.548193 C 27.655505 10.398366 27.322502 10.323401 26.914636 10.323401 z M 44.34458 10.323401 C 43.770239 10.323401 43.254162 10.440185 42.796354 10.67325 C 42.338545 10.906317 41.989229 11.230645 41.747839 11.646834 L 41.747839 10.436056 L 40.236821 10.436056 L 40.236821 16.978292 L 41.910103 16.978292 L 41.910103 13.157853 C 41.96837 12.958082 42.059649 12.775009 42.184505 12.608533 C 42.309362 12.442057 42.447055 12.300286 42.596883 12.183752 C 42.755036 12.058899 42.921278 11.963542 43.096078 11.896948 C 43.270877 11.830355 43.441715 11.796696 43.608191 11.796696 C 43.932819 11.796696 44.186778 11.917557 44.369902 12.158948 C 44.553025 12.400338 44.644303 12.783316 44.644303 13.307715 L 44.644303 16.978292 L 46.317586 16.978292 L 46.317586 12.895854 C 46.317586 12.579549 46.28852 12.26694 46.230253 11.95896 C 46.180311 11.65098 46.084437 11.376628 45.942932 11.135238 C 45.801428 10.893848 45.601523 10.698022 45.343486 10.548193 C 45.085448 10.398366 44.752446 10.323401 44.34458 10.323401 z M 50.437748 10.323401 C 49.988263 10.323401 49.576218 10.411117 49.201648 10.585917 C 48.827077 10.760716 48.506827 11.001924 48.240466 11.309904 C 47.974105 11.617884 47.766044 11.975875 47.616215 12.38374 C 47.466387 12.791607 47.391423 13.232718 47.391423 13.707174 C 47.391423 14.156659 47.461791 14.580939 47.603296 14.980481 C 47.7448 15.380023 47.944705 15.733935 48.202743 16.041915 C 48.469104 16.341571 48.781197 16.5787 49.13912 16.753499 C 49.497043 16.928299 49.896851 17.016016 50.338013 17.016016 C 50.787497 17.016016 51.207699 16.916063 51.598918 16.716292 C 51.990136 16.508198 52.294072 16.217015 52.51049 15.842444 L 52.51049 16.666166 C 52.51049 16.982471 52.456435 17.25734 52.348226 17.490405 C 52.248341 17.723472 52.10657 17.914702 51.923446 18.06453 C 51.740323 18.214356 51.528182 18.322465 51.286792 18.389058 C 51.053726 18.463972 50.807924 18.501713 50.549886 18.501713 C 50.125373 18.501713 49.722002 18.414513 49.339107 18.239714 C 48.964536 18.064914 48.652444 17.82319 48.40273 17.51521 L 47.491158 18.401978 C 47.840757 18.834814 48.256881 19.167817 48.739661 19.400883 C 49.230764 19.642273 49.83404 19.762618 50.549886 19.762618 C 51.074285 19.762618 51.557215 19.691732 51.998377 19.550228 C 52.447861 19.408723 52.830839 19.205257 53.147144 18.938896 C 53.471771 18.672534 53.72573 18.347689 53.908854 17.964795 C 54.091977 17.581901 54.183256 17.148946 54.183256 16.666166 L 54.183256 10.436056 L 52.722363 10.436056 L 52.722363 11.584823 C 52.47265 11.201928 52.156478 10.897993 51.773584 10.67325 C 51.39069 10.440185 50.9455 10.323401 50.437748 10.323401 z M 74.09832 10.323401 C 73.124436 10.323401 72.216708 10.602348 71.376005 11.160042 L 71.888119 12.221476 C 72.237718 11.980086 72.578877 11.797013 72.911829 11.672156 C 73.24478 11.547299 73.585939 11.48457 73.935539 11.48457 C 74.418318 11.48457 74.780388 11.601353 75.021777 11.83442 C 75.271491 12.067486 75.396432 12.400488 75.396432 12.833325 L 75.396432 13.207979 C 75.180013 13.116415 74.930649 13.045529 74.64764 12.995589 C 74.372955 12.945649 74.089929 12.920658 73.798596 12.920658 C 73.390731 12.920658 73.01591 12.974713 72.674634 13.082922 C 72.333358 13.182808 72.038097 13.324063 71.788383 13.507186 C 71.546993 13.69031 71.355246 13.915202 71.213741 14.181563 C 71.080561 14.439601 71.01427 14.722627 71.01427 15.030607 C 71.01427 15.330263 71.068325 15.605132 71.176534 15.854846 C 71.293067 16.10456 71.451153 16.324857 71.650924 16.516305 C 71.850694 16.699428 72.087823 16.845278 72.362508 16.953487 C 72.637194 17.053373 72.932972 17.103349 73.249276 17.103349 C 73.723732 17.103349 74.168922 17.003397 74.585112 16.803626 C 75.001301 16.603854 75.355213 16.312671 75.646546 15.929777 L 75.683753 16.291512 C 75.725371 16.524578 75.829402 16.712247 75.995878 16.853752 C 76.170678 16.995256 76.41648 17.065625 76.732784 17.065625 C 76.940879 17.065625 77.186164 17.036558 77.469173 16.978292 L 77.469173 15.555123 C 77.327671 15.546799 77.223641 15.50498 77.157048 15.430066 C 77.098781 15.355152 77.069714 15.230212 77.069714 15.055412 L 77.069714 13.020394 C 77.069714 12.146396 76.807598 11.480392 76.283199 11.022583 C 75.767124 10.556451 75.038908 10.323401 74.09832 10.323401 z M 29.549101 10.436056 L 31.958773 16.978292 L 33.769515 16.978292 L 36.179187 10.436056 L 34.60564 10.436056 L 32.932874 15.617651 L 31.271993 10.436056 L 29.549101 10.436056 z M 37.053036 10.436056 L 37.053036 16.978292 L 38.726318 16.978292 L 38.726318 10.436056 L 37.053036 10.436056 z M 55.631746 10.436056 L 55.631746 14.531413 C 55.631746 15.380439 55.806663 16.020939 56.156262 16.453776 C 56.505862 16.886614 57.017859 17.103349 57.692086 17.103349 C 58.241457 17.103349 58.74478 16.991161 59.202588 16.766418 C 59.660397 16.541676 60.035218 16.204079 60.32655 15.754594 L 60.363757 16.27911 C 60.397053 16.520499 60.505162 16.712247 60.688285 16.853752 C 60.879733 16.986932 61.125534 17.053223 61.425191 17.053223 C 61.516753 17.053223 61.616705 17.049147 61.724915 17.04082 C 61.841448 17.032494 61.982702 17.011585 62.149178 16.978292 L 62.149178 15.555123 C 62.007677 15.546799 61.903646 15.50498 61.837052 15.430066 C 61.778786 15.355152 61.749719 15.230212 61.749719 15.055412 L 61.749719 10.436056 L 60.076436 10.436056 L 60.076436 14.493689 C 59.884989 14.893231 59.635625 15.193088 59.327645 15.392859 C 59.027989 15.584306 58.715896 15.679663 58.391268 15.679663 C 57.667098 15.679663 57.305029 15.17634 57.305029 14.169161 L 57.305029 10.436056 L 55.631746 10.436056 z M 18.349784 11.534696 C 18.807593 11.534696 19.194649 11.684625 19.510954 11.984281 C 19.835581 12.275614 20.018654 12.666749 20.060274 13.157853 L 16.664099 13.157853 C 16.680747 12.916463 16.734802 12.695649 16.826363 12.495878 C 16.926249 12.296107 17.051189 12.125786 17.201017 11.984281 C 17.350846 11.842777 17.521167 11.734667 17.712614 11.659753 C 17.912385 11.576516 18.125042 11.534696 18.349784 11.534696 z M 50.8 11.747087 C 51.1496 11.747087 51.482602 11.863354 51.798906 12.096419 C 52.123534 12.329486 52.360662 12.6375 52.51049 13.020394 L 52.51049 14.581022 C 52.452223 14.730851 52.369102 14.872622 52.260893 15.005802 C 52.152684 15.138983 52.027743 15.255249 51.886239 15.355135 C 51.744734 15.45502 51.590727 15.534063 51.424251 15.59233 C 51.257776 15.650597 51.082859 15.679663 50.899736 15.679663 C 50.641698 15.679663 50.40457 15.630203 50.188151 15.530318 C 49.971733 15.430432 49.779985 15.292739 49.613509 15.11794 C 49.455357 14.94314 49.330417 14.739158 49.238855 14.506091 C 49.147293 14.273026 49.101912 14.023662 49.101912 13.7573 C 49.101912 13.499263 49.139136 13.249382 49.21405 13.007992 C 49.297288 12.766602 49.414072 12.554461 49.5639 12.371338 C 49.713728 12.17989 49.892723 12.029962 50.100818 11.921753 C 50.308913 11.80522 50.541963 11.747087 50.8 11.747087 z M 66.456926 11.747087 C 66.623401 11.747087 66.789644 11.780229 66.95612 11.846822 C 67.13092 11.913413 67.293601 12.005208 67.443429 12.121741 C 67.601581 12.22995 67.738757 12.363048 67.85529 12.5212 C 67.980144 12.671028 68.076017 12.837271 68.142611 13.020394 L 68.142611 14.581022 C 68.084345 14.739175 67.996628 14.885024 67.880094 15.018205 C 67.771885 15.151385 67.646945 15.267652 67.50544 15.367537 C 67.363936 15.467423 67.209929 15.546982 67.043453 15.605249 C 66.876977 15.655189 66.714813 15.679663 66.556661 15.679663 C 66.290299 15.679663 66.045014 15.630203 65.820272 15.530318 C 65.603853 15.430432 65.416184 15.292739 65.258032 15.11794 C 65.09988 14.94314 64.975457 14.739158 64.883895 14.506091 C 64.792333 14.273026 64.746436 14.019066 64.746436 13.744381 C 64.746436 13.486343 64.787738 13.236979 64.870976 12.995589 C 64.954214 12.754199 65.070997 12.542059 65.220825 12.358936 C 65.370653 12.167488 65.549648 12.01756 65.757743 11.909351 C 65.974162 11.801141 66.207212 11.747087 66.456926 11.747087 z M 8.7229818 13.182658 L 11.369849 13.182658 C 11.519677 13.182658 11.65737 13.216317 11.782227 13.28291 C 11.907084 13.341177 12.015193 13.424298 12.106755 13.532507 C 12.198319 13.640717 12.269205 13.769736 12.319145 13.919564 C 12.377411 14.061068 12.406478 14.210996 12.406478 14.369149 C 12.406478 14.527301 12.377411 14.676712 12.319145 14.818217 C 12.260878 14.959722 12.181835 15.084662 12.08195 15.192871 C 11.982065 15.292756 11.861203 15.371799 11.719698 15.430066 C 11.586517 15.488333 11.440667 15.517399 11.282515 15.517399 L 8.7229818 15.517399 L 8.7229818 13.182658 z M 74.072998 13.857035 C 74.289417 13.857035 74.514309 13.882026 74.747376 13.931966 C 74.980442 13.973585 75.196661 14.031719 75.396432 14.106633 L 75.396432 14.855941 C 75.396432 15.030741 75.305153 15.188827 75.12203 15.33033 C 74.980525 15.496806 74.780621 15.629903 74.522583 15.729789 C 74.272869 15.829674 74.006674 15.879651 73.723665 15.879651 C 73.407361 15.879651 73.14065 15.788372 72.924231 15.605249 C 72.707813 15.413802 72.599703 15.176157 72.599703 14.893148 C 72.599703 14.593491 72.736879 14.348206 73.011564 14.156759 C 73.286249 13.956988 73.640161 13.857035 74.072998 13.857035 z M 52.644332 28.176058 C 52.489338 28.179393 52.348733 28.207962 52.223169 28.261324 C 52.092582 28.318247 51.980511 28.395215 51.886755 28.492318 C 51.79635 28.586073 51.726142 28.698144 51.675916 28.828731 C 51.629036 28.959319 51.605636 29.096612 51.605636 29.240592 L 51.605636 29.401306 L 51.258887 29.401306 L 51.258887 29.913936 L 51.605636 29.913936 L 51.605636 31.892627 L 52.278463 31.892627 L 52.278463 29.913936 L 53.016919 29.913936 L 53.016919 31.892627 L 53.689746 31.892627 L 53.689746 29.401306 L 52.278463 29.401306 L 52.278463 29.215788 C 52.278463 29.091897 52.313566 28.982947 52.383883 28.889193 C 52.457547 28.795438 52.570136 28.748633 52.720813 28.748633 C 52.841355 28.748633 52.960187 28.772033 53.07738 28.818913 C 53.194574 28.86579 53.296247 28.927419 53.383305 29.004431 L 53.649955 28.502136 C 53.509323 28.408384 53.35851 28.331416 53.197787 28.271143 C 53.040413 28.207523 52.866196 28.176058 52.675338 28.176058 C 52.664874 28.176058 52.654665 28.175836 52.644332 28.176058 z M 24.277588 28.326436 L 22.916431 31.892627 L 23.629565 31.892627 L 23.956161 31.003792 L 25.202079 31.003792 L 25.533325 31.892627 L 26.24646 31.892627 L 24.89047 28.326436 L 24.277588 28.326436 z M 24.584029 29.115019 L 25.076506 30.516484 L 24.071916 30.516484 L 24.584029 29.115019 z M 28.225667 29.215788 C 27.994628 29.215788 27.786611 29.262592 27.60245 29.356348 C 27.418288 29.450102 27.277873 29.580635 27.18077 29.748055 L 27.18077 29.260746 L 26.573055 29.260746 L 26.573055 31.892627 L 27.245882 31.892627 L 27.245882 30.35577 C 27.26932 30.275409 27.306243 30.201563 27.35647 30.134595 C 27.406693 30.067629 27.462078 30.010942 27.522351 29.964063 C 27.58597 29.913837 27.653056 29.875094 27.723372 29.848307 C 27.793688 29.821521 27.862077 29.808 27.929045 29.808 C 28.059632 29.808 28.161821 29.856624 28.235486 29.953727 C 28.30915 30.05083 28.346073 30.205283 28.346073 30.416231 L 28.346073 31.892627 L 29.018901 31.892627 L 29.018901 30.25035 C 29.018901 30.123111 29.007201 29.997519 28.983761 29.873629 C 28.963667 29.749738 28.925442 29.638969 28.868522 29.541866 C 28.8116 29.444765 28.730993 29.366495 28.627193 29.306222 C 28.523393 29.245948 28.389739 29.215788 28.225667 29.215788 z M 30.792436 29.215788 C 30.593887 29.220104 30.412551 29.256798 30.249316 29.325859 C 30.078549 29.399523 29.933192 29.50041 29.812651 29.627649 C 29.692109 29.751539 29.599802 29.896895 29.536182 30.064315 C 29.472562 30.228386 29.441097 30.404421 29.441097 30.591931 C 29.441097 30.772744 29.472562 30.945141 29.536182 31.109212 C 29.603149 31.273283 29.697276 31.417337 29.817818 31.541227 C 29.93836 31.665118 30.083716 31.763669 30.254484 31.837333 C 30.425252 31.90765 30.616111 31.942753 30.827059 31.942753 C 31.121717 31.942753 31.374721 31.879306 31.585669 31.752067 C 31.799966 31.62148 31.955721 31.455843 32.052824 31.25494 L 31.475081 31.094226 C 31.431553 31.201375 31.349644 31.288224 31.229102 31.355192 C 31.111908 31.418812 30.986316 31.450793 30.85238 31.450793 C 30.765322 31.450793 30.681594 31.435452 30.601233 31.405318 C 30.520872 31.37518 30.448845 31.332014 30.385225 31.275094 C 30.321606 31.218171 30.269859 31.149266 30.229679 31.068905 C 30.189499 30.988543 30.164278 30.896236 30.154232 30.792436 L 32.188216 30.792436 C 32.194916 30.765648 32.198551 30.732363 32.198551 30.692183 C 32.201885 30.652 32.203202 30.610136 32.203202 30.56661 C 32.203202 30.389145 32.171738 30.218567 32.108118 30.054496 C 32.047846 29.890425 31.957358 29.746372 31.836816 29.622481 C 31.719623 29.498591 31.575569 29.399523 31.404801 29.325859 C 31.237382 29.252194 31.046524 29.215788 30.832227 29.215788 C 30.818833 29.215788 30.805672 29.2155 30.792436 29.215788 z M 34.202564 29.215788 C 33.984918 29.215788 33.790421 29.262592 33.619653 29.356348 C 33.452234 29.446754 33.319882 29.577287 33.222778 29.748055 L 33.222778 29.260746 L 32.615064 29.260746 L 32.615064 31.892627 L 33.288407 31.892627 L 33.288407 30.35577 C 33.338633 30.191699 33.422362 30.059346 33.539555 29.958895 C 33.660097 29.858443 33.785689 29.808 33.916276 29.808 C 34.043515 29.808 34.142066 29.856624 34.212382 29.953727 C 34.286047 30.05083 34.32297 30.205283 34.32297 30.416231 L 34.32297 31.892627 L 34.995797 31.892627 L 34.995797 30.360938 C 35.046023 30.196866 35.12975 30.064514 35.246944 29.964063 C 35.364138 29.860263 35.48973 29.808 35.623665 29.808 C 35.750905 29.808 35.849972 29.856624 35.920288 29.953727 C 35.993953 30.05083 36.030359 30.205283 36.030359 30.416231 L 36.030359 31.892627 L 36.703703 31.892627 L 36.703703 30.25035 C 36.703703 30.123111 36.692003 29.997519 36.668563 29.873629 C 36.64847 29.749738 36.609728 29.638969 36.552808 29.541866 C 36.495885 29.444765 36.415795 29.366495 36.311995 29.306222 C 36.208196 29.245948 36.075844 29.215788 35.91512 29.215788 C 35.704172 29.215788 35.516435 29.263895 35.352364 29.360999 C 35.188293 29.454754 35.052819 29.592047 34.945671 29.77286 C 34.912187 29.615485 34.83522 29.48365 34.714677 29.376502 C 34.594135 29.269353 34.423557 29.215788 34.202564 29.215788 z M 39.519552 29.215788 C 39.141654 29.222579 38.788838 29.33487 38.461218 29.552201 L 38.667407 29.979049 C 38.80804 29.881946 38.945333 29.8081 39.079268 29.757874 C 39.213204 29.707647 39.350497 29.682426 39.49113 29.682426 C 39.685336 29.682426 39.831209 29.729747 39.928312 29.823503 C 40.028764 29.917257 40.078691 30.050912 40.078691 30.225029 L 40.078691 30.375924 C 39.991633 30.339097 39.891262 30.310751 39.777417 30.290658 C 39.66692 30.270564 39.553029 30.260168 39.435836 30.260168 C 39.271765 30.260168 39.120951 30.282271 38.983667 30.325798 C 38.846383 30.365978 38.727551 30.422665 38.6271 30.49633 C 38.529993 30.569994 38.453026 30.660483 38.396106 30.767631 C 38.342533 30.871431 38.316008 30.985322 38.316008 31.109212 C 38.316008 31.229754 38.337593 31.340006 38.38112 31.440458 C 38.427997 31.540909 38.491445 31.629579 38.571806 31.706592 C 38.652167 31.780259 38.747596 31.839282 38.858093 31.882808 C 38.96859 31.922988 39.087421 31.942753 39.214661 31.942753 C 39.405519 31.942753 39.584676 31.902708 39.752096 31.822347 C 39.919515 31.741985 40.062266 31.624973 40.17946 31.470947 L 40.194446 31.616158 C 40.211188 31.709916 40.253052 31.785581 40.32002 31.842501 C 40.390336 31.899421 40.488887 31.927767 40.616126 31.927767 C 40.699835 31.927767 40.798903 31.916067 40.912748 31.892627 L 40.912748 31.320052 C 40.855825 31.316705 40.813961 31.300059 40.787175 31.269926 C 40.763735 31.23979 40.752035 31.189347 40.752035 31.119031 L 40.752035 30.300476 C 40.752035 29.948895 40.646206 29.681069 40.435258 29.496908 C 40.227658 29.309398 39.93461 29.215788 39.556242 29.215788 C 39.543999 29.215788 39.531742 29.215569 39.519552 29.215788 z M 43.765804 29.215788 C 43.567452 29.220104 43.387948 29.256798 43.227852 29.325859 C 43.057085 29.399523 42.911728 29.498591 42.791187 29.622481 C 42.670645 29.746372 42.578338 29.890425 42.514718 30.054496 C 42.451098 30.218567 42.419116 30.392784 42.419116 30.576945 C 42.419116 30.757758 42.451098 30.931457 42.514718 31.098877 C 42.581685 31.262947 42.675295 31.40882 42.795837 31.53606 C 42.916379 31.65995 43.062252 31.758501 43.23302 31.832166 C 43.403788 31.90583 43.596465 31.942753 43.810763 31.942753 C 44.102072 31.942753 44.351437 31.879306 44.559037 31.752067 C 44.766637 31.624829 44.915632 31.460494 45.006038 31.259591 L 44.348197 31.059086 C 44.308017 31.146142 44.23599 31.219471 44.13219 31.279745 C 44.031738 31.340018 43.920969 31.370178 43.800427 31.370178 C 43.706672 31.370178 43.618004 31.351718 43.534294 31.314884 C 43.450584 31.274704 43.376738 31.219836 43.313119 31.14952 C 43.252849 31.079204 43.204224 30.995476 43.167391 30.898372 C 43.130558 30.801269 43.112614 30.694139 43.112614 30.576945 C 43.112614 30.459751 43.129253 30.352104 43.16274 30.255001 C 43.19957 30.157898 43.248194 30.075989 43.308468 30.009021 C 43.372087 29.938706 43.445416 29.885141 43.529126 29.848307 C 43.612836 29.808127 43.703324 29.788363 43.800427 29.788363 C 43.914273 29.788363 44.018282 29.814888 44.112036 29.868461 C 44.205794 29.918687 44.280942 29.992533 44.337862 30.089636 L 44.995703 29.888615 C 44.895251 29.687712 44.743135 29.525197 44.538884 29.401306 C 44.33798 29.277416 44.093557 29.215788 43.805595 29.215788 C 43.792201 29.215788 43.779028 29.2155 43.765804 29.215788 z M 46.568217 29.215788 C 46.369864 29.220104 46.19036 29.256798 46.030265 29.325859 C 45.859498 29.399523 45.714141 29.50041 45.5936 29.627649 C 45.476406 29.751539 45.385918 29.895076 45.322298 30.059147 C 45.258678 30.223218 45.226697 30.397434 45.226697 30.581596 C 45.226697 30.762409 45.258678 30.934806 45.322298 31.098877 C 45.385918 31.262947 45.476406 31.40882 45.5936 31.53606 C 45.714141 31.65995 45.859498 31.758501 46.030265 31.832166 C 46.201033 31.90583 46.393711 31.942753 46.608008 31.942753 C 46.822305 31.942753 47.014983 31.90583 47.18575 31.832166 C 47.356518 31.758501 47.500571 31.65995 47.617765 31.53606 C 47.734958 31.40882 47.825447 31.262947 47.889067 31.098877 C 47.952687 30.934806 47.984151 30.762409 47.984151 30.581596 C 47.984151 30.397434 47.952687 30.223218 47.889067 30.059147 C 47.825447 29.895076 47.73314 29.751539 47.612598 29.627649 C 47.495404 29.50041 47.351351 29.399523 47.180583 29.325859 C 47.013164 29.252194 46.822305 29.215788 46.608008 29.215788 C 46.594614 29.215788 46.581441 29.2155 46.568217 29.215788 z M 50.088932 29.215788 C 49.857893 29.215788 49.649876 29.262592 49.465715 29.356348 C 49.281553 29.450102 49.141139 29.580635 49.044035 29.748055 L 49.044035 29.260746 L 48.43632 29.260746 L 48.43632 31.892627 L 49.109147 31.892627 L 49.109147 30.35577 C 49.132585 30.275409 49.169508 30.201563 49.219735 30.134595 C 49.269959 30.067629 49.325343 30.010942 49.385616 29.964063 C 49.449235 29.913837 49.516322 29.875094 49.586637 29.848307 C 49.656954 29.821521 49.725342 29.808 49.79231 29.808 C 49.922897 29.808 50.025086 29.856624 50.098751 29.953727 C 50.172415 30.05083 50.209338 30.205283 50.209338 30.416231 L 50.209338 31.892627 L 50.882166 31.892627 L 50.882166 30.25035 C 50.882166 30.123111 50.870466 29.997519 50.847026 29.873629 C 50.826933 29.749738 50.788707 29.638969 50.731787 29.541866 C 50.674865 29.444765 50.594259 29.366495 50.490458 29.306222 C 50.386658 29.245948 50.253004 29.215788 50.088932 29.215788 z M 55.333573 29.215788 C 55.165827 29.219908 55.011296 29.255286 54.870036 29.321208 C 54.719358 29.391524 54.590645 29.488255 54.483496 29.612146 C 54.37635 29.736037 54.292622 29.88009 54.232349 30.044161 C 54.172075 30.208232 54.141915 30.386087 54.141915 30.576945 C 54.141915 30.757758 54.170261 30.928336 54.227181 31.089058 C 54.284104 31.249782 54.364709 31.392015 54.46851 31.515906 C 54.575658 31.636448 54.70125 31.731877 54.845231 31.802193 C 54.989212 31.87251 55.149908 31.907613 55.327372 31.907613 C 55.508185 31.907613 55.676944 31.867569 55.834318 31.787207 C 55.991693 31.703498 56.114163 31.586485 56.201221 31.435807 L 56.201221 31.767053 C 56.201221 31.894292 56.179635 32.004544 56.136108 32.098299 C 56.095928 32.192052 56.038724 32.269536 55.965059 32.32981 C 55.891395 32.390081 55.806364 32.433248 55.709261 32.460034 C 55.615507 32.490168 55.516439 32.505509 55.412638 32.505509 C 55.241871 32.505509 55.079356 32.470406 54.92533 32.40009 C 54.774652 32.329774 54.64906 32.232525 54.548608 32.108634 L 54.182223 32.465202 C 54.322855 32.639318 54.490311 32.77349 54.684517 32.867245 C 54.882073 32.964348 55.124677 33.012455 55.412638 33.012455 C 55.623588 33.012455 55.818084 32.984109 55.995549 32.927189 C 56.176362 32.870267 56.330297 32.788358 56.457536 32.681209 C 56.588123 32.574061 56.690313 32.443529 56.763977 32.289502 C 56.837642 32.135476 56.874048 31.96126 56.874048 31.767053 L 56.874048 29.260746 L 56.286487 29.260746 L 56.286487 29.722734 C 56.186035 29.568708 56.059141 29.446754 55.905115 29.356348 C 55.751089 29.262592 55.571932 29.215788 55.36768 29.215788 C 55.356379 29.215788 55.344757 29.215513 55.333573 29.215788 z M 63.51757 29.215788 C 63.139673 29.222579 62.786855 29.33487 62.459237 29.552201 L 62.665426 29.979049 C 62.806058 29.881946 62.943352 29.8081 63.077287 29.757874 C 63.211223 29.707647 63.348516 29.682426 63.489148 29.682426 C 63.683355 29.682426 63.828711 29.729747 63.925814 29.823503 C 64.026266 29.917257 64.076709 30.050912 64.076709 30.225029 L 64.076709 30.375924 C 63.98965 30.339097 63.889281 30.310751 63.775435 30.290658 C 63.664939 30.270564 63.551048 30.260168 63.433854 30.260168 C 63.269783 30.260168 63.118969 30.282271 62.981685 30.325798 C 62.844402 30.365978 62.72557 30.422665 62.625118 30.49633 C 62.528012 30.569994 62.451044 30.660483 62.394124 30.767631 C 62.340551 30.871431 62.313509 30.985322 62.313509 31.109212 C 62.313509 31.229754 62.335612 31.340006 62.379138 31.440458 C 62.426016 31.540909 62.489462 31.629579 62.569824 31.706592 C 62.650186 31.780259 62.745615 31.839282 62.856112 31.882808 C 62.966609 31.922988 63.085441 31.942753 63.212679 31.942753 C 63.403538 31.942753 63.582695 31.902708 63.750114 31.822347 C 63.917534 31.741985 64.059768 31.624973 64.176961 31.470947 L 64.191948 31.616158 C 64.208689 31.709916 64.250553 31.785581 64.317521 31.842501 C 64.387837 31.899421 64.486905 31.927767 64.614144 31.927767 C 64.697854 31.927767 64.796405 31.916067 64.91025 31.892627 L 64.91025 31.320052 C 64.853327 31.316705 64.811463 31.300059 64.784676 31.269926 C 64.761236 31.23979 64.749536 31.189347 64.749536 31.119031 L 64.749536 30.300476 C 64.749536 29.948895 64.644225 29.681069 64.433276 29.496908 C 64.225676 29.309398 63.932629 29.215788 63.55426 29.215788 C 63.542018 29.215788 63.52976 29.215569 63.51757 29.215788 z M 62.017403 29.225606 C 61.947087 29.225606 61.873241 29.240948 61.796228 29.271082 C 61.722564 29.29787 61.649234 29.337914 61.57557 29.391488 C 61.501906 29.445062 61.433001 29.508509 61.369381 29.582174 C 61.305764 29.65249 61.250379 29.733096 61.203499 29.823503 L 61.203499 29.260746 L 60.585966 29.260746 L 60.585966 31.892627 L 61.258793 31.892627 L 61.258793 30.300476 C 61.329109 30.149798 61.44482 30.037727 61.605542 29.964063 C 61.766265 29.887035 61.948544 29.84699 62.152795 29.843656 L 62.152795 29.230774 C 62.136056 29.227441 62.117595 29.225606 62.097502 29.225606 L 62.017403 29.225606 z M 66.808842 29.225606 C 66.738526 29.225606 66.66468 29.240948 66.587667 29.271082 C 66.514002 29.29787 66.440673 29.337914 66.367009 29.391488 C 66.293345 29.445062 66.22444 29.508509 66.16082 29.582174 C 66.097203 29.65249 66.042335 29.733096 65.995455 29.823503 L 65.995455 29.260746 L 65.377405 29.260746 L 65.377405 31.892627 L 66.050232 31.892627 L 66.050232 30.300476 C 66.120549 30.149798 66.236258 30.037727 66.396981 29.964063 C 66.557703 29.887035 66.740499 29.84699 66.944751 29.843656 L 66.944751 29.230774 C 66.928004 29.227441 66.909544 29.225606 66.889457 29.225606 L 66.808842 29.225606 z M 57.456958 29.260746 L 57.456958 30.908191 C 57.456958 31.249727 57.527165 31.507671 57.667798 31.681787 C 57.80843 31.855904 58.014628 31.942753 58.285848 31.942753 C 58.506841 31.942753 58.709401 31.897767 58.893563 31.807361 C 59.077724 31.716954 59.228021 31.580964 59.345215 31.400151 L 59.360201 31.611507 C 59.373594 31.708613 59.417278 31.785581 59.490942 31.842501 C 59.567956 31.896074 59.667023 31.922599 59.787565 31.922599 C 59.8244 31.922599 59.864445 31.921282 59.907971 31.917948 C 59.954849 31.914602 60.011536 31.90602 60.078503 31.892627 L 60.078503 31.320052 C 60.02158 31.316705 59.979716 31.300059 59.95293 31.269926 C 59.92949 31.23979 59.91779 31.189347 59.91779 31.119031 L 59.91779 29.260746 L 59.244963 29.260746 L 59.244963 30.893205 C 59.16795 31.053928 59.06758 31.174579 58.943689 31.25494 C 58.823147 31.331952 58.697555 31.370178 58.566968 31.370178 C 58.275657 31.370178 58.129785 31.167618 58.129785 30.762463 L 58.129785 29.260746 L 57.456958 29.260746 z M 30.821891 29.70258 C 31.006052 29.70258 31.161807 29.762905 31.289046 29.883447 C 31.419635 30.000641 31.493481 30.158215 31.510221 30.35577 L 30.143897 30.35577 C 30.15059 30.258667 30.172692 30.169998 30.209526 30.089636 C 30.249704 30.009272 30.299631 29.940367 30.359904 29.883447 C 30.420175 29.826522 30.48908 29.783356 30.566093 29.753223 C 30.646454 29.719736 30.731485 29.70258 30.821891 29.70258 z M 46.608008 29.788363 C 46.705111 29.788363 46.795599 29.808127 46.879309 29.848307 C 46.963016 29.885139 47.035043 29.938705 47.095317 30.009021 C 47.158933 30.079338 47.207558 30.163065 47.241044 30.260168 C 47.277877 30.357272 47.296338 30.4631 47.296338 30.576945 C 47.296338 30.694139 47.277877 30.801269 47.241044 30.898372 C 47.207561 30.995476 47.158937 31.079204 47.095317 31.14952 C 47.035046 31.219837 46.963019 31.274705 46.879309 31.314884 C 46.795599 31.351718 46.705111 31.370178 46.608008 31.370178 C 46.510905 31.370178 46.420417 31.351718 46.336707 31.314884 C 46.252997 31.274704 46.179668 31.219836 46.116048 31.14952 C 46.055778 31.079204 46.007154 30.996778 45.970321 30.903023 C 45.936834 30.805919 45.920195 30.698789 45.920195 30.581596 C 45.920195 30.467751 45.936834 30.362439 45.970321 30.265336 C 46.007151 30.168232 46.055775 30.084505 46.116048 30.014189 C 46.179668 29.943872 46.252997 29.888487 46.336707 29.848307 C 46.420417 29.808127 46.510905 29.788363 46.608008 29.788363 z M 55.512891 29.788363 C 55.653523 29.788363 55.787694 29.835167 55.914933 29.928923 C 56.045518 30.022678 56.140948 30.14645 56.201221 30.300476 L 56.201221 30.928345 C 56.177779 30.988617 56.144495 31.045304 56.100968 31.098877 C 56.057437 31.152452 56.006993 31.199257 55.950073 31.239437 C 55.893151 31.279617 55.831006 31.311598 55.764038 31.335038 C 55.69707 31.358478 55.626863 31.370178 55.553198 31.370178 C 55.449398 31.370178 55.353969 31.350414 55.266911 31.310234 C 55.179853 31.270053 55.102885 31.214668 55.035917 31.144352 C 54.972299 31.074036 54.922372 30.992127 54.885539 30.898372 C 54.848706 30.804617 54.830245 30.70373 54.830245 30.596582 C 54.830245 30.492782 54.84507 30.392412 54.875204 30.295308 C 54.908685 30.198205 54.95549 30.113175 55.015763 30.03951 C 55.076034 29.962495 55.148061 29.902169 55.231771 29.858643 C 55.315481 29.811763 55.409091 29.788363 55.512891 29.788363 z M 39.546423 30.63689 C 39.633481 30.63689 39.72397 30.646769 39.817725 30.666862 C 39.91148 30.683609 39.998329 30.707525 40.078691 30.737659 L 40.078691 31.038932 C 40.078691 31.109252 40.041768 31.172698 39.968103 31.229618 C 39.91118 31.296587 39.831091 31.350152 39.727291 31.390332 C 39.626839 31.430512 39.519709 31.450793 39.405863 31.450793 C 39.278625 31.450793 39.171495 31.413871 39.084436 31.340206 C 38.997378 31.263193 38.953695 31.167764 38.953695 31.053918 C 38.953695 30.933377 39.00908 30.834309 39.119576 30.757296 C 39.230073 30.676935 39.372307 30.63689 39.546423 30.63689 z M 63.544442 30.63689 C 63.6315 30.63689 63.721471 30.646769 63.815226 30.666862 C 63.908981 30.683609 63.996347 30.707525 64.076709 30.737659 L 64.076709 31.038932 C 64.076709 31.109252 64.039786 31.172698 63.966122 31.229618 C 63.909199 31.296587 63.828593 31.350152 63.724793 31.390332 C 63.624341 31.430512 63.51721 31.450793 63.403365 31.450793 C 63.276126 31.450793 63.168996 31.413871 63.081938 31.340206 C 62.994879 31.263193 62.951713 31.167764 62.951713 31.053918 C 62.951713 30.933377 63.00658 30.834309 63.117078 30.757296 C 63.227574 30.676935 63.370325 30.63689 63.544442 30.63689 z M 53.197787 34.890894 L 53.197787 35.744588 L 52.851038 35.744588 L 52.851038 36.261869 L 53.197787 36.261869 L 53.197787 37.773405 C 53.197787 37.890599 53.216247 37.991486 53.25308 38.075195 C 53.28991 38.155558 53.338535 38.222127 53.398808 38.2757 C 53.462427 38.325925 53.534453 38.362848 53.614815 38.386287 C 53.698525 38.409727 53.787194 38.421427 53.880949 38.421427 C 54.024929 38.421427 54.162223 38.401663 54.29281 38.361483 C 54.423397 38.321302 54.533649 38.28074 54.624056 38.24056 L 54.488664 37.708293 C 54.448483 37.725033 54.394918 37.745314 54.32795 37.768754 C 54.260983 37.792194 54.192078 37.803894 54.121761 37.803894 C 54.051446 37.803894 53.99112 37.785434 53.940894 37.7486 C 53.894014 37.70842 53.870614 37.641334 53.870614 37.547579 L 53.870614 36.261869 L 54.423035 36.261869 L 54.423035 35.744588 L 53.870614 35.744588 L 53.870614 34.890894 L 53.197787 34.890894 z M 38.067444 35.694462 C 37.9305 35.696816 37.802258 35.716738 37.682971 35.754407 C 37.559081 35.794587 37.450131 35.853094 37.356376 35.930107 C 37.26262 36.003771 37.189291 36.094259 37.135718 36.201408 C 37.085491 36.308556 37.06027 36.429207 37.06027 36.563143 C 37.06027 36.663594 37.07691 36.750961 37.110396 36.824626 C 37.14388 36.894945 37.197445 36.958392 37.27111 37.015312 C 37.344775 37.068888 37.442023 37.117513 37.562565 37.161039 C 37.683107 37.204566 37.828463 37.249552 37.999231 37.296432 C 38.203483 37.353357 38.351175 37.4038 38.441581 37.447327 C 38.531988 37.490855 38.576974 37.559244 38.576974 37.652999 C 38.576974 37.746753 38.538231 37.81878 38.461218 37.869006 C 38.384205 37.919233 38.278894 37.944454 38.144959 37.944454 C 37.994281 37.944454 37.842165 37.916108 37.688139 37.859188 C 37.537461 37.798917 37.381706 37.71155 37.220984 37.597705 L 36.969836 38.019902 C 37.120514 38.150489 37.301491 38.250859 37.512439 38.321175 C 37.723387 38.391492 37.938951 38.426595 38.159945 38.426595 C 38.488087 38.426595 38.74785 38.352749 38.938709 38.20542 C 39.129567 38.054742 39.224996 37.85088 39.224996 37.593054 C 39.224996 37.482557 39.204715 37.38843 39.164535 37.311418 C 39.127703 37.231058 39.067377 37.160851 38.983667 37.100578 C 38.903306 37.040309 38.797994 36.986744 38.667407 36.939864 C 38.540169 36.892989 38.386233 36.846184 38.20542 36.799304 C 38.108317 36.775871 38.026408 36.754285 37.95944 36.734192 C 37.89582 36.710752 37.843557 36.686835 37.803377 36.663395 C 37.763197 36.639955 37.733037 36.61343 37.712944 36.583297 C 37.696204 36.553164 37.688139 36.514422 37.688139 36.467542 C 37.688139 36.363744 37.726364 36.288595 37.803377 36.241716 C 37.88039 36.194836 37.97582 36.171436 38.089665 36.171436 C 38.213555 36.171436 38.337328 36.194836 38.461218 36.241716 C 38.588457 36.288593 38.719507 36.362439 38.853442 36.462891 L 39.124227 36.05568 C 38.980246 35.928439 38.821369 35.836648 38.647253 35.779728 C 38.476486 35.722808 38.292388 35.694462 38.094832 35.694462 C 38.085624 35.694462 38.076573 35.694305 38.067444 35.694462 z M 58.820699 35.694462 C 58.683755 35.696816 58.555513 35.716738 58.436226 35.754407 C 58.312337 35.794587 58.203387 35.853094 58.109631 35.930107 C 58.015876 36.003771 57.942546 36.094259 57.888973 36.201408 C 57.838746 36.308556 57.813525 36.429207 57.813525 36.563143 C 57.813525 36.663594 57.830165 36.750961 57.863652 36.824626 C 57.897136 36.894945 57.950701 36.958392 58.024365 37.015312 C 58.09803 37.068888 58.195279 37.117513 58.31582 37.161039 C 58.436362 37.204566 58.581718 37.249552 58.752486 37.296432 C 58.956738 37.353357 59.10443 37.4038 59.194837 37.447327 C 59.285242 37.490855 59.330229 37.559244 59.330229 37.652999 C 59.330229 37.746753 59.292003 37.81878 59.21499 37.869006 C 59.137977 37.919233 59.032149 37.944454 58.898214 37.944454 C 58.747536 37.944454 58.59542 37.916108 58.441394 37.859188 C 58.290716 37.798917 58.134962 37.71155 57.974239 37.597705 L 57.723092 38.019902 C 57.873769 38.150489 58.054746 38.250859 58.265694 38.321175 C 58.476643 38.391492 58.692207 38.426595 58.9132 38.426595 C 59.241342 38.426595 59.501105 38.352749 59.691964 38.20542 C 59.882822 38.054742 59.978251 37.85088 59.978251 37.593054 C 59.978251 37.482557 59.95797 37.38843 59.91779 37.311418 C 59.880958 37.231058 59.820632 37.160851 59.736922 37.100578 C 59.656561 37.040309 59.55125 36.986744 59.420663 36.939864 C 59.293424 36.892989 59.139488 36.846184 58.958675 36.799304 C 58.861572 36.775871 58.779663 36.754285 58.712695 36.734192 C 58.649075 36.710752 58.596813 36.686835 58.556633 36.663395 C 58.516453 36.639955 58.486292 36.61343 58.466199 36.583297 C 58.449459 36.553164 58.441394 36.514422 58.441394 36.467542 C 58.441394 36.363744 58.479619 36.288595 58.556633 36.241716 C 58.633645 36.194836 58.729075 36.171436 58.84292 36.171436 C 58.966811 36.171436 59.0911 36.194836 59.21499 36.241716 C 59.342229 36.288593 59.472762 36.362439 59.606698 36.462891 L 59.877482 36.05568 C 59.733501 35.928439 59.574625 35.836648 59.400509 35.779728 C 59.229741 35.722808 59.045643 35.694462 58.848088 35.694462 C 58.83888 35.694462 58.829829 35.694305 58.820699 35.694462 z M 68.373604 35.694462 C 68.23666 35.696816 68.108419 35.716738 67.989132 35.754407 C 67.865241 35.794587 67.756291 35.853094 67.662537 35.930107 C 67.568781 36.003771 67.495452 36.094259 67.441878 36.201408 C 67.391652 36.308556 67.366431 36.429207 67.366431 36.563143 C 67.366431 36.663594 67.38307 36.750961 67.416557 36.824626 C 67.450041 36.894945 67.503606 36.958392 67.577271 37.015312 C 67.650935 37.068888 67.748184 37.117513 67.868726 37.161039 C 67.989268 37.204566 68.134624 37.249552 68.305392 37.296432 C 68.509643 37.353357 68.657335 37.4038 68.747742 37.447327 C 68.838148 37.490855 68.883134 37.559244 68.883134 37.652999 C 68.883134 37.746753 68.844908 37.81878 68.767896 37.869006 C 68.690882 37.919233 68.585054 37.944454 68.451119 37.944454 C 68.300441 37.944454 68.148325 37.916108 67.994299 37.859188 C 67.843622 37.798917 67.687867 37.71155 67.527144 37.597705 L 67.275997 38.019902 C 67.426675 38.150489 67.607651 38.250859 67.8186 38.321175 C 68.029548 38.391492 68.245111 38.426595 68.466105 38.426595 C 68.794248 38.426595 69.054011 38.352749 69.244869 38.20542 C 69.435727 38.054742 69.531157 37.85088 69.531157 37.593054 C 69.531157 37.482557 69.510875 37.38843 69.470695 37.311418 C 69.433863 37.231058 69.373537 37.160851 69.289828 37.100578 C 69.209466 37.040309 69.104155 36.986744 68.973568 36.939864 C 68.846329 36.892989 68.692393 36.846184 68.51158 36.799304 C 68.414477 36.775871 68.332568 36.754285 68.265601 36.734192 C 68.20198 36.710752 68.149718 36.686835 68.109538 36.663395 C 68.069358 36.639955 68.039197 36.61343 68.019104 36.583297 C 68.002364 36.553164 67.994299 36.514422 67.994299 36.467542 C 67.994299 36.363744 68.032525 36.288595 68.109538 36.241716 C 68.186551 36.194836 68.28198 36.171436 68.395825 36.171436 C 68.519716 36.171436 68.644005 36.194836 68.767896 36.241716 C 68.895134 36.288593 69.025667 36.362439 69.159603 36.462891 L 69.430904 36.05568 C 69.286923 35.928439 69.12753 35.836648 68.953414 35.779728 C 68.782645 35.722808 68.598547 35.694462 68.400993 35.694462 C 68.391785 35.694462 68.382734 35.694305 68.373604 35.694462 z M 73.878178 35.694462 C 73.741234 35.696816 73.612992 35.716738 73.493705 35.754407 C 73.369815 35.794587 73.261382 35.853094 73.167627 35.930107 C 73.073871 36.003771 73.000025 36.094259 72.946452 36.201408 C 72.896225 36.308556 72.871004 36.429207 72.871004 36.563143 C 72.871004 36.663594 72.887644 36.750961 72.92113 36.824626 C 72.954614 36.894945 73.008696 36.958392 73.082361 37.015312 C 73.156026 37.068888 73.252757 37.117513 73.373299 37.161039 C 73.493841 37.204566 73.639714 37.249552 73.810482 37.296432 C 74.014734 37.353357 74.161909 37.4038 74.252315 37.447327 C 74.342722 37.490855 74.388224 37.559244 74.388224 37.652999 C 74.388224 37.746753 74.349482 37.81878 74.272469 37.869006 C 74.195456 37.919233 74.090145 37.944454 73.956209 37.944454 C 73.805532 37.944454 73.652899 37.916108 73.498873 37.859188 C 73.348195 37.798917 73.192441 37.71155 73.031718 37.597705 L 72.780571 38.019902 C 72.931248 38.150489 73.112225 38.250859 73.323173 38.321175 C 73.534122 38.391492 73.750202 38.426595 73.971196 38.426595 C 74.299338 38.426595 74.558584 38.352749 74.749443 38.20542 C 74.9403 38.054742 75.03573 37.85088 75.03573 37.593054 C 75.03573 37.482557 75.015965 37.38843 74.975785 37.311418 C 74.938953 37.231058 74.878628 37.160851 74.794918 37.100578 C 74.714557 37.040309 74.608729 36.986744 74.478141 36.939864 C 74.350903 36.892989 74.196967 36.846184 74.016154 36.799304 C 73.919051 36.775871 73.837142 36.754285 73.770174 36.734192 C 73.706554 36.710752 73.654808 36.686835 73.614628 36.663395 C 73.574448 36.639955 73.544288 36.61343 73.524194 36.583297 C 73.507454 36.553164 73.498873 36.514422 73.498873 36.467542 C 73.498873 36.363744 73.537616 36.288595 73.614628 36.241716 C 73.691641 36.194836 73.78707 36.171436 73.900916 36.171436 C 74.024806 36.171436 74.148579 36.194836 74.272469 36.241716 C 74.399708 36.288593 74.530241 36.362439 74.664177 36.462891 L 74.935478 36.05568 C 74.791497 35.928439 74.63262 35.836648 74.458504 35.779728 C 74.287736 35.722808 74.103122 35.694462 73.905567 35.694462 C 73.896358 35.694462 73.887308 35.694305 73.878178 35.694462 z M 32.775777 35.699113 C 32.544738 35.699113 32.337237 35.746434 32.153076 35.84019 C 31.968914 35.933944 31.8285 36.064477 31.731397 36.231897 L 31.731397 35.744588 L 31.123682 35.744588 L 31.123682 38.376469 L 31.796509 38.376469 L 31.796509 36.839612 C 31.819947 36.759251 31.85687 36.685405 31.907096 36.618437 C 31.95732 36.551471 32.012704 36.494784 32.072978 36.447905 C 32.136597 36.397679 32.203166 36.358936 32.273482 36.332149 C 32.343798 36.305363 32.412703 36.291842 32.479671 36.291842 C 32.610258 36.291842 32.712448 36.340466 32.786113 36.437569 C 32.859777 36.534672 32.8967 36.688608 32.8967 36.899557 L 32.8967 38.376469 L 33.569527 38.376469 L 33.569527 36.734192 C 33.569527 36.606953 33.557827 36.481361 33.534387 36.357471 C 33.514294 36.23358 33.475552 36.122811 33.418632 36.025708 C 33.361709 35.928607 33.28162 35.84982 33.17782 35.789547 C 33.07402 35.729273 32.939848 35.699113 32.775777 35.699113 z M 35.382853 35.699113 C 35.168556 35.699113 34.97406 35.736036 34.799943 35.809701 C 34.629175 35.883365 34.483819 35.983735 34.363277 36.110974 C 34.242736 36.234864 34.150428 36.380737 34.086808 36.548157 C 34.023188 36.712228 33.991207 36.887747 33.991207 37.075256 C 33.991207 37.25607 34.023188 37.428983 34.086808 37.593054 C 34.153776 37.757125 34.247386 37.900663 34.367928 38.024552 C 34.48847 38.148443 34.634343 38.247511 34.805111 38.321175 C 34.975879 38.391492 35.166737 38.426595 35.377686 38.426595 C 35.672344 38.426595 35.92483 38.363148 36.135779 38.235909 C 36.350076 38.105322 36.505831 37.939168 36.602934 37.738265 L 36.025708 37.577551 C 35.982179 37.6847 35.899754 37.772066 35.779211 37.839034 C 35.662018 37.902654 35.536426 37.934119 35.40249 37.934119 C 35.315432 37.934119 35.232221 37.919294 35.15186 37.88916 C 35.071498 37.859022 34.999472 37.815339 34.935852 37.758419 C 34.872232 37.701496 34.819969 37.633108 34.779789 37.552747 C 34.739609 37.472385 34.714388 37.380078 34.704342 37.276278 L 36.738843 37.276278 C 36.745543 37.24949 36.748661 37.216205 36.748661 37.176025 C 36.751995 37.135842 36.753829 37.093978 36.753829 37.050452 C 36.753829 36.872987 36.721848 36.702409 36.658228 36.538338 C 36.597956 36.374267 36.507468 36.230214 36.386926 36.106323 C 36.269732 35.982433 36.126196 35.883365 35.955428 35.809701 C 35.788009 35.736036 35.59715 35.699113 35.382853 35.699113 z M 41.942143 35.699113 C 41.768026 35.699113 41.605512 35.734733 41.454834 35.80505 C 41.304157 35.875366 41.173624 35.972097 41.063127 36.095988 C 40.952631 36.21653 40.865781 36.358764 40.802161 36.522835 C 40.741887 36.686907 40.711727 36.864761 40.711727 37.055619 C 40.711727 37.246477 40.740073 37.425634 40.796993 37.593054 C 40.853916 37.757125 40.932702 37.900663 41.033154 38.024552 C 41.136954 38.148443 41.258908 38.247511 41.39954 38.321175 C 41.540173 38.391492 41.694108 38.426595 41.861528 38.426595 C 42.059083 38.426595 42.235118 38.384731 42.389144 38.301021 C 42.54317 38.213963 42.668761 38.085249 42.765865 37.914482 L 42.765865 38.984184 C 42.765865 39.051152 42.779386 39.111478 42.806173 39.165051 C 42.832963 39.221975 42.868066 39.270599 42.911593 39.310779 C 42.955124 39.350959 43.005051 39.382424 43.061971 39.405863 C 43.122242 39.429303 43.186206 39.441003 43.253174 39.441003 C 43.306748 39.441003 43.367073 39.437878 43.434041 39.431185 C 43.501012 39.427838 43.56264 39.421078 43.61956 39.411031 L 43.61956 38.838456 C 43.552591 38.835103 43.505787 38.818463 43.479 38.78833 C 43.452213 38.761543 43.438692 38.7111 43.438692 38.637435 L 43.438692 35.744588 L 42.851131 35.744588 L 42.851131 36.201408 C 42.754027 36.050731 42.628436 35.930596 42.47441 35.84019 C 42.320384 35.746434 42.143046 35.699113 41.942143 35.699113 z M 48.215145 35.699113 C 47.823383 35.699113 47.458826 35.811701 47.120638 36.036043 L 47.32631 36.462891 C 47.466942 36.365788 47.604236 36.291942 47.738171 36.241716 C 47.872107 36.191489 48.009401 36.166268 48.150033 36.166268 C 48.34424 36.166268 48.490112 36.213073 48.587215 36.306828 C 48.687666 36.400582 48.737594 36.534754 48.737594 36.70887 L 48.737594 36.859766 C 48.650536 36.822939 48.550165 36.794076 48.43632 36.773983 C 48.325823 36.753889 48.211932 36.74401 48.094739 36.74401 C 47.930668 36.74401 47.779854 36.765596 47.64257 36.809123 C 47.505286 36.849303 47.386455 36.906507 47.286003 36.980172 C 47.188897 37.053836 47.111929 37.144324 47.055009 37.251473 C 47.001436 37.355273 46.974911 37.469164 46.974911 37.593054 C 46.974911 37.713596 46.996496 37.823848 47.040023 37.9243 C 47.0869 38.024751 47.150348 38.113421 47.230709 38.190434 C 47.31107 38.264101 47.406499 38.322607 47.516996 38.366134 C 47.627493 38.406314 47.746324 38.426595 47.873564 38.426595 C 48.064422 38.426595 48.243579 38.38655 48.410999 38.306189 C 48.578418 38.225827 48.721169 38.108298 48.838363 37.954273 L 48.853349 38.1 C 48.870091 38.193758 48.911955 38.269423 48.978923 38.326343 C 49.049239 38.383263 49.147789 38.411609 49.275029 38.411609 C 49.358738 38.411609 49.457806 38.399909 49.571651 38.376469 L 49.571651 37.803894 C 49.514729 37.800541 49.472864 37.783901 49.446078 37.753768 C 49.422638 37.723632 49.410938 37.673189 49.410938 37.602873 L 49.410938 36.784318 C 49.410938 36.432737 49.305109 36.164911 49.094161 35.98075 C 48.886561 35.79324 48.593513 35.699113 48.215145 35.699113 z M 51.690902 35.699113 C 51.459863 35.699113 51.252362 35.746434 51.068201 35.84019 C 50.884039 35.933944 50.743108 36.064477 50.646004 36.231897 L 50.646004 35.744588 L 50.038289 35.744588 L 50.038289 38.376469 L 50.711633 38.376469 L 50.711633 36.839612 C 50.735071 36.759251 50.771994 36.685405 50.822221 36.618437 C 50.872444 36.551471 50.927312 36.494784 50.987586 36.447905 C 51.051205 36.397679 51.11829 36.358936 51.188607 36.332149 C 51.258923 36.305363 51.327828 36.291842 51.394796 36.291842 C 51.525383 36.291842 51.627572 36.340466 51.701237 36.437569 C 51.774902 36.534672 51.811308 36.688608 51.811308 36.899557 L 51.811308 38.376469 L 52.484652 38.376469 L 52.484652 36.734192 C 52.484652 36.606953 52.472952 36.481361 52.449512 36.357471 C 52.429418 36.23358 52.390677 36.122811 52.333757 36.025708 C 52.276834 35.928607 52.196744 35.84982 52.092944 35.789547 C 51.989145 35.729273 51.854973 35.699113 51.690902 35.699113 z M 56.136108 35.699113 C 55.921811 35.699113 55.727315 35.736036 55.553198 35.809701 C 55.38243 35.883365 55.237074 35.983735 55.116532 36.110974 C 54.995991 36.234864 54.903683 36.380737 54.840064 36.548157 C 54.776444 36.712228 54.744462 36.887747 54.744462 37.075256 C 54.744462 37.25607 54.776444 37.428983 54.840064 37.593054 C 54.907031 37.757125 55.000641 37.900663 55.121183 38.024552 C 55.241725 38.148443 55.387598 38.247511 55.558366 38.321175 C 55.729134 38.391492 55.919992 38.426595 56.130941 38.426595 C 56.425599 38.426595 56.678602 38.363148 56.889551 38.235909 C 57.103848 38.105322 57.259086 37.939168 57.356189 37.738265 L 56.778963 37.577551 C 56.735435 37.6847 56.653009 37.772066 56.532467 37.839034 C 56.415273 37.902654 56.290198 37.934119 56.156262 37.934119 C 56.069204 37.934119 55.985476 37.919294 55.905115 37.88916 C 55.824754 37.859022 55.752727 37.815339 55.689107 37.758419 C 55.625487 37.701496 55.573224 37.633108 55.533045 37.552747 C 55.492865 37.472385 55.46816 37.380078 55.458114 37.276278 L 57.492098 37.276278 C 57.498798 37.24949 57.501917 37.216205 57.501917 37.176025 C 57.50525 37.135842 57.507084 37.093978 57.507084 37.050452 C 57.507084 36.872987 57.475103 36.702409 57.411483 36.538338 C 57.351212 36.374267 57.260723 36.230214 57.140182 36.106323 C 57.022988 35.982433 56.879451 35.883365 56.708683 35.809701 C 56.541264 35.736036 56.350406 35.699113 56.136108 35.699113 z M 62.841126 35.699113 C 62.626828 35.699113 62.434151 35.736036 62.263383 35.809701 C 62.092615 35.883365 61.947259 35.982433 61.826717 36.106323 C 61.706175 36.230214 61.613868 36.374267 61.550248 36.538338 C 61.486628 36.702409 61.454647 36.876109 61.454647 37.06027 C 61.454647 37.241083 61.486628 37.415299 61.550248 37.582719 C 61.617216 37.746789 61.710826 37.892662 61.831368 38.019902 C 61.95191 38.143792 62.097783 38.242343 62.268551 38.316008 C 62.439319 38.389672 62.631997 38.426595 62.846293 38.426595 C 63.137604 38.426595 63.386968 38.363148 63.594568 38.235909 C 63.802168 38.108671 63.951163 37.944336 64.041569 37.743433 L 63.383728 37.542411 C 63.343547 37.629467 63.271521 37.703313 63.167721 37.763586 C 63.067269 37.82386 62.9565 37.85402 62.835958 37.85402 C 62.742203 37.85402 62.653534 37.83556 62.569824 37.798726 C 62.486115 37.758546 62.412269 37.703162 62.348649 37.632845 C 62.288379 37.562529 62.240272 37.478801 62.203438 37.381698 C 62.166605 37.284594 62.148145 37.177464 62.148145 37.06027 C 62.148145 36.943077 62.164784 36.835947 62.198271 36.738843 C 62.235101 36.64174 62.283725 36.559831 62.343998 36.492863 C 62.407618 36.422548 62.480947 36.368983 62.564657 36.332149 C 62.648367 36.291969 62.738855 36.271688 62.835958 36.271688 C 62.949803 36.271688 63.053812 36.29873 63.147567 36.352303 C 63.241324 36.402529 63.316473 36.476375 63.373393 36.573478 L 64.031234 36.372457 C 63.930782 36.171554 63.778666 36.009039 63.574414 35.885148 C 63.37351 35.761258 63.129087 35.699113 62.841126 35.699113 z M 65.643538 35.699113 C 65.429242 35.699113 65.237081 35.736036 65.066313 35.809701 C 64.895545 35.883365 64.749672 35.983735 64.62913 36.110974 C 64.511937 36.234864 64.421449 36.378918 64.357829 36.542989 C 64.294209 36.70706 64.262227 36.881276 64.262227 37.065438 C 64.262227 37.246251 64.294209 37.418648 64.357829 37.582719 C 64.421448 37.746789 64.511936 37.892662 64.62913 38.019902 C 64.749672 38.143792 64.895545 38.242343 65.066313 38.316008 C 65.237081 38.389672 65.429242 38.426595 65.643538 38.426595 C 65.857836 38.426595 66.050513 38.389672 66.221281 38.316008 C 66.392049 38.242343 66.536102 38.143792 66.653296 38.019902 C 66.770489 37.892662 66.860977 37.746789 66.924597 37.582719 C 66.988217 37.418648 67.019682 37.246251 67.019682 37.065438 C 67.019682 36.881276 66.988217 36.70706 66.924597 36.542989 C 66.860978 36.378918 66.768671 36.234864 66.648128 36.110974 C 66.530935 35.983735 66.386881 35.883365 66.216113 35.809701 C 66.048694 35.736036 65.857836 35.699113 65.643538 35.699113 z M 71.193587 35.699113 C 70.97929 35.699113 70.78531 35.736036 70.611194 35.809701 C 70.440426 35.883365 70.294553 35.983735 70.174011 36.110974 C 70.05347 36.234864 69.961162 36.380737 69.897542 36.548157 C 69.833922 36.712228 69.802458 36.887747 69.802458 37.075256 C 69.802458 37.25607 69.833922 37.428983 69.897542 37.593054 C 69.96451 37.757125 70.058636 37.900663 70.179179 38.024552 C 70.299721 38.148443 70.445077 38.247511 70.615845 38.321175 C 70.786613 38.391492 70.977471 38.426595 71.18842 38.426595 C 71.483078 38.426595 71.736081 38.363148 71.94703 38.235909 C 72.161327 38.105322 72.317081 37.939168 72.414185 37.738265 L 71.836442 37.577551 C 71.792914 37.6847 71.711005 37.772066 71.590462 37.839034 C 71.473269 37.902654 71.347677 37.934119 71.213741 37.934119 C 71.126683 37.934119 71.042955 37.919294 70.962594 37.88916 C 70.882232 37.859022 70.810206 37.815339 70.746586 37.758419 C 70.682966 37.701496 70.63122 37.633108 70.59104 37.552747 C 70.55086 37.472385 70.525639 37.380078 70.515593 37.276278 L 72.549577 37.276278 C 72.55627 37.24949 72.559912 37.216205 72.559912 37.176025 C 72.563246 37.135842 72.564563 37.093978 72.564563 37.050452 C 72.564563 36.872987 72.533098 36.702409 72.469478 36.538338 C 72.409207 36.374267 72.318719 36.230214 72.198177 36.106323 C 72.080983 35.982433 71.93693 35.883365 71.766162 35.809701 C 71.598743 35.736036 71.407884 35.699113 71.193587 35.699113 z M 27.994157 35.744588 L 27.994157 37.392033 C 27.994157 37.733569 28.064881 37.991513 28.205514 38.165629 C 28.346146 38.339746 28.551827 38.426595 28.823047 38.426595 C 29.044041 38.426595 29.246601 38.381609 29.430762 38.291203 C 29.614923 38.200796 29.765737 38.064806 29.882931 37.883993 L 29.897917 38.094832 C 29.91131 38.191938 29.954993 38.269423 30.028658 38.326343 C 30.105671 38.379916 30.204222 38.406441 30.324764 38.406441 C 30.361599 38.406441 30.40216 38.404607 30.445687 38.401274 C 30.492564 38.397927 30.549251 38.389862 30.616219 38.376469 L 30.616219 37.803894 C 30.559297 37.800541 30.517432 37.783901 30.490645 37.753768 C 30.467205 37.723632 30.455505 37.673189 30.455505 37.602873 L 30.455505 35.744588 L 29.782678 35.744588 L 29.782678 37.377047 C 29.705666 37.53777 29.604778 37.657904 29.480888 37.738265 C 29.360346 37.815278 29.234754 37.85402 29.104167 37.85402 C 28.812856 37.85402 28.667501 37.65146 28.667501 37.246305 L 28.667501 35.744588 L 27.994157 35.744588 z M 44.026253 35.744588 L 44.026253 37.392033 C 44.026253 37.733569 44.096977 37.991513 44.23761 38.165629 C 44.378242 38.339746 44.583924 38.426595 44.855143 38.426595 C 45.076137 38.426595 45.278696 38.381609 45.462858 38.291203 C 45.647019 38.200796 45.797833 38.064806 45.915027 37.883993 L 45.930013 38.094832 C 45.943406 38.191938 45.98709 38.269423 46.060754 38.326343 C 46.137768 38.379916 46.236319 38.406441 46.35686 38.406441 C 46.393695 38.406441 46.43374 38.404607 46.477266 38.401274 C 46.524144 38.397927 46.581348 38.389862 46.648315 38.376469 L 46.648315 37.803894 C 46.591392 37.800541 46.549528 37.783901 46.522742 37.753768 C 46.499302 37.723632 46.487602 37.673189 46.487602 37.602873 L 46.487602 35.744588 L 45.814775 35.744588 L 45.814775 37.377047 C 45.737762 37.53777 45.636875 37.657904 45.512984 37.738265 C 45.392442 37.815278 45.26685 37.85402 45.136263 37.85402 C 44.844953 37.85402 44.699597 37.65146 44.699597 37.246305 L 44.699597 35.744588 L 44.026253 35.744588 z M 35.372518 36.186422 C 35.556679 36.186422 35.712434 36.246747 35.839673 36.367289 C 35.970262 36.484482 36.044108 36.642057 36.060848 36.839612 L 34.694523 36.839612 C 34.701216 36.742509 34.722802 36.653839 34.759635 36.573478 C 34.799813 36.493114 34.850257 36.424209 34.910531 36.367289 C 34.970802 36.310364 35.03919 36.266681 35.116203 36.236548 C 35.196565 36.203061 35.282111 36.186422 35.372518 36.186422 z M 56.125773 36.186422 C 56.309934 36.186422 56.46569 36.246747 56.592928 36.367289 C 56.723517 36.484482 56.797363 36.642057 56.814103 36.839612 L 55.447778 36.839612 C 55.454472 36.742509 55.476057 36.653839 55.512891 36.573478 C 55.553069 36.493114 55.603513 36.424209 55.663786 36.367289 C 55.724057 36.310364 55.792962 36.266681 55.869975 36.236548 C 55.950337 36.203061 56.035367 36.186422 56.125773 36.186422 z M 71.183769 36.186422 C 71.36793 36.186422 71.523685 36.246747 71.650924 36.367289 C 71.781513 36.484482 71.854842 36.642057 71.871582 36.839612 L 70.505774 36.839612 C 70.512467 36.742509 70.534053 36.653839 70.570886 36.573478 C 70.611064 36.493114 70.660991 36.424209 70.721265 36.367289 C 70.781536 36.310364 70.85044 36.266681 70.927454 36.236548 C 71.007815 36.203061 71.093362 36.186422 71.183769 36.186422 z M 42.102856 36.271688 C 42.173172 36.271688 42.24338 36.285209 42.313696 36.311995 C 42.38401 36.338782 42.449277 36.377524 42.50955 36.427751 C 42.569824 36.474627 42.622086 36.529495 42.665613 36.593115 C 42.712487 36.656735 42.745772 36.72564 42.765865 36.799304 L 42.765865 37.422005 C 42.688852 37.549244 42.596545 37.653253 42.489396 37.733614 C 42.382248 37.813975 42.256656 37.85402 42.112675 37.85402 C 42.005526 37.85402 41.908795 37.833739 41.821737 37.793559 C 41.734679 37.753378 41.659014 37.69851 41.595394 37.628194 C 41.535124 37.557878 41.4865 37.475452 41.449666 37.381698 C 41.41618 37.287942 41.39954 37.185753 41.39954 37.075256 C 41.39954 36.971456 41.41618 36.871086 41.449666 36.773983 C 41.486496 36.676879 41.535121 36.591849 41.595394 36.518184 C 41.659013 36.441169 41.732859 36.380844 41.816569 36.337317 C 41.903627 36.29379 41.999056 36.271688 42.102856 36.271688 z M 65.643538 36.271688 C 65.740642 36.271688 65.83113 36.291969 65.91484 36.332149 C 65.998548 36.368981 66.070574 36.422547 66.130847 36.492863 C 66.194464 36.56318 66.243088 36.646907 66.276575 36.74401 C 66.313408 36.841114 66.331869 36.946425 66.331869 37.06027 C 66.331869 37.177464 66.313408 37.284594 66.276575 37.381698 C 66.243091 37.478801 66.194467 37.562529 66.130847 37.632845 C 66.070576 37.703162 65.99855 37.758546 65.91484 37.798726 C 65.83113 37.83556 65.740642 37.85402 65.643538 37.85402 C 65.546435 37.85402 65.455947 37.83556 65.372237 37.798726 C 65.288528 37.758546 65.215199 37.703162 65.151579 37.632845 C 65.091309 37.562529 65.042685 37.48062 65.005851 37.386865 C 64.972365 37.289761 64.955725 37.182631 64.955725 37.065438 C 64.955725 36.951593 64.972365 36.846281 65.005851 36.749178 C 65.042681 36.652074 65.091306 36.568347 65.151579 36.498031 C 65.215199 36.427714 65.288528 36.372329 65.372237 36.332149 C 65.455947 36.291969 65.546435 36.271688 65.643538 36.271688 z M 48.205326 37.120732 C 48.292384 37.120732 48.382872 37.130611 48.476628 37.150704 C 48.570382 37.167451 48.657232 37.190851 48.737594 37.220984 L 48.737594 37.522774 C 48.737594 37.593094 48.700671 37.65654 48.627006 37.71346 C 48.570083 37.780429 48.489994 37.833994 48.386194 37.874174 C 48.285742 37.914354 48.178612 37.934119 48.064767 37.934119 C 47.937528 37.934119 47.830397 37.897712 47.743339 37.824048 C 47.656281 37.747035 47.612598 37.651606 47.612598 37.53776 C 47.612598 37.417219 47.667982 37.318151 47.778479 37.241138 C 47.888976 37.160776 48.03121 37.120732 48.205326 37.120732 z M 75.457927 37.652999 L 75.457927 38.376469 L 76.010348 38.376469 L 76.010348 37.652999 L 75.457927 37.652999 z M 76.58809 37.652999 L 76.58809 38.376469 L 77.140511 38.376469 L 77.140511 37.652999 L 76.58809 37.652999 z M 77.717737 37.652999 L 77.717737 38.376469 L 78.270675 38.376469 L 78.270675 37.652999 L 77.717737 37.652999 z " /></svg>
