<?xml version="1.0" encoding="UTF-8" standalone="no"?>
<svg
   width="700.00061"
   height="220"
   viewBox="0 0 185.20849 58.208335"
   version="1.1"
   id="svg243962"
   xml:space="preserve"
   xmlns="http://www.w3.org/2000/svg"
   xmlns:svg="http://www.w3.org/2000/svg"><defs
     id="defs243959" /><g
     id="layer2"
     style="font-variation-settings:normal;opacity:1;vector-effect:none;fill:#cbe1fb;fill-opacity:1;stroke-width:0.125564;stroke-linecap:butt;stroke-linejoin:miter;stroke-miterlimit:4;stroke-dasharray:none;stroke-dashoffset:0;stroke-opacity:1;-inkscape-stroke:none;stop-color:#000000;stop-opacity:1"
     transform="translate(-1952.0845)"><g
       id="layer3-52"
       transform="translate(1934.9502,-30.760583)"
       style="font-variation-settings:normal;vector-effect:none;fill:#cbe1fb;fill-opacity:1;stroke-width:0.125564;stroke-linecap:butt;stroke-linejoin:miter;stroke-miterlimit:4;stroke-dasharray:none;stroke-dashoffset:0;stroke-opacity:1;-inkscape-stroke:none;stop-color:#000000;stop-opacity:1"><g
         aria-label="Добро пожаловать!"
         id="text118971-5"
         style="font-size:9.87366px;line-height:1.25;font-family:'Roboto Condensed';-inkscape-font-specification:'Roboto Condensed, ';vector-effect:none;stroke-width:0.125564;stop-color:#000000;stop-opacity:1"><path
           d="m 23.26506,43.863099 h 0.246842 q 0.286336,-0.0099 0.503556,-0.167852 0.217221,-0.157979 0.385073,-0.582546 0.167852,-0.424568 0.29621,-1.165092 0.128358,-0.750398 0.236968,-1.925364 l 0.177726,-1.974732 h 4.245674 v 5.815586 h 1.036734 V 46.80545 H 29.120141 V 45.057812 H 24.548636 V 46.80545 H 23.26506 Z m 4.729483,0 v -4.620873 h -1.648901 l -0.09874,1.066355 q -0.118484,1.372439 -0.335705,2.231447 -0.207347,0.859009 -0.543051,1.323071 z"
           style="font-weight:bold;font-family:Raleway;-inkscape-font-specification:Raleway;vector-effect:none;stop-color:#000000;stop-opacity:1"
           id="path224" /><path
           d="m 33.454662,45.156548 q -0.631915,0 -1.135471,-0.21722 -0.503557,-0.217221 -0.859009,-0.582546 -0.345578,-0.375199 -0.533177,-0.859009 -0.1876,-0.483809 -0.1876,-1.016987 0,-0.543051 0.1876,-1.02686 0.187599,-0.48381 0.533177,-0.849135 0.355452,-0.375199 0.859009,-0.59242 0.503556,-0.21722 1.135471,-0.21722 0.631914,0 1.125597,0.21722 0.503557,0.217221 0.849135,0.59242 0.355451,0.365325 0.543051,0.849135 0.187599,0.483809 0.187599,1.02686 0,0.533178 -0.187599,1.016987 -0.1876,0.48381 -0.533178,0.859009 -0.345578,0.365325 -0.849134,0.582546 -0.503557,0.21722 -1.135471,0.21722 z M 32.10197,42.480786 q 0,0.345579 0.09874,0.631915 0.10861,0.276462 0.286336,0.483809 0.187599,0.207347 0.434441,0.325831 0.246841,0.10861 0.533178,0.10861 0.286336,0 0.533177,-0.10861 0.246842,-0.118484 0.424568,-0.325831 0.187599,-0.207347 0.286336,-0.493683 0.10861,-0.286336 0.10861,-0.631914 0,-0.335705 -0.10861,-0.622041 -0.09874,-0.286336 -0.286336,-0.493683 -0.177726,-0.207347 -0.424568,-0.315957 -0.246841,-0.118484 -0.533177,-0.118484 -0.286337,0 -0.533178,0.118484 -0.246842,0.118484 -0.434441,0.325831 -0.177726,0.207347 -0.286336,0.493683 -0.09874,0.286336 -0.09874,0.62204 z"
           style="font-weight:bold;font-family:Raleway;-inkscape-font-specification:Raleway;vector-effect:none;stop-color:#000000;stop-opacity:1"
           id="path225" /><path
           d="m 39.605942,39.301468 q -0.62204,0.138231 -0.987366,0.533178 -0.355451,0.394946 -0.483809,1.13547 0.306083,-0.375199 0.740524,-0.572672 0.434442,-0.207347 0.977493,-0.207347 0.473935,0 0.888629,0.1876 0.414694,0.187599 0.720777,0.51343 0.315958,0.325831 0.493683,0.770146 0.1876,0.444314 0.1876,0.957745 0,0.533177 -0.1876,0.997239 -0.177725,0.464062 -0.523304,0.80964 -0.335704,0.335705 -0.829387,0.533178 -0.493683,0.197473 -1.115724,0.197473 -1.283575,0 -1.945111,-0.799766 -0.661535,-0.80964 -0.661535,-2.359805 0,-0.878756 0.167852,-1.530417 0.167853,-0.661535 0.503557,-1.115724 0.345578,-0.464062 0.849135,-0.750398 0.51343,-0.286336 1.184839,-0.434441 l 1.91549,-0.424567 0.08886,1.115723 z m -1.372438,3.287929 q 0,0.32583 0.09874,0.592419 0.09874,0.266589 0.266589,0.464062 0.167852,0.1876 0.40482,0.29621 0.236968,0.10861 0.523304,0.10861 0.562799,0 0.908377,-0.385072 0.345578,-0.394947 0.345578,-1.036735 0,-0.592419 -0.355452,-0.957745 -0.355452,-0.375199 -0.937998,-0.375199 -0.552925,0 -0.908376,0.355452 -0.345578,0.355452 -0.345578,0.937998 z"
           style="font-weight:bold;font-family:Raleway;-inkscape-font-specification:Raleway;vector-effect:none;stop-color:#000000;stop-opacity:1"
           id="path226" /><path
           d="m 46.171924,45.156548 q -0.612167,0 -1.066355,-0.266588 -0.454188,-0.276463 -0.710904,-0.740525 v 3.011466 h -1.32307 v -7.276887 h 1.155218 v 0.888629 q 0.286336,-0.454188 0.740525,-0.710903 0.454188,-0.266589 1.046608,-0.266589 0.523304,0 0.967618,0.21722 0.444315,0.207347 0.760272,0.572673 0.325831,0.355451 0.503557,0.849134 0.187599,0.48381 0.187599,1.026861 0,0.562799 -0.167852,1.056482 -0.167852,0.493683 -0.473935,0.859008 -0.29621,0.365326 -0.710904,0.572672 -0.414694,0.207347 -0.908377,0.207347 z M 45.72761,44.030951 q 0.296209,0 0.543051,-0.128357 0.256715,-0.128358 0.434441,-0.345579 0.177726,-0.21722 0.276462,-0.503556 0.09874,-0.286336 0.09874,-0.59242 0,-0.325831 -0.10861,-0.602293 -0.10861,-0.286336 -0.306084,-0.493683 -0.187599,-0.207347 -0.454188,-0.325831 -0.256715,-0.118484 -0.562799,-0.118484 -0.187599,0 -0.385072,0.06912 -0.197474,0.05924 -0.365326,0.177726 -0.167852,0.118484 -0.306083,0.276462 -0.128358,0.157979 -0.197474,0.345578 v 1.21446 q 0.177726,0.444315 0.543052,0.740525 0.365325,0.286336 0.789893,0.286336 z"
           style="font-weight:bold;font-family:Raleway;-inkscape-font-specification:Raleway;vector-effect:none;stop-color:#000000;stop-opacity:1"
           id="path227" /><path
           d="m 51.711032,45.156548 q -0.631915,0 -1.135471,-0.21722 -0.503557,-0.217221 -0.859009,-0.582546 -0.345578,-0.375199 -0.533177,-0.859009 -0.1876,-0.483809 -0.1876,-1.016987 0,-0.543051 0.1876,-1.02686 0.187599,-0.48381 0.533177,-0.849135 0.355452,-0.375199 0.859009,-0.59242 0.503556,-0.21722 1.135471,-0.21722 0.631914,0 1.125597,0.21722 0.503557,0.217221 0.849135,0.59242 0.355451,0.365325 0.543051,0.849135 0.1876,0.483809 0.1876,1.02686 0,0.533178 -0.1876,1.016987 -0.1876,0.48381 -0.533178,0.859009 -0.345578,0.365325 -0.849134,0.582546 -0.503557,0.21722 -1.135471,0.21722 z M 50.35834,42.480786 q 0,0.345579 0.09874,0.631915 0.10861,0.276462 0.286336,0.483809 0.1876,0.207347 0.434441,0.325831 0.246842,0.10861 0.533178,0.10861 0.286336,0 0.533177,-0.10861 0.246842,-0.118484 0.424568,-0.325831 0.187599,-0.207347 0.286336,-0.493683 0.10861,-0.286336 0.10861,-0.631914 0,-0.335705 -0.10861,-0.622041 -0.09874,-0.286336 -0.286336,-0.493683 -0.177726,-0.207347 -0.424568,-0.315957 -0.246841,-0.118484 -0.533177,-0.118484 -0.286336,0 -0.533178,0.118484 -0.246841,0.118484 -0.434441,0.325831 -0.177726,0.207347 -0.286336,0.493683 -0.09874,0.286336 -0.09874,0.62204 z"
           style="font-weight:bold;font-family:Raleway;-inkscape-font-specification:Raleway;vector-effect:none;stop-color:#000000;stop-opacity:1"
           id="path228" /><path
           d="M 62.226467,45.057812 H 60.91327 v -4.028454 h -1.905616 v 4.028454 h -1.313197 v -5.173798 h 4.53201 z"
           style="font-weight:bold;font-family:Raleway;-inkscape-font-specification:Raleway;vector-effect:none;stop-color:#000000;stop-opacity:1"
           id="path229" /><path
           d="m 65.830348,45.156548 q -0.631914,0 -1.135471,-0.21722 -0.503557,-0.217221 -0.859009,-0.582546 -0.345578,-0.375199 -0.533177,-0.859009 -0.1876,-0.483809 -0.1876,-1.016987 0,-0.543051 0.1876,-1.02686 0.187599,-0.48381 0.533177,-0.849135 0.355452,-0.375199 0.859009,-0.59242 0.503557,-0.21722 1.135471,-0.21722 0.631914,0 1.125597,0.21722 0.503557,0.217221 0.849135,0.59242 0.355452,0.365325 0.543051,0.849135 0.1876,0.483809 0.1876,1.02686 0,0.533178 -0.1876,1.016987 -0.187599,0.48381 -0.533178,0.859009 -0.345578,0.365325 -0.849134,0.582546 -0.503557,0.21722 -1.135471,0.21722 z m -1.352692,-2.675762 q 0,0.345579 0.09874,0.631915 0.10861,0.276462 0.286336,0.483809 0.1876,0.207347 0.434441,0.325831 0.246842,0.10861 0.533178,0.10861 0.286336,0 0.533177,-0.10861 0.246842,-0.118484 0.424568,-0.325831 0.187599,-0.207347 0.286336,-0.493683 0.10861,-0.286336 0.10861,-0.631914 0,-0.335705 -0.10861,-0.622041 -0.09874,-0.286336 -0.286336,-0.493683 -0.177726,-0.207347 -0.424568,-0.315957 -0.246841,-0.118484 -0.533177,-0.118484 -0.286336,0 -0.533178,0.118484 -0.246841,0.118484 -0.434441,0.325831 -0.177726,0.207347 -0.286336,0.493683 -0.09874,0.286336 -0.09874,0.62204 z"
           style="font-weight:bold;font-family:Raleway;-inkscape-font-specification:Raleway;vector-effect:none;stop-color:#000000;stop-opacity:1"
           id="path230" /><path
           d="m 70.322842,39.884014 1.283576,2.043847 h 0.503556 v -2.043847 h 1.352692 v 2.043847 h 0.51343 l 1.273702,-2.043847 h 1.490923 l -1.668649,2.498036 1.826628,2.675762 h -1.550165 l -1.29345,-2.033974 h -0.592419 v 2.033974 h -1.342818 v -2.033974 h -0.602293 l -1.29345,2.033974 h -1.550164 l 1.816753,-2.675762 -1.658775,-2.498036 z"
           style="font-weight:bold;font-family:Raleway;-inkscape-font-specification:Raleway;vector-effect:none;stop-color:#000000;stop-opacity:1"
           id="path231" /><path
           d="m 78.903042,45.156548 q -0.375199,0 -0.70103,-0.118484 -0.325831,-0.128357 -0.562799,-0.345578 -0.236968,-0.227094 -0.375199,-0.523304 -0.128358,-0.296209 -0.128358,-0.651661 0,-0.365326 0.157979,-0.671409 0.167852,-0.315957 0.454188,-0.533178 0.29621,-0.21722 0.70103,-0.335704 0.40482,-0.128358 0.88863,-0.128358 0.345578,0 0.671409,0.05924 0.335704,0.05924 0.592419,0.167852 v -0.296209 q 0,-0.513431 -0.29621,-0.789893 -0.286336,-0.276463 -0.859008,-0.276463 -0.414694,0 -0.80964,0.148105 -0.394947,0.148105 -0.80964,0.434441 l -0.40482,-0.839261 q 0.997239,-0.661535 2.152457,-0.661535 1.115724,0 1.727891,0.552925 0.622041,0.543051 0.622041,1.579785 v 1.609407 q 0,0.207347 0.06912,0.29621 0.07899,0.08886 0.246842,0.09874 v 1.125598 q -0.335705,0.06912 -0.582546,0.06912 -0.375199,0 -0.582546,-0.167852 -0.197473,-0.167852 -0.246842,-0.444315 l -0.02962,-0.286336 q -0.345578,0.454189 -0.839261,0.691156 -0.493683,0.236968 -1.056481,0.236968 z m 0.375199,-0.967618 q 0.335704,0 0.631914,-0.118484 0.306083,-0.118484 0.473936,-0.315957 0.21722,-0.167853 0.21722,-0.375199 v -0.59242 q -0.236968,-0.08886 -0.51343,-0.138231 -0.276463,-0.05924 -0.533178,-0.05924 -0.51343,0 -0.839261,0.236968 -0.325831,0.227094 -0.325831,0.582546 0,0.335704 0.256715,0.562798 0.256716,0.217221 0.631915,0.217221 z"
           style="font-weight:bold;font-family:Raleway;-inkscape-font-specification:Raleway;vector-effect:none;stop-color:#000000;stop-opacity:1"
           id="path232" /><path
           d="m 82.655014,43.932214 q 0.286336,-0.01975 0.464062,-0.118483 0.1876,-0.09874 0.306084,-0.365326 0.128357,-0.266589 0.207347,-0.730651 0.08886,-0.473935 0.177726,-1.234207 l 0.177725,-1.599533 h 3.623634 v 5.173798 h -1.313197 v -4.067948 h -1.155218 l -0.09874,0.780019 q -0.118484,0.977492 -0.286336,1.61928 -0.167852,0.631914 -0.434441,1.007114 -0.256715,0.375199 -0.641788,0.533177 -0.385073,0.148105 -0.947871,0.167852 z"
           style="font-weight:bold;font-family:Raleway;-inkscape-font-specification:Raleway;vector-effect:none;stop-color:#000000;stop-opacity:1"
           id="path233" /><path
           d="m 91.225348,45.156548 q -0.631914,0 -1.135471,-0.21722 -0.503556,-0.217221 -0.859008,-0.582546 -0.345578,-0.375199 -0.533178,-0.859009 -0.187599,-0.483809 -0.187599,-1.016987 0,-0.543051 0.187599,-1.02686 0.1876,-0.48381 0.533178,-0.849135 0.355452,-0.375199 0.859008,-0.59242 0.503557,-0.21722 1.135471,-0.21722 0.631914,0 1.125597,0.21722 0.503557,0.217221 0.849135,0.59242 0.355452,0.365325 0.543052,0.849135 0.187599,0.483809 0.187599,1.02686 0,0.533178 -0.187599,1.016987 -0.1876,0.48381 -0.533178,0.859009 -0.345578,0.365325 -0.849135,0.582546 -0.503557,0.21722 -1.135471,0.21722 z m -1.352691,-2.675762 q 0,0.345579 0.09874,0.631915 0.108611,0.276462 0.286337,0.483809 0.187599,0.207347 0.434441,0.325831 0.246841,0.10861 0.533177,0.10861 0.286336,0 0.533178,-0.10861 0.246841,-0.118484 0.424567,-0.325831 0.1876,-0.207347 0.286336,-0.493683 0.108611,-0.286336 0.108611,-0.631914 0,-0.335705 -0.108611,-0.622041 -0.09874,-0.286336 -0.286336,-0.493683 -0.177726,-0.207347 -0.424567,-0.315957 -0.246842,-0.118484 -0.533178,-0.118484 -0.286336,0 -0.533177,0.118484 -0.246842,0.118484 -0.434441,0.325831 -0.177726,0.207347 -0.286337,0.493683 -0.09874,0.286336 -0.09874,0.62204 z"
           style="font-weight:bold;font-family:Raleway;-inkscape-font-specification:Raleway;vector-effect:none;stop-color:#000000;stop-opacity:1"
           id="path234" /><path
           d="m 97.909807,39.884014 q 0.286336,0 0.523304,0.10861 0.236968,0.09874 0.40482,0.276463 0.177726,0.177725 0.266589,0.414693 0.09874,0.236968 0.09874,0.503557 0,0.335704 -0.177726,0.681283 -0.177726,0.335704 -0.582546,0.503556 0.454188,0.128358 0.710903,0.444315 0.266589,0.306083 0.266589,0.839261 0,0.710904 -0.493683,1.056482 -0.493683,0.345578 -1.362565,0.345578 h -2.715257 v -5.173798 z m -0.622041,2.162331 q 0.276463,0 0.444315,-0.157978 0.167852,-0.157979 0.167852,-0.454189 0,-0.246841 -0.148105,-0.414693 -0.138231,-0.177726 -0.424567,-0.177726 h -1.165092 v 1.204586 z m 0.177726,2.053722 q 0.286336,0 0.454189,-0.1876 0.177726,-0.187599 0.177726,-0.454188 0,-0.276463 -0.167853,-0.454189 -0.167852,-0.187599 -0.454188,-0.187599 h -1.313197 v 1.283576 z"
           style="font-weight:bold;font-family:Raleway;-inkscape-font-specification:Raleway;vector-effect:none;stop-color:#000000;stop-opacity:1"
           id="path235" /><path
           d="m 101.73091,45.156548 q -0.3752,0 -0.70103,-0.118484 -0.32583,-0.128357 -0.5628,-0.345578 -0.23697,-0.227094 -0.3752,-0.523304 -0.128354,-0.296209 -0.128354,-0.651661 0,-0.365326 0.157974,-0.671409 0.16786,-0.315957 0.45419,-0.533178 0.29621,-0.21722 0.70103,-0.335704 0.40482,-0.128358 0.88863,-0.128358 0.34558,0 0.67141,0.05924 0.33571,0.05924 0.59242,0.167852 v -0.296209 q 0,-0.513431 -0.29621,-0.789893 -0.28634,-0.276463 -0.85901,-0.276463 -0.41469,0 -0.80964,0.148105 -0.39494,0.148105 -0.80964,0.434441 l -0.40482,-0.839261 q 0.99724,-0.661535 2.15246,-0.661535 1.11572,0 1.72789,0.552925 0.62204,0.543051 0.62204,1.579785 v 1.609407 q 0,0.207347 0.0691,0.29621 0.079,0.08886 0.24684,0.09874 v 1.125598 q -0.33571,0.06912 -0.58255,0.06912 -0.3752,0 -0.58254,-0.167852 -0.19748,-0.167852 -0.24685,-0.444315 l -0.0296,-0.286336 q -0.34557,0.454189 -0.83926,0.691156 -0.49368,0.236968 -1.05648,0.236968 z m 0.3752,-0.967618 q 0.3357,0 0.63191,-0.118484 0.30609,-0.118484 0.47394,-0.315957 0.21722,-0.167853 0.21722,-0.375199 v -0.59242 q -0.23697,-0.08886 -0.51343,-0.138231 -0.27646,-0.05924 -0.53318,-0.05924 -0.51343,0 -0.83926,0.236968 -0.32583,0.227094 -0.32583,0.582546 0,0.335704 0.25672,0.562798 0.25671,0.217221 0.63191,0.217221 z"
           style="font-weight:bold;font-family:Raleway;-inkscape-font-specification:Raleway;vector-effect:none;stop-color:#000000;stop-opacity:1"
           id="path236" /><path
           d="m 108.35611,45.057812 h -1.3132 v -4.028454 h -1.61928 v -1.145344 h 4.54188 v 1.145344 h -1.6094 z"
           style="font-weight:bold;font-family:Raleway;-inkscape-font-specification:Raleway;vector-effect:none;stop-color:#000000;stop-opacity:1"
           id="path237" /><path
           d="m 110.7554,39.884014 h 1.31319 v 1.639027 h 1.00712 q 0.41469,0 0.77014,0.118484 0.36533,0.108611 0.63192,0.335705 0.26659,0.21722 0.41469,0.552925 0.15798,0.325831 0.15798,0.750398 0,0.434441 -0.14811,0.770145 -0.1481,0.325831 -0.40482,0.552925 -0.25671,0.227095 -0.61216,0.345578 -0.34558,0.108611 -0.76027,0.108611 h -2.36968 z m 2.22157,4.137063 q 0.34558,0 0.54305,-0.177725 0.19747,-0.1876 0.19747,-0.543052 0,-0.355452 -0.20734,-0.543051 -0.20735,-0.197473 -0.52331,-0.197473 h -0.91825 v 1.461301 z"
           style="font-weight:bold;font-family:Raleway;-inkscape-font-specification:Raleway;vector-effect:none;stop-color:#000000;stop-opacity:1"
           id="path238" /><path
           d="m 116.10692,42.421544 v -4.443147 h 1.32307 v 4.443147 z m 0,2.636268 v -1.490923 h 1.32307 v 1.490923 z"
           style="font-weight:bold;font-family:Raleway;-inkscape-font-specification:Raleway;vector-effect:none;stop-color:#000000;stop-opacity:1"
           id="path239" /></g><g
         aria-label="Давайте кое-что настроим…"
         id="text115541-38"
         style="font-size:5.02259px;line-height:1.25;font-family:'Roboto Condensed';-inkscape-font-specification:'Roboto Condensed, ';vector-effect:none;stroke-width:0.125564;stop-color:#000000;stop-opacity:1"><path
           d="m 29.105201,53.650701 h 0.125565 q 0.145655,-0.005 0.256152,-0.08538 0.110497,-0.08036 0.195881,-0.296333 0.08538,-0.215971 0.150678,-0.592666 0.06529,-0.381716 0.120542,-0.979405 l 0.09041,-1.004518 h 2.159714 v 2.958306 h 0.527371 v 1.496732 H 32.0836 v -0.888999 h -2.325459 v 0.888999 h -0.652937 z m 2.405821,0 V 51.300129 H 30.67225 l -0.05023,0.542439 q -0.06027,0.69814 -0.170768,1.135106 -0.105475,0.436965 -0.276243,0.673027 z"
           style="font-weight:bold;font-family:Raleway;-inkscape-font-specification:Raleway;vector-effect:none;stop-color:#000000;stop-opacity:1"
           id="path201" /><path
           d="m 33.846526,54.30866 q -0.190858,0 -0.356603,-0.06027 -0.165746,-0.06529 -0.286288,-0.175791 -0.120542,-0.115519 -0.190859,-0.266197 -0.06529,-0.150678 -0.06529,-0.331491 0,-0.185836 0.08036,-0.341536 0.08538,-0.160723 0.231039,-0.27122 0.150678,-0.110497 0.356604,-0.170768 0.205926,-0.06529 0.452033,-0.06529 0.175791,0 0.341537,0.03014 0.170768,0.03014 0.301355,0.08538 v -0.150678 q 0,-0.261174 -0.150678,-0.401807 -0.145655,-0.140632 -0.436965,-0.140632 -0.210949,0 -0.411853,0.07534 -0.200903,0.07534 -0.411852,0.220994 l -0.205926,-0.42692 q 0.507281,-0.336513 1.094925,-0.336513 0.567552,0 0.878953,0.281265 0.316423,0.276242 0.316423,0.803614 v 0.818682 q 0,0.105475 0.03516,0.150678 0.04018,0.0452 0.125565,0.05023 v 0.572575 q -0.170768,0.03516 -0.296333,0.03516 -0.190858,0 -0.296333,-0.08538 -0.100452,-0.08538 -0.125565,-0.226016 l -0.01507,-0.145655 q -0.175791,0.231039 -0.42692,0.351581 -0.25113,0.120542 -0.537418,0.120542 z m 0.190859,-0.492214 q 0.170768,0 0.321446,-0.06027 0.1557,-0.06027 0.241084,-0.160723 0.110497,-0.08538 0.110497,-0.190858 V 53.10324 q -0.120542,-0.0452 -0.261175,-0.07032 -0.140632,-0.03014 -0.27122,-0.03014 -0.261174,0 -0.42692,0.120542 -0.165745,0.115519 -0.165745,0.296333 0,0.170768 0.130587,0.286287 0.130587,0.110497 0.321446,0.110497 z"
           style="font-weight:bold;font-family:Raleway;-inkscape-font-specification:Raleway;vector-effect:none;stop-color:#000000;stop-opacity:1"
           id="path202" /><path
           d="m 37.59337,51.626597 q 0.145655,0 0.266197,0.05525 0.120543,0.05022 0.205927,0.140632 0.09041,0.09041 0.13561,0.210949 0.05023,0.120542 0.05023,0.256152 0,0.170768 -0.09041,0.346559 -0.09041,0.170768 -0.296333,0.256152 0.231039,0.06529 0.361627,0.226016 0.135609,0.155701 0.135609,0.42692 0,0.361627 -0.251129,0.537418 -0.25113,0.17579 -0.693117,0.17579 h -1.381213 v -2.631837 z m -0.316423,1.099947 q 0.140633,0 0.226017,-0.08036 0.08538,-0.08036 0.08538,-0.231039 0,-0.125565 -0.07534,-0.210949 -0.07032,-0.09041 -0.215972,-0.09041 h -0.592665 v 0.612756 z m 0.09041,1.044699 q 0.145655,0 0.231039,-0.09543 0.09041,-0.09543 0.09041,-0.231039 0,-0.140633 -0.08538,-0.231039 -0.08538,-0.09543 -0.231039,-0.09543 h -0.668004 v 0.652937 z"
           style="font-weight:bold;font-family:Raleway;-inkscape-font-specification:Raleway;vector-effect:none;stop-color:#000000;stop-opacity:1"
           id="path203" /><path
           d="m 39.537109,54.30866 q -0.190858,0 -0.356604,-0.06027 -0.165745,-0.06529 -0.286287,-0.175791 -0.120543,-0.115519 -0.190859,-0.266197 -0.06529,-0.150678 -0.06529,-0.331491 0,-0.185836 0.08036,-0.341536 0.08538,-0.160723 0.231039,-0.27122 0.150678,-0.110497 0.356604,-0.170768 0.205926,-0.06529 0.452033,-0.06529 0.175791,0 0.341536,0.03014 0.170768,0.03014 0.301356,0.08538 v -0.150678 q 0,-0.261174 -0.150678,-0.401807 -0.145655,-0.140632 -0.436965,-0.140632 -0.210949,0 -0.411853,0.07534 -0.200903,0.07534 -0.411852,0.220994 l -0.205926,-0.42692 q 0.507281,-0.336513 1.094924,-0.336513 0.567553,0 0.878954,0.281265 0.316423,0.276242 0.316423,0.803614 v 0.818682 q 0,0.105475 0.03516,0.150678 0.04018,0.0452 0.125565,0.05023 v 0.572575 q -0.170768,0.03516 -0.296333,0.03516 -0.190859,0 -0.296333,-0.08538 -0.100452,-0.08538 -0.125565,-0.226016 l -0.01507,-0.145655 q -0.17579,0.231039 -0.42692,0.351581 -0.251129,0.120542 -0.537417,0.120542 z m 0.190859,-0.492214 q 0.170768,0 0.321445,-0.06027 0.155701,-0.06027 0.241085,-0.160723 0.110497,-0.08538 0.110497,-0.190858 V 53.10324 q -0.120543,-0.0452 -0.261175,-0.07032 -0.140633,-0.03014 -0.27122,-0.03014 -0.261175,0 -0.42692,0.120542 -0.165746,0.115519 -0.165746,0.296333 0,0.170768 0.130588,0.286287 0.130587,0.110497 0.321446,0.110497 z"
           style="font-weight:bold;font-family:Raleway;-inkscape-font-specification:Raleway;vector-effect:none;stop-color:#000000;stop-opacity:1"
           id="path204" /><path
           d="m 43.806302,50.591943 q -0.01005,0.316424 -0.236061,0.497237 -0.226017,0.175791 -0.592666,0.175791 -0.366649,0 -0.592666,-0.175791 -0.226016,-0.180813 -0.236061,-0.497237 h 0.371671 q 0.005,0.190859 0.120542,0.281266 0.120543,0.09041 0.336514,0.09041 0.431943,0 0.462078,-0.371672 z m -1.41637,2.707177 1.245602,-1.672523 h 0.497237 v 2.631837 h -0.668005 v -1.627319 l -1.230534,1.627319 h -0.512305 v -2.631837 h 0.668005 z"
           style="font-weight:bold;font-family:Raleway;-inkscape-font-specification:Raleway;vector-effect:none;stop-color:#000000;stop-opacity:1"
           id="path205" /><path
           d="m 46.026282,54.258434 h -0.668005 v -2.049216 h -0.823705 v -0.582621 h 2.310392 v 0.582621 h -0.818682 z"
           style="font-weight:bold;font-family:Raleway;-inkscape-font-specification:Raleway;vector-effect:none;stop-color:#000000;stop-opacity:1"
           id="path206" /><path
           d="m 48.331641,54.30866 q -0.316423,0 -0.572576,-0.105474 -0.256152,-0.110497 -0.436965,-0.296333 -0.180813,-0.185836 -0.281265,-0.431943 -0.09543,-0.246107 -0.09543,-0.517327 0,-0.281265 0.09543,-0.527372 0.09543,-0.251129 0.276243,-0.436965 0.180813,-0.190858 0.436965,-0.301355 0.261175,-0.110497 0.58262,-0.110497 0.321446,0 0.572576,0.110497 0.256152,0.110497 0.431942,0.296333 0.180814,0.185835 0.27122,0.431942 0.09543,0.246107 0.09543,0.512304 0,0.06529 -0.005,0.125565 0,0.06027 -0.01004,0.100452 h -2.034149 q 0.01507,0.1557 0.07534,0.276243 0.06027,0.120542 0.1557,0.205926 0.09543,0.08538 0.215971,0.130587 0.120542,0.0452 0.25113,0.0452 0.200903,0 0.376694,-0.09543 0.180813,-0.100452 0.246107,-0.261175 l 0.577598,0.160723 q -0.145655,0.301356 -0.467101,0.497237 -0.316423,0.190858 -0.758411,0.190858 z m 0.683072,-1.587138 q -0.02511,-0.296333 -0.220994,-0.472124 -0.190858,-0.180813 -0.467101,-0.180813 -0.13561,0 -0.256152,0.05023 -0.11552,0.0452 -0.205926,0.130587 -0.09041,0.08538 -0.150678,0.205926 -0.05525,0.120543 -0.06529,0.266198 z"
           style="font-weight:bold;font-family:Raleway;-inkscape-font-specification:Raleway;vector-effect:none;stop-color:#000000;stop-opacity:1"
           id="path207" /><path
           d="m 52.947395,51.626597 h 0.723253 l -1.024608,1.275738 1.10497,1.356099 h -0.763434 l -0.81366,-1.014563 h -0.17579 v 1.014563 h -0.662982 v -2.631837 h 0.662982 v 1.044699 h 0.150677 z"
           style="font-weight:bold;font-family:Raleway;-inkscape-font-specification:Raleway;vector-effect:none;stop-color:#000000;stop-opacity:1"
           id="path208" /><path
           d="m 55.147284,54.30866 q -0.321446,0 -0.577598,-0.110497 -0.256152,-0.110497 -0.436966,-0.296333 -0.17579,-0.190858 -0.27122,-0.436965 -0.09543,-0.246107 -0.09543,-0.517327 0,-0.276242 0.09543,-0.522349 0.09543,-0.246107 0.27122,-0.431943 0.180814,-0.190858 0.436966,-0.301355 0.256152,-0.110497 0.577598,-0.110497 0.321445,0 0.572575,0.110497 0.256152,0.110497 0.431943,0.301355 0.180813,0.185836 0.276242,0.431943 0.09543,0.246107 0.09543,0.522349 0,0.27122 -0.09543,0.517327 -0.09543,0.246107 -0.27122,0.436965 -0.175791,0.185836 -0.431943,0.296333 -0.256152,0.110497 -0.577597,0.110497 z m -0.688095,-1.361122 q 0,0.175791 0.05023,0.321446 0.05525,0.140633 0.145655,0.246107 0.09543,0.105474 0.220994,0.165745 0.125564,0.05525 0.27122,0.05525 0.145655,0 0.271219,-0.05525 0.125565,-0.06027 0.215972,-0.165745 0.09543,-0.105474 0.145655,-0.25113 0.05525,-0.145655 0.05525,-0.321445 0,-0.170768 -0.05525,-0.316424 -0.05023,-0.145655 -0.145655,-0.251129 -0.09041,-0.105474 -0.215972,-0.160723 -0.125564,-0.06027 -0.271219,-0.06027 -0.145656,0 -0.27122,0.06027 -0.125565,0.06027 -0.220994,0.165746 -0.09041,0.105474 -0.145655,0.251129 -0.05023,0.145655 -0.05023,0.316423 z"
           style="font-weight:bold;font-family:Raleway;-inkscape-font-specification:Raleway;vector-effect:none;stop-color:#000000;stop-opacity:1"
           id="path209" /><path
           d="m 58.195992,54.30866 q -0.316423,0 -0.572575,-0.105474 -0.256152,-0.110497 -0.436966,-0.296333 -0.180813,-0.185836 -0.281265,-0.431943 -0.09543,-0.246107 -0.09543,-0.517327 0,-0.281265 0.09543,-0.527372 0.09543,-0.251129 0.276243,-0.436965 0.180813,-0.190858 0.436965,-0.301355 0.261175,-0.110497 0.582621,-0.110497 0.321445,0 0.572575,0.110497 0.256152,0.110497 0.431943,0.296333 0.180813,0.185835 0.27122,0.431942 0.09543,0.246107 0.09543,0.512304 0,0.06529 -0.005,0.125565 0,0.06027 -0.01004,0.100452 h -2.034149 q 0.01507,0.1557 0.07534,0.276243 0.06027,0.120542 0.1557,0.205926 0.09543,0.08538 0.215971,0.130587 0.120543,0.0452 0.25113,0.0452 0.200904,0 0.376694,-0.09543 0.180813,-0.100452 0.246107,-0.261175 l 0.577598,0.160723 q -0.145655,0.301356 -0.467101,0.497237 -0.316423,0.190858 -0.758411,0.190858 z m 0.683072,-1.587138 q -0.02511,-0.296333 -0.220994,-0.472124 -0.190858,-0.180813 -0.467101,-0.180813 -0.13561,0 -0.256152,0.05023 -0.115519,0.0452 -0.205926,0.130587 -0.09041,0.08538 -0.150678,0.205926 -0.05525,0.120543 -0.06529,0.266198 z"
           style="font-weight:bold;font-family:Raleway;-inkscape-font-specification:Raleway;vector-effect:none;stop-color:#000000;stop-opacity:1"
           id="path210" /><path
           d="m 59.968961,53.1836 v -0.607733 h 1.521844 V 53.1836 Z"
           style="font-weight:bold;font-family:Raleway;-inkscape-font-specification:Raleway;vector-effect:none;stop-color:#000000;stop-opacity:1"
           id="path211" /><path
           d="M 63.981998,54.258434 H 63.324039 V 53.31921 q -0.11552,0.04018 -0.241085,0.06027 -0.120542,0.02009 -0.306378,0.02009 -0.226016,0 -0.391762,-0.07032 -0.165745,-0.07534 -0.276242,-0.195881 -0.110497,-0.125565 -0.165746,-0.29131 -0.05525,-0.165746 -0.05525,-0.356604 v -0.858863 h 0.647914 v 0.758411 q 0,0.261175 0.105474,0.371672 0.105475,0.110497 0.296333,0.110497 0.140633,0 0.231039,-0.02511 0.09543,-0.03014 0.155701,-0.07534 v -1.140128 h 0.657959 z"
           style="font-weight:bold;font-family:Raleway;-inkscape-font-specification:Raleway;vector-effect:none;stop-color:#000000;stop-opacity:1"
           id="path212" /><path
           d="M 65.875509,54.258434 H 65.207505 V 52.209218 H 64.3838 v -0.582621 h 2.310392 v 0.582621 h -0.818683 z"
           style="font-weight:bold;font-family:Raleway;-inkscape-font-specification:Raleway;vector-effect:none;stop-color:#000000;stop-opacity:1"
           id="path213" /><path
           d="m 68.175844,54.30866 q -0.321446,0 -0.577598,-0.110497 -0.256152,-0.110497 -0.436965,-0.296333 -0.175791,-0.190858 -0.27122,-0.436965 -0.09543,-0.246107 -0.09543,-0.517327 0,-0.276242 0.09543,-0.522349 0.09543,-0.246107 0.27122,-0.431943 0.180813,-0.190858 0.436965,-0.301355 0.256152,-0.110497 0.577598,-0.110497 0.321446,0 0.572575,0.110497 0.256153,0.110497 0.431943,0.301355 0.180813,0.185836 0.276243,0.431943 0.09543,0.246107 0.09543,0.522349 0,0.27122 -0.09543,0.517327 -0.09543,0.246107 -0.27122,0.436965 -0.175791,0.185836 -0.431943,0.296333 -0.256152,0.110497 -0.577598,0.110497 z m -0.688095,-1.361122 q 0,0.175791 0.05023,0.321446 0.05525,0.140633 0.145655,0.246107 0.09543,0.105474 0.220994,0.165745 0.125565,0.05525 0.27122,0.05525 0.145655,0 0.27122,-0.05525 0.125565,-0.06027 0.215971,-0.165745 0.09543,-0.105474 0.145656,-0.25113 0.05525,-0.145655 0.05525,-0.321445 0,-0.170768 -0.05525,-0.316424 -0.05023,-0.145655 -0.145656,-0.251129 -0.09041,-0.105474 -0.215971,-0.160723 -0.125565,-0.06027 -0.27122,-0.06027 -0.145655,0 -0.27122,0.06027 -0.125564,0.06027 -0.220994,0.165746 -0.09041,0.105474 -0.145655,0.251129 -0.05023,0.145655 -0.05023,0.316423 z"
           style="font-weight:bold;font-family:Raleway;-inkscape-font-specification:Raleway;vector-effect:none;stop-color:#000000;stop-opacity:1"
           id="path214" /><path
           d="m 71.887531,52.62107 h 1.044698 v -0.994473 h 0.668005 v 2.631837 h -0.668005 v -1.064789 h -1.044698 v 1.064789 h -0.668005 v -2.631837 h 0.668005 z"
           style="font-weight:bold;font-family:Raleway;-inkscape-font-specification:Raleway;vector-effect:none;stop-color:#000000;stop-opacity:1"
           id="path215" /><path
           d="m 74.936241,54.30866 q -0.190858,0 -0.356604,-0.06027 -0.165745,-0.06529 -0.286288,-0.175791 -0.120542,-0.115519 -0.190858,-0.266197 -0.06529,-0.150678 -0.06529,-0.331491 0,-0.185836 0.08036,-0.341536 0.08538,-0.160723 0.231039,-0.27122 0.150678,-0.110497 0.356604,-0.170768 0.205926,-0.06529 0.452033,-0.06529 0.175791,0 0.341536,0.03014 0.170768,0.03014 0.301355,0.08538 v -0.150678 q 0,-0.261174 -0.150677,-0.401807 -0.145655,-0.140632 -0.436966,-0.140632 -0.210948,0 -0.411852,0.07534 -0.200904,0.07534 -0.411852,0.220994 l -0.205927,-0.42692 q 0.507282,-0.336513 1.094925,-0.336513 0.567553,0 0.878953,0.281265 0.316424,0.276242 0.316424,0.803614 v 0.818682 q 0,0.105475 0.03516,0.150678 0.04018,0.0452 0.125564,0.05023 v 0.572575 q -0.170768,0.03516 -0.296332,0.03516 -0.190859,0 -0.296333,-0.08538 -0.100452,-0.08538 -0.125565,-0.226016 l -0.01507,-0.145655 q -0.17579,0.231039 -0.42692,0.351581 -0.251129,0.120542 -0.537417,0.120542 z m 0.190858,-0.492214 q 0.170768,0 0.321446,-0.06027 0.1557,-0.06027 0.241084,-0.160723 0.110497,-0.08538 0.110497,-0.190858 V 53.10324 q -0.120542,-0.0452 -0.261174,-0.07032 -0.140633,-0.03014 -0.27122,-0.03014 -0.261175,0 -0.42692,0.120542 -0.165746,0.115519 -0.165746,0.296333 0,0.170768 0.130588,0.286287 0.130587,0.110497 0.321445,0.110497 z"
           style="font-weight:bold;font-family:Raleway;-inkscape-font-specification:Raleway;vector-effect:none;stop-color:#000000;stop-opacity:1"
           id="path216" /><path
           d="m 76.945267,52.942516 q 0,-0.276243 0.09543,-0.52235 0.09543,-0.246107 0.276242,-0.431942 0.180814,-0.185836 0.436966,-0.296333 0.256152,-0.110497 0.577598,-0.110497 0.431942,0 0.733298,0.185836 0.306378,0.185835 0.457055,0.487191 l -0.657959,0.200903 q -0.08538,-0.145655 -0.226016,-0.220994 -0.140633,-0.08036 -0.311401,-0.08036 -0.145655,0 -0.27122,0.06027 -0.125565,0.05525 -0.220994,0.160723 -0.09041,0.100452 -0.145655,0.246107 -0.05023,0.145655 -0.05023,0.321446 0,0.17579 0.05525,0.321445 0.05525,0.145656 0.145655,0.25113 0.09543,0.105474 0.220994,0.165745 0.125564,0.05525 0.266197,0.05525 0.180813,0 0.331491,-0.09041 0.1557,-0.09041 0.215971,-0.220994 l 0.65796,0.200904 q -0.13561,0.301355 -0.447011,0.492214 -0.311401,0.190858 -0.748366,0.190858 -0.321446,0 -0.577598,-0.110497 -0.256152,-0.110497 -0.436965,-0.296333 -0.180813,-0.190858 -0.281265,-0.436965 -0.09543,-0.251129 -0.09543,-0.522349 z"
           style="font-weight:bold;font-family:Raleway;-inkscape-font-specification:Raleway;vector-effect:none;stop-color:#000000;stop-opacity:1"
           id="path217" /><path
           d="M 81.214464,54.258434 H 80.54646 v -2.049216 h -0.823705 v -0.582621 h 2.310392 v 0.582621 h -0.818683 z"
           style="font-weight:bold;font-family:Raleway;-inkscape-font-specification:Raleway;vector-effect:none;stop-color:#000000;stop-opacity:1"
           id="path218" /><path
           d="m 84.012043,54.30866 q -0.311401,0 -0.54244,-0.13561 -0.231039,-0.140632 -0.361626,-0.376694 v 1.53189 H 82.43495 v -3.701649 h 0.587643 v 0.452033 q 0.145655,-0.231039 0.376694,-0.361626 0.231039,-0.13561 0.532395,-0.13561 0.266197,0 0.492213,0.110497 0.226017,0.105474 0.38674,0.29131 0.165745,0.180813 0.256152,0.431943 0.09543,0.246107 0.09543,0.522349 0,0.286288 -0.08538,0.537417 -0.08538,0.25113 -0.241084,0.436966 -0.150678,0.185835 -0.361627,0.29131 -0.210949,0.105474 -0.462078,0.105474 z m -0.226017,-0.572575 q 0.150678,0 0.276243,-0.06529 0.130587,-0.06529 0.220994,-0.17579 0.09041,-0.110497 0.140632,-0.256153 0.05023,-0.145655 0.05023,-0.301355 0,-0.165745 -0.05525,-0.306378 -0.05525,-0.145655 -0.155701,-0.251129 -0.09543,-0.105475 -0.231039,-0.165746 -0.130587,-0.06027 -0.286287,-0.06027 -0.09543,0 -0.195881,0.03516 -0.100452,0.03014 -0.185836,0.09041 -0.08538,0.06027 -0.1557,0.140632 -0.06529,0.08036 -0.100452,0.175791 v 0.617779 q 0.09041,0.226016 0.276242,0.376694 0.185836,0.145655 0.401807,0.145655 z"
           style="font-weight:bold;font-family:Raleway;-inkscape-font-specification:Raleway;vector-effect:none;stop-color:#000000;stop-opacity:1"
           id="path219" /><path
           d="m 86.82971,54.30866 q -0.321446,0 -0.577598,-0.110497 -0.256152,-0.110497 -0.436965,-0.296333 -0.175791,-0.190858 -0.27122,-0.436965 -0.09543,-0.246107 -0.09543,-0.517327 0,-0.276242 0.09543,-0.522349 0.09543,-0.246107 0.27122,-0.431943 0.180813,-0.190858 0.436965,-0.301355 0.256152,-0.110497 0.577598,-0.110497 0.321446,0 0.572575,0.110497 0.256152,0.110497 0.431943,0.301355 0.180813,0.185836 0.276242,0.431943 0.09543,0.246107 0.09543,0.522349 0,0.27122 -0.09543,0.517327 -0.09543,0.246107 -0.271219,0.436965 -0.175791,0.185836 -0.431943,0.296333 -0.256152,0.110497 -0.577598,0.110497 z m -0.688095,-1.361122 q 0,0.175791 0.05023,0.321446 0.05525,0.140633 0.145655,0.246107 0.09543,0.105474 0.220994,0.165745 0.125565,0.05525 0.27122,0.05525 0.145655,0 0.27122,-0.05525 0.125565,-0.06027 0.215971,-0.165745 0.09543,-0.105474 0.145655,-0.25113 0.05525,-0.145655 0.05525,-0.321445 0,-0.170768 -0.05525,-0.316424 -0.05023,-0.145655 -0.145655,-0.251129 -0.09041,-0.105474 -0.215971,-0.160723 -0.125565,-0.06027 -0.27122,-0.06027 -0.145655,0 -0.27122,0.06027 -0.125565,0.06027 -0.220994,0.165746 -0.09041,0.105474 -0.145655,0.251129 -0.05023,0.145655 -0.05023,0.316423 z"
           style="font-weight:bold;font-family:Raleway;-inkscape-font-specification:Raleway;vector-effect:none;stop-color:#000000;stop-opacity:1"
           id="path220" /><path
           d="m 89.335975,53.29912 1.245602,-1.672523 h 0.497237 v 2.631837 h -0.668005 v -1.627319 l -1.230534,1.627319 H 88.66797 v -2.631837 h 0.668005 z"
           style="font-weight:bold;font-family:Raleway;-inkscape-font-specification:Raleway;vector-effect:none;stop-color:#000000;stop-opacity:1"
           id="path221" /><path
           d="m 93.183275,53.0279 0.778502,-1.401303 h 0.688095 v 2.631837 H 94.00698 v -1.582116 l -0.668004,1.185332 h -0.316424 l -0.668004,-1.185332 v 1.582116 h -0.642892 v -2.631837 h 0.693118 z"
           style="font-weight:bold;font-family:Raleway;-inkscape-font-specification:Raleway;vector-effect:none;stop-color:#000000;stop-opacity:1"
           id="path222" /><path
           d="m 95.2576,54.258434 v -0.723253 h 0.552485 v 0.723253 z m 0.944247,0 v -0.723253 h 0.552485 v 0.723253 z m 0.944247,0 v -0.723253 h 0.552485 v 0.723253 z"
           style="font-weight:bold;font-family:Raleway;-inkscape-font-specification:Raleway;vector-effect:none;stop-color:#000000;stop-opacity:1"
           id="path223" /></g></g></g></svg>
