<?xml version="1.0" encoding="UTF-8" standalone="no"?>
<svg
   width="700.00061"
   height="220"
   viewBox="0 0 185.20849 58.208335"
   version="1.1"
   id="svg243962"
   xml:space="preserve"
   xmlns="http://www.w3.org/2000/svg"
   xmlns:svg="http://www.w3.org/2000/svg"><defs
     id="defs243959" /><g
     id="layer2"
     style="font-variation-settings:normal;opacity:1;vector-effect:none;fill:#cbe1fb;fill-opacity:1;stroke-width:0.125564;stroke-linecap:butt;stroke-linejoin:miter;stroke-miterlimit:4;stroke-dasharray:none;stroke-dashoffset:0;stroke-opacity:1;-inkscape-stroke:none;stop-color:#000000;stop-opacity:1"
     transform="translate(-1366.459)"><g
       id="layer3-5"
       style="font-variation-settings:normal;display:inline;vector-effect:none;fill:#cbe1fb;fill-opacity:1;stroke-width:0.125564;stroke-linecap:butt;stroke-linejoin:miter;stroke-miterlimit:4;stroke-dasharray:none;stroke-dashoffset:0;stroke-opacity:1;-inkscape-stroke:none;stop-color:#000000;stop-opacity:1"
       transform="translate(1418.3826,-83.706034)"><g
         aria-label="ようこそ！"
         id="text118971-41"
         style="font-size:12.9777px;line-height:1.25;font-family:'Roboto Condensed';-inkscape-font-specification:'Roboto Condensed, ';vector-effect:none;stroke-width:0.125564;stop-color:#000000;stop-opacity:1"><path
           d="m -39.586477,99.590656 0.01298,0.454224 c 0,0.8695 -0.298487,1.23288 -1.12906,1.23288 -0.908439,0 -1.570302,-0.2336 -1.570302,-0.86951 0,-0.55804 0.609952,-0.908438 1.622213,-0.908438 0.363375,0 0.726751,0.03893 1.064171,0.09084 z m 1.661146,-7.929375 h -1.959633 c 0.07787,0.324443 0.116799,0.882484 0.142755,1.518391 0.01298,0.558041 0.01298,1.323726 0.01298,2.115365 0,0.687819 0.05191,1.790923 0.09084,2.803184 -0.246576,-0.02596 -0.50613,-0.03893 -0.765684,-0.03893 -2.387897,0 -3.542912,1.077149 -3.542912,2.426829 0,1.76496 1.518391,2.37492 3.374202,2.37492 2.180254,0 2.76425,-1.09013 2.76425,-2.24515 l -0.01298,-0.45421 c 1.155016,0.53208 2.128343,1.29777 2.868072,2.03749 l 0.999283,-1.54434 c -0.895461,-0.830572 -2.297053,-1.739011 -3.945221,-2.219186 -0.06489,-0.96035 -0.116799,-1.998566 -0.142755,-2.777228 1.051194,-0.02595 2.582563,-0.09084 3.67269,-0.181688 l -0.05191,-1.544346 c -1.077149,0.129777 -2.59554,0.181688 -3.633756,0.194665 l 0.01298,-0.947372 c 0.01298,-0.50613 0.05191,-1.142037 0.1168,-1.518391 z"
           style="font-weight:bold;font-family:Raleway;-inkscape-font-specification:Raleway;vector-effect:none;stop-color:#000000;stop-opacity:1"
           id="path324" /><path
           d="m -23.45522,97.825689 c 0,2.024521 -2.076432,3.088691 -5.294902,3.452071 l 0.934394,1.60923 c 3.607801,-0.49315 6.177386,-2.21918 6.177386,-4.996413 0,-2.037498 -1.440525,-3.205491 -3.491002,-3.205491 -1.518391,0 -2.971893,0.376353 -3.919265,0.596974 -0.428264,0.09084 -0.986305,0.181688 -1.427547,0.220621 l 0.493152,1.855811 c 0.376354,-0.142755 0.882484,-0.350398 1.258837,-0.45422 0.661863,-0.194665 1.946655,-0.635907 3.374202,-0.635907 1.219904,0 1.894745,0.700796 1.894745,1.557324 z m -5.100236,-6.229296 -0.259554,1.557324 c 1.492435,0.259554 4.308596,0.519108 5.826987,0.62293 l 0.259554,-1.596258 c -1.375636,-0.01298 -4.321574,-0.259554 -5.826987,-0.583996 z"
           style="font-weight:bold;font-family:Raleway;-inkscape-font-specification:Raleway;vector-effect:none;stop-color:#000000;stop-opacity:1"
           id="path325" /><path
           d="m -16.538131,92.634609 v 1.713056 c 1.051194,0.09084 2.180254,0.142755 3.542912,0.142755 1.232882,0 2.842117,-0.07787 3.7505557,-0.155732 v -1.726034 c -0.9992827,0.103821 -2.4787407,0.181687 -3.7635327,0.181687 -1.362659,0 -2.569585,-0.05191 -3.529935,-0.155732 z m 1.090127,5.502545 -1.700079,-0.155733 c -0.103821,0.480175 -0.259554,1.116083 -0.259554,1.868789 0,1.77795 1.492436,2.77723 4.464329,2.77723 1.816878,0 3.3742022,-0.16871 4.5032621,-0.44124 l -0.012978,-1.82986 c -1.1420376,0.32444 -2.8031831,0.51911 -4.5551721,0.51911 -1.868789,0 -2.660429,-0.59698 -2.660429,-1.427548 0,-0.441242 0.09084,-0.843551 0.220621,-1.310748 z"
           style="font-weight:bold;font-family:Raleway;-inkscape-font-specification:Raleway;vector-effect:none;stop-color:#000000;stop-opacity:1"
           id="path326" /><path
           d="m -3.2100585,92.141456 0.077866,1.661146 c 0.4152864,-0.05191 0.8435505,-0.09084 1.167993,-0.116799 0.5320858,-0.05191 2.12834289,-0.129777 2.6604286,-0.16871 -0.80461742,0.713773 -2.4917184,2.193231 -3.6467338,2.945937 -0.6878181,0.07787 -1.5962571,0.194666 -2.2840752,0.259554 l 0.1557324,1.570302 c 1.29777,-0.220621 2.7512724,-0.415286 3.9452209,-0.519108 -0.4931526,0.45422 -0.9473722,1.258837 -0.9473722,2.050477 0,2.167275 1.93367738,3.166555 5.2559686,3.023805 l 0.3503979,-1.70008 c -0.4931526,0.0389 -1.2588369,0.0389 -1.9855881,-0.0389 -1.15501531,-0.12978 -1.95963272,-0.53209 -1.95963272,-1.557327 0,-1.064171 0.98630521,-1.907722 2.18025362,-2.063454 0.7916397,-0.1168 2.0894098,-0.103822 3.335269,-0.03893 V 95.918 c -1.5832795,0 -3.7375777,0.142755 -5.47658952,0.311465 0.89546151,-0.687851 2.16727612,-1.765 3.08869282,-2.504729 0.2725317,-0.220621 0.7527066,-0.532086 1.0252384,-0.713774 L 2.7077728,91.817014 c -0.1816878,0.06489 -0.4801749,0.116799 -0.8954613,0.16871 -0.7916397,0.07787 -3.2314473,0.194665 -3.7894885,0.194665 -0.4412418,0 -0.8175951,-0.01298 -1.2328815,-0.03893 z"
           style="font-weight:bold;font-family:Raleway;-inkscape-font-specification:Raleway;vector-effect:none;stop-color:#000000;stop-opacity:1"
           id="path327" /><path
           d="m 12.415069,98.734128 h 1.323725 l 0.350398,-4.438373 0.06489,-1.933678 h -2.154299 l 0.06489,1.933678 z m 0.661862,3.452072 c 0.648885,0 1.142038,-0.4672 1.142038,-1.14204 0,-0.68782 -0.493153,-1.155017 -1.142038,-1.155017 -0.648885,0 -1.142037,0.467197 -1.142037,1.155017 0,0.67484 0.480175,1.14204 1.142037,1.14204 z"
           style="font-weight:bold;font-family:Raleway;-inkscape-font-specification:Raleway;vector-effect:none;stop-color:#000000;stop-opacity:1"
           id="path328" /></g><path
         id="rect22"
         style="opacity:1;vector-effect:none;fill:#ffffff;fill-rule:evenodd;stroke:#000000;stroke-width:0.125564;paint-order:stroke markers fill;stop-color:#000000;stop-opacity:1"
         d="M -29.957416,107.2685 H 41.33192 c 2.178484,0 3.932282,1.7538 3.932282,3.93228 v 3.80418 c 0,2.17849 -1.753798,3.93228 -3.932282,3.93228 -0.672722,3.43654 0.868439,6.17031 3.072503,8.69365 -3.882428,-1.14347 -6.637847,-3.99757 -8.17973,-8.69365 h -66.182109 c -2.178484,0 -3.932282,-1.75379 -3.932282,-3.93228 v -3.80418 c 0,-2.17848 1.753798,-3.93228 3.932282,-3.93228 z" /><g
         aria-label="いくつか簡単な設定をしましょう"
         id="text115541-2"
         style="font-size:5.02259px;line-height:1.25;font-family:'Roboto Condensed';-inkscape-font-specification:'Roboto Condensed, ';vector-effect:none;fill:#333333;stroke-width:0.125564;stop-color:#000000;stop-opacity:1"><path
           d="m -30.574448,111.54499 -0.773479,-0.01 c 0.03014,0.1557 0.04018,0.37167 0.04018,0.5123 0,0.30638 0.005,0.89402 0.05525,1.3561 0.140633,1.34606 0.617779,1.84329 1.170264,1.84329 0.401807,0 0.71823,-0.30637 1.049721,-1.18031 l -0.502259,-0.61275 c -0.09543,0.40181 -0.296333,0.98945 -0.532394,0.98945 -0.316424,0 -0.467101,-0.49724 -0.537418,-1.22049 -0.03014,-0.36163 -0.03516,-0.73832 -0.03014,-1.06479 0,-0.14063 0.02511,-0.43194 0.06027,-0.61276 z m 2.511295,0.11552 -0.637869,0.20593 c 0.547462,0.6228 0.81366,1.84329 0.888999,2.65193 l 0.662981,-0.25615 c -0.05525,-0.76846 -0.436965,-2.02411 -0.914111,-2.60171 z"
           style="font-weight:bold;font-family:Raleway;-inkscape-font-specification:Raleway;vector-effect:none;stop-color:#000000;stop-opacity:1"
           id="path309" /><path
           d="m -23.17116,111.51486 -0.587643,-0.51733 c -0.08036,0.12054 -0.241084,0.28127 -0.386739,0.42692 -0.336514,0.32647 -1.024609,0.88398 -1.421393,1.20542 -0.502259,0.4219 -0.54244,0.6881 -0.04018,1.11502 0.457056,0.39176 1.195377,1.01958 1.501755,1.33601 0.150677,0.15068 0.296332,0.30638 0.436965,0.4671 l 0.587643,-0.53742 c -0.512304,-0.49723 -1.466596,-1.25062 -1.843291,-1.56705 -0.27122,-0.23606 -0.276242,-0.29131 -0.01005,-0.52235 0.336514,-0.28628 0.999496,-0.79859 1.325964,-1.05976 0.11552,-0.0954 0.281265,-0.22602 0.436965,-0.34656 z"
           style="font-weight:bold;font-family:Raleway;-inkscape-font-specification:Raleway;vector-effect:none;stop-color:#000000;stop-opacity:1"
           id="path310" /><path
           d="m -21.56394,112.38377 0.286287,0.70316 c 0.52235,-0.22602 1.712703,-0.72828 2.451024,-0.72828 0.602711,0 0.929179,0.36163 0.929179,0.83375 0,0.87896 -1.064789,1.2657 -2.425911,1.30086 l 0.291311,0.668 c 1.767951,-0.0904 2.852831,-0.81868 2.852831,-1.95881 0,-0.92918 -0.713208,-1.45153 -1.622297,-1.45153 -0.733298,0 -1.757906,0.36163 -2.144646,0.48217 -0.180813,0.0502 -0.431943,0.12054 -0.617778,0.15068 z"
           style="font-weight:bold;font-family:Raleway;-inkscape-font-specification:Raleway;vector-effect:none;stop-color:#000000;stop-opacity:1"
           id="path311" /><path
           d="m -12.764372,111.64042 -0.597689,0.25616 c 0.356604,0.44198 0.713208,1.35107 0.843795,1.90858 l 0.637869,-0.29633 c -0.150677,-0.47715 -0.572575,-1.43646 -0.883975,-1.86841 z m -3.766943,0.55751 0.06027,0.68307 c 0.150678,-0.0251 0.416875,-0.0603 0.557508,-0.0854 l 0.431942,-0.0502 c -0.180813,0.6881 -0.527372,1.70266 -1.014563,2.36062 l 0.652937,0.26118 c 0.462078,-0.73833 0.83375,-1.92868 1.024608,-2.69211 0.140633,-0.01 0.266197,-0.0201 0.346559,-0.0201 0.316423,0 0.487191,0.0553 0.487191,0.45705 0,0.49724 -0.06529,1.10497 -0.200903,1.39126 -0.08036,0.16575 -0.210949,0.21597 -0.376695,0.21597 -0.13561,0 -0.421897,-0.0502 -0.617778,-0.10547 l 0.110497,0.66298 c 0.170768,0.0352 0.406829,0.0703 0.60271,0.0703 0.376695,0 0.65796,-0.1105 0.823705,-0.46208 0.215972,-0.43697 0.286288,-1.25063 0.286288,-1.84329 0,-0.72326 -0.376694,-0.95932 -0.909089,-0.95932 -0.105474,0 -0.256152,0.0101 -0.421897,0.0201 l 0.105474,-0.51732 c 0.02511,-0.12557 0.06027,-0.28629 0.09041,-0.41688 l -0.748366,-0.0753 c 0.005,0.31642 -0.03516,0.68307 -0.105475,1.05977 -0.256152,0.0251 -0.492214,0.0402 -0.647914,0.0452 -0.185836,0.005 -0.356604,0.0151 -0.537417,0 z"
           style="font-weight:bold;font-family:Raleway;-inkscape-font-specification:Raleway;vector-effect:none;stop-color:#000000;stop-opacity:1"
           id="path312" /><path
           d="m -10.7453,112.52942 h 0.7985916 v 0.16575 H -10.7453 Z m 0,0.66298 v -0.17076 h 0.7985916 v 0.17076 z m -0.54244,-1.00954 v 3.4003 h 0.54244 v -2.0442 h 1.3410313 v -1.3561 z m 1.5971837,1.87845 h 0.8337499 v 0.21095 h -0.8337499 z m 0,0.74837 v -0.21597 h 0.8337499 v 0.21597 z m -0.5424397,-1.07986 v 1.58714 h 0.5424397 v -0.17077 h 1.3159186 c 0.060271,0.14063 0.1155196,0.31642 0.1255648,0.43697 0.3766942,0.005 0.6378689,-0.005 0.8237047,-0.0954 0.1757907,-0.0804 0.2360618,-0.23104 0.2360618,-0.50728 v -2.79759 h -1.9236521 v 1.3561 h 1.361122 v 1.43646 c 0,0.0703 -0.025113,0.0904 -0.1004518,0.0904 -0.065294,0 -0.2712199,0.005 -0.4721235,-0.005 v -1.33099 z m 1.6624773,-0.70818 h 0.8186822 v 0.17076 h -0.8186822 z m 0,-0.32647 v -0.16575 h 0.8186822 v 0.16575 z m -0.2913102,-1.86841 c -0.1054744,0.27122 -0.2812651,0.53742 -0.4871913,0.75339 v -0.3566 h -1.1200378 l 0.11552,-0.24109 -0.557508,-0.1557 c -0.1557,0.3767 -0.436965,0.76344 -0.748366,1.00954 0.140633,0.0703 0.376695,0.23104 0.492214,0.32647 0.13561,-0.13058 0.276243,-0.29633 0.411853,-0.48217 h 0.06027 c 0.09041,0.1557 0.180813,0.34154 0.220994,0.47213 l 0.5273716,-0.14566 c -0.035158,-0.0904 -0.1004516,-0.21095 -0.1657456,-0.32647 h 0.6579594 c -0.055248,0.0553 -0.1155196,0.10046 -0.1757906,0.14566 0.1456551,0.0603 0.4018072,0.19588 0.5323945,0.28629 0.1305874,-0.11552 0.2661973,-0.2662 0.3917621,-0.43195 h 0.2712198 c 0.1205422,0.16073 0.2410843,0.34656 0.2913102,0.47715 l 0.5374172,-0.14565 c -0.045203,-0.0954 -0.1205422,-0.21598 -0.2059262,-0.3315 h 0.8287274 v -0.45705 h -1.4264156 c 0.045203,-0.0854 0.085384,-0.17077 0.1205421,-0.25615 z"
           style="font-weight:bold;font-family:Raleway;-inkscape-font-specification:Raleway;vector-effect:none;stop-color:#000000;stop-opacity:1"
           id="path313" /><path
           d="m -5.49168,113.0367 h 0.9141114 v 0.34154 H -5.49168 Z m 1.5369126,0 h 0.9542921 v 0.34154 H -3.9547674 Z M -5.49168,112.23811 h 0.9141114 v 0.34154 H -5.49168 Z m 1.5369126,0 h 0.9542921 v 0.34154 h -0.9542921 z m 0.9794051,-1.37117 c -0.1054744,0.27625 -0.306378,0.63285 -0.4771461,0.87896 h -0.7734789 l 0.3666491,-0.14566 c -0.085384,-0.21095 -0.2762425,-0.52235 -0.4470105,-0.75339 l -0.5374172,0.20593 c 0.1456551,0.21597 0.3013554,0.48719 0.3766943,0.69312 h -0.8889985 l 0.306378,-0.14566 c -0.1004518,-0.2009 -0.3214457,-0.49723 -0.5072816,-0.70818 l -0.5223494,0.23606 c 0.1506777,0.18081 0.3164232,0.42692 0.4218976,0.61778 h -0.4218976 v 2.12958 h 1.5017545 v 0.32646 h -1.948765 v 0.55751 h 1.948765 v 0.82371 h 0.6228012 v -0.82371 h 1.9839231 v -0.55751 h -1.9839231 v -0.32646 h 1.5770933 v -2.12958 h -0.3967846 c 0.1506777,-0.20091 0.3164231,-0.44199 0.4671009,-0.68307 z"
           style="font-weight:bold;font-family:Raleway;-inkscape-font-specification:Raleway;vector-effect:none;stop-color:#000000;stop-opacity:1"
           id="path314" /><path
           d="m 2.6649954,112.92118 0.3566039,-0.52737 c -0.2561521,-0.18583 -0.8789532,-0.52737 -1.2405797,-0.68307 l -0.3214458,0.49724 c 0.3415361,0.1557 0.9141114,0.48217 1.2054216,0.7132 z m -1.4163704,1.39126 v 0.10045 c 0,0.27625 -0.1054744,0.47213 -0.45203309,0.47213 -0.27624246,0 -0.43194276,-0.13059 -0.43194276,-0.31643 0,-0.17579 0.18583584,-0.30637 0.47714607,-0.30637 0.14063252,0 0.27624248,0.0201 0.40682978,0.0502 z m 0.5524849,-1.65745 H 1.1732862 l 0.055249,1.12506 c -0.1155196,-0.0101 -0.2260166,-0.0201 -0.34655876,-0.0201 -0.69814003,0 -1.10999243,0.37669 -1.10999243,0.8689 0,0.55249 0.49221384,0.82873 1.11501502,0.82873 0.71320777,0 0.96935987,-0.36162 0.96935987,-0.82873 v -0.0502 c 0.2762425,0.16574 0.502259,0.37669 0.6780497,0.53742 l 0.3365135,-0.53742 c -0.2561526,-0.23105 -0.6077339,-0.48218 -1.0396766,-0.6429 l -0.030136,-0.63787 c -0.00502,-0.221 -0.015068,-0.43194 4e-7,-0.64289 z m -1.17528606,-1.56203 -0.69311744,-0.0703 c -0.01004518,0.26117 -0.06529367,0.56253 -0.13560994,0.83877 -0.15570029,0.0151 -0.306378,0.0201 -0.4570557,0.0201 -0.18583584,0 -0.45203316,-0.0101 -0.66800446,-0.0352 l 0.045203,0.58262 c 0.2159714,0.0151 0.42189755,0.0201 0.62782375,0.0201 l 0.26117469,-0.005 c -0.22099397,0.54244 -0.62782374,1.28076 -1.02460844,1.77297 l 0.60773346,0.3114 c 0.4068298,-0.56755 0.83374996,-1.4465 1.07483429,-2.14967 0.33651354,-0.0502 0.64791413,-0.11552 0.87895325,-0.17579 l -0.02009,-0.58262 c -0.19588105,0.0603 -0.43194279,0.11552 -0.6780497,0.16073 z"
           style="font-weight:bold;font-family:Raleway;-inkscape-font-specification:Raleway;vector-effect:none;stop-color:#000000;stop-opacity:1"
           id="path315" /><path
           d="m 3.6895967,111.02767 v 0.45203 h 1.5268674 v -0.45203 z m -0.02009,2.0693 v 0.45204 h 1.557003 v -0.45204 z M 3.428422,111.70069 v 0.47715 h 1.9738779 v -0.47715 z m 0.2260166,2.0894 v 1.72777 h 0.5123042 v -0.19588 h 1.0497213 v -0.26619 c 0.110497,0.13058 0.2511295,0.37669 0.3164232,0.52737 0.4319427,-0.13059 0.8186822,-0.3114 1.1602183,-0.55249 0.3164232,0.24109 0.6830723,0.42692 1.1049698,0.55249 0.085384,-0.1557 0.2611747,-0.39679 0.3917621,-0.51733 -0.3917621,-0.0954 -0.7383208,-0.24611 -1.0396762,-0.43697 0.3515813,-0.37669 0.6177786,-0.85886 0.7734789,-1.47161 l -0.391762,-0.14566 -0.1054744,0.0251 H 5.6684972 c 0.5123042,-0.36665 0.612756,-0.93922 0.612756,-1.41134 v -0.0854 h 0.5575075 v 0.60774 c 0,0.50225 0.1205422,0.65795 0.527372,0.65795 0.080361,0 0.2109488,0 0.2963328,0 0.331491,0 0.4671009,-0.17579 0.5173268,-0.79859 -0.1506777,-0.0402 -0.3817169,-0.12556 -0.4871913,-0.21597 -0.010045,0.43697 -0.030136,0.50226 -0.095429,0.50226 -0.025113,0 -0.1054744,0 -0.1255647,0 -0.055249,0 -0.065294,-0.0151 -0.065294,-0.15068 V 111.0126 H 5.7137005 v 0.60271 c 0,0.33651 -0.055249,0.72828 -0.4871912,1.02963 v -0.23606 h -1.557003 v 0.45706 h 1.557003 v -0.19086 c 0.1255647,0.0753 0.3314909,0.25615 0.416875,0.36162 H 5.4675936 v 0.53742 h 1.6875903 c -0.1205422,0.25615 -0.2812651,0.48719 -0.4721235,0.68307 -0.2059262,-0.2009 -0.3716716,-0.43194 -0.4922138,-0.68307 l -0.5323946,0.17077 c 0.1557003,0.32647 0.3465588,0.61778 0.5775979,0.87393 -0.2963328,0.19588 -0.6428915,0.34154 -1.0195858,0.43194 v -1.26067 z m 0.5123042,0.47715 h 0.5323945 v 0.5776 H 4.1667428 Z"
           style="font-weight:bold;font-family:Raleway;-inkscape-font-specification:Raleway;vector-effect:none;stop-color:#000000;stop-opacity:1"
           id="path316" /><path
           d="m 9.2947963,113.23761 c -0.090407,0.86891 -0.3365135,1.56705 -0.8839758,1.96885 0.1406325,0.0904 0.3967846,0.30136 0.4972364,0.41186 0.2862876,-0.24611 0.5072816,-0.56756 0.6730271,-0.95932 0.457056,0.72325 1.150173,0.87895 2.084375,0.87895 h 1.26067 c 0.03014,-0.18583 0.125565,-0.47212 0.215971,-0.61777 -0.341536,0.0151 -1.175286,0.0151 -1.446506,0.0151 -0.200903,0 -0.391762,-0.01 -0.572575,-0.0301 v -0.75339 h 1.381212 v -0.56253 h -1.381212 v -0.62782 h 1.074834 v -0.5776 H 9.4203611 v 0.5776 h 1.0748339 v 1.76795 c -0.296332,-0.14064 -0.5323942,-0.38172 -0.6880945,-0.78353 0.050226,-0.2009 0.085384,-0.41687 0.1155196,-0.64289 z m -0.6378689,-1.85334 v 1.26067 H 9.249593 v -0.69312 h 3.103961 v 0.69312 h 0.617778 v -1.26067 h -1.84329 v -0.50728 H 10.48515 v 0.50728 z"
           style="font-weight:bold;font-family:Raleway;-inkscape-font-specification:Raleway;vector-effect:none;stop-color:#000000;stop-opacity:1"
           id="path317" /><path
           d="m 17.853279,112.99652 -0.25113,-0.58262 c -0.185835,0.0954 -0.361626,0.17579 -0.557507,0.26118 -0.205926,0.0904 -0.416875,0.17579 -0.67805,0.29633 -0.110497,-0.25615 -0.361626,-0.38674 -0.668004,-0.38674 -0.165746,0 -0.436966,0.0402 -0.567553,0.10045 0.100452,-0.14565 0.200904,-0.32647 0.286288,-0.5123 0.537417,-0.0151 1.160218,-0.0553 1.637364,-0.12557 l 0.005,-0.58262 c -0.441988,0.0753 -0.944247,0.12055 -1.416371,0.14566 0.06027,-0.20593 0.09543,-0.38172 0.120542,-0.50226 l -0.662981,-0.0553 c -0.01005,0.18081 -0.0452,0.3767 -0.100452,0.5776 H 14.75934 c -0.256152,0 -0.627823,-0.0201 -0.883975,-0.0603 v 0.58764 c 0.276242,0.0201 0.642891,0.0301 0.848817,0.0301 h 0.06027 c -0.226016,0.45203 -0.577597,0.89904 -1.104969,1.38623 l 0.537417,0.40181 c 0.170768,-0.221 0.316423,-0.40181 0.467101,-0.55249 0.190858,-0.18583 0.502259,-0.34656 0.783524,-0.34656 0.13561,0 0.27122,0.0452 0.346558,0.17077 -0.567552,0.30136 -1.170263,0.69814 -1.170263,1.34103 0,0.64792 0.58262,0.83878 1.371167,0.83878 0.472123,0 1.089902,-0.0402 1.421393,-0.0854 l 0.02009,-0.64791 c -0.441988,0.0854 -0.999495,0.14063 -1.426415,0.14063 -0.492214,0 -0.728276,-0.0753 -0.728276,-0.35158 0,-0.25113 0.200904,-0.44701 0.572575,-0.65796 0,0.21597 -0.005,0.45706 -0.02009,0.60773 h 0.602711 l -0.02009,-0.88397 c 0.306378,-0.14063 0.592665,-0.25113 0.818682,-0.34154 0.170768,-0.0653 0.436965,-0.16574 0.597688,-0.21095 z"
           style="font-weight:bold;font-family:Raleway;-inkscape-font-specification:Raleway;vector-effect:none;stop-color:#000000;stop-opacity:1"
           id="path318" /><path
           d="m 20.208867,111.15323 -0.808637,-0.01 c 0.0452,0.2009 0.06529,0.44199 0.06529,0.67805 0,0.43194 -0.05023,1.75288 -0.05023,2.42591 0,0.85886 0.532395,1.22049 1.3561,1.22049 1.14515,0 1.858358,-0.67303 2.179804,-1.1552 L 22.494138,113.76 c -0.361626,0.54746 -0.888998,1.02461 -1.717726,1.02461 -0.391762,0 -0.693117,-0.16575 -0.693117,-0.67303 0,-0.6228 0.04018,-1.74786 0.06027,-2.2903 0.01005,-0.20091 0.03516,-0.45706 0.06529,-0.66801 z"
           style="font-weight:bold;font-family:Raleway;-inkscape-font-specification:Raleway;vector-effect:none;stop-color:#000000;stop-opacity:1"
           id="path319" /><path
           d="m 25.758818,114.29235 0.005,0.21597 c 0,0.29131 -0.17579,0.36665 -0.441988,0.36665 -0.346558,0 -0.527372,-0.11552 -0.527372,-0.30638 0,-0.17076 0.195882,-0.3114 0.552485,-0.3114 0.140633,0 0.281265,0.0151 0.411853,0.0352 z m -1.501755,-1.66248 0.005,0.59267 c 0.331491,0.0402 0.904066,0.0653 1.195376,0.0653 h 0.261175 l 0.02009,0.4671 c -0.100451,-0.01 -0.205926,-0.0151 -0.3114,-0.0151 -0.773479,0 -1.24058,0.3566 -1.24058,0.86388 0,0.5324 0.421898,0.83877 1.225512,0.83877 0.662982,0 0.98945,-0.33149 0.98945,-0.75841 l -0.005,-0.18583 c 0.401807,0.18081 0.743343,0.44701 1.014563,0.69814 l 0.361626,-0.56253 c -0.29131,-0.24109 -0.773478,-0.5776 -1.406325,-0.75841 l -0.03516,-0.59769 c 0.482169,-0.0151 0.873931,-0.0502 1.325964,-0.10045 v -0.59267 c -0.40683,0.0553 -0.828727,0.0954 -1.336009,0.12054 v -0.51732 c 0.487191,-0.0251 0.944247,-0.0703 1.275738,-0.1105 l 0.005,-0.5776 c -0.441988,0.0753 -0.858863,0.11552 -1.270715,0.13561 l 0.005,-0.20592 c 0.005,-0.13059 0.01507,-0.25616 0.03014,-0.35661 h -0.678049 c 0.02009,0.0954 0.03014,0.25113 0.03014,0.34656 v 0.23606 h -0.195881 c -0.306378,0 -0.878953,-0.0502 -1.24058,-0.1105 l 0.01507,0.57258 c 0.331491,0.0452 0.914111,0.0904 1.230535,0.0904 h 0.185835 l -0.005,0.51732 h -0.241084 c -0.266198,0 -0.883976,-0.0352 -1.210445,-0.0954 z"
           style="font-weight:bold;font-family:Raleway;-inkscape-font-specification:Raleway;vector-effect:none;stop-color:#000000;stop-opacity:1"
           id="path320" /><path
           d="m 30.254025,111.15323 -0.808637,-0.01 c 0.0452,0.2009 0.06529,0.44199 0.06529,0.67805 0,0.43194 -0.05023,1.75288 -0.05023,2.42591 0,0.85886 0.532394,1.22049 1.356099,1.22049 1.145151,0 1.858358,-0.67303 2.179804,-1.1552 L 32.539296,113.76 c -0.361627,0.54746 -0.888999,1.02461 -1.717726,1.02461 -0.391762,0 -0.693118,-0.16575 -0.693118,-0.67303 0,-0.6228 0.04018,-1.74786 0.06027,-2.2903 0.01005,-0.20091 0.03516,-0.45706 0.06529,-0.66801 z"
           style="font-weight:bold;font-family:Raleway;-inkscape-font-specification:Raleway;vector-effect:none;stop-color:#000000;stop-opacity:1"
           id="path321" /><path
           d="m 35.683438,114.47316 v 0.15068 c 0,0.23104 -0.110497,0.35158 -0.336514,0.35158 -0.281265,0 -0.462078,-0.11049 -0.462078,-0.25615 0,-0.16574 0.175791,-0.27122 0.497236,-0.27122 0.100452,0 0.200904,0.0101 0.301356,0.0251 z m 0.58262,-2.52134 h -0.678049 c 0.02009,0.0904 0.04018,0.30136 0.04018,0.49724 0,0.17579 0,0.51231 0,0.70819 0,0.22601 0.01507,0.52235 0.03014,0.80361 l -0.200904,-0.01 c -0.728275,0 -1.140128,0.31642 -1.140128,0.79859 0,0.52737 0.497237,0.78352 1.10497,0.78352 0.673027,0 0.878953,-0.33651 0.878953,-0.70818 l -0.005,-0.12557 c 0.341536,0.18081 0.627824,0.43697 0.843795,0.65796 l 0.346559,-0.54746 c -0.27122,-0.25113 -0.69814,-0.55751 -1.22049,-0.72325 -0.02009,-0.32145 -0.04018,-0.65294 -0.04018,-0.86891 0.336513,-0.005 0.838772,-0.0251 1.175286,-0.0552 l -0.01507,-0.55751 c -0.336514,0.0352 -0.828727,0.0603 -1.160218,0.0703 v -0.23606 c 0,-0.1758 0.02511,-0.39177 0.04018,-0.4872 z"
           style="font-weight:bold;font-family:Raleway;-inkscape-font-specification:Raleway;vector-effect:none;stop-color:#000000;stop-opacity:1"
           id="path322" /><path
           d="m 41.876284,113.49376 c 0,0.78352 -0.803614,1.19538 -2.049216,1.33601 l 0.361626,0.6228 c 1.39628,-0.19086 2.390753,-0.85886 2.390753,-1.9337 0,-0.78854 -0.557508,-1.24058 -1.351077,-1.24058 -0.587643,0 -1.150173,0.14566 -1.516822,0.23104 -0.165745,0.0352 -0.381717,0.0703 -0.552485,0.0854 l 0.190858,0.71823 c 0.145656,-0.0553 0.341537,-0.13561 0.487192,-0.17579 0.256152,-0.0753 0.753388,-0.24611 1.305873,-0.24611 0.472124,0 0.733298,0.27122 0.733298,0.60271 z m -1.973878,-2.41084 -0.100451,0.60271 c 0.577597,0.10045 1.6675,0.2009 2.255143,0.24108 l 0.100451,-0.61778 c -0.532394,-0.005 -1.672522,-0.10045 -2.255143,-0.22601 z"
           style="font-weight:bold;font-family:Raleway;-inkscape-font-specification:Raleway;vector-effect:none;stop-color:#000000;stop-opacity:1"
           id="path323" /></g></g></g></svg>
