<?xml version="1.0" encoding="UTF-8" standalone="no"?>
<svg
   width="700.00061"
   height="220"
   viewBox="0 0 185.20849 58.208335"
   version="1.1"
   id="svg243962"
   xml:space="preserve"
   xmlns="http://www.w3.org/2000/svg"
   xmlns:svg="http://www.w3.org/2000/svg"><defs
     id="defs243959" /><g
     id="layer2"
     style="font-variation-settings:normal;opacity:1;vector-effect:none;fill:#cbe1fb;fill-opacity:1;stroke-width:0.125564;stroke-linecap:butt;stroke-linejoin:miter;stroke-miterlimit:4;stroke-dasharray:none;stroke-dashoffset:0;stroke-opacity:1;-inkscape-stroke:none;stop-color:#000000;stop-opacity:1"
     transform="translate(-2147.293)"><g
       id="layer3-4"
       transform="translate(2145.6818,-68.98312)"
       style="font-variation-settings:normal;vector-effect:none;fill:#cbe1fb;fill-opacity:1;stroke-width:0.125564;stroke-linecap:butt;stroke-linejoin:miter;stroke-miterlimit:4;stroke-dasharray:none;stroke-dashoffset:0;stroke-opacity:1;-inkscape-stroke:none;stop-color:#000000;stop-opacity:1"><g
         aria-label="Vítajte!"
         id="text118971-35"
         style="font-size:13.4261px;line-height:1.25;font-family:'Roboto Condensed';-inkscape-font-specification:'Roboto Condensed, ';vector-effect:none;stroke-width:0.125564;stop-color:#000000;stop-opacity:1"><path
           d="m 16.192384,78.289834 2.577811,7.209816 2.550959,-7.209816 h 1.946784 l -3.719029,9.532531 h -1.557428 l -3.745882,-9.532531 z"
           style="font-weight:bold;font-family:Raleway;-inkscape-font-specification:Raleway;vector-effect:none;stop-color:#000000;stop-opacity:1"
           id="path193" /><path
           d="m 25.469801,79.968096 -1.154644,-0.349078 0.725009,-1.597706 h 1.678263 z m -1.356036,7.854269 v -7.035276 h 1.799098 v 7.035276 z"
           style="font-weight:bold;font-family:Raleway;-inkscape-font-specification:Raleway;vector-effect:none;stop-color:#000000;stop-opacity:1"
           id="path194" /><path
           d="m 31.753205,87.45986 q -0.362505,0.161113 -0.886123,0.322227 -0.523618,0.161113 -1.10094,0.161113 -0.375931,0 -0.711583,-0.09398 -0.322227,-0.09398 -0.577323,-0.295374 -0.24167,-0.214818 -0.389357,-0.537044 -0.147687,-0.335653 -0.147687,-0.805566 V 82.16998 h -0.926401 v -1.382888 h 0.926401 v -2.282437 h 1.799098 v 2.282437 h 1.476871 V 82.16998 H 29.73929 v 3.437081 q 0,0.375931 0.187965,0.537044 0.201392,0.147687 0.48334,0.147687 0.281948,0 0.55047,-0.09398 0.268522,-0.09398 0.429635,-0.161113 z"
           style="font-weight:bold;font-family:Raleway;-inkscape-font-specification:Raleway;vector-effect:none;stop-color:#000000;stop-opacity:1"
           id="path195" /><path
           d="m 34.612949,87.956626 q -0.510192,0 -0.953253,-0.161113 -0.443062,-0.17454 -0.765288,-0.469914 -0.322226,-0.3088 -0.510192,-0.711583 -0.174539,-0.402783 -0.174539,-0.886123 0,-0.496765 0.214817,-0.912975 0.228244,-0.429635 0.617601,-0.725009 0.402783,-0.295374 0.953253,-0.456487 0.55047,-0.17454 1.208349,-0.17454 0.469914,0 0.912975,0.08056 0.456487,0.08056 0.805566,0.228244 V 83.3649 q 0,-0.698158 -0.402783,-1.074088 -0.389357,-0.375931 -1.168071,-0.375931 -0.563896,0 -1.10094,0.201391 -0.537044,0.201392 -1.10094,0.590749 l -0.55047,-1.141219 q 1.356036,-0.899548 2.92689,-0.899548 1.517149,0 2.349567,0.751861 0.845844,0.738436 0.845844,2.148176 v 2.188454 q 0,0.281949 0.09398,0.402783 0.107409,0.120835 0.335652,0.134261 v 1.530576 q -0.456487,0.09398 -0.792139,0.09398 -0.510192,0 -0.79214,-0.228244 -0.268522,-0.228244 -0.335653,-0.604175 l -0.04028,-0.389357 q -0.469914,0.617601 -1.141219,0.939827 -0.671305,0.322227 -1.436592,0.322227 z m 0.510192,-1.315758 q 0.456487,0 0.85927,-0.161113 0.416209,-0.161113 0.644453,-0.429635 0.295374,-0.228244 0.295374,-0.510192 v -0.805566 q -0.322226,-0.120835 -0.698157,-0.187966 -0.375931,-0.08056 -0.72501,-0.08056 -0.698157,0 -1.141218,0.322226 -0.443061,0.308801 -0.443061,0.79214 0,0.456488 0.349078,0.765288 0.349079,0.295374 0.859271,0.295374 z"
           style="font-weight:bold;font-family:Raleway;-inkscape-font-specification:Raleway;vector-effect:none;stop-color:#000000;stop-opacity:1"
           id="path196" /><path
           d="m 39.822268,90.45388 q -0.510192,0 -0.96668,-0.161113 -0.456487,-0.147687 -0.818992,-0.469913 l 0.778714,-1.221775 q 0.147687,0.147687 0.362505,0.214817 0.214817,0.08056 0.429635,0.08056 0.349079,0 0.604175,-0.255096 0.255095,-0.24167 0.255095,-0.631027 v -7.223241 h 1.799098 v 7.08898 q 0,0.563896 -0.187966,1.03381 -0.187965,0.483339 -0.523617,0.818992 -0.322227,0.349079 -0.778714,0.537044 -0.443062,0.187965 -0.953253,0.187965 z M 40.46672,79.806983 v -1.785671 h 1.799098 v 1.785671 z"
           style="font-weight:bold;font-family:Raleway;-inkscape-font-specification:Raleway;vector-effect:none;stop-color:#000000;stop-opacity:1"
           id="path197" /><path
           d="m 48.119593,87.45986 q -0.362505,0.161113 -0.886123,0.322227 -0.523618,0.161113 -1.10094,0.161113 -0.375931,0 -0.711583,-0.09398 -0.322227,-0.09398 -0.577322,-0.295374 -0.24167,-0.214818 -0.389357,-0.537044 -0.147687,-0.335653 -0.147687,-0.805566 V 82.169977 H 43.38018 v -1.382888 h 0.926401 v -2.282437 h 1.799097 v 2.282437 h 1.476871 v 1.382888 h -1.476871 v 3.437081 q 0,0.375931 0.187965,0.537044 0.201392,0.147687 0.48334,0.147687 0.281948,0 0.55047,-0.09398 0.268522,-0.09398 0.429635,-0.161113 z"
           style="font-weight:bold;font-family:Raleway;-inkscape-font-specification:Raleway;vector-effect:none;stop-color:#000000;stop-opacity:1"
           id="path198" /><path
           d="m 52.1474,87.956626 q -0.845844,0 -1.530576,-0.281948 -0.684731,-0.295374 -1.16807,-0.79214 -0.48334,-0.496766 -0.751862,-1.154645 -0.255096,-0.657879 -0.255096,-1.382888 0,-0.751862 0.255096,-1.409741 0.255096,-0.671305 0.738436,-1.16807 0.483339,-0.510192 1.16807,-0.805566 0.698158,-0.295374 1.557428,-0.295374 0.85927,0 1.530575,0.295374 0.684731,0.295374 1.154645,0.79214 0.483339,0.496765 0.725009,1.154644 0.255096,0.657879 0.255096,1.369462 0,0.17454 -0.01343,0.335653 0,0.161113 -0.02685,0.268522 H 50.3483 q 0.04028,0.416209 0.201392,0.738435 0.161113,0.322227 0.416209,0.550471 0.255096,0.228243 0.577322,0.349078 0.322227,0.120835 0.671305,0.120835 0.537044,0 1.006958,-0.255096 0.483339,-0.268522 0.657879,-0.698157 l 1.544001,0.429635 q -0.389357,0.805566 -1.248627,1.329184 -0.845844,0.510192 -2.027341,0.510192 z m 1.825949,-4.242648 q -0.06713,-0.79214 -0.590748,-1.262053 -0.510192,-0.48334 -1.248627,-0.48334 -0.362505,0 -0.684731,0.134261 -0.308801,0.120835 -0.55047,0.349079 -0.24167,0.228244 -0.402783,0.55047 -0.147688,0.322226 -0.17454,0.711583 z"
           style="font-weight:bold;font-family:Raleway;-inkscape-font-specification:Raleway;vector-effect:none;stop-color:#000000;stop-opacity:1"
           id="path199" /><path
           d="m 57.276157,84.237596 v -6.041745 h 1.799098 v 6.041745 z m 0,3.584769 v -2.027341 h 1.799098 v 2.027341 z"
           style="font-weight:bold;font-family:Raleway;-inkscape-font-specification:Raleway;vector-effect:none;stop-color:#000000;stop-opacity:1"
           id="path200" /></g><g
         aria-label="Tu môžeš upraviť
    pár nastavení..."
         id="text115541-5"
         style="font-size:5.02259px;line-height:1.25;font-family:'Roboto Condensed';-inkscape-font-specification:'Roboto Condensed, ';vector-effect:none;stroke-width:0.125564;stop-color:#000000;stop-opacity:1"><path
           d="m 29.169685,95.97911 h -1.140128 v 2.958306 H 27.341462 V 95.97911 h -1.140128 v -0.607733 h 2.968351 z"
           style="font-weight:bold;font-family:Raleway;-inkscape-font-specification:Raleway;vector-effect:none;stop-color:#000000;stop-opacity:1"
           id="path164" /><path
           d="m 29.812572,98.987642 q -0.40683,0 -0.617779,-0.261175 -0.210948,-0.261174 -0.210948,-0.773479 v -1.647409 h 0.673027 v 1.501754 q 0,0.607734 0.436965,0.607734 0.195881,0 0.376694,-0.11552 0.185836,-0.120542 0.301356,-0.361626 v -1.632342 h 0.673027 v 1.858358 q 0,0.105475 0.03516,0.150678 0.04018,0.0452 0.125565,0.05023 v 0.572575 q -0.100452,0.02009 -0.170768,0.02511 -0.06529,0.005 -0.120543,0.005 -0.180813,0 -0.296332,-0.08036 -0.110497,-0.08538 -0.130588,-0.231039 l -0.01507,-0.210949 q -0.17579,0.27122 -0.452033,0.40683 -0.276242,0.13561 -0.607733,0.13561 z"
           style="font-weight:bold;font-family:Raleway;-inkscape-font-specification:Raleway;vector-effect:none;stop-color:#000000;stop-opacity:1"
           id="path165" /><path
           d="m 37.406718,98.937416 h -0.673027 v -1.476641 q 0,-0.316424 -0.110497,-0.462079 -0.105475,-0.145655 -0.296333,-0.145655 -0.200904,0 -0.376694,0.1557 -0.175791,0.150678 -0.25113,0.396785 v 1.53189 H 35.02601 v -1.476641 q 0,-0.316424 -0.110497,-0.462079 -0.105474,-0.145655 -0.296333,-0.145655 -0.195881,0 -0.376694,0.150678 -0.175791,0.150678 -0.251129,0.396784 v 1.536913 h -0.673028 v -2.631837 h 0.607734 v 0.487191 q 0.145655,-0.256152 0.396784,-0.391762 0.256153,-0.140632 0.582621,-0.140632 0.331491,0 0.512304,0.160722 0.180813,0.160723 0.231039,0.396785 0.160723,-0.27122 0.40683,-0.411852 0.246107,-0.145655 0.56253,-0.145655 0.241085,0 0.396785,0.09041 0.1557,0.09041 0.241084,0.236062 0.08538,0.145655 0.11552,0.331491 0.03516,0.185836 0.03516,0.376694 z"
           style="font-weight:bold;font-family:Raleway;-inkscape-font-specification:Raleway;vector-effect:none;stop-color:#000000;stop-opacity:1"
           id="path166" /><path
           d="m 38.431325,95.778207 0.532395,-0.507282 h 0.487191 l 0.532394,0.507282 -0.346558,0.160723 -0.426921,-0.316423 -0.42692,0.316423 z m 0.778501,3.209435 q -0.321445,0 -0.577597,-0.110497 -0.256153,-0.110497 -0.436966,-0.296333 -0.17579,-0.190858 -0.27122,-0.436965 -0.09543,-0.246107 -0.09543,-0.517327 0,-0.276242 0.09543,-0.522349 0.09543,-0.246107 0.27122,-0.431943 0.180813,-0.190859 0.436966,-0.301355 0.256152,-0.110497 0.577597,-0.110497 0.321446,0 0.572576,0.110497 0.256152,0.110496 0.431942,0.301355 0.180814,0.185836 0.276243,0.431943 0.09543,0.246107 0.09543,0.522349 0,0.27122 -0.09543,0.517327 -0.09543,0.246107 -0.27122,0.436965 -0.175791,0.185836 -0.431943,0.296333 -0.256152,0.110497 -0.577598,0.110497 z M 38.521732,97.62652 q 0,0.175791 0.05022,0.321446 0.05525,0.140632 0.145656,0.246107 0.09543,0.105474 0.220994,0.165745 0.125564,0.05525 0.271219,0.05525 0.145656,0 0.27122,-0.05525 0.125565,-0.06027 0.215972,-0.165745 0.09543,-0.105475 0.145655,-0.25113 0.05525,-0.145655 0.05525,-0.321446 0,-0.170768 -0.05525,-0.316423 -0.05023,-0.145655 -0.145655,-0.251129 -0.09041,-0.105475 -0.215972,-0.160723 -0.125564,-0.06027 -0.27122,-0.06027 -0.145655,0 -0.271219,0.06027 -0.125565,0.06027 -0.220994,0.165745 -0.09041,0.105475 -0.145656,0.25113 -0.05022,0.145655 -0.05022,0.316423 z"
           style="font-weight:bold;font-family:Raleway;-inkscape-font-specification:Raleway;vector-effect:none;stop-color:#000000;stop-opacity:1"
           id="path167" /><path
           d="m 41.490068,95.270925 0.42692,0.316423 0.42692,-0.316423 0.346559,0.160723 -0.532394,0.507282 h -0.487192 l -0.532394,-0.507282 z m -0.69814,3.254639 1.466596,-1.747862 h -1.406325 v -0.472123 h 2.114511 v 0.411852 l -1.456552,1.747862 h 1.481665 v 0.472123 h -2.199895 z"
           style="font-weight:bold;font-family:Raleway;-inkscape-font-specification:Raleway;vector-effect:none;stop-color:#000000;stop-opacity:1"
           id="path168" /><path
           d="m 44.59401,98.987642 q -0.316423,0 -0.572575,-0.105474 -0.256152,-0.110497 -0.436966,-0.296333 -0.180813,-0.185836 -0.281265,-0.431943 -0.09543,-0.246107 -0.09543,-0.517327 0,-0.281265 0.09543,-0.527372 0.09543,-0.251129 0.276243,-0.436965 0.180813,-0.190859 0.436965,-0.301355 0.261175,-0.110497 0.58262,-0.110497 0.321446,0 0.572576,0.110497 0.256152,0.110496 0.431943,0.296332 0.180813,0.185836 0.271219,0.431943 0.09543,0.246107 0.09543,0.512304 0,0.06529 -0.005,0.125565 0,0.06027 -0.01004,0.100452 h -2.034149 q 0.01507,0.1557 0.07534,0.276242 0.06027,0.120542 0.1557,0.205926 0.09543,0.08539 0.215971,0.130588 0.120543,0.0452 0.25113,0.0452 0.200903,0 0.376694,-0.09543 0.180813,-0.100452 0.246107,-0.261175 l 0.577598,0.160723 q -0.145655,0.301356 -0.467101,0.497237 -0.316423,0.190858 -0.758411,0.190858 z m 0.683072,-1.587139 q -0.02511,-0.296332 -0.220994,-0.472123 -0.190858,-0.180813 -0.467101,-0.180813 -0.13561,0 -0.256152,0.05023 -0.115519,0.0452 -0.205926,0.130587 -0.09041,0.08538 -0.150678,0.205926 -0.05525,0.120542 -0.06529,0.266197 z"
           style="font-weight:bold;font-family:Raleway;-inkscape-font-specification:Raleway;vector-effect:none;stop-color:#000000;stop-opacity:1"
           id="path169" /><path
           d="m 46.884305,95.270925 0.426921,0.316423 0.42692,-0.316423 0.346558,0.160723 -0.532394,0.507282 h -0.487191 l -0.532395,-0.507282 z m 0.492214,3.716717 q -0.331491,0 -0.647914,-0.105474 -0.316423,-0.105475 -0.54244,-0.301356 l 0.25113,-0.421897 q 0.241084,0.170768 0.467101,0.261174 0.231039,0.08538 0.457055,0.08538 0.200904,0 0.316424,-0.07534 0.115519,-0.07534 0.115519,-0.215971 0,-0.140632 -0.13561,-0.205926 -0.13561,-0.06529 -0.441988,-0.150678 -0.256152,-0.07032 -0.436965,-0.13561 -0.180813,-0.06529 -0.29131,-0.145655 -0.110497,-0.08538 -0.160723,-0.190858 -0.05023,-0.110497 -0.05023,-0.261175 0,-0.200904 0.07534,-0.361626 0.08036,-0.160723 0.220994,-0.27122 0.140632,-0.11552 0.326468,-0.175791 0.190859,-0.06027 0.411853,-0.06027 0.296332,0 0.552484,0.08538 0.261175,0.08538 0.477146,0.276242 l -0.271219,0.40683 q -0.200904,-0.150677 -0.391762,-0.220994 -0.185836,-0.07032 -0.371672,-0.07032 -0.170768,0 -0.286288,0.07032 -0.115519,0.07032 -0.115519,0.226017 0,0.07032 0.02511,0.115519 0.03013,0.0452 0.09041,0.08036 0.06027,0.03516 0.155701,0.07032 0.100451,0.03014 0.246106,0.06529 0.27122,0.07032 0.462079,0.140632 0.195881,0.07032 0.316423,0.160723 0.125565,0.09041 0.180813,0.210949 0.06027,0.11552 0.06027,0.281265 0,0.386739 -0.286287,0.612756 -0.286288,0.220994 -0.778502,0.220994 z"
           style="font-weight:bold;font-family:Raleway;-inkscape-font-specification:Raleway;vector-effect:none;stop-color:#000000;stop-opacity:1"
           id="path170" /><path
           d="m 50.887308,98.987642 q -0.40683,0 -0.617779,-0.261175 -0.210949,-0.261174 -0.210949,-0.773479 v -1.647409 h 0.673027 v 1.501754 q 0,0.607734 0.436966,0.607734 0.195881,0 0.376694,-0.11552 0.185836,-0.120542 0.301355,-0.361626 v -1.632342 h 0.673027 v 1.858358 q 0,0.105475 0.03516,0.150678 0.04018,0.0452 0.125565,0.05023 v 0.572575 q -0.100452,0.02009 -0.170768,0.02511 -0.06529,0.005 -0.120542,0.005 -0.180813,0 -0.296333,-0.08036 -0.110497,-0.08538 -0.130587,-0.231039 l -0.01507,-0.210949 q -0.175791,0.27122 -0.452033,0.40683 -0.276242,0.13561 -0.607733,0.13561 z"
           style="font-weight:bold;font-family:Raleway;-inkscape-font-specification:Raleway;vector-effect:none;stop-color:#000000;stop-opacity:1"
           id="path171" /><path
           d="m 54.764739,98.987642 q -0.311401,0 -0.54244,-0.13561 Q 53.99126,98.7114 53.860673,98.475338 v 1.531892 h -0.673027 v -3.701651 h 0.587643 v 0.452033 q 0.145655,-0.231039 0.376694,-0.361627 0.231039,-0.135609 0.532394,-0.135609 0.266198,0 0.492214,0.110497 0.226017,0.105474 0.38674,0.29131 0.165745,0.180813 0.256152,0.431942 0.09543,0.246107 0.09543,0.52235 0,0.286288 -0.08538,0.537417 -0.08538,0.25113 -0.241084,0.436965 -0.150678,0.185836 -0.361627,0.291311 -0.210949,0.105474 -0.462078,0.105474 z m -0.226017,-0.572575 q 0.150678,0 0.276243,-0.06529 0.130587,-0.06529 0.220994,-0.175791 0.09041,-0.110497 0.140632,-0.256152 0.05023,-0.145655 0.05023,-0.301355 0,-0.165746 -0.05525,-0.306378 -0.05525,-0.145655 -0.155701,-0.25113 -0.09543,-0.105474 -0.231039,-0.165745 -0.130587,-0.06027 -0.286287,-0.06027 -0.09543,0 -0.195881,0.03516 -0.100452,0.03014 -0.185836,0.09041 -0.08538,0.06027 -0.155701,0.140632 -0.06529,0.08036 -0.100451,0.175791 v 0.617778 q 0.09041,0.226017 0.276242,0.376695 0.185836,0.145655 0.401807,0.145655 z"
           style="font-weight:bold;font-family:Raleway;-inkscape-font-specification:Raleway;vector-effect:none;stop-color:#000000;stop-opacity:1"
           id="path172" /><path
           d="m 57.93901,96.888199 q -0.306378,0.005 -0.547462,0.120542 -0.241084,0.110497 -0.346559,0.336514 v 1.592161 h -0.673027 v -2.631837 h 0.617779 v 0.56253 q 0.07032,-0.13561 0.165745,-0.241084 0.09543,-0.110497 0.205926,-0.190859 0.110497,-0.08036 0.220994,-0.120542 0.11552,-0.0452 0.220994,-0.0452 0.05525,0 0.08036,0 0.03014,0 0.05525,0.005 z"
           style="font-weight:bold;font-family:Raleway;-inkscape-font-specification:Raleway;vector-effect:none;stop-color:#000000;stop-opacity:1"
           id="path173" /><path
           d="m 58.998762,98.987642 q -0.190859,0 -0.356604,-0.06027 -0.165745,-0.06529 -0.286288,-0.175791 -0.120542,-0.115519 -0.190858,-0.266197 -0.06529,-0.150678 -0.06529,-0.331491 0,-0.185836 0.08036,-0.341536 0.08538,-0.160723 0.231039,-0.27122 0.150678,-0.110497 0.356604,-0.170768 0.205926,-0.06529 0.452033,-0.06529 0.175791,0 0.341536,0.03014 0.170768,0.03014 0.301355,0.08538 v -0.150678 q 0,-0.261175 -0.150677,-0.401807 -0.145655,-0.140633 -0.436966,-0.140633 -0.210948,0 -0.411852,0.07534 -0.200904,0.07534 -0.411852,0.220994 l -0.205927,-0.42692 q 0.507282,-0.336513 1.094925,-0.336513 0.567553,0 0.878953,0.281265 0.316424,0.276242 0.316424,0.803614 v 0.818682 q 0,0.105475 0.03516,0.150678 0.04018,0.0452 0.125564,0.05023 v 0.572575 q -0.170768,0.03516 -0.296332,0.03516 -0.190859,0 -0.296333,-0.08538 -0.100452,-0.08538 -0.125565,-0.226016 l -0.01507,-0.145655 q -0.17579,0.231039 -0.42692,0.351581 -0.251129,0.120542 -0.537417,0.120542 z m 0.190858,-0.492214 q 0.170768,0 0.321446,-0.06027 0.1557,-0.06027 0.241084,-0.160723 0.110497,-0.08538 0.110497,-0.190858 V 97.78222 q -0.120542,-0.0452 -0.261174,-0.07032 -0.140633,-0.03014 -0.27122,-0.03014 -0.261175,0 -0.42692,0.120542 -0.165746,0.115519 -0.165746,0.296333 0,0.170768 0.130588,0.286287 0.130587,0.110497 0.321445,0.110497 z"
           style="font-weight:bold;font-family:Raleway;-inkscape-font-specification:Raleway;vector-effect:none;stop-color:#000000;stop-opacity:1"
           id="path174" /><path
           d="m 61.801354,98.937416 -0.96936,-2.631837 h 0.693118 l 0.668004,2.084375 0.673027,-2.084375 h 0.632847 l -0.96936,2.631837 z"
           style="font-weight:bold;font-family:Raleway;-inkscape-font-specification:Raleway;vector-effect:none;stop-color:#000000;stop-opacity:1"
           id="path175" /><path
           d="m 63.850569,98.937416 v -2.631837 h 0.673027 v 2.631837 z m 0,-2.998486 v -0.668005 h 0.673027 v 0.668005 z"
           style="font-weight:bold;font-family:Raleway;-inkscape-font-specification:Raleway;vector-effect:none;stop-color:#000000;stop-opacity:1"
           id="path176" /><path
           d="m 66.618014,95.999201 -0.431943,-0.130588 0.27122,-0.597688 h 0.627824 z m 0.09041,2.802605 q -0.13561,0.06027 -0.331491,0.120542 -0.195881,0.06027 -0.411853,0.06027 -0.140632,0 -0.266197,-0.03516 -0.120542,-0.03516 -0.215971,-0.110497 -0.09041,-0.08036 -0.145656,-0.200903 -0.05525,-0.125565 -0.05525,-0.301356 v -1.511799 h -0.346559 v -0.517327 h 0.346559 v -0.85384 h 0.673027 v 0.85384 h 0.552485 v 0.517327 h -0.552485 v 1.285783 q 0,0.140632 0.07032,0.200903 0.07534,0.05525 0.180814,0.05525 0.105474,0 0.205926,-0.03516 0.100452,-0.03516 0.160723,-0.06027 z"
           style="font-weight:bold;font-family:Raleway;-inkscape-font-specification:Raleway;vector-effect:none;stop-color:#000000;stop-opacity:1"
           id="path177" /><path
           d="m 32.836171,105.47138 q -0.311401,0 -0.54244,-0.13561 -0.231039,-0.14063 -0.361626,-0.37669 v 1.53189 h -0.673027 v -3.70165 h 0.587643 v 0.45203 q 0.145655,-0.23104 0.376694,-0.36162 0.231039,-0.13561 0.532395,-0.13561 0.266197,0 0.492213,0.11049 0.226017,0.10548 0.38674,0.29131 0.165745,0.18082 0.256152,0.43195 0.09543,0.2461 0.09543,0.52235 0,0.28628 -0.08538,0.53741 -0.08538,0.25113 -0.241084,0.43697 -0.150678,0.18583 -0.361627,0.29131 -0.210949,0.10547 -0.462078,0.10547 z m -0.226017,-0.57257 q 0.150678,0 0.276243,-0.0653 0.130587,-0.0653 0.220994,-0.17579 0.09041,-0.11049 0.140632,-0.25615 0.05023,-0.14565 0.05023,-0.30135 0,-0.16575 -0.05525,-0.30638 -0.05525,-0.14566 -0.155701,-0.25113 -0.09543,-0.10548 -0.231039,-0.16575 -0.130587,-0.0603 -0.286287,-0.0603 -0.09543,0 -0.195881,0.0352 -0.100452,0.0301 -0.185836,0.0904 -0.08538,0.0603 -0.1557,0.14063 -0.06529,0.0804 -0.100452,0.17579 v 0.61778 q 0.09041,0.22601 0.276242,0.37669 0.185836,0.14566 0.401807,0.14566 z"
           style="font-weight:bold;font-family:Raleway;-inkscape-font-specification:Raleway;vector-effect:none;stop-color:#000000;stop-opacity:1"
           id="path178" /><path
           d="m 35.161625,105.47138 q -0.190859,0 -0.356604,-0.0603 -0.165746,-0.0653 -0.286288,-0.17579 -0.120542,-0.11552 -0.190858,-0.2662 -0.06529,-0.15067 -0.06529,-0.33149 0,-0.18583 0.08036,-0.34153 0.08539,-0.16073 0.23104,-0.27122 0.150677,-0.1105 0.356604,-0.17077 0.205926,-0.0653 0.452033,-0.0653 0.17579,0 0.341536,0.0301 0.170768,0.0301 0.301355,0.0854 v -0.15067 q 0,-0.26118 -0.150678,-0.40181 -0.145655,-0.14063 -0.436965,-0.14063 -0.210949,0 -0.411852,0.0753 -0.200904,0.0753 -0.411853,0.22099 l -0.205926,-0.42692 q 0.507282,-0.33651 1.094925,-0.33651 0.567553,0 0.878953,0.28126 0.316423,0.27624 0.316423,0.80362 v 0.81868 q 0,0.10547 0.03516,0.15068 0.04018,0.0452 0.125565,0.0502 v 0.57258 q -0.170768,0.0352 -0.296333,0.0352 -0.190858,0 -0.296332,-0.0854 -0.100452,-0.0854 -0.125565,-0.22602 l -0.01507,-0.14565 q -0.175791,0.23104 -0.42692,0.35158 -0.25113,0.12054 -0.537417,0.12054 z m 0.190858,-0.49221 q 0.170768,0 0.321446,-0.0603 0.1557,-0.0603 0.241084,-0.16072 0.110497,-0.0854 0.110497,-0.19086 v -0.30136 q -0.120542,-0.0452 -0.261174,-0.0703 -0.140633,-0.0301 -0.27122,-0.0301 -0.261175,0 -0.426921,0.12054 -0.165745,0.11552 -0.165745,0.29633 0,0.17077 0.130587,0.28629 0.130588,0.1105 0.321446,0.1105 z m 0.326468,-2.49623 -0.431942,-0.13059 0.27122,-0.59768 h 0.627823 z"
           style="font-weight:bold;font-family:Raleway;-inkscape-font-specification:Raleway;vector-effect:none;stop-color:#000000;stop-opacity:1"
           id="path179" /><path
           d="m 38.893406,103.37194 q -0.306378,0.005 -0.547463,0.12054 -0.241084,0.1105 -0.346558,0.33652 v 1.59216 h -0.673028 v -2.63184 h 0.617779 v 0.56253 q 0.07032,-0.13561 0.165746,-0.24108 0.09543,-0.1105 0.205926,-0.19086 0.110497,-0.0804 0.220994,-0.12054 0.115519,-0.0452 0.220994,-0.0452 0.05525,0 0.08036,0 0.03014,0 0.05525,0.005 z"
           style="font-weight:bold;font-family:Raleway;-inkscape-font-specification:Raleway;vector-effect:none;stop-color:#000000;stop-opacity:1"
           id="path180" /><path
           d="m 42.800975,105.42116 h -0.673027 v -1.47664 q 0,-0.31643 -0.110497,-0.46208 -0.110497,-0.14566 -0.306378,-0.14566 -0.100452,0 -0.205926,0.0402 -0.105475,0.0402 -0.200904,0.11552 -0.09041,0.0703 -0.165746,0.17077 -0.07534,0.10045 -0.110496,0.22099 v 1.53692 h -0.673028 v -2.63184 h 0.607734 v 0.48719 q 0.145655,-0.25113 0.421897,-0.39176 0.276243,-0.14063 0.622802,-0.14063 0.246107,0 0.401807,0.0904 0.1557,0.0904 0.241084,0.23606 0.08538,0.14566 0.11552,0.3315 0.03516,0.18583 0.03516,0.37669 z"
           style="font-weight:bold;font-family:Raleway;-inkscape-font-specification:Raleway;vector-effect:none;stop-color:#000000;stop-opacity:1"
           id="path181" /><path
           d="m 44.10684,105.47138 q -0.190859,0 -0.356604,-0.0603 -0.165745,-0.0653 -0.286288,-0.17579 -0.120542,-0.11552 -0.190858,-0.2662 -0.06529,-0.15067 -0.06529,-0.33149 0,-0.18583 0.08036,-0.34153 0.08538,-0.16073 0.231039,-0.27122 0.150678,-0.1105 0.356604,-0.17077 0.205926,-0.0653 0.452033,-0.0653 0.175791,0 0.341536,0.0301 0.170768,0.0301 0.301355,0.0854 v -0.15067 q 0,-0.26118 -0.150677,-0.40181 -0.145655,-0.14063 -0.436966,-0.14063 -0.210948,0 -0.411852,0.0753 -0.200904,0.0753 -0.411852,0.22099 l -0.205927,-0.42692 q 0.507282,-0.33651 1.094925,-0.33651 0.567553,0 0.878953,0.28126 0.316424,0.27624 0.316424,0.80362 v 0.81868 q 0,0.10547 0.03516,0.15068 0.04018,0.0452 0.125564,0.0502 v 0.57258 q -0.170768,0.0352 -0.296332,0.0352 -0.190859,0 -0.296333,-0.0854 -0.100452,-0.0854 -0.125565,-0.22602 l -0.01507,-0.14565 q -0.17579,0.23104 -0.42692,0.35158 -0.251129,0.12054 -0.537417,0.12054 z m 0.190858,-0.49221 q 0.170768,0 0.321446,-0.0603 0.1557,-0.0603 0.241084,-0.16072 0.110497,-0.0854 0.110497,-0.19086 v -0.30136 q -0.120542,-0.0452 -0.261174,-0.0703 -0.140633,-0.0301 -0.27122,-0.0301 -0.261175,0 -0.42692,0.12054 -0.165746,0.11552 -0.165746,0.29633 0,0.17077 0.130588,0.28629 0.130587,0.1105 0.321445,0.1105 z"
           style="font-weight:bold;font-family:Raleway;-inkscape-font-specification:Raleway;vector-effect:none;stop-color:#000000;stop-opacity:1"
           id="path182" /><path
           d="m 47.266046,105.47138 q -0.331491,0 -0.647915,-0.10547 -0.316423,-0.10548 -0.542439,-0.30136 l 0.251129,-0.42189 q 0.241085,0.17076 0.467101,0.26117 0.231039,0.0854 0.457056,0.0854 0.200903,0 0.316423,-0.0753 0.11552,-0.0753 0.11552,-0.21598 0,-0.14063 -0.13561,-0.20592 -0.13561,-0.0653 -0.441988,-0.15068 -0.256152,-0.0703 -0.436966,-0.13561 -0.180813,-0.0653 -0.29131,-0.14565 -0.110497,-0.0854 -0.160723,-0.19086 -0.05023,-0.1105 -0.05023,-0.26118 0,-0.2009 0.07534,-0.36162 0.08036,-0.16073 0.220994,-0.27122 0.140633,-0.11552 0.326468,-0.17579 0.190859,-0.0603 0.411853,-0.0603 0.296333,0 0.552485,0.0854 0.261174,0.0854 0.477146,0.27624 l -0.27122,0.40683 q -0.200904,-0.15068 -0.391762,-0.22099 -0.185836,-0.0703 -0.371672,-0.0703 -0.170768,0 -0.286287,0.0703 -0.11552,0.0703 -0.11552,0.22601 0,0.0703 0.02511,0.11552 0.03014,0.0452 0.09041,0.0804 0.06027,0.0352 0.1557,0.0703 0.100452,0.0301 0.246107,0.0653 0.27122,0.0703 0.462078,0.14064 0.195881,0.0703 0.316423,0.16072 0.125565,0.0904 0.180814,0.21095 0.06027,0.11552 0.06027,0.28126 0,0.38674 -0.286288,0.61276 -0.286288,0.22099 -0.778501,0.22099 z"
           style="font-weight:bold;font-family:Raleway;-inkscape-font-specification:Raleway;vector-effect:none;stop-color:#000000;stop-opacity:1"
           id="path183" /><path
           d="m 50.344891,105.28555 q -0.13561,0.0603 -0.331491,0.12054 -0.195881,0.0603 -0.411852,0.0603 -0.140632,0 -0.266197,-0.0352 -0.120542,-0.0352 -0.215972,-0.11049 -0.09041,-0.0804 -0.145655,-0.20091 -0.05525,-0.12556 -0.05525,-0.30135 v -1.5118 h -0.346559 v -0.51733 h 0.346559 v -0.85384 h 0.673027 v 0.85384 h 0.552485 v 0.51733 h -0.552485 v 1.28578 q 0,0.14063 0.07032,0.2009 0.07534,0.0553 0.180813,0.0553 0.105475,0 0.205927,-0.0352 0.100451,-0.0351 0.160722,-0.0603 z"
           style="font-weight:bold;font-family:Raleway;-inkscape-font-specification:Raleway;vector-effect:none;stop-color:#000000;stop-opacity:1"
           id="path184" /><path
           d="m 51.414697,105.47138 q -0.190858,0 -0.356603,-0.0603 -0.165746,-0.0653 -0.286288,-0.17579 -0.120542,-0.11552 -0.190859,-0.2662 -0.06529,-0.15067 -0.06529,-0.33149 0,-0.18583 0.08036,-0.34153 0.08538,-0.16073 0.231039,-0.27122 0.150678,-0.1105 0.356604,-0.17077 0.205926,-0.0653 0.452033,-0.0653 0.175791,0 0.341537,0.0301 0.170768,0.0301 0.301355,0.0854 v -0.15067 q 0,-0.26118 -0.150678,-0.40181 -0.145655,-0.14063 -0.436965,-0.14063 -0.210949,0 -0.411853,0.0753 -0.200903,0.0753 -0.411852,0.22099 l -0.205926,-0.42692 q 0.507282,-0.33651 1.094925,-0.33651 0.567552,0 0.878953,0.28126 0.316423,0.27624 0.316423,0.80362 v 0.81868 q 0,0.10547 0.03516,0.15068 0.04018,0.0452 0.125565,0.0502 v 0.57258 q -0.170768,0.0352 -0.296333,0.0352 -0.190858,0 -0.296333,-0.0854 -0.100452,-0.0854 -0.125564,-0.22602 l -0.01507,-0.14565 q -0.175791,0.23104 -0.42692,0.35158 -0.25113,0.12054 -0.537418,0.12054 z m 0.190859,-0.49221 q 0.170768,0 0.321446,-0.0603 0.1557,-0.0603 0.241084,-0.16072 0.110497,-0.0854 0.110497,-0.19086 v -0.30136 q -0.120542,-0.0452 -0.261175,-0.0703 -0.140632,-0.0301 -0.27122,-0.0301 -0.261174,0 -0.42692,0.12054 -0.165745,0.11552 -0.165745,0.29633 0,0.17077 0.130587,0.28629 0.130587,0.1105 0.321446,0.1105 z"
           style="font-weight:bold;font-family:Raleway;-inkscape-font-specification:Raleway;vector-effect:none;stop-color:#000000;stop-opacity:1"
           id="path185" /><path
           d="m 54.217291,105.42116 -0.969359,-2.63184 h 0.693117 l 0.668005,2.08437 0.673027,-2.08437 h 0.632846 l -0.96936,2.63184 z"
           style="font-weight:bold;font-family:Raleway;-inkscape-font-specification:Raleway;vector-effect:none;stop-color:#000000;stop-opacity:1"
           id="path186" /><path
           d="m 57.396582,105.47138 q -0.316423,0 -0.572575,-0.10547 -0.256152,-0.1105 -0.436965,-0.29633 -0.180814,-0.18584 -0.281266,-0.43195 -0.09543,-0.2461 -0.09543,-0.51732 0,-0.28127 0.09543,-0.52738 0.09543,-0.25113 0.276243,-0.43696 0.180813,-0.19086 0.436965,-0.30136 0.261175,-0.11049 0.582621,-0.11049 0.321446,0 0.572575,0.11049 0.256152,0.1105 0.431943,0.29634 0.180813,0.18583 0.27122,0.43194 0.09543,0.24611 0.09543,0.5123 0,0.0653 -0.005,0.12557 0,0.0603 -0.01005,0.10045 h -2.034149 q 0.01507,0.1557 0.07534,0.27624 0.06027,0.12054 0.1557,0.20593 0.09543,0.0854 0.215972,0.13059 0.120542,0.0452 0.251129,0.0452 0.200904,0 0.376694,-0.0954 0.180814,-0.10045 0.246107,-0.26117 l 0.577598,0.16072 q -0.145655,0.30135 -0.467101,0.49723 -0.316423,0.19086 -0.758411,0.19086 z m 0.683072,-1.58714 q -0.02511,-0.29633 -0.220994,-0.47212 -0.190858,-0.18081 -0.4671,-0.18081 -0.13561,0 -0.256153,0.0502 -0.115519,0.0452 -0.205926,0.13059 -0.09041,0.0854 -0.150677,0.20593 -0.05525,0.12054 -0.06529,0.26619 z"
           style="font-weight:bold;font-family:Raleway;-inkscape-font-specification:Raleway;vector-effect:none;stop-color:#000000;stop-opacity:1"
           id="path187" /><path
           d="m 61.63062,105.42116 h -0.673027 v -1.47664 q 0,-0.31643 -0.110497,-0.46208 -0.110497,-0.14566 -0.306378,-0.14566 -0.100452,0 -0.205926,0.0402 -0.105475,0.0402 -0.200904,0.11552 -0.09041,0.0703 -0.165745,0.17077 -0.07534,0.10045 -0.110497,0.22099 v 1.53692 h -0.673027 v -2.63184 h 0.607733 v 0.48719 q 0.145655,-0.25113 0.421898,-0.39176 0.276242,-0.14063 0.622801,-0.14063 0.246107,0 0.401807,0.0904 0.1557,0.0904 0.241084,0.23606 0.08538,0.14566 0.11552,0.3315 0.03516,0.18583 0.03516,0.37669 z"
           style="font-weight:bold;font-family:Raleway;-inkscape-font-specification:Raleway;vector-effect:none;stop-color:#000000;stop-opacity:1"
           id="path188" /><path
           d="m 62.725534,102.48294 -0.431942,-0.13059 0.271219,-0.59768 h 0.627824 z m -0.507281,2.93822 v -2.63184 h 0.673027 v 2.63184 z"
           style="font-weight:bold;font-family:Raleway;-inkscape-font-specification:Raleway;vector-effect:none;stop-color:#000000;stop-opacity:1"
           id="path189" /><path
           d="m 63.483943,105.42116 v -0.72326 h 0.552485 v 0.72326 z"
           style="font-weight:bold;font-family:Raleway;-inkscape-font-specification:Raleway;vector-effect:none;stop-color:#000000;stop-opacity:1"
           id="path190" /><path
           d="m 64.614016,105.42116 v -0.72326 h 0.552485 v 0.72326 z"
           style="font-weight:bold;font-family:Raleway;-inkscape-font-specification:Raleway;vector-effect:none;stop-color:#000000;stop-opacity:1"
           id="path191" /><path
           d="m 65.744094,105.42116 v -0.72326 h 0.552485 v 0.72326 z"
           style="font-weight:bold;font-family:Raleway;-inkscape-font-specification:Raleway;vector-effect:none;stop-color:#000000;stop-opacity:1"
           id="path192" /></g></g></g></svg>
