<?xml version="1.0" encoding="UTF-8" standalone="no"?>
<svg
   xmlns:dc="http://purl.org/dc/elements/1.1/"
   xmlns:cc="http://creativecommons.org/ns#"
   xmlns:rdf="http://www.w3.org/1999/02/22-rdf-syntax-ns#"
   xmlns:svg="http://www.w3.org/2000/svg"
   xmlns="http://www.w3.org/2000/svg"
   xmlns:sodipodi="http://sodipodi.sourceforge.net/DTD/sodipodi-0.dtd"
   xmlns:inkscape="http://www.inkscape.org/namespaces/inkscape"
   inkscape:export-ydpi="131.66"
   inkscape:export-xdpi="131.66"
   inkscape:export-filename="/home/doctormo/Desktop/mountain.png"
   sodipodi:docname="inkscape_extensions_icon.svg"
   inkscape:version="1.0alpha (2b290efb96, 2019-03-26, custom)"
   version="1.1"
   id="svg4197"
   viewBox="0 0 64 64"
   height="64"
   width="64">
  <style
     id="style4677"></style>
  <defs
     id="defs4199" />
  <sodipodi:namedview
     inkscape:document-rotation="0"
     units="px"
     borderlayer="true"
     inkscape:pagecheckerboard="true"
     fit-margin-bottom="0"
     fit-margin-right="0"
     fit-margin-left="0"
     fit-margin-top="0"
     inkscape:snap-global="false"
     inkscape:guide-bbox="true"
     inkscape:window-maximized="1"
     inkscape:window-y="24"
     inkscape:window-x="65"
     inkscape:window-height="1056"
     inkscape:window-width="1855"
     showguides="false"
     showgrid="false"
     inkscape:current-layer="layer1"
     inkscape:document-units="px"
     inkscape:cy="27.110789"
     inkscape:cx="34.527038"
     inkscape:zoom="1"
     inkscape:pageshadow="2"
     inkscape:pageopacity="0.0"
     borderopacity="1.0"
     bordercolor="#666666"
     pagecolor="#ffffff"
     id="base">
    <sodipodi:guide
       inkscape:locked="false"
       id="guide4855"
       orientation="0,1"
       position="213.44347,-263.83675" />
    <sodipodi:guide
       inkscape:locked="false"
       id="guide4857"
       orientation="0,1"
       position="161.15542,-119.0723" />
    <sodipodi:guide
       inkscape:locked="false"
       id="guide4859"
       orientation="0,1"
       position="123.12774,-219.32709" />
    <sodipodi:guide
       inkscape:locked="false"
       id="guide4861"
       orientation="0,1"
       position="198.75096,-19.681776" />
  </sodipodi:namedview>
  <metadata
     id="metadata4202">
    <rdf:RDF>
      <cc:Work
         rdf:about="">
        <dc:format>image/svg+xml</dc:format>
        <dc:type
           rdf:resource="http://purl.org/dc/dcmitype/StillImage" />
        <dc:title></dc:title>
      </cc:Work>
    </rdf:RDF>
  </metadata>
  <g
     transform="translate(-178.06873,-129.03359)"
     id="layer1"
     inkscape:groupmode="layer"
     inkscape:label="Layer 1">
    <path
       id="path5071"
       d="M 209.5405,129.4285 C 207.34998,129.42552 205.1775,130.23263 203.57606,131.87175 L 180.73787,155.24089 180.70575,155.28174 C 178.69019,157.77778 177.82335,159.75839 178.12831,161.55689 178.43326,163.3554 179.93035,164.45862 181.56636,165.15248 184.54546,166.41593 188.47711,166.93408 191.00679,167.90934 190.53854,168.20881 189.88311,168.55956 189.07698,168.93331 188.12313,169.37555 187.1407,169.80609 186.36388,170.40947 185.97547,170.71117 185.58188,171.06598 185.40409,171.68726 185.22629,172.30853 185.49865,173.08033 185.9292,173.52079 186.69583,174.30441 187.76672,174.76695 189.06969,175.28139 190.37267,175.79583 191.89253,176.29082 193.39752,176.78089 194.90252,177.27095 196.39192,177.7572 197.59554,178.23225 198.79916,178.70731 199.73154,179.24185 199.96148,179.47649 200.07286,179.59083 200.05024,179.59563 200.049,179.58443 200.04751,179.57307 200.05699,179.60937 199.99209,179.7405 199.91316,179.89994 199.59031,180.23549 199.33715,180.52234 L 199.11836,180.23061 C 198.37134,179.23804 197.20263,178.83569 196.08289,178.75007 194.96315,178.66446 193.82247,178.87338 192.81987,179.28978 191.81728,179.70618 190.89774,180.31007 190.44372,181.33773 190.21671,181.85157 190.15642,182.49001 190.33724,183.07791 190.51806,183.6658 190.90063,184.17841 191.41519,184.62409 L 191.41668,184.62558 C 192.81687,185.83634 194.72197,185.66624 196.13251,184.89106 196.53857,184.6679 196.85949,184.32058 197.21484,184.01732 197.2126,184.11177 197.15293,184.17908 197.16375,184.27696 197.22208,184.80377 197.49413,185.3136 197.87704,185.70499 199.29802,187.15748 201.22888,187.09479 202.56954,187.41453 203.23986,187.5744 203.76326,187.78361 204.1478,188.12052 204.53235,188.45743 204.85208,188.94085 205.03321,189.9278 205.26463,191.19231 206.31437,192.07739 207.43853,192.40168 208.5627,192.72598 209.82857,192.6867 211.16394,192.46875 213.83468,192.03289 216.77863,190.83884 218.85106,189.32242 L 218.92545,189.26843 218.99109,189.20278 C 219.33189,188.85413 219.60986,188.46483 219.70438,187.95417 219.79889,187.44352 219.60927,186.88523 219.35138,186.5524 218.8356,185.88673 218.24632,185.70061 217.7702,185.47008 217.48913,185.33399 217.44505,185.29804 217.30489,185.21043 219.52047,183.01064 221.49737,182.63752 223.47354,182.17788 224.48172,181.9434 225.5102,181.69612 226.46379,181.07076 227.41739,180.44541 228.20663,179.42814 228.6897,177.98133 228.88529,177.39536 228.8047,176.73308 228.5628,176.24116 228.32089,175.74922 227.9685,175.38884 227.58987,175.07277 226.83261,174.44062 225.91377,173.96692 225.07807,173.51493 224.34155,173.11658 223.77119,172.75489 223.43708,172.48803 224.7278,171.82142 226.649,171.11902 228.93767,170.37152 231.45028,169.55089 234.20492,168.66561 236.55186,167.54902 238.8988,166.43242 240.93825,165.10887 241.75489,163.04615 242.16321,162.0148 242.18237,160.81543 241.7578,159.63289 241.33431,158.45334 240.5111,157.27502 239.26496,156.02709 L 239.25764,156.01835 215.62011,131.85862 215.60698,131.84548 C 213.93873,130.24384 211.73095,129.43155 209.54042,129.42849 Z M 234.714,173.71915 C 232.5042,173.79523 230.15738,174.9607 229.48763,177.32058 L 229.44533,177.47082 V 177.6269 C 229.44533,178.04315 229.64611,178.3869 229.83333,178.59252 230.02056,178.79815 230.20857,178.91889 230.39638,179.02137 230.77199,179.22632 231.1717,179.35388 231.62748,179.46772 232.53904,179.69538 233.65791,179.83206 234.79714,179.86447 235.93637,179.89689 237.07554,179.83102 238.05724,179.56253 238.54809,179.42829 239.0106,179.25051 239.42838,178.91635 239.84616,178.58218 240.21459,177.98998 240.21459,177.35267 V 177.1645 L 240.15333,176.98654 C 239.34785,174.6556 236.9238,173.64305 234.714,173.71915 Z M 229.16819,178.79382 228.74809,179.17015 C 227.9503,179.88577 227.45985,180.71346 227.36966,181.58423 227.27948,182.455 227.63563,183.29405 228.20839,183.84806 229.3539,184.95607 231.26015,185.14361 232.92277,184.16605 L 233.04967,184.09166 233.15324,183.98519 C 233.59318,183.53871 233.70115,182.97178 233.66668,182.46234 233.63222,181.95292 233.45188,181.45508 233.14302,180.98619 232.52532,180.04838 231.379,179.24613 229.72102,178.9076 Z"
       style="color:#000000;font-style:normal;font-variant:normal;font-weight:normal;font-stretch:normal;font-size:medium;line-height:normal;font-family:sans-serif;text-indent:0;text-align:start;text-decoration:none;text-decoration-line:none;text-decoration-style:solid;text-decoration-color:#000000;letter-spacing:normal;word-spacing:normal;text-transform:none;writing-mode:lr-tb;direction:ltr;baseline-shift:baseline;text-anchor:start;white-space:normal;clip-rule:nonzero;display:inline;overflow:visible;visibility:visible;opacity:1;isolation:auto;mix-blend-mode:normal;color-interpolation:sRGB;color-interpolation-filters:linearRGB;solid-color:#000000;solid-opacity:1;fill:#ffffff;fill-opacity:1;fill-rule:nonzero;stroke:none;stroke-width:2.8125;stroke-linecap:butt;stroke-linejoin:miter;stroke-miterlimit:4;stroke-dasharray:none;stroke-dashoffset:0;stroke-opacity:1;color-rendering:auto;image-rendering:auto;shape-rendering:auto;text-rendering:auto;enable-background:accumulate;stop-opacity:1"
       inkscape:connector-curvature="0" />
    <path
       d="M 204.3716,132.65025 181.5716,155.98146 C 173.86808,165.52135 186.81421,164.41139 192.36401,167.15913 194.35481,169.19406 184.73346,170.69607 186.72426,172.73269 188.71506,174.76762 198.7624,176.65319 200.75659,178.68812 202.74739,180.72304 196.68165,182.88186 198.67245,184.91679 200.66325,186.95171 205.26771,185.02371 206.12988,189.72152 206.74427,193.07856 214.42743,191.16413 218.185,188.41469 220.1758,186.37807 214.37651,186.56985 216.36731,184.53492 221.318,179.47222 225.92756,182.69517 227.62135,177.62228 228.45806,175.11554 220.33363,173.75779 222.32783,171.72286 228.05583,168.37771 247.8535,166.20022 238.45958,156.8063 L 214.82627,132.65025 C 211.93596,129.87535 207.11255,129.8448 204.3716,132.65025 Z M 230.56088,177.62228 C 230.56088,178.77976 239.08924,179.53841 239.08924,177.34904 237.87405,173.83247 231.56901,174.07007 230.56088,177.62228 Z M 192.14337,183.77289 C 194.16303,185.51929 197.28245,183.33841 198.2176,180.90125 196.26075,178.30116 188.93569,180.99459 192.14337,183.77289 Z M 229.49165,180.00004 C 226.88817,182.33537 229.78357,184.70464 232.34971,183.19584 232.92166,182.6154 232.33444,180.58048 229.49165,180.00004 Z"
       id="path2313"
       inkscape:connector-curvature="0"
       style="opacity:1;fill:#292929;fill-opacity:1;stroke-width:0.436606;stop-opacity:1" />
    <path
       d="M 198.91515,168.42184 C 199.52444,168.80031 208.74016,170.67231 210.99232,171.04569 211.77303,171.21031 211.21975,172.01478 210.14373,172.55788 207.71675,173.20281 195.94507,168.42184 198.91515,168.42184 Z"
       id="path2315"
       style="opacity:1;fill:#ffffff;stroke-width:0.436606;stop-opacity:1"
       inkscape:connector-curvature="0" />
    <path
       transform="translate(178.06873,129.03359)"
       d="M 31.679688 3.7441406 C 30.537215 3.7380972 29.393387 4.090031 28.464844 4.8027344 C 28.39423 4.8361426 28.29204 4.8663172 28.25 4.9023438 L 26.128906 7.0703125 C 24.095858 9.0926283 21.577521 11.575345 19.125 14.222656 C 19.118823 14.228833 19.115505 14.235994 19.109375 14.242188 L 16.302734 17.109375 C 15.581634 17.727295 15.567684 18.734057 16.271484 19.367188 L 19.919922 24.447266 C 20.070432 23.674156 20.494753 22.962973 21.132812 22.414062 C 22.810133 20.976713 25.495743 21.005826 27.132812 22.478516 C 28.769883 23.951206 28.737867 26.308734 27.060547 27.746094 C 26.420257 28.292904 25.600597 28.650132 24.716797 28.763672 L 30.363281 33.841797 C 31.067031 34.474897 32.214467 34.487051 32.935547 33.869141 L 38.712891 28.919922 C 38.845461 29.689672 39.248787 30.403017 39.867188 30.960938 C 41.504257 32.433637 44.191811 32.462751 45.869141 31.025391 C 47.546461 29.588041 47.578476 27.228559 45.941406 25.755859 C 45.320616 25.199729 44.516148 24.827829 43.642578 24.693359 L 47.421875 19.742188 C 48.142965 19.124277 48.156895 18.115532 47.453125 17.482422 L 34.859375 4.6699219 C 34.765175 4.5851804 34.580964 4.5192514 34.347656 4.4648438 C 33.539452 3.9959559 32.612718 3.7490762 31.679688 3.7441406 z "
       style="opacity:1;vector-effect:none;fill:#ffffff;fill-opacity:1;stroke:none;stroke-width:1.66165;stroke-linecap:round;stroke-linejoin:round;stroke-miterlimit:4;stroke-dasharray:none;stroke-dashoffset:0;stroke-opacity:1;stop-opacity:1"
       id="rect4513" />
  </g>
</svg>
