<?xml version="1.0" encoding="UTF-8" standalone="no"?>
<svg
   xmlns:dc="http://purl.org/dc/elements/1.1/"
   xmlns:cc="http://creativecommons.org/ns#"
   xmlns:rdf="http://www.w3.org/1999/02/22-rdf-syntax-ns#"
   xmlns:svg="http://www.w3.org/2000/svg"
   xmlns="http://www.w3.org/2000/svg"
   xmlns:sodipodi="http://sodipodi.sourceforge.net/DTD/sodipodi-0.dtd"
   xmlns:inkscape="http://www.inkscape.org/namespaces/inkscape"
   inkscape:export-ydpi="450"
   inkscape:export-xdpi="450"
   inkscape:export-filename="/home/doctormo/Projects/inkscape/extension-manager-icon.png"
   inkscape:version="1.0alpha (2b290efb96, 2019-03-26, custom)"
   sodipodi:docname="module_icon.svg"
   width="64"
   height="64"
   viewBox="0 0 64 64"
   id="svg4197"
   version="1.1">
  <sodipodi:namedview
     inkscape:current-layer="svg4197"
     inkscape:cy="38.727324"
     inkscape:cx="54.205688"
     inkscape:zoom="2.5592283"
     showgrid="false"
     id="namedview11"
     inkscape:window-height="480"
     inkscape:window-width="640"
     inkscape:pageshadow="2"
     inkscape:pageopacity="0"
     guidetolerance="10"
     gridtolerance="10"
     objecttolerance="10"
     borderopacity="1"
     inkscape:document-rotation="0"
     bordercolor="#666666"
     pagecolor="#ffffff" />
  <style
     id="style4677" />
  <defs
     id="defs4199" />
  <metadata
     id="metadata4202">
    <rdf:RDF>
      <cc:Work
         rdf:about="">
        <dc:format>image/svg+xml</dc:format>
        <dc:type
           rdf:resource="http://purl.org/dc/dcmitype/StillImage" />
        <dc:title></dc:title>
      </cc:Work>
    </rdf:RDF>
  </metadata>
  <circle
     style="vector-effect:none;fill:#ffffff;stroke-width:3.26454;paint-order:stroke fill markers;stop-color:#000000"
     id="path834"
     cx="32"
     cy="32"
     r="32" />
  <g
     style="stroke-width:0.869886"
     transform="matrix(1.1495756,0,0,1.1495756,-3.0475334,-5.4195001)"
     id="g242">
    <rect
       style="vector-effect:none;fill:#eeeeec;stroke-width:2.63021;paint-order:stroke fill markers;stop-color:#000000"
       id="rect237"
       width="31.052795"
       height="32.093048"
       x="15.564622"
       y="16.079668" />
    <path
       inkscape:connector-curvature="0"
       id="path2995"
       d="M 14.625549,42.099718 C 13.503629,41.895725 12.39879,41.21575 11.618065,40.248754 10.139271,38.417143 9.392752,35.363536 9.486467,31.529552 9.544868,29.14036 9.902051,27.366796 10.628668,25.858038 11.565272,23.913262 12.964687,22.75995 14.853848,22.375902 15.267645,22.291781 15.288387,22.291563 22.576421,22.294473 26.595635,22.296073 29.913564,22.286078 29.949594,22.272252 30.006771,22.25031 30.015105,22.161407 30.015105,21.573288 30.015105,21.202686 30.010613,20.895154 30.005139,20.889884 29.999649,20.884615 27.769431,20.871152 25.049086,20.859967 L 20.103004,20.839633 20.09273,18.268997 C 20.081487,15.453473 20.079227,15.486121 20.320279,14.969047 21.15591,13.176522 23.617496,12.087429 27.562008,11.765052 27.847204,11.741745 28.619033,11.71212 29.27718,11.699221 33.644211,11.613636 36.847655,12.412177 38.531531,14.006105 38.718075,14.182684 38.961181,14.446253 39.071768,14.591813 39.323225,14.922794 39.636229,15.5547 39.756079,15.973327 L 39.847435,16.292429 V 21.5975 C 39.847435,26.549469 39.842636,26.927793 39.775284,27.281505 39.688376,27.737937 39.479626,28.379249 39.305646,28.724304 38.703301,29.918941 37.593484,30.7796 36.122299,31.192977 35.167006,31.461397 35.600881,31.443762 29.27718,31.4712 22.997208,31.498447 23.376661,31.483823 22.496263,31.732635 20.786238,32.215922 19.529987,33.547819 19.019642,35.418608 18.790219,36.259608 18.795311,36.181036 18.770188,39.267775 L 18.746814,42.139694 16.832202,42.146255 C 15.386863,42.151216 14.846009,42.139811 14.625549,42.099717 Z M 25.080494,18.237304 C 25.806386,17.896282 26.243527,17.096908 26.112111,16.350848 25.990888,15.662656 25.518343,15.113424 24.877046,14.915347 23.852127,14.598782 22.782711,15.252026 22.593611,16.310165 22.439817,17.170741 22.937534,18.008531 23.77931,18.306007 23.967428,18.372489 24.088398,18.385964 24.410875,18.376368 24.762209,18.365918 24.842023,18.349337 25.080494,18.237304 Z"
       style="opacity:1;fill:#888a85;stroke-width:0.869885;stop-opacity:1" />
    <path
       inkscape:connector-curvature="0"
       id="path2997"
       style="opacity:1;fill:#d3d7cf;stroke-width:0.869885;stop-opacity:1"
       d="M 42.380859,22.976562 42.357422,25.828125 C 42.332264,28.89593 42.34023,28.802437 42.107422,29.675781 41.79745,30.838593 41.102041,31.920288 40.261719,32.552734 39.558289,33.08215 38.810132,33.377284 37.667969,33.574219 37.473024,33.607832 35.778076,33.628381 31.691406,33.646484 L 25.988281,33.671875 25.529297,33.775391 C 23.454805,34.246931 22.127347,35.329879 21.566406,37.007812 21.258997,37.927379 21.254942,38.043388 21.269531,43.818359 L 21.28125,48.863281 21.373047,49.164062 C 22.155194,51.73786 25.228562,53.210137 30.195312,53.390625 31.156468,53.425551 32.429989,53.407933 33.328125,53.347656 35.997484,53.1685 38.021231,52.631561 39.349609,51.75 39.78695,51.459765 40.432318,50.812464 40.644531,50.451172 40.850602,50.100336 40.994463,49.698872 41.035156,49.359375 41.051976,49.219016 41.055886,48.008156 41.044922,46.669922 L 41.025391,44.236328 36.080078,44.216797 31.132812,44.197266 V 43.519531 42.841797 L 38.591797,42.820312 C 46.870993,42.796644 46.166286,42.820836 47.007812,42.535156 48.480937,42.035062 49.647445,40.959439 50.4375,39.371094 50.829249,38.583507 51.090743,37.819199 51.291016,36.878906 51.494779,35.922238 51.496534,35.894972 51.496094,32.978516 51.495632,29.981723 51.492366,29.938408 51.238281,28.763672 50.57768,25.709456 49.025839,23.68471 46.888672,23.087891 L 46.490234,22.976562 H 44.435547 Z M 36.613281,46.707031 C 36.753866,46.69394 36.89875,46.698435 37.044922,46.722656 37.810922,46.849586 38.405501,47.446414 38.535156,48.216797 38.692341,49.150769 38.010003,50.083722 37.056641,50.238281 36.914043,50.261393 36.771188,50.277784 36.738281,50.275391 35.851362,50.210736 35.170897,49.614574 35.019531,48.767578 34.837451,47.748719 35.629189,46.798672 36.613281,46.707031 Z" />
  </g>
</svg>
