<?xml version="1.0" encoding="UTF-8" standalone="no"?>
<svg
   width="64"
   height="64"
   viewBox="0 0 16.93333316 16.93333345"
   version="1.1"
   id="svg8"
   inkscape:version="1.1-dev (b07433122b, 2020-08-20, custom)"
   sodipodi:docname="orphan_icon.svg"
   xmlns:inkscape="http://www.inkscape.org/namespaces/inkscape"
   xmlns:sodipodi="http://sodipodi.sourceforge.net/DTD/sodipodi-0.dtd"
   xmlns="http://www.w3.org/2000/svg"
   xmlns:svg="http://www.w3.org/2000/svg"
   xmlns:rdf="http://www.w3.org/1999/02/22-rdf-syntax-ns#"
   xmlns:cc="http://creativecommons.org/ns#"
   xmlns:dc="http://purl.org/dc/elements/1.1/">
  <defs
     id="defs2" />
  <sodipodi:namedview
     id="base"
     pagecolor="#ffffff"
     bordercolor="#666666"
     borderopacity="1.0"
     inkscape:pageopacity="0.0"
     inkscape:pageshadow="2"
     inkscape:zoom="5.5291091"
     inkscape:cx="28.576032"
     inkscape:cy="40.965008"
     inkscape:document-units="mm"
     inkscape:current-layer="layer1"
     showgrid="false"
     units="px"
     inkscape:window-width="1534"
     inkscape:window-height="843"
     inkscape:window-x="66"
     inkscape:window-y="20"
     inkscape:window-maximized="1"
     inkscape:snap-global="false" />
  <metadata
     id="metadata5">
    <rdf:RDF>
      <cc:Work
         rdf:about="">
        <dc:format>image/svg+xml</dc:format>
        <dc:type
           rdf:resource="http://purl.org/dc/dcmitype/StillImage" />
        <dc:title />
      </cc:Work>
    </rdf:RDF>
  </metadata>
  <g
     inkscape:label="Layer 1"
     inkscape:groupmode="layer"
     id="layer1"
     transform="translate(-104.6139974,-111.3056386)">
    <g
       aria-label="?"
       id="text853"
       style="font-size:7.55014px;line-height:1.25;font-family:sans-serif;text-align:center;letter-spacing:0px;word-spacing:0px;text-anchor:middle;stroke-width:0.56626">
      <path
         d="m 111.37404,118.63979 c 0.2567,-0.302 0.65686,-0.61911 0.98152,-0.61911 0.26425,0 0.55871,0.0679 0.55871,0.35486 0,0.41526 -1.20048,0.80786 -1.20048,1.50248 v 0.60401 h 1.40433 v -0.41526 c 0,-0.45301 1.20047,-0.69461 1.20047,-1.67613 0,-1.01927 -0.79276,-1.54778 -1.79693,-1.54778 -0.75501,0 -1.43453,0.36241 -1.96304,0.97397 z m 0.14345,2.83131 c 0,0.3926 0.36996,0.77766 0.86072,0.77766 0.55116,0 0.89846,-0.35486 0.89846,-0.77766 0,-0.43036 -0.3624,-0.80032 -0.89846,-0.80032 -0.54361,0 -0.86072,0.42281 -0.86072,0.80032 z"
         style="font-style:normal;font-variant:normal;font-weight:normal;font-stretch:normal;font-family:ChunkFive;-inkscape-font-specification:ChunkFive;stroke-width:0.56626"
         id="path855" />
    </g>
    <rect
       style="fill:none;fill-rule:evenodd;stroke:#d3d7cf;stroke-width:0.2645833176;stroke-linecap:butt;stroke-linejoin:miter;stroke-opacity:1;stroke-miterlimit:4;stroke-dasharray:1.5874999054,1.5874999054;stroke-dashoffset:0"
       id="rect835"
       width="14.84974003"
       height="14.96549511"
       x="105.7384796"
       y="112.3309021" />
    <g
       transform="matrix(0.68391582,0,0,0.68391582,-90.169298,-291.32001)"
       inkscape:label="00125"
       id="zoom">
      <path
         inkscape:connector-curvature="0"
         id="rect14085"
         d="m 285,589.36218 h 24 v 24 h -24 z"
         style="opacity:0;fill:none" />
      <path
         id="path14089"
         d="m 296.4611,591.3622 c -5.2682,0 -9.5389,4.1724 -9.5389,9.299 0,5.1268 4.2707,9.26 9.5389,9.26 1.8739,0 3.6132,-0.5373 5.0874,-1.4455 L 305,612.3622 c 0.6588,0.6397 1.6958,0.6101 2.345,-0.039 l 0.3179,-0.3126 c 0.6492,-0.6492 0.6588,-1.7046 0,-2.3442 l -3.372,-3.7695 c 1.0675,-1.499 1.7091,-3.2737 1.7091,-5.2357 0,-5.1267 -4.2707,-9.2989 -9.5389,-9.2989 z m 0,2.5006 c 3.8633,0 6.9952,3.0787 6.9952,6.8766 0,3.7978 -3.1319,6.8766 -6.9952,6.8766 -3.8633,0 -6.9952,-3.0788 -6.9952,-6.8766 0,-3.7979 3.1319,-6.8766 6.9952,-6.8766 z"
         style="opacity:1"
         inkscape:connector-curvature="0" />
    </g>
  </g>
</svg>
