<?xml version="1.0" encoding="UTF-8" standalone="no"?>
<svg xmlns:inkscape="http://www.inkscape.org/namespaces/inkscape" xmlns:sodipodi="http://sodipodi.sourceforge.net/DTD/sodipodi-0.dtd" xmlns="http://www.w3.org/2000/svg" xmlns:svg="http://www.w3.org/2000/svg" width="900" height="900" viewBox="0 0 900 900" version="1.1" xml:space="preserve">
<sodipodi:namedview pagecolor="#a9a9a9" bordercolor="#292929" borderopacity="1" inkscape:showpageshadow="2" inkscape:pageopacity="0.0" inkscape:pagecheckerboard="0" inkscape:deskcolor="#232323" />
<style type="text/css">
g.prefab path {
  vector-effect:non-scaling-stroke;
  -inkscape-stroke:hairline;
  fill: none;
  fill-opacity: 1;
  stroke-opacity: 1;
  stroke: #00349c;
}
</style>
<g inkscape:label="Diamond Target" style="fill: white; stroke-width: 2; stroke: black;" class="prefab">
  <path d="M 454.88752,17.71104 883.45894,446.28246 454.88752,874.85388 26.3161,446.28246 Z m 0,0 L 26.3161,446.28246 97.74467,517.71103 526.31609,89.13961 Z M 597.74466,160.56818 169.17324,589.1396 240.60181,660.56817 669.17323,231.99675 Z M 740.6018,303.42532 312.03038,731.99674 383.45895,803.42531 812.03037,374.85389 Z M 26.3161,446.28246 454.88752,17.71104 883.45894,446.28246 454.88752,874.85388 Z m 0,0 428.57142,428.57142 71.42857,-71.42857 L 97.74467,374.85389 Z M 169.17324,303.42532 597.74466,731.99674 669.17323,660.56817 240.60181,231.99675 Z M 312.03038,160.56818 740.6018,589.1396 812.03037,517.71103 383.45895,89.13961 Z M 452.92223,446.28246 H 883.45894 L 454.88752,874.85388 Z m -426.60613,0 428.57142,-428.57142 v 428.57142 z"/>
  <path d="M 454.88751,143.23754 A 303.04575,303.04575 0 0 0 151.8426,446.28245 303.04575,303.04575 0 0 0 454.88751,749.32737 303.04575,303.04575 0 0 0 757.93243,446.28245 303.04575,303.04575 0 0 0 454.88751,143.23754 Z m 0,101.01366 A 202.0305,202.0305 0 0 1 656.91876,446.28245 202.0305,202.0305 0 0 1 454.88751,648.3137 202.0305,202.0305 0 0 1 252.85627,446.28245 202.0305,202.0305 0 0 1 454.88751,244.2512 Z m 0,101.01564 A 101.01525,101.01525 0 0 0 353.8719,446.28245 101.01525,101.01525 0 0 0 454.88751,547.29806 101.01525,101.01525 0 0 0 555.90314,446.28245 101.01525,101.01525 0 0 0 454.88751,345.26684 Z"/>
</g>
</svg>
