<?xml version="1.0" encoding="UTF-8" standalone="no"?>
<svg xmlns:inkscape="http://www.inkscape.org/namespaces/inkscape" xmlns:sodipodi="http://sodipodi.sourceforge.net/DTD/sodipodi-0.dtd" xmlns="http://www.w3.org/2000/svg" xmlns:svg="http://www.w3.org/2000/svg" width="900" height="900" viewBox="0 0 900 900" version="1.1" xml:space="preserve">
<sodipodi:namedview pagecolor="#a9a9a9" bordercolor="#292929" borderopacity="1" inkscape:showpageshadow="2" inkscape:pageopacity="0.0" inkscape:pagecheckerboard="0" inkscape:deskcolor="#232323" />
<style type="text/css">
g.prefab path {
  vector-effect:non-scaling-stroke;
  -inkscape-stroke:hairline;
  fill: none;
  fill-opacity: 1;
  stroke-opacity: 1;
  stroke: #00349c;
}
</style>
<g inkscape:label="Hive" style="fill: white; stroke-width: 2; stroke: black;" class="prefab">
  <path d="m 458.94046,243.85936 h 40 l 20,34.64 -20,34.64 h -40 l -20,-34.64 z"/>
  <path d="m 218.94046,243.85936 h 40 l 20,34.64 -20,34.64 h -40 l -20,-34.64 z"/>
  <path d="m 338.94046,243.85936 h 40 l 20,34.64 -20,34.64 h -40 l -20,-34.64 z"/>
  <path d="m 578.94046,243.85936 h 40 l 20,34.64 -20,34.64 h -40 l -20,-34.64 z"/>
  <path d="m 698.94046,243.85936 h 40 l 20,34.64 -20,34.64 h -40 l -20,-34.64 z"/>
  <path d="m 518.94046,209.21936 h 40 l 20,34.64 -20,34.64 h -40 l -20,-34.64 z"/>
  <path d="m 278.94046,209.21936 h 40 l 20,34.64 -20,34.64 h -40 l -20,-34.64 z"/>
  <path d="m 398.94046,209.21936 h 40 l 20,34.64 -20,34.64 h -40 l -20,-34.64 z"/>
  <path d="m 638.94046,209.21936 h 40 l 20,34.64 -20,34.64 h -40 l -20,-34.64 z"/>
  <path d="m 758.94046,209.21936 h 40 l 20,34.64 -20,34.64 h -40 l -20,-34.64 z"/>
  <path d="m 518.94046,278.49936 h 40 l 20,34.64 -20,34.64 h -40 l -20,-34.64 z"/>
  <path d="m 278.94046,278.49936 h 40 l 20,34.64 -20,34.64 h -40 l -20,-34.64 z"/>
  <path d="m 398.94046,278.49936 h 40 l 20,34.64 -20,34.64 h -40 l -20,-34.64 z"/>
  <path d="m 638.94046,278.49936 h 40 l 20,34.64 -20,34.64 h -40 l -20,-34.64 z"/>
  <path d="m 758.94046,278.49936 h 40 l 20,34.64 -20,34.64 h -40 l -20,-34.64 z"/>
  <path d="m 458.94046,174.57936 h 40 l 20,34.64 -20,34.64 h -40 l -20,-34.64 z"/>
  <path d="m 218.94046,174.57936 h 40 l 20,34.64 -20,34.64 h -40 l -20,-34.64 z"/>
  <path d="m 338.94046,174.57936 h 40 l 20,34.64 -20,34.64 h -40 l -20,-34.64 z"/>
  <path d="m 578.94046,174.57936 h 40 l 20,34.64 -20,34.64 h -40 l -20,-34.64 z"/>
  <path d="m 698.94046,174.57936 h 40 l 20,34.64 -20,34.64 h -40 l -20,-34.64 z"/>
  <path d="m 458.94046,313.13936 h 40 l 20,34.64 -20,34.64 h -40 l -20,-34.64 z"/>
  <path d="m 218.94046,313.13936 h 40 l 20,34.64 -20,34.64 h -40 l -20,-34.64 z"/>
  <path d="m 338.94046,313.13936 h 40 l 20,34.64 -20,34.64 h -40 l -20,-34.64 z"/>
  <path d="m 578.94046,313.13936 h 40 l 20,34.64 -20,34.64 h -40 l -20,-34.64 z"/>
  <path d="m 698.94046,313.13936 h 40 l 20,34.64 -20,34.64 h -40 l -20,-34.64 z"/>
  <path d="m 518.94046,139.93936 h 40 l 20,34.64 -20,34.64 h -40 l -20,-34.64 z"/>
  <path d="m 278.94046,139.93936 h 40 l 20,34.64 -20,34.64 h -40 l -20,-34.64 z"/>
  <path d="m 398.94046,139.93936 h 40 l 20,34.64 -20,34.64 h -40 l -20,-34.64 z"/>
  <path d="m 638.94046,139.93936 h 40 l 20,34.64 -20,34.64 h -40 l -20,-34.64 z"/>
  <path d="m 758.94046,139.93936 h 40 l 20,34.64 -20,34.64 h -40 l -20,-34.64 z"/>
  <path d="m 518.94046,347.77936 h 40 l 20,34.64 -20,34.64 h -40 l -20,-34.64 z"/>
  <path d="m 278.94046,347.77936 h 40 l 20,34.64 -20,34.64 h -40 l -20,-34.64 z"/>
  <path d="m 398.94046,347.77936 h 40 l 20,34.64 -20,34.64 h -40 l -20,-34.64 z"/>
  <path d="m 638.94046,347.77936 h 40 l 20,34.64 -20,34.64 h -40 l -20,-34.64 z"/>
  <path d="m 758.94046,347.77936 h 40 l 20,34.64 -20,34.64 h -40 l -20,-34.64 z"/>
  <path d="m 458.94046,105.29936 h 40 l 20,34.64 -20,34.64 h -40 l -20,-34.64 z"/>
  <path d="m 218.94046,105.29936 h 40 l 20,34.64 -20,34.64 h -40 l -20,-34.64 z"/>
  <path d="m 338.94046,105.29936 h 40 l 20,34.64 -20,34.64 h -40 l -20,-34.64 z"/>
  <path d="m 578.94046,105.29936 h 40 l 20,34.64 -20,34.64 h -40 l -20,-34.64 z"/>
  <path d="m 698.94046,105.29936 h 40 l 20,34.64 -20,34.64 h -40 l -20,-34.64 z"/>
  <path d="m 458.94046,382.41936 h 40 l 20,34.64 -20,34.64 h -40 l -20,-34.64 z"/>
  <path d="m 218.94046,382.41936 h 40 l 20,34.64 -20,34.64 h -40 l -20,-34.64 z"/>
  <path d="m 338.94046,382.41936 h 40 l 20,34.64 -20,34.64 h -40 l -20,-34.64 z"/>
  <path d="m 578.94046,382.41936 h 40 l 20,34.64 -20,34.64 h -40 l -20,-34.64 z"/>
  <path d="m 698.94046,382.41936 h 40 l 20,34.64 -20,34.64 h -40 l -20,-34.64 z"/>
  <path d="m 518.94046,70.659355 h 40 l 20,34.64 -20,34.64 h -40 l -20,-34.64 z"/>
  <path d="m 278.94046,70.659355 h 40 l 20,34.64 -20,34.64 h -40 l -20,-34.64 z"/>
  <path d="m 398.94046,70.659355 h 40 l 20,34.64 -20,34.64 h -40 l -20,-34.64 z"/>
  <path d="m 638.94046,70.659355 h 40 l 20,34.64 -20,34.64 h -40 l -20,-34.64 z"/>
  <path d="m 758.94046,70.659355 h 40 l 20,34.64 -20,34.64 h -40 l -20,-34.64 z"/>
  <path d="m 518.94046,417.05936 h 40 l 20,34.64 -20,34.64 h -40 l -20,-34.64 z"/>
  <path d="m 278.94046,417.05936 h 40 l 20,34.64 -20,34.64 h -40 l -20,-34.64 z"/>
  <path d="m 398.94046,417.05936 h 40 l 20,34.64 -20,34.64 h -40 l -20,-34.64 z"/>
  <path d="m 638.94046,417.05936 h 40 l 20,34.64 -20,34.64 h -40 l -20,-34.64 z"/>
  <path d="m 758.94046,417.05936 h 40 l 20,34.64 -20,34.64 h -40 l -20,-34.64 z"/>
  <path d="m 458.94046,590.60153 h 40 l 20,34.64 -20,34.64 h -40 l -20,-34.64 z"/>
  <path d="m 218.94046,590.60153 h 40 l 20,34.64 -20,34.64 h -40 l -20,-34.64 z"/>
  <path d="m 338.94046,590.60153 h 40 l 20,34.64 -20,34.64 h -40 l -20,-34.64 z"/>
  <path d="m 578.94046,590.60153 h 40 l 20,34.64 -20,34.64 h -40 l -20,-34.64 z"/>
  <path d="m 698.94046,590.60153 h 40 l 20,34.64 -20,34.64 h -40 l -20,-34.64 z"/>
  <path d="m 518.94046,555.96153 h 40 l 20,34.64 -20,34.64 h -40 l -20,-34.64 z"/>
  <path d="m 278.94046,555.96153 h 40 l 20,34.64 -20,34.64 h -40 l -20,-34.64 z"/>
  <path d="m 398.94046,555.96153 h 40 l 20,34.64 -20,34.64 h -40 l -20,-34.64 z"/>
  <path d="m 638.94046,555.96153 h 40 l 20,34.64 -20,34.64 h -40 l -20,-34.64 z"/>
  <path d="m 758.94046,555.96153 h 40 l 20,34.64 -20,34.64 h -40 l -20,-34.64 z"/>
  <path d="m 518.94046,625.24153 h 40 l 20,34.64 -20,34.64 h -40 l -20,-34.64 z"/>
  <path d="m 278.94046,625.24153 h 40 l 20,34.64 -20,34.64 h -40 l -20,-34.64 z"/>
  <path d="m 398.94046,625.24153 h 40 l 20,34.64 -20,34.64 h -40 l -20,-34.64 z"/>
  <path d="m 638.94046,625.24153 h 40 l 20,34.64 -20,34.64 h -40 l -20,-34.64 z"/>
  <path d="m 758.94046,625.24153 h 40 l 20,34.64 -20,34.64 h -40 l -20,-34.64 z"/>
  <path d="m 458.94046,521.32153 h 40 l 20,34.64 -20,34.64 h -40 l -20,-34.64 z"/>
  <path d="m 218.94046,521.32153 h 40 l 20,34.64 -20,34.64 h -40 l -20,-34.64 z"/>
  <path d="m 338.94046,521.32153 h 40 l 20,34.64 -20,34.64 h -40 l -20,-34.64 z"/>
  <path d="m 578.94046,521.32153 h 40 l 20,34.64 -20,34.64 h -40 l -20,-34.64 z"/>
  <path d="m 698.94046,521.32153 h 40 l 20,34.64 -20,34.64 h -40 l -20,-34.64 z"/>
  <path d="m 458.94046,659.88153 h 40 l 20,34.64 -20,34.64 h -40 l -20,-34.64 z"/>
  <path d="m 218.94046,659.88153 h 40 l 20,34.64 -20,34.64 h -40 l -20,-34.64 z"/>
  <path d="m 338.94046,659.88153 h 40 l 20,34.64 -20,34.64 h -40 l -20,-34.64 z"/>
  <path d="m 578.94046,659.88153 h 40 l 20,34.64 -20,34.64 h -40 l -20,-34.64 z"/>
  <path d="m 698.94046,659.88153 h 40 l 20,34.64 -20,34.64 h -40 l -20,-34.64 z"/>
  <path d="m 518.94046,486.68153 h 40 l 20,34.64 -20,34.64 h -40 l -20,-34.64 z"/>
  <path d="m 278.94046,486.68153 h 40 l 20,34.64 -20,34.64 h -40 l -20,-34.64 z"/>
  <path d="m 398.94046,486.68153 h 40 l 20,34.64 -20,34.64 h -40 l -20,-34.64 z"/>
  <path d="m 638.94046,486.68153 h 40 l 20,34.64 -20,34.64 h -40 l -20,-34.64 z"/>
  <path d="m 758.94046,486.68153 h 40 l 20,34.64 -20,34.64 h -40 l -20,-34.64 z"/>
  <path d="m 518.94046,694.52153 h 40 l 20,34.64 -20,34.64 h -40 l -20,-34.64 z"/>
  <path d="m 278.94046,694.52153 h 40 l 20,34.64 -20,34.64 h -40 l -20,-34.64 z"/>
  <path d="m 398.94046,694.52153 h 40 l 20,34.64 -20,34.64 h -40 l -20,-34.64 z"/>
  <path d="m 638.94046,694.52153 h 40 l 20,34.64 -20,34.64 h -40 l -20,-34.64 z"/>
  <path d="m 758.94046,694.52153 h 40 l 20,34.64 -20,34.64 h -40 l -20,-34.64 z"/>
  <path d="m 458.94046,452.04153 h 40 l 20,34.64 -20,34.64 h -40 l -20,-34.64 z"/>
  <path d="m 218.94046,452.04153 h 40 l 20,34.64 -20,34.64 h -40 l -20,-34.64 z"/>
  <path d="m 338.94046,452.04153 h 40 l 20,34.64 -20,34.64 h -40 l -20,-34.64 z"/>
  <path d="m 578.94046,452.04153 h 40 l 20,34.64 -20,34.64 h -40 l -20,-34.64 z"/>
  <path d="m 698.94046,452.04153 h 40 l 20,34.64 -20,34.64 h -40 l -20,-34.64 z"/>
  <path d="m 458.94046,729.16153 h 40 l 20,34.64 -20,34.64 h -40 l -20,-34.64 z"/>
  <path d="m 218.94046,729.16153 h 40 l 20,34.64 -20,34.64 h -40 l -20,-34.64 z"/>
  <path d="m 338.94046,729.16153 h 40 l 20,34.64 -20,34.64 h -40 l -20,-34.64 z"/>
  <path d="m 578.94046,729.16153 h 40 l 20,34.64 -20,34.64 h -40 l -20,-34.64 z"/>
  <path d="m 698.94046,729.16153 h 40 l 20,34.64 -20,34.64 h -40 l -20,-34.64 z"/>
  <path d="m 518.94046,763.80153 h 40 l 20,34.64 -20,34.64 h -40 l -20,-34.64 z"/>
  <path d="m 278.94046,763.80153 h 40 l 20,34.64 -20,34.64 h -40 l -20,-34.64 z"/>
  <path d="m 398.94046,763.80153 h 40 l 20,34.64 -20,34.64 h -40 l -20,-34.64 z"/>
  <path d="m 638.94046,763.80153 h 40 l 20,34.64 -20,34.64 h -40 l -20,-34.64 z"/>
  <path d="m 758.94046,763.80153 h 40 l 20,34.64 -20,34.64 h -40 l -20,-34.64 z"/>
  <path d="m 98.94046,243.85936 h 40 l 20,34.64 -20,34.64 h -40 l -20,-34.64 z"/>
  <path d="m 158.94046,209.21936 h 40 l 20,34.64 -20,34.64 h -40 l -20,-34.64 z"/>
  <path d="m 158.94046,278.49936 h 40 l 20,34.64 -20,34.64 h -40 l -20,-34.64 z"/>
  <path d="m 98.94046,174.57936 h 40 l 20,34.64 -20,34.64 h -40 l -20,-34.64 z"/>
  <path d="m 98.94046,313.13936 h 40 l 20,34.64 -20,34.64 h -40 l -20,-34.64 z"/>
  <path d="m 158.94046,139.93936 h 40 l 20,34.64 -20,34.64 h -40 l -20,-34.64 z"/>
  <path d="m 158.94046,347.77936 h 40 l 20,34.64 -20,34.64 h -40 l -20,-34.64 z"/>
  <path d="m 98.94046,105.29936 h 40 l 20,34.64 -20,34.64 h -40 l -20,-34.64 z"/>
  <path d="m 98.94046,382.41936 h 40 l 20,34.64 -20,34.64 h -40 l -20,-34.64 z"/>
  <path d="m 158.94046,70.659355 h 40 l 20,34.64 -20,34.64 h -40 l -20,-34.64 z"/>
  <path d="m 158.94046,417.05936 h 40 l 20,34.64 -20,34.64 h -40 l -20,-34.64 z"/>
  <path d="m 98.94046,590.60153 h 40 l 20,34.64 -20,34.64 h -40 l -20,-34.64 z"/>
  <path d="m 158.94046,555.96153 h 40 l 20,34.64 -20,34.64 h -40 l -20,-34.64 z"/>
  <path d="m 158.94046,625.24153 h 40 l 20,34.64 -20,34.64 h -40 l -20,-34.64 z"/>
  <path d="m 98.94046,521.32153 h 40 l 20,34.64 -20,34.64 h -40 l -20,-34.64 z"/>
  <path d="m 98.94046,659.88153 h 40 l 20,34.64 -20,34.64 h -40 l -20,-34.64 z"/>
  <path d="m 158.94046,486.68153 h 40 l 20,34.64 -20,34.64 h -40 l -20,-34.64 z"/>
  <path d="m 158.94046,694.52153 h 40 l 20,34.64 -20,34.64 h -40 l -20,-34.64 z"/>
  <path d="m 98.94046,452.04153 h 40 l 20,34.64 -20,34.64 h -40 l -20,-34.64 z"/>
  <path d="m 98.94046,729.16153 h 40 l 20,34.64 -20,34.64 h -40 l -20,-34.64 z"/>
  <path d="m 158.94046,763.80153 h 40 l 20,34.64 -20,34.64 h -40 l -20,-34.64 z"/>
</g>
</svg>
