<?xml version="1.0" encoding="UTF-8" standalone="no"?>
<svg xmlns:inkscape="http://www.inkscape.org/namespaces/inkscape" xmlns:sodipodi="http://sodipodi.sourceforge.net/DTD/sodipodi-0.dtd" xmlns="http://www.w3.org/2000/svg" xmlns:svg="http://www.w3.org/2000/svg" width="900" height="900" viewBox="0 0 900 900" version="1.1" xml:space="preserve">
<sodipodi:namedview pagecolor="#a9a9a9" bordercolor="#292929" borderopacity="1" inkscape:showpageshadow="2" inkscape:pageopacity="0.0" inkscape:pagecheckerboard="0" inkscape:deskcolor="#232323" />
<style type="text/css">
g.prefab path {
  vector-effect:non-scaling-stroke;
  -inkscape-stroke:hairline;
  fill: none;
  fill-opacity: 1;
  stroke-opacity: 1;
  stroke: #00349c;
}
</style>
<g inkscape:label="Kitchen Tile" style="fill: white; stroke-width: 2; stroke: black;" class="prefab">
  <path d="M 850.56495,41.294033 H 50.740591 L 850.56495,841.29403 Z m -397.84401,0 H 851.03347 V 841.29403 H 452.72094 Z M 51.209117,441.29403 H 851.03347 v 400 H 51.209117 Z m 0,-399.999997 H 851.03347 L 51.209117,841.29403 Z"/>
  <path d="M 251.1652,41.294033 A 199.95609,200 0 0 0 51.209117,241.29403 a 199.95609,200 0 0 0 199.956083,200 199.95609,200 0 0 0 199.95609,-200 A 199.95609,200 0 0 0 251.1652,41.294033 Z m 0,66.666667 A 133.30406,133.33333 0 0 1 384.46926,241.29403 133.30406,133.33333 0 0 1 251.1652,374.62736 133.30406,133.33333 0 0 1 117.86115,241.29403 133.30406,133.33333 0 0 1 251.1652,107.9607 Z m 0,66.66666 a 66.652028,66.666666 0 0 0 -66.65203,66.66667 66.652028,66.666666 0 0 0 66.65203,66.66668 66.652028,66.666666 0 0 0 66.65204,-66.66668 66.652028,66.666666 0 0 0 -66.65204,-66.66667 z"/>
  <path d="m 651.07738,41.294033 a 199.95609,200 0 0 0 -199.95609,199.999997 199.95609,200 0 0 0 199.95609,200 199.95609,200 0 0 0 199.95609,-200 A 199.95609,200 0 0 0 651.07738,41.294033 Z m 0,66.666667 A 133.30406,133.33333 0 0 1 784.38143,241.29403 133.30406,133.33333 0 0 1 651.07738,374.62736 133.30406,133.33333 0 0 1 517.77333,241.29403 133.30406,133.33333 0 0 1 651.07738,107.9607 Z m 0,66.66666 a 66.652028,66.666666 0 0 0 -66.65203,66.66667 66.652028,66.666666 0 0 0 66.65203,66.66668 66.652028,66.666666 0 0 0 66.65203,-66.66668 66.652028,66.666666 0 0 0 -66.65203,-66.66667 z"/>
  <path d="m 251.1652,441.29403 a 199.95609,200 0 0 0 -199.956083,200 199.95609,200 0 0 0 199.956083,200 199.95609,200 0 0 0 199.95609,-200 199.95609,200 0 0 0 -199.95609,-200 z m 0,66.66668 A 133.30406,133.33333 0 0 1 384.46926,641.29403 133.30406,133.33333 0 0 1 251.1652,774.62736 133.30406,133.33333 0 0 1 117.86115,641.29403 133.30406,133.33333 0 0 1 251.1652,507.96071 Z m 0,66.66665 a 66.652028,66.666666 0 0 0 -66.65203,66.66667 66.652028,66.666666 0 0 0 66.65203,66.66668 66.652028,66.666666 0 0 0 66.65204,-66.66668 66.652028,66.666666 0 0 0 -66.65204,-66.66667 z"/>
  <path d="m 651.07738,441.29403 a 199.95609,200 0 0 0 -199.95609,200 199.95609,200 0 0 0 199.95609,200 199.95609,200 0 0 0 199.95609,-200 199.95609,200 0 0 0 -199.95609,-200 z m 0,66.66668 A 133.30406,133.33333 0 0 1 784.38143,641.29403 133.30406,133.33333 0 0 1 651.07738,774.62736 133.30406,133.33333 0 0 1 517.77333,641.29403 133.30406,133.33333 0 0 1 651.07738,507.96071 Z m 0,66.66665 a 66.652028,66.666666 0 0 0 -66.65203,66.66667 66.652028,66.666666 0 0 0 66.65203,66.66668 66.652028,66.666666 0 0 0 66.65203,-66.66668 66.652028,66.666666 0 0 0 -66.65203,-66.66667 z"/>
  <path d="m 450.88702,241.05971 a 199.95609,200 0 0 0 -199.95608,200 199.95609,200 0 0 0 199.95608,200 199.95609,200 0 0 0 199.95609,-200 199.95609,200 0 0 0 -199.95609,-200 z m 0,66.66668 A 133.30406,133.33333 0 0 1 584.19108,441.05971 133.30406,133.33333 0 0 1 450.88702,574.39304 133.30406,133.33333 0 0 1 317.58297,441.05971 133.30406,133.33333 0 0 1 450.88702,307.72639 Z m 0,66.66665 a 66.652028,66.666666 0 0 0 -66.65203,66.66667 66.652028,66.666666 0 0 0 66.65203,66.66668 66.652028,66.666666 0 0 0 66.65204,-66.66668 66.652028,66.666666 0 0 0 -66.65204,-66.66667 z"/>
</g>
</svg>
