<?xml version="1.0" encoding="UTF-8" standalone="no"?>
<svg xmlns:inkscape="http://www.inkscape.org/namespaces/inkscape" xmlns:sodipodi="http://sodipodi.sourceforge.net/DTD/sodipodi-0.dtd" xmlns="http://www.w3.org/2000/svg" xmlns:svg="http://www.w3.org/2000/svg" width="900" height="900" viewBox="0 0 900 900" version="1.1" xml:space="preserve">
  <sodipodi:namedview pagecolor="#a9a9a9" bordercolor="#292929" borderopacity="1" inkscape:showpageshadow="2" inkscape:pageopacity="0.0" inkscape:pagecheckerboard="0" inkscape:deskcolor="#232323"/>
 <style type="text/css">
g.prefab path {
  vector-effect:non-scaling-stroke;
  -inkscape-stroke:hairline;
  fill: none;
  fill-opacity: 1;
  stroke-opacity: 1;
  stroke: #00349c;
}
 </style>
 <g inkscape:label="Diamond" style="fill: white; stroke-width: 2; stroke: black;" class="prefab">
   <path d="m 379.61133,94.958984 -70.68555,70.734376 424.30274,424.30273 70.74411,-70.67773 z m -141.36914,141.470696 -70.6836,70.73633 424.17774,424.18752 70.74414,-70.67774 z M 96.871095,377.90429 26.185546,448.64258 450.25,872.70704 520.99219,802.03124 Z M 450,24.517578 26.291016,448.53712 450.1543,24.669923 Z M 520.90429,95.339844 96.816405,519.43749 167.49219,590.18164 591.6543,166.00977 Z M 662.41016,236.6836 238.16992,660.92382 308.84766,731.66797 733.16211,307.35352 Z M 803.9121,378.02343 379.52344,802.41211 450,872.95507 874.59375,448.76368 l 0.0705,-0.0704 z M 450.07226,448.74218 V 872.8828 L 874.6152,448.74218 Z M 450,24.517578 26.136718,448.69141 l 0.05078,0.0508 H 450.07226 V 24.589843 Z m 0,9.3e-5 L 874.66387,448.69257 450,872.95509 26.136058,448.69146 Z" transform="matrix(0.99933991,0,0,0.99933991,0.29613921,1.8694439)"/>
 </g>
</svg>
