<?xml version="1.0" encoding="UTF-8" standalone="no"?>
<svg xmlns:inkscape="http://www.inkscape.org/namespaces/inkscape" xmlns:sodipodi="http://sodipodi.sourceforge.net/DTD/sodipodi-0.dtd" xmlns="http://www.w3.org/2000/svg" xmlns:svg="http://www.w3.org/2000/svg" width="900" height="900" viewBox="0 0 900 900" version="1.1" xml:space="preserve">
<sodipodi:namedview pagecolor="#a9a9a9" bordercolor="#292929" borderopacity="1" inkscape:showpageshadow="2" inkscape:pageopacity="0.0" inkscape:pagecheckerboard="0" inkscape:deskcolor="#232323" />
<style type="text/css">
g.prefab path {
  vector-effect:non-scaling-stroke;
  -inkscape-stroke:hairline;
  fill: none;
  fill-opacity: 1;
  stroke-opacity: 1;
  stroke: #00349c;
}
</style>
<g inkscape:label="Explosion" style="fill: white; stroke-width: 2; stroke: black;" class="prefab">
  <path d="m 452.62367,334.31408 22.89282,60.68312 59.09711,-26.72179 -26.72178,59.09712 60.68313,22.89281 -60.68312,22.89283 26.72178,59.0971 -59.09712,-26.72177 -22.89281,60.68313 -22.89282,-60.68312 -59.09711,26.72178 26.72177,-59.09712 -60.68312,-22.8928 60.68312,-22.89283 -26.72178,-59.09711 59.09712,26.72177 z m 0,-117.09905 46.01226,121.96694 118.77922,-53.70809 -53.70807,118.77924 121.96695,46.01223 -121.96694,46.01226 53.70809,118.77922 L 498.63594,561.34876 452.62371,683.31571 406.61145,561.34877 287.83223,615.05686 341.5403,496.27762 219.57335,450.26539 341.54029,404.25313 287.8322,285.47391 406.61144,339.18198 Z m 10e-6,-116.94969 69.10219,183.17256 178.38519,-80.65993 -80.65993,178.3852 183.17256,69.10219 -183.17257,69.10219 80.65993,178.38519 -178.3852,-80.65994 -69.10219,183.17257 -69.10219,-183.17257 -178.38519,80.65993 80.65993,-178.3852 -183.17255,-69.10219 183.17256,-69.10219 -80.65993,-178.38519 178.3852,80.65993 z m -350,1e-5 699.99997,3e-5 -2e-5,699.99997 -699.99998,-10e-6 z m -3e-5,699.99999 3e-5,-699.99999 699.99997,3e-5 -2e-5,699.99997 z M 452.68413,450.37146 802.6237,100.26538 l -3e-5,699.99997 z m -350.06044,349.89383 1e-5,-699.99991 349.99998,349.99998 z"/>
</g>
</svg>
