<?xml version="1.0" encoding="UTF-8" standalone="no"?>
<svg
   version="1.1"
   id="svg1"
   width="16"
   height="16"
   viewBox="0 0 16 16"
   sodipodi:docname="draw-use-pressure-symbolic.svg"
   inkscape:version="1.1.1 (3bf5ae0d25, 2021-09-20)"
   xmlns:inkscape="http://www.inkscape.org/namespaces/inkscape"
   xmlns:sodipodi="http://sodipodi.sourceforge.net/DTD/sodipodi-0.dtd"
   xmlns="http://www.w3.org/2000/svg"
   xmlns:svg="http://www.w3.org/2000/svg"
   xmlns:rdf="http://www.w3.org/1999/02/22-rdf-syntax-ns#"
   xmlns:cc="http://creativecommons.org/ns#"
   xmlns:dc="http://purl.org/dc/elements/1.1/">
  <style
     id="s0">
.success { fill:#009909; }
.warning { fill:#FF1990; }
.error { fill:#00AAFF; }
</style>
  <style
     id="s2">
@import '../../highlights.css';
</style>
  <metadata
     id="metadata2248">
    <rdf:RDF>
      <cc:Work
         rdf:about="">
        <dc:format>image/svg+xml</dc:format>
        <dc:type
           rdf:resource="http://purl.org/dc/dcmitype/StillImage" />
      </cc:Work>
    </rdf:RDF>
  </metadata>
  <defs
     id="defs2246">
    <inkscape:path-effect
       effect="powerstroke"
       id="path-effect7208"
       is_visible="true"
       lpeversion="1"
       offset_points="0.52458663,1.1630171 | 6.9899789,0.89270651 | 12.682194,0.34324896"
       not_jump="false"
       sort_points="true"
       interpolator_type="CentripetalCatmullRom"
       interpolator_beta="0.2"
       start_linecap_type="zerowidth"
       linejoin_type="round"
       miter_limit="4"
       scale_width="1"
       end_linecap_type="zerowidth" />
    <inkscape:path-effect
       effect="spiro"
       id="path-effect7149"
       is_visible="true"
       lpeversion="1" />
    <inkscape:path-effect
       attempt_force_join="true"
       miter_limit="100"
       linejoin_type="extrp_arc"
       line_width="1"
       linecap_type="butt"
       is_visible="true"
       id="path-effect962"
       effect="join_type"
       lpeversion="0" />
    <inkscape:path-effect
       effect="fill_between_many"
       method="bsplinespiro"
       linkedpaths="#path7147,0,1"
       id="path-effect7210" />
  </defs>
  <sodipodi:namedview
     objecttolerance="10"
     gridtolerance="10"
     guidetolerance="10"
     id="namedview"
     showgrid="true"
     inkscape:zoom="22.627417"
     inkscape:cx="3.9111844"
     inkscape:cy="-1.1048543"
     inkscape:window-width="1858"
     inkscape:window-height="1177"
     inkscape:window-x="54"
     inkscape:window-y="-8"
     inkscape:window-maximized="1"
     inkscape:current-layer="draw-use-pressure"
     inkscape:document-rotation="0"
     pagecolor="#ffffff"
     bordercolor="#666666"
     borderopacity="1.0"
     inkscape:pageshadow="2"
     inkscape:pageopacity="0"
     inkscape:pagecheckerboard="0">
    <inkscape:grid
       type="xygrid"
       id="grid" />
  </sodipodi:namedview>
  <g
     transform="matrix(0.999657,0,0,1,-378.86988,-805.3625)"
     inkscape:label="00177"
     id="draw-use-pressure">
    <path
       id="rect1110"
       style="stroke-width:0.999998;paint-order:markers fill stroke;stop-color:#1c1c1c"
       d="M 11.558594,-3.0273438 8.2246094,0.5468779 6.9999971,2 5.8671425,4.4654998 6.9999971,5.5983543 9.5058626,4.5058655 10.958984,3.2812529 14.292969,-0.29296875 Z"
       transform="matrix(1.0003431,0,0,1,378.99988,805.3625)"
       sodipodi:nodetypes="ccccccccc" />
    <path
       id="rect1942"
       style="fill-opacity:1;;paint-order:markers fill stroke;stop-color:#1c1c1c"
       d="m 384.34252,810.35545 1.13235,1.13196 c -0.60066,0.60044 -1.20548,1.19627 -1.72862,0.6752 -0.52305,-0.52113 -0.004,-1.20686 0.59627,-1.80716 z"
       sodipodi:nodetypes="ccsc" />
    <path
       inkscape:original-d="M 0,0"
       inkscape:path-effect="#path-effect7210"
       d="m 383.00125,812.8625 c -0.59287,0.59657 -1.01037,1.36538 -1.1879,2.1875 -0.11376,0.5268 -0.13006,1.07681 -0.0247,1.60536 0.10534,0.52854 0.33412,1.03487 0.6792,1.44884 0.34508,0.41398 0.80779,0.73294 1.32438,0.88652 0.5166,0.15358 1.08574,0.13757 1.58487,-0.0657 0.64444,-0.26247 1.13561,-0.81413 1.46995,-1.42439 0.33435,-0.61025 0.53123,-1.28416 0.74502,-1.94635 0.2138,-0.66218 0.45177,-1.32793 0.85454,-1.89535 0.20138,-0.28372 0.44347,-0.54058 0.72748,-0.74154 0.284,-0.20097 0.61087,-0.34503 0.95464,-0.39862 0.4573,-0.0713 0.93447,0.0212 1.3447,0.2355 0.41022,0.21429 0.75409,0.5467 1.00485,0.9357 0.50151,0.77801 0.62209,1.75187 0.52643,2.67255 -0.15746,1.5154 -0.88256,2.9651 -2.00069,4 z"
       id="path7212"
       style="display:none;fill:#000000" />
    <path
       style="fill:#000000;fill-opacity:1;fill-rule:nonzero;stroke:none;stroke-width:1.00017;paint-order:markers fill stroke;stop-color:#1c1c1c"
       d="m 383.00125,812.8625 c -0.29299,0.0198 -1.08144,-0.26117 -1.80854,0.52305 -0.26466,0.28545 -0.55212,0.74786 -0.73869,1.37091 -0.19387,0.55742 -0.29752,1.32407 -0.11977,2.18874 0.14293,0.69534 0.47311,1.43833 1.04481,2.06657 0.5223,0.57427 1.23094,1.02525 2.04516,1.21676 0.79486,0.18731 1.64741,0.10859 2.38383,-0.24534 0.48288,-0.22414 0.87188,-0.54483 1.17839,-0.88759 0.31479,-0.35203 0.55543,-0.74132 0.73591,-1.11541 0.1854,-0.38513 0.31851,-0.77061 0.42432,-1.11625 0.11275,-0.36833 0.20108,-0.70905 0.28863,-1.01595 -5e-5,1.8e-4 0.006,-0.0198 0.006,-0.0197 0.0915,-0.32035 0.1846,-0.62956 0.29573,-0.92105 0.10746,-0.28185 0.22956,-0.5411 0.37916,-0.77335 0.13624,-0.2342 0.29948,-0.44305 0.48792,-0.60936 0.18948,-0.1675 0.40572,-0.29027 0.62652,-0.35442 0.31418,-0.0808 0.66529,-0.0444 0.98247,0.0831 0.35993,0.14515 0.66167,0.39865 0.89013,0.67864 0.25044,0.34463 0.40282,0.73125 0.49424,1.10614 0.0381,0.15613 0.0657,0.31066 0.0854,0.46004 0.0373,0.2825 0.0499,0.56454 0.0452,0.8356 -0.0411,0.80092 -0.23684,1.52932 -0.49557,2.14273 -0.38334,0.90884 -0.88942,1.53469 -1.22816,1.88605 0.37737,-0.31135 0.97831,-0.86604 1.49303,-1.75357 0.34833,-0.60063 0.65249,-1.3507 0.78462,-2.21765 0.0538,-0.29249 0.0871,-0.60849 0.086,-0.93623 -5.7e-4,-0.17341 -0.0105,-0.35732 -0.0339,-0.54768 -0.0557,-0.45243 -0.19081,-0.96699 -0.48006,-1.45941 -0.22521,-0.42218 -0.58974,-0.87374 -1.11957,-1.19276 -0.46683,-0.28088 -1.06871,-0.45607 -1.70693,-0.38785 -0.45673,0.0414 -0.89606,0.20231 -1.28277,0.44281 -0.38221,0.23756 -0.70417,0.54543 -0.96703,0.87373 -0.25728,0.34103 -0.45546,0.70176 -0.61711,1.05093 -0.16532,0.35712 -0.30055,0.72071 -0.41707,1.04538 -6e-5,1.7e-4 -0.007,0.02 -0.007,0.0202 -0.11192,0.31226 -0.22649,0.6316 -0.35314,0.92953 -0.12185,0.28665 -0.25431,0.55247 -0.41111,0.79115 -0.14732,0.22324 -0.31733,0.41983 -0.50147,0.56981 -0.17905,0.14583 -0.35529,0.23474 -0.52414,0.27596 -0.25933,0.0506 -0.54764,0.008 -0.7859,-0.1139 -0.24516,-0.12406 -0.45631,-0.32584 -0.6036,-0.55628 -0.16273,-0.2534 -0.26102,-0.54504 -0.3136,-0.83111 -0.0662,-0.36002 -0.0637,-0.70669 -0.0703,-1.02198 0.0205,-0.33624 0.0662,-0.63085 0.0793,-0.87632 0.0355,-0.6676 -0.2687,-1.31161 -0.25068,-1.60472 z"
       id="path7147"
       inkscape:path-effect="#path-effect7149;#path-effect7208"
       inkscape:original-d="m 383.00125,812.8625 c 0,0 -1.28976,1.36409 -1.1879,2.1875 0.2154,1.74132 1.81098,3.96742 3.56372,3.875 2.6556,-0.14002 2.09235,-6.40069 4.75163,-6.40625 1.60054,-0.003 2.73328,2.25012 2.87598,3.84375 0.13295,1.48478 -2.00069,4 -2.00069,4"
       sodipodi:nodetypes="caaaac"
       inkscape:linked-fill="path7212" />
  </g>
</svg>
