<?xml version="1.0" encoding="UTF-8" standalone="no"?>
<svg
   inkscape:version="1.3-dev (132e1ceb82, 2022-11-12, custom)"
   sodipodi:docname="tool-symbol.svg"
   viewBox="0 0 16 16"
   height="16"
   width="16"
   id="svg1"
   version="1.1"
   xmlns:inkscape="http://www.inkscape.org/namespaces/inkscape"
   xmlns:sodipodi="http://sodipodi.sourceforge.net/DTD/sodipodi-0.dtd"
   xmlns="http://www.w3.org/2000/svg"
   xmlns:svg="http://www.w3.org/2000/svg"
   xmlns:rdf="http://www.w3.org/1999/02/22-rdf-syntax-ns#"
   xmlns:cc="http://creativecommons.org/ns#"
   xmlns:dc="http://purl.org/dc/elements/1.1/">
  <style
     id="s0">.success { fill: #009909; }
.warning { fill: #FF1990; }
.error { fill: #00AAFF; }
</style>
  <style
     id="s2"> 
     @import '../../highlights.css'; 
  </style>
  <metadata
     id="metadata199">
    <rdf:RDF>
      <cc:Work
         rdf:about="">
        <dc:format>image/svg+xml</dc:format>
        <dc:type
           rdf:resource="http://purl.org/dc/dcmitype/StillImage" />
      </cc:Work>
    </rdf:RDF>
  </metadata>
  <defs
     id="defs197">
    <inkscape:path-effect
       effect="offset"
       id="path-effect3"
       is_visible="true"
       lpeversion="1.2"
       linejoin_type="extrp_arc"
       unit="mm"
       offset="0.47313447"
       miter_limit="4"
       attempt_force_join="false"
       update_on_knot_move="true" />
    <inkscape:path-effect
       effect="mirror_symmetry"
       start_point="1133.2329,598.7693"
       end_point="1133.2329,617.52524"
       center_point="1133.2329,608.14727"
       id="path-effect2"
       is_visible="true"
       lpeversion="1.2"
       lpesatellites=""
       mode="free"
       discard_orig_path="false"
       fuse_paths="true"
       oposite_fuse="false"
       split_items="false"
       split_open="false"
       link_styles="false" />
    <inkscape:path-effect
       effect="bspline"
       id="path-effect1"
       is_visible="true"
       lpeversion="1"
       weight="33.333333"
       steps="2"
       helper_size="0"
       apply_no_weight="true"
       apply_with_weight="true"
       only_selected="false" />
    <inkscape:path-effect
       effect="mirror_symmetry"
       start_point="8.0000297,12"
       end_point="8.0000297,16"
       center_point="8.0000297,14"
       id="path-effect1306"
       is_visible="true"
       lpeversion="1.1"
       mode="free"
       discard_orig_path="false"
       fuse_paths="false"
       oposite_fuse="false"
       split_items="false"
       split_open="false" />
    <inkscape:path-effect
       effect="mirror_symmetry"
       start_point="1132.7494,587.1121"
       end_point="1132.7494,603.61226"
       center_point="1132.7494,595.36218"
       id="path-effect1114"
       is_visible="true"
       lpeversion="1.1"
       mode="free"
       discard_orig_path="false"
       fuse_paths="false"
       oposite_fuse="false"
       split_items="false"
       split_open="false" />
  </defs>
  <sodipodi:namedview
     inkscape:snap-global="true"
     inkscape:document-rotation="0"
     inkscape:current-layer="align-horizontal-center"
     inkscape:window-maximized="1"
     inkscape:window-y="32"
     inkscape:window-x="0"
     inkscape:window-height="1011"
     inkscape:window-width="1920"
     inkscape:cy="8.9808874"
     inkscape:cx="8.7283493"
     inkscape:zoom="31.678384"
     showgrid="true"
     id="namedview"
     guidetolerance="10"
     gridtolerance="10"
     objecttolerance="10"
     pagecolor="#ffffff"
     bordercolor="#666666"
     borderopacity="1.0"
     inkscape:pageshadow="2"
     inkscape:pageopacity="1"
     inkscape:pagecheckerboard="0"
     inkscape:snap-intersection-paths="true"
     inkscape:object-paths="true"
     inkscape:snap-smooth-nodes="true"
     inkscape:snap-midpoints="true"
     inkscape:showpageshadow="2"
     inkscape:deskcolor="#d1d1d1">
    <inkscape:grid
       spacingy="1"
       spacingx="1"
       id="grid"
       type="xygrid"
       visible="true" />
  </sodipodi:namedview>
  <g
     id="align-horizontal-center"
     inkscape:label="00271"
     transform="matrix(0.666667,0,0,0.666666,-746.66667,-396.90779)">
    <path
       style="opacity:1;fill:#550000;stroke:none;stroke-width:310.975"
       d="m 1128.0039,596.82812 c -2.9283,0.21933 -5.7852,2.47947 -6.6387,5.45118 -0.8534,2.9707 0.2491,6.42918 2.3164,8.90039 a 11.327125,11.327125 0 0 0 0.027,0.0351 13.03095,13.03095 0 0 0 0.029,0.0312 c 2.0256,2.26618 4.6423,3.59827 6.459,5.2461 a 11.694211,11.694211 0 0 1 1.8886,2.19922 9.7443864,9.7443864 0 0 1 1.7579,-2.23829 c 1.7687,-1.67538 4.5896,-3.08769 6.4472,-5.24218 a 10.003985,10.003985 0 0 0 0.014,-0.0156 11.342498,11.342498 0 0 0 0.012,-0.0156 c 2.0668,-2.47054 3.1721,-5.92871 2.3184,-8.90039 -0.8534,-2.97212 -3.7104,-5.23185 -6.6387,-5.45118 -1.4738,-0.11039 -2.8049,0.334 -3.9961,0.87696 -1.1912,-0.54295 -2.5224,-0.98732 -3.9961,-0.87696 z"
       id="path2"
       sodipodi:nodetypes="ccccccccc"
       class="warning"
       inkscape:path-effect="#path-effect3"
       inkscape:original-d="m 1128.205,599.50453 c -1.8648,0.13967 -3.699,1.55539 -4.262,3.51577 -0.5632,1.96038 0.1443,4.46418 1.7962,6.43875 1.8,2.01373 4.2594,3.23117 6.2602,5.04599 1.9792,-1.87467 4.6861,-3.22031 6.2602,-5.04599 1.6519,-1.97457 2.3593,-4.47837 1.7961,-6.43875 -0.5629,-1.96038 -2.3953,-3.3761 -4.2601,-3.51577 -1.3176,-0.0987 -2.6513,0.43885 -3.7962,1.14276 -1.1449,-0.70391 -2.4768,-1.24143 -3.7944,-1.14276 z" />
    <path
       style="opacity:0;fill:none"
       d="m 1143.9994,595.36229 h -24 v 24 h 24 z"
       id="rect22217"
       inkscape:connector-curvature="0" />
    <path
       style="opacity:1;fill:#d40000;stroke:none;stroke-width:310.975"
       d="m 1128.205,599.50453 c -1.8648,0.13967 -3.699,1.55539 -4.262,3.51577 -0.5632,1.96038 0.1443,4.46418 1.7962,6.43875 1.8,2.01373 4.1954,3.0499 6.2602,5.04599 1.9792,-1.87467 4.6861,-3.22031 6.2602,-5.04599 1.6519,-1.97457 2.3593,-4.47837 1.7961,-6.43875 -0.5629,-1.96038 -2.3953,-3.3761 -4.2601,-3.51577 -1.3176,-0.0987 -2.6513,0.43885 -3.7962,1.14276 -1.1449,-0.70391 -2.4768,-1.24143 -3.7944,-1.14276 z"
       id="path1"
       sodipodi:nodetypes="ccccccccc"
       class="warning" />
  </g>
</svg>
