<?xml version="1.0" encoding="UTF-8" standalone="no"?>
<svg
   width="100"
   height="100"
   viewBox="0 0 26.458334 26.458334"
   version="1.1"
   id="svg10012"
   inkscape:version="1.3-dev (219744dec3, 2022-04-28, custom)"
   sodipodi:docname="seamless_pattern.svg"
   xmlns:inkscape="http://www.inkscape.org/namespaces/inkscape"
   xmlns:sodipodi="http://sodipodi.sourceforge.net/DTD/sodipodi-0.dtd"
   xmlns="http://www.w3.org/2000/svg"
   xmlns:svg="http://www.w3.org/2000/svg"
   xmlns:rdf="http://www.w3.org/1999/02/22-rdf-syntax-ns#"
   xmlns:cc="http://creativecommons.org/ns#"
   xmlns:dc="http://purl.org/dc/elements/1.1/">
  <defs
     id="defs10006" />
  <sodipodi:namedview
     id="base"
     pagecolor="#ffffff"
     bordercolor="#666666"
     borderopacity="1.0"
     inkscape:pageopacity="0.0"
     inkscape:pageshadow="2"
     inkscape:zoom="4.7387531"
     inkscape:cx="126.93212"
     inkscape:cy="79.240254"
     inkscape:document-units="px"
     inkscape:current-layer="layer1"
     inkscape:document-rotation="0"
     showgrid="false"
     units="px"
     inkscape:window-width="1534"
     inkscape:window-height="843"
     inkscape:window-x="66"
     inkscape:window-y="20"
     inkscape:window-maximized="1"
     inkscape:showpageshadow="2"
     inkscape:pagecheckerboard="0"
     inkscape:deskcolor="#d1d1d1" />
  <metadata
     id="metadata10009">
    <rdf:RDF>
      <cc:Work
         rdf:about="">
        <dc:format>image/svg+xml</dc:format>
        <dc:type
           rdf:resource="http://purl.org/dc/dcmitype/StillImage" />
        <dc:title />
      </cc:Work>
    </rdf:RDF>
  </metadata>
  <g
     inkscape:label="Layer 1"
     inkscape:groupmode="layer"
     id="layer1"
     transform="translate(-70.005836,-46.768833)">
    <path
       style="color:#000000;font-style:normal;font-variant:normal;font-weight:normal;font-stretch:normal;font-size:medium;line-height:normal;font-family:sans-serif;font-variant-ligatures:normal;font-variant-position:normal;font-variant-caps:normal;font-variant-numeric:normal;font-variant-alternates:normal;font-variant-east-asian:normal;font-feature-settings:normal;font-variation-settings:normal;text-indent:0;text-align:start;text-decoration:none;text-decoration-line:none;text-decoration-style:solid;text-decoration-color:#000000;letter-spacing:normal;word-spacing:normal;text-transform:none;writing-mode:lr-tb;direction:ltr;text-orientation:mixed;dominant-baseline:auto;baseline-shift:baseline;text-anchor:start;white-space:normal;shape-padding:0;shape-margin:0;inline-size:0;clip-rule:nonzero;display:inline;overflow:visible;visibility:visible;opacity:0.2;isolation:auto;mix-blend-mode:normal;color-interpolation:sRGB;color-interpolation-filters:linearRGB;solid-color:#000000;solid-opacity:1;vector-effect:none;fill:#000000;fill-opacity:1;fill-rule:nonzero;stroke:none;stroke-width:0.0784929px;stroke-linecap:butt;stroke-linejoin:miter;stroke-miterlimit:4;stroke-dasharray:none;stroke-dashoffset:0;stroke-opacity:1;paint-order:stroke markers fill;color-rendering:auto;image-rendering:auto;shape-rendering:auto;text-rendering:auto;enable-background:accumulate;stop-color:#000000"
       d="m 93.818337,50.635938 -0.747716,0.0014 v 3.370632 1.919012 14.119813 h -0.48056 -18.465535 v 0.634822 h 19.693811 z"
       id="path9068" />
    <path
       style="color:#000000;font-style:normal;font-variant:normal;font-weight:normal;font-stretch:normal;font-size:medium;line-height:normal;font-family:sans-serif;font-variant-ligatures:normal;font-variant-position:normal;font-variant-caps:normal;font-variant-numeric:normal;font-variant-alternates:normal;font-variant-east-asian:normal;font-feature-settings:normal;font-variation-settings:normal;text-indent:0;text-align:start;text-decoration:none;text-decoration-line:none;text-decoration-style:solid;text-decoration-color:#000000;letter-spacing:normal;word-spacing:normal;text-transform:none;writing-mode:lr-tb;direction:ltr;text-orientation:mixed;dominant-baseline:auto;baseline-shift:baseline;text-anchor:start;white-space:normal;shape-padding:0;shape-margin:0;inline-size:0;clip-rule:nonzero;display:inline;overflow:visible;visibility:visible;opacity:0.7;isolation:auto;mix-blend-mode:normal;color-interpolation:sRGB;color-interpolation-filters:linearRGB;solid-color:#000000;solid-opacity:1;vector-effect:none;fill:#ffffff;fill-opacity:1;fill-rule:nonzero;stroke:none;stroke-width:0.351486;stroke-linecap:butt;stroke-linejoin:miter;stroke-miterlimit:4;stroke-dasharray:none;stroke-dashoffset:0;stroke-opacity:1;paint-order:stroke markers fill;color-rendering:auto;image-rendering:auto;shape-rendering:auto;text-rendering:auto;enable-background:accumulate;stop-color:#000000"
       d="m 73.093393,49.756372 v 0.0073 4.329057 1.919068 13.592465 h 0.03895 19.457292 0.0387 v -13.677398 -1.919015 -4.244177 -0.0073 z"
       id="path9037" />
    <path
       id="path9035"
       style="color:#000000;font-style:normal;font-variant:normal;font-weight:normal;font-stretch:normal;font-size:medium;line-height:normal;font-family:sans-serif;font-variant-ligatures:normal;font-variant-position:normal;font-variant-caps:normal;font-variant-numeric:normal;font-variant-alternates:normal;font-variant-east-asian:normal;font-feature-settings:normal;font-variation-settings:normal;text-indent:0;text-align:start;text-decoration:none;text-decoration-line:none;text-decoration-style:solid;text-decoration-color:#000000;letter-spacing:normal;word-spacing:normal;text-transform:none;writing-mode:lr-tb;direction:ltr;text-orientation:mixed;dominant-baseline:auto;baseline-shift:baseline;text-anchor:start;white-space:normal;shape-padding:0;shape-margin:0;inline-size:0;clip-rule:nonzero;display:inline;overflow:visible;visibility:visible;opacity:0.4;isolation:auto;mix-blend-mode:normal;color-interpolation:sRGB;color-interpolation-filters:linearRGB;solid-color:#000000;solid-opacity:1;vector-effect:none;fill:#000000;fill-opacity:1;fill-rule:nonzero;stroke:none;stroke-width:0.351486;stroke-linecap:butt;stroke-linejoin:miter;stroke-miterlimit:4;stroke-dasharray:none;stroke-dashoffset:0;stroke-opacity:1;paint-order:stroke markers fill;color-rendering:auto;image-rendering:auto;shape-rendering:auto;text-rendering:auto;enable-background:accumulate;stop-color:#000000"
       d="m 72.651671,49.31439 v 0.441826 0.0073 4.32963 1.918755 14.034603 h 0.480292 19.458098 0.480562 V 55.926637 54.007674 49.763497 49.31465 Z m 0.441586,0.441826 h 19.534969 v 0.0073 4.244437 1.919015 13.677398 H 92.589526 73.13223 73.09327 V 56.011882 54.092606 49.763497 Z" />
    <path
       id="path5084-3"
       style="opacity:0.2;fill:#000000;fill-opacity:1;stroke:none;stroke-width:0.206756;paint-order:stroke markers fill;stop-color:#000000"
       d="M 74.578167 49.756248 C 74.697201 50.204023 74.570285 50.701126 74.205063 51.035756 C 73.893241 51.321418 73.47913 51.422629 73.093503 51.348399 L 73.093503 53.814398 C 73.433465 53.892086 73.786987 53.915745 74.142018 53.875893 C 75.529913 53.720122 76.81948 52.359227 77.06587 51.238328 C 77.174982 50.741837 77.15654 50.235311 77.029697 49.756248 L 74.578167 49.756248 z M 80.674952 49.756248 C 80.40367 50.803382 80.650965 51.962122 81.436146 52.81911 C 82.136529 53.583467 83.156665 53.991536 84.186883 53.875893 C 85.57478 53.720122 86.863827 52.359227 87.110219 51.238328 C 87.219328 50.741849 87.201272 50.2353 87.074562 49.756248 L 84.623032 49.756248 C 84.742066 50.204023 84.61515 50.701126 84.249928 51.035756 C 83.726515 51.515258 82.913597 51.479493 82.434018 50.956174 C 82.126526 50.620606 82.031917 50.166029 82.141013 49.756248 L 80.674952 49.756248 z M 90.719818 49.756248 C 90.448535 50.803382 90.69583 51.962122 91.481012 52.81911 C 91.805063 53.172762 92.197949 53.449004 92.628228 53.63353 L 92.628228 51.093117 C 92.575974 51.051538 92.525428 51.006964 92.478883 50.956174 C 92.171337 50.620547 92.076771 50.16601 92.185878 49.756248 L 90.719818 49.756248 z M 78.835271 57.038491 C 78.042547 57.041669 77.248372 57.328933 76.617836 57.906655 C 75.272608 59.139203 75.18118 61.228819 76.413714 62.57407 C 77.114095 63.338426 78.134232 63.74598 79.16445 63.630337 C 80.552347 63.474566 81.841394 62.11367 82.087786 60.992771 C 82.314136 59.962815 81.997584 58.887791 81.285251 58.11026 C 80.630486 57.395656 79.733694 57.034889 78.835271 57.038491 z M 88.880137 57.038491 C 88.087411 57.041669 87.293237 57.328933 86.662701 57.906655 C 85.317473 59.139203 85.226045 61.228819 86.458579 62.57407 C 87.15896 63.338426 88.179099 63.74598 89.209315 63.630337 C 90.597212 63.474566 91.886261 62.11367 92.132651 60.992771 C 92.359001 59.962815 92.042451 58.887791 91.330116 58.11026 C 90.675351 57.395656 89.778558 57.034889 88.880137 57.038491 z M 78.353647 58.556744 C 78.703272 58.555345 79.052279 58.696181 79.307077 58.97429 C 79.786592 59.49774 79.750919 60.310617 79.227496 60.7902 C 78.704081 61.2697 77.891163 61.233935 77.411586 60.710618 C 76.934524 60.189999 76.967023 59.382446 77.483933 58.901426 C 77.486233 58.899326 77.488351 58.897325 77.490651 58.895225 L 77.491167 58.894708 C 77.736542 58.669886 78.045154 58.557979 78.353647 58.556744 z M 88.398512 58.556744 C 88.748138 58.555345 89.097144 58.696181 89.351942 58.97429 C 89.831457 59.49774 89.795784 60.310617 89.272361 60.7902 C 88.748946 61.2697 87.936028 61.233935 87.456451 60.710618 C 86.979389 60.189999 87.011373 59.382446 87.528281 58.901426 C 87.530581 58.899326 87.533216 58.897325 87.535516 58.895225 L 87.535516 58.894708 C 87.780891 58.669886 88.09002 58.557979 88.398512 58.556744 z M 73.812839 66.793451 C 73.5716 66.794418 73.330357 66.821919 73.093503 66.875617 L 73.093503 68.334959 C 73.172009 68.319924 73.251636 68.312023 73.331215 68.311705 C 73.680839 68.310306 74.029845 68.450626 74.284645 68.728733 C 74.512489 68.977455 74.622902 69.291526 74.621058 69.604132 L 77.10101 69.604132 C 77.003234 68.963494 76.711876 68.355379 76.262819 67.86522 C 75.608052 67.150616 74.71126 66.789849 73.812839 66.793451 z M 83.857704 66.793451 C 83.064979 66.796629 82.270805 67.083378 81.640268 67.661098 C 81.060463 68.192338 80.71406 68.882684 80.605706 69.604132 L 82.097605 69.604132 C 82.095746 69.257148 82.232193 68.910669 82.505849 68.65587 L 82.506365 68.65587 C 82.508563 68.653864 82.510878 68.651682 82.513083 68.649669 L 82.5136 68.649152 C 82.758975 68.42433 83.067587 68.312939 83.37608 68.311705 C 83.725704 68.310306 84.07471 68.450626 84.32951 68.728733 C 84.557354 68.977455 84.667767 69.291526 84.665923 69.604132 L 87.145875 69.604132 C 87.04825 68.963494 86.756742 68.355379 86.307684 67.86522 C 85.652917 67.150616 84.756126 66.789849 83.857704 66.793451 z M 92.628228 67.054934 C 92.290622 67.19792 91.970889 67.399279 91.685133 67.661098 C 91.105329 68.192338 90.758925 68.882684 90.650571 69.604132 L 92.14247 69.604132 C 92.140582 69.257154 92.27692 68.910653 92.550714 68.65587 C 92.553014 68.65377 92.555648 68.651769 92.557948 68.649669 L 92.557948 68.649152 C 92.580612 68.628387 92.604528 68.60959 92.628228 68.590757 L 92.628228 67.054934 z " />
  </g>
</svg>
