<?xml version="1.0" encoding="UTF-8" standalone="no"?>
<!-- Created with Inkscape (http://www.inkscape.org/) -->

<svg
   width="419.52502mm"
   height="319.81955mm"
   viewBox="0 0 419.52503 319.81955"
   version="1.1"
   id="svg1"
   xml:space="preserve"
   inkscape:version="1.3-dev (c35dce22f0, 2023-01-05, custom)"
   sodipodi:docname="asian_patterns.svg"
   inkscape:export-filename="asian patterns.png"
   inkscape:export-xdpi="96"
   inkscape:export-ydpi="96"
   xmlns:inkscape="http://www.inkscape.org/namespaces/inkscape"
   xmlns:sodipodi="http://sodipodi.sourceforge.net/DTD/sodipodi-0.dtd"
   xmlns="http://www.w3.org/2000/svg"
   xmlns:svg="http://www.w3.org/2000/svg"
   xmlns:rdf="http://www.w3.org/1999/02/22-rdf-syntax-ns#"
   xmlns:cc="http://creativecommons.org/ns#"><sodipodi:namedview
     id="namedview1"
     pagecolor="#505050"
     bordercolor="#eeeeee"
     borderopacity="1"
     inkscape:showpageshadow="0"
     inkscape:pageopacity="0"
     inkscape:pagecheckerboard="0"
     inkscape:deskcolor="#505050"
     inkscape:document-units="mm"
     showgrid="false"
     inkscape:zoom="0.35355339"
     inkscape:cx="939.03781"
     inkscape:cy="702.86414"
     inkscape:window-width="1250"
     inkscape:window-height="678"
     inkscape:window-x="0"
     inkscape:window-y="38"
     inkscape:window-maximized="0"
     inkscape:current-layer="layer1"
     showguides="true"><inkscape:grid
       type="xygrid"
       id="grid27"
       originx="49.096622"
       originy="36.649591"
       visible="false" /><sodipodi:guide
       position="-707.9435,265.93801"
       orientation="1,0"
       id="guide216"
       inkscape:locked="false" /><sodipodi:guide
       position="-38.166087,-58.099559"
       orientation="0,-1"
       id="guide217"
       inkscape:locked="false" /><sodipodi:guide
       position="-707.9435,265.93801"
       orientation="1,0"
       id="guide218"
       inkscape:locked="false" /><sodipodi:guide
       position="-40.745828,-74.16964"
       orientation="0,-1"
       id="guide223"
       inkscape:locked="false" /><sodipodi:guide
       position="-612.77498,208.69454"
       orientation="1,0"
       id="guide469"
       inkscape:locked="false" /><sodipodi:guide
       position="-492.12498,127.73205"
       orientation="-1,0"
       id="guide470"
       inkscape:locked="false"
       inkscape:label=""
       inkscape:color="rgb(237,51,59)" /><sodipodi:guide
       position="-636.58748,205.51954"
       orientation="1,0"
       id="guide526"
       inkscape:locked="false" /><sodipodi:guide
       position="-499.53332,140.96121"
       orientation="1,0"
       id="guide4748"
       inkscape:locked="false" /></sodipodi:namedview><defs
     id="defs1"><pattern
       patternUnits="userSpaceOnUse"
       preserveAspectRatio="xMidYMid"
       width="377.95256"
       height="377.95276"
       patternTransform="translate(20.678449,34.885489) scale(0.2)"
       id="ap100"><path
         id="rect67"
         style="color:#000000;opacity:1;fill:#f32500;fill-opacity:1;stroke-width:2.9904;paint-order:markers fill stroke"
         d="M 169.87526,6.0472441e-5 V 29.600893 H 71.98622 V 49.750481 H 49.744252 V 72.48697 l -20.665731,0.02094 v 60.02997 37.3414 H 0 v 7.17807 h 29.078521 v 11.91761 11.92377 H 0 v 7.17343 h 29.078521 v 37.34759 60.02998 h 20.665731 v 22.7588 H 71.98622 v 20.14958 h 97.88904 v 29.59465 h 7.17807 v -29.59465 h 23.84138 v 29.59465 h 7.17807 v -29.59465 h 96.84288 l 0.0694,-20.14958 h 22.18323 v -22.75811 h 20.66881 v -60.02998 -37.34759 h 30.11546 v -7.17343 H 347.8371 v -11.92377 -11.91762 h 30.11546 v -7.17806 h -30.11532 v -37.3414 -60.042328 l -20.66881,0.05712 V 49.75042 H 304.98519 L 304.9158,29.600837 H 208.07293 V 0 h -7.17807 V 29.600837 H 177.05348 V 0 Z M 79.164287,36.7728 H 112.75207 V 49.750481 H 79.164287 Z m 40.765853,0 h 49.94512 v 12.977681 h -49.94512 z m 57.12319,0 h 23.84138 v 133.10717 h -23.84138 z m 31.01945,0 h 48.91284 v 12.977681 h -48.91284 z m 56.09091,0 h 33.60324 l 0.0434,12.977681 H 264.16377 Z M 56.922319,56.922387 H 71.98622 v 15.541408 l -15.063901,0.01497 z m 22.241968,0 h 33.587783 v 15.498137 l -33.587783,0.0356 z m 40.765853,0 h 49.94512 V 169.87997 H 56.922319 V 120.18828 H 79.164287 V 79.635671 l 40.765853,-0.04336 z m 88.14264,0 h 48.91284 v 23.003802 l 40.92659,-0.114233 0.13455,40.376444 h 21.94371 v 49.69169 H 208.0729 Z m 56.09091,0 h 33.67125 l 0.0526,15.712937 -33.72378,0.0942 z m 40.84623,0 h 14.98044 v 15.651126 l -14.92637,0.04187 z m -233.0237,22.721 V 113.0164 H 56.922319 V 79.658847 Z m -22.241968,0.02392 V 113.01715 H 36.258115 V 79.681246 Z m 290.914918,0.02691 V 113.01778 H 327.16843 V 79.731302 Z m -20.66881,0.05712 V 113.01772 H 305.20155 L 305.08881,79.793054 Z M 36.258115,120.1896 h 13.486137 v 49.69168 H 36.258115 v -37.34271 z m 290.910315,0 h 13.49074 v 12.35029 37.34139 H 327.16843 Z M 36.258115,177.05935 h 13.486137 v 23.84138 H 36.258115 v -11.92377 z m 20.664204,0 H 169.87526 v 23.84138 H 56.922319 Z m 120.131011,0 h 23.84138 v 23.84138 h -23.84138 z m 31.01945,0 h 111.91758 v 23.84138 H 208.07278 Z m 119.09565,0 h 13.49074 v 11.91761 11.92377 H 327.16843 Z M 36.258115,208.07417 h 13.486137 v 49.69171 H 36.258115 v -12.34413 z m 20.664204,0 H 169.87526 v 112.9576 h -49.9822 l -0.0325,-22.75811 H 79.164287 V 257.76457 H 56.922319 Z m 120.131011,0 h 23.84138 v 133.10719 h -23.84138 z m 31.01945,0 h 111.91758 v 49.69171 h -21.9437 l -0.13607,40.50778 h -40.92503 v 22.75811 h -48.91284 z m 119.09565,0 h 13.49074 v 37.34758 12.34413 H 327.16843 Z M 36.258115,264.94395 h 13.486137 v 33.32971 H 36.258115 Z m 20.664204,0 H 71.98622 v 33.32971 H 56.922319 Z m 248.279231,0 h 14.78881 v 33.32971 h -14.90317 z m 21.96688,0 h 13.49074 v 33.32971 H 327.16843 Z M 56.922319,305.45173 H 71.98622 v 15.58004 H 56.922319 Z m 22.241968,0 h 33.529053 l 0.0208,15.58004 H 79.164287 Z m 184.999403,0 h 33.72379 l -0.0526,15.58004 h -33.67125 z m 40.89878,0 h 14.92789 v 15.58004 h -14.98044 z m -225.898183,22.7568 h 33.561503 l 0.0178,12.97151 H 79.16411 Z m 40.738043,0 h 49.97293 v 12.97151 h -49.95439 z m 88.17045,0 h 48.91284 v 12.97151 h -48.91284 z m 56.09091,0 h 33.64652 l -0.0434,12.97151 h -33.60324 z" /></pattern><pattern
       patternUnits="userSpaceOnUse"
       preserveAspectRatio="xMidYMid"
       width="377.95281"
       height="377.95276"
       patternTransform="translate(404.48247,34.885489) scale(0.2)"
       id="ap101"><path
         id="path41"
         style="color:#000000;opacity:1;fill:#f32500;stroke-width:2.97601;-inkscape-stroke:none;paint-order:markers fill stroke"
         d="M 130.28729,0 V 59.421109 H 59.421146 v 3.575614 67.290537 H 0 v 7.14354 h 59.421146 v 16.47851 H 0 v 7.14354 h 59.421146 v 55.85321 H 0 v 7.14351 h 59.421146 v 16.47854 H 0 v 7.14351 h 59.421146 v 70.86615 h 70.866144 v 59.41499 h 7.14353 v -59.41499 h 16.47852 v 59.41499 h 7.14353 v -59.41499 h 55.84554 v 59.41499 h 7.1435 v -59.41499 h 16.47855 v 59.41499 h 7.1435 v -59.41499 h 70.86614 v -70.86615 h 59.42271 v -7.14351 H 318.5301 v -16.47854 h 59.42271 v -7.14351 H 318.5301 v -55.85321 h 59.42271 v -7.14354 H 318.5301 V 137.4308 h 59.42271 v -7.14354 H 318.5301 V 59.421109 H 247.66396 V 0 h -7.1435 V 59.421109 H 220.10799 V 0 h -7.1435 V 59.421109 H 161.05287 V 0 h -7.14353 V 59.421109 H 137.43082 V 0 Z M 66.56468,66.564658 h 63.72261 v 40.100552 h -23.62205 v 3.57561 20.04644 H 66.56468 Z m 70.86614,0 h 16.47852 v 40.100552 h -16.47852 z m 23.62205,0 h 51.91162 v 40.100552 h -51.91162 z m 59.05512,0 h 20.41247 v 40.100552 h -20.41247 z m 27.55597,0 H 311.3866 V 130.28726 H 271.286 V 106.66521 H 247.66396 Z M 113.80877,113.80875 h 16.47852 v 16.47851 h -16.47852 z m 23.62205,0 h 16.47852 v 40.10056 H 113.80877 V 137.4308 h 23.62205 z m 23.62205,0 h 24.3479 v 71.5997 h -71.592 v -24.3556 h 47.2441 z m 31.49144,0 h 20.42018 v 47.2441 h 51.17802 v 24.3556 h -71.5982 z m 27.56368,0 h 20.41247 v 23.62205 h 23.62205 v 16.47851 h -44.03452 z m 27.55597,0 h 16.47855 v 16.47851 H 247.66396 Z M 66.56468,137.4308 h 40.10056 v 16.47851 H 66.56468 Z m 204.72132,0 h 40.1006 v 16.47851 H 271.286 Z M 66.56468,161.05285 h 40.10056 v 55.85321 H 66.56468 Z m 204.72132,0 h 40.1006 v 55.85321 H 271.286 Z m -157.47723,31.49912 h 71.592 v 71.59819 h -24.3479 v -47.2441 h -47.2441 z m 78.73554,0 h 71.5982 v 24.35409 h -47.2441 v 47.2441 h -24.3541 z m -125.97963,31.4976 h 40.10056 v 16.47854 H 66.56468 Z m 47.24409,0 h 40.10057 v 40.10059 h -16.47852 v -23.62205 h -23.62205 z m 110.23314,0 h 40.1006 v 16.47854 h -23.62205 v 23.62205 h -16.47855 z m 47.24409,0 h 40.1006 v 16.47854 H 271.286 Z M 66.56468,247.67162 h 40.10056 v 23.62205 h 23.62205 v 40.10058 H 66.56468 Z m 47.24409,0 h 16.47852 v 16.47854 h -16.47852 z m 133.85519,0 h 16.47855 v 16.47854 h -16.47855 z m 23.62204,0 h 40.1006 v 63.72263 H 247.66396 V 271.29367 H 271.286 Z m -133.85518,23.62205 h 16.47852 v 40.10058 h -16.47852 z m 23.62205,0 h 55.84554 v 40.10058 h -55.84554 z m 62.98904,0 h 16.47855 v 40.10058 h -16.47855 z" /></pattern><pattern
       patternUnits="userSpaceOnUse"
       preserveAspectRatio="xMidYMid"
       width="385.82827"
       height="377.95276"
       patternTransform="translate(788.28674,34.885489) scale(0.2)"
       id="ap102"><path
         id="path63"
         style="color:#000000;opacity:1;fill:#f32500;fill-opacity:1;stroke:none;stroke-width:2.97601;stroke-opacity:1;paint-order:markers fill stroke"
         d="M 130.28727,0 V 44.151398 H 44.151383 v 3.092693 83.043179 H 0 v 7.14352 h 44.151383 v 47.97613 H 0 v 7.14351 h 44.151383 v 47.97613 H 0 v 7.1389 h 44.151383 v 86.14051 h 86.135887 v 44.14679 h 7.14353 v -44.14679 h 47.97612 v 44.14679 h 7.14353 v -44.14679 h 47.97608 v 44.14679 h 7.13892 v -44.14679 h 86.14046 v -86.14051 h 52.02236 v -7.1389 h -52.02236 v -47.97613 h 52.02236 v -7.14351 h -52.02236 v -47.97613 h 52.02236 v -7.14352 H 333.80591 V 44.151398 H 247.66545 V 0 h -7.13892 V 44.151398 H 192.55045 V 0 h -7.14353 V 44.151398 H 137.4308 V 0 Z M 50.341417,50.341398 H 130.28727 V 98.794286 H 98.79428 v 3.569454 27.92353 H 50.341417 Z m 87.089383,0 h 47.97612 v 16.95529 h -31.4976 v 3.56945 27.928148 H 137.4308 Z m 55.11965,0 h 47.97608 V 98.794286 H 224.0434 V 67.296688 h -31.49295 z m 55.115,0 h 79.95046 V 130.28727 H 279.16305 V 98.794286 h -31.4976 z m -86.6126,24.098804 h 24.35407 v 24.354084 h -24.35407 z m 31.4976,0 h 24.35403 V 98.794286 H 192.55045 Z M 105.9332,105.93319 h 24.35407 v 24.35408 H 105.9332 Z m 31.4976,0 h 16.47852 v 47.97613 H 105.9332 v -16.47853 h 31.4976 z m 23.62205,0 h 24.35407 v 47.97613 h -24.35407 z m 31.4976,0 h 24.35403 v 47.97613 h -24.35403 z m 31.49295,0 h 16.48313 v 31.4976 h 31.49298 v 16.47853 H 224.0434 Z m 23.62205,0 h 24.35406 v 24.35408 H 247.66545 Z M 50.341417,137.43079 H 98.79428 v 16.47853 h -31.4976 v 31.4976 H 50.341417 Z m 228.821633,0 h 48.45286 v 47.97613 h -16.95526 v -31.4976 h -3.57407 -27.92353 z M 74.440214,161.05284 H 98.79428 v 24.35408 H 74.440214 Z m 31.492986,0 h 47.97612 v 24.35408 H 105.9332 Z m 55.11965,0 h 55.85163 v 55.85168 h -55.85163 z m 62.99055,0 h 47.97611 v 24.35408 H 224.0434 Z m 55.11965,0 h 24.35406 v 24.35408 H 279.16305 Z M 50.341417,192.55043 H 67.29668 v 31.49299 h 31.4976 v 16.48314 H 50.341417 Z m 24.098797,0 H 98.79428 v 24.35409 H 74.440214 Z m 31.492986,0 h 47.97612 v 24.35409 H 105.9332 Z m 118.1102,0 h 47.97611 v 24.35409 H 224.0434 Z m 55.11965,0 h 24.35406 v 24.35409 h -24.35406 z m 31.4976,0 h 16.95526 v 47.97613 h -48.45286 v -16.48314 h 31.4976 z M 105.9332,224.04342 h 47.97612 v 47.97612 H 137.4308 v -31.49298 h -31.4976 z m 55.11965,0 h 24.35407 v 47.97612 h -24.35407 z m 31.4976,0 h 24.35403 v 47.97612 h -24.35403 z m 31.49295,0 h 47.97611 v 16.48314 h -31.49298 v 31.49298 H 224.0434 Z M 50.341417,247.66546 H 98.79428 v 31.49762 h 31.49299 v 48.45289 H 50.341417 Z m 55.591783,0 h 24.35407 v 24.35408 H 105.9332 Z m 141.73225,0 h 24.35406 v 24.35408 h -24.35406 z m 31.4976,0 h 48.45286 v 79.95051 h -79.95046 v -48.45289 h 31.4976 z M 137.4308,279.16308 h 16.47852 v 31.4976 h 31.4976 v 16.95529 H 137.4308 Z m 23.62205,0 h 24.35407 v 24.35409 h -24.35407 z m 31.4976,0 h 24.35403 v 24.35409 h -24.35403 z m 31.49295,0 h 16.48313 v 48.45289 h -47.97608 v -16.95529 h 31.49295 z" /></pattern><pattern
       patternUnits="userSpaceOnUse"
       preserveAspectRatio="xMidYMid"
       width="377.9492"
       height="377.95404"
       patternTransform="translate(1179.9665,34.884847) scale(0.2)"
       id="ap103"><path
         id="path85"
         style="color:#000000;fill:#f32500;stroke:none;stroke-width:2.87882;paint-order:markers fill stroke"
         d="M 155.35019,0 148.4459,0.03023622 148.57251,32.611691 H 32.360239 V 36.064554 148.57251 L 0.03023622,148.4459 0,155.35612 l 32.359786,0.12661 v 66.99421 l -32.35827419,0.12661 0.02645669,6.91023 32.3300035,-0.12926 V 346.08918 H 148.56722 l -0.12359,31.83462 6.90429,0.0302 0.12661,-31.86436 h 66.99719 l 0.12359,31.86285 6.91023,-0.0265 -0.12359,-31.83462 H 345.83369 V 229.38826 l 32.08906,0.12812 0.0265,-6.91022 -32.11729,-0.12661 v -66.99568 l 32.11729,-0.1251 -0.0302,-6.91023 -32.08755,0.1251 V 32.614299 H 229.37669 L 229.50293,0.03137008 222.59271,0.00491339 222.46647,32.616113 H 155.47521 Z M 39.270312,39.521424 H 148.59912 l 0.0937,23.96039 c 0.0416,10.547377 -4.0845,19.376958 -11.1501,25.199622 -7.06564,5.822703 -17.18298,8.726665 -29.63731,6.71384 C 96.595162,93.56742 91.649424,87.98623 89.284271,81.918501 86.919156,75.850772 87.765279,68.855622 88.867691,66.360454 c 4.41687,-9.996775 18.373189,-12.932297 26.443349,-4.486829 4.53971,4.750866 4.61405,9.261997 3.75636,13.134652 -0.85772,3.872693 -2.80577,6.578495 -2.80577,6.578495 l 5.5773,4.076182 c 0,0 2.77984,-3.763011 3.97504,-9.159571 1.1952,-5.396599 0.65004,-12.956826 -5.51032,-19.403641 -11.3794,-11.908687 -31.369174,-7.989052 -37.755556,6.465373 -1.955867,4.426847 -2.674318,11.293531 -0.528113,18.454564 -3.181342,-0.952592 -6.305461,-1.340788 -9.181909,-1.306167 h -0.0015 c -3.598715,0.04346 -6.811011,0.745814 -9.271143,1.832768 -14.454463,6.386381 -18.374135,26.38363 -6.465411,37.76304 6.446816,6.16036 14.00708,6.69955 19.403641,5.50435 5.396561,-1.19524 9.159572,-3.96911 9.159572,-3.96911 l -4.076183,-5.57877 c 0,0 -2.705802,1.94804 -6.578494,2.80577 -3.872656,0.85773 -8.383786,0.77892 -13.134615,-3.76082 -8.445505,-8.07012 -5.515956,-22.026482 4.480857,-26.443351 2.495169,-1.102413 9.496252,-1.950085 15.563981,0.415068 6.067729,2.365115 11.642986,7.318337 13.470841,18.628573 2.012825,12.45437 -0.885203,22.56582 -6.707905,29.63142 -5.822665,7.0656 -14.652246,11.19145 -25.199622,11.15006 l -24.211805,-0.0937 z m 116.237518,0 h 66.93623 l -0.0937,23.936579 c -0.0302,7.714885 1.89445,14.882079 5.45379,20.927055 -12.06342,-4.454967 -25.10147,-6.890872 -38.70471,-6.890872 -13.72222,0 -26.86836,2.480315 -39.02007,7.00989 3.6039,-6.069582 5.55417,-13.281033 5.52374,-21.046073 z m 73.84645,0 H 338.92554 V 148.5973 l -24.4543,0.0953 c -10.54733,0.0416 -19.37692,-4.08446 -25.19962,-11.15006 -5.82266,-7.0656 -8.72666,-17.17705 -6.71384,-29.63142 1.82786,-11.310239 7.40905,-16.263461 13.47682,-18.628576 6.06772,-2.365152 13.06284,-1.51748 15.558,-0.415067 9.99678,4.416869 12.9323,18.373233 4.48683,26.443353 -4.75083,4.5397 -9.26196,4.61854 -13.13465,3.76082 -3.87265,-0.85773 -6.57846,-2.80577 -6.57846,-2.80577 l -4.07622,5.57877 c 0,0 3.76305,2.77387 9.15958,3.96911 5.39659,1.1952 12.95682,0.65597 19.40367,-5.50436 11.90865,-11.3794 7.98906,-31.376651 -6.46541,-37.763032 -2.46013,-1.086954 -5.67243,-1.789115 -9.27118,-1.832768 h -10e-4 c -2.87607,-0.03402 -5.99955,0.353763 -9.18044,1.306167 2.14666,-7.161487 1.42787,-14.027452 -0.52811,-18.454564 -6.38635,-14.454463 -26.37763,-18.37561 -37.75707,-6.466885 -6.16032,6.446853 -6.70552,14.007118 -5.51032,19.403678 1.1952,5.396523 3.97504,9.159534 3.97504,9.159534 l 5.5773,-4.076182 c 0,0 -1.9525,-2.705802 -2.81023,-6.578457 -0.85765,-3.872693 -0.77885,-8.383861 3.76086,-13.134652 8.07016,-8.445506 22.02644,-5.510022 26.44331,4.486828 1.10245,2.495169 1.95005,9.490318 -0.41507,15.558048 -2.36511,6.067729 -7.3124,11.650393 -18.62264,13.478248 -12.45433,2.012863 -22.57171,-0.891137 -29.63735,-6.713839 -7.06564,-5.822665 -11.19141,-14.653757 -11.15006,-25.201096 z m -43.70774,44.939527 v 40.381269 h -24.1999 v -18.29091 l -4.73378,1.89532 c -9.93426,3.97326 -18.83369,9.65378 -26.43886,16.6083 L 117.66452,112.44548 C 135.60824,95.770545 159.4012,85.307943 185.64654,84.460951 Z m 6.90425,0 c 26.24598,0.846728 50.03951,11.30914 67.98353,27.984529 l -12.57377,12.57377 c -7.61325,-6.96915 -16.525,-12.6604 -26.47457,-16.6396 l -4.73374,-1.89528 v 5.09972 13.25813 h -24.20145 z m -91.8085,16.282509 c 1.87101,0.62101 3.88796,1.12142 6.06225,1.4728 3.95319,0.6389 7.76704,0.83883 11.40147,0.63822 -5.59465,4.59197 -10.73802,9.71387 -15.34976,15.29174 0.1954,-3.61471 -0.008,-7.40739 -0.64119,-11.33753 -0.3515,-2.17549 -0.85131,-4.19312 -1.47277,-6.06523 z m 176.46882,0 c -0.6215,1.87211 -1.12123,3.88974 -1.4728,6.06523 -0.6175,3.82069 -0.82303,7.51042 -0.65458,11.03403 -4.54258,-5.45484 -9.59199,-10.47281 -15.07903,-14.97785 3.55737,0.17764 7.28523,-0.0265 11.14564,-0.65012 2.17383,-0.35149 4.19006,-0.85047 6.06077,-1.47129 z m -53.55462,16.37329 c 14.2523,6.81834 25.92378,17.50261 33.91586,30.4868 h -65.02156 v -15.85111 h 31.1057 z m -69.12007,0.0684 v 14.56724 h 31.11012 v 15.85111 h -64.98138 c 7.99037,-12.95338 19.64583,-23.61127 33.87126,-30.41835 z m -41.7797,0.12661 12.60352,12.60352 c -14.7538,15.81211 -23.45409,36.90145 -23.47393,59.43088 v 0.008 c 0.0189,22.24301 8.49196,43.09103 22.90564,58.83583 l -12.59758,12.59758 c -17.401664,-18.72775 -28.042584,-43.8251 -28.042584,-71.43341 0,-27.90516 10.869505,-53.24897 28.604934,-72.04037 z m 152.68392,0 c 17.7354,18.7914 28.60642,44.13521 28.60642,72.04037 0,18.78909 -4.93221,36.41374 -13.56458,51.66229 -0.1319,0.22828 -0.2623,0.45838 -0.38978,0.69025 -3.97232,6.89465 -8.70951,13.29067 -14.0897,19.08087 l -12.59611,-12.59611 c 14.41569,-15.74483 22.89184,-36.59372 22.91161,-58.8373 -0.002,-22.53899 -8.6948,-43.64478 -23.44717,-59.47106 z M 84.305046,150.19223 c -4.562873,12.19071 -7.063484,25.38482 -7.063484,39.15991 0,13.41774 2.369651,26.28567 6.709418,38.21076 -5.953966,-3.40014 -12.963969,-5.23786 -20.497134,-5.2083 l -24.183534,0.0952 v -66.94065 l 24.18206,0.0937 c 7.68291,0.0302 14.823458,-1.87952 20.852674,-5.41062 z m 209.655724,0.17839 c 5.96307,3.41575 12.9891,5.26175 20.54022,5.23211 l 24.42455,-0.0952 v 66.94216 l -24.42455,-0.0952 c -7.40417,-0.0302 -14.30464,1.74364 -20.19213,5.03278 4.29933,-11.87596 6.64842,-24.68311 6.64842,-38.03524 0,-13.70763 -2.47616,-26.84054 -6.99651,-38.98141 z m -176.49113,2.91137 h 68.1769 v 16.72736 h -74.45189 c 1.46543,-5.83125 3.57932,-11.43678 6.27499,-16.72736 z m 75.08115,0 h 68.21118 c 2.68989,5.2913 4.79848,10.89664 6.25859,16.72736 h -74.46977 z m -82.62066,22.76134 h 28.68824 v 26.22315 h -28.7537 c -0.69683,-4.22313 -1.07025,-8.53859 -1.07411,-12.92043 0.004,-4.51449 0.40041,-8.95793 1.13957,-13.30272 z m 40.60293,0 h 35.11348 v 26.22315 h -35.11348 z m 42.01773,0 h 36.60412 v 26.22315 h -36.60412 z m 48.51889,0 h 27.20946 c 0.73546,4.34483 1.12842,8.78876 1.12914,13.30272 -0.004,4.3821 -0.37856,8.69715 -1.07558,12.92043 h -27.26302 z m -129.96873,32.25713 h 74.54559 v 16.72736 h -68.37921 c -2.6603,-5.29357 -4.73333,-10.90024 -6.16638,-16.72736 z m 81.44984,0 h 74.54566 c -1.43319,5.82663 -3.50479,11.43432 -6.1649,16.72736 H 192.55079 Z M 63.482117,229.26025 c 10.547376,-0.0416 19.378431,4.08294 25.201133,11.14858 5.822665,7.0656 8.720693,17.18298 6.707906,29.63736 -1.827893,11.31019 -7.404624,16.25748 -13.472353,18.6226 -6.067729,2.36511 -13.068812,1.51903 -15.563981,0.41658 -9.996775,-4.41683 -12.926362,-18.36873 -4.480857,-26.43889 4.750829,-4.53971 9.261959,-4.61851 13.134615,-3.76082 3.872692,0.85772 6.578494,2.80577 6.578494,2.80577 l 4.076183,-5.5773 c 0,0 -3.763011,-2.78132 -9.159572,-3.97652 -5.396561,-1.19524 -12.956825,-0.65004 -19.403641,5.51029 -11.908724,11.37944 -7.987578,31.37072 6.466885,37.75706 4.42681,1.95583 11.292095,2.67428 18.453052,0.52812 -2.146167,7.16095 -1.427754,14.02771 0.528113,18.45456 6.386382,14.45446 26.376156,18.3741 37.755556,6.46537 6.16036,-6.44681 6.70552,-14.00114 5.51032,-19.3977 -1.1952,-5.39653 -3.97504,-9.16551 -3.97504,-9.16551 l -5.5773,4.07618 c 0,0 1.94805,2.70581 2.80577,6.5785 0.85769,3.87265 0.78331,8.38378 -3.75636,13.13465 -8.07016,8.44547 -22.026479,5.51592 -26.443349,-4.48089 -1.102412,-2.49521 -1.948535,-9.49028 0.41658,-15.55805 2.365153,-6.06773 7.312403,-11.64892 18.622599,-13.47678 12.45442,-2.01282 22.57024,0.88521 29.63588,6.70791 7.0656,5.82266 11.19149,14.65225 11.1501,25.19962 l -0.0968,24.70723 H 39.270236 V 229.35693 Z m 250.990603,0 24.45282,0.0983 V 339.17828 H 229.35723 l -0.0968,-24.70722 c -0.0416,-10.54738 4.08446,-19.37844 11.15006,-25.2011 0.81385,-0.67072 1.66953,-1.3008 2.56324,-1.89086 1.12433,-0.61969 2.23502,-1.25926 3.3354,-1.91611 6.40365,-3.16305 14.4167,-4.40749 23.73872,-2.90094 11.31027,1.82786 16.25752,7.41052 18.62264,13.47825 2.36511,6.06777 1.51751,13.06284 0.41506,15.55805 -4.41687,9.99681 -18.37319,12.92636 -26.44331,4.48089 -4.5397,-4.7509 -4.61851,-9.26199 -3.76086,-13.13465 0.85773,-3.87269 2.81023,-6.57849 2.81023,-6.57849 l -5.57729,-4.07619 c 0,0 -2.77985,3.76748 -3.97505,9.16404 -1.1952,5.39656 -0.65,12.95236 5.51033,19.39918 11.3794,11.90876 31.36925,7.98758 37.75559,-6.46689 1.95571,-4.42654 2.67522,-11.29258 0.52959,-18.45305 7.16054,2.14575 14.02647,1.42764 18.45305,-0.52811 14.45446,-6.38635 18.37557,-26.37763 6.46688,-37.75707 -6.44689,-6.16032 -14.00855,-6.70401 -19.40515,-5.50881 -5.39652,1.19524 -9.15806,3.97504 -9.15806,3.97504 l 4.07618,5.5773 c 0,0 2.70584,-1.94804 6.57846,-2.80577 3.87269,-0.85769 8.38382,-0.77888 13.13465,3.76082 8.44547,8.07016 5.50995,22.02206 -4.48679,26.43889 -2.49521,1.10245 -9.49032,1.94854 -15.55808,-0.41658 -6.0677,-2.36511 -11.6504,-7.3124 -13.47825,-18.6226 -2.01283,-12.45438 0.89117,-22.57176 6.71384,-29.63736 5.8227,-7.06563 14.65379,-11.18993 25.20109,-11.14858 z m -194.04707,1.44597 h 65.22089 v 16.06983 h -31.11012 v 14.74277 c -14.36875,-6.87534 -26.11499,-17.68105 -34.11077,-30.8126 z m 72.12514,0 h 65.22244 c -7.99669,13.13208 -19.74592,23.93764 -34.11674,30.8126 v -14.74277 h -31.1057 z m -62.89266,22.38349 c 7.73733,7.21278 16.85352,13.08616 27.05473,17.1662 l 4.73378,1.89532 v -18.46496 h 24.1999 v 40.55086 c -26.54045,-0.85641 -50.57556,-11.54344 -68.5875,-28.54538 z m 118.88111,0.003 12.59909,12.59905 c -5.44876,5.14322 -11.44724,9.70984 -17.90113,13.60029 -1.44491,0.71082 -2.8289,1.50501 -4.14765,2.37729 -13.91014,7.54193 -29.72262,12.02536 -46.53876,12.5678 v -40.55086 h 24.20145 v 18.46496 l 4.73374,-1.89532 c 10.20008,-4.07936 19.31588,-9.95183 27.05326,-17.16321 z m -145.64875,7.50527 c 4.34219,5.24678 9.15754,10.08711 14.37385,14.46463 -0.0835,-0.003 -0.1663,-0.008 -0.24983,-0.0113 v -0.002 c -3.27352,-0.10053 -6.68636,0.12246 -10.2099,0.69181 -2.17376,0.35149 -4.19017,0.85077 -6.06077,1.47129 0.62146,-1.87185 1.12119,-3.88974 1.4728,-6.06523 0.58931,-3.64649 0.8019,-7.17313 0.67393,-10.55056 z m 172.15903,0.3035 c -0.10393,3.28467 0.11717,6.71013 0.68879,10.24705 0.35149,2.17497 0.85152,4.19225 1.4728,6.06373 -1.87071,-0.62053 -3.88694,-1.11848 -6.06077,-1.46979 -3.52086,-0.56904 -6.93268,-0.79207 -10.20393,-0.6918 5.10958,-4.28924 9.8313,-9.02449 14.10311,-14.14919 z m -124.42121,33.50528 c 11.99773,4.39998 24.95611,6.80311 38.47109,6.80311 13.4027,0 26.25683,-2.36556 38.17062,-6.696 -3.2163,5.8424 -4.94842,12.66686 -4.9197,19.98535 l 0.0968,24.67896 H 155.505 l 0.0983,-24.67748 c 0.0302,-7.36271 -1.72097,-14.22819 -4.97477,-20.09394 z" /></pattern><pattern
       patternUnits="userSpaceOnUse"
       preserveAspectRatio="xMidYMid"
       width="377.87529"
       height="377.95346"
       patternTransform="translate(20.71708,452.25957) scale(0.2)"
       id="ap105"><path
         id="path228"
         style="color:#000000;fill:#f32500;stroke-width:4.21429;paint-order:markers fill stroke"
         d="M 18.012514,0.00328819 V 18.017953 H 0 v 9.608428 H 13.267106 L 0.00435402,40.889121 1.96535e-4,40.885321 V 55.186885 L 0.00435402,55.190665 27.573022,27.621997 h 0.04573 v -0.04347 L 55.187418,0.00986457 55.180615,0.00230551 H 40.868164 L 40.879124,0.01364409 27.618542,13.274192 V 0.00275906 Z m 67.818618,0 L 0,85.836574 V 292.10611 l 85.831132,85.83118 -0.01512,0.0151 H 292.00933 l -0.0197,-0.0227 85.8834,-85.88338 0.002,0.002 V 85.887749 l -0.002,0.0021 L 291.98318,0 Z m 236.860998,0 -0.007,0.00755905 27.56649,27.56647576 v 0.04611 h 0.0457 l 27.56867,27.568668 0.009,-0.0076 V 40.883036 l -0.009,0.0076 -13.26275,-13.26274 h 13.27147 v -9.60839 H 359.86677 V 0.0047622 h -9.61495 V 13.276195 l -13.2604,-13.26058555 0.011,-0.01133858 z M 95.071502,5.0731465 H 282.74272 L 372.814,95.144455 V 282.80042 l -90.07347,90.07566 H 95.07586 L 5.0023861,282.80257 V 95.142263 Z M 188.9082,22.26686 c -92.009795,0 -166.703434,74.693658 -166.703434,166.70342 0,92.0098 74.693639,166.71213 166.703434,166.71213 92.00979,0 166.70996,-74.70233 166.70996,-166.71213 0,-92.009762 -74.70017,-166.70342 -166.70996,-166.70342 z m 0,10.11583 c 86.54364,0 156.59412,70.04393 156.59412,156.58759 0,86.54366 -70.05048,156.59626 -156.59412,156.59626 -86.54365,0 -156.596305,-70.0526 -156.596305,-156.59626 0,-86.54366 70.052655,-156.58759 156.596305,-156.58759 z m 0,24.49576 c -72.89434,0 -132.091791,59.19748 -132.091791,132.09183 0,72.89435 59.197451,132.1005 132.091791,132.1005 72.89433,0 132.09832,-59.20615 132.09832,-132.1005 0,-72.89435 -59.20399,-132.09183 -132.09832,-132.09183 z m -5.05465,10.224745 v 0.0038 243.729755 C 125.37912,308.45933 77.591248,265.03082 68.493729,208.55515 h 87.653941 l -0.074,67.38743 C 134.78182,267.87979 117.29799,252.87434 106.187,233.51266 h 25.47362 v 13.95091 h 10.11586 V 223.39679 H 89.378751 l 3.316774,7.178 c 12.795735,27.68716 37.163225,48.88097 66.975815,57.7725 l 6.49417,1.93383 0.11543,-91.8418 H 67.285062 c -0.239546,-3.1262 -0.361512,-6.28528 -0.361512,-9.47342 0,-4.13775 0.208517,-8.2255 0.609782,-12.25663 h 98.747618 l -0.11543,-91.841804 -6.49417,1.936025 c -29.8126,8.891528 -54.18008,30.085379 -66.975821,57.772499 l -3.316778,7.17796 h 52.397689 v -24.06674 h -10.11585 v 13.95091 h -25.4671 c 11.11125,-19.35813 28.59097,-34.36165 49.88015,-42.423379 l 0.074,67.378699 H 68.972859 C 79.167791,111.48071 126.34323,69.441664 183.85356,67.103195 Z m 10.10713,0.0038 c 57.51126,2.337563 104.6856,44.376865 114.8807,99.490275 h -88.19405 l 0.0827,-67.37869 c 21.28811,8.062 38.76061,23.06589 49.87143,42.42331 h -25.46708 v -13.95085 h -10.11584 v 24.06679 h 52.39767 l -3.31678,-7.17804 c -12.79573,-27.6906 -37.1632,-48.885166 -66.9758,-57.776694 l -6.49418,-1.936025 -0.11543,91.841799 h 99.769 c 0.40124,4.03113 0.60761,8.11892 0.60761,12.25663 0,3.18815 -0.122,6.34723 -0.36151,9.47343 H 210.51407 l 0.11543,91.8418 6.49417,-1.93384 c 29.8126,-8.89152 54.18007,-30.08534 66.97581,-57.77249 l 3.31677,-7.17801 h -52.39767 v 24.06679 h 10.11585 v -13.95092 h 25.47364 c -11.11059,19.36097 -28.58718,34.36694 -49.87798,42.42992 l -0.0827,-67.38742 h 88.67534 c -9.09758,56.47642 -56.8866,99.90515 -115.362,102.28214 z m 183.91234,255.648755 -3.57376,3.57377 -23.99272,23.99274 h -0.0544 v 0.0544 l -27.56213,27.55997 0.0151,0.0151 h 14.30374 l -0.0132,-0.0113 13.25622,-13.2562 v 13.26924 h 9.61494 V 359.9323 h 18.00817 v -9.60624 h -13.26275 l 13.26056,-13.26058 0.002,0.002 V 322.75966 Z M 0,322.75951 v 14.30593 l 13.271463,13.25631 -13.271417645669,0.002 v 9.60839 L 18.012518,359.93014 v 18.02121 h 9.60624 v -13.28013 l 13.267105,13.26709 -0.01323,0.0113 H 55.16766 l 0.01965,-0.0227 z"
         sodipodi:nodetypes="ccccccccccccccccccccccccccccccccccccccccccccccccccccccccccccssssssssssssssscccccccccccccccccsccccccccccccccscccccccccccsccccscccccccccccccccccccccccccccccccccccccccccccccccccc" /></pattern><pattern
       patternUnits="userSpaceOnUse"
       preserveAspectRatio="xMidYMid"
       width="377.99567"
       height="377.95277"
       patternTransform="translate(438.46102,452.25992) scale(0.2)"
       id="ap106"><path
         id="rect102"
         style="color:#000000;opacity:1;fill:#f32500;fill-opacity:1;stroke-width:2.44802;paint-order:markers fill stroke"
         d="M 73.570277,0 V 54.467981 H 54.469274 v 2.941266 16.161011 H 0 V 79.44644 H 54.469274 V 93.225351 H 0 v 5.876182 H 54.469274 V 113.50286 H 0 v 5.87618 h 54.469274 v 72.53794 h 0.04808 v 66.65677 H 0.04807181 v 5.87618 H 54.517346 v 14.40132 H 0.04807181 v 5.87619 H 54.517346 v 13.77891 H 0.04807181 v 5.87614 H 54.517346 v 16.16103 2.94127 h 19.100987 v 54.46798 h 5.876156 v -54.46798 h 14.416525 v 54.46798 h 5.871091 v -54.46798 h 13.894065 v 54.46798 h 5.87614 v -54.46798 h 66.48346 5.92422 66.48344 v 54.46798 h 5.87619 v -54.46798 h 13.89403 v 54.46798 h 5.87108 v -54.46798 h 14.41652 v 54.46798 h 5.87618 v -54.46798 h 19.10098 v -2.94127 -16.16103 h 54.4693 v -5.87614 h -54.4693 v -13.77891 h 54.4693 v -5.87619 h -54.4693 v -14.40132 h 54.4693 v -5.87618 h -54.4693 v -66.65677 h 0.048 v -72.53794 h 54.46926 v -5.87618 H 323.52641 V 99.101533 h 54.46926 V 93.225351 H 323.52641 V 79.44644 h 54.46926 V 73.570258 H 323.52641 V 57.409247 54.467981 H 304.42543 V 0 h -5.87618 V 54.467981 H 284.13273 V 0 h -5.87108 V 54.467981 H 264.36758 V 0 h -5.87615 V 54.467981 H 191.91184 119.50416 V 0 h -5.87614 V 54.467981 H 99.733973 V 0 H 93.862859 V 54.467981 H 79.446361 V 0 Z M 60.34543,60.345411 H 73.570277 V 73.570258 H 60.34543 Z m 19.101007,0 H 93.862934 V 73.570258 H 79.446437 Z m 20.287612,0 H 113.62809 V 73.570258 H 99.734049 Z m 19.770191,0 h 66.53153 V 93.369577 H 160.24643 V 73.570258 h -40.74219 z m 72.45575,0 h 66.53152 V 73.570258 H 217.7493 v 19.799319 h -25.78931 z m 72.40766,0 h 13.89408 v 13.224847 h -13.89408 z m 19.76516,0 h 14.41651 v 13.224847 h -14.41651 z m 20.2927,0 h 13.22483 V 73.570258 H 304.42551 Z M 60.34543,79.44644 H 73.570277 V 93.225351 H 60.34543 Z m 19.101007,0 H 93.862934 V 93.225351 H 79.446437 Z m 20.287612,0 H 113.62809 V 93.225351 H 99.734052 Z m 19.770191,0 h 34.86608 v 31.7376 h -43.13697 v 2.93616 40.24884 H 79.446437 v -34.99 h 20.287612 v -2.93496 -17.342547 h 19.770191 v -2.934916 z m 104.1212,0 h 34.86607 v 16.720177 2.934916 h 19.77022 v 17.342547 2.93496 h 20.28759 v 34.99 H 266.7624 v -40.24884 -2.93616 h -43.13696 z m 40.74221,0 h 13.89408 v 13.778911 h -13.89408 z m 19.76516,0 h 14.41651 v 13.778911 h -14.41651 z m 20.2927,0 h 13.22483 V 93.225351 H 304.42551 Z M 60.34543,99.101533 H 73.570277 V 113.50286 H 60.34543 Z m 19.101007,0 H 93.862934 V 113.50286 H 79.446437 Z m 204.686373,0 h 14.41651 v 14.401327 h -14.41651 z m 20.2927,0 h 13.22483 v 14.401327 h -13.22483 z m -144.17908,0.144378 h 25.78934 v 11.938319 h -25.78934 z m 31.71356,0 h 25.78931 v 11.938319 h -25.78931 z m -74.8505,17.814459 h 37.26083 v 37.30885 h -37.26083 z m 43.13694,0 h 25.78934 v 68.97559 h -68.92628 v -25.79059 h 43.13694 z m 31.71356,0 h 25.78931 v 43.185 h 43.13696 v 25.79059 h -68.92627 z m 31.66545,0 h 37.26082 v 37.30885 h -37.26082 z m -163.28001,2.31886 h 13.224847 v 40.86614 h 20.292657 v 25.79059 H 60.34543 Z m 244.08008,0 h 13.22483 v 66.65673 h -33.51753 v -25.79059 h 20.2927 z M 99.734052,160.24537 h 11.499298 v 25.79059 H 99.734052 Z m 167.028348,0 h 11.49933 v 25.79059 H 266.7624 Z m -206.368894,31.6718 h 33.517511 v 25.79062 H 73.618333 v 40.86615 H 60.393506 Z m 39.388603,0 h 11.499321 v 25.79062 H 99.782109 Z m 17.375461,0 h 68.83013 v 68.97562 h -25.69319 v -43.185 h -43.13694 z m 74.8505,0 h 68.83011 v 25.79062 h -43.13696 v 43.185 h -25.69315 z m 74.70625,0 h 11.49933 v 25.79062 h -11.49933 z m 17.37041,0 h 33.51753 v 66.65677 h -13.22483 v -40.86615 h -20.2927 z M 79.494493,223.58394 h 31.786937 v 40.24883 2.93616 h 43.13697 v 31.7376 h -34.86608 v -16.72017 -2.93492 H 99.782109 v -17.34259 -2.93491 h -20.28762 z m 37.663077,0 h 37.26083 v 37.30885 h -37.26083 z m 106.41983,0 h 37.26078 v 37.30885 H 223.5774 Z m 43.13692,0 h 31.78693 v 34.99 h -20.2876 v 2.93491 17.34259 h -19.77022 v 2.93492 16.72017 H 223.5774 v -31.7376 h 43.13692 v -2.93616 z M 60.393506,264.45012 h 13.224827 v 14.40132 H 60.393506 Z m 19.100983,0 h 14.416528 v 14.40132 H 79.494489 Z m 204.590241,0 h 14.41652 v 14.40132 h -14.41652 z m 20.2927,0 h 13.22483 v 14.40132 h -13.22483 z m -144.08292,2.31881 h 25.69319 0.048 v 11.93832 h -25.74127 z m 31.66548,0 h 0.048 25.69316 v 11.93832 h -25.74123 z m -31.66548,17.81447 h 25.74126 v 33.02415 h -66.48345 v -13.22487 h 40.74219 z m 31.66548,0 h 25.74123 v 19.79928 h 40.74221 v 13.22487 h -66.48344 z m -131.566484,0.14438 h 13.224831 v 13.77891 H 60.393506 Z m 19.100987,0 h 14.416524 v 13.77891 H 79.494493 Z m 20.287616,0 h 13.894061 v 13.77891 H 99.782109 Z m 164.537511,0 h 13.89403 v 13.77891 h -13.89403 z m 19.76511,0 h 14.41652 v 13.77891 h -14.41652 z m 20.2927,0 h 13.22483 v 13.77891 H 304.37743 Z M 60.393506,304.38283 H 73.618337 V 317.6077 H 60.393506 Z m 19.100987,0 H 93.911017 V 317.6077 H 79.494493 Z m 20.287616,0 H 113.67617 V 317.6077 H 99.782109 Z m 164.537511,0 h 13.89403 v 13.22487 h -13.89403 z m 19.76511,0 h 14.41652 v 13.22487 h -14.41652 z m 20.2927,0 h 13.22483 v 13.22487 h -13.22483 z" /></pattern><pattern
       patternUnits="userSpaceOnUse"
       preserveAspectRatio="xMidYMid"
       width="265.55448"
       height="209.71514"
       patternTransform="translate(848.4236,536.37873) scale(0.2)"
       id="ap107"><path
         id="path6935"
         style="font-variation-settings:normal;opacity:1;mix-blend-mode:normal;fill:#f32500;fill-opacity:1;stroke:none;stroke-width:8.38594;stroke-linecap:butt;stroke-linejoin:miter;stroke-miterlimit:4;stroke-dasharray:none;stroke-dashoffset:0;stroke-opacity:1;paint-order:markers fill stroke;stop-color:#000000;stop-opacity:1"
         d="m 256.64889,0.00831496 -20.12413,0.00755906 c 3.60809,3.03155908 7.00003,6.48514018 10.25821,10.30707398 6.67181,7.827137 12.72529,17.189216 18.75129,27.054803 V 23.902413 c -4.18987,-6.459175 -8.5697,-12.629745 -13.32816,-18.2121453 -1.30216,-1.5274583 -2.64749,-3.0011716 -4.01995,-4.4366362 1.84396,0.7162583 3.56565,1.2662173 5.15358,1.6791307 4.01866,1.2058583 9.15553,1.3626331 12.19453,1.4461228 V 0.68375433 C 262.56011,0.54013228 259.34653,0.26040945 256.64889,0.01020472 Z M 8.8666205,0.01587402 C 5.854148,0.60287244 2.6793449,0.61708346 0.00566929,0.68348976 V 4.3786583 c 3.71708981,0 8.73800311,-0.5691969 12.17000271,-1.4461229 0.0018,-4.913e-4 0.0038,4.536e-4 0.0076,0 0.80281,-0.2086299 1.641638,-0.4565291 2.512404,-0.7411275 0.0018,-6.048e-4 0.0038,5.669e-4 0.0076,0 0.869253,-0.2834646 1.769839,-0.6048 2.702362,-0.9688441 -0.383017,0.4019905 -0.762482,0.8099149 -1.139565,1.2195023 -0.01134,0.011339 -0.02268,0.034016 -0.04762,0.059339 -0.323906,0.3511181 -0.647471,0.7031811 -0.967635,1.0601197 -0.139843,0.1553386 -0.277417,0.3155906 -0.41624,0.4719496 -0.506343,0.5704063 -1.010305,1.1443276 -1.507502,1.728 C 13.035213,6.1031433 12.745965,6.4456819 12.456605,6.7907528 8.0302488,12.079786 3.9315024,17.84383 0.0047622,23.906003 c -0.01133858,-0.01134 0.01133859,0.02268 0,0.01134 v 13.420082 c 3.9675213,6.497461 7.9368189,13.226305 12.0842458,19.952541 0.04762,0.07106 0.08315,0.143622 0.122079,0.214678 0.196913,0.317858 0.396056,0.613077 0.594104,0.924926 0.329574,0.520592 0.665234,1.03404 0.998475,1.538154 0.372284,0.564434 0.74468,1.121764 1.121764,1.666771 0.09487,0.139843 0.196913,0.277418 0.294047,0.41624 10.377147,14.839975 22.198262,22.421896 31.938747,26.135546 13.069795,4.252611 26.21537,4.799509 39.469908,0 10.695534,-4.077203 23.928488,-12.788145 34.971968,-30.682469 10.49953,-17.012069 19.80181,-34.141039 30.91536,-47.178822 3.25781,-3.8215559 6.64963,-7.2757418 10.2581,-10.30707404 h -17.4155 c 0.034,0.0075591 0.0711,0.01133858 0.10658,0.02267717 0.0227,0.0037795 0.034,0.01133858 0.0593,0.01133858 0.41741,0.0831496 0.82772,0.16365354 1.23791,0.25133858 0.84786,0.18028347 1.68302,0.37455118 2.50012,0.58817008 0.587,0.15307083 1.16213,0.32012603 1.7342,0.48975123 -1.33108,1.3944944 -2.62734,2.8315086 -3.89114,4.3141417 -5.14091,6.0309547 -9.81071,12.7518617 -14.3088,19.7808377 -2.14987,-3.359206 -4.3429,-6.648567 -6.60586,-9.82303 v -0.0076 c -1.28402,-1.800907 -2.59151,-3.560655 -3.92806,-5.28223 v -0.0076 c -0.2657,-0.342803 -0.5348,-0.6842455 -0.80277,-1.0233826 l -0.008,-0.00756 C 121.18357,8.9857448 120.91315,8.6429038 120.6428,8.3073196 h -0.008 c -0.27024,-0.3356221 -0.54191,-0.6676158 -0.81468,-0.9984378 l -0.008,-0.00756 C 119.5406,6.9691843 119.26802,6.6361323 118.99291,6.308863 l -0.008,-0.00756 c -0.27629,-0.327307 -0.56088,-0.6510236 -0.83959,-0.9747779 l -0.008,-0.00756 c -0.27855,-0.3235275 -0.5585,-0.6498141 -0.83954,-0.9676346 l -0.008,-0.00756 c -0.89647,-1.0186204 -1.80578,-2.0153952 -2.73286,-2.9905134 1.78907,-0.52886925 3.66255,-0.97594956 5.60704,-1.34199681 h -17.40325 c 0.5941,0.49802835 1.18106,1.01030551 1.76474,1.53195591 8.96923,8.0071559 16.62455,18.7652028 24.07056,30.6457318 -1.22449,1.997972 -2.44838,4.005468 -3.66456,6.029896 -0.31785,-0.534803 -0.64747,-1.07554 -0.9688,-1.605467 -1.64141,-2.697147 -3.34912,-5.345349 -5.15361,-7.905071 v -0.0076 c -0.22526,-0.318993 -0.45177,-0.633222 -0.68066,-0.949833 v -0.0076 c -0.22753,-0.316724 -0.46129,-0.630878 -0.69252,-0.943937 v -0.0076 c -0.23018,-0.311811 -0.46485,-0.620182 -0.69842,-0.932069 l -0.008,-0.0076 c -0.0711,-0.09487 -0.14211,-0.188598 -0.21468,-0.282331 -0.16592,-0.216945 -0.32844,-0.434003 -0.49685,-0.649814 -0.23585,-0.30463 -0.47672,-0.610734 -0.71743,-0.913096 l -0.008,-0.0076 c -0.24189,-0.303496 -0.48382,-0.605972 -0.7293,-0.907162 v -0.0076 c -0.24416,-0.297449 -0.49448,-0.58817 -0.74113,-0.882255 -0.003,-0.0034 -0.003,-0.01134 -0.008,-0.01134 -0.24793,-0.294047 -0.50279,-0.585789 -0.7542,-0.876321 -0.003,-0.0034 -0.003,-0.01134 -0.008,-0.01134 -0.25134,-0.290645 -0.5099,-0.577474 -0.76604,-0.864453 -0.003,-0.0034 -0.003,-0.01134 -0.008,-0.01134 -0.25626,-0.286866 -0.51228,-0.569197 -0.77197,-0.851414 -0.003,-0.0034 -0.003,-0.01134 -0.008,-0.01134 -0.25739,-0.281196 -0.52177,-0.557329 -0.78501,-0.833612 -0.004,-0.0038 -0.0113,-0.01134 -0.0113,-0.02268 -0.53008,-0.559711 -1.0696,-1.106381 -1.61783,-1.648404 -0.004,-0.0038 -0.0113,-0.01134 -0.0113,-0.01134 -1.3815,-1.36441 -2.81964,-2.675112 -4.32635,-3.915704 -1.20102,-0.988989 -2.44838,-1.927899 -3.73796,-2.82497 -0.004,-0.0034 -0.004,-0.01134 -0.008,-0.01134 C 95.502085,6.4721008 89.158639,3.5236913 81.738217,1.7974677 81.303043,1.690885 80.869002,1.5960189 80.426835,1.5034205 h -0.0076 C 80.312693,1.4807433 80.197417,1.4557984 80.088567,1.4323654 79.754079,1.3613102 79.428057,1.2997039 79.090091,1.2365858 78.638324,1.1534362 78.184139,1.066885 77.723565,0.99091654 h -0.0076 c -0.915439,-0.1504252 -1.847622,-0.28346457 -2.79428,-0.3984378 h -0.0076 C 74.441046,0.53314016 73.961953,0.48589606 73.480517,0.43373858 71.063206,0.19184882 68.543811,0.06599055 65.918627,0.06599055 v 0.0075591 C 49.685896,0.07604409 37.556939,4.8555969 28.060384,12.347754 c -4.901253,3.8671 -9.091956,8.444485 -12.856365,13.413922 -0.420964,0.556157 -0.839547,1.113486 -1.250079,1.67913 -0.467225,0.641537 -0.93086,1.289953 -1.384932,1.942488 -0.240756,0.347339 -0.479055,0.697286 -0.71743,1.04829 -0.622564,0.914268 -1.237039,1.836737 -1.838362,2.769827 C 9.2922331,34.31966 8.5864063,35.45023 7.8929386,36.590173 6.6789165,34.57697 5.4599811,32.580057 4.2345827,30.597014 5.1701669,29.122318 6.1141039,27.667767 7.0595528,26.23389 c 0.022677,-0.03402 0.047622,-0.08315 0.08315,-0.122079 0.8561763,-1.297512 1.7173039,-2.571099 2.5859149,-3.829984 0.2014488,-0.29178 0.4043713,-0.581027 0.6071433,-0.870388 0.809915,-1.160919 1.627426,-2.302752 2.451212,-3.425461 0.21241,-0.288 0.424555,-0.572787 0.636813,-0.857348 0.726916,-0.977121 1.459842,-1.942148 2.199949,-2.886199 0.163654,-0.208629 0.32504,-0.423344 0.489714,-0.63084 0.589379,-0.742337 1.184655,-1.473525 1.783257,-2.193789 C 21.428787,7.1692346 25.130721,3.3200504 29.092422,0.00755906 H 17.896706 V 0 Z M 199.65929,0.06349606 v 0.0075591 0.007559 c -28.42076,0 -44.01933,14.78271484 -55.61087,32.65557184 -11.59155,17.873461 -19.64009,38.830639 -33.37267,52.179212 -1.17989,1.146709 -2.33019,2.216542 -3.46835,3.247862 -3.6271,1.585814 -7.12302,3.527017 -10.55838,5.833776 -8.006551,4.008454 -19.063181,8.211364 -30.253568,8.211364 -12.42909,0 -24.346847,-5.166879 -32.153159,-9.498217 C 31.662539,90.70817 28.982249,89.095559 26.196359,87.79355 25.187225,86.87452 24.16955,85.927521 23.126287,84.913398 21.277002,83.115817 19.535773,81.177487 17.917531,79.245165 v -0.05934 C 11.111735,70.835339 5.6537575,60.621846 0.01182992,50.310992 v 7.47617 C 4.0457953,65.130369 8.2090961,72.355578 13.094929,78.805871 c 0.02268,0.03402 0.04724,0.05934 0.07105,0.09487 0.303496,0.399609 0.609525,0.795704 0.918992,1.188775 0.801638,1.024554 1.643906,2.0496 2.518602,3.057789 0.429279,0.495647 0.868006,0.985398 1.311383,1.470765 0.09487,0.106583 0.193133,0.222992 0.294047,0.330709 -0.09487,-0.02268 -0.196914,-0.04724 -0.294047,-0.07106 -0.433999,-0.106582 -0.867964,-0.21581 -1.299019,-0.305763 C 13.202306,83.808302 9.6361701,83.355893 5.9104252,83.138079 3.923074,79.647496 1.9670929,76.15098 0.00309921,72.561222 v 7.427074 c 0.55381418,1.009134 1.11942049,1.992416 1.67905509,2.996561 -0.5549858,-0.0076 -1.11707713,-0.07106 -1.67905509,-0.08315 l 0.00755906,7.090054 c 1.90688503,2.26e-4 3.75964723,0.07106 5.55174803,0.232441 3.0260409,0.264567 5.8980657,0.743508 8.6343687,1.415508 0.634394,0.155339 1.26085,0.320126 1.881146,0.496857 0.620221,0.176882 1.231484,0.361701 1.838438,0.557367 7.838135,2.535647 14.564183,6.749102 20.712302,12.237466 8.772473,7.83103 16.282319,18.29654 23.574161,29.86745 -1.226872,1.99314 -2.453858,3.9961 -3.670602,6.01758 -5.456352,-9.07276 -11.59748,-17.61294 -19.670702,-24.26041 -5.840428,-4.809 -12.709531,-8.58618 -20.945197,-10.82185 -0.668787,-0.18141 -1.347099,-0.35338 -2.034406,-0.51462 -0.653367,-0.15307 -1.315313,-0.29518 -1.985537,-0.42928 -0.03402,-0.008 -0.07106,-0.0113 -0.106583,-0.0227 -0.05934,-0.0113 -0.118677,-0.0227 -0.171968,-0.034 -0.333355,-0.0593 -0.661682,-0.13644 -0.998476,-0.19578 -0.04724,-0.004 -0.08315,-0.003 -0.122079,-0.008 -3.8778704,-0.68776 -8.0251838,-1.06605 -12.49477751,-1.06605 v 3.54195 c 6.73394641,0.001 12.64384251,0.85379 17.91802251,2.38386 v -0.008 c 7.31879,2.11978 13.395212,5.55787 18.671773,9.9027 8.055156,6.63269 14.253581,15.45343 19.866671,24.97134 -1.625991,2.71434 -3.263131,5.43617 -4.908473,8.15618 -8.234948,-11.13558 -18.636775,-20.39709 -33.629971,-24.49946 -0.617802,-0.16857 -1.242142,-0.32731 -1.875137,-0.47789 -0.05934,-0.0113 -0.106583,-0.034 -0.158741,-0.0472 -0.04762,-0.0113 -0.106582,-0.0227 -0.15307,-0.034 -0.636775,-0.14815 -1.283301,-0.28686 -1.936441,-0.41624 -0.651024,-0.13039 -1.31127,-0.2502 -1.979377,-0.3617 -0.165921,-0.0227 -0.335622,-0.0472 -0.50279,-0.0832 -0.257386,-0.034 -0.512278,-0.0832 -0.771969,-0.12207 -0.03402,-0.002 -0.05934,-0.004 -0.09487,-0.008 -3.2803654,-0.47789 -6.747704,-0.74117 -10.44200317,-0.74117 v 3.56651 c 4.04318737,0 7.79119367,0.30955 11.28759717,0.88226 0.276283,0.0476 0.553776,0.0949 0.827716,0.14098 0.356788,0.0593 0.709115,0.12699 1.06012,0.19578 0.267968,0.0472 0.537184,0.10658 0.802809,0.15874 0.02268,0.004 0.03402,0.008 0.05934,0.0113 0.633222,0.13418 1.259339,0.27629 1.875137,0.42928 0.679483,0.16857 1.350198,0.34999 2.00999,0.53953 14.189216,4.0707 23.721449,13.07894 31.626142,24.15632 -0.300094,0.48975 -0.594104,0.98185 -0.895294,1.47065 -1.519522,2.46282 -3.076498,4.70748 -4.651049,6.78977 -8.360164,-8.51516 -18.934526,-14.89999 -33.2256,-17.02922 -0.178016,-0.0227 -0.329575,-0.0227 -0.502791,-0.0472 -3.2285099,-0.46012 -6.6372658,-0.71032 -10.2642516,-0.71032 v 3.53578 c 3.804737,5.7e-4 7.3435843,0.27402 10.6564156,0.7838 0.02268,0.004 0.05934,0.008 0.08315,0.0113 0.03402,0.008 0.08315,0.0113 0.118677,0.0227 2.473058,0.38895 4.820598,0.91305 7.053165,1.55648 v -0.0113 c 9.847559,2.83828 17.451288,8.06087 23.849877,14.70089 -3.004044,3.61451 -6.058015,6.61228 -9.081637,9.09385 -4.377563,-2.71529 -9.268158,-4.89237 -14.76824,-6.37917 v -0.0227 c -5.358384,-1.45619 -11.2968534,-2.259 -17.91185814,-2.25995 v 3.57869 c 3.34329444,6e-4 6.48718114,0.20976 9.44923464,0.60714 0.022677,0.002 0.034016,0.004 0.059339,0.008 0.8170205,0.10658 1.6182795,0.23584 2.4082765,0.37342 0.355654,0.0593 0.703219,0.13417 1.054224,0.20145 0.474331,0.0949 0.945071,0.18595 1.409461,0.288 0.432832,0.0949 0.862073,0.19691 1.286854,0.30009 0.342803,0.0831 0.679483,0.17424 1.017486,0.26306 0.41144,0.10658 0.827641,0.21354 1.231673,0.3307 4.319584,1.25001 8.209436,2.95567 11.753386,5.03717 -4.679849,3.36642 -9.208857,5.58236 -13.254766,7.04712 -0.0017,5.6e-4 -0.0038,-7.2e-4 -0.0076,0 -0.843137,0.30463 -1.656945,0.57154 -2.451212,0.81464 -0.123213,0.034 -0.245292,0.0711 -0.367748,0.10658 -0.658129,0.19578 -1.292561,0.36888 -1.911912,0.52649 -0.106583,0.0227 -0.206362,0.0593 -0.306142,0.0832 -0.257386,0.0593 -0.50279,0.11867 -0.754167,0.17197 -0.33789,0.0831 -0.673549,0.15307 -0.998475,0.22072 -0.3794646,0.0831 -0.7542047,0.14929 -1.1158677,0.21468 -0.034016,0.008 -0.071055,0.0227 -0.1065827,0.0227 -0.1065827,0.0227 -0.2169449,0.034 -0.3250393,0.0593 -0.4055434,0.0711 -0.8016,0.12926 -1.1822741,0.18369 -0.376063,0.0227 -0.7363653,0.0711 -1.0719874,0.14097 -0.00756,8.4e-4 -0.011338,0.004 -0.022677,0.008 -3.6028725,0.42101 -5.78468035,0.20296 -5.78468035,0.20296 l 0.0075591,7.08386 c 0,0 2.97358105,0.17537 7.46985825,-0.41031 0.495685,-0.0227 1.0221732,-0.0831 1.5870992,-0.17196 2.349733,-0.38778 5.072504,-1.0198 8.021519,-1.97927 0.275149,-0.0831 0.549052,-0.16856 0.827716,-0.26343 v -0.0113 c 0.310677,-0.10658 0.609525,-0.192 0.924926,-0.30614 10.845808,-3.92576 24.498784,-12.63269 35.854451,-31.03181 11.027338,-17.86726 20.768277,-35.87388 32.631155,-49.12747 11.862728,-13.253634 25.471259,-21.815398 45.444549,-21.815398 19.97295,0 33.57566,8.561764 45.43854,21.815398 11.86273,13.25359 21.58541,31.26021 32.61275,49.12747 11.35566,18.39912 25.02705,27.10567 35.87282,31.03181 10.19062,3.68901 17.68017,3.13606 18.83716,3.1313 v -7.07153 c 0,0 -9.32009,-0.24076 -16.42885,-2.75146 -4.05838,-1.43403 -8.57873,-3.67941 -13.26085,-7.04712 7.86936,-4.62308 17.44762,-7.40678 29.6897,-7.40867 v -3.57872 c -13.41071,0.002 -24.06164,3.29647 -32.70467,8.65878 -3.02335,-2.48122 -6.0777,-5.47982 -9.08148,-9.09384 9.82548,-10.19751 22.4928,-17.05712 41.78615,-17.06011 v -3.53575 c -19.94105,0.003 -33.67585,7.26104 -44.01067,17.78926 -1.5764,-2.08411 -3.13542,-4.33028 -4.65717,-6.79586 -0.30123,-0.48854 -0.59531,-0.98067 -0.8953,-1.47065 9.48775,-13.29286 21.32799,-23.61392 40.74452,-25.98852 1.31248,-0.15988 2.66102,-0.2812 4.0444,-0.36775 0.26079,-0.0113 0.52055,-0.034 0.78501,-0.0476 0.40671,-0.0227 0.81823,-0.034 1.23171,-0.0593 0.0227,-9.5e-4 0.0472,9.4e-4 0.0831,0 0.25133,-0.008 0.50517,-0.0227 0.7601,-0.0227 0.0113,-2.6e-4 0.0227,2.3e-4 0.034,0 0.29178,-0.008 0.58224,-0.0113 0.87632,-0.0113 0.0476,-7.1e-4 0.10659,6.1e-4 0.15874,0 0.24189,-0.002 0.48503,-0.008 0.7293,-0.008 v -0.008 h 0.10658 v -3.56648 c -0.034,-1.5e-4 -0.0711,0 -0.10658,0 -12.98763,0 -23.3286,3.09154 -31.8223,8.15618 h 0.17197 c -7.99684,4.77404 -14.36258,11.29652 -19.787,18.63511 -1.64666,-2.72265 -3.28153,-5.4497 -4.90851,-8.16854 5.61396,-9.5193 11.81023,-18.34363 19.86671,-24.97735 7.94147,-6.53899 17.68539,-11.03138 30.76823,-12.05366 0.89646,-0.0711 1.81088,-0.12208 2.73913,-0.15875 0.12322,-0.004 0.25021,-0.008 0.37342,-0.0113 0.72216,-0.0227 1.45761,-0.034 2.19995,-0.034 0.13266,-7.2e-4 0.26457,-0.008 0.39844,-0.008 h 0.10658 v -0.008 -3.54194 c -3.09158,0.002 -6.34915,0.25738 -9.00196,0.52652 -11.34206,1.36785 -20.38526,5.35922 -27.87587,10.97503 v 0.0227 c -0.67238,0.50755 -1.33217,1.02932 -1.97938,1.56257 -8.07307,6.64751 -14.22062,15.18769 -19.67671,24.26041 -1.21595,-2.02231 -2.43889,-4.02977 -3.66444,-6.02374 7.29078,-11.56868 14.79647,-22.03105 23.56789,-29.86129 9.15465,-8.172357 19.58339,-13.530593 33.07237,-14.706934 1.79203,-0.156472 3.64487,-0.23244 5.5519,-0.23244 v -0.02268 l 0.0113,-7.071571 c -1.79864,0 -3.66062,0.119811 -5.51501,0.300094 -1.52424,-2.630853 -3.08587,-5.233738 -4.73083,-7.770217 C 243.71354,57.54085 228.096,42.733833 199.67539,42.733833 c -28.42088,0 -44.01933,14.807131 -55.61087,32.680101 -1.62838,2.510967 -3.17647,5.086828 -4.68779,7.690545 -1.82154,-0.139843 -3.93256,-0.220725 -6.59985,-0.220725 -0.19427,0.0028 -0.38302,0.01134 -0.5763,0.02268 4.90825,-8.771565 9.51946,-17.836459 14.854,-26.061921 11.3009,-17.425323 25.4115,-31.056378 52.62043,-31.056378 27.20874,0 41.34399,13.631055 52.64489,31.056378 4.73926,7.30715 8.92475,15.294501 13.23012,23.132788 V 72.550602 C 262.2991,66.610469 258.975,60.55612 255.30403,54.896088 243.71308,37.02274 228.09555,22.21595 199.6749,22.21595 v 0.0076 c -28.42088,0 -44.01933,14.80063 -55.61087,32.673978 -5.88877,9.080088 -10.86962,18.943634 -16.14093,28.213001 -4.46347,0.339024 -8.65168,1.062501 -12.64184,2.169222 13.23851,-14.085921 21.03341,-34.062425 31.7732,-50.62269 11.3009,-17.42536 25.41147,-31.0562641 52.62044,-31.0562641 27.20874,0 41.34399,13.6309041 52.64489,31.0562641 4.73892,7.30715 8.92497,15.281575 13.23012,23.12058 V 50.246438 C 262.29921,44.30725 258.975,38.374791 255.30403,32.714494 243.7132,14.841524 228.09555,0.05264882 199.6749,0.05264882 Z M 65.929776,3.6177638 c 5.026583,0 9.600076,0.4696063 13.787793,1.3419968 0.413858,0.08315 0.825335,0.1697008 1.231748,0.2630551 0.0038,0.0011 0.01134,0.00378 0.01134,0.00756 0.406715,0.094866 0.807534,0.192 1.207257,0.2940472 0.0038,0.00117 0.01134,0.00378 0.01134,0.00756 0.399648,0.1065827 0.796876,0.1957795 1.188813,0.3057638 0.0038,0.00121 0.01134,0.00378 0.01134,0.00756 0.392504,0.1065827 0.779074,0.2263937 1.164472,0.3428032 0.147024,0.047622 0.289134,0.094866 0.435213,0.1409764 0.627288,0.1969134 1.247584,0.3960945 1.85673,0.6130771 0.0038,0.00155 0.01134,0.00378 0.01134,0.00756 0.37115,0.1315275 0.738784,0.2657008 1.102828,0.4043716 0.0038,0.00155 0.01134,0.00378 0.01134,0.00756 0.363968,0.1387087 0.726916,0.2834646 1.085027,0.4292787 0.0038,0.00166 0.01134,0.00378 0.01134,0.00756 0.356788,0.1458898 0.715049,0.2940472 1.066054,0.4470425 l 0.0076,0.00756 c 0.351118,0.1530708 0.703219,0.311811 1.04829,0.4719874 l 0.0076,0.00756 c 0.34507,0.159874 0.684207,0.3178583 1.023344,0.4838173 l 0.01134,0.00756 c 0.33789,0.1659213 0.678312,0.335622 1.011515,0.5087244 0.0038,0.00212 0.01134,0.00378 0.01134,0.00756 0.331842,0.1731023 0.6593,0.3473387 0.986607,0.5264877 l 0.0076,0.0076 c 0.326173,0.17915 0.6593,0.360567 0.980674,0.5455 l 0.0076,0.0076 c 0.321259,0.185196 0.634431,0.378292 0.949833,0.570368 0.0038,0.0024 0.01134,0.0038 0.01134,0.0076 0.315591,0.192 0.627326,0.384227 0.938003,0.582236 0.0038,0.0024 0.01134,0.0038 0.01134,0.0076 0.309543,0.198048 0.614249,0.409096 0.918992,0.61304 h 0.0076 c 0.307276,0.205228 0.6048,0.413858 0.907162,0.624945 l 0.0076,0.0076 c 0.298961,0.20863 0.588171,0.416239 0.882256,0.630878 v 0.0076 c 0.592933,0.432831 1.172783,0.876321 1.746483,1.329788 0.003,0.0027 0.0113,0.0032 0.0113,0.0076 0.2846,0.225259 0.57158,0.461253 0.85141,0.692485 l 0.008,0.0076 c 0.0473,0.04762 0.10658,0.08315 0.15307,0.129259 0.22904,0.189733 0.45415,0.383018 0.68066,0.576303 0.003,0.0028 0.0113,0.0033 0.0113,0.0076 0.27515,0.235842 0.54905,0.475502 0.82057,0.71743 0.003,0.0028 0.0113,0.0033 0.0113,0.0076 0.27175,0.24189 0.53601,0.488542 0.80281,0.735194 0.003,0.0031 0.0113,0.0031 0.0113,0.0076 0.26683,0.246803 0.53363,0.496856 0.79687,0.747061 l 0.008,0.0076 c 0.008,0.0076 0.0113,0.01134 0.0227,0.02268 0.78977,0.755377 1.56185,1.531994 2.31639,2.328605 l 0.008,0.0076 c 0.25248,0.266835 0.49686,0.53246 0.74827,0.802809 l 0.008,0.0076 c 0.24794,0.270236 0.49686,0.538393 0.74113,0.814677 l 0.008,0.0076 c 0.24416,0.275149 0.48854,0.553776 0.72926,0.833612 l 0.008,0.0076 c 0.24189,0.279685 0.47909,0.55612 0.71743,0.839547 l 0.008,0.0076 c 0.23849,0.283465 0.4696,0.577512 0.70439,0.864491 l 0.008,0.0076 c 0.23471,0.286866 0.46722,0.579855 0.69845,0.870388 l 0.008,0.0076 c 0.23131,0.290645 0.46364,0.582236 0.69253,0.876321 v 0.0076 c 0.22904,0.295181 0.46008,0.589342 0.68658,0.888189 v 0.0076 c 0.2264,0.298961 0.4506,0.598828 0.67473,0.901228 v 0.0076 c 0.22299,0.302362 0.44704,0.607143 0.66761,0.913096 v 0.0076 c 0.22073,0.305763 0.44349,0.610696 0.66168,0.918992 v 0.0076 c 0.21808,0.308409 0.43404,0.613077 0.64986,0.924964 v 0.0076 c 2.2055,3.199597 4.28046,6.555704 6.28724,9.99462 -1.60607,2.682898 -3.22522,5.367496 -4.85322,8.052095 C 106.7452,34.335912 91.516384,22.293959 65.900787,22.293959 c -23.728441,0 -38.534626,10.328882 -49.513587,24.137915 -0.501581,0.630879 -1.0032,1.261266 -1.48902,1.905751 -1.660158,-2.747792 -3.303723,-5.490935 -4.9452477,-8.229845 1.2483027,-2.096429 2.5293737,-4.15476 3.8545137,-6.158476 0.662891,-1.001991 1.336289,-1.991811 2.022198,-2.965984 0.68538,-0.97474 1.38395,-1.930507 2.09571,-2.873953 v -0.0076 c 3.646753,-4.833257 7.6591,-9.23395 12.304819,-12.899222 C 39.16097,8.1569764 50.354306,3.6698079 65.900787,3.6698079 Z m 0,22.1829922 v 0.0076 c 25.194974,0 39.139054,11.672542 50.058974,27.238602 -0.1508,0.244157 -0.29632,0.490922 -0.44708,0.735193 -1.65872,2.687698 -3.35849,5.117443 -5.07995,7.353562 -1.98353,-2.066078 -4.09928,-4.013215 -6.35471,-5.80936 -0.19805,-0.157606 -0.39367,-0.316725 -0.5941,-0.47195 h -0.008 c -0.20032,-0.155338 -0.39844,-0.318992 -0.6,-0.471987 h -0.008 c -0.20296,-0.153071 -0.40793,-0.30841 -0.61308,-0.45891 h -0.008 c -0.20523,-0.150426 -0.40554,-0.305764 -0.61307,-0.454148 h -0.008 c -0.2075,-0.148158 -0.41503,-0.295182 -0.62495,-0.441147 h -0.008 c -0.20976,-0.14589 -0.41858,-0.291779 -0.63084,-0.435175 h -0.008 c -0.21241,-0.143622 -0.423342,-0.288 -0.636772,-0.429278 h -0.0076 C 99.312,51.881386 98.875616,51.601625 98.436019,51.330066 h -0.0076 c -0.439937,-0.271748 -0.885808,-0.535975 -1.335345,-0.796875 l -0.0076,-0.0076 C 96.184246,50.003866 95.26,49.506971 94.315836,49.030297 l -0.0076,-0.0076 C 86.497701,45.084661 77.211402,42.74778 65.91772,42.74778 c -19.591824,0 -33.177903,7.023382 -43.440756,17.256226 -1.428321,-1.923666 -2.839786,-3.992315 -4.22211,-6.2321 -0.118678,-0.190867 -0.232441,-0.384227 -0.349985,-0.576303 -9.45e-4,-0.0015 9.45e-4,-0.0038 0,-0.0076 -0.329575,-0.540737 -0.655748,-1.083817 -0.986608,-1.623609 0.322394,-0.44349 0.65813,-0.869216 0.986608,-1.30526 v -0.01134 C 28.531502,36.111496 42.269518,25.797543 65.917077,25.797543 Z m -0.07106,20.50405 v 0.0076 h 0.0076 l 0.01134,0.0076 0.0076,0.0076 h 0.03402 c 1.917845,0 3.767849,0.07106 5.557946,0.202961 0.03402,0.0031 0.08315,0.0029 0.122079,0.0076 0.0038,3.78e-4 0.01134,-2.27e-4 0.01134,0 0.04762,0.0038 0.09487,0.01134 0.147024,0.01134 2.388737,0.18633 4.668737,0.48737 6.844951,0.894123 0.272882,0.04762 0.545462,0.106582 0.81464,0.15307 l 0.0076,0.0076 c 0.270236,0.05934 0.536012,0.106583 0.802809,0.171969 l 0.0076,0.0076 c 0.266835,0.05934 0.539566,0.106583 0.80281,0.171969 l 0.0076,0.0076 c 0.263055,0.05934 0.535937,0.125858 0.796838,0.189732 0.132661,0.03402 0.266834,0.07106 0.398475,0.106583 0.131528,0.03402 0.261921,0.05934 0.392466,0.09487 h 0.0076 c 0.257386,0.07106 0.516964,0.143622 0.771969,0.214677 0.780283,0.218079 1.545978,0.451767 2.298028,0.698419 0.245291,0.08315 0.48737,0.161386 0.72926,0.245291 l 0.0076,0.0076 c 0.24189,0.08315 0.489751,0.164788 0.729298,0.251339 l 0.0076,0.0076 c 0.239622,0.08315 0.468397,0.174236 0.704352,0.263055 l 0.0076,0.0076 c 0.235842,0.09487 0.470778,0.176882 0.70439,0.269102 l 0.0076,0.0076 c 0.233575,0.09487 0.468397,0.192 0.698457,0.288 0.0038,0.0017 0.01134,0.0038 0.01134,0.0076 0.231308,0.09487 0.458911,0.189733 0.686589,0.288 0.0038,0.0018 0.01134,0.0038 0.01134,0.0076 0.227528,0.09487 0.455357,0.193133 0.680655,0.294047 0.0038,0.0019 0.01134,0.0038 0.01134,0.0076 0.22526,0.106582 0.454186,0.20296 0.673549,0.306142 0.01134,0.0076 0.02268,0.0076 0.03402,0.02268 0.667616,0.312945 1.322419,0.642708 1.967055,0.980674 0.0038,0.0022 0.01134,0.0038 0.01134,0.0076 0.214677,0.106582 0.43045,0.221858 0.64388,0.336756 0.0038,0.0021 0.01134,0.0038 0.01134,0.0076 0.212409,0.118677 0.421001,0.21959 0.630878,0.336756 0.0038,0.0022 0.01134,0.01134 0.01134,0.01134 0.209764,0.118677 0.417411,0.234709 0.624907,0.355654 0.0038,0.0022 0.01134,0.0034 0.01134,0.0076 0.207496,0.120945 0.413858,0.244157 0.619011,0.367748 0.0037,0.0024 0.01134,0.0038 0.01134,0.0076 0.205229,0.123213 0.410306,0.24189 0.613077,0.367748 0.0038,0.0024 0.01134,0.0037 0.01134,0.0076 0.202961,0.12548 0.406753,0.245291 0.607143,0.373417 l 0.0076,0.0076 c 0.106583,0.07106 0.21241,0.14589 0.318992,0.214678 0.09487,0.05934 0.188599,0.122078 0.282331,0.183685 0.0038,0.0025 0.01134,0.0036 0.01134,0.0076 0.198047,0.130393 0.392504,0.271748 0.58817,0.404371 0.0037,0.0026 0.01134,-0.0025 0.01134,0 0.19578,0.132662 0.388952,0.263433 0.582237,0.398438 0.0038,0.0026 0.01134,0.0034 0.01134,0.0076 0.193134,0.135307 0.390123,0.272882 0.582236,0.410306 l 0.0076,0.0076 c 0.193133,0.138708 0.385398,0.269102 0.576302,0.410305 l 0.008,0.0076 c 0.19086,0.140977 0.38184,0.290646 0.5704,0.435213 h 0.008 c 0.0593,0.03402 0.10658,0.08315 0.15874,0.122079 0.13531,0.106582 0.26457,0.212409 0.39844,0.318992 0.003,0.0027 0.0113,0.0034 0.0113,0.0076 0.18482,0.144756 0.36775,0.294047 0.55139,0.441146 h 0.008 c 0.18255,0.147024 0.36397,0.297827 0.5455,0.447043 0.003,0.0029 0.0113,0.0036 0.0113,0.0076 0.18142,0.149291 0.35943,0.301228 0.53953,0.452976 0.003,0.0028 0.0113,0.0034 0.0113,0.0076 0.17915,0.151937 0.35565,0.300095 0.53363,0.452977 0.003,0.003 0.0113,0.01134 0.0113,0.01134 0.17801,0.154205 0.34507,0.309544 0.52059,0.466016 0.003,0.0029 0.0113,0.0031 0.0113,0.0076 0.17537,0.156472 0.34167,0.320126 0.51462,0.477883 l 0.008,0.0076 c 0.0113,0.01134 0.034,0.02268 0.0472,0.04724 0.15912,0.144756 0.31446,0.288 0.47199,0.435212 0.003,0.0031 0.0113,0.0031 0.0113,0.0076 0.17197,0.160252 0.33789,0.32126 0.50868,0.483818 l 0.008,0.0076 c 0.17084,0.162519 0.34016,0.326173 0.50873,0.489751 0.003,0.0031 0.0113,0.0031 0.0113,0.0076 0.16819,0.164787 0.33448,0.335622 0.50279,0.50279 l 0.008,0.0076 c 0.49806,0.495685 0.9866,1.000856 1.47065,1.513587 -2.99445,3.536957 -6.03394,6.479584 -9.038703,8.903887 -0.682277,-0.43419 -1.38183,-0.851601 -2.086296,-1.257598 -0.481474,-0.277417 -0.971188,-0.550223 -1.464643,-0.814677 -0.163653,-0.08315 -0.320126,-0.170835 -0.483817,-0.257386 h -0.0076 c -0.330709,-0.173102 -0.668788,-0.347338 -1.004372,-0.514658 -0.167055,-0.08315 -0.334488,-0.169701 -0.50279,-0.251339 h -0.0076 c -0.168567,-0.08315 -0.33789,-0.170834 -0.508725,-0.251338 h -0.0076 c -0.169701,-0.08315 -0.336756,-0.15874 -0.508724,-0.239622 h -0.0076 c -0.518211,-0.236977 -1.0447,-0.468397 -1.574892,-0.692523 h -0.0076 C 90.753168,68.4966 90.57742,68.419502 90.40205,68.346935 h -0.0076 c -0.07106,-0.02268 -0.143622,-0.05934 -0.214677,-0.08315 -0.106583,-0.04724 -0.218079,-0.09487 -0.325039,-0.135307 -0.360567,-0.143622 -0.724536,-0.279685 -1.090961,-0.41624 -0.183685,-0.07106 -0.366236,-0.136441 -0.551395,-0.201448 -6.466054,-2.333821 -13.846035,-3.652196 -22.354545,-3.652196 -13.119723,0 -23.568265,3.14075 -32.104177,8.303358 C 30.712365,69.621808 27.643124,66.560844 24.62948,62.865789 34.387389,52.973291 46.906696,46.34502 65.858079,46.34502 Z m 133.790694,0.02268 c 27.20871,0 41.3441,13.637103 52.64504,31.062426 1.32439,2.042078 2.59125,4.152869 3.836,6.287206 -3.4071,0.506381 -6.54482,1.185827 -9.00798,1.8384 C 236.34973,72.955843 221.94671,63.828813 199.64946,63.828813 v 0.0076 c -22.47409,0 -36.91612,9.268648 -47.71189,21.9809 -3.3905,-0.966463 -5.74945,-1.71874 -8.70168,-2.218318 1.23266,-2.108749 2.48406,-4.188926 3.79321,-6.207571 C 158.33,59.96606 172.4406,46.328995 199.64946,46.328995 Z m 0,21.073852 v 0.0076 c 20.63226,0 33.72907,7.853708 43.7901,19.241651 -0.61546,0.224126 -1.22853,0.456529 -1.83224,0.698419 -0.034,0.01134 -0.0711,0.02268 -0.10658,0.04724 -2.40971,0.974778 -4.72951,2.094312 -6.96125,3.339666 -3.62056,-2.187288 -7.47186,-4.035628 -11.58172,-5.484435 -6.94809,-2.728819 -14.65712,-4.277291 -23.31069,-4.277291 -10.85654,0 -20.22693,2.438665 -28.4702,6.58749 -2.31995,1.087408 -4.55947,2.300749 -6.71009,3.640025 -2.81216,-1.62342 -5.77282,-3.030992 -8.87316,-4.216101 10.09194,-11.565203 23.2233,-19.578671 44.05345,-19.578671 z m -134.378977,0.0076 h 0.0076 c 0.213543,-0.0017 0.428069,0 0.64388,0 0.930898,0 1.845166,0.0076 2.745336,0.04762 0.01134,5.66e-4 0.03401,-6.05e-4 0.04724,0 1.959798,0.07106 3.847861,0.220346 5.668346,0.435174 0.03402,0.0038 0.08315,0.01134 0.122079,0.01134 0.0038,4.53e-4 0.01134,-4.91e-4 0.01134,0 0.04762,0.0038 0.08315,0.0076 0.122079,0.02268 2.206451,0.269102 4.313802,0.634432 6.33018,1.102828 0.03401,0.0076 0.07106,-8.31e-4 0.106582,0.02268 h 0.0076 c 0.03402,0.0076 0.07106,0.01134 0.106583,0.02268 5.616643,1.328466 10.523717,3.404863 14.909254,6.054349 -4.514684,3.184177 -8.880529,5.311408 -12.795062,6.728467 -11.443049,4.032151 -24.221367,3.011036 -32.815067,0 -4.171692,-1.510149 -8.8543,-3.807686 -13.689714,-7.353525 7.622929,-4.350538 16.815307,-7.002293 28.470312,-7.096101 z M 199.88232,88.182501 h 0.008 v 0.214677 c 0.034,-7.18e-4 0.071,6.8e-4 0.10658,0 10.91989,-0.198047 19.9677,2.310085 27.87587,6.636586 -1.9745,1.438753 -3.88585,2.967042 -5.71729,4.602028 -1.59035,1.419548 -3.12684,2.909068 -4.62667,4.455038 -4.84574,-1.15381 -10.16062,-1.78359 -16.01836,-1.78325 -0.50037,0 -1.00554,-0.002 -1.51355,0.008 -0.034,5.6e-4 -0.0711,-6.1e-4 -0.10658,0 v 3.56031 c 0.034,-6e-4 0.071,6.8e-4 0.10658,0 5.39191,-0.0949 10.28202,0.33222 14.74367,1.21331 -4.75835,5.31333 -9.10594,11.2159 -13.25465,17.44006 -0.57985,-0.008 -1.04591,-0.003 -1.2929,0 v -0.0113 c -0.12586,0.002 -0.19578,0.008 -0.19578,0.0113 -0.034,5.7e-4 -0.0711,0.004 -0.10658,0.008 v 2.41447 c -0.002,0.004 -0.004,0.008 -0.008,0.0113 v -2.43273 c -0.034,-7.2e-4 -0.0711,-0.008 -0.10658,-0.008 0,-0.008 -0.27742,-0.0113 -0.7293,-0.0113 v 0.008 c -0.55733,0.002 -1.3835,0.0113 -2.26727,0.034 -4.08222,-6.12737 -8.35615,-11.94422 -13.0219,-17.19492 4.80094,-1.06251 10.1057,-1.59043 16.01847,-1.48286 0.034,7.1e-4 0.071,-6.1e-4 0.10658,0 v -3.55416 c -0.034,-6e-4 -0.0711,-0.004 -0.10658,-0.008 v 0.008 c -0.50873,-0.008 -1.01269,-0.0113 -1.51359,-0.0113 -6.35698,-3.4e-4 -12.07121,0.74117 -17.24402,2.08967 -3.12548,-3.23777 -6.45052,-6.216458 -10.0069,-8.860955 8.11706,-4.628636 17.42898,-7.344869 28.75834,-7.139112 0.034,6.8e-4 0.0711,-7.18e-4 0.10659,0 z M 45.83263,101.95192 c 6.206135,2.20434 13.239987,3.82383 20.54691,3.82383 7.158236,0 14.154595,-1.55652 20.399849,-3.68901 -1.640466,1.58426 -3.223181,3.24514 -4.761335,4.96362 -5.674054,6.33932 -10.758615,13.52953 -15.632353,21.09225 -6.232214,-9.67736 -12.828019,-18.7251 -20.553071,-26.19069 z m 86.93061,1.53812 c -28.42061,0 -44.043857,14.7761 -55.63529,32.64953 -11.591547,17.87346 -19.615522,38.83052 -33.348095,52.17909 -10.282016,9.99447 -18.997342,15.48378 -25.85983,18.46341 -1.230047,0.53481 -2.401171,0.99254 -3.511219,1.37889 -0.554986,0.19313 -1.093341,0.36775 -1.617826,0.52649 -0.396057,0.11981 -0.77435,0.22299 -1.151434,0.32504 -0.124346,0.034 -0.257385,0.071 -0.379464,0.10658 -0.94749,0.2468 -1.8348474,0.43876 -2.6656253,0.58817 h 9.3266263 11.116045 c 0.09487,-0.0832 0.190866,-0.16479 0.288,-0.24529 9.921184,-8.22501 21.364611,-13.24033 36.583596,-13.24849 v 0.0113 c 1.433537,0 2.829733,0.0476 4.197695,0.13531 0.0038,3.8e-4 0.01134,-2.3e-4 0.01134,0 0.07106,0.004 0.138709,0.0113 0.20863,0.0227 0.385399,0.0227 0.77435,0.0593 1.151433,0.0949 2.107692,0.18369 4.139226,0.46957 6.103446,0.85142 0.388951,0.0711 0.77435,0.14929 1.158539,0.23244 1.941694,0.42217 3.817171,0.94156 5.631496,1.55036 0.359433,0.12095 0.71743,0.24567 1.071987,0.37342 l 0.0076,0.008 c 0.355654,0.12812 0.709115,0.25738 1.06012,0.3925 l 0.0076,0.008 c 0.703181,0.27024 1.404359,0.55261 2.089663,0.85141 5.167332,2.25298 9.841739,5.29081 14.216687,8.9652 h 17.06011 c 3.93861,-0.76128 8.20671,-1.18228 12.87473,-1.18228 v 0.008 h 0.008 c 0.5514,0 1.09569,0.008 1.6362,0.0227 0.54073,0.0113 1.08147,0.0227 1.61166,0.0472 0.53004,0.0227 1.04943,0.0476 1.5687,0.0831 0.4518,0.0227 0.89767,0.0593 1.34199,0.0949 0.3001,0.0227 0.59766,0.0476 0.89534,0.0832 0.12926,0.0113 0.25738,0.0227 0.38657,0.034 0.29404,0.034 0.58578,0.0593 0.87635,0.0949 0.2812,0.034 0.5621,0.071 0.83951,0.10658 0.0711,0.008 0.13531,0.004 0.20145,0.0227 0.10658,0.0113 0.2041,0.0227 0.30614,0.0472 0.21581,0.0227 0.42932,0.0593 0.64392,0.0949 0.3428,0.0476 0.68542,0.10658 1.02335,0.15874 0.0476,0.008 0.10658,0.0227 0.15874,0.034 0.40203,0.0711 0.80519,0.13984 1.20113,0.21467 0.0227,0.004 0.034,0.004 0.0593,0.008 0.0476,0.0113 0.0949,0.0227 0.14702,0.034 h 17.0417 c 8.71677,-7.3406 18.72227,-12.15069 31.38108,-13.25469 1.79006,-0.15874 3.64399,-0.25739 5.55806,-0.25739 1.91131,0 3.76203,0.0949 5.55795,0.25739 12.65881,1.104 22.66609,5.91409 31.38104,13.25469 h 20.32017 c -0.83248,-0.14929 -1.7218,-0.33563 -2.67178,-0.58224 -5.98095,-1.55524 -14.28136,-5.26035 -24.53613,-13.66522 -0.50872,-0.41741 -1.01386,-0.83361 -1.53195,-1.27465 -0.034,-0.0227 -0.0593,-0.0472 -0.0949,-0.0831 -2.0389,-1.73839 -4.15264,-3.65673 -6.33645,-5.77946 -13.73243,-13.34835 -21.78108,-34.30587 -33.37263,-52.1791 -11.59071,-17.87214 -27.18228,-32.65342 -55.59866,-32.65569 z m 0,3.53579 c 27.2084,0 41.31957,13.63699 52.62047,31.06242 11.3009,17.4251 19.32763,38.63403 33.88123,52.77971 0.64271,0.62494 1.27987,1.22781 1.91192,1.81999 -4.66398,-1.65683 -9.66104,-2.80222 -15.06244,-3.29681 -7.96944,-13.62073 -14.93673,-28.92888 -25.13061,-41.21023 -10.79108,-12.99995 -25.42144,-22.53233 -48.22057,-22.53233 -22.81501,0 -37.476059,9.54248 -48.26952,22.55675 -10.187301,12.28373 -17.150211,27.56897 -25.118363,41.18581 -5.369537,0.50514 -10.365165,1.62894 -15.01954,3.27844 0.62967,-0.59055 1.258621,-1.17872 1.899704,-1.80162 14.553714,-14.14594 22.561966,-35.35461 33.862866,-52.77971 11.300901,-17.42532 25.436033,-31.06242 52.644853,-31.06242 z m 66.35316,21.08005 c 0.004,1.1e-4 0.008,0 0.0113,0 l -0.008,0.008 z m -66.35316,1.10872 c 21.827,0 35.14639,8.78056 45.48752,21.2394 9.29019,11.19265 15.99141,25.40927 23.59858,38.67934 -0.72926,-0.0227 -1.45796,-0.0476 -2.19992,-0.0476 -1.71035,0 -3.37867,0.071 -5.02484,0.19578 -6.15583,-10.89441 -12.92202,-21.45324 -22.30556,-29.42623 -9.74665,-8.28121 -22.33036,-13.68975 -39.55578,-13.68975 -17.32343,0 -29.97596,5.4887 -39.74559,13.84913 -9.289511,7.94914 -16.000554,18.42898 -22.115603,29.24844 -1.630639,-0.11867 -3.296504,-0.18368 -4.994343,-0.18368 v 0.008 c -0.755376,1.5e-4 -1.50172,0.0227 -2.242772,0.0472 7.600441,-13.25938 14.309216,-27.46877 23.586293,-38.65489 10.343925,-12.47176 23.669855,-21.25765 45.512015,-21.25765 z m 0,20.5163 c 16.49091,0 28.07841,5.05183 37.26395,12.85633 8.4709,7.1975 14.85528,16.82033 20.73067,27.08541 -2.94939,0.38185 -5.78207,0.94866 -8.49937,1.69739 -10.94921,-13.80144 -25.77652,-24.1256 -49.49521,-24.1256 -23.70652,0 -38.561201,10.30625 -49.507431,24.09502 -0.131528,-0.034 -0.265701,-0.071 -0.398438,-0.10658 -0.0038,-0.001 -0.01134,-0.004 -0.01134,-0.008 -0.422135,-0.10658 -0.841927,-0.22072 -1.268447,-0.32504 -0.0038,-9.4e-4 -0.01134,-0.004 -0.01134,-0.008 -0.426898,-0.10658 -0.860939,-0.19918 -1.293052,-0.29405 -0.0038,-9.4e-4 -0.01134,-0.004 -0.01134,-0.008 -1.780611,-0.39251 -3.610356,-0.70795 -5.484435,-0.94988 5.830602,-10.18919 12.153298,-19.77252 20.534703,-26.9444 9.20947,-7.88084 20.86893,-12.97277 37.45376,-12.97277 z m 0,21.08005 h 0.008 c 22.08835,0.002 35.48662,8.99112 45.84291,21.69891 -2.99944,1.03638 -5.86617,2.27308 -8.59748,3.7197 -10.17865,-7.33021 -22.36165,-11.84535 -37.25159,-11.84535 -0.24189,0 -0.48855,-0.002 -0.72926,0 -14.54143,0.14476 -26.4937,4.62626 -36.497881,11.82078 -0.229039,-0.12095 -0.455357,-0.24302 -0.686589,-0.3617 -0.371149,-0.18973 -0.74589,-0.37493 -1.121801,-0.55737 -0.0038,-0.002 -0.01134,-0.004 -0.01134,-0.008 -0.376063,-0.18255 -0.752995,-0.36397 -1.133631,-0.53956 -0.0038,-0.002 -0.01134,-0.004 -0.01134,-0.008 -0.380636,-0.17537 -0.770759,-0.34621 -1.151433,-0.51466 -0.0038,-0.002 -0.01134,-0.004 -0.01134,-0.008 -0.385398,-0.16819 -0.774387,-0.32957 -1.16451,-0.48975 -0.0038,-0.002 -0.01134,-0.004 -0.01134,-0.008 -0.785008,-0.32239 -1.578218,-0.62135 -2.383749,-0.9131 -0.0038,-0.002 -0.0038,-0.0113 -0.0076,-0.0113 -0.305763,-0.10659 -0.616592,-0.21808 -0.924926,-0.32504 10.361726,-12.68489 23.78158,-21.65435 45.84903,-21.65602 z m 0.0227,20.66332 -0.008,0.008 -0.008,0.008 v 0.008 c 12.27307,0.001 22.05944,3.24647 30.60291,8.80581 -3.37319,2.33904 -6.53923,4.98002 -9.53507,7.85598 -0.78028,-0.25966 -1.57716,-0.50517 -2.38375,-0.7352 -0.0227,-0.008 -0.0476,-0.008 -0.0711,-0.0227 -0.4613,-0.1304 -0.92731,-0.25248 -1.39714,-0.37342 -0.47078,-0.12095 -0.94749,-0.23244 -1.42787,-0.3428 -0.46246,-0.10659 -0.9261,-0.20977 -1.3971,-0.30615 -0.0113,-0.003 -0.034,-0.0113 -0.0476,-0.0113 -0.0476,-0.0113 -0.0949,-0.0227 -0.14702,-0.034 -0.421,-0.0831 -0.84669,-0.15874 -1.27465,-0.23962 -0.0227,-0.004 -0.034,-0.0113 -0.0593,-0.0113 -0.0476,-0.008 -0.0949,-0.008 -0.14703,-0.0227 -0.32957,-0.0593 -0.65934,-0.11867 -0.99254,-0.17197 -0.25625,-0.0476 -0.51349,-0.0831 -0.77197,-0.12207 -0.25965,-0.034 -0.52176,-0.0711 -0.78383,-0.10659 -0.23963,-0.034 -0.48144,-0.0711 -0.72337,-0.0949 -0.0949,-0.0113 -0.20031,-0.0227 -0.30009,-0.034 -0.12586,-0.0113 -0.25361,-0.0227 -0.37947,-0.0476 -0.24415,-0.0227 -0.48854,-0.0593 -0.73519,-0.0831 -0.45063,-0.0473 -0.90244,-0.0949 -1.36052,-0.13531 -0.51583,-0.0472 -1.03759,-0.0832 -1.56253,-0.12208 -0.0227,-0.001 -0.034,-0.004 -0.0593,-0.008 -0.008,-4.5e-4 -0.004,6.1e-4 -0.0227,0 -0.53839,-0.034 -1.08268,-0.0593 -1.63003,-0.0831 -0.55499,-0.0227 -1.11349,-0.0476 -1.67902,-0.0593 -0.56802,-0.0113 -1.13722,-0.0227 -1.7159,-0.0227 -0.26684,0 -0.53836,-0.003 -0.80277,0 -7.60116,0.071 -14.28325,1.20669 -20.2221,3.18036 -0.20523,-0.19805 -0.41269,-0.39251 -0.61901,-0.58817 -0.30237,-0.28687 -0.60597,-0.58341 -0.9131,-0.86446 l -0.008,-0.008 c -0.30576,-0.28234 -0.60948,-0.56327 -0.91899,-0.83955 -0.003,-0.003 -0.0113,-0.003 -0.0113,-0.008 -0.30954,-0.27628 -0.62373,-0.55616 -0.938,-0.82768 l -0.008,-0.008 c -0.31408,-0.27137 -0.63205,-0.54308 -0.94983,-0.8087 -0.004,-0.003 -0.0113,-0.003 -0.0113,-0.008 -0.31786,-0.2657 -0.63443,-0.53598 -0.95577,-0.79688 v -0.008 c -0.32239,-0.26078 -0.64271,-0.51704 -0.96884,-0.772 -0.003,-0.003 -0.0113,-0.003 -0.0113,-0.008 -0.17197,-0.1338 -0.34734,-0.2657 -0.52056,-0.39844 -0.15874,-0.12208 -0.31785,-0.24643 -0.47788,-0.36775 -0.33071,-0.24907 -0.65813,-0.49209 -0.99254,-0.73519 -0.004,-0.003 -0.0113,-0.003 -0.0113,-0.008 -0.33449,-0.24303 -0.67238,-0.4862 -1.01152,-0.72337 -0.004,-0.003 -0.0113,-0.004 -0.0113,-0.008 -0.0593,-0.0472 -0.12208,-0.0831 -0.18369,-0.13531 8.53247,-5.53081 18.32156,-8.76182 30.55998,-8.76287 z m 132.74896,18.17537 -0.10659,0.0593 h 0.10659 z M 0,209.68365 v 0.0227 h 0.00755906 0.05933858 l -0.05933858,-0.0227 z m 199.65358,0.0113 v 0.008 c -0.12586,0 -0.24794,0.004 -0.37342,0.008 h 1.12774 c -0.25247,-0.002 -0.49924,-0.0113 -0.75421,-0.0113 z" /></pattern><pattern
       patternUnits="userSpaceOnUse"
       preserveAspectRatio="xMidYMid"
       width="377.87535"
       height="195.94893"
       patternTransform="translate(1180.0034,543.26185) scale(0.2)"
       id="ap108"><path
         id="path19386"
         style="opacity:1;fill:#f32500;fill-opacity:1;stroke:none;stroke-width:9.00491;stroke-linecap:round;stroke-dasharray:none;stroke-opacity:1;paint-order:markers fill stroke"
         d="m 0,0 v 2.2140472 c 4.4590488,0 7.9915843,3.5324221 7.9915843,7.9914708 0,2.334803 -0.9761386,4.406249 -2.5390111,5.854526 C 3.6481134,15.954595 1.8305764,15.900548 0,15.900548 v 8.514746 C 36.117581,24.419074 66.833877,47.291376 78.527206,79.30938 54.306557,83.503332 33.283767,97.075238 19.309682,116.13857 13.081134,114.80678 6.6222614,114.1008 0,114.1008 v 8.51463 c 36.056731,0 66.729902,22.75393 78.466545,54.70681 -3.477317,0.60461 -6.887698,1.39937 -10.221997,2.37937 C 57.609298,152.38658 31.038161,132.98071 0,132.98071 v 8.53126 c 27.393184,0 50.75588,16.9598 60.197934,40.96536 -3.244725,1.28874 -6.402104,2.75282 -9.456529,4.3841 C 42.931351,166.43516 23.134299,151.88289 0,151.88277 v 8.53126 c 20.113058,1.2e-4 37.142249,12.8868 43.306129,30.87549 -2.201953,1.45354 -4.315956,3.02982 -6.383244,4.65941 H 52.10177 c 12.450369,-7.22729 26.915339,-11.37861 42.369865,-11.37861 15.446585,0 29.897275,4.15702 42.342345,11.37861 h 15.22844 c -11.86855,-9.36877 -26.05051,-15.9292 -41.56018,-18.62669 11.7495,-31.91486 42.40982,-54.70125 78.45544,-54.70125 36.03877,0 66.69516,22.77985 78.45002,54.68474 -15.54841,2.68758 -29.76752,9.25428 -41.66487,18.6432 h 15.234 c 12.44454,-7.22249 26.89508,-11.37861 42.34231,-11.37861 15.45755,0 29.92252,4.14897 42.37534,11.37861 h 15.16789 c -2.03823,-1.60774 -4.11961,-3.16249 -6.28966,-4.59886 6.14672,-18.01973 23.18759,-30.93592 43.32264,-30.93604 v -8.53126 c -23.15323,1.2e-4 -42.96673,14.57533 -50.7634,35.02821 -3.05427,-1.63574 -6.20587,-3.10772 -9.45101,-4.4005 9.43332,-24.02389 32.80834,-40.99851 60.21441,-40.99851 v -8.53126 c -31.04848,0 -57.62748,19.41887 -68.25547,46.74841 -3.33211,-0.98321 -6.74094,-1.7822 -10.21659,-2.39036 11.73229,-31.96154 42.40932,-54.72333 78.47206,-54.72333 v -8.51463 c -6.65541,0 -13.1458,0.7149 -19.40322,2.0598 -13.95001,-19.048474 -34.93864,-32.618036 -59.12391,-36.834704 11.69299,-32.019704 42.4091,-54.90599 78.52709,-54.910602 v -8.514746 c -1.82985,2.27e-4 -3.64871,0.05405 -5.45246,0.159496 -1.56283,-1.448277 -2.53901,-3.519723 -2.53901,-5.854526 0,-4.4590487 3.53246,-7.9914708 7.99147,-7.9914708 V 0 h -12.92625 c -2.23211,2.8162394 -3.57996,6.3609071 -3.57996,10.205518 0,2.460888 0.55128,4.806576 1.53108,6.912 -1.53305,0.250961 -3.05348,0.538885 -4.56022,0.86468 C 356.075,14.904869 353.62624,11.971389 351.00934,9.1977071 351.12915,5.9428157 351.84586,2.8539591 353.01411,0 h -8.9994 c -0.20258,0.66856063 -0.4097,1.3369323 -0.57278,2.0212535 C 342.61841,1.3227591 341.75622,0.66984567 340.90843,0 h -15.16784 c 9.09403,5.2938331 17.12031,12.219099 23.64952,20.400038 -3.84964,1.251968 -7.593,2.745335 -11.20241,4.472239 C 324.99258,9.8618079 305.76639,0.29627717 284.31802,0 h -2.03229 C 260.86598,0.2944252 241.65906,9.8317228 228.46012,24.806173 224.84893,23.085694 221.10297,21.595729 217.2522,20.350488 223.77449,12.189657 231.78663,5.2834016 240.86321,0 h -15.19544 c -6.55661,5.1851339 -12.42346,11.208076 -17.38742,17.943723 -6.23879,-1.336479 -12.70873,-2.043326 -19.34267,-2.043326 -6.66902,0 -13.17253,0.715049 -19.44171,2.065285 C 164.52986,11.221191 158.65984,5.1908031 152.09752,0 h -15.18995 c 9.08643,5.288315 17.10621,12.201298 23.63308,20.372523 -3.84983,1.24902 -7.59254,2.748132 -11.20245,4.472126 C 136.14361,9.8486929 116.92724,0.29586142 95.49052,0 H 93.45275 C 72.019654,0.29593701 52.80378,9.8474079 39.60514,24.839244 35.994369,23.115969 32.25891,21.620787 28.408139,20.372523 34.934249,12.2016 42.955654,5.2884283 52.041222,0 H 36.862375 C 36.04543,0.64595906 35.211553,1.2721134 34.416907,1.944189 34.258167,1.2850016 34.055584,0.64437165 33.860674,0 h -9.004876 c 1.155515,2.8222866 1.873437,5.8721386 2.004737,9.0874961 -2.651452,2.8004409 -5.132409,5.7612849 -7.424239,8.8727429 -1.47549,-0.31748 -2.965984,-0.597052 -4.466608,-0.842721 0.981166,-2.106595 1.536643,-4.449298 1.536643,-6.912 C 16.506331,6.3609071 15.158438,2.8162394 12.926362,0 Z m 94.471635,8.591811 c 18.609415,0 35.351545,7.853443 47.111845,20.427628 -3.54119,2.129348 -6.92814,4.489815 -10.13945,7.060687 -9.47822,-9.471912 -22.54949,-15.349606 -36.972395,-15.349606 -14.415799,0 -27.485594,5.869493 -36.966917,15.333089 C 54.292762,33.493153 50.907402,31.136844 47.365342,29.008479 59.12931,16.440113 75.867288,8.591811 94.471635,8.591811 Z m 188.827505,0 c 18.62619,0 35.38295,7.86652 47.14488,20.460661 -3.54131,2.132221 -6.92871,4.492082 -10.13945,7.066243 -9.48106,-9.492926 -22.56435,-15.388195 -37.00543,-15.388195 -14.39766,0 -27.45003,5.857323 -36.92841,15.300056 -3.21501,-2.569398 -6.60551,-4.92805 -10.15041,-7.055168 11.7625,-12.549997 28.48993,-20.383597 47.07882,-20.383597 z m -94.36146,15.823332 c 36.12147,0 66.84306,22.833865 78.53264,54.877569 -3.47712,0.597694 -6.89306,1.384138 -10.22755,2.357178 -10.59621,-27.393903 -37.2102,-46.869468 -68.30509,-46.869468 -31.10506,0 -57.72703,19.48868 -68.31602,46.896983 -3.33396,-0.976781 -6.74502,-1.76674 -10.22215,-2.368177 11.68516,-32.052208 42.4108,-54.894085 78.53817,-54.894085 z m -94.466045,4.92926 c 11.893605,0 22.655015,4.724825 30.528565,12.397606 -2.64412,2.551371 -5.13214,5.263257 -7.45727,8.112643 -5.93152,-5.895609 -14.08169,-9.561146 -23.071295,-9.561146 -8.980422,0 -17.126174,3.659565 -23.060221,9.544592 -2.325127,-2.850293 -4.818331,-5.55549 -7.462828,-8.107163 7.876346,-7.665978 18.635149,-12.386532 30.523049,-12.386532 z m 188.827505,0 c 11.91605,0 22.69515,4.743156 30.57252,12.441638 -2.64272,2.553902 -5.13407,5.260271 -7.4572,8.112605 -5.93522,-5.921273 -14.10334,-9.60514 -23.11532,-9.60514 -8.95729,0 -17.08056,3.642103 -23.01071,9.500598 -2.32796,-2.848214 -4.82132,-5.557304 -7.46827,-8.1072 7.87249,-7.641562 18.61258,-12.342501 30.47898,-12.342501 z m -94.36146,13.967169 c 27.4439,0 50.84511,17.021291 60.25296,41.097637 -3.24756,1.282659 -6.40433,2.741821 -9.46201,4.367471 -7.77887,-20.487949 -27.61232,-35.094198 -50.79095,-35.094274 -23.19497,7.6e-5 -43.04024,14.627225 -50.80744,35.138419 -3.05677,-1.629581 -6.2149,-3.092069 -9.46208,-4.378582 9.39908,-24.094564 32.81284,-41.130671 60.26952,-41.130671 z m -94.466045,5.601222 c 7.121655,0 13.487245,3.054765 17.899695,7.919962 -2.18049,3.25285 -4.16176,6.650683 -5.92075,10.178003 -2.23956,-4.366526 -6.776463,-7.396649 -11.978945,-7.396649 -5.196322,0 -9.737235,3.022035 -11.984504,7.380133 -1.757481,-3.527849 -3.73047,-6.925569 -5.90967,-10.178041 4.416265,-4.855786 10.780498,-7.903408 17.894174,-7.903408 z m 188.827505,0 c 7.14984,0 13.53494,3.081713 17.9492,7.980472 -2.18294,3.264605 -4.16228,6.67544 -5.92067,10.216592 -2.22138,-4.419704 -6.78682,-7.495748 -12.02853,-7.495748 -5.15622,0 -9.66444,2.977172 -11.92944,7.280996 -1.75718,-3.511635 -3.7344,-6.895068 -5.90963,-10.133972 4.41411,-4.822375 10.75344,-7.84834 17.83907,-7.84834 z m -94.36146,13.300875 c 20.15191,1.14e-4 37.20548,12.93687 43.3392,30.980145 -3.09922,2.037657 -6.07261,4.254199 -8.9003,6.636624 -3.70209,-15.589607 -17.74352,-27.251528 -34.4389,-27.251528 -16.72298,0 -30.78728,11.699944 -34.46091,27.328592 -2.82825,-2.389493 -5.79934,-4.614614 -8.90029,-6.658582 6.11739,-18.072567 23.18869,-31.035137 43.3612,-31.035251 z m -94.466045,6.019729 c 2.730859,0 4.852195,2.137852 4.852195,4.868712 0,2.604662 -1.929713,4.651843 -4.47772,4.835679 -0.125102,-5.29e-4 -0.249071,-0.0038 -0.374551,-0.0038 -0.125102,0 -0.249449,0.0038 -0.374551,0.0038 -2.549254,-0.184063 -4.494199,-2.231017 -4.494199,-4.835679 0,-2.73086 2.137852,-4.868712 4.868712,-4.868712 z m 188.827505,0 c 2.73082,0 4.85215,2.137852 4.85215,4.868712 0,2.604662 -1.92975,4.651843 -4.47764,4.835679 -0.1251,-5.29e-4 -0.24907,-0.0038 -0.37455,-0.0038 -0.12548,0 -0.24945,0.0038 -0.37455,0.0038 -2.54733,-0.185575 -4.4942,-2.232378 -4.4942,-4.835679 0,-2.73086 2.13785,-4.868712 4.86871,-4.868712 z m -94.36146,12.882218 c 14.55261,0 26.33011,11.435981 26.86601,25.852684 -2.7394,2.88306 -5.29875,5.93983 -7.65555,9.1536 -1.46441,-0.31105 -2.94455,-0.58575 -4.43361,-0.8262 1.10189,-2.20842 1.72944,-4.68892 1.72944,-7.30851 0,-9.0669 -7.43936,-16.506296 -16.50629,-16.506296 -9.06694,0 -16.50622,7.439396 -16.50622,16.506296 0,2.61736 0.61837,5.1016 1.71836,7.30851 -1.52013,0.24567 -3.02733,0.52906 -4.52168,0.84824 -2.33064,-3.18093 -4.85635,-6.20807 -7.56192,-9.06554 0.47958,-14.46875 12.28165,-25.962784 26.87146,-25.962784 z m -94.466045,5.452573 c 26.848745,0 50.723565,12.494778 66.201185,31.971551 -3.85391,1.24226 -7.59927,2.72659 -11.21348,4.44461 -13.40708,-15.31411 -33.07363,-25.009963 -54.987743,-25.009963 -21.915855,0 -41.587049,9.698953 -54.99874,25.015413 -3.609903,-1.7175 -7.347818,-3.20727 -11.196851,-4.45006 C 43.752,99.063836 67.623572,86.568189 94.471635,86.568189 Z m 188.827505,0 c 26.85944,0 50.74605,12.503546 66.22318,31.993471 -3.8499,1.24687 -7.58676,2.74496 -11.19693,4.46672 -13.40791,-15.33887 -33.09176,-25.053993 -55.02625,-25.053993 -21.89496,0 -41.54945,9.680393 -54.96019,24.971373 -3.61474,-1.71386 -7.35954,-3.19521 -11.21344,-4.43365 15.47663,-19.459915 39.33834,-31.943921 66.17363,-31.943921 z m -94.36146,13.427452 c 4.45901,0 7.99154,3.532539 7.99154,7.991549 0,2.56032 -1.1712,4.80521 -3.0071,6.25659 -1.65143,-0.0884 -3.31129,-0.13228 -4.98444,-0.13228 -1.67169,0 -3.3343,0.0495 -4.98437,0.13757 -1.83738,-1.45138 -3.00711,-3.70061 -3.00711,-6.26211 0,-4.45901 3.53246,-7.991546 7.99148,-7.991546 z m -94.466045,6.598149 c 18.669805,0 35.461535,7.90299 47.227575,20.54872 -3.54478,2.12262 -6.93524,4.47939 -10.15052,7.04429 -9.4865,-9.53345 -22.60101,-15.45438 -37.077055,-15.45438 -14.478652,0 -27.596939,5.92339 -37.088089,15.45982 -3.213996,-2.56501 -6.601852,-4.92083 -10.144932,-7.04421 11.770469,-12.64804 28.561361,-20.55424 47.233021,-20.55424 z m 188.827505,0 c 18.69222,0 35.50352,7.92038 47.27153,20.59283 -3.54297,2.12731 -6.93173,4.48611 -10.14493,7.05517 -9.49058,-9.56413 -22.62406,-15.50937 -37.1266,-15.50937 -14.44797,0 -27.54119,5.89837 -37.02754,15.39927 -3.21816,-2.56256 -6.61399,-4.91335 -10.16149,-7.03321 11.76824,-12.6198 28.54114,-20.50469 47.18903,-20.50469 z M 94.471635,127.34627 c 11.942815,0 22.745615,4.76224 30.627705,12.4913 -2.64949,2.54819 -5.1436,5.25422 -7.47379,8.10164 -5.93836,-5.94395 -14.12239,-9.64384 -23.153915,-9.64384 -9.033525,0 -17.222249,3.70307 -23.164914,9.64929 -2.330683,-2.84746 -4.824075,-5.55285 -7.473789,-8.10165 7.886476,-7.73193 18.693203,-12.49674 30.638703,-12.49674 z m 188.827505,0 c 11.97373,0 22.80098,4.7873 30.68825,12.55185 -2.64752,2.55106 -5.13993,5.2577 -7.46831,8.1072 -5.94353,-5.98277 -14.15486,-9.70995 -23.21994,-9.70995 -8.99774,0 -17.15641,3.67279 -23.09329,9.57766 -2.33122,-2.84296 -4.82964,-5.54653 -7.47931,-8.09057 7.88096,-7.69598 18.65847,-12.43619 30.5726,-12.43619 z M 94.471635,146.91481 c 7.159595,0 13.556295,3.0864 17.971195,7.99699 -2.18963,3.25754 -4.18178,6.65975 -5.9481,10.19452 -2.2227,-4.41619 -6.783952,-7.49031 -12.023095,-7.49031 -5.239937,0 -9.812448,3.07306 -12.03961,7.49031 -1.766853,-3.53178 -3.7584,-6.93324 -5.948145,-10.189 4.419477,-4.91464 10.824832,-8.00251 17.987755,-8.00251 z m 188.827505,0 c 7.19905,0 13.62565,3.12178 18.04286,8.07957 -2.19462,3.27005 -4.19086,6.68546 -5.95926,10.23311 -2.19942,-4.48139 -6.79654,-7.61148 -12.0836,-7.61148 -5.19202,0 -9.72979,3.01701 -11.97903,7.36914 -1.76481,-3.51825 -3.74702,-6.90766 -5.93166,-10.15053 4.41683,-4.86561 10.78851,-7.91981 17.91069,-7.91981 z m -188.827505,19.3206 c 2.730859,0 4.852195,2.13786 4.852195,4.86872 0,2.60466 -1.929713,4.65169 -4.47772,4.83564 -0.125102,-5.3e-4 -0.249071,-0.004 -0.374551,-0.004 -0.125102,0 -0.249449,0.004 -0.374551,0.004 -2.549254,-0.18407 -4.494199,-2.23098 -4.494199,-4.83564 0,-2.73086 2.137852,-4.86872 4.868712,-4.86872 z m 188.827505,0 c 2.73082,0 4.85215,2.13786 4.85215,4.86872 0,2.60466 -1.92975,4.65169 -4.47764,4.83564 -0.1251,-5.3e-4 -0.24907,-0.004 -0.37455,-0.004 -0.12548,0 -0.24945,0.004 -0.37455,0.004 -2.54733,-0.18558 -4.4942,-2.23238 -4.4942,-4.83564 0,-2.73086 2.13785,-4.86872 4.86871,-4.86872 z M 0,170.77916 v 8.53671 c 11.257739,0 20.828598,6.85958 24.8448,16.6329 h 8.999357 C 29.431181,181.41929 15.93978,170.77916 0,170.77916 Z m 377.87531,0 c -15.93978,0 -29.43639,10.64001 -33.84963,25.16961 h 9.00495 c 4.01563,-9.77484 13.58577,-16.6329 24.84468,-16.6329 z M 0,189.68111 v 6.26766 H 12.904328 C 9.871748,192.14105 5.208189,189.68111 0,189.68111 Z m 377.87531,0 c -5.20811,0 -9.87163,2.45994 -12.90421,6.26766 h 12.90421 z" /></pattern><pattern
       patternUnits="userSpaceOnUse"
       preserveAspectRatio="xMidYMid"
       width="161.8868"
       height="280.43354"
       patternTransform="translate(1332.8295,854.30106) scale(0.2)"
       id="ap109"><path
         id="path279"
         style="color:#000000;fill:#f32500;fill-opacity:1;stroke-width:3.77953"
         d="M 161.88673,0 0,0.00192756 V 4.5370961 H 48.152353 L 39.906255,18.83588 H 0 v 9.064517 H 34.679698 L 26.435565,42.199219 H 0 v 9.072264 L 37.826192,116.81639 29.484397,131.21091 0,80.564447 V 98.597631 L 21.58594,135.6836 H 4.6660157 L 0,127.59764 v 25.23829 l 4.6660157,-8.08592 H 21.58594 L 0,181.83594 v 18.03319 l 29.484397,-50.6465 8.341795,14.39452 L 0,229.16209 v 9.07227 h 26.435565 l 8.244133,14.29882 H 0 v 9.06448 h 39.906255 l 8.246098,14.29882 H 0 v 4.53706 h 161.88673 v -4.53706 h -43.48827 l 8.25974,-14.29882 h 35.22853 v -9.06448 h -29.99414 l 8.25978,-14.29882 h 21.73436 v -9.07616 l -0.002,0.004 h -16.49805 l 16.49998,-28.57032 v -18.13281 l -24.33982,42.14846 -8.25195,-14.29104 32.59177,-56.48436 v -27.23044 l -32.59177,-56.484393 8.25195,-14.291036 24.33982,42.14846 V 79.841499 l -16.4999,-28.570318 h 16.49805 l 0.002,0.0038 V 42.198823 H 140.15238 L 131.8926,27.900001 h 29.99414 V 18.835465 H 126.6582 L 118.39846,4.5366803 h 43.48827 z M 58.61915,4.5370961 H 75.339855 L 42.033222,61.142551 33.986343,47.263672 46.45508,25.634759 Z m 27.24805,0 h 16.81448 L 56.000013,85.347666 47.24417,70.154306 Z m 24.67774,4.5410267 8.24414,14.2753512 -38.90234,65.587918 H 64.408214 Z m 13.44923,23.2812472 8.3125,14.39452 -24.36915,42.187502 H 90.427767 Z M 10.47462,51.271483 h 15.347679 l 12.232403,21.105449 12.703144,22.042999 -7.691415,13.324199 z m 113.57813,27.917972 32.5996,56.494145 H 140.1758 L 128.0098,114.58008 115.80079,93.474595 Z M 59.166047,98.013657 h 48.771473 l 8.27539,14.298823 H 50.906268 Z M 45.658205,121.38474 H 121.4629 l 8.24414,14.29886 H 37.37503 Z m -8.283175,23.36527 h 92.33201 l -8.24414,14.29882 H 45.658205 Z m 102.80077,0 h 16.47655 l -32.5996,56.49411 -8.25196,-14.28514 12.20901,-21.10549 z M 50.906268,168.1211 h 65.306642 l -8.27539,14.29882 H 59.166047 Z m -7.839837,4.56835 7.691415,13.32423 -12.703144,22.04296 -12.232403,21.10545 H 10.47462 Z m 21.341783,18.80273 H 79.88674 l 38.90234,65.58785 -8.24414,14.27542 z m 26.019553,0 h 17.509753 l 24.36915,42.18751 -8.3125,14.39448 z m -34.427754,3.59377 46.681667,80.81053 H 85.8672 L 47.24417,210.27931 Z m -13.966791,24.20504 33.306633,56.60549 H 58.61915 L 46.45508,254.79882 33.986343,233.1699 Z"
         sodipodi:nodetypes="ccccccccccccccccccccccccccccccccccccccccccccccccccccccccccccccccccccccccccccccccccccccccccccccccccccccccccccccccccccccccccccccccccccccccccccccccccccccccccc" /></pattern></defs><g
     inkscape:label="Layer 1"
     inkscape:groupmode="layer"
     id="layer1"
     transform="translate(49.096624,36.649592)"
     style="display:inline"><rect
       style="opacity:0.713693;fill:#0b014c;fill-opacity:1;stroke-width:5.93587;stroke-linecap:round;paint-order:markers fill stroke"
       id="rect63"
       width="432.37085"
       height="331.91251"
       x="-52.721104"
       y="-44.580944"
       ry="0" /><rect
       style="stroke:none;fill:url(#pattern5542)"
       transform="matrix(0.26458333,0,0,0.26458333,-49.096624,-36.649592)"
       width="377.95281"
       height="377.95276"
       x="404.48247"
       y="34.885489"
       id="rect5545" /><rect
       style="stroke:none;fill:url(#pattern5547)"
       transform="matrix(0.26458333,0,0,0.26458333,-49.096624,-36.649592)"
       width="385.82827"
       height="377.95276"
       x="788.28674"
       y="34.885489"
       id="rect5550" /><rect
       style="stroke:none;fill:url(#pattern4556)"
       transform="matrix(0.26458333,0,0,0.26458333,-49.096624,-36.649592)"
       width="377.95256"
       height="377.95276"
       x="20.678449"
       y="34.885489"
       id="rect4559" /><g
       id="g80"
       transform="rotate(90,318.77749,74.633805)" /><g
       id="g82"
       transform="rotate(90,82.538377,405.09003)" /><g
       id="g78"
       transform="translate(0,-0.17287433)" /><g
       id="g84"
       transform="translate(0,48.232248)" /><rect
       style="stroke:none;fill:url(#pattern5552)"
       transform="matrix(0.26458333,0,0,0.26458333,-49.096624,-36.649592)"
       width="377.9492"
       height="377.95404"
       x="1179.9665"
       y="34.884847"
       id="rect5555" /><rect
       style="stroke:none;fill:url(#pattern5562)"
       transform="matrix(0.26458333,0,0,0.26458333,-49.096624,-36.649592)"
       width="377.99567"
       height="377.95277"
       x="438.46102"
       y="452.25992"
       id="rect5565" /><rect
       style="stroke:none;fill:url(#pattern5557)"
       transform="matrix(0.26458333,0,0,0.26458333,-49.096624,-36.649592)"
       width="377.87529"
       height="377.95346"
       x="20.71708"
       y="452.25957"
       id="rect5560" /><rect
       style="stroke:none;fill:url(#pattern5577)"
       transform="matrix(0.26458333,0,0,0.26458333,-49.096624,-36.649592)"
       width="161.8868"
       height="280.43354"
       x="1332.8295"
       y="854.30106"
       id="rect5580" /><rect
       style="stroke:none;fill:url(#pattern5567)"
       transform="matrix(0.26458333,0,0,0.26458333,-49.096624,-36.649592)"
       width="265.55448"
       height="209.71514"
       x="848.4236"
       y="536.37873"
       id="rect5570" /><rect
       style="stroke:none;fill:url(#pattern5572)"
       transform="matrix(0.26458333,0,0,0.26458333,-49.096624,-36.649592)"
       width="377.87535"
       height="195.94893"
       x="1180.0034"
       y="543.26185"
       id="rect5575" /></g><metadata
     id="metadata1"><rdf:RDF><cc:License
         rdf:about="http://creativecommons.org/publicdomain/zero/1.0/"><cc:permits
           rdf:resource="http://creativecommons.org/ns#Reproduction" /><cc:permits
           rdf:resource="http://creativecommons.org/ns#Distribution" /><cc:permits
           rdf:resource="http://creativecommons.org/ns#DerivativeWorks" /></cc:License><cc:Work
         rdf:about=""><cc:license
           rdf:resource="http://creativecommons.org/publicdomain/zero/1.0/" /></cc:Work></rdf:RDF></metadata></svg>
