<?xml version="1.0" encoding="UTF-8" standalone="no"?>
<svg
   id="Layer_1"
   data-name="Layer 1"
   viewBox="0 0 48 47.999999"
   version="1.1"
   sodipodi:docname="bioicons.svg"
   width="48"
   height="48"
   inkscape:version="1.1.1 (3bf5ae0d25, 2021-09-20)"
   xmlns:inkscape="http://www.inkscape.org/namespaces/inkscape"
   xmlns:sodipodi="http://sodipodi.sourceforge.net/DTD/sodipodi-0.dtd"
   xmlns="http://www.w3.org/2000/svg"
   xmlns:svg="http://www.w3.org/2000/svg"
   xmlns:rdf="http://www.w3.org/1999/02/22-rdf-syntax-ns#"
   xmlns:cc="http://creativecommons.org/ns#"
   xmlns:dc="http://purl.org/dc/elements/1.1/">
  <metadata
     id="metadata47">
    <rdf:RDF>
      <cc:Work
         rdf:about="">
        <dc:format>image/svg+xml</dc:format>
        <dc:type
           rdf:resource="http://purl.org/dc/dcmitype/StillImage" />
        <dc:title>Reactome_Imagotype_Positive</dc:title>
      </cc:Work>
    </rdf:RDF>
  </metadata>
  <sodipodi:namedview
     pagecolor="#ffffff"
     bordercolor="#999999"
     borderopacity="1"
     objecttolerance="10"
     gridtolerance="10"
     guidetolerance="10"
     inkscape:pageopacity="0"
     inkscape:pageshadow="0"
     inkscape:window-width="1920"
     inkscape:window-height="1114"
     id="namedview45"
     showgrid="false"
     inkscape:zoom="3.0867372"
     inkscape:cx="-56.046236"
     inkscape:cy="60.095819"
     inkscape:window-x="0"
     inkscape:window-y="31"
     inkscape:window-maximized="1"
     inkscape:current-layer="Layer_1"
     inkscape:pagecheckerboard="0" />
  <defs
     id="defs4">
    <style
       id="style2">.cls-1{fill:#2f9ec2;}.cls-2{fill:#d1eaf2;}.cls-3{fill:#9bd1e2;}.cls-4{fill:#80c4da;}.cls-5{fill:#65b7d2;}.cls-6{fill:#4aabca;}</style>
    <rect
       x="-570.75629"
       y="-57.900295"
       width="612.50269"
       height="205.65784"
       id="rect1078" />
  </defs>
  <title
     id="title6">Reactome_Imagotype_Positive</title>
  <g
     inkscape:label="Layer 1"
     id="layer1"
     transform="matrix(0.30270641,0,0,0.30270641,0.56456345,2.6535028)">
    <path
       id="rect842"
       style="fill:#eeeeec;stroke:#2e3436;stroke-width:2;stroke-linecap:round;stroke-miterlimit:4;stroke-dasharray:none"
       d="M 69.811488,1.973202 C 69.393094,1.977162 68.96226,2.034473 68.530033,2.1502919 66.224822,2.7679712 64.782878,4.8100011 65.297028,6.728827 l 12.69442,47.375154 -12.69442,47.375149 c -0.51415,1.91882 0.927797,3.96086 3.233005,4.57854 2.305207,0.61767 4.575189,-0.43007 5.089336,-2.34889 l 8.83181,-32.960558 8.831806,32.960558 c 0.51416,1.91883 2.78369,2.96658 5.0889,2.34889 2.3052,-0.61769 3.747155,-2.65971 3.23301,-4.57854 L 86.910915,54.103981 99.604895,6.728827 c 0.514135,-1.9188259 -0.92781,-3.9608558 -3.23301,-4.5785351 -2.30521,-0.6176785 -4.57475,0.4296199 -5.0889,2.3484457 L 82.451179,37.459739 73.619369,4.4987376 C 73.201625,2.9396917 71.624529,1.9560193 69.811488,1.973202 Z" />
    <circle
       style="fill:#8ae234;stroke:#2e3436;stroke-width:2;stroke-linecap:round;stroke-miterlimit:4;stroke-dasharray:none"
       id="path849"
       cx="82.450958"
       cy="54.103909"
       r="5.1479092" />
    <path
       id="rect851"
       style="fill:#eeeeec;stroke:#2e3436;stroke-width:2;stroke-linecap:round;stroke-miterlimit:4;stroke-dasharray:none"
       d="m 118.03724,70.576829 c -1.385,0 -2.5001,1.115105 -2.5001,2.500106 0,1.384998 1.1151,2.500103 2.5001,2.500103 h 2.56419 c -0.0383,0.250442 -0.0641,0.504876 -0.0641,0.766363 v 57.721029 c 0,2.77 2.22969,5.00021 4.99968,5.00021 2.77,0 5.00021,-2.23021 5.00021,-5.00021 V 76.343401 c 0,-0.261501 -0.0263,-0.515908 -0.0646,-0.766363 h 2.5647 c 1.385,0 2.49959,-1.115105 2.49959,-2.500103 0,-1.385001 -1.11459,-2.500106 -2.49959,-2.500106 z"
       sodipodi:nodetypes="ssscssssscssss" />
    <path
       style="fill:none;stroke:#000000;stroke-width:2;stroke-linecap:butt;stroke-linejoin:miter;stroke-miterlimit:4;stroke-dasharray:none;stroke-opacity:1"
       d="M 125.48876,47.432896 V 101.58252"
       id="path872"
       sodipodi:nodetypes="cc" />
    <path
       style="fill:#8ae234;stroke:#000000;stroke-width:2;stroke-linecap:butt;stroke-linejoin:miter;stroke-miterlimit:4;stroke-dasharray:none;stroke-opacity:1"
       d="m 128.65374,38.96623 c 0,-2.84965 -3.16498,-7.408333 -3.16498,-7.408333 0,0 -3.16498,4.558683 -3.16498,7.408333 0,2.849649 3.16498,8.466666 3.16498,8.466666 0,0 3.16498,-5.617017 3.16498,-8.466666 z"
       id="path878"
       sodipodi:nodetypes="zczcz" />
    <path
       style="fill:#8ae234;stroke:#000000;stroke-width:2;stroke-linecap:butt;stroke-linejoin:miter;stroke-miterlimit:4;stroke-dasharray:none;stroke-opacity:1"
       d="m 132.47687,61.566036 c 1.42482,-2.46787 0.96321,-7.998295 0.96321,-7.998295 0,0 -5.02029,2.365446 -6.44511,4.833315 -1.42483,2.467867 -1.49238,8.914838 -1.49238,8.914838 0,0 5.54946,-3.281989 6.97428,-5.749858 z"
       id="path880"
       sodipodi:nodetypes="zczcz" />
    <path
       style="fill:#8ae234;stroke:#000000;stroke-width:2;stroke-linecap:butt;stroke-linejoin:miter;stroke-miterlimit:4;stroke-dasharray:none;stroke-opacity:1"
       d="m 118.5972,53.439548 c -1.42482,-2.46787 -0.96321,-7.998295 -0.96321,-7.998295 0,0 5.02029,2.365446 6.44511,4.833315 1.42483,2.467867 1.49238,8.914838 1.49238,8.914838 0,0 -5.54946,-3.281989 -6.97428,-5.749858 z"
       id="path882"
       sodipodi:nodetypes="zczcz" />
    <path
       style="fill:#ffffff;stroke:#2e3436;stroke-width:2;stroke-linecap:round;stroke-miterlimit:4;stroke-dasharray:none"
       d="m 121.55128,98.816017 c -0.994,0.04983 -0.66257,1.055258 -0.70431,1.756043 0.0229,16.9791 0.0456,17.55403 0.0682,34.53313 0.66642,2.07961 2.68396,3.80356 4.94289,3.57631 2.02055,-0.10205 3.71707,-1.70899 4.27808,-3.57631 0.0232,-17.43934 0.0466,-18.47451 0.07,-35.913849 -1.27252,-0.175821 -2.50492,-0.218643 -3.66668,-1.195466 -0.5782,-0.729525 -1.15666,1.394072 -1.76875,1.670237 -1.15754,0.245224 -2.14214,-0.71211 -3.2195,-0.850095 z"
       id="path868"
       sodipodi:nodetypes="cccccccccc" />
    <path
       id="rect956"
       style="fill:#73d216;stroke:#2e3436;stroke-width:2;stroke-linecap:round;stroke-miterlimit:4;stroke-dasharray:none"
       d="m 24.200478,120.03722 h 26.554176 v 4.29531 H 24.200478 Z" />
    <path
       id="rect958"
       style="fill:#73d216;stroke:#2e3436;stroke-width:2;stroke-linecap:round;stroke-miterlimit:4;stroke-dasharray:none"
       d="m 28.698401,111.27657 h 17.558331 v 4.29531 H 28.698401 Z" />
    <path
       id="rect962"
       style="fill:#73d216;stroke:#2e3436;stroke-width:2;stroke-linecap:round;stroke-miterlimit:4;stroke-dasharray:none"
       d="m 25.787981,93.755244 h 23.37917 v 4.295311 h -23.37917 z" />
    <path
       id="rect964"
       style="fill:#73d216;stroke:#2e3436;stroke-width:2;stroke-linecap:round;stroke-miterlimit:4;stroke-dasharray:none"
       d="m 24.200478,84.994586 h 26.554176 v 4.295307 H 24.200478 Z" />
    <path
       id="rect966"
       style="fill:#73d216;stroke:#2e3436;stroke-width:2;stroke-linecap:round;stroke-miterlimit:4;stroke-dasharray:none"
       d="m 24.200478,76.233927 h 26.554176 v 4.295307 H 24.200478 Z" />
    <path
       id="rect968"
       style="fill:#73d216;stroke:#2e3436;stroke-width:2;stroke-linecap:round;stroke-miterlimit:4;stroke-dasharray:none"
       d="m 26.317149,67.473284 h 22.320835 v 4.295304 H 26.317149 Z" />
    <path
       id="rect972"
       style="fill:#73d216;stroke:#2e3436;stroke-width:2;stroke-linecap:round;stroke-miterlimit:4;stroke-dasharray:none"
       d="m 24.200478,41.191317 h 26.554176 v 4.295307 H 24.200478 Z" />
    <path
       id="rect974"
       style="fill:#73d216;stroke:#2e3436;stroke-width:2;stroke-linecap:round;stroke-miterlimit:4;stroke-dasharray:none"
       d="m 27.110899,49.951972 h 20.733334 v 4.295307 H 27.110899 Z" />
    <path
       id="path946"
       style="fill:#ffffff;stroke:#2e3436;stroke-width:2;stroke-linecap:butt;stroke-linejoin:miter;stroke-miterlimit:4;stroke-dasharray:none;stroke-opacity:1"
       d="m 19.302491,36.717845 c -0.01356,10.880364 6.744366,17.73128 14.33098,23.635216 -2.13265,1.518568 -4.282293,2.998734 -6.315055,4.514712 -11.614162,11.071195 -10.532919,29.577079 2.673007,38.609947 1.03945,0.86937 2.109672,1.71725 3.188135,2.55839 -6.946014,6.0421 -13.412345,13.01962 -13.562845,22.76989 h 5.835092 c 0.137349,-8.89828 5.707012,-14.3685 12.025761,-19.41488 6.318749,5.04638 11.888248,10.5166 12.025598,19.41488 h 5.835092 c -0.150499,-9.75028 -6.616824,-16.72778 -13.562845,-22.76989 1.078463,-0.84114 2.148848,-1.68902 3.188298,-2.55839 13.205927,-9.032868 14.287169,-27.538752 2.673006,-38.609947 -2.032741,-1.515963 -4.182426,-2.99616 -6.315054,-4.514712 7.586616,-5.903936 14.344543,-12.754852 14.33098,-23.635216 h -5.835093 c 0.0119,9.550247 -5.640419,15.623753 -12.339982,20.802822 -6.6996,-5.179079 -12.351881,-11.252534 -12.339983,-20.802822 z m 18.175075,26.530296 c 1.117115,0.823272 2.231679,1.638775 3.323755,2.453215 11.614131,11.071194 11.199755,26.576173 -2.006137,35.609044 -0.434386,0.36331 -0.875775,0.72993 -1.317618,1.09734 -0.44187,-0.36743 -0.883207,-0.73401 -1.317617,-1.09734 C 22.954055,92.277529 22.539681,76.77255 34.15381,65.701356 c 1.092076,-0.81444 2.20664,-1.629943 3.323756,-2.453215 z" />
  </g>
</svg>
