<?xml version="1.0" encoding="UTF-8" standalone="no"?>
<svg
   xmlns:dc="http://purl.org/dc/elements/1.1/"
   xmlns:cc="http://creativecommons.org/ns#"
   xmlns:rdf="http://www.w3.org/1999/02/22-rdf-syntax-ns#"
   xmlns:svg="http://www.w3.org/2000/svg"
   xmlns="http://www.w3.org/2000/svg"
   xmlns:sodipodi="http://sodipodi.sourceforge.net/DTD/sodipodi-0.dtd"
   xmlns:inkscape="http://www.inkscape.org/namespaces/inkscape"
   id="Layer_1"
   data-name="Layer 1"
   viewBox="0 0 48 47.999999"
   version="1.1"
   sodipodi:docname="ocal.svg"
   width="48"
   height="48"
   inkscape:version="1.0.2 (1.0.2+r75+1)">
  <metadata
     id="metadata47">
    <rdf:RDF>
      <cc:Work
         rdf:about="">
        <dc:format>image/svg+xml</dc:format>
        <dc:type
           rdf:resource="http://purl.org/dc/dcmitype/StillImage" />
        <dc:title>Reactome_Imagotype_Positive</dc:title>
      </cc:Work>
    </rdf:RDF>
  </metadata>
  <sodipodi:namedview
     pagecolor="#ffffff"
     bordercolor="#999999"
     borderopacity="1"
     objecttolerance="10"
     gridtolerance="10"
     guidetolerance="10"
     inkscape:pageopacity="0"
     inkscape:pageshadow="0"
     inkscape:window-width="1534"
     inkscape:window-height="843"
     id="namedview45"
     showgrid="false"
     inkscape:zoom="2.1826528"
     inkscape:cx="124.13182"
     inkscape:cy="104.77682"
     inkscape:window-x="66"
     inkscape:window-y="20"
     inkscape:window-maximized="1"
     inkscape:current-layer="Layer_1"
     inkscape:document-rotation="0" />
  <defs
     id="defs4">
    <style
       id="style2">.cls-1{fill:#2f9ec2;}.cls-2{fill:#d1eaf2;}.cls-3{fill:#9bd1e2;}.cls-4{fill:#80c4da;}.cls-5{fill:#65b7d2;}.cls-6{fill:#4aabca;}</style>
  </defs>
  <title
     id="title6">Reactome_Imagotype_Positive</title>
  <g
     id="g1060"
     transform="matrix(0.06580048,0,0,0.06580048,-0.35339993,6.982498)">
    <path
       d="m 405.8243,48.494855 c -9.71472,-2.624519 -19.68464,3.088798 -22.30916,12.803515 l -85.35676,315.62604 c -2.62453,9.71473 3.08879,19.49065 12.8035,22.11516 l 315.62603,85.35678 c 9.71464,2.62451 19.68462,-3.0888 22.30914,-12.80352 l 85.3567,-315.62604 c 1.23722,-4.57954 0.461,-9.10928 -1.55194,-12.99751 v -0.194 l -0.19399,-0.38798 v -0.19399 c -0.0451,-0.0784 -0.14774,-0.11627 -0.19399,-0.194 l -14.54945,-30.06886 -65.95743,2.90989 z"
       id="rect6080"
       style="fill:#000000;fill-opacity:0.2;fill-rule:evenodd;stroke:none" />
    <rect
       width="363.28452"
       height="363.28452"
       rx="2.9260478"
       ry="2.9260478"
       x="363.42282"
       y="-78.837021"
       transform="rotate(15.117951)"
       id="rect911"
       style="fill:#ffffff;fill-rule:evenodd;stroke:#ffffff;stroke-width:7.75971;stroke-miterlimit:4;stroke-opacity:1" />
    <rect
       width="288.49521"
       height="288.49521"
       rx="2.3236644"
       ry="2.3236644"
       x="398.72931"
       y="-39.355053"
       transform="rotate(15.117951)"
       id="rect912"
       style="fill:#f3e533;fill-opacity:1;fill-rule:evenodd;stroke-width:0.794131pt" />
    <path
       d="m 552.48969,32.227283 -66.35244,21.339192 0.58197,0.193993 H 235.30476 c -10.06292,0 -18.04132,7.978343 -18.04132,18.041317 V 398.87339 c 0,10.06304 7.97834,18.04132 18.04132,18.04132 h 327.0716 c 10.06304,0 18.04132,-7.97834 18.04132,-18.04132 V 71.801785 c 0,-5.188823 -2.15962,-9.693549 -5.62579,-12.997509 z"
       id="rect6079"
       style="fill:#000000;fill-opacity:0.2;fill-rule:evenodd;stroke:none" />
    <rect
       width="363.28418"
       height="363.28418"
       rx="2.9260466"
       ry="2.9260466"
       x="192.47523"
       y="30.531385"
       id="rect913"
       style="fill:#ffffff;fill-rule:evenodd;stroke:#ffffff;stroke-width:7.75971;stroke-miterlimit:4;stroke-opacity:1" />
    <rect
       width="288.49512"
       height="288.49512"
       rx="2.3236635"
       ry="2.3236635"
       x="227.78207"
       y="70.013809"
       id="rect914"
       style="fill:#ff7f00;fill-rule:evenodd;stroke-width:0.794131pt" />
    <path
       d="m 348.20848,28.541423 -57.03385,38.02256 13.96748,1.551942 -249.474556,89.042615 c -9.479318,3.37716 -14.434728,13.60583 -11.05758,23.08513 l 94.280426,264.79998 -6.59575,-0.19399 -4.26783,40.54445 35.50064,13.1915 h 0.388 c 4.13635,1.85929 8.97108,2.41781 13.57948,0.77598 L 485.55528,389.56176 C 495.03452,386.1846 499.796,375.762 496.41886,366.28264 L 386.81301,58.416291 c -1.55516,-4.365114 -4.78917,-7.440813 -8.53567,-9.505639 z"
       id="rect6078"
       style="fill:#000000;fill-opacity:0.2;fill-rule:evenodd;stroke:none" />
    <rect
       width="363.28326"
       height="363.28326"
       rx="2.9260383"
       ry="2.9260383"
       x="-41.716114"
       y="142.20343"
       transform="rotate(-19.609274)"
       id="rect915"
       style="fill:#ffffff;fill-rule:evenodd;stroke:#ffffff;stroke-width:7.7597;stroke-miterlimit:4;stroke-opacity:1" />
    <rect
       width="288.49469"
       height="288.49469"
       rx="2.3236592"
       ry="2.3236592"
       x="-6.4090877"
       y="181.68738"
       transform="rotate(-19.609274)"
       id="rect916"
       style="fill:#bf0000;fill-rule:evenodd;stroke-width:0.794131pt" />
  </g>
</svg>
